<svg width="87" height="125" viewBox="0 0 87 125" fill="none" xmlns="http://www.w3.org/2000/svg">
<path d="M86.0699 110.634C85.0729 101.522 83.2185 95.5996 80.5366 93.0473C75.8707 88.5908 62.4911 84.2739 61.9229 84.0944C61.9129 84.0944 61.9029 84.0944 61.8929 84.0944C61.8431 84.0844 61.7933 84.0742 61.7434 84.0642C61.7235 84.0642 61.7035 84.0642 61.6836 84.0642C61.6337 84.0642 61.5839 84.0642 61.534 84.0642C61.534 84.0642 61.5141 84.0642 61.5041 84.0642C61.4443 84.0642 61.3944 84.0844 61.3346 84.0944C61.3147 84.0944 61.2948 84.1044 61.2848 84.1144C61.2449 84.1243 61.205 84.1441 61.1651 84.164C61.1552 84.164 61.1353 84.174 61.1253 84.184C61.0754 84.2139 61.0256 84.2436 60.9857 84.2736C60.9757 84.2835 60.9558 84.2938 60.9458 84.3037C60.9259 84.3237 60.9059 84.3335 60.8959 84.3534C60.8959 84.3534 60.8661 84.3836 60.8262 84.4235C58.7226 83.7555 53.4684 82.0008 52.2122 81.1633C51.6041 80.7645 51.275 77.7238 51.4844 74.7428C52.92 71.6422 55.3128 67.7337 56.4195 66.0289C56.6588 65.65 56.6388 65.1615 56.3497 64.8226C56.3297 64.8026 56.3098 64.7826 56.2998 64.7627C57.0974 63.7557 58.0346 62.3998 58.4633 61.2134C58.7923 60.2862 59.0615 59.0801 59.2908 57.7341C60.0884 57.6843 60.8162 57.4748 61.4742 57.1159C62.541 60.2963 63.3286 63.6558 62.7204 65.3108C62.5609 65.7395 62.3515 65.8793 62.202 65.949C61.6836 66.1784 61.4543 66.7864 61.6836 67.3048C61.8531 67.6837 62.2319 67.9133 62.6208 67.9133C62.7603 67.9133 62.8999 67.8831 63.0395 67.8233C63.7773 67.4943 64.3256 66.8763 64.6446 66.0289C65.5319 63.6261 64.4153 59.2692 63.1591 55.69C64.3754 54.1846 65.1033 51.9316 65.1631 49.1799C65.2129 47.0463 64.7942 45.5209 63.9368 44.6336C63.7972 44.484 63.6477 44.3645 63.5081 44.2748C65.851 38.6019 65.0534 33.6465 63.9069 30.3963C62.7504 27.1362 61.0655 24.9832 60.577 24.3949C59.0815 20.4269 56.908 17.8446 54.1364 16.7379C53.6778 16.5584 53.2192 16.4187 52.7805 16.329C54.3558 12.1915 54.4355 8.78186 52.9998 6.18969C51.0956 2.76006 47.2771 2.15182 47.1176 2.12191C46.5892 2.04215 46.1206 2.38114 45.991 2.88961C45.9412 2.87964 45.9113 2.86965 45.9113 2.86965C45.9113 2.86965 45.9013 2.86988 45.8913 2.85991C46.1605 2.41127 46.0708 1.83292 45.642 1.51388C41.8934 -1.29762 38.2345 0.496974 36.5795 2.03233C33.3293 2.50092 31.9335 5.31242 31.5845 7.01727C30.1888 8.762 29.8896 10.9655 30.7371 13.4081C31.106 14.4849 31.6244 15.382 32.0033 15.9502C30.6374 16.7578 29.6903 17.5655 29.3313 17.8946C28.7232 18.1637 26.6794 19.1208 24.5957 20.7857C21.3455 23.3779 19.531 26.4685 19.3216 29.7386C18.7932 30.9649 16.231 37.5551 19.8899 43.0685C19.7204 43.896 19.7204 45.4412 21.0862 47.6445C20.2587 48.4221 19.3715 49.9773 19.9497 53.0082C20.4582 55.6602 21.525 57.7342 22.9407 59.0203C22.9207 59.1798 22.9008 59.3293 22.8809 59.4789C22.2229 64.8626 22.502 68.2623 23.7383 69.8873C24.3065 70.6251 25.0642 71.0041 25.9515 71.0041C26.2407 71.0041 26.5398 70.9638 26.8489 70.8741C27.3972 70.7246 27.7162 70.1665 27.5766 69.6181C27.4271 69.0698 26.8688 68.7508 26.3204 68.8904C25.792 69.0299 25.5926 68.8702 25.4431 68.7107C24.157 67.305 24.6754 61.8315 24.8649 60.1765C25.3733 60.3559 25.9017 60.4557 26.45 60.4656C26.8987 61.9212 27.3274 63.0379 27.7362 63.7857C28.9725 66.0389 32.3024 68.681 35.0042 70.4058C35.0042 70.4357 35.0042 70.4655 35.0042 70.4954C35.0042 70.5253 35.2435 73.5861 35.1837 76.5172L30.3483 80.4253C29.9993 80.7144 29.8697 81.1929 30.0392 81.6117C30.0691 81.6914 30.2884 82.18 30.7969 82.6286C29.092 83.1869 27.1479 83.7553 25.6325 84.164C25.5926 84.1441 25.5527 84.1243 25.5129 84.1144C25.5029 84.1144 25.483 84.1141 25.473 84.1041C25.4232 84.0942 25.3833 84.0744 25.3334 84.0744C25.3235 84.0744 25.3135 84.0744 25.2936 84.0744C25.2337 84.0744 25.1739 84.0744 25.1141 84.0744C25.1041 84.0744 25.0941 84.0744 25.0742 84.0744C25.0243 84.0744 24.9745 84.0844 24.9347 84.0944C24.9147 84.0944 24.9047 84.0942 24.8848 84.1041C24.8748 84.1041 24.8649 84.1041 24.8549 84.1041C24.2866 84.2836 10.917 88.6005 6.24115 93.0571C-0.0199293 99.039 7.976e-07 122.418 7.976e-07 123.405C7.976e-07 123.974 0.458583 124.432 1.02687 124.432C1.52536 124.432 46.3599 123.944 57.576 123.824C58.7325 124.243 78.6124 124.153 79.0511 123.814C79.4997 123.465 85.1527 123.585 85.7209 123.585C86.2892 123.585 86.7479 123.127 86.7479 122.558C86.7479 122.498 86.7678 117.304 86.04 110.644L86.0699 110.634Z" fill="#F0F0F2"/>
<path d="M32.5681 56.7905C34.3634 56.6498 35.7319 55.4278 35.6248 54.0608C35.5177 52.6938 33.9755 51.6994 32.1802 51.84C30.385 51.9807 29.0165 53.2032 29.1236 54.5702C29.2307 55.9372 30.7729 56.9311 32.5681 56.7905Z" fill="#F3CABE"/>
<path d="M52.3616 55.2338C54.1569 55.0932 55.5253 53.8707 55.4182 52.5037C55.3111 51.1367 53.769 50.1427 51.9738 50.2834C50.1785 50.4241 48.81 51.646 48.9171 53.0131C49.0242 54.3801 50.5664 55.3745 52.3616 55.2338Z" fill="#F3CABE"/>
<path d="M46.9217 65.5283C47.227 63.6475 45.9498 61.8753 44.0691 61.57C42.1883 61.2648 40.4162 62.542 40.1109 64.4227C39.8056 66.3035 41.0827 68.0756 42.9635 68.3809C44.8443 68.6862 46.6164 67.409 46.9217 65.5283Z" fill="#F3CABE"/>
<path d="M13.5596 123.786H61.2455L53.4391 109.669L53.9874 108.572L50.9865 104.584L42.8511 119.479L25.8425 85.5518L14.746 89.141L13.5596 123.786Z" fill="#F3CABE"/>
<path d="M54.9971 96.217L61.8663 85.1406L71.5072 88.8696L71.8761 114.661L62.6141 103.316L60.7796 103.665L54.9971 96.217Z" fill="#F3CABE"/>
<path d="M41.3594 57.9357C41.7183 58.1251 42.2667 58.3047 42.845 58.3047C43.4234 58.3047 44.0516 58.1253 44.5601 57.5769C44.8692 57.2478 44.8492 56.7292 44.5202 56.4201C44.1911 56.111 43.6727 56.1309 43.3636 56.46C42.9647 56.8887 42.1571 56.4899 42.1271 56.48C41.7283 56.2706 41.2297 56.4202 41.0203 56.829C40.8109 57.2279 40.9605 57.7263 41.3594 57.9357Z" fill="#3E3A39"/>
<path d="M46.9899 47.5186C47.1195 47.5984 47.2691 47.6379 47.4187 47.6379C47.6979 47.6379 47.9671 47.4986 48.1167 47.2493C48.1167 47.2493 48.336 46.9104 48.6949 46.5814C48.4855 46.9004 48.3759 47.2792 48.4058 47.688C48.4856 48.6452 49.3231 49.353 50.2804 49.2733C51.2376 49.1935 51.9456 48.356 51.8658 47.3988C51.8359 47.0698 51.7162 46.7708 51.5367 46.5215C51.7063 46.6511 51.8758 46.8004 52.0553 46.9699C52.3743 47.289 52.9028 47.2792 53.2119 46.9601C53.531 46.6411 53.521 46.1124 53.2019 45.8033C52.0652 44.6866 50.8886 44.198 49.702 44.3476C47.8474 44.5769 46.7606 46.3319 46.7107 46.4017C46.4714 46.7906 46.601 47.289 46.9799 47.5283L46.9899 47.5186Z" fill="#3E3A39"/>
<path d="M7.68966 94.5354C8.99572 93.2892 11.1392 92.0131 13.4822 90.8566L12.4852 122.89C12.4652 123.458 12.9139 123.927 13.4822 123.947C13.4921 123.947 13.5021 123.947 13.5121 123.947C14.0604 123.947 14.519 123.508 14.539 122.95L15.5759 89.8698C19.2747 88.2048 23.0433 86.8788 24.6784 86.3205L41.5773 120.427C41.7468 120.766 42.0957 120.986 42.4746 120.995C42.4746 120.995 42.4846 120.995 42.4945 120.995C42.8734 120.995 43.2123 120.796 43.3918 120.467L51.2381 106.16L52.5641 108.314L52.3348 108.473C51.8961 108.772 51.7565 109.371 52.0257 109.839L60.4602 124.346C60.6496 124.675 60.9986 124.854 61.3475 124.854C61.527 124.854 61.6965 124.804 61.866 124.714C62.3545 124.425 62.524 123.797 62.2349 123.309L54.2789 109.62L62.185 104.206L77.6383 124.445C77.9873 124.894 78.6253 124.983 79.074 124.634C79.5226 124.285 79.6124 123.647 79.2634 123.199L73.2017 115.263C73.2017 115.263 73.2017 115.263 73.2017 115.253L72.424 90.418C75.1159 91.6941 77.6383 93.1199 79.1138 94.5257C83.7897 98.9822 84.7468 116.868 84.7169 123.378C84.7169 123.947 85.1755 124.405 85.7438 124.405C86.3121 124.405 86.7707 123.947 86.7707 123.378C86.7707 123.319 86.7907 117.277 86.0629 110.617C85.0659 101.505 83.2114 95.5825 80.5295 93.0302C75.8636 88.5737 62.4841 84.2567 61.9158 84.0773C61.9058 84.0773 61.8959 84.0773 61.8859 84.0773C61.8361 84.0673 61.7862 84.0571 61.7463 84.0471C61.7264 84.0471 61.7065 84.0471 61.6865 84.0471C61.6367 84.0471 61.5868 84.0471 61.537 84.0471C61.537 84.0471 61.517 84.0471 61.5071 84.0471C61.4473 84.0471 61.3974 84.0673 61.3375 84.0773C61.3176 84.0773 61.2977 84.0872 61.2877 84.0972C61.2478 84.1072 61.208 84.1269 61.1681 84.1469C61.1581 84.1469 61.1382 84.1569 61.1282 84.1668C61.0784 84.1967 61.0285 84.2265 60.9886 84.2564C60.9787 84.2664 60.9587 84.2766 60.9488 84.2866C60.9288 84.3065 60.9089 84.3163 60.8889 84.3362C60.8889 84.3362 60.859 84.3665 60.8191 84.4063C58.7155 83.7384 53.4614 81.9837 52.2052 81.1462C51.597 80.7474 51.268 77.7066 51.4774 74.7256C52.913 71.625 55.3058 67.7166 56.4124 66.0117C56.6517 65.6329 56.6318 65.1444 56.3427 64.8054C56.3227 64.7855 56.3028 64.7655 56.2928 64.7455C57.0904 63.7386 58.0276 62.3826 58.4563 61.1962C58.7853 60.269 59.0544 59.0629 59.2838 57.717C60.0813 57.6671 60.8091 57.4576 61.4672 57.0987C62.5339 60.2791 63.3216 63.6387 62.7134 65.2937C62.5539 65.7224 62.3445 65.8621 62.195 65.9319C61.6766 66.1612 61.4472 66.7692 61.6765 67.2877C61.846 67.6665 62.2249 67.8962 62.6137 67.8962C62.7533 67.8962 62.8929 67.8659 63.0324 67.8061C63.7702 67.4771 64.3185 66.8592 64.6376 66.0117C65.5249 63.609 64.4083 59.252 63.1521 55.6729C64.3684 54.1674 65.0962 51.9144 65.156 49.1628C65.2059 47.0292 64.7872 45.5037 63.9297 44.6164C63.7902 44.4669 63.6406 44.3474 63.501 44.2577C65.844 38.5848 65.0463 33.6298 63.8998 30.3797C62.7433 27.1195 61.0584 24.966 60.5699 24.3778C59.0744 20.4098 56.901 17.8274 54.1293 16.7207C53.6707 16.5413 53.2121 16.4016 52.7735 16.3118C54.3487 12.1743 54.4284 8.76471 52.9928 6.17254C51.0885 2.74291 47.2701 2.13467 47.1106 2.10476C46.5523 2.025 46.0338 2.4042 45.9441 2.96252C45.8543 3.52083 46.2432 4.04915 46.8015 4.12891C46.8314 4.12891 49.8024 4.62747 51.2082 7.17975C52.3846 9.32328 52.1952 12.3339 50.6399 16.1225C48.7855 16.2022 47.4794 16.8303 47.3897 16.8702C46.8812 17.1194 46.6719 17.7277 46.9211 18.2362C47.1704 18.7446 47.7785 18.954 48.287 18.7147C48.307 18.7048 50.7595 17.5584 53.3916 18.6251C55.6348 19.5324 57.4293 21.7656 58.7155 25.255C58.7553 25.3747 58.8251 25.4944 58.9149 25.5841C58.9348 25.604 60.8092 27.7177 61.9956 31.1274C63.5609 35.6238 63.2617 40.1501 61.1083 44.5867L60.8092 45.1247C60.5001 43.36 59.6028 41.6453 57.6188 40.7181C53.6608 38.8637 48.2371 36.3115 48.5661 30.8879C48.5661 30.7683 48.5662 30.6587 48.5263 30.5491C48.5263 30.4494 48.5263 30.3496 48.5263 30.2599C48.5063 29.6916 48.0378 29.253 47.4695 29.2629C46.9012 29.2829 46.4625 29.7515 46.4725 30.3198C46.4725 30.3397 46.5223 32.4132 45.7546 34.5468C45.0069 36.6305 43.7806 38.0364 42.0857 38.7543C43.3918 36.87 43.9202 35.4042 43.9501 35.3145C44.1395 34.7761 43.8604 34.1978 43.322 34.0084C42.7837 33.8189 42.2054 34.0982 42.006 34.6266C42.006 34.6565 40.9791 37.4381 38.2772 40.0901C34.6881 43.6194 29.9524 45.2644 24.2097 44.9952C23.8807 44.9852 23.5617 45.1247 23.3524 45.3739C23.0433 45.7528 23.0134 46.022 23.2726 47.2184C21.5278 44.8157 21.8569 43.52 21.9167 43.3405C22.146 42.9916 22.0862 42.6024 21.8369 42.2535C18.1381 37.1987 21.2288 30.4592 21.2587 30.3894C21.3185 30.2698 21.3484 30.13 21.3584 30.0004C21.6475 23.3107 30.2017 19.7217 30.2814 19.6917C30.411 19.6419 30.5207 19.5719 30.6204 19.4722C30.6902 19.4024 38.0479 12.3639 45.0268 18.1963C45.4655 18.5552 46.1136 18.5054 46.4725 18.0668C46.8314 17.6281 46.7816 16.9799 46.3429 16.6209C42.9132 13.7596 38.8655 13.0817 34.6283 14.6669C34.3591 14.7666 34.0899 14.8761 33.8407 14.9858C33.1328 13.9688 31.1388 10.6091 33.3122 8.1266C33.4419 7.97705 33.5316 7.79781 33.5615 7.59841C33.5615 7.59841 33.7011 6.70108 34.2494 5.81376C34.9174 4.72705 35.8845 4.11883 37.1407 4.00916C37.3899 3.98922 37.6192 3.86976 37.7987 3.6903C37.9283 3.56069 40.9292 0.509597 44.4187 3.1217C44.8673 3.46068 45.5154 3.37099 45.8544 2.91237C46.1933 2.45376 46.1036 1.81575 45.645 1.47677C41.8963 -1.33473 38.2374 0.459864 36.5824 1.99522C33.3322 2.46381 31.9364 5.27531 31.5875 6.98016C30.1917 8.72489 29.8926 10.9284 30.74 13.371C31.1089 14.4478 31.6273 15.3448 32.0062 15.9131C30.6403 16.7207 29.6932 17.5284 29.3343 17.8574C28.7261 18.1266 26.6823 19.0836 24.5986 20.7486C21.3484 23.3408 19.5339 26.4314 19.3245 29.7015C18.7961 30.9278 16.2339 37.518 19.8928 43.0314C19.7233 43.8589 19.7233 45.4041 21.0892 47.6074C20.2617 48.385 19.3744 49.9402 19.9527 52.9711C20.4611 55.6231 21.5279 57.6971 22.9436 58.9832C22.9237 59.1427 22.9037 59.2922 22.8838 59.4417C22.2258 64.8255 22.5049 68.2251 23.7412 69.8502C24.3095 70.588 25.0672 70.967 25.9545 70.967C26.2436 70.967 26.5427 70.9267 26.8518 70.837C27.4001 70.6875 27.7191 70.1294 27.5796 69.581C27.43 69.0327 26.8717 68.7137 26.3234 68.8532C25.795 68.9928 25.5956 68.8331 25.446 68.6736C24.1599 67.2679 24.6784 61.7943 24.8678 60.1393C25.3763 60.3188 25.9046 60.4185 26.453 60.4285C26.9016 61.8841 27.3304 63.0008 27.7391 63.7486C28.9754 66.0018 32.3053 68.6439 35.0071 70.3687C35.0071 70.3986 35.0071 70.4284 35.0071 70.4583C35.0071 70.4882 35.2464 73.549 35.1866 76.4801L30.3512 80.3882C30.0023 80.6773 29.8727 81.1558 30.0422 81.5746C30.0721 81.6543 30.2914 82.1429 30.7998 82.5915C29.095 83.1498 27.1509 83.7182 25.6354 84.1269C25.5956 84.107 25.5557 84.0872 25.5158 84.0773C25.5058 84.0773 25.4859 84.077 25.4759 84.067C25.4261 84.0571 25.3862 84.0373 25.3363 84.0373C25.3264 84.0373 25.3164 84.0373 25.2965 84.0373C25.2367 84.0373 25.1769 84.0373 25.117 84.0373C25.1071 84.0373 25.0971 84.0373 25.0771 84.0373C25.0273 84.0373 24.9775 84.0473 24.9376 84.0573C24.9177 84.0573 24.9076 84.0571 24.8877 84.067C24.8777 84.067 24.8678 84.067 24.8578 84.067C24.2895 84.2465 10.92 88.5634 6.24408 93.02C-0.0169996 99.0019 0.00293049 122.381 0.00293049 123.368C0.00293049 123.936 0.461513 124.395 1.0298 124.395C1.59808 124.395 2.05672 123.927 2.05672 123.368C2.02681 116.858 2.98392 98.972 7.65979 94.5154L7.68966 94.5354ZM42.7736 90.3683C42.7138 90.2088 42.664 90.0693 42.6241 89.9297C42.5444 89.6605 42.3549 89.4408 42.1057 89.3212L41.1685 88.8427C41.657 88.1348 42.2154 87.3375 42.5743 86.8789C42.7238 86.9187 42.8933 86.9682 43.0728 87.0181C42.9332 87.8256 42.7736 89.0521 42.7736 90.378V90.3683ZM40.0818 90.5776L40.8096 90.9466C40.9292 91.2757 41.1187 91.7538 41.3679 92.2722C40.3909 92.1725 39.4138 91.993 38.4667 91.7338C39.0449 91.5344 39.5833 91.1459 40.0718 90.5776H40.0818ZM35.6153 82.9308C35.5754 83.0305 35.5355 83.1203 35.5156 83.2C35.2564 84.217 35.1667 87.3672 35.1567 87.9854C35.1567 88.3642 35.3461 88.7031 35.6552 88.8826L35.2464 89.8197C35.1467 90.059 35.1368 90.3184 35.2165 90.5577C31.9564 89.112 29.1947 87.0981 27.5497 85.7621C29.9823 85.0642 34.1896 83.798 35.6253 82.9206L35.6153 82.9308ZM42.5344 117.766L28.2177 88.8826C28.766 89.2814 29.3642 89.6903 30.0122 90.0991C35.6053 93.6583 40.0419 94.4059 42.7836 94.4059H42.8036C43.0827 94.6751 43.3818 94.9146 43.7008 95.084C43.7407 95.104 43.7707 95.1138 43.8106 95.1337C44.2093 95.8116 44.7377 96.3998 45.4655 96.8185L49.9918 104.166L42.5344 117.775V117.766ZM71.0781 112.471L63.2318 102.192C62.9028 101.754 62.2847 101.664 61.836 101.973L61.0983 102.482L56.6816 96.2402L62.1152 86.3302C63.6007 86.8287 66.9307 88.0051 70.3603 89.4906L71.0781 112.481V112.471ZM53.9499 92.3822C53.91 92.2526 53.8502 92.0629 53.7704 91.8137C55.4454 90.9662 56.9508 90.0294 58.217 89.142L55.3556 94.366L53.9499 92.3822ZM59.0146 85.9812C57.6288 87.0878 55.585 88.5734 53.1623 89.8197C52.5143 87.716 51.6269 84.8347 50.9888 82.7809C51.0187 82.8008 51.0487 82.831 51.0885 82.851C52.4345 83.7483 56.7514 85.2337 59.0146 85.9714V85.9812ZM48.3368 77.5968C47.958 77.2878 47.5293 76.9788 47.0508 76.6797C49.7027 70.8274 52.5242 66.8689 53.9798 66.0414C52.3647 68.6236 48.7855 74.5959 48.3368 77.5968ZM37.1407 71.6646C39.0848 72.7214 41.657 73.8579 43.7108 73.8878C43.7607 73.8878 43.8006 73.8878 43.8504 73.8878C43.8803 73.8878 43.9103 73.8878 43.9402 73.8878C43.9402 73.8878 43.9401 73.8878 43.9501 73.8878L44.2093 73.8679C44.299 73.8679 44.3788 73.8382 44.4586 73.8182C45.0966 73.6886 45.8045 73.4292 46.5123 73.1002C45.964 74.167 45.5254 75.0845 45.2362 75.7027C44.2193 75.2241 43.2921 74.8947 42.8235 74.7651C41.8664 74.5059 39.2643 75.0742 37.2504 75.5927C37.2504 74.0872 37.1906 72.6516 37.1407 71.6646ZM59.6128 55.613C59.7224 54.7257 59.8221 53.8085 59.9019 52.8912C60.181 53.5692 60.4801 54.3169 60.7792 55.1145C60.4004 55.3737 60.0016 55.5332 59.6028 55.613H59.6128ZM62.5838 46.1718C62.8131 46.5008 63.1621 47.2981 63.1222 49.1126C63.0823 50.9072 62.7632 52.2735 62.2847 53.2904C61.6167 51.5955 61.0285 50.3393 60.859 49.9704C60.7992 49.8408 60.7095 49.731 60.6098 49.6413L62.5838 46.1718ZM21.9665 52.6021C21.6076 50.7377 21.9666 49.7908 22.3155 49.3122C22.8439 49.9503 23.482 50.6283 24.2497 51.3461C24.2796 51.4757 24.3095 51.6154 24.3394 51.755C24.1001 52.423 23.7013 54.267 23.3424 56.3408C22.7641 55.4435 22.2756 54.2172 21.9665 52.6021ZM25.1469 58.0558C25.2267 57.5174 25.3164 56.9992 25.3962 56.5107C25.5457 57.1487 25.6953 57.7465 25.8448 58.3148C25.6155 58.255 25.3762 58.1655 25.1469 58.0558ZM29.5437 62.8012C28.9854 61.7943 28.0681 59.342 26.802 53.36C26.3134 51.057 25.9046 49.3421 25.6056 48.0859C25.5258 47.727 25.4361 47.3883 25.3663 47.0792H25.3862C28.0382 47.0792 30.3213 46.6701 32.2953 46.0321C31.0889 46.6103 30.401 47.7172 30.3711 47.7671C30.1318 48.1559 30.2615 48.6642 30.6503 48.8935C30.7799 48.9733 30.9295 49.0133 31.079 49.0133C31.3582 49.0133 31.6274 48.8733 31.7769 48.6141C31.7769 48.6141 32.0062 48.2453 32.395 47.9063C32.1657 48.2253 32.0461 48.6345 32.086 49.0532C32.1657 50.0103 33.0032 50.718 33.9603 50.6383C34.9174 50.5585 35.6252 49.7212 35.5455 48.7641C35.5156 48.455 35.4059 48.1655 35.2464 47.9263C35.4059 48.0459 35.5555 48.1757 35.715 48.3352C36.0341 48.6542 36.5624 48.6445 36.8715 48.3254C37.1905 48.0064 37.1806 47.4778 36.8615 47.1688C35.725 46.0522 34.5485 45.5637 33.3621 45.7132C33.2624 45.7232 33.1627 45.7429 33.063 45.7629C36.0739 44.6462 38.2773 42.9914 39.8026 41.476C39.9223 41.3564 40.0419 41.2267 40.1615 41.107C40.3111 41.1868 40.4806 41.2365 40.66 41.2365C40.7099 41.2365 40.7697 41.2367 40.8196 41.2268C44.4686 40.6585 46.5024 38.2157 47.5592 35.6036C48.4266 37.1988 49.7426 38.4751 51.2082 39.522C49.284 39.7114 48.2072 38.5446 48.1474 38.4748C47.8483 38.1359 47.3399 38.0959 46.9909 38.395C46.642 38.6941 46.6021 39.2127 46.9012 39.5517C46.971 39.6414 48.3468 41.1966 50.7595 41.1966C51.4574 41.1966 52.2351 41.067 53.1025 40.738C54.3587 41.4558 55.6248 42.0544 56.7414 42.5728C57.4593 42.9118 57.9877 43.4198 58.3466 44.1077H58.3267C58.227 48.5842 57.7385 57.0787 56.5321 60.5084C56.243 61.3259 55.5152 62.4727 54.4683 63.7588C54.4484 63.7787 54.4384 63.8082 54.4184 63.8381C54.3187 63.8381 54.2091 63.8382 54.1094 63.8581C52.4743 64.0774 50.6598 65.9219 48.4365 69.6307C48.3966 69.6506 48.3469 69.6709 48.307 69.7008C46.6719 70.8373 44.8873 71.6944 43.8903 71.834C42.2452 71.8938 39.2842 70.7075 36.1337 68.6936C33.0431 66.7195 30.3911 64.3565 29.5437 62.8012ZM36.702 77.9357C36.7618 77.9058 36.8117 77.866 36.8715 77.8261C39.0948 77.218 41.7468 76.6496 42.2951 76.7493C43.7208 77.1381 47.3797 78.763 48.1574 80.5177C48.1873 80.6673 48.2172 80.817 48.2671 80.9665C48.626 82.0732 52.0058 93.0301 52.0357 93.1397C52.0656 93.2394 52.1154 93.3392 52.1752 93.4289L59.3935 103.628L54.249 107.148L47.0707 95.4827C46.971 95.3132 46.8214 95.1835 46.642 95.0938C44.1296 93.8775 44.7875 88.4737 45.2561 86.4996C45.3857 85.9712 45.0667 85.4329 44.5483 85.2734C42.5244 84.6851 42.3948 84.6756 42.2652 84.6756C41.6371 84.6456 41.4776 84.7549 39.4338 87.7259C39.4039 87.7758 39.3739 87.816 39.354 87.8758C38.5963 89.5009 37.9483 89.7701 37.709 89.8099C37.6292 89.8199 37.5594 89.8199 37.4896 89.8099L39.2643 85.7719C40.2613 84.5057 41.4577 83.2894 41.8764 83.11C42.2852 83.09 43.6909 83.5986 44.8674 84.2068C45.3658 84.466 45.9939 84.2766 46.2531 83.7681C46.5123 83.2696 46.323 82.6414 45.8145 82.3822C44.9072 81.9136 42.6739 80.8468 41.4576 81.096C40.2712 81.3353 38.5165 83.3991 37.5794 84.6055C37.5295 84.6752 37.4797 84.7452 37.4498 84.825L37.37 85.0042C37.4099 84.4359 37.4597 83.9677 37.5196 83.7185C37.7489 83.21 40.2114 80.7375 41.4078 79.9598C42.006 80.0296 43.8604 80.847 45.5054 81.7941C45.9939 82.0733 46.622 81.9039 46.9112 81.4154C47.1903 80.9269 47.0208 80.2986 46.5323 80.0095C41.8365 77.3076 40.8595 77.8857 40.5005 78.1051C40.3909 78.1649 40.2114 78.2949 39.9721 78.4843C39.9422 78.4843 39.9223 78.4838 39.8924 78.5038L36.8316 79.4511C36.712 79.491 36.6023 79.5507 36.5026 79.6205C34.2993 81.3453 33.1328 81.405 32.6343 81.2854C32.6144 81.2854 32.5944 81.2856 32.5845 81.2757L36.7319 77.9259L36.702 77.9357Z" fill="#3E3A39"/>
<path d="M40.6331 68.1852C41.4508 68.8732 42.4578 69.2422 43.5147 69.2422C43.6444 69.2422 43.774 69.2422 43.9036 69.2222C46.3665 69.0128 48.2012 66.8388 47.9918 64.3759C47.8921 63.1794 47.3337 62.1025 46.4164 61.3247C45.499 60.5569 44.3423 60.1785 43.1458 60.2882C41.9493 60.3879 40.8724 60.9458 40.0946 61.8632C39.3269 62.7805 38.948 63.9374 39.0577 65.134C39.1574 66.3305 39.7158 67.4075 40.6331 68.1852ZM41.351 62.9304C41.8396 62.3521 42.5276 61.9931 43.2854 61.9333C43.3652 61.9333 43.445 61.9231 43.5347 61.9231C44.2028 61.9231 44.8409 62.1523 45.3594 62.5911C45.9378 63.0796 46.2967 63.7681 46.3565 64.5259C46.4862 66.0913 45.3295 67.467 43.764 67.5966C43.0062 67.6564 42.2684 67.4274 41.6901 66.9388C41.1117 66.4502 40.7528 65.7623 40.693 65.0045C40.6331 64.2467 40.8624 63.5087 41.351 62.9304Z" fill="#3E3A39"/>
</svg>
