<svg width="371" height="80" viewBox="0 0 371 80" fill="none" xmlns="http://www.w3.org/2000/svg">
<path d="M301.262 10.9798C301.091 11.1078 300.899 11.2678 300.686 11.4598C300.472 11.6412 300.296 11.7852 300.158 11.8918C299.88 12.1372 299.544 12.4252 299.15 12.7558C298.755 13.0758 298.339 13.4172 297.902 13.7798C297.464 14.1318 297.043 14.4732 296.638 14.8038C296.232 15.1238 295.88 15.4118 295.582 15.6678C295.262 15.9452 295.048 16.1745 294.942 16.3558C294.835 16.5265 294.835 16.7025 294.942 16.8838C295.059 17.0652 295.288 17.3052 295.63 17.6038C295.928 17.8385 296.27 18.1158 296.654 18.4358C297.038 18.7452 297.443 19.0812 297.87 19.4438C298.307 19.8065 298.75 20.1798 299.198 20.5638C299.646 20.9478 300.078 21.3265 300.494 21.6998C300.91 22.0732 301.283 22.4305 301.614 22.7718L300.478 23.8278C300.147 23.4438 299.779 23.0545 299.374 22.6598C299.096 22.3718 298.75 22.0358 298.334 21.6518C297.918 21.2678 297.47 20.8678 296.99 20.4518C296.52 20.0358 296.051 19.6358 295.582 19.2518C295.123 18.8572 294.707 18.5052 294.334 18.1958C293.822 17.7692 293.496 17.3958 293.358 17.0758C293.219 16.7452 293.246 16.4198 293.438 16.0998C293.63 15.7798 293.966 15.4225 294.446 15.0278C294.744 14.7718 295.102 14.4732 295.518 14.1318C295.944 13.7905 296.387 13.4332 296.846 13.0598C297.304 12.6758 297.736 12.3078 298.142 11.9558C298.558 11.5932 298.899 11.2732 299.166 10.9958C299.326 10.8358 299.491 10.6545 299.662 10.4518C299.843 10.2492 299.982 10.0732 300.078 9.92383L301.262 10.9798Z" fill="black"/>
<path d="M280.925 10.7222H281.965V14.7222H280.925V10.7222ZM278.35 12.3062H284.525V13.2342H278.35V12.3062ZM284.462 13.0582H288.557V14.1142H284.462V13.0582ZM278.509 19.9862H284.462V20.9142H278.509V19.9862ZM283.805 9.89016L284.462 10.7542C283.939 10.8822 283.341 10.9995 282.669 11.1062C281.997 11.2022 281.304 11.2875 280.589 11.3622C279.885 11.4262 279.208 11.4795 278.557 11.5222C278.536 11.4048 278.494 11.2662 278.43 11.1062C278.376 10.9355 278.323 10.7915 278.27 10.6742C278.899 10.6102 279.555 10.5408 280.238 10.4662C280.92 10.3808 281.571 10.2902 282.189 10.1942C282.819 10.0875 283.357 9.98616 283.805 9.89016ZM278.109 22.5302C278.653 22.4768 279.267 22.4182 279.949 22.3542C280.643 22.2902 281.373 22.2208 282.141 22.1462C282.92 22.0715 283.699 21.9968 284.477 21.9222L284.493 22.8182C283.395 22.9568 282.302 23.0902 281.214 23.2182C280.126 23.3462 279.155 23.4582 278.301 23.5542L278.109 22.5302ZM288.173 13.0582H289.214C289.214 13.0582 289.214 13.0955 289.214 13.1702C289.214 13.2448 289.214 13.3302 289.214 13.4262C289.214 13.5115 289.214 13.5808 289.214 13.6342C289.171 15.3515 289.128 16.7968 289.085 17.9702C289.053 19.1435 289.011 20.1035 288.958 20.8502C288.915 21.5862 288.856 22.1515 288.781 22.5462C288.707 22.9302 288.611 23.2075 288.493 23.3782C288.366 23.5702 288.227 23.7035 288.077 23.7782C287.939 23.8635 287.763 23.9168 287.549 23.9382C287.357 23.9595 287.117 23.9702 286.829 23.9702C286.541 23.9808 286.243 23.9755 285.934 23.9542C285.923 23.7942 285.891 23.6128 285.837 23.4102C285.795 23.2075 285.731 23.0315 285.645 22.8822C285.955 22.9035 286.237 22.9142 286.493 22.9142C286.76 22.9248 286.957 22.9302 287.085 22.9302C287.192 22.9408 287.283 22.9302 287.357 22.8982C287.432 22.8662 287.501 22.7968 287.565 22.6902C287.651 22.5622 287.726 22.3168 287.79 21.9542C287.854 21.5808 287.907 21.0368 287.949 20.3222C288.003 19.5968 288.045 18.6635 288.077 17.5222C288.109 16.3808 288.141 14.9835 288.173 13.3302V13.0582ZM279.406 16.9622V18.1302H283.533V16.9622H279.406ZM279.406 15.0582V16.2102H283.533V15.0582H279.406ZM278.557 14.2582H284.413V18.9462H278.557V14.2582ZM280.99 14.5942H281.869V18.6262H281.949V22.5942H280.91V18.6262H280.99V14.5942ZM285.661 9.41016H286.701V14.5942C286.701 15.3622 286.669 16.1675 286.605 17.0102C286.552 17.8422 286.44 18.6795 286.27 19.5222C286.099 20.3542 285.843 21.1648 285.501 21.9542C285.16 22.7435 284.707 23.4742 284.141 24.1462C284.077 24.0715 283.992 23.9968 283.885 23.9222C283.779 23.8475 283.667 23.7728 283.549 23.6982C283.443 23.6235 283.341 23.5595 283.245 23.5062C283.789 22.8662 284.222 22.1782 284.542 21.4422C284.862 20.6955 285.102 19.9328 285.262 19.1542C285.432 18.3648 285.539 17.5862 285.581 16.8182C285.635 16.0395 285.661 15.2982 285.661 14.5942V9.41016ZM277.486 9.44216L278.574 9.73016C278.296 10.6368 277.965 11.5435 277.581 12.4502C277.208 13.3462 276.798 14.1942 276.35 14.9942C275.902 15.7835 275.427 16.4875 274.925 17.1062C274.904 17.0102 274.856 16.8875 274.781 16.7382C274.717 16.5888 274.643 16.4342 274.557 16.2742C274.483 16.1142 274.408 15.9862 274.333 15.8902C274.771 15.3568 275.181 14.7435 275.565 14.0502C275.96 13.3568 276.323 12.6208 276.654 11.8422C276.984 11.0528 277.262 10.2528 277.486 9.44216ZM276.35 13.3302L277.421 12.2582L277.438 12.2742V24.0822H276.35V13.3302Z" fill="black"/>
<path d="M265.293 11.987C265.731 12.051 266.237 12.1043 266.813 12.147C267.4 12.179 268.003 12.195 268.621 12.195C269.251 12.1843 269.848 12.163 270.413 12.131C270.989 12.0883 271.475 12.035 271.869 11.971V13.267C271.443 13.3096 270.941 13.347 270.365 13.379C269.8 13.4003 269.208 13.411 268.589 13.411C267.981 13.411 267.389 13.4003 266.813 13.379C266.237 13.347 265.731 13.3096 265.293 13.267V11.987ZM265.917 18.499C265.843 18.787 265.784 19.0483 265.741 19.283C265.699 19.5176 265.677 19.747 265.677 19.971C265.677 20.1523 265.715 20.3336 265.789 20.515C265.875 20.6856 266.013 20.8403 266.205 20.979C266.408 21.107 266.685 21.2136 267.037 21.299C267.389 21.3736 267.837 21.411 268.381 21.411C269.107 21.411 269.789 21.379 270.429 21.315C271.069 21.2403 271.709 21.1336 272.349 20.995L272.381 22.339C271.88 22.4456 271.293 22.531 270.621 22.595C269.96 22.6483 269.213 22.675 268.381 22.675C267.037 22.675 266.051 22.4616 265.421 22.035C264.803 21.6083 264.493 21.0216 264.493 20.275C264.493 20.0083 264.515 19.7256 264.557 19.427C264.611 19.1176 264.68 18.771 264.765 18.387L265.917 18.499ZM262.237 10.755C262.216 10.8403 262.184 10.9523 262.141 11.091C262.109 11.219 262.072 11.3523 262.029 11.491C261.997 11.619 261.971 11.731 261.949 11.827C261.896 12.1256 261.832 12.4723 261.757 12.867C261.683 13.251 261.608 13.667 261.533 14.115C261.469 14.5523 261.405 15.0003 261.341 15.459C261.288 15.907 261.24 16.3443 261.197 16.771C261.165 17.1976 261.149 17.5923 261.149 17.955C261.149 18.3496 261.16 18.723 261.181 19.075C261.213 19.427 261.251 19.8003 261.293 20.195C261.389 19.9496 261.491 19.6883 261.597 19.411C261.704 19.1336 261.811 18.8616 261.917 18.595C262.035 18.3176 262.136 18.0723 262.221 17.859L262.893 18.371C262.755 18.755 262.605 19.1763 262.445 19.635C262.285 20.0936 262.141 20.5363 262.013 20.963C261.896 21.379 261.811 21.7096 261.757 21.955C261.736 22.0723 261.715 22.2003 261.693 22.339C261.672 22.4776 261.667 22.5896 261.677 22.675C261.688 22.7603 261.693 22.851 261.693 22.947C261.704 23.0536 261.715 23.1496 261.725 23.235L260.573 23.315C260.413 22.7496 260.275 22.0243 260.157 21.139C260.04 20.243 259.981 19.2563 259.981 18.179C259.981 17.5923 260.008 16.995 260.061 16.387C260.115 15.7683 260.184 15.171 260.269 14.595C260.355 14.0083 260.435 13.475 260.509 12.995C260.595 12.5043 260.659 12.0936 260.701 11.763C260.733 11.571 260.76 11.379 260.781 11.187C260.803 10.9843 260.813 10.7976 260.813 10.627L262.237 10.755Z" fill="black"/>
<path d="M246.877 13.8102H248.109V21.8582C248.109 22.2315 248.173 22.4715 248.301 22.5782C248.44 22.6848 248.728 22.7382 249.165 22.7382C249.272 22.7382 249.459 22.7382 249.725 22.7382C249.992 22.7382 250.285 22.7382 250.605 22.7382C250.925 22.7382 251.224 22.7382 251.501 22.7382C251.779 22.7382 251.987 22.7382 252.125 22.7382C252.445 22.7382 252.685 22.6528 252.845 22.4822C253.005 22.3115 253.117 21.9862 253.181 21.5062C253.256 21.0155 253.315 20.3115 253.357 19.3942C253.507 19.5008 253.688 19.6075 253.901 19.7142C254.125 19.8208 254.323 19.8955 254.493 19.9382C254.429 20.9408 254.328 21.7302 254.189 22.3062C254.061 22.8715 253.843 23.2715 253.533 23.5062C253.224 23.7408 252.776 23.8582 252.189 23.8582C252.115 23.8582 251.971 23.8582 251.757 23.8582C251.544 23.8582 251.299 23.8582 251.021 23.8582C250.755 23.8582 250.483 23.8582 250.205 23.8582C249.928 23.8582 249.688 23.8582 249.485 23.8582C249.283 23.8582 249.144 23.8582 249.069 23.8582C248.504 23.8582 248.061 23.7995 247.741 23.6822C247.421 23.5648 247.197 23.3568 247.069 23.0582C246.941 22.7702 246.877 22.3648 246.877 21.8422V13.8102ZM247.005 10.3382L247.757 9.41016C248.397 9.63416 249.064 9.90082 249.757 10.2102C250.451 10.5195 251.101 10.8395 251.709 11.1702C252.328 11.4902 252.851 11.7942 253.277 12.0822L252.493 13.1382C252.088 12.8288 251.576 12.5035 250.957 12.1622C250.349 11.8208 249.699 11.4902 249.005 11.1702C248.323 10.8395 247.656 10.5622 247.005 10.3382ZM244.189 15.1062L245.357 15.3462C245.283 16.0608 245.165 16.8022 245.005 17.5702C244.856 18.3382 244.659 19.0688 244.413 19.7622C244.168 20.4555 243.853 21.0582 243.469 21.5702L242.381 20.9302C242.744 20.4502 243.043 19.8902 243.277 19.2502C243.523 18.6102 243.72 17.9328 243.869 17.2182C244.019 16.5035 244.125 15.7995 244.189 15.1062ZM253.533 15.1062L254.605 14.5782C255.085 15.1862 255.528 15.8422 255.933 16.5462C256.349 17.2502 256.701 17.9488 256.989 18.6422C257.288 19.3248 257.501 19.9542 257.629 20.5302L256.445 21.0902C256.328 20.5248 256.125 19.8955 255.837 19.2022C255.549 18.5088 255.203 17.8048 254.797 17.0902C254.403 16.3755 253.981 15.7142 253.533 15.1062Z" fill="black"/>
<path d="M227.534 12.2117H240.43V19.7317H239.198V13.3797H228.734V19.8117H227.534V12.2117ZM228.174 17.6357H239.918V18.8197H228.174V17.6357ZM233.326 9.34766H234.59V24.0517H233.326V9.34766Z" fill="black"/>
<path d="M217.358 10.1315C217.294 10.4515 217.208 10.8302 217.102 11.2675C217.006 11.6942 216.846 12.1795 216.622 12.7235C216.43 13.2035 216.19 13.6995 215.902 14.2115C215.624 14.7235 215.326 15.1875 215.006 15.6035C215.208 15.4755 215.438 15.3689 215.694 15.2835C215.95 15.1875 216.211 15.1182 216.478 15.0755C216.755 15.0329 217.006 15.0115 217.23 15.0115C217.848 15.0115 218.371 15.1875 218.798 15.5395C219.224 15.8809 219.438 16.3822 219.438 17.0435C219.438 17.2462 219.438 17.5075 219.438 17.8275C219.438 18.1369 219.438 18.4675 219.438 18.8195C219.448 19.1609 219.459 19.4969 219.47 19.8275C219.48 20.1582 219.486 20.4462 219.486 20.6915H218.254C218.264 20.4782 218.275 20.2275 218.286 19.9395C218.296 19.6515 218.302 19.3475 218.302 19.0275C218.312 18.7075 218.312 18.4035 218.302 18.1155C218.302 17.8275 218.302 17.5822 218.302 17.3795C218.302 16.9102 218.158 16.5689 217.87 16.3555C217.592 16.1315 217.24 16.0195 216.814 16.0195C216.312 16.0195 215.816 16.1315 215.326 16.3555C214.846 16.5689 214.424 16.8462 214.062 17.1875C213.827 17.4115 213.592 17.6675 213.358 17.9555C213.134 18.2329 212.883 18.5315 212.606 18.8515L211.518 18.0515C212.286 17.3049 212.926 16.6062 213.438 15.9555C213.95 15.3049 214.366 14.7022 214.686 14.1475C215.006 13.5822 215.256 13.0755 215.438 12.6275C215.608 12.1795 215.747 11.7315 215.854 11.2835C215.96 10.8249 216.024 10.4035 216.046 10.0195L217.358 10.1315ZM211.886 11.8595C212.312 11.9129 212.776 11.9555 213.278 11.9875C213.779 12.0195 214.216 12.0355 214.59 12.0355C215.304 12.0355 216.072 12.0195 216.894 11.9875C217.715 11.9449 218.542 11.8862 219.374 11.8115C220.216 11.7369 221.016 11.6302 221.774 11.4915L221.758 12.6755C221.203 12.7715 220.611 12.8515 219.982 12.9155C219.352 12.9689 218.712 13.0169 218.062 13.0595C217.411 13.0915 216.782 13.1182 216.174 13.1395C215.576 13.1502 215.022 13.1555 214.51 13.1555C214.286 13.1555 214.024 13.1555 213.726 13.1555C213.438 13.1449 213.134 13.1342 212.814 13.1235C212.494 13.1022 212.184 13.0809 211.886 13.0595V11.8595ZM224.11 15.7315C223.971 15.7635 223.816 15.8115 223.646 15.8755C223.486 15.9289 223.32 15.9875 223.15 16.0515C222.99 16.1155 222.835 16.1795 222.686 16.2435C222.131 16.4569 221.486 16.7182 220.75 17.0275C220.014 17.3369 219.262 17.6942 218.494 18.0995C217.96 18.3662 217.491 18.6489 217.086 18.9475C216.68 19.2355 216.36 19.5395 216.126 19.8595C215.891 20.1689 215.774 20.5102 215.774 20.8835C215.774 21.1929 215.843 21.4435 215.982 21.6355C216.131 21.8275 216.339 21.9769 216.606 22.0835C216.872 22.1795 217.176 22.2435 217.518 22.2755C217.87 22.3075 218.254 22.3235 218.67 22.3235C219.288 22.3235 219.992 22.2915 220.782 22.2275C221.582 22.1529 222.334 22.0569 223.038 21.9395L223.006 23.2195C222.6 23.2729 222.142 23.3209 221.63 23.3635C221.128 23.4062 220.616 23.4382 220.094 23.4595C219.582 23.4915 219.091 23.5075 218.622 23.5075C217.864 23.5075 217.171 23.4382 216.542 23.2995C215.923 23.1609 215.427 22.9155 215.054 22.5635C214.68 22.2115 214.494 21.7102 214.494 21.0595C214.494 20.5795 214.606 20.1422 214.83 19.7475C215.054 19.3422 215.352 18.9742 215.726 18.6435C216.11 18.3129 216.531 18.0089 216.99 17.7315C217.448 17.4435 217.918 17.1822 218.398 16.9475C218.91 16.6702 219.39 16.4302 219.838 16.2275C220.296 16.0249 220.728 15.8382 221.134 15.6675C221.539 15.4969 221.918 15.3262 222.27 15.1555C222.504 15.0489 222.728 14.9475 222.942 14.8515C223.155 14.7555 223.368 14.6489 223.582 14.5315L224.11 15.7315Z" fill="black"/>
<path d="M199.422 10.1632C199.336 10.4619 199.251 10.8086 199.166 11.2032C199.091 11.5872 199.016 11.9926 198.942 12.4192C198.878 12.8352 198.819 13.2352 198.766 13.6192C198.723 14.0032 198.691 14.3339 198.67 14.6112C198.84 14.2059 199.064 13.7899 199.342 13.3632C199.619 12.9366 199.95 12.5472 200.334 12.1952C200.718 11.8326 201.134 11.5392 201.582 11.3152C202.04 11.0912 202.52 10.9792 203.022 10.9792C203.736 10.9792 204.366 11.2032 204.91 11.6512C205.464 12.0992 205.896 12.7339 206.206 13.5552C206.515 14.3766 206.67 15.3472 206.67 16.4672C206.67 17.5766 206.504 18.5419 206.174 19.3632C205.843 20.1739 205.379 20.8619 204.782 21.4272C204.184 21.9926 203.47 22.4512 202.638 22.8032C201.816 23.1552 200.91 23.4166 199.918 23.5872L199.166 22.4352C200.03 22.3072 200.835 22.1152 201.582 21.8592C202.339 21.5926 203 21.2352 203.566 20.7872C204.131 20.3286 204.568 19.7472 204.878 19.0432C205.198 18.3392 205.358 17.4859 205.358 16.4832C205.358 15.6406 205.262 14.8939 205.07 14.2432C204.878 13.5819 204.595 13.0646 204.222 12.6912C203.848 12.3179 203.379 12.1312 202.814 12.1312C202.312 12.1312 201.832 12.2912 201.374 12.6112C200.915 12.9312 200.494 13.3472 200.11 13.8592C199.736 14.3606 199.432 14.9046 199.198 15.4912C198.963 16.0672 198.819 16.6166 198.766 17.1392C198.723 17.4486 198.702 17.7526 198.702 18.0512C198.712 18.3499 198.744 18.7019 198.798 19.1072L197.566 19.2032C197.523 18.9046 197.48 18.5366 197.438 18.0992C197.406 17.6619 197.39 17.1819 197.39 16.6592C197.39 16.2859 197.406 15.8699 197.438 15.4112C197.48 14.9419 197.523 14.4726 197.566 14.0032C197.619 13.5232 197.672 13.0646 197.726 12.6272C197.79 12.1899 197.843 11.8112 197.886 11.4912C197.918 11.2459 197.944 11.0112 197.966 10.7872C197.987 10.5526 198.003 10.3286 198.014 10.1152L199.422 10.1632Z" fill="black"/>
<path d="M189.262 10.9798C189.091 11.1078 188.899 11.2678 188.686 11.4598C188.472 11.6412 188.296 11.7852 188.158 11.8918C187.88 12.1372 187.544 12.4252 187.15 12.7558C186.755 13.0758 186.339 13.4172 185.902 13.7798C185.464 14.1318 185.043 14.4732 184.638 14.8038C184.232 15.1238 183.88 15.4118 183.582 15.6678C183.262 15.9452 183.048 16.1745 182.942 16.3558C182.835 16.5265 182.835 16.7025 182.942 16.8838C183.059 17.0652 183.288 17.3052 183.63 17.6038C183.928 17.8385 184.27 18.1158 184.654 18.4358C185.038 18.7452 185.443 19.0812 185.87 19.4438C186.307 19.8065 186.75 20.1798 187.198 20.5638C187.646 20.9478 188.078 21.3265 188.494 21.6998C188.91 22.0732 189.283 22.4305 189.614 22.7718L188.478 23.8278C188.147 23.4438 187.779 23.0545 187.374 22.6598C187.096 22.3718 186.75 22.0358 186.334 21.6518C185.918 21.2678 185.47 20.8678 184.99 20.4518C184.52 20.0358 184.051 19.6358 183.582 19.2518C183.123 18.8572 182.707 18.5052 182.334 18.1958C181.822 17.7692 181.496 17.3958 181.358 17.0758C181.219 16.7452 181.246 16.4198 181.438 16.0998C181.63 15.7798 181.966 15.4225 182.446 15.0278C182.744 14.7718 183.102 14.4732 183.518 14.1318C183.944 13.7905 184.387 13.4332 184.846 13.0598C185.304 12.6758 185.736 12.3078 186.142 11.9558C186.558 11.5932 186.899 11.2732 187.166 10.9958C187.326 10.8358 187.491 10.6545 187.662 10.4518C187.843 10.2492 187.982 10.0732 188.078 9.92383L189.262 10.9798Z" fill="black"/>
<path d="M162.941 14.7239C163.229 14.6706 163.517 14.6012 163.805 14.5159C164.104 14.4306 164.403 14.3452 164.701 14.2599C165.043 14.1532 165.48 14.0092 166.013 13.8279C166.547 13.6466 167.128 13.4706 167.757 13.2999C168.387 13.1186 169.027 12.9692 169.677 12.8519C170.339 12.7239 170.957 12.6599 171.533 12.6599C172.429 12.6599 173.235 12.8306 173.949 13.1719C174.664 13.5026 175.235 13.9826 175.661 14.6119C176.088 15.2306 176.301 15.9879 176.301 16.8839C176.301 17.6519 176.157 18.3399 175.869 18.9479C175.581 19.5559 175.171 20.0946 174.637 20.5639C174.104 21.0226 173.475 21.4119 172.749 21.7319C172.035 22.0519 171.235 22.3079 170.349 22.4999C169.464 22.6812 168.531 22.7986 167.549 22.8519L166.989 21.5239C168.035 21.4919 169.027 21.3852 169.965 21.2039C170.915 21.0226 171.757 20.7506 172.493 20.3879C173.24 20.0146 173.827 19.5399 174.253 18.9639C174.68 18.3772 174.893 17.6786 174.893 16.8679C174.893 16.3026 174.76 15.7959 174.493 15.3479C174.237 14.8892 173.853 14.5266 173.341 14.2599C172.84 13.9932 172.227 13.8599 171.501 13.8599C170.979 13.8599 170.408 13.9239 169.789 14.0519C169.181 14.1692 168.563 14.3239 167.933 14.5159C167.304 14.6972 166.701 14.8946 166.125 15.1079C165.549 15.3212 165.037 15.5186 164.589 15.6999C164.141 15.8812 163.789 16.0199 163.533 16.1159L162.941 14.7239ZM174.093 10.2279C174.232 10.4199 174.381 10.6492 174.541 10.9159C174.701 11.1826 174.856 11.4492 175.005 11.7159C175.165 11.9826 175.304 12.2279 175.421 12.4519L174.541 12.8359C174.392 12.5052 174.189 12.1266 173.933 11.6999C173.688 11.2732 173.459 10.9052 173.245 10.5959L174.093 10.2279ZM175.853 9.58789C176.003 9.79056 176.163 10.0252 176.333 10.2919C176.504 10.5586 176.669 10.8252 176.829 11.0919C176.989 11.3479 177.117 11.5772 177.213 11.7799L176.349 12.1639C176.179 11.8119 175.971 11.4332 175.725 11.0279C175.48 10.6119 175.245 10.2546 175.021 9.95589L175.853 9.58789Z" fill="black"/>
<path d="M146.83 11.1869H153.422V12.2749H146.83V11.1869ZM149.614 9.37891H150.702V14.3549H149.614V9.37891ZM148.062 14.6589V16.8829H152.302V14.6589H148.062ZM147.134 13.6989H153.278V17.8429H147.134V13.6989ZM149.582 17.2349L150.382 17.6029C150.136 18.2216 149.827 18.8669 149.454 19.5389C149.091 20.2109 148.696 20.8402 148.27 21.4269C147.843 22.0136 147.411 22.4989 146.974 22.8829C146.92 22.7336 146.835 22.5522 146.718 22.3389C146.611 22.1256 146.51 21.9549 146.414 21.8269C146.808 21.4856 147.208 21.0642 147.614 20.5629C148.03 20.0509 148.408 19.5069 148.75 18.9309C149.102 18.3442 149.379 17.7789 149.582 17.2349ZM150.654 17.8909C150.782 17.9869 150.974 18.1522 151.23 18.3869C151.496 18.6216 151.774 18.8722 152.062 19.1389C152.36 19.4056 152.632 19.6562 152.878 19.8909C153.134 20.1256 153.315 20.2962 153.422 20.4029L152.686 21.3149C152.568 21.1442 152.392 20.9256 152.158 20.6589C151.934 20.3922 151.683 20.1202 151.406 19.8429C151.139 19.5549 150.883 19.2829 150.638 19.0269C150.392 18.7709 150.195 18.5682 150.046 18.4189L150.654 17.8909ZM149.678 14.2909H150.638V17.4429H150.702V24.0829H149.614V17.4429H149.678V14.2909ZM153.55 10.0989H161.262V11.1549H153.55V10.0989ZM155.326 16.0989V17.6349H159.518V16.0989H155.326ZM155.326 18.5309V20.1149H159.518V18.5309H155.326ZM155.326 13.6669V15.1869H159.518V13.6669H155.326ZM154.238 12.7229H160.67V21.0589H154.238V12.7229ZM156.766 10.6269L158.078 10.8029C157.95 11.2616 157.816 11.7256 157.678 12.1949C157.55 12.6642 157.422 13.0696 157.294 13.4109L156.27 13.2029C156.376 12.8509 156.478 12.4296 156.574 11.9389C156.67 11.4376 156.734 11.0002 156.766 10.6269ZM155.646 21.3469L156.686 21.9549C156.408 22.2216 156.078 22.4936 155.694 22.7709C155.31 23.0376 154.904 23.2829 154.478 23.5069C154.062 23.7416 153.651 23.9336 153.246 24.0829C153.15 23.9762 153.022 23.8429 152.862 23.6829C152.712 23.5229 152.574 23.3896 152.446 23.2829C152.851 23.1336 153.256 22.9522 153.662 22.7389C154.067 22.5256 154.446 22.2962 154.798 22.0509C155.15 21.8056 155.432 21.5709 155.646 21.3469ZM157.998 22.0029L158.894 21.4269C159.203 21.6189 159.528 21.8376 159.87 22.0829C160.222 22.3282 160.552 22.5736 160.862 22.8189C161.171 23.0642 161.427 23.2882 161.63 23.4909L160.686 24.1309C160.494 23.9282 160.243 23.6989 159.934 23.4429C159.635 23.1869 159.315 22.9309 158.974 22.6749C158.632 22.4189 158.307 22.1949 157.998 22.0029Z" fill="black"/>
<path d="M136.477 10.0985H143.869V11.0905H136.477V10.0985ZM136.285 14.5465H144.157V15.5385H136.285V14.5465ZM136.285 16.7705H144.125V17.7625H136.285V16.7705ZM136.749 22.3065H143.677V23.3145H136.749V22.3065ZM134.973 12.3225H145.389V13.3305H134.973V12.3225ZM136.125 18.9945H144.301V24.0185H143.101V19.9705H137.277V24.0665H136.125V18.9945ZM134.429 9.39453L135.549 9.74653C135.187 10.6425 134.76 11.5279 134.269 12.4025C133.789 13.2772 133.267 14.0985 132.701 14.8665C132.147 15.6345 131.576 16.3172 130.989 16.9145C130.947 16.8185 130.883 16.6959 130.797 16.5465C130.723 16.3972 130.643 16.2479 130.557 16.0985C130.472 15.9492 130.392 15.8265 130.317 15.7305C130.851 15.2185 131.373 14.6265 131.885 13.9545C132.397 13.2719 132.872 12.5465 133.309 11.7785C133.747 10.9999 134.12 10.2052 134.429 9.39453ZM132.765 13.5225L133.885 12.3865L133.917 12.4025V24.0185H132.765V13.5225Z" fill="black"/>
<path d="M123.022 11.8588C122.915 12.6908 122.776 13.5602 122.606 14.4668C122.446 15.3735 122.238 16.2535 121.982 17.1068C121.662 18.2055 121.304 19.1228 120.91 19.8588C120.526 20.5948 120.11 21.1495 119.662 21.5228C119.214 21.8962 118.744 22.0828 118.254 22.0828C117.784 22.0828 117.331 21.9122 116.894 21.5708C116.456 21.2295 116.099 20.7388 115.822 20.0988C115.544 19.4482 115.406 18.6855 115.406 17.8108C115.406 16.9362 115.582 16.1095 115.934 15.3308C116.296 14.5522 116.792 13.8642 117.422 13.2668C118.062 12.6588 118.808 12.1788 119.662 11.8268C120.515 11.4748 121.427 11.2988 122.398 11.2988C123.336 11.2988 124.179 11.4535 124.926 11.7628C125.683 12.0722 126.328 12.4988 126.862 13.0428C127.395 13.5762 127.806 14.2002 128.094 14.9148C128.382 15.6188 128.526 16.3762 128.526 17.1868C128.526 18.3068 128.286 19.2935 127.806 20.1468C127.336 21.0002 126.654 21.6935 125.758 22.2268C124.872 22.7602 123.795 23.1122 122.526 23.2828L121.774 22.0988C122.03 22.0668 122.275 22.0348 122.51 22.0028C122.744 21.9708 122.958 21.9335 123.15 21.8908C123.662 21.7735 124.158 21.5922 124.638 21.3468C125.128 21.0908 125.566 20.7708 125.95 20.3868C126.334 19.9922 126.638 19.5282 126.862 18.9948C127.096 18.4508 127.214 17.8322 127.214 17.1388C127.214 16.4882 127.107 15.8855 126.894 15.3308C126.68 14.7655 126.366 14.2695 125.95 13.8428C125.534 13.4162 125.027 13.0802 124.43 12.8348C123.832 12.5895 123.15 12.4668 122.382 12.4668C121.507 12.4668 120.712 12.6268 119.998 12.9468C119.294 13.2668 118.691 13.6882 118.19 14.2108C117.699 14.7228 117.32 15.2882 117.054 15.9068C116.787 16.5148 116.654 17.1122 116.654 17.6988C116.654 18.3708 116.739 18.9255 116.91 19.3628C117.091 19.7895 117.304 20.1042 117.55 20.3068C117.806 20.5095 118.056 20.6108 118.302 20.6108C118.558 20.6108 118.819 20.4882 119.086 20.2428C119.352 19.9868 119.624 19.5815 119.902 19.0268C120.179 18.4615 120.451 17.7308 120.718 16.8348C120.952 16.0668 121.15 15.2508 121.31 14.3868C121.48 13.5228 121.603 12.6748 121.678 11.8428L123.022 11.8588Z" fill="black"/>
<path d="M111.178 13.2358C110.996 13.3532 110.804 13.4652 110.602 13.5718C110.399 13.6785 110.18 13.7905 109.946 13.9078C109.679 14.0572 109.348 14.2278 108.954 14.4198C108.559 14.6118 108.138 14.8252 107.69 15.0598C107.242 15.2945 106.794 15.5398 106.346 15.7958C105.898 16.0518 105.476 16.3078 105.082 16.5638C104.335 17.0438 103.748 17.5505 103.322 18.0838C102.906 18.6172 102.698 19.1878 102.698 19.7958C102.698 20.4572 103.012 20.9852 103.642 21.3798C104.282 21.7638 105.231 21.9558 106.49 21.9558C107.076 21.9558 107.684 21.9345 108.314 21.8918C108.943 21.8385 109.546 21.7692 110.122 21.6838C110.708 21.5985 111.204 21.5078 111.61 21.4118V22.8358C111.215 22.9105 110.746 22.9745 110.202 23.0278C109.668 23.0918 109.092 23.1398 108.474 23.1718C107.855 23.2145 107.215 23.2358 106.554 23.2358C105.796 23.2358 105.103 23.1718 104.474 23.0438C103.844 22.9265 103.295 22.7398 102.826 22.4838C102.367 22.2278 102.01 21.8918 101.754 21.4758C101.498 21.0492 101.37 20.5372 101.37 19.9398C101.37 19.3532 101.492 18.8145 101.738 18.3238C101.983 17.8225 102.335 17.3478 102.794 16.8998C103.252 16.4518 103.796 16.0198 104.426 15.6038C104.831 15.3265 105.263 15.0598 105.722 14.8038C106.191 14.5372 106.65 14.2812 107.098 14.0358C107.546 13.7905 107.962 13.5665 108.346 13.3638C108.74 13.1612 109.071 12.9905 109.338 12.8518C109.562 12.7132 109.764 12.5905 109.946 12.4838C110.127 12.3665 110.303 12.2385 110.474 12.0998L111.178 13.2358ZM103.082 10.3398C103.327 11.0225 103.588 11.6892 103.866 12.3398C104.154 12.9905 104.442 13.5985 104.73 14.1638C105.028 14.7292 105.3 15.2305 105.546 15.6678L104.442 16.3238C104.175 15.8865 103.892 15.3692 103.594 14.7718C103.295 14.1745 102.996 13.5398 102.698 12.8678C102.399 12.1958 102.106 11.5292 101.818 10.8678L103.082 10.3398Z" fill="black"/>
<path d="M88.4899 11.364H97.2259V12.356H88.4899V11.364ZM88.9539 13.476H96.8579V14.436H88.9539V13.476ZM88.1539 15.668H97.4339V16.692H88.1539V15.668ZM94.9059 9.33203L96.0899 9.66803C95.8979 10.02 95.6952 10.372 95.4819 10.724C95.2792 11.076 95.0926 11.38 94.9219 11.636L93.9779 11.332C94.1379 11.0547 94.3086 10.724 94.4899 10.34C94.6712 9.95603 94.8099 9.62003 94.9059 9.33203ZM89.6899 9.71603L90.6499 9.39603C90.8419 9.68403 91.0286 10.004 91.2099 10.356C91.4019 10.6974 91.5352 10.996 91.6099 11.252L90.6019 11.652C90.5272 11.3854 90.4046 11.0707 90.2339 10.708C90.0632 10.3454 89.8819 10.0147 89.6899 9.71603ZM96.3299 17.268L97.2419 17.924C96.9112 18.3187 96.5432 18.7134 96.1379 19.108C95.7432 19.492 95.3806 19.828 95.0499 20.116L94.2659 19.508C94.4899 19.316 94.7299 19.092 94.9859 18.836C95.2419 18.5694 95.4872 18.2974 95.7219 18.02C95.9672 17.7427 96.1699 17.492 96.3299 17.268ZM88.6819 17.876L89.5139 17.332C89.8232 17.652 90.1379 18.0094 90.4579 18.404C90.7779 18.788 91.0179 19.1294 91.1779 19.428L90.2979 20.036C90.1379 19.7374 89.9032 19.3854 89.5939 18.98C89.2952 18.564 88.9912 18.196 88.6819 17.876ZM87.5299 22.164C88.0419 21.9187 88.6499 21.604 89.3539 21.22C90.0686 20.836 90.7939 20.4414 91.5299 20.036L91.8499 21.028C91.2099 21.4014 90.5592 21.7747 89.8979 22.148C89.2472 22.5214 88.6446 22.8627 88.0899 23.172L87.5299 22.164ZM92.2179 12.052H93.3699V22.708C93.3699 23.0387 93.3326 23.2894 93.2579 23.46C93.1832 23.6414 93.0446 23.7854 92.8419 23.892C92.6286 23.9774 92.3406 24.0307 91.9779 24.052C91.6152 24.084 91.1886 24.1 90.6979 24.1C90.6766 23.94 90.6339 23.748 90.5699 23.524C90.5059 23.3107 90.4312 23.1294 90.3459 22.98C90.6979 22.9907 91.0286 22.996 91.3379 22.996C91.6472 22.996 91.8552 22.996 91.9619 22.996C92.0686 22.9854 92.1379 22.9587 92.1699 22.916C92.2019 22.884 92.2179 22.82 92.2179 22.724V12.052ZM93.3219 17.156C93.5779 17.9454 93.9139 18.6867 94.3299 19.38C94.7459 20.0734 95.2419 20.6814 95.8179 21.204C96.3939 21.716 97.0339 22.1214 97.7379 22.42C97.6526 22.4947 97.5619 22.5907 97.4659 22.708C97.3699 22.8147 97.2739 22.9267 97.1779 23.044C97.0926 23.1614 97.0179 23.2734 96.9539 23.38C96.2499 23.0174 95.6046 22.5374 95.0179 21.94C94.4419 21.3427 93.9406 20.6547 93.5139 19.876C93.0872 19.0974 92.7459 18.26 92.4899 17.364L93.3219 17.156ZM82.9859 12.82H88.1859V13.94H82.9859V12.82ZM85.2259 9.34803H86.3299V24.052H85.2259V9.34803ZM85.1939 13.492L85.9459 13.732C85.8179 14.372 85.6579 15.0334 85.4659 15.716C85.2846 16.3987 85.0766 17.0707 84.8419 17.732C84.6072 18.3934 84.3566 19.0067 84.0899 19.572C83.8232 20.1374 83.5459 20.6227 83.2579 21.028C83.2046 20.868 83.1139 20.692 82.9859 20.5C82.8579 20.2974 82.7459 20.1267 82.6499 19.988C82.9166 19.6254 83.1779 19.1934 83.4339 18.692C83.6899 18.1907 83.9299 17.6467 84.1539 17.06C84.3779 16.4734 84.5806 15.876 84.7619 15.268C84.9432 14.6494 85.0872 14.0574 85.1939 13.492ZM86.2499 14.852C86.3459 14.9587 86.4846 15.1507 86.6659 15.428C86.8579 15.7054 87.0606 16.004 87.2739 16.324C87.4979 16.644 87.7006 16.9427 87.8819 17.22C88.0739 17.4974 88.2019 17.6947 88.2659 17.812L87.5939 18.708C87.5086 18.5054 87.3806 18.2494 87.2099 17.94C87.0499 17.6307 86.8686 17.3054 86.6659 16.964C86.4739 16.6227 86.2926 16.308 86.1219 16.02C85.9512 15.732 85.8126 15.508 85.7059 15.348L86.2499 14.852Z" fill="black"/>
<path d="M72.17 12.1797L73.466 12.4197C72.922 13.1983 72.234 13.9557 71.402 14.6917C70.5806 15.417 69.5833 16.073 68.41 16.6597C68.346 16.5637 68.266 16.4623 68.17 16.3557C68.0846 16.2383 67.9886 16.1317 67.882 16.0357C67.7753 15.9397 67.6793 15.8597 67.594 15.7957C68.7033 15.305 69.642 14.7343 70.41 14.0837C71.1886 13.433 71.7753 12.7983 72.17 12.1797ZM71.994 13.3797H77.578V14.3237H71.13L71.994 13.3797ZM77.226 13.3797H77.466L77.674 13.3157L78.49 13.8117C77.9566 14.6543 77.274 15.417 76.442 16.0997C75.6206 16.7717 74.7086 17.369 73.706 17.8917C72.7033 18.4037 71.658 18.8463 70.57 19.2197C69.482 19.593 68.3993 19.897 67.322 20.1317C67.2686 19.9717 67.1833 19.7903 67.066 19.5877C66.9486 19.3743 66.8366 19.2037 66.73 19.0757C67.754 18.8837 68.7886 18.6223 69.834 18.2917C70.8793 17.9503 71.8766 17.5503 72.826 17.0917C73.786 16.6223 74.6446 16.0943 75.402 15.5077C76.17 14.921 76.778 14.2757 77.226 13.5717V13.3797ZM71.53 14.1157C72.1593 14.9157 72.986 15.6197 74.01 16.2277C75.034 16.8357 76.1913 17.3423 77.482 17.7477C78.7833 18.1423 80.1433 18.4303 81.562 18.6117C81.4766 18.7077 81.386 18.825 81.29 18.9637C81.194 19.0917 81.1033 19.225 81.018 19.3637C80.9326 19.5023 80.858 19.6303 80.794 19.7477C79.3646 19.5237 77.9993 19.1877 76.698 18.7397C75.3966 18.281 74.2126 17.7103 73.146 17.0277C72.09 16.3343 71.2046 15.5237 70.49 14.5957L71.53 14.1157ZM69.754 19.1397H78.634V24.0357H77.418V20.1477H70.922V24.0517H69.754V19.1397ZM70.33 22.4997H78.026V23.5077H70.33V22.4997ZM73.498 9.34766H74.73V11.4437H73.498V9.34766ZM67.386 10.8037H80.922V13.8117H79.69V11.8917H68.554V13.8117H67.386V10.8037Z" fill="black"/>
<path d="M56.73 10.0039C56.7087 10.0999 56.6927 10.2119 56.682 10.3399C56.6713 10.4572 56.6607 10.5852 56.65 10.7239C56.6393 10.8626 56.6287 10.9906 56.618 11.1079C56.6073 11.3532 56.5913 11.6732 56.57 12.0679C56.5593 12.4626 56.5487 12.8999 56.538 13.3799C56.5273 13.8492 56.5167 14.3292 56.506 14.8199C56.4953 15.2999 56.49 15.7479 56.49 16.1639C56.49 16.5799 56.49 17.0386 56.49 17.5399C56.5007 18.0306 56.5113 18.5212 56.522 19.0119C56.5433 19.4919 56.554 19.9399 56.554 20.3559C56.5647 20.7612 56.57 21.0866 56.57 21.3319C56.57 21.8226 56.5113 22.2119 56.394 22.4999C56.2767 22.7879 56.1113 22.9906 55.898 23.1079C55.6953 23.2359 55.45 23.2999 55.162 23.2999C54.8527 23.2999 54.506 23.2252 54.122 23.0759C53.738 22.9372 53.37 22.7452 53.018 22.4999C52.6767 22.2546 52.394 21.9719 52.17 21.6519C51.946 21.3319 51.834 20.9959 51.834 20.6439C51.834 20.1639 52.0153 19.6946 52.378 19.2359C52.7513 18.7772 53.2313 18.3506 53.818 17.9559C54.4153 17.5612 55.0447 17.2412 55.706 16.9959C56.4313 16.7079 57.1727 16.4946 57.93 16.3559C58.6873 16.2066 59.3807 16.1319 60.01 16.1319C60.7887 16.1319 61.4767 16.2652 62.074 16.5319C62.682 16.7986 63.1567 17.1719 63.498 17.6519C63.85 18.1212 64.026 18.6759 64.026 19.3159C64.026 19.9559 63.8927 20.5212 63.626 21.0119C63.37 21.5026 62.986 21.9132 62.474 22.2439C61.9727 22.5746 61.354 22.8306 60.618 23.0119C60.266 23.0866 59.914 23.1346 59.562 23.1559C59.2207 23.1879 58.9113 23.2146 58.634 23.2359L58.186 21.9399C58.4847 21.9506 58.794 21.9506 59.114 21.9399C59.4447 21.9292 59.7593 21.8919 60.058 21.8279C60.5273 21.7426 60.9647 21.5986 61.37 21.3959C61.786 21.1826 62.1167 20.9052 62.362 20.5639C62.618 20.2226 62.746 19.8119 62.746 19.3319C62.746 18.8732 62.6233 18.4892 62.378 18.1799C62.1327 17.8706 61.802 17.6359 61.386 17.4759C60.97 17.3159 60.506 17.2359 59.994 17.2359C59.29 17.2359 58.602 17.3106 57.93 17.4599C57.258 17.6092 56.5753 17.8226 55.882 18.0999C55.37 18.2919 54.9007 18.5319 54.474 18.8199C54.0473 19.0972 53.706 19.3906 53.45 19.6999C53.2047 20.0092 53.082 20.3026 53.082 20.5799C53.082 20.7612 53.1407 20.9372 53.258 21.1079C53.386 21.2679 53.5407 21.4119 53.722 21.5399C53.9033 21.6679 54.0953 21.7692 54.298 21.8439C54.5007 21.9079 54.6767 21.9399 54.826 21.9399C55.0073 21.9399 55.146 21.8759 55.242 21.7479C55.3487 21.6199 55.402 21.4226 55.402 21.1559C55.402 20.8466 55.3967 20.4199 55.386 19.8759C55.3753 19.3212 55.3647 18.7239 55.354 18.0839C55.3433 17.4332 55.338 16.8146 55.338 16.2279C55.338 15.7692 55.338 15.2786 55.338 14.7559C55.3487 14.2332 55.354 13.7266 55.354 13.2359C55.3647 12.7452 55.37 12.3132 55.37 11.9399C55.3807 11.5666 55.386 11.2999 55.386 11.1399C55.386 11.0332 55.3807 10.9106 55.37 10.7719C55.37 10.6226 55.3647 10.4786 55.354 10.3399C55.3433 10.2012 55.3273 10.0892 55.306 10.0039H56.73ZM61.69 11.7799C62.074 11.9826 62.5007 12.2279 62.97 12.5159C63.4393 12.7932 63.8873 13.0759 64.314 13.3639C64.7513 13.6519 65.098 13.9026 65.354 14.1159L64.698 15.1399C64.506 14.9479 64.2607 14.7452 63.962 14.5319C63.6633 14.3079 63.3433 14.0892 63.002 13.8759C62.6607 13.6519 62.3247 13.4439 61.994 13.2519C61.6633 13.0492 61.37 12.8786 61.114 12.7399L61.69 11.7799ZM52.09 12.8839C52.5273 12.9372 52.9007 12.9746 53.21 12.9959C53.53 13.0066 53.8393 13.0119 54.138 13.0119C54.5327 13.0119 54.9753 12.9906 55.466 12.9479C55.9567 12.9052 56.4633 12.8519 56.986 12.7879C57.5087 12.7132 58.0153 12.6279 58.506 12.5319C59.0073 12.4252 59.4553 12.3132 59.85 12.1959L59.882 13.4439C59.466 13.5399 59.002 13.6359 58.49 13.7319C57.978 13.8172 57.4553 13.8919 56.922 13.9559C56.3993 14.0199 55.898 14.0732 55.418 14.1159C54.938 14.1586 54.522 14.1799 54.17 14.1799C53.7113 14.1799 53.322 14.1746 53.002 14.1639C52.6927 14.1532 52.3993 14.1319 52.122 14.0999L52.09 12.8839Z" fill="black"/>
<path d="M203.898 45.4511C203.93 45.3231 203.951 45.1844 203.962 45.0351C203.983 44.8751 203.994 44.7151 203.994 44.5551C203.994 44.4484 203.994 44.2138 203.994 43.8511C203.994 43.4884 203.994 43.0458 203.994 42.5231C203.994 41.9898 203.994 41.4138 203.994 40.7951C203.994 40.1764 203.994 39.5578 203.994 38.9391C203.994 38.3098 203.994 37.7231 203.994 37.1791C203.994 36.6351 203.994 36.1658 203.994 35.7711C203.994 35.3764 203.994 35.1098 203.994 34.9711C203.994 34.6618 203.983 34.4058 203.962 34.2031C203.94 33.9898 203.924 33.8511 203.914 33.7871H205.386C205.386 33.8511 205.375 33.9898 205.354 34.2031C205.332 34.4164 205.322 34.6724 205.322 34.9711C205.322 35.1204 205.322 35.3871 205.322 35.7711C205.322 36.1444 205.322 36.6031 205.322 37.1471C205.322 37.6804 205.322 38.2564 205.322 38.8751C205.322 39.4831 205.322 40.0858 205.322 40.6831C205.322 41.2804 205.322 41.8351 205.322 42.3471C205.322 42.8484 205.322 43.2644 205.322 43.5951C205.322 43.9258 205.322 44.1284 205.322 44.2031C205.823 43.9684 206.356 43.6591 206.922 43.2751C207.487 42.8911 208.036 42.4431 208.57 41.9311C209.114 41.4191 209.588 40.8644 209.994 40.2671L210.746 41.3551C210.287 41.9738 209.748 42.5658 209.13 43.1311C208.522 43.6964 207.887 44.2031 207.226 44.6511C206.564 45.0991 205.919 45.4778 205.29 45.7871C205.162 45.8618 205.05 45.9311 204.954 45.9951C204.868 46.0591 204.799 46.1124 204.746 46.1551L203.898 45.4511ZM196.57 45.3711C197.242 44.8911 197.812 44.3098 198.282 43.6271C198.751 42.9444 199.108 42.2138 199.354 41.4351C199.471 41.0724 199.562 40.6191 199.626 40.0751C199.69 39.5311 199.738 38.9551 199.77 38.3471C199.802 37.7284 199.818 37.1311 199.818 36.5551C199.828 35.9684 199.834 35.4511 199.834 35.0031C199.834 34.7684 199.823 34.5604 199.802 34.3791C199.78 34.1871 199.754 34.0058 199.722 33.8351H201.194C201.183 33.8991 201.172 33.9951 201.162 34.1231C201.151 34.2404 201.14 34.3738 201.13 34.5231C201.119 34.6724 201.114 34.8271 201.114 34.9871C201.114 35.4351 201.108 35.9631 201.098 36.5711C201.087 37.1684 201.06 37.7978 201.018 38.4591C200.986 39.1098 200.938 39.7284 200.874 40.3151C200.82 40.9018 200.735 41.3924 200.618 41.7871C200.383 42.6404 200.015 43.4458 199.514 44.2031C199.023 44.9604 198.442 45.6218 197.77 46.1871L196.57 45.3711Z" fill="black"/>
<path d="M180.89 40.0118C182.276 39.6384 183.567 39.1851 184.762 38.6518C185.956 38.1184 186.996 37.5744 187.882 37.0198C188.436 36.6678 188.975 36.2891 189.498 35.8838C190.031 35.4678 190.532 35.0358 191.002 34.5878C191.471 34.1398 191.887 33.6971 192.25 33.2598L193.322 34.2518C192.874 34.7318 192.388 35.2011 191.866 35.6598C191.343 36.1184 190.788 36.5611 190.202 36.9878C189.626 37.4038 189.023 37.8091 188.394 38.2038C187.807 38.5558 187.146 38.9184 186.41 39.2918C185.674 39.6651 184.89 40.0171 184.058 40.3478C183.226 40.6784 182.383 40.9824 181.53 41.2598L180.89 40.0118ZM187.626 37.6918L189.002 37.2758V44.5718C189.002 44.7744 189.002 44.9878 189.002 45.2118C189.012 45.4358 189.023 45.6438 189.034 45.8358C189.055 46.0278 189.076 46.1771 189.098 46.2838H187.53C187.54 46.1771 187.551 46.0278 187.562 45.8358C187.583 45.6438 187.599 45.4358 187.61 45.2118C187.62 44.9878 187.626 44.7744 187.626 44.5718V37.6918Z" fill="black"/>
<path d="M170.154 38.4597C170.666 38.7583 171.205 39.089 171.77 39.4517C172.335 39.8143 172.895 40.193 173.45 40.5877C174.015 40.9717 174.554 41.3503 175.066 41.7237C175.578 42.097 176.031 42.449 176.426 42.7797L175.482 43.8837C175.119 43.553 174.682 43.1903 174.17 42.7957C173.669 42.3903 173.135 41.985 172.57 41.5797C172.005 41.1637 171.439 40.7637 170.874 40.3797C170.309 39.9957 169.781 39.649 169.29 39.3397L170.154 38.4597ZM177.482 35.5317C177.407 35.649 177.338 35.793 177.274 35.9637C177.21 36.1237 177.151 36.2677 177.098 36.3957C176.949 36.9397 176.735 37.5263 176.458 38.1557C176.181 38.785 175.855 39.4197 175.482 40.0597C175.109 40.689 174.682 41.297 174.202 41.8837C173.487 42.769 172.591 43.6223 171.514 44.4437C170.447 45.2543 169.157 45.937 167.642 46.4917L166.49 45.4997C167.482 45.1903 168.383 44.8117 169.194 44.3637C170.015 43.905 170.751 43.4037 171.402 42.8597C172.053 42.3157 172.618 41.7557 173.098 41.1797C173.514 40.689 173.893 40.1503 174.234 39.5637C174.586 38.977 174.89 38.3957 175.146 37.8197C175.402 37.233 175.589 36.689 175.706 36.1877H169.77L170.282 35.0517H175.37C175.583 35.0517 175.781 35.041 175.962 35.0197C176.143 34.9877 176.298 34.945 176.426 34.8917L177.482 35.5317ZM172.09 33.2277C171.951 33.441 171.818 33.665 171.69 33.8997C171.562 34.1343 171.455 34.3263 171.37 34.4757C171.05 35.0623 170.634 35.7077 170.122 36.4117C169.621 37.105 169.029 37.7983 168.346 38.4917C167.674 39.185 166.911 39.8303 166.058 40.4277L164.986 39.5957C165.903 39.0303 166.698 38.4063 167.37 37.7237C168.042 37.041 168.607 36.3743 169.066 35.7237C169.525 35.073 169.877 34.5077 170.122 34.0277C170.207 33.889 170.303 33.697 170.41 33.4517C170.517 33.1957 170.591 32.9663 170.634 32.7637L172.09 33.2277Z" fill="black"/>
<path d="M160.314 35.083C160.26 35.147 160.191 35.2537 160.106 35.403C160.031 35.5417 159.967 35.6697 159.914 35.787C159.711 36.3097 159.444 36.891 159.114 37.531C158.783 38.1603 158.415 38.7843 158.01 39.403C157.604 40.0217 157.178 40.5817 156.73 41.083C156.143 41.7443 155.498 42.3897 154.794 43.019C154.09 43.6377 153.348 44.219 152.57 44.763C151.791 45.2963 150.98 45.755 150.138 46.139L149.114 45.067C149.978 44.7257 150.804 44.3043 151.594 43.803C152.394 43.291 153.14 42.7363 153.834 42.139C154.538 41.531 155.162 40.923 155.706 40.315C156.068 39.899 156.426 39.435 156.778 38.923C157.14 38.4003 157.46 37.8723 157.738 37.339C158.026 36.795 158.234 36.3043 158.362 35.867C158.276 35.867 158.074 35.867 157.754 35.867C157.434 35.867 157.055 35.867 156.618 35.867C156.18 35.867 155.722 35.867 155.242 35.867C154.762 35.867 154.303 35.867 153.866 35.867C153.428 35.867 153.05 35.867 152.73 35.867C152.42 35.867 152.218 35.867 152.122 35.867C151.94 35.867 151.732 35.8723 151.498 35.883C151.274 35.8937 151.066 35.9043 150.874 35.915C150.692 35.9257 150.57 35.9363 150.506 35.947V34.491C150.58 34.5017 150.714 34.5177 150.906 34.539C151.108 34.5497 151.322 34.5603 151.546 34.571C151.77 34.5817 151.962 34.587 152.122 34.587C152.239 34.587 152.452 34.587 152.762 34.587C153.071 34.587 153.439 34.587 153.866 34.587C154.303 34.587 154.756 34.587 155.226 34.587C155.695 34.587 156.143 34.587 156.57 34.587C157.007 34.587 157.38 34.587 157.69 34.587C157.999 34.587 158.202 34.587 158.298 34.587C158.564 34.587 158.799 34.5763 159.002 34.555C159.215 34.5337 159.38 34.5017 159.498 34.459L160.314 35.083ZM156.938 40.235C157.375 40.5977 157.823 40.9977 158.282 41.435C158.751 41.8723 159.21 42.3257 159.658 42.795C160.106 43.2537 160.522 43.6963 160.906 44.123C161.29 44.539 161.62 44.9177 161.898 45.259L160.778 46.219C160.404 45.707 159.956 45.1577 159.434 44.571C158.911 43.9737 158.356 43.3817 157.77 42.795C157.194 42.1977 156.612 41.6483 156.026 41.147L156.938 40.235Z" fill="black"/>
<path d="M88.0444 57.3355L110.314 77.8255C111.354 78.7855 113.004 77.8255 112.694 76.4455L108.414 57.3255H341.724C357.224 57.3255 369.794 44.7555 369.794 29.2555C369.794 13.7555 357.224 1.18555 341.724 1.18555H299.034" stroke="#211816" stroke-width="2.37" stroke-linecap="round" stroke-linejoin="round"/>
<path d="M271.405 1.19727H29.2551C13.7551 1.19727 1.18506 13.7673 1.18506 29.2673C1.18506 44.7673 13.7551 57.3373 29.2551 57.3373H80.8951" stroke="#211816" stroke-width="2.37" stroke-linecap="round" stroke-linejoin="round"/>
</svg>
