<svg width="133" height="137" viewBox="0 0 133 137" fill="none" xmlns="http://www.w3.org/2000/svg">
<mask id="mask0_1_1395" style="mask-type:luminance" maskUnits="userSpaceOnUse" x="0" y="0" width="133" height="137">
<path d="M132.47 0H0V136.388H132.47V0Z" fill="white"/>
</mask>
<g mask="url(#mask0_1_1395)">
<path d="M42.4344 125.022C42.0356 125.46 30.6899 137.863 21.8366 131.273C14.9474 126.158 13.0831 94.4242 13.3822 83.1682L16.094 82.53L25.7648 80.2566L28.1974 79.6885C28.1974 79.6885 28.9552 82.1014 29.992 85.3715L30.4107 85.2416C30.4107 85.2416 34.0796 78.2132 40.1513 72.9092C45.0465 68.6421 60.8886 63.9962 60.8886 63.9962L60.9684 63.9762C60.9983 64.1058 61.0481 64.2154 61.098 64.3151C61.4768 65.0129 62.1448 66.0898 63.3512 67.1366L63.2216 67.2861C63.7799 69.4595 64.5276 72.4803 65.3451 75.9299C68.8645 90.5357 74.0089 113.018 74.0089 113.018C74.0089 113.018 79.4226 90.0373 82.7525 76.0097C84.0685 70.4365 85.0755 66.2788 85.2649 65.5311C86.0326 64.7335 86.5511 64.0659 86.8003 63.707L87.1692 63.8166C88.4753 71.0048 99.4222 69.5092 100.27 69.1802C105.913 71.6627 109.751 73.9261 112.283 77.5651C117.248 84.7135 121.007 131.632 123.34 158.74H37.26V158.431C39.2041 147.613 42.8133 133.665 43.0725 132.569L42.4444 125.031L42.4344 125.022ZM100.928 103.028V99.2695H92.1342V103.028H100.928ZM93.0813 88.6414L93.0614 88.2325L92.9318 87.864L92.7523 87.5748L92.553 87.3353L92.3335 87.1061L92.0843 86.8768L91.5858 86.4678L91.0076 86.0594L90.4094 85.6807L90.1003 85.4908L89.8013 85.3117L89.5121 85.1423L89.2329 84.9826L88.9737 84.8331L88.7344 84.7032L88.5251 84.5839L88.3456 84.4841L88.1961 84.4043L88.0864 84.3444L88.0067 84.3045H87.9867C87.5181 84.0552 86.9399 84.2348 86.7007 84.7134C86.4614 85.182 86.6507 85.7702 87.1193 85.9995L87.1393 86.0195L87.209 86.0492L87.3188 86.1091L87.4583 86.1792L87.6378 86.2785L87.8471 86.3885L88.0765 86.5078L88.3158 86.6577L88.575 86.8071L88.8441 86.9663L89.1233 87.1362L89.4025 87.3056L89.9507 87.6644L90.4492 88.0135L90.878 88.3523L91.0276 88.492L91.1372 88.6015L91.1572 88.6215L91.1272 88.8011L91.0773 89.0202L91.0276 89.2694L90.9577 89.5386L90.878 89.8278L90.7983 90.1369L90.6985 90.466L90.5988 90.8048L90.4891 91.1738L90.3595 91.5526L90.2299 91.9615L90.0803 92.3704L89.9209 92.7988L89.7514 93.2374L89.572 93.696L89.3925 94.1648L89.1931 94.6336L88.7744 95.6403L88.3058 96.6772L87.7973 97.7638L87.239 98.8708L86.6408 100.007L85.9927 101.164L85.2949 102.34L84.5471 103.527L83.7595 104.723L82.922 105.919L82.0347 107.116L81.5662 107.704L81.0976 108.302L80.5991 108.89L80.1006 109.478L79.5822 110.057L79.0637 110.635L78.5253 111.203L77.9571 111.781C77.5682 112.19 77.5881 112.828 77.9869 113.217C78.3956 113.606 79.0338 113.586 79.4226 113.187L79.9809 112.609L80.5492 112.011L81.0876 111.412L81.6259 110.815L82.1344 110.196L82.6429 109.588L83.1314 108.97L83.6199 108.352L84.5372 107.106L85.4045 105.859L86.222 104.613L86.9797 103.377L87.6877 102.161L88.3556 100.964L88.9737 99.7777L89.5421 98.6313L90.0705 97.5145L90.549 96.428L90.9777 95.4013L91.1871 94.8926L91.3765 94.4043L91.556 93.9355L91.7254 93.4667L91.8849 93.0184L92.0345 92.5895L92.1841 92.1708L92.3137 91.7619L92.4234 91.3734L92.533 91.0044L92.6327 90.6554L92.7224 90.3166L92.8022 90.0074L92.872 89.708L92.9417 89.4291L92.9916 89.1701L93.0415 88.9306L93.0813 88.6517V88.6414ZM75.305 126.796C75.305 125.809 74.5074 125.022 73.5304 125.022C72.5533 125.022 71.7557 125.819 71.7557 126.796C71.7557 127.773 72.5533 128.581 73.5304 128.581C74.5074 128.581 75.305 127.783 75.305 126.796ZM75.2851 145.749C75.2851 144.762 74.4875 143.965 73.5104 143.965C72.5334 143.965 71.7359 144.762 71.7359 145.749C71.7359 146.736 72.5334 147.524 73.5104 147.524C74.4875 147.524 75.2851 146.726 75.2851 145.749ZM70.0908 112.469C70.4996 112.081 70.5096 111.443 70.1208 111.034L69.5624 110.455L69.014 109.887L68.4957 109.309L67.9772 108.741L67.4787 108.152L66.9902 107.555L66.5215 106.966L66.053 106.368L65.1656 105.172L64.3382 103.975L63.5405 102.789L62.8028 101.602L62.1049 100.426L61.4569 99.2695L60.8587 98.1328L60.3003 97.0263L59.782 95.9494L59.3133 94.9028L58.8847 93.9058L58.6852 93.4268L58.5058 92.9585L58.3263 92.4999L58.1569 92.0613L58.0073 91.6227L57.8578 91.2138L57.7182 90.8151L57.5985 90.4358L57.4889 90.0673L57.3792 89.7183L57.2895 89.3892L57.1997 89.0801L57.12 88.7909L57.0601 88.5217L57.0004 88.2827L56.9505 88.0534L56.9207 87.884L56.9405 87.864L57.0601 87.7443L57.2097 87.6045L57.6285 87.2657L58.127 86.9167L58.6852 86.5579L58.9644 86.3885L59.2436 86.2186L59.5128 86.0691L59.782 85.9197L60.0213 85.78L60.2406 85.6607L60.4499 85.5507L60.6294 85.4611L60.779 85.3813L60.8886 85.3316L60.9484 85.2917H60.9684C61.4369 85.0425 61.6264 84.4639 61.3772 83.9953C61.1379 83.5267 60.5596 83.3274 60.091 83.5767L60.071 83.5966L60.0013 83.6366L59.8817 83.6867L59.7321 83.766L59.5526 83.8658L59.3433 83.9754L59.104 84.1054L58.8548 84.2548L58.5756 84.4145L58.2964 84.5839L57.9974 84.763L57.6882 84.9524L57.0901 85.3414L56.5119 85.7503L56.0134 86.1592L55.7641 86.3885L55.5448 86.6178L55.3553 86.867L55.1759 87.146L55.0463 87.5247L55.0264 87.9336L55.0761 88.2126L55.126 88.4521L55.1759 88.7111L55.2357 88.9905L55.3154 89.2894L55.3952 89.6087L55.4849 89.9373L55.5846 90.2864L55.6943 90.6554L55.8139 91.0341L55.9435 91.443L56.0831 91.8617L56.2327 92.3003L56.3922 92.7492L56.5616 93.2077L56.7411 93.6863L56.9305 94.1745L57.14 94.673L57.5786 95.7002L58.0571 96.7868L58.5855 97.9035L59.1539 99.0499L59.772 100.227L60.4399 101.433L61.1579 102.649L61.9154 103.876L62.733 105.122L63.5904 106.368L64.5077 107.614L65.0062 108.232L65.4847 108.85L66.0032 109.469L66.5117 110.077L67.05 110.675L67.5884 111.283L68.1566 111.871L68.715 112.46C69.1038 112.858 69.7418 112.868 70.1406 112.48L70.0908 112.469Z" fill="#BDDEE4"/>
<path d="M85.2417 65.5298C83.3973 67.4241 80.0972 69.9566 75.4712 70.2158C68.9808 70.5847 65.3618 68.8997 63.318 67.1251C62.1116 66.0783 61.4536 65.0014 61.0648 64.3035C61.0149 64.2038 60.9651 64.0943 60.9351 63.9647C60.5762 62.6686 61.4736 60.3857 62.3409 60.1764C62.4905 60.1365 62.65 60.1262 62.7995 60.1462C64.8334 60.2658 67.1564 64.0946 74.4144 63.955C79.7782 63.8453 83.7064 61.0733 85.6305 59.3386C86.5079 58.5509 86.9764 57.993 86.9764 57.993L87.156 57.6337C89.9076 52.9778 95.2016 54.6828 98.9203 55.3209C99.9373 55.4904 100.994 55.6098 102.041 55.3506C102.3 55.2908 98.392 60.4256 93.8856 61.4226L93.0282 61.4426C95.1319 62.7885 96.6572 65.2207 98.033 67.0053C98.6611 67.8129 99.369 68.6206 100.316 69.139C100.336 69.139 100.316 69.159 100.266 69.1789C99.4189 69.5079 88.472 71.0135 87.1659 63.8153L86.7971 63.7057C86.5478 64.0646 86.0293 64.7322 85.2617 65.5298H85.2417Z" fill="#F3CABE"/>
<path d="M101.507 30.3163C105.096 40.8046 96.8406 50.0467 89.4728 50.5053C88.9843 50.5352 90.5097 48.7708 90.729 46.049C90.729 46.049 97.9872 43.8853 97.0101 37.5245C97.0101 37.5245 97.0101 37.5045 97.0101 37.4846C97.0101 37.4547 97.0101 37.4147 97.0101 37.3848C96.9702 37.0757 96.9005 36.7567 96.8008 36.4477C96.7808 36.3779 96.7608 36.2984 96.7309 36.2286C95.3252 31.483 91.746 33.2376 91.746 33.2376C88.7949 29.798 85.8637 17.3154 79.6326 16.7173C74.9467 16.2686 58.9651 26.0491 56.6221 33.9552L56.5424 34.0151C56.343 33.9353 52.0559 29.9573 49.9025 36.4676C47.749 42.978 56.4426 45.2711 56.4426 45.2711C56.7816 46.0189 57.2203 46.9961 57.6291 47.9432C57.9382 48.7707 58.3071 49.6676 58.7557 50.5749C58.7557 50.5948 58.7757 50.6151 58.7757 50.625C58.985 51.0936 59.1046 51.3825 59.1046 51.3825C49.7529 50.5251 46.9015 43.7658 46.2934 40.1567C44.4988 29.3792 59.4635 -7.8283 79.9018 6.02983C91.1976 2.98902 96.7609 16.4086 101.517 30.3066L101.507 30.3163Z" fill="#3E3A39"/>
<path d="M100.921 99.2695H92.127V103.029H100.921V99.2695Z" fill="white"/>
<path d="M96.6997 36.2303C96.7296 36.3101 96.7496 36.3796 96.7695 36.4494C96.8194 36.6488 96.8691 36.8583 96.919 37.0677C96.9489 37.2172 96.9689 37.3467 96.9988 37.4863C96.9988 37.5063 96.9988 37.5163 96.9988 37.5262C97.9759 43.887 90.7177 46.0508 90.7177 46.0508L90.5682 46.0108C89.8703 48.932 88.345 53.1192 85.035 56.2597C82.5126 58.6624 78.9433 60.4569 73.9185 60.6264C69.0831 60.7859 65.5239 58.9916 62.9217 56.4992C61.0873 54.7445 59.7414 52.6407 58.7544 50.6268C58.7544 50.6068 58.7344 50.5966 58.7344 50.5766C58.4553 49.9186 58.0365 48.9419 57.6078 47.9449C57.1991 46.9878 56.7603 46.0106 56.4213 45.2728C56.4213 45.2728 47.7177 42.9897 49.8812 36.4694C52.0347 29.959 56.3217 33.9271 56.5211 34.0168L56.6009 33.9569C58.9537 26.0508 74.9354 16.2703 79.6113 16.719C85.8424 17.3172 88.7736 29.7998 91.7247 33.2394C91.7247 33.2394 95.3039 31.4847 96.7096 36.2303H96.6997Z" fill="white"/>
<path d="M96.997 37.386C96.997 37.386 96.997 37.4559 96.997 37.4859C96.9771 37.3462 96.9472 37.2066 96.9173 37.0669C96.8674 36.8574 96.8274 36.6478 96.7676 36.4482C96.8673 36.7575 96.9471 37.0767 96.9771 37.386H96.997Z" fill="#3E3A39"/>
<path d="M93.0688 88.2223L93.0888 88.6312L93.049 88.9101L92.9991 89.1496L92.9492 89.4086L92.8794 89.6876L92.8097 89.987L92.7299 90.2961L92.6402 90.6349L92.5405 90.984L92.4308 91.353L92.3211 91.7414L92.1915 92.1503L92.042 92.569L91.8924 92.9979L91.7329 93.4462L91.5635 93.915L91.384 94.3838L91.1945 94.8721L90.9851 95.3808L90.5565 96.4075L90.0778 97.4941L89.5495 98.6108L88.9812 99.7572L88.3631 100.944L87.6952 102.14L86.9872 103.357L86.2295 104.593L85.412 105.839L84.5446 107.085L83.6274 108.331L83.1389 108.95L82.6503 109.568L82.1419 110.176L81.6334 110.794L81.0951 111.392L80.5567 111.99L79.9883 112.589L79.4301 113.167C79.0413 113.576 78.4031 113.585 77.9944 113.197C77.5856 112.808 77.5757 112.17 77.9645 111.761L78.5328 111.183L79.0712 110.615L79.5896 110.036L80.108 109.458L80.6065 108.87L81.105 108.282L81.5736 107.683L82.0422 107.095L82.9295 105.899L83.767 104.702L84.5546 103.506L85.3024 102.32L86.0002 101.143L86.6483 99.9865L87.2464 98.8503L87.8048 97.7433L88.3133 96.6567L88.7818 95.6198L89.2005 94.6131L89.4 94.1443L89.5794 93.6755L89.7589 93.2169L89.9284 92.7783L90.0878 92.3499L90.2374 91.941L90.367 91.5321L90.4966 91.1534L90.6063 90.7844L90.706 90.4455L90.8058 90.1165L90.8855 89.8073L90.9652 89.5182L91.035 89.249L91.0848 88.9997L91.1347 88.7806L91.1647 88.601L91.2144 88.6711L91.2344 88.6906L91.2144 88.6112L91.1945 88.4613L91.1746 88.5713V88.601L91.1547 88.5811L91.045 88.4715L90.8954 88.3318L90.4667 87.993L89.9682 87.6439L89.4199 87.2852L89.1407 87.1158L88.8616 86.9459L88.5923 86.7867L88.3331 86.6372L88.0939 86.4873L87.8646 86.368L87.6552 86.258L87.4757 86.1587L87.3361 86.0886L87.2265 86.0287L87.1567 85.999L87.1368 85.9791C86.6682 85.7398 86.4688 85.1615 86.718 84.6929C86.9573 84.2243 87.5356 84.0347 88.0042 84.284H88.0241L88.1038 84.3341L88.2135 84.394L88.3631 84.4734L88.5426 84.5731L88.7519 84.6929L88.9912 84.8224L89.2504 84.9718L89.5296 85.1315L89.8187 85.3009L90.1178 85.4806L90.4269 85.6699L91.0251 86.0487L91.6033 86.4576L92.1018 86.8665L92.351 87.0958L92.5703 87.3251L92.7698 87.5641L92.9492 87.8533L93.0788 88.2223H93.0688Z" fill="#3E3A39"/>
<path d="M91.1846 88.6125L91.2046 88.7028L91.1945 88.6729L91.1343 88.6125L91.1443 88.5821L91.1645 88.4717L91.1846 88.6125Z" fill="#3E3A39"/>
<path d="M85.1655 59.04L85.644 59.3491C83.7099 61.0838 79.7917 63.8554 74.4279 63.965C67.1798 64.1146 64.8468 60.2863 62.813 60.1567L62.8329 59.6879V56.6171L62.9326 56.5076C65.5348 59 69.094 60.7948 73.9294 60.6352C78.9542 60.4658 82.5235 58.6713 85.0459 56.2686L85.1655 56.398V59.04Z" fill="white"/>
<path d="M75.4811 70.2271C80.0972 69.9579 83.4072 67.4253 85.2517 65.541C85.0523 66.2888 84.0553 70.446 82.7392 76.0191L82.3903 75.9398L65.97 75.7898L65.3418 75.9398C64.5144 72.4902 63.7666 69.4689 63.2183 67.2955L63.3479 67.146C65.3917 68.9207 69.0107 70.5957 75.5011 70.2368L75.4811 70.2271Z" fill="white"/>
<path d="M82.3812 75.9307L82.7301 76.0105C79.4002 90.0381 73.9865 113.019 73.9865 113.019C73.9865 113.019 68.8521 90.5366 65.3228 75.9307L65.9509 75.7812L82.3712 75.9307H82.3812Z" fill="white"/>
<path d="M79.0007 47.1172H79.0506C79.0506 47.1172 78.3327 52.6405 73.3079 52.6405C68.2831 52.6405 67.3857 47.1172 67.3857 47.1172C67.3857 47.1172 70.2771 47.7252 73.1783 47.7252C76.0795 47.7252 79.0007 47.1172 79.0007 47.1172Z" fill="white"/>
<path d="M73.5259 125.021C74.503 125.021 75.3008 125.819 75.3008 126.796C75.3008 127.773 74.503 128.581 73.5259 128.581C72.5487 128.581 71.751 127.783 71.751 126.796C71.751 125.809 72.5487 125.021 73.5259 125.021Z" fill="white"/>
<path d="M70.1262 111.032C70.5151 111.441 70.4951 112.079 70.0963 112.468C69.6975 112.857 69.0594 112.837 68.6706 112.448L68.1123 111.86L67.544 111.272L67.0057 110.663L66.4672 110.066L65.9588 109.457L65.4403 108.839L64.9618 108.221L64.4633 107.603L63.546 106.357L62.6886 105.11L61.8712 103.864L61.1134 102.638L60.3956 101.421L59.7276 100.215L59.1095 99.0389L58.5411 97.8924L58.0128 96.7757L57.5343 95.6886L57.0955 94.662L56.8862 94.1635L56.6967 93.6747L56.5173 93.1962L56.3478 92.7376L56.1882 92.2892L56.0388 91.8506L55.8992 91.4315L55.7696 91.0231L55.65 90.6443L55.5403 90.2753L55.4405 89.9263L55.3508 89.5972L55.2711 89.2783L55.1913 88.9789L55.1315 88.7L55.0816 88.4405L55.0318 88.2015L54.9819 87.9226L55.0019 87.5136L55.1315 87.1349L55.3109 86.8555L55.5004 86.6062L55.7197 86.3769L55.9689 86.1476L56.4674 85.7387L57.0456 85.3303L57.6439 84.9413L57.9529 84.752L58.2521 84.5723L58.5313 84.4029L58.8103 84.2432L59.0596 84.0938L59.2988 83.9643L59.5083 83.8548L59.6877 83.755L59.8373 83.6751L59.9569 83.6255L60.0267 83.5856L60.0466 83.5656C60.5152 83.3263 61.1034 83.5157 61.3327 83.9843C61.572 84.4528 61.3925 85.0311 60.9239 85.2704H60.9041L60.8442 85.3201L60.7346 85.3702L60.585 85.4496L60.4056 85.5396L60.1962 85.6492L59.9769 85.7689L59.7376 85.9086L59.4684 86.0581L59.1992 86.2075L58.92 86.3769L58.6409 86.5463L58.0825 86.9056L57.5841 87.2542L57.1654 87.5935L57.0158 87.7327L56.8962 87.8525L56.8762 87.8724V87.8427L56.8463 87.7327V87.8826L56.8064 87.962L56.8263 87.942L56.8762 87.8826L56.9062 88.052L56.9559 88.2813L57.0158 88.5204L57.0756 88.7896L57.1554 89.0787L57.2451 89.3879L57.3348 89.7169L57.4445 90.066L57.5541 90.4345L57.6738 90.8137L57.8133 91.2124L57.9629 91.6213L58.1125 92.06L58.282 92.4986L58.4614 92.9572L58.6409 93.4255L58.8403 93.9045L59.269 94.9015L59.7376 95.9481L60.256 97.0249L60.8143 98.1315L61.4125 99.2682L62.0605 100.424L62.7585 101.601L63.4962 102.787L64.2938 103.974L65.1213 105.17L66.0087 106.367L66.4772 106.965L66.9458 107.553L67.4343 108.151L67.9328 108.74L68.4512 109.308L68.9697 109.886L69.518 110.454L70.0763 111.032H70.1262Z" fill="#3E3A39"/>
<path d="M57.6113 47.9541C58.0501 48.9514 58.469 49.9289 58.7383 50.5871C58.2895 49.6796 57.9105 48.7918 57.6113 47.9541Z" fill="#3E3A39"/>
<path d="M56.9284 87.8541V87.8846L56.8883 87.9444L56.8682 87.9646L56.8983 87.8846V87.7334L56.9284 87.8541Z" fill="#3E3A39"/>
<path d="M14.0791 63.8852C13.9794 63.5163 12.3544 57.5841 12.155 56.5772C11.8758 55.2113 9.83198 48.7808 12.5139 48.4119C14.7571 48.1029 14.7771 53.1778 15.5348 56.398C16.2925 59.6183 18.2565 62.4097 18.2565 62.4097C18.2565 62.4097 19.2933 58.3122 21.5665 57.8536C24.5375 57.2654 25.2154 57.5643 26.5315 58.7109C27.668 59.7079 29.2432 62.6489 27.7677 63.3867C25.0559 64.7625 25.6143 62.4 23.4508 62.6891C21.4369 62.9682 21.2973 64.942 21.5665 66.1084C21.9453 67.7136 23.5704 68.7209 25.0559 68.1725C26.9801 67.4746 25.2054 64.3038 27.7677 64.3038C29.5224 64.3038 30.1705 68.4716 29.3131 72.3498C28.6451 75.3607 25.694 80.0366 25.694 80.0366L25.7439 80.2659L16.0731 82.5388V82.4989C10.7691 81.0831 8.53588 73.576 6.89085 70.9839C5.93374 69.4784 1.19805 61.8813 2.77329 60.9741C5.12618 59.6082 5.98354 62.6688 6.84095 64.3038C7.66845 65.899 10.3604 66.9361 10.5299 66.9959C10.4202 66.7566 8.02742 61.9909 6.90083 60.1664C5.10625 57.2652 4.25875 52.8985 5.84396 52.4997C8.42616 51.8616 8.77518 56.2783 10.161 58.5814C11.497 60.7947 13.8897 63.6658 14.0791 63.8852Z" fill="white"/>
<path d="M82.3842 76.8761L65.9638 76.7262C65.4354 76.7262 65.0166 76.2875 65.0166 75.7691C65.0166 75.2407 65.4454 74.8223 65.9738 74.8223L82.3941 74.9717C82.9225 74.9717 83.3412 75.4104 83.3412 75.9288C83.3412 76.4572 82.9126 76.8761 82.3842 76.8761Z" fill="#3E3A39"/>
<path d="M85.1751 59.9888C84.6466 59.9888 84.2178 59.5595 84.2178 59.0311V56.3888C84.2178 55.8604 84.6466 55.4316 85.1751 55.4316C85.7036 55.4316 86.1323 55.8604 86.1323 56.3888V59.0311C86.1323 59.5595 85.7036 59.9888 85.1751 59.9888Z" fill="#3E3A39"/>
<path d="M73.7186 71.2228C68.9829 71.2228 65.284 70.0859 62.7018 67.8526C61.7048 66.9852 60.8973 65.9782 60.2393 64.7619C60.1396 64.5724 60.0698 64.3834 60.02 64.184C59.691 63.0076 60.1396 61.4324 60.6979 60.4852C61.1066 59.7973 61.5852 59.3784 62.1236 59.2487C62.3629 59.1889 62.6221 59.1692 62.8913 59.1991C63.7786 59.2489 64.626 59.7873 65.6031 60.4054C67.3877 61.542 69.8402 63.1073 74.3965 62.9977C79.4911 62.898 83.2298 60.2157 84.9945 58.6305C85.802 57.9127 86.2307 57.3843 86.2407 57.3843C86.5797 56.9855 87.1778 56.9258 87.5866 57.2548C87.9954 57.5937 88.0452 58.1918 87.7162 58.5906C87.6963 58.6205 87.1978 59.2186 86.2706 60.0461C84.3066 61.8108 80.1491 64.7919 74.4364 64.9016C69.2919 65.0113 66.4605 63.2068 64.5862 62.0104C63.8284 61.5319 63.1804 61.1132 62.7517 61.0933C62.662 61.0933 62.6221 61.0933 62.5822 61.0933C62.2731 61.2927 61.6351 62.868 61.8644 63.7055C61.8843 63.7753 61.8942 63.8151 61.9142 63.8549C62.2631 64.493 62.8514 65.4602 63.9481 66.4073C66.4605 68.5907 70.3188 69.5574 75.4234 69.2683C79.6606 69.019 82.7314 66.736 84.5658 64.8617C85.3933 64.0142 85.8818 63.3463 86.0114 63.1569C86.1111 63.0173 86.161 62.9475 86.1709 62.9276C86.4501 62.4789 87.0283 62.3493 87.4769 62.6184C87.9256 62.8876 88.0652 63.4759 87.796 63.9246C87.796 63.9246 87.7163 64.0443 87.5568 64.2736C87.3773 64.5228 86.8389 65.2605 85.9317 66.1877C83.8679 68.3014 80.3884 70.8838 75.5331 71.1629C74.9149 71.2028 74.3068 71.2126 73.7186 71.2126V71.2228Z" fill="#3E3A39"/>
<path d="M62.819 60.635C62.2905 60.635 61.8618 60.2063 61.8618 59.6778V56.6066C61.8618 56.0781 62.2905 55.6494 62.819 55.6494C63.3475 55.6494 63.7762 56.0781 63.7762 56.6066V59.6778C63.7762 60.2063 63.3475 60.635 62.819 60.635Z" fill="#3E3A39"/>
<path d="M59.258 82.5791C58.9589 82.5791 58.6598 82.4396 58.4803 82.1804L55.1604 77.4646C54.9909 77.2154 54.941 76.9062 55.0308 76.6171L58.0515 67.4948C58.221 66.9963 58.7595 66.7272 59.258 66.8867C59.7565 67.0562 60.0256 67.5945 59.8661 68.093L56.9948 76.7568L60.0455 81.0738C60.3446 81.5025 60.2449 82.1008 59.8162 82.3999C59.6467 82.5195 59.4574 82.5693 59.268 82.5693L59.258 82.5791Z" fill="#3E3A39"/>
<path d="M88.7843 83.3186C88.5948 83.3186 88.4054 83.2589 88.2359 83.1492C87.8072 82.8501 87.7075 82.2519 88.0066 81.8232L91.0573 77.5061L88.186 68.8321C88.0165 68.3336 88.2958 67.7953 88.7943 67.6258C89.2927 67.4563 89.8311 67.7358 90.0006 68.2343L93.0215 77.3567C93.1212 77.6458 93.0713 77.955 92.8919 78.2042L89.5718 82.9199C89.3824 83.1792 89.0934 83.3186 88.7943 83.3186H88.7843Z" fill="#3E3A39"/>
<path d="M108.578 159.278C108.129 159.278 107.731 158.959 107.641 158.5C106.494 152.289 104.66 144.134 102.187 134.274C102.048 133.696 101.958 133.347 101.938 133.267C101.828 132.749 102.157 132.25 102.666 132.13C103.184 132.021 103.683 132.35 103.802 132.858C103.822 132.938 103.902 133.267 104.042 133.805C106.524 143.705 108.369 151.891 109.525 158.152C109.625 158.67 109.276 159.169 108.758 159.258C108.698 159.268 108.638 159.278 108.588 159.278H108.578Z" fill="#3E3A39"/>
<path d="M37.2491 159.378C37.1892 159.378 37.1395 159.378 37.0796 159.368C36.5612 159.278 36.2122 158.78 36.3119 158.261C37.4385 151.97 39.3228 143.585 41.8851 133.336C42.0147 132.828 42.0944 132.479 42.1343 132.349C42.1343 132.329 42.1443 132.3 42.1543 132.28C42.254 131.871 42.6329 131.562 43.0815 131.562C43.6099 131.562 44.0386 131.991 44.0386 132.519C44.0386 132.609 44.0186 132.738 43.9887 132.828C43.9488 132.987 43.8691 133.326 43.7494 133.805C41.1872 144.014 39.3229 152.359 38.2062 158.6C38.1265 159.059 37.7177 159.388 37.269 159.388L37.2491 159.378Z" fill="#3E3A39"/>
<path d="M43.1098 134.104C42.6213 134.104 42.2026 133.735 42.1627 133.237L42.1128 132.638L38.9325 95.0721C38.8926 94.5437 39.2814 94.0848 39.7999 94.0449C40.3183 93.9851 40.7869 94.3939 40.8268 94.9124L44.057 133.067C44.1069 133.596 43.7181 134.054 43.1897 134.104C43.1597 134.104 43.1297 134.104 43.0998 134.104H43.1098Z" fill="#3E3A39"/>
<path d="M102.526 134.104C102.526 134.104 102.466 134.104 102.436 134.104C101.908 134.054 101.529 133.596 101.579 133.067L105.158 94.8228C105.208 94.2944 105.676 93.9052 106.195 93.9651C106.723 94.0149 107.102 94.4736 107.052 95.002L103.473 133.247C103.423 133.745 103.014 134.114 102.526 134.114V134.104Z" fill="#3E3A39"/>
<path d="M73.527 129.529C72.0214 129.529 70.7949 128.303 70.7949 126.787C70.7949 125.271 72.0214 124.055 73.527 124.055C75.0326 124.055 76.2591 125.281 76.2591 126.787C76.2591 128.293 75.0326 129.529 73.527 129.529ZM73.527 125.969C73.0683 125.969 72.6994 126.338 72.6994 126.797C72.6994 127.255 73.0683 127.624 73.527 127.624C73.9857 127.624 74.3547 127.255 74.3547 126.797C74.3547 126.338 73.9857 125.969 73.527 125.969Z" fill="#3E3A39"/>
<path d="M123.33 159.688C122.842 159.688 122.423 159.309 122.383 158.82L121.984 154.164C119.761 128.163 116.042 84.6541 111.496 78.1139C109.053 74.5945 105.245 72.421 99.8809 70.0582L99.6714 69.9686C99.482 69.8888 99.2926 69.7991 99.0932 69.7193C98.6047 69.52 98.3754 68.9616 98.5748 68.4731C98.7742 67.9846 99.3325 67.7553 99.821 67.9547C100.03 68.0444 100.24 68.1341 100.449 68.2239L100.649 68.3134C106.311 70.8059 110.359 73.1289 113.051 77.0171C117.886 83.9761 121.486 126.109 123.878 153.994L124.277 158.651C124.327 159.179 123.938 159.638 123.41 159.677C123.38 159.677 123.35 159.677 123.33 159.677V159.688Z" fill="#3E3A39"/>
<path d="M73.9907 113.964C73.552 113.964 73.1633 113.656 73.0636 113.227C73.0137 112.998 67.8892 90.5854 64.3997 76.149C63.642 72.9686 62.8843 69.9077 62.2761 67.5149C62.1465 67.0065 62.4556 66.4879 62.9641 66.3583C63.4726 66.2287 63.991 66.5377 64.1206 67.0461C64.7388 69.4489 65.4965 72.52 66.2542 75.7104C68.8464 86.4778 72.3557 101.672 74.0007 108.81C75.6956 101.612 79.3247 86.2182 81.8072 75.7897C83.1132 70.2864 84.1202 66.0693 84.3296 65.2917C84.3495 65.2019 84.3694 65.1119 84.4193 65.0122C84.6486 64.5337 85.2169 64.3346 85.6855 64.5639C86.1341 64.7832 86.3435 65.3116 86.164 65.7702C85.9646 66.5379 84.9277 70.8349 83.6516 76.2386C80.3216 90.2662 74.908 113.247 74.908 113.247C74.8083 113.676 74.4195 113.984 73.9809 113.984L73.9907 113.964ZM85.2667 65.4913L85.7253 65.6305L85.5758 65.5609L85.2667 65.4913Z" fill="#3E3A39"/>
<path d="M58.7363 51.5342C58.3674 51.5342 58.0085 51.3145 57.859 50.9456C57.5898 50.2876 57.171 49.3207 56.7324 48.3237C56.3934 47.5361 56.0345 46.7285 55.7254 46.0605C54.4592 45.6517 50.88 44.2757 49.3147 41.3944C48.4573 39.8092 48.3377 38.0548 48.9658 36.1705C49.7434 33.8375 50.89 32.4218 52.3955 31.9532C53.7913 31.5146 55.3166 31.933 56.9616 33.1693L57.0215 33.2092C57.4203 33.4485 57.5798 33.9569 57.4004 34.3956C57.191 34.8841 56.6327 35.1037 56.1542 34.9043C56.0245 34.8544 55.9447 34.7847 55.8251 34.6949C54.7084 33.8475 53.7514 33.5383 52.9837 33.7875C51.887 34.1265 51.1892 35.6123 50.8003 36.7887C50.3417 38.1745 50.4115 39.3906 51.0196 40.4972C52.5052 43.2389 56.6426 44.3455 56.6825 44.3654C56.9616 44.4352 57.1909 44.6349 57.3106 44.8941C57.6595 45.6518 58.0983 46.6286 58.507 47.5857C58.9457 48.5926 59.3645 49.5701 59.6436 50.2281C59.843 50.7166 59.6137 51.2749 59.1351 51.4743C59.0155 51.5242 58.8859 51.5439 58.7663 51.5439L58.7363 51.5342Z" fill="#3E3A39"/>
<path d="M59.0841 52.3505C59.0841 52.3505 59.0244 52.3505 58.9945 52.3505C50.2708 51.5429 46.213 45.6205 45.3357 40.3365C44.0994 32.889 50.5899 12.2614 62.3743 4.71416C68.0571 1.07516 74.1686 1.18489 80.0708 5.02329C91.8253 2.20181 97.5578 15.821 102.403 30.0181C104.108 35.003 103.44 40.1572 100.519 44.524C97.8271 48.5519 93.6099 51.2138 89.5322 51.463C89.1533 51.493 88.8043 51.3235 88.6049 51.0244C88.246 50.496 88.4853 49.9876 88.7844 49.3396C89.1134 48.6317 89.6618 47.4452 89.7814 45.9796C89.8113 45.5908 90.0805 45.252 90.4593 45.1423C90.7185 45.0625 96.9098 43.1281 96.0724 37.6746C95.9926 37.1562 96.3516 36.6678 96.87 36.5881C97.3884 36.5083 97.8769 36.867 97.9567 37.3855C98.7642 42.6695 94.4573 45.7005 91.6059 46.7673C91.4464 47.8041 91.1473 48.6714 90.8581 49.3493C93.869 48.6614 96.9198 46.4683 98.9337 43.4574C101.516 39.5891 102.114 35.0328 100.599 30.6261C95.9827 17.107 90.5889 4.14588 80.1405 6.95739C79.8713 7.02718 79.5921 6.98741 79.3628 6.82789C73.9592 3.15898 68.5854 2.98947 63.411 6.30944C52.6336 13.2186 46.0435 32.8894 47.23 40.0079C47.5889 42.1215 49.3835 48.8809 57.8878 50.2767C57.9775 50.0474 58.157 49.8579 58.3963 49.7582C58.8748 49.5489 59.4431 49.7682 59.6525 50.2567C59.8619 50.7353 59.9815 51.0346 59.9815 51.0346C60.1111 51.3437 60.0712 51.6926 59.8718 51.9718C59.6924 52.221 59.4032 52.3602 59.1041 52.3602L59.0841 52.3505Z" fill="#3E3A39"/>
<path d="M96.9926 38.4227C96.5338 38.4227 96.1348 38.1038 96.065 37.645C96.0451 37.5054 96.0252 37.3859 95.9953 37.2662C95.9554 37.0667 95.9155 36.8769 95.8656 36.6974C95.726 36.1888 96.0352 35.6703 96.5438 35.5306C97.0525 35.391 97.571 35.7004 97.7106 36.209C97.7704 36.4184 97.8203 36.6477 97.8702 36.8771C97.9001 37.0267 97.93 37.1665 97.9499 37.3061C98.0397 37.8247 97.6906 38.333 97.172 38.4227C97.1122 38.4227 97.0624 38.4329 97.0025 38.4329L96.9926 38.4227Z" fill="#3E3A39"/>
<path d="M96.7075 37.1868C96.2988 37.1868 95.92 36.9175 95.7904 36.5087C95.4015 35.2126 94.8232 34.3852 94.0655 34.0562C93.1283 33.6374 92.1413 34.0958 92.1314 34.1058C91.7426 34.2952 91.2739 34.1958 90.9848 33.8668C89.948 32.6505 88.9809 30.5765 87.8742 28.1838C85.7806 23.6574 83.1684 18.0244 79.4995 17.6755C75.2922 17.2567 59.6994 26.7983 57.4961 34.2358C57.3465 34.7442 56.818 35.033 56.3096 34.8735C55.8011 34.724 55.5221 34.1956 55.6716 33.6871C58.0544 25.6614 74.2654 15.2531 79.689 15.7716C84.4446 16.2302 87.3059 22.4111 89.609 27.3761C90.4764 29.2405 91.294 31.0154 92.0616 32.1221C92.7396 31.9526 93.7764 31.8431 94.8332 32.3017C96.1293 32.87 97.0665 34.0962 97.6148 35.9606C97.7644 36.469 97.4752 36.9974 96.9767 37.1469C96.887 37.1768 96.7972 37.1868 96.7075 37.1868Z" fill="#3E3A39"/>
<path d="M73.3258 61.5926C69.0288 61.5926 65.3201 60.1169 62.2693 57.1957C60.5844 55.5806 59.1088 53.5166 57.9025 51.0541C57.9025 51.0341 57.8825 51.0046 57.8725 50.9747C57.4438 50.1173 57.055 49.2001 56.716 48.2729C55.6691 45.4315 55.3301 43.2677 55.3202 43.178C55.2404 42.6596 55.5994 42.1712 56.1178 42.0914C56.6462 42.0117 57.1247 42.3704 57.2045 42.8888C57.2045 42.9088 57.5236 44.9628 58.5106 47.6148C58.8296 48.4921 59.1985 49.3394 59.5973 50.1569C59.6172 50.1968 59.6372 50.2368 59.6472 50.2766C60.7339 52.47 62.0698 54.3544 63.5952 55.82C66.4067 58.5118 69.8762 59.818 73.904 59.6784C78.1512 59.5388 81.6806 58.1529 84.3924 55.5707C87.5329 52.5897 88.9885 48.6117 89.6565 45.7902C90.1251 43.8561 90.2048 42.4801 90.2048 42.4702C90.2347 41.9418 90.6733 41.5132 91.2117 41.573C91.7401 41.6029 92.1389 42.0515 92.109 42.57C92.109 42.6298 92.0193 44.1155 91.5109 46.239C90.7831 49.2998 89.1878 53.6566 85.7083 56.9567C82.6476 59.8679 78.6896 61.4328 73.9639 61.5823C73.7545 61.5823 73.5452 61.5926 73.3358 61.5926H73.3258Z" fill="#3E3A39"/>
<path d="M91.1723 46.7461C90.8134 46.7461 90.4743 46.5467 90.3148 46.2077C90.0855 45.7291 90.2849 45.1611 90.7635 44.9318C94.8212 42.9876 96.4064 40.8139 96.0574 37.6734C96.0475 37.6236 96.0376 37.5641 96.0376 37.5142C96.0077 37.2849 95.9478 37.0257 95.8581 36.7465C95.8581 36.7166 95.8381 36.6966 95.8381 36.6667C95.8381 36.6468 95.8281 36.6168 95.8182 36.5869C95.3496 35.231 94.4424 34.174 93.6049 33.9746C93.1263 33.865 92.6478 34.0347 92.1493 34.5033C91.7705 34.8722 91.1623 34.852 90.8034 34.4731C90.4345 34.0943 90.4544 33.486 90.8332 33.1271C92.0595 31.9507 93.2659 31.931 94.0535 32.1204C95.8481 32.5591 97.0944 34.4434 97.6028 35.919C97.6327 35.9987 97.6626 36.0982 97.6925 36.1979C97.8022 36.5568 97.8819 36.9058 97.9318 37.2348C97.9418 37.2946 97.9517 37.3546 97.9517 37.3945C97.9517 37.3945 97.9517 37.4045 97.9517 37.4144C98.5499 42.6686 94.6118 45.2007 91.591 46.6463C91.4613 46.7061 91.3217 46.7364 91.1822 46.7364L91.1723 46.7461Z" fill="#3E3A39"/>
<path d="M56.2422 45.9602C56.1225 45.9602 56.0029 45.9404 55.8833 45.8906C52.7328 44.6244 48.5852 42.3211 48.9442 36.9274C49.0738 34.9733 50.6291 33.0491 52.5533 32.441C54.2182 31.9225 55.8534 32.4711 57.0298 33.9467C57.3588 34.3554 57.289 34.9535 56.8803 35.2825C56.4715 35.6115 55.8633 35.5418 55.5442 35.133C54.8463 34.2657 54.0388 33.9667 53.1216 34.2558C51.9651 34.6247 50.9182 35.9006 50.8385 37.0472C50.6291 40.2974 52.3439 42.4108 56.5911 44.1157C57.0796 44.3151 57.3189 44.8636 57.1195 45.3522C56.97 45.721 56.6111 45.9504 56.2322 45.9504L56.2422 45.9602Z" fill="#3E3A39"/>
<path d="M30.399 86.1888C30.2495 86.1888 30.1 86.149 29.9604 86.0792C29.4918 85.84 29.3123 85.2617 29.5516 84.7931C29.7011 84.504 33.37 77.5451 39.5115 72.1813C44.5064 67.8245 59.9498 63.2681 60.6078 63.0687C61.1162 62.9192 61.6446 63.2082 61.7941 63.7166C61.9437 64.2251 61.6546 64.7535 61.1462 64.903C60.9867 64.9529 45.4535 69.5392 40.7677 73.6169C34.9054 78.7315 31.2764 85.6005 31.2366 85.6703C31.0671 85.9993 30.738 86.179 30.389 86.179L30.399 86.1888Z" fill="#3E3A39"/>
<path d="M27.5836 134.154C25.2706 134.154 23.1471 133.456 21.2528 132.05C13.7654 126.487 12.1304 93.796 12.4095 83.1482C12.4195 82.7195 12.7186 82.3405 13.1473 82.2408L27.9525 78.7513C28.441 78.6417 28.9296 78.9209 29.0791 79.3895C29.0791 79.3895 29.8368 81.8019 30.8736 85.0721C35.5495 99.8973 36.397 102.45 36.5266 102.809C36.5864 102.938 36.6263 103.078 36.6263 103.237C36.6263 103.766 36.1976 104.194 35.6692 104.194C34.9514 104.194 34.9414 104.145 34.1538 101.722C33.7849 100.585 33.2765 99.0099 32.7082 97.2053C31.5616 93.6062 30.1558 89.1399 29.0492 85.6504C28.3812 83.5468 27.8328 81.792 27.5238 80.8149L14.2938 83.9256C14.1941 89.8278 14.6228 100.007 15.8391 109.398C17.3346 120.983 19.6576 128.481 22.3794 130.505C30.5846 136.607 41.5913 124.503 41.701 124.383C41.721 124.364 41.7408 124.344 41.7608 124.324C41.9303 124.154 42.1696 124.054 42.4188 124.054C42.9472 124.054 43.3759 124.483 43.3759 125.011C43.3759 125.271 43.2762 125.5 43.1067 125.67C42.8275 125.979 39.8465 129.219 35.7689 131.601C32.8676 133.296 30.116 134.144 27.5737 134.144L27.5836 134.154Z" fill="#3E3A39"/>
<path d="M96.7356 70.4962C94.5821 70.4962 91.94 70.1675 89.8264 68.991C87.8324 67.8744 86.6261 66.1994 86.2273 64.0061C86.1375 63.4876 86.4765 62.9893 86.995 62.8996C87.5134 62.8098 88.0119 63.1488 88.1016 63.6673C88.3907 65.2425 89.2083 66.409 90.6041 67.2365C92.8872 68.6024 96.0675 68.6818 98.0715 68.5422C97.7824 68.2231 97.5232 67.9044 97.284 67.5953C97.0148 67.2464 96.7455 66.8774 96.4664 66.4985C95.3497 64.9732 94.0736 63.2486 92.5183 62.2516C91.1225 61.3643 89.7167 61.1745 88.0817 61.6631C87.5732 61.8226 87.0448 61.5333 86.8953 61.0248C86.7458 60.5164 87.0249 59.988 87.5334 59.8385C89.6769 59.1905 91.7008 59.4597 93.5452 60.6461C95.3996 61.8325 96.7755 63.7171 98.0018 65.3721C98.2709 65.741 98.5402 66.0999 98.7894 66.4289C99.3378 67.1468 99.9658 67.8642 100.773 68.3129C101.102 68.4923 101.302 68.8616 101.272 69.2305C101.242 69.6094 100.933 69.9582 100.574 70.0878C100.225 70.2274 98.6897 70.4865 96.7356 70.4865V70.4962Z" fill="#3E3A39"/>
<path d="M93.8813 62.3812C93.4427 62.3812 93.0438 62.0821 92.9541 61.6334C92.8444 61.115 93.1634 60.6064 93.6819 60.4967C96.2541 59.9284 98.617 57.8746 99.9829 56.4289C99.5741 56.3891 99.1654 56.3395 98.7666 56.2697C98.3279 56.19 97.8693 56.1 97.4007 56.0103C93.9611 55.3323 90.0728 54.5747 87.9791 58.124C87.7099 58.5727 87.1317 58.732 86.6731 58.4628C86.2245 58.1936 86.0649 57.6054 86.3341 57.1567C89.1157 52.4509 94.1107 53.428 97.7696 54.1458C98.2282 54.2355 98.6668 54.3253 99.0856 54.395C100.132 54.5645 101 54.6443 101.817 54.435C102.156 54.3552 102.515 54.4552 102.755 54.7144C102.984 54.9636 103.064 55.3425 102.964 55.6715C102.725 56.4391 98.6569 61.3542 94.0907 62.3612C94.0209 62.3811 93.9511 62.3812 93.8813 62.3812Z" fill="#3E3A39"/>
<path d="M25.7006 80.985C25.5311 80.985 25.3517 80.9353 25.1922 80.8356C24.7435 80.5564 24.6139 79.9684 24.893 79.5197C24.9229 79.4699 27.7743 74.9536 28.3924 72.1421C29.0604 69.1212 28.7016 66.3095 28.0037 65.4222C27.9539 65.3624 27.8541 65.2528 27.7843 65.2528C27.2858 65.2528 27.236 65.2528 27.1064 66.3096C26.9967 67.197 26.8272 68.5427 25.4015 69.0611C24.4843 69.4001 23.4773 69.3303 22.5801 68.8518C21.613 68.3333 20.915 67.4163 20.6558 66.3296C20.5461 65.881 20.2671 64.3057 21.1245 63.0495C21.613 62.3316 22.3807 61.8832 23.3278 61.7536C24.6937 61.5741 25.3916 62.1721 25.8502 62.5709C26.249 62.9199 26.3786 63.0293 27.3457 62.5408C27.3756 62.5208 27.3955 62.5112 27.4154 62.4015C27.5151 61.6538 26.6378 60.0686 25.91 59.4305C24.893 58.5432 24.5442 58.234 21.7626 58.7923C20.3967 59.0615 19.4295 61.7333 19.1903 62.6406C19.1005 62.9995 18.8014 63.2788 18.4425 63.3386C18.0736 63.4084 17.7048 63.2587 17.4954 62.9497C17.4057 62.83 15.4117 59.9688 14.6241 56.609C14.4247 55.7715 14.2752 54.8144 14.1356 53.8872C13.8864 52.2621 13.4078 49.2512 12.6701 49.3609C12.5404 49.3808 12.4607 49.4206 12.3909 49.5303C11.673 50.597 12.6102 54.3256 12.9093 55.5419C12.9991 55.9008 13.0688 56.2 13.1087 56.3894C13.2682 57.2169 14.4746 61.6537 14.8734 63.1094L15.0229 63.6478C15.1625 64.1562 14.8534 64.6746 14.3449 64.8142C13.8365 64.9537 13.318 64.6445 13.1784 64.136L13.0389 63.6176C12.341 61.0553 11.4038 57.5662 11.2443 56.7686C11.2144 56.5992 11.1446 56.3397 11.0648 56.0107C10.3669 53.2191 9.7089 50.0987 10.8156 48.4637C11.1944 47.9054 11.7428 47.5664 12.4108 47.4667C15.0229 47.0978 15.5513 50.5473 16.0299 53.5981C16.1695 54.4854 16.309 55.4124 16.4885 56.1801C16.8474 57.7155 17.5054 59.1514 18.0637 60.1982C18.6918 58.8423 19.7585 57.2371 21.4036 56.9181C24.6039 56.29 25.6109 56.6191 27.1861 57.9949C28.1931 58.8723 29.5291 61.0354 29.3197 62.6406C29.2698 63.0393 29.1302 63.3883 28.9009 63.6775C29.1003 63.8071 29.3098 63.9868 29.4992 64.2261C30.8451 65.8911 30.9049 69.6792 30.2668 72.5505C29.5789 75.6911 26.6477 80.3472 26.5181 80.5367C26.3386 80.8258 26.0296 80.9753 25.7106 80.9753L25.7006 80.985ZM23.8263 63.6176C23.7565 63.6176 23.6767 63.6176 23.587 63.6375C23.1683 63.6974 22.8791 63.8571 22.6897 64.1263C22.3607 64.6148 22.3807 65.3825 22.5003 65.891C22.6299 66.4493 22.9888 66.9177 23.4674 67.1669C23.8761 67.3863 24.3248 67.4163 24.7236 67.2667C25.0028 67.167 25.0825 66.9475 25.1922 66.0701C25.242 65.6713 25.3118 65.1131 25.5411 64.6146C25.1722 64.475 24.8731 64.2361 24.594 63.9968C24.3049 63.7476 24.1553 63.6078 23.8263 63.6078V63.6176Z" fill="#3E3A39"/>
<path d="M10.5344 67.9532C10.2951 67.9532 10.0558 67.8637 9.86633 67.6742C9.78658 67.5945 9.7267 67.5047 9.68682 67.405C9.52731 67.0661 7.18442 62.4099 6.10767 60.6651C4.66204 58.3222 3.56544 54.6437 4.32315 52.7793C4.5724 52.1512 5.04092 51.7223 5.62914 51.5827C8.25122 50.9347 9.26815 53.7262 9.99595 55.76C10.305 56.6075 10.6141 57.475 10.9929 58.1031C12.3488 60.3463 14.7914 63.2475 14.8213 63.2774C14.9709 63.4568 15.0606 63.6863 15.0606 63.9156C15.0606 64.444 14.6319 64.8726 14.1035 64.8726C13.7845 64.8726 13.4953 64.713 13.3259 64.4637C12.957 64.0151 10.6839 61.2732 9.36784 59.0898C8.89926 58.3022 8.55028 57.3454 8.2113 56.4182C7.39377 54.1451 6.91522 53.2376 6.09769 53.437C5.73878 53.8458 6.01796 56.8968 7.74275 59.6784C8.88928 61.5228 11.1824 66.1186 11.4017 66.5672C11.5912 66.9262 11.5413 67.3951 11.2422 67.6942C11.0528 67.8836 10.8134 67.9731 10.5642 67.9731L10.5344 67.9532Z" fill="#3E3A39"/>
<path d="M16.0825 83.4463C16.0027 83.4463 15.913 83.4366 15.8332 83.4166C11.3169 82.2103 8.88429 77.1454 7.28912 73.7856C6.84047 72.8385 6.45158 72.0306 6.10264 71.4922C2.73282 66.1484 1.20752 62.6693 1.58638 61.1538C1.72596 60.5955 2.05494 60.2962 2.31416 60.1466C3.12172 59.678 3.89932 59.5585 4.6371 59.7879C6.02291 60.2265 6.7408 61.7916 7.31905 63.0578C7.44866 63.3469 7.57815 63.6161 7.69779 63.8654C8.2262 64.8723 10.0607 65.8097 10.8683 66.0989C11.3668 66.2783 11.616 66.8266 11.4365 67.3251C11.257 67.8236 10.7087 68.0727 10.2202 67.8932C10.0906 67.8434 7.03984 66.7171 6.01294 64.7431C5.87336 64.4739 5.73373 64.1747 5.58418 63.8556C5.18539 62.9883 4.63714 61.7919 4.05889 61.6124C3.8894 61.5626 3.68002 61.5923 3.4208 61.722C3.39089 62.4996 4.4576 65.3311 7.71775 70.4855C8.11655 71.1236 8.53532 71.981 9.0039 72.978C10.5393 76.1982 12.6528 80.6048 16.3218 81.5819C16.8302 81.7214 17.1294 82.2398 16.9998 82.7483C16.8901 83.177 16.5012 83.4561 16.0825 83.4561V83.4463Z" fill="#3E3A39"/>
<path d="M20.8007 78.0752C20.3919 78.0752 20.0031 77.806 19.8835 77.3872C19.7339 76.8687 18.4775 72.3018 20.4618 70.3076C20.8307 69.9287 21.4389 69.9287 21.8078 70.3076C22.1768 70.6765 22.1867 71.2849 21.8078 71.6538C20.8705 72.6011 21.3392 75.5627 21.7081 76.8589C21.8577 77.3675 21.5586 77.8956 21.06 78.0352C20.9703 78.0651 20.8805 78.0752 20.7908 78.0752H20.8007Z" fill="#3E3A39"/>
<path d="M100.926 103.974H92.1329C91.6044 103.974 91.1758 103.545 91.1758 103.017V99.2579C91.1758 98.7294 91.6044 98.3008 92.1329 98.3008H100.926C101.455 98.3008 101.883 98.7294 101.883 99.2579V103.017C101.883 103.545 101.455 103.974 100.926 103.974ZM93.0799 102.07H99.9692V100.215H93.0799V102.07Z" fill="#3E3A39"/>
<path d="M64.1036 44.6145C65.9098 44.6145 67.3741 43.4984 67.3741 42.1217C67.3741 40.745 65.9098 39.6289 64.1036 39.6289C62.2973 39.6289 60.833 40.745 60.833 42.1217C60.833 43.4984 62.2973 44.6145 64.1036 44.6145Z" fill="#F3CABE"/>
<path d="M84.0791 44.6145C85.8854 44.6145 87.3496 43.4984 87.3496 42.1217C87.3496 40.745 85.8854 39.6289 84.0791 39.6289C82.2729 39.6289 80.8086 40.745 80.8086 42.1217C80.8086 43.4984 82.2729 44.6145 84.0791 44.6145Z" fill="#F3CABE"/>
<path d="M74.2503 46.6889C74.7688 46.6889 75.3173 46.5395 75.7959 46.1008C76.1349 45.7917 76.1549 45.2733 75.8558 44.9342C75.5467 44.5952 75.0281 44.5752 74.6891 44.8744C74.2504 45.2732 73.4727 44.8045 73.4527 44.7945C73.0738 44.5552 72.5653 44.6649 72.316 45.0438C72.0667 45.4227 72.1764 45.9413 72.5653 46.1806C72.9541 46.4299 73.5823 46.6889 74.2503 46.6889Z" fill="#3E3A39"/>
<path d="M67.5764 36.1885C67.736 36.378 67.9653 36.4777 68.2046 36.4777C68.3941 36.4777 68.5836 36.4077 68.7431 36.2781C69.0921 35.979 69.1319 35.4606 68.8328 35.1116C67.7958 33.9051 66.6591 33.3065 65.4526 33.3564C63.578 33.4262 62.3415 35.0914 62.2917 35.1612C62.0225 35.5302 62.1023 36.0391 62.4712 36.3083C62.8401 36.5775 63.3487 36.4973 63.6179 36.1384C63.6179 36.1384 63.8771 35.7897 64.2959 35.4806C64.0366 35.7797 63.8872 36.1782 63.8872 36.597C63.8872 37.5642 64.6649 38.342 65.6321 38.342C66.5993 38.342 67.3771 37.5642 67.3771 36.597C67.3771 36.2779 67.2872 35.9891 67.1476 35.7299C67.2972 35.8595 67.4368 36.0088 67.5864 36.1783L67.5764 36.1885Z" fill="#3E3A39"/>
<path d="M84.0496 36.1885C84.2091 36.378 84.4384 36.4777 84.6778 36.4777C84.8672 36.4777 85.0566 36.4077 85.2161 36.2781C85.5651 35.979 85.6051 35.4606 85.3059 35.1116C84.2689 33.9051 83.1322 33.3065 81.9257 33.3564C80.0511 33.4262 78.8147 35.0914 78.7648 35.1612C78.4956 35.5302 78.5754 36.0391 78.9444 36.3083C79.3133 36.5775 79.8218 36.4973 80.0911 36.1384C80.0911 36.1384 80.3303 35.8197 80.7191 35.5205C80.4798 35.8197 80.3403 36.1984 80.3403 36.6072C80.3403 37.5744 81.1181 38.3522 82.0853 38.3522C83.0525 38.3522 83.8302 37.5744 83.8302 36.6072C83.8302 36.2782 83.7305 35.9689 83.571 35.6997C83.7305 35.8393 83.89 35.9991 84.0496 36.1885Z" fill="#3E3A39"/>
<path d="M87.4765 30.7668C87.6858 30.7668 87.8953 30.6868 88.0548 30.5273C88.3738 30.2083 88.3738 29.6799 88.0548 29.3609C86.3898 27.6959 84.0967 27.068 81.4348 27.5466C79.5006 27.8955 78.0449 28.7127 77.9751 28.7427C77.5763 28.962 77.4368 29.4703 77.6661 29.8691C77.8855 30.2679 78.3939 30.4076 78.7927 30.1783C78.8426 30.1484 83.7777 27.407 86.8883 30.5176C87.0478 30.6771 87.2571 30.7566 87.4665 30.7566L87.4765 30.7668Z" fill="#3E3A39"/>
<path d="M68.9464 30.1783C69.3452 30.3976 69.8436 30.258 70.063 29.8691C70.2823 29.4703 70.1527 28.972 69.7539 28.7427C69.694 28.7127 68.2385 27.8955 66.2943 27.5466C63.6324 27.068 61.3493 27.6959 59.6743 29.3609C59.3553 29.6799 59.3553 30.2083 59.6743 30.5273C59.8339 30.6868 60.0433 30.7668 60.2527 30.7668C60.462 30.7668 60.6714 30.6868 60.8309 30.5273C63.9315 27.4267 68.8766 30.1586 68.9264 30.1885L68.9464 30.1783Z" fill="#3E3A39"/>
<path d="M68.6813 50.2561C68.5218 50.6848 68.7311 51.1432 69.1598 51.3028C69.2496 51.3426 71.5027 52.5792 74.1248 52.5792C76.7469 52.5792 79.1796 51.3327 79.2793 51.3028C79.708 51.1532 79.9373 50.6848 79.7877 50.2561C79.6382 49.8274 79.1696 49.5983 78.7409 49.7479C78.7209 49.7479 76.4479 50.9342 74.1149 50.9342C71.782 50.9342 69.7481 49.7579 69.7282 49.7479C69.2995 49.5884 68.8308 49.8374 68.6713 50.2561H68.6813Z" fill="#3E3A39"/>
</g>
</svg>
