<svg width="87" height="110" viewBox="0 0 87 110" fill="none" xmlns="http://www.w3.org/2000/svg">
<path d="M80.5609 76.9482C77.7095 74.2264 71.6279 71.5646 67.1914 69.8597C66.3838 68.1649 62.8345 59.3016 66.2642 40.4286C66.663 38.2153 67.5104 32.2633 66.6031 24.9753C65.656 17.3384 63.1336 10.9279 59.1157 5.92305C56.7828 3.02181 52.8447 -0.358129 47.3014 0.0306965C43.9815 0.260004 41.6884 1.75552 41.5887 1.81534C41.1301 2.11444 41.0004 2.72248 41.2796 3.19107C40.9606 3.0814 40.7711 2.97189 40.7911 2.85225C40.8908 2.29394 40.5219 1.75537 39.9636 1.65567C39.6745 1.60582 32.8551 0.4395 26.9529 5.80329C20.3927 11.7653 17.7707 23.1008 19.1465 39.5013C20.991 61.5148 17.2223 69.7302 16.4547 71.1459C12.6362 72.761 8.49869 74.8348 6.29535 76.9384C0.03427 82.9204 0.0542 107.316 0.0542 108.313C0.0542 108.882 0.512843 108.313 1.08113 108.313C1.50983 108.313 1.87867 108.682 2.02822 108.313C2.02822 108.313 38.5977 108.543 38.4183 108.313V108.293C46.0352 108.273 55.6661 108.264 56.0051 108.313C56.055 108.313 84.8281 108.313 84.8281 108.313C84.9776 108.682 85.3464 108.313 85.7751 108.313C86.3434 108.313 86.8021 108.882 86.8021 108.313C86.8021 107.316 86.832 82.9204 80.5609 76.9384V76.9482ZM45.2576 3.91885C45.2975 3.92882 45.3075 3.91885 45.2576 3.91885V3.91885ZM42.7153 3.53038C42.7153 3.53038 42.7053 3.53038 42.6954 3.53038C42.6954 3.53038 42.7053 3.53038 42.7153 3.53038ZM21.2402 39.9998C21.3598 41.4055 21.5492 43.5096 21.7885 45.9223C21.7387 46.3211 21.6889 46.6999 21.649 47.0687C21.5792 44.8853 21.4496 42.5321 21.2502 39.9998H21.2402ZM31.1802 108.324H31.7783C32.0675 108.324 32.3865 108.324 32.7155 108.324C32.1472 108.393 31.6288 108.433 31.1802 108.324ZM37.172 108.324C37.172 108.324 37.2319 108.304 37.2618 108.324H37.172ZM37.0524 108.324H36.4742C36.4742 108.324 36.3944 108.314 36.3545 108.304C36.5838 108.304 36.8131 108.304 37.0424 108.304V108.324H37.0524Z" fill="#F0F0F2"/>
<path d="M32.5623 39.9817C34.363 39.9817 35.8228 38.8699 35.8228 37.4987C35.8228 36.1274 34.363 35.0156 32.5623 35.0156C30.7615 35.0156 29.3018 36.1274 29.3018 37.4987C29.3018 38.8699 30.7615 39.9817 32.5623 39.9817Z" fill="#F3CABE"/>
<path d="M52.4754 39.9817C54.2762 39.9817 55.7359 38.8699 55.7359 37.4987C55.7359 36.1274 54.2762 35.0156 52.4754 35.0156C50.6747 35.0156 49.2148 36.1274 49.2148 37.4987C49.2148 38.8699 50.6747 39.9817 52.4754 39.9817Z" fill="#F3CABE"/>
<path d="M41.2743 41.9253C41.6532 42.1746 42.2813 42.4341 42.9494 42.4341C43.4679 42.4341 44.0063 42.2842 44.4849 41.8455C44.8239 41.5363 44.8439 41.0182 44.5448 40.6891C44.2456 40.3501 43.7172 40.3301 43.3881 40.6292C42.9494 41.0281 42.1816 40.5594 42.1517 40.5494C41.7728 40.3101 41.2643 40.4198 41.025 40.7987C40.7757 41.1776 40.8854 41.6862 41.2743 41.9355V41.9253Z" fill="#3E3A39"/>
<path d="M67.187 69.8597C66.3794 68.1649 62.8302 59.3016 66.2598 40.4286C66.6586 38.2153 67.506 32.2633 66.5987 24.9753C65.6516 17.3384 63.1292 10.9279 59.1114 5.92305C56.7784 3.02181 52.8403 -0.358129 47.2971 0.0306965C43.9771 0.260004 41.6841 1.75552 41.5844 1.81534C41.1158 2.12441 40.9861 2.7624 41.2952 3.23099C41.6043 3.70954 42.2424 3.83944 42.711 3.53038C43.03 3.32101 50.5772 -1.42496 57.5062 7.19898C67.5758 19.7311 64.6048 38.0158 64.2359 40.0596C61.3546 55.9217 63.2489 64.9945 64.5849 68.9027C63.0994 68.3743 62.0924 68.0451 61.9428 67.9952C61.893 67.9753 61.8432 67.9653 61.7833 67.9553C61.7833 67.9553 61.7833 67.9553 61.7734 67.9553C61.7734 67.9553 61.7534 67.9553 61.7434 67.9553C61.6936 67.9553 61.6438 67.9553 61.5939 67.9553C61.574 67.9553 61.5639 67.9553 61.544 67.9553C61.4842 67.9553 61.4344 67.9656 61.3745 67.9855C61.3546 67.9855 61.3446 67.9853 61.3247 67.9952C61.2848 68.0052 61.2449 68.0255 61.2051 68.0454C61.1851 68.0454 61.1752 68.0554 61.1552 68.0653C61.1054 68.0953 61.0555 68.115 61.0057 68.1549C61.0057 68.1549 61.0056 68.1547 60.9857 68.1647C60.9558 68.1846 60.9259 68.2146 60.896 68.2445C60.896 68.2445 60.7564 68.3744 60.5271 68.5838C60.4175 68.3146 60.1881 68.0949 59.889 67.9952C59.4105 67.8457 58.7026 67.6165 57.905 67.3473C61.8033 65.124 61.4742 59.3117 61.0555 52.2231C60.9159 49.8203 60.7564 47.0883 60.7365 44.237C60.6368 31.326 59.9389 17.1291 52.8303 12.0943C47.0877 8.02663 41.8137 11.1973 41.2155 11.8154C40.8366 12.2042 40.7967 12.7724 41.1157 13.1911C41.1756 13.2609 41.684 13.8888 42.5315 13.4301C42.6611 13.3604 42.7707 13.2609 42.8505 13.1512C43.7179 12.6328 47.4067 10.7785 51.634 13.7695C55.6817 16.6408 57.4265 23.4199 58.1643 31.6052C58.1643 31.6251 58.1643 31.6354 58.1643 31.6553C58.1643 31.755 57.9848 41.4657 56.1304 45.5733C54.595 48.963 46.2104 55.6329 42.5814 55.7924C40.9264 55.7226 38.0849 54.2767 35.1039 52.0035C32.1927 49.7802 29.7501 47.1983 29.0323 45.5733C28.444 44.2473 28.0054 41.5153 27.5368 38.624C27.3972 37.7267 27.2476 36.7995 27.0881 35.8823C26.6794 33.4995 26.4102 31.1067 26.4002 31.0868C26.4002 31.0568 26.3903 31.0174 26.3803 30.9874C27.6166 25.2548 29.1519 19.8008 30.8468 16.8597C32.2426 14.437 33.6782 13.1114 35.0042 13.0217C36.3003 12.932 37.2275 14.0783 37.2275 14.0883C37.5765 14.537 38.2146 14.6266 38.6632 14.2777C39.1118 13.9287 39.2016 13.2907 38.8526 12.8421C38.7928 12.7623 37.2773 10.8181 34.8746 10.9776C32.8009 11.1172 30.8468 12.7521 29.0522 15.8428C25.4033 22.1637 22.5817 38.7436 21.5947 47.0585C21.5249 44.6857 21.3754 42.1135 21.1361 39.3319C20.4083 30.6979 20.8371 23.4502 22.3924 17.7973C23.6386 13.281 25.6126 9.76114 28.2546 7.34843C33.3692 2.67256 39.4508 3.64966 39.5505 3.6696C40.1088 3.7693 40.6372 3.40083 40.7369 2.84251C40.8366 2.2842 40.4677 1.74563 39.9094 1.64593C39.6203 1.59608 32.8009 0.429764 26.8987 5.79356C20.3385 11.7555 17.7165 23.0911 19.0923 39.4915C20.9368 61.505 17.1681 69.7204 16.4005 71.1361C12.582 72.7513 8.44449 74.8246 6.24115 76.9282C-0.0199293 82.9101 7.976e-07 106.29 7.976e-07 107.277C7.976e-07 107.845 0.458644 108.304 1.02693 108.304C1.59521 108.304 2.05379 107.835 2.05379 107.277C2.02388 100.767 2.98099 82.8802 7.65686 78.4237C11.2161 75.024 20.8869 71.5047 24.2766 70.3383L28.8329 94.7844C28.8428 94.8542 28.8727 94.9242 28.8927 94.984C29.2217 98.623 29.6405 102.681 29.7501 103.797L29.0721 105.283C27.7063 105.014 27.5966 105.044 27.4172 105.103C26.8788 105.283 26.5896 105.861 26.7691 106.399C26.9087 106.808 27.2776 107.077 27.6864 107.097C28.3643 107.197 33.9175 108.413 37.3272 109.161C37.397 109.181 37.4767 109.181 37.5465 109.181C38.0151 109.181 38.4438 108.852 38.5435 108.373C38.6133 108.064 38.5336 107.765 38.3541 107.536L39.7698 103.488C40.9463 102.93 41.694 101.255 42.0429 98.4136C42.2722 96.5393 42.2623 94.7248 42.2523 94.2363L43.2593 89.4704C43.2693 89.4106 43.2792 89.3508 43.2792 89.281C43.3689 85.7916 42.4816 84.675 41.9333 84.316C41.4946 84.0269 40.9861 83.9474 40.4876 84.077C40.2185 84.1468 39.9692 84.2863 39.7499 84.4558C39.5904 84.1467 39.4009 83.8772 39.1916 83.6579C38.9922 83.4585 38.7928 83.329 38.6034 83.2392C38.3541 82.661 37.8955 81.7839 37.2375 81.2754C37.0281 81.1159 36.6592 80.9462 36.1009 81.0359C34.5656 81.2951 30.468 84.2362 29.4909 85.2132C29.4111 85.283 29.3115 85.3831 29.1918 85.5525L26.5797 71.5348C29.7501 74.0672 36.0112 78.2543 42.7408 78.2543H43.9771C50.7167 78.2543 56.9978 74.0472 60.1582 71.5149L55.0636 106.758C54.9838 107.317 55.3727 107.835 55.931 107.925C55.9808 107.925 56.0307 107.935 56.0805 107.935C56.579 107.935 57.0177 107.566 57.0975 107.057L62.4114 70.3086C65.7613 71.4551 75.5018 74.9841 79.0711 78.4037C83.7469 82.8603 84.704 100.747 84.6741 107.257C84.6741 107.825 85.1328 108.284 85.7011 108.284C86.2693 108.284 86.7279 107.825 86.7279 107.257C86.7279 106.26 86.7578 82.8902 80.4868 76.9083C77.6354 74.1865 71.5538 71.5247 67.1172 69.8198L67.187 69.8597ZM58.0347 46.4305C58.2939 45.8622 58.5132 45.2143 58.7126 44.5164C58.7425 47.3279 58.8921 49.9899 59.0316 52.3428C59.5401 61.1163 59.5899 65.3735 55.2231 66.1313C55.1035 66.1512 54.9938 66.2009 54.8841 66.2607C53.7575 65.832 52.7705 65.4034 52.2621 65.0744C51.6838 64.3466 51.295 59.5707 51.634 53.519C51.634 53.4691 51.634 53.4096 51.634 53.3598C54.6149 51.0169 57.1972 48.2752 58.0247 46.4408L58.0347 46.4305ZM21.515 57.0186C22.0135 60.558 23.4392 64.3863 27.5268 66.3703C27.6664 66.4401 27.8259 66.4701 27.9755 66.4701C28.3543 66.4701 28.7232 66.2606 28.9027 65.8917C29.1519 65.3833 28.9326 64.7653 28.4241 64.516C23.2697 62.0136 23.2896 55.6426 23.3096 51.8341V51.4753C23.3096 49.8503 24.0274 43.7886 25.2337 37.039C25.3434 37.687 25.4431 38.3253 25.5528 38.9633C26.0613 42.1238 26.5 44.8456 27.1978 46.4208C28.2447 48.7737 31.3453 51.6949 33.8976 53.6489C34.1967 53.8783 34.5855 54.1672 35.0341 54.4863C35.413 59.5011 35.2036 64.3164 34.5755 65.0642C33.2595 65.9216 28.6135 67.4668 26.9286 67.9952C26.6295 68.085 26.4002 68.3146 26.2906 68.5838C26.0612 68.3744 25.9316 68.2545 25.9217 68.2445C25.6525 67.9753 25.2537 67.8856 24.8948 67.9952C24.6655 68.065 22.2527 68.8427 19.172 70.0491C20.0195 67.7261 21.0863 63.6287 21.515 57.0186ZM39.5405 100.677C39.4707 100.208 39.3511 99.7094 39.2115 99.1711C39.0221 98.4732 38.7828 97.8055 38.5734 97.2472C38.5934 97.2472 38.6033 97.2472 38.6233 97.2472C38.6632 97.2472 38.703 97.2472 38.7429 97.2472C39.2913 97.1774 39.7897 96.8483 40.2284 96.4196C40.1985 96.9779 40.1487 97.6061 40.0789 98.2242C39.9393 99.3708 39.7399 100.158 39.5505 100.687L39.5405 100.677ZM40.9463 86.2302C41.1257 86.6689 41.2653 87.6561 41.2952 88.673C41.2254 88.4038 41.1556 88.1248 41.0659 87.8357C40.9562 87.4469 40.7469 87.1274 40.4677 86.8981C40.5974 86.6488 40.7868 86.38 40.9463 86.2205V86.2302ZM30.9066 86.8187C30.9963 86.7689 30.9964 86.7386 31.0562 86.6488C31.6643 86.0507 35.0541 83.6183 36.2704 83.1696C36.4 83.3391 36.5296 83.5685 36.6493 83.7879C31.7341 87.4967 31.6544 87.6458 31.5347 87.8552C31.2456 88.3437 31.4151 88.9719 31.9036 89.2611C32.0631 89.3508 32.2426 89.4008 32.422 89.4008C32.7112 89.4008 32.9903 89.2813 33.1798 89.062C33.5287 88.7529 35.7919 87.0179 37.9653 85.3729C38.0849 85.5922 38.2445 85.9809 38.3541 86.6688C36.42 87.2271 34.0072 89.1815 32.8806 90.1685C32.4519 90.5374 32.4121 91.1851 32.7809 91.6138C33.1498 92.0425 33.7979 92.0825 34.2266 91.7136C36.1109 90.0786 38.3342 88.6632 39.1417 88.5635C39.2614 89.0021 39.371 89.4206 39.4608 89.8194C38.5635 89.9191 37.0082 90.5871 34.2565 92.7705C33.8078 93.1194 33.7381 93.7677 34.087 94.2163C34.4359 94.665 35.084 94.7347 35.5326 94.3857C37.078 93.1594 38.8327 92.0627 39.5106 91.8932C39.8994 92.3419 39.8994 92.9798 39.8895 93.2291C39.4508 94.1563 38.7928 95.0837 38.4738 95.2133C38.4738 95.2133 38.4638 95.2133 38.4538 95.2133C38.5037 95.1435 38.5435 95.0735 38.5734 94.9937C38.7828 94.4653 38.5236 93.8671 37.9952 93.6677C37.716 93.558 37.407 93.578 37.1378 93.7076C36.7888 93.8771 36.4997 94.1364 36.0112 95.8413C35.9414 96.0806 35.9613 96.34 36.071 96.5593C37.2774 99.1116 38.0949 102.481 37.3372 103C36.8686 103.319 36.749 103.957 37.078 104.425C37.1378 104.515 37.2076 104.585 37.2873 104.645L36.4997 106.898C34.1667 106.379 32.4619 106.011 31.2057 105.742L31.8039 104.425C31.8837 104.256 31.9136 104.076 31.8936 103.897C31.8836 103.777 30.6275 91.5642 30.5577 89.1316C30.5178 87.6062 30.8269 86.988 30.9166 86.8285L30.9066 86.8187ZM42.8007 76.2506C36.6692 76.2506 30.7371 72.2129 27.806 69.87C29.142 69.4512 34.1368 67.826 35.742 66.7592C36.4897 66.2607 37.2475 65.0344 37.2674 59.7005C37.2674 58.2748 37.2176 56.8889 37.1677 55.8819C38.7828 56.8291 40.6472 57.6964 42.2523 57.856C42.3221 57.8759 42.4018 57.8759 42.4716 57.8759C42.4716 57.8759 42.4716 57.8759 42.4816 57.8759H42.7408C42.8206 57.8759 42.9103 57.8761 42.9801 57.8462C44.8046 57.6568 47.1874 56.4802 49.5203 54.9049C49.4805 56.0116 49.4506 57.6169 49.4705 59.2818C49.5702 64.9746 50.298 66.2408 51.0756 66.7592C52.6808 67.836 57.6757 69.4512 59.0117 69.87C56.0805 72.2129 50.1485 76.2506 44.017 76.2506H42.7807H42.8007Z" fill="#3E3A39"/>
<path d="M36.3069 31.9655C36.4664 32.1549 36.6958 32.2547 36.9351 32.2547C37.1245 32.2547 37.314 32.1847 37.4736 32.0551C37.8226 31.7559 37.8524 31.2373 37.5633 30.8983C36.5263 29.6918 35.3896 29.1035 34.193 29.1533C32.3185 29.2231 31.092 30.8786 31.0422 30.9484C30.773 31.3173 30.8527 31.8258 31.2217 32.095C31.5806 32.3642 32.0991 32.2845 32.3684 31.9256C32.3684 31.9256 32.6276 31.5762 33.0464 31.277C32.7971 31.5762 32.6375 31.9652 32.6375 32.3939C32.6375 33.3512 33.4153 34.1291 34.3725 34.1291C35.3297 34.1291 36.1075 33.3512 36.1075 32.3939C36.1075 32.0748 36.0178 31.7856 35.8782 31.5263C36.0178 31.6559 36.1673 31.8057 36.3069 31.9752V31.9655Z" fill="#3E3A39"/>
<path d="M52.7284 31.9655C52.8879 32.1549 53.1172 32.2547 53.3565 32.2547C53.546 32.2547 53.7354 32.1847 53.895 32.0551C54.244 31.7559 54.2739 31.2373 53.9847 30.8983C52.9477 29.6918 51.811 29.1035 50.6145 29.1533C48.7399 29.2231 47.5134 30.8786 47.4636 30.9484C47.1944 31.3173 47.2741 31.8258 47.6431 32.095C48.002 32.3642 48.5205 32.2845 48.7898 31.9256C48.7898 31.9256 49.0291 31.6064 49.4179 31.3072C49.1786 31.6064 49.039 31.9754 49.039 32.3842C49.039 33.3414 49.8168 34.1189 50.774 34.1189C51.7312 34.1189 52.509 33.3414 52.509 32.3842C52.509 32.0551 52.4192 31.7459 52.2497 31.4767C52.4092 31.6163 52.5688 31.776 52.7284 31.9655Z" fill="#3E3A39"/>
<path d="M56.9731 25.6137C56.9033 25.1651 56.4946 24.8558 56.0459 24.9156C51.7589 25.5338 47.3821 24.2679 47.3422 24.2579C46.9035 24.1283 46.4549 24.3771 46.3253 24.8158C46.1957 25.2545 46.4449 25.7032 46.8836 25.8328C47.0331 25.8826 49.9742 26.7304 53.5135 26.7304C54.4108 26.7304 55.348 26.6802 56.2852 26.5406C56.7338 26.4708 57.0429 26.0623 56.9831 25.6137H56.9731Z" fill="#3E3A39"/>
<path d="M38.8693 24.8353C38.7497 24.3967 38.291 24.1476 37.8623 24.2672C37.8125 24.2772 33.1765 25.5535 29.1487 24.9254C28.7 24.8556 28.2813 25.1646 28.2115 25.6133C28.1417 26.0619 28.4508 26.4806 28.8994 26.5504C29.7867 26.69 30.684 26.7397 31.5713 26.7397C35.0309 26.7397 38.1415 25.8924 38.301 25.8426C38.7397 25.7229 38.9889 25.264 38.8693 24.8353Z" fill="#3E3A39"/>
<path d="M40.2783 47.9864C40.2783 48.4351 40.6473 48.8039 41.096 48.8039H44.4363C44.885 48.8039 45.2539 48.4351 45.2539 47.9864C45.2539 47.5377 44.885 47.1689 44.4363 47.1689H41.096C40.6473 47.1689 40.2783 47.5377 40.2783 47.9864Z" fill="#3E3A39"/>
</svg>
