<svg width="371" height="80" viewBox="0 0 371 80" fill="none" xmlns="http://www.w3.org/2000/svg">
<path d="M303.347 13.3276C303.24 14.1596 303.101 15.0289 302.931 15.9356C302.771 16.8422 302.563 17.7222 302.307 18.5756C301.987 19.6742 301.629 20.5916 301.235 21.3276C300.851 22.0636 300.435 22.6182 299.987 22.9916C299.539 23.3649 299.069 23.5516 298.579 23.5516C298.109 23.5516 297.656 23.3809 297.219 23.0396C296.781 22.6982 296.424 22.2076 296.147 21.5676C295.869 20.9169 295.731 20.1542 295.731 19.2796C295.731 18.4049 295.907 17.5782 296.259 16.7996C296.621 16.0209 297.117 15.3329 297.747 14.7356C298.387 14.1276 299.133 13.6476 299.987 13.2956C300.84 12.9436 301.752 12.7676 302.723 12.7676C303.661 12.7676 304.504 12.9222 305.251 13.2316C306.008 13.5409 306.653 13.9676 307.187 14.5116C307.72 15.0449 308.131 15.6689 308.419 16.3836C308.707 17.0876 308.851 17.8449 308.851 18.6556C308.851 19.7756 308.611 20.7622 308.131 21.6156C307.661 22.4689 306.979 23.1622 306.083 23.6956C305.197 24.2289 304.12 24.5809 302.851 24.7516L302.099 23.5676C302.355 23.5356 302.6 23.5036 302.835 23.4716C303.069 23.4396 303.283 23.4022 303.475 23.3596C303.987 23.2422 304.483 23.0609 304.963 22.8156C305.453 22.5596 305.891 22.2396 306.275 21.8556C306.659 21.4609 306.963 20.9969 307.187 20.4636C307.421 19.9196 307.539 19.3009 307.539 18.6076C307.539 17.9569 307.432 17.3542 307.219 16.7996C307.005 16.2342 306.691 15.7382 306.275 15.3116C305.859 14.8849 305.352 14.5489 304.755 14.3036C304.157 14.0582 303.475 13.9356 302.707 13.9356C301.832 13.9356 301.037 14.0956 300.323 14.4156C299.619 14.7356 299.016 15.1569 298.515 15.6796C298.024 16.1916 297.645 16.7569 297.379 17.3756C297.112 17.9836 296.979 18.5809 296.979 19.1676C296.979 19.8396 297.064 20.3942 297.235 20.8316C297.416 21.2582 297.629 21.5729 297.875 21.7756C298.131 21.9782 298.381 22.0796 298.627 22.0796C298.883 22.0796 299.144 21.9569 299.411 21.7116C299.677 21.4556 299.949 21.0502 300.227 20.4956C300.504 19.9302 300.776 19.1996 301.043 18.3036C301.277 17.5356 301.475 16.7196 301.635 15.8556C301.805 14.9916 301.928 14.1436 302.003 13.3116L303.347 13.3276Z" fill="black"/>
<path d="M287.779 18.5444H288.979V23.5684C288.979 23.8031 289.021 23.9577 289.107 24.0324C289.203 24.0964 289.4 24.1284 289.699 24.1284C289.773 24.1284 289.901 24.1284 290.083 24.1284C290.264 24.1284 290.461 24.1284 290.675 24.1284C290.899 24.1284 291.107 24.1284 291.299 24.1284C291.501 24.1284 291.645 24.1284 291.731 24.1284C291.933 24.1284 292.083 24.0751 292.179 23.9684C292.285 23.8511 292.355 23.6217 292.387 23.2804C292.429 22.9391 292.461 22.4217 292.483 21.7284C292.568 21.7924 292.675 21.8617 292.803 21.9364C292.941 22.0004 293.08 22.0591 293.219 22.1124C293.357 22.1551 293.48 22.1924 293.587 22.2244C293.544 23.0351 293.464 23.6644 293.347 24.1124C293.24 24.5497 293.064 24.8537 292.819 25.0244C292.584 25.1951 292.253 25.2804 291.827 25.2804C291.752 25.2804 291.608 25.2804 291.395 25.2804C291.181 25.2804 290.947 25.2804 290.691 25.2804C290.435 25.2804 290.2 25.2804 289.987 25.2804C289.784 25.2804 289.645 25.2804 289.571 25.2804C289.091 25.2804 288.723 25.2271 288.467 25.1204C288.211 25.0244 288.029 24.8484 287.923 24.5924C287.827 24.3471 287.779 24.0057 287.779 23.5684V18.5444ZM279.299 17.6964H293.363V18.8644H279.299V17.6964ZM281.939 13.3124H292.211V14.4644H281.939V13.3124ZM283.507 18.5924H284.755C284.68 19.4031 284.552 20.1657 284.371 20.8804C284.2 21.5951 283.939 22.2511 283.587 22.8484C283.235 23.4351 282.755 23.9631 282.147 24.4324C281.549 24.9017 280.781 25.2964 279.843 25.6164C279.8 25.5097 279.731 25.3924 279.635 25.2644C279.549 25.1471 279.459 25.0244 279.363 24.8964C279.267 24.7791 279.171 24.6831 279.075 24.6084C279.949 24.3311 280.664 23.9951 281.219 23.6004C281.773 23.2057 282.205 22.7524 282.515 22.2404C282.824 21.7177 283.048 21.1524 283.187 20.5444C283.336 19.9364 283.443 19.2857 283.507 18.5924ZM282.259 11.1844L283.475 11.4404C283.304 12.0484 283.096 12.6831 282.851 13.3444C282.616 14.0057 282.339 14.6511 282.019 15.2804C281.709 15.8991 281.368 16.4431 280.995 16.9124C280.909 16.8484 280.803 16.7844 280.675 16.7204C280.547 16.6457 280.419 16.5764 280.291 16.5124C280.173 16.4377 280.061 16.3844 279.955 16.3524C280.328 15.8937 280.659 15.3711 280.947 14.7844C281.245 14.1871 281.507 13.5791 281.731 12.9604C281.955 12.3311 282.131 11.7391 282.259 11.1844ZM285.715 10.8164H286.931V18.0804H285.715V10.8164Z" fill="black"/>
<path d="M267.459 11.5365H277.395V12.4485H267.459V11.5365ZM269.219 14.6725H275.587V15.2965H269.219V14.6725ZM269.219 15.9845H275.587V16.6245H269.219V15.9845ZM268.595 13.2805H276.179V17.7285H275.043V13.9845H269.683V17.7285H268.595V13.2805ZM267.011 17.3285H277.683V19.4885H276.579V18.0965H268.051V19.4885H267.011V17.3285ZM269.075 18.5765L269.875 19.0245C269.661 19.3232 269.405 19.6432 269.107 19.9845C268.819 20.3152 268.488 20.5978 268.115 20.8325L267.379 20.2085C267.72 20.0165 268.04 19.7712 268.339 19.4725C268.637 19.1632 268.883 18.8645 269.075 18.5765ZM270.019 18.5285H271.027V19.5365C271.027 19.6858 271.064 19.7818 271.139 19.8245C271.213 19.8672 271.389 19.8885 271.667 19.8885C271.731 19.8885 271.848 19.8885 272.019 19.8885C272.2 19.8885 272.397 19.8885 272.611 19.8885C272.824 19.8885 273.027 19.8885 273.219 19.8885C273.411 19.8885 273.549 19.8885 273.635 19.8885C273.827 19.8885 273.955 19.8512 274.019 19.7765C274.083 19.6912 274.125 19.4938 274.147 19.1845C274.243 19.2378 274.371 19.2912 274.531 19.3445C274.701 19.3872 274.845 19.4245 274.963 19.4565C274.92 19.9152 274.813 20.2245 274.643 20.3845C274.483 20.5445 274.195 20.6245 273.779 20.6245C273.715 20.6245 273.576 20.6245 273.363 20.6245C273.16 20.6245 272.931 20.6245 272.675 20.6245C272.419 20.6245 272.184 20.6245 271.971 20.6245C271.768 20.6245 271.629 20.6245 271.555 20.6245C271.149 20.6245 270.835 20.5978 270.611 20.5445C270.397 20.4805 270.243 20.3738 270.147 20.2245C270.061 20.0645 270.019 19.8352 270.019 19.5365V18.5285ZM271.187 18.1925L271.875 17.7125C272.184 17.8725 272.499 18.0698 272.819 18.3045C273.139 18.5285 273.384 18.7418 273.555 18.9445L272.835 19.4725C272.675 19.2698 272.435 19.0458 272.115 18.8005C271.795 18.5552 271.485 18.3525 271.187 18.1925ZM274.691 18.9605L275.459 18.5125C275.811 18.7792 276.163 19.0885 276.515 19.4405C276.867 19.7818 277.133 20.0912 277.315 20.3685L276.515 20.8485C276.344 20.5712 276.083 20.2565 275.731 19.9045C275.389 19.5418 275.043 19.2272 274.691 18.9605ZM270.851 20.2885L271.987 20.5285C271.464 21.0832 270.829 21.6112 270.083 22.1125C269.347 22.6138 268.477 23.0672 267.475 23.4725C267.4 23.3445 267.293 23.2058 267.155 23.0565C267.016 22.9072 266.888 22.7952 266.771 22.7205C267.709 22.3898 268.525 22.0112 269.219 21.5845C269.923 21.1472 270.467 20.7152 270.851 20.2885ZM274.995 21.3125H275.235L275.443 21.2645L276.211 21.6805C275.528 22.6725 274.429 23.4938 272.915 24.1445C271.4 24.7952 269.523 25.2698 267.283 25.5685C267.229 25.4405 267.144 25.2858 267.027 25.1045C266.909 24.9338 266.797 24.7898 266.691 24.6725C268.824 24.4272 270.605 24.0272 272.035 23.4725C273.475 22.9178 274.461 22.2618 274.995 21.5045V21.3125ZM269.955 21.7445C270.435 22.2885 271.075 22.7578 271.875 23.1525C272.685 23.5472 273.603 23.8618 274.627 24.0965C275.651 24.3312 276.733 24.4965 277.875 24.5925C277.757 24.7205 277.629 24.8805 277.491 25.0725C277.363 25.2645 277.261 25.4405 277.187 25.6005C276.024 25.4618 274.915 25.2432 273.859 24.9445C272.813 24.6565 271.875 24.2778 271.043 23.8085C270.211 23.3392 269.517 22.7738 268.963 22.1125L269.955 21.7445ZM270.243 21.3125H275.331V22.0805H269.459L270.243 21.3125ZM271.667 11.9525L272.995 12.0965C272.877 12.4058 272.76 12.7045 272.643 12.9925C272.536 13.2805 272.435 13.5365 272.339 13.7605L271.299 13.5845C271.373 13.3285 271.443 13.0512 271.507 12.7525C271.581 12.4538 271.635 12.1872 271.667 11.9525ZM266.051 10.8965L267.155 11.2005C266.856 12.1285 266.499 13.0458 266.083 13.9525C265.677 14.8592 265.235 15.7178 264.755 16.5285C264.275 17.3285 263.768 18.0378 263.235 18.6565C263.203 18.5605 263.149 18.4378 263.075 18.2885C263 18.1285 262.92 17.9738 262.835 17.8245C262.749 17.6645 262.675 17.5365 262.611 17.4405C263.08 16.8965 263.528 16.2778 263.955 15.5845C264.381 14.8805 264.771 14.1285 265.123 13.3285C265.485 12.5285 265.795 11.7178 266.051 10.8965ZM264.755 14.8165L265.875 13.7125L265.907 13.7445V25.5365H264.755V14.8165Z" fill="black"/>
<path d="M249.875 14.5764H252.883V15.5844H249.875V14.5764ZM250.931 18.0644H253.571V19.0244H250.931V18.0644ZM254.611 17.8884H261.523V18.9284H254.611V17.8884ZM254.947 21.5844H261.187V22.6084H254.947V21.5844ZM257.411 15.2164H258.531V22.1444H257.411V15.2164ZM252.563 14.5764H252.723L252.915 14.5124L253.683 14.8004C253.437 15.2484 253.155 15.7444 252.835 16.2884C252.515 16.8324 252.184 17.3817 251.843 17.9364C251.512 18.4911 251.187 19.0137 250.867 19.5044L249.907 19.2004C250.227 18.7097 250.552 18.1871 250.883 17.6324C251.224 17.0671 251.539 16.5284 251.827 16.0164C252.125 15.4937 252.371 15.0617 252.563 14.7204V14.5764ZM260.131 14.1604L260.979 14.9764C260.477 15.1684 259.891 15.3444 259.219 15.5044C258.557 15.6644 257.869 15.7977 257.155 15.9044C256.44 16.0111 255.747 16.0964 255.075 16.1604C255.053 16.0431 255.011 15.8991 254.947 15.7284C254.893 15.5577 254.835 15.4137 254.771 15.2964C255.411 15.2111 256.067 15.1151 256.739 15.0084C257.411 14.9017 258.045 14.7791 258.643 14.6404C259.24 14.4911 259.736 14.3311 260.131 14.1604ZM250.851 19.9844C251.107 20.8697 251.432 21.5951 251.827 22.1604C252.232 22.7151 252.707 23.1471 253.251 23.4564C253.805 23.7551 254.424 23.9631 255.107 24.0804C255.8 24.1871 256.557 24.2404 257.379 24.2404C257.496 24.2404 257.699 24.2404 257.987 24.2404C258.275 24.2404 258.605 24.2404 258.979 24.2404C259.352 24.2404 259.731 24.2404 260.115 24.2404C260.499 24.2297 260.845 24.2244 261.155 24.2244C261.464 24.2244 261.693 24.2244 261.843 24.2244C261.779 24.3097 261.72 24.4164 261.667 24.5444C261.613 24.6724 261.565 24.8057 261.523 24.9444C261.48 25.0831 261.443 25.2057 261.411 25.3124H260.579H257.347C256.387 25.3124 255.517 25.2431 254.739 25.1044C253.96 24.9657 253.267 24.7151 252.659 24.3524C252.061 24.0004 251.539 23.4991 251.091 22.8484C250.643 22.1871 250.264 21.3391 249.955 20.3044L250.851 19.9844ZM253.171 18.0644H253.395L253.603 18.0324L254.259 18.2404C254.067 19.5524 253.768 20.6884 253.363 21.6484C252.957 22.5977 252.461 23.3977 251.875 24.0484C251.299 24.6991 250.643 25.2164 249.907 25.6004C249.853 25.5151 249.779 25.4191 249.683 25.3124C249.587 25.2057 249.491 25.0991 249.395 24.9924C249.299 24.8964 249.208 24.8217 249.123 24.7684C250.179 24.2457 251.053 23.4617 251.747 22.4164C252.451 21.3604 252.925 19.9791 253.171 18.2724V18.0644ZM254.179 10.8164H255.411V12.8644H254.179V10.8164ZM248.707 12.2884H261.507V13.3764H248.707V12.2884ZM248.131 12.2884H249.283V17.0404C249.283 17.6591 249.267 18.3364 249.235 19.0724C249.203 19.7977 249.133 20.5497 249.027 21.3284C248.931 22.0964 248.787 22.8484 248.595 23.5844C248.413 24.3097 248.163 24.9764 247.843 25.5844C247.768 25.5204 247.667 25.4404 247.539 25.3444C247.421 25.2591 247.299 25.1737 247.171 25.0884C247.043 25.0137 246.931 24.9604 246.835 24.9284C247.133 24.3524 247.368 23.7284 247.539 23.0564C247.709 22.3844 247.837 21.6964 247.923 20.9924C248.008 20.2884 248.061 19.6004 248.083 18.9284C248.115 18.2457 248.131 17.6164 248.131 17.0404V12.2884Z" fill="black"/>
<path d="M237.699 10.8164H238.915V12.9444H237.699V10.8164ZM231.715 12.2404H245.027V15.4244H243.811V13.3444H232.899V15.4244H231.715V12.2404ZM233.763 14.9604H242.787V16.0164H233.763V14.9604ZM235.875 17.3444L236.771 16.7844C237.475 17.3071 238.045 17.8937 238.483 18.5444C238.931 19.1844 239.256 19.8351 239.459 20.4964C239.672 21.1577 239.779 21.7924 239.779 22.4004C239.779 22.9977 239.688 23.5311 239.507 24.0004C239.325 24.4591 239.075 24.8057 238.755 25.0404C238.488 25.2431 238.227 25.3817 237.971 25.4564C237.715 25.5311 237.4 25.5684 237.027 25.5684C236.835 25.5791 236.616 25.5791 236.371 25.5684C236.136 25.5577 235.891 25.5471 235.635 25.5364C235.624 25.3657 235.592 25.1737 235.539 24.9604C235.485 24.7471 235.405 24.5551 235.299 24.3844C235.597 24.4057 235.875 24.4217 236.131 24.4324C236.397 24.4537 236.621 24.4644 236.803 24.4644C237.016 24.4644 237.208 24.4431 237.379 24.4004C237.56 24.3684 237.731 24.2831 237.891 24.1444C238.125 23.9844 238.301 23.7231 238.419 23.3604C238.536 22.9977 238.584 22.5764 238.563 22.0964C238.552 21.6057 238.451 21.0831 238.259 20.5284C238.067 19.9737 237.773 19.4244 237.379 18.8804C236.995 18.3364 236.493 17.8244 235.875 17.3444ZM238.259 15.2004L239.267 15.6164C238.712 16.1497 238.045 16.6404 237.267 17.0884C236.499 17.5364 235.677 17.9364 234.803 18.2884C233.939 18.6404 233.091 18.9391 232.259 19.1844C232.216 19.1097 232.157 19.0137 232.083 18.8964C232.008 18.7684 231.928 18.6457 231.843 18.5284C231.757 18.4004 231.683 18.2991 231.619 18.2244C232.44 18.0217 233.267 17.7764 234.099 17.4884C234.941 17.1897 235.725 16.8484 236.451 16.4644C237.176 16.0697 237.779 15.6484 238.259 15.2004ZM237.139 18.2404L237.939 18.8004C237.501 19.1631 236.963 19.5364 236.323 19.9204C235.683 20.2937 235.016 20.6457 234.323 20.9764C233.629 21.2964 232.973 21.5684 232.355 21.7924C232.291 21.6537 232.2 21.4937 232.083 21.3124C231.965 21.1311 231.848 20.9764 231.731 20.8484C232.179 20.7204 232.653 20.5657 233.155 20.3844C233.667 20.1924 234.168 19.9791 234.659 19.7444C235.149 19.4991 235.608 19.2484 236.035 18.9924C236.472 18.7364 236.84 18.4857 237.139 18.2404ZM238.323 19.8884L239.155 20.5124C238.739 20.9284 238.243 21.3444 237.667 21.7604C237.091 22.1764 236.472 22.5764 235.811 22.9604C235.149 23.3444 234.472 23.6911 233.779 24.0004C233.096 24.3097 232.435 24.5711 231.795 24.7844C231.72 24.6457 231.624 24.4751 231.507 24.2724C231.4 24.0804 231.283 23.9204 231.155 23.7924C231.795 23.6217 232.451 23.3977 233.123 23.1204C233.805 22.8324 234.472 22.5177 235.123 22.1764C235.773 21.8244 236.371 21.4564 236.915 21.0724C237.469 20.6777 237.939 20.2831 238.323 19.8884ZM239.795 15.3604C240.083 16.5551 240.488 17.6751 241.011 18.7204C241.544 19.7657 242.195 20.6777 242.963 21.4564C243.731 22.2351 244.621 22.8324 245.635 23.2484C245.549 23.3231 245.453 23.4244 245.347 23.5524C245.24 23.6697 245.139 23.7924 245.043 23.9204C244.947 24.0484 244.867 24.1657 244.803 24.2724C243.757 23.7924 242.84 23.1257 242.051 22.2724C241.272 21.4191 240.616 20.4271 240.083 19.2964C239.549 18.1551 239.117 16.9177 238.787 15.5844L239.795 15.3604ZM243.891 16.5444L244.819 17.3444C244.456 17.6324 244.056 17.9311 243.619 18.2404C243.192 18.5497 242.76 18.8431 242.323 19.1204C241.885 19.3871 241.48 19.6217 241.107 19.8244L240.339 19.0884C240.712 18.8751 241.112 18.6244 241.539 18.3364C241.976 18.0484 242.403 17.7444 242.819 17.4244C243.235 17.1044 243.592 16.8111 243.891 16.5444Z" fill="black"/>
<path d="M218.131 12.4634C218.312 12.4847 218.504 12.5007 218.707 12.5114C218.92 12.5221 219.107 12.5274 219.267 12.5274C219.427 12.5274 219.688 12.5221 220.051 12.5114C220.424 12.5007 220.84 12.4901 221.299 12.4794C221.768 12.4581 222.232 12.4421 222.691 12.4314C223.16 12.4101 223.576 12.3887 223.939 12.3674C224.312 12.3461 224.584 12.3301 224.755 12.3194C224.989 12.2981 225.171 12.2767 225.299 12.2554C225.427 12.2341 225.533 12.2127 225.619 12.1914L226.355 13.1194C226.216 13.2154 226.067 13.3167 225.907 13.4234C225.757 13.5301 225.608 13.6474 225.459 13.7754C225.256 13.9247 224.984 14.1434 224.643 14.4314C224.301 14.7087 223.923 15.0234 223.507 15.3754C223.101 15.7167 222.701 16.0527 222.307 16.3834C221.912 16.7141 221.555 17.0127 221.235 17.2794C221.608 17.1514 221.981 17.0661 222.355 17.0234C222.739 16.9701 223.107 16.9434 223.459 16.9434C224.344 16.9434 225.128 17.1087 225.811 17.4394C226.504 17.7594 227.043 18.2021 227.427 18.7674C227.821 19.3327 228.019 19.9781 228.019 20.7034C228.019 21.5567 227.795 22.3034 227.347 22.9434C226.899 23.5834 226.264 24.0741 225.443 24.4154C224.621 24.7674 223.645 24.9434 222.515 24.9434C221.789 24.9434 221.165 24.8474 220.643 24.6554C220.12 24.4634 219.715 24.1967 219.427 23.8554C219.149 23.5141 219.011 23.1194 219.011 22.6714C219.011 22.3087 219.112 21.9674 219.315 21.6474C219.517 21.3274 219.805 21.0714 220.179 20.8794C220.552 20.6874 220.984 20.5914 221.475 20.5914C222.189 20.5914 222.781 20.7407 223.251 21.0394C223.72 21.3274 224.083 21.7114 224.339 22.1914C224.595 22.6607 224.739 23.1674 224.771 23.7114L223.619 23.9034C223.576 23.2207 223.363 22.6607 222.979 22.2234C222.605 21.7754 222.099 21.5514 221.459 21.5514C221.096 21.5514 220.792 21.6527 220.547 21.8554C220.301 22.0581 220.179 22.2981 220.179 22.5754C220.179 22.9594 220.376 23.2634 220.771 23.4874C221.165 23.7114 221.677 23.8234 222.307 23.8234C223.213 23.8234 223.997 23.7007 224.659 23.4554C225.331 23.2101 225.843 22.8527 226.195 22.3834C226.557 21.9141 226.739 21.3487 226.739 20.6874C226.739 20.1647 226.584 19.6954 226.275 19.2794C225.965 18.8634 225.539 18.5381 224.995 18.3034C224.461 18.0581 223.848 17.9354 223.155 17.9354C222.483 17.9354 221.88 18.0101 221.347 18.1594C220.813 18.2981 220.312 18.5007 219.843 18.7674C219.384 19.0341 218.925 19.3701 218.467 19.7754C218.019 20.1701 217.539 20.6234 217.027 21.1354L216.115 20.1914C216.445 19.9247 216.808 19.6261 217.203 19.2954C217.608 18.9541 218.013 18.6181 218.419 18.2874C218.824 17.9461 219.197 17.6314 219.539 17.3434C219.891 17.0447 220.184 16.7994 220.419 16.6074C220.643 16.4261 220.92 16.1967 221.251 15.9194C221.592 15.6314 221.944 15.3327 222.307 15.0234C222.669 14.7141 223.011 14.4207 223.331 14.1434C223.661 13.8661 223.928 13.6421 224.131 13.4714C223.96 13.4714 223.709 13.4821 223.379 13.5034C223.048 13.5141 222.68 13.5301 222.275 13.5514C221.869 13.5621 221.464 13.5781 221.059 13.5994C220.664 13.6207 220.301 13.6421 219.971 13.6634C219.651 13.6741 219.405 13.6847 219.235 13.6954C219.064 13.7061 218.888 13.7167 218.707 13.7274C218.525 13.7381 218.349 13.7594 218.179 13.7914L218.131 12.4634Z" fill="black"/>
<path d="M202.467 17.1356V22.7996H201.315V18.2556H198.995V17.1356H202.467ZM202.467 22.3036C202.851 22.9009 203.384 23.3436 204.067 23.6316C204.749 23.9089 205.56 24.0689 206.499 24.1116C206.947 24.1223 207.485 24.1329 208.115 24.1436C208.755 24.1436 209.427 24.1436 210.131 24.1436C210.835 24.1329 211.512 24.1169 212.163 24.0956C212.824 24.0743 213.4 24.0476 213.891 24.0156C213.848 24.1009 213.8 24.2129 213.747 24.3516C213.693 24.4903 213.64 24.6343 213.587 24.7836C213.544 24.9329 213.512 25.0716 213.491 25.1996C213.043 25.2103 212.515 25.2209 211.907 25.2316C211.309 25.2529 210.675 25.2636 210.003 25.2636C209.341 25.2743 208.701 25.2743 208.083 25.2636C207.475 25.2529 206.947 25.2423 206.499 25.2316C205.464 25.1889 204.573 25.0183 203.827 24.7196C203.08 24.4209 202.456 23.9516 201.955 23.3116C201.549 23.6636 201.133 24.0103 200.707 24.3516C200.28 24.7036 199.837 25.0556 199.379 25.4076L198.787 24.2236C199.181 23.9676 199.613 23.6743 200.083 23.3436C200.552 23.0023 201 22.6556 201.427 22.3036H202.467ZM199.251 11.9196L200.099 11.1836C200.44 11.4183 200.787 11.6903 201.139 11.9996C201.501 12.2983 201.832 12.6023 202.131 12.9116C202.429 13.2103 202.664 13.4983 202.835 13.7756L201.923 14.6076C201.763 14.3303 201.533 14.0369 201.235 13.7276C200.947 13.4076 200.632 13.0929 200.291 12.7836C199.949 12.4636 199.603 12.1756 199.251 11.9196ZM205.667 13.5036L206.419 12.8156C206.931 12.9969 207.469 13.2103 208.035 13.4556C208.611 13.6903 209.16 13.9303 209.683 14.1756C210.216 14.4209 210.659 14.6503 211.011 14.8636L210.211 15.6316C209.88 15.4183 209.453 15.1836 208.931 14.9276C208.419 14.6716 207.875 14.4209 207.299 14.1756C206.723 13.9196 206.179 13.6956 205.667 13.5036ZM204.131 14.8316H212.403V15.7596H205.267V23.1196H204.131V14.8316ZM211.843 14.8316H212.995V21.9196C212.995 22.2183 212.957 22.4476 212.883 22.6076C212.808 22.7569 212.664 22.8796 212.451 22.9756C212.237 23.0609 211.955 23.1143 211.603 23.1356C211.261 23.1463 210.819 23.1516 210.275 23.1516C210.253 23.0023 210.211 22.8369 210.147 22.6556C210.083 22.4636 210.013 22.3036 209.939 22.1756C210.323 22.1863 210.664 22.1916 210.963 22.1916C211.272 22.1916 211.475 22.1916 211.571 22.1916C211.677 22.1809 211.747 22.1543 211.779 22.1116C211.821 22.0689 211.843 22.0049 211.843 21.9196V14.8316ZM204.147 11.4716H212.131V12.4316H204.147V11.4716ZM204.755 17.1676H212.291V18.0636H204.755V17.1676ZM204.755 19.5196H212.291V20.4636H204.755V19.5196ZM207.971 15.2156H209.059V23.0556H207.971V15.2156ZM211.731 11.4716H212.003L212.243 11.4076L212.995 11.9996C212.632 12.3303 212.221 12.6609 211.763 12.9916C211.304 13.3116 210.824 13.6103 210.323 13.8876C209.821 14.1649 209.325 14.4049 208.835 14.6076C208.76 14.5009 208.659 14.3783 208.531 14.2396C208.403 14.1009 208.291 13.9889 208.195 13.9036C208.643 13.7223 209.091 13.5089 209.539 13.2636C209.987 13.0183 210.403 12.7623 210.787 12.4956C211.171 12.2183 211.485 11.9516 211.731 11.6956V11.4716Z" fill="black"/>
<path d="M186.243 19.5041C185.699 19.5041 185.224 19.3601 184.819 19.0721C184.424 18.7734 184.115 18.3467 183.891 17.7921C183.677 17.2374 183.571 16.5654 183.571 15.7761C183.571 14.9867 183.677 14.3201 183.891 13.7761C184.115 13.2214 184.424 12.8001 184.819 12.5121C185.224 12.2241 185.699 12.0801 186.243 12.0801C187.043 12.0801 187.688 12.4001 188.179 13.0401C188.669 13.6801 188.915 14.5921 188.915 15.7761C188.915 16.5654 188.803 17.2374 188.579 17.7921C188.355 18.3467 188.04 18.7734 187.635 19.0721C187.24 19.3601 186.776 19.5041 186.243 19.5041ZM186.243 18.5921C186.712 18.5921 187.085 18.3574 187.363 17.8881C187.651 17.4081 187.795 16.7041 187.795 15.7761C187.795 14.8267 187.651 14.1281 187.363 13.6801C187.085 13.2214 186.712 12.9921 186.243 12.9921C185.773 12.9921 185.395 13.2214 185.107 13.6801C184.819 14.1281 184.675 14.8267 184.675 15.7761C184.675 16.7041 184.819 17.4081 185.107 17.8881C185.395 18.3574 185.773 18.5921 186.243 18.5921ZM194.419 24.2721C193.896 24.2721 193.432 24.1281 193.027 23.8401C192.621 23.5414 192.307 23.1147 192.083 22.5601C191.869 22.0054 191.763 21.3334 191.763 20.5441C191.763 19.7547 191.869 19.0881 192.083 18.5441C192.307 18.0001 192.621 17.5841 193.027 17.2961C193.432 16.9974 193.896 16.8481 194.419 16.8481C194.963 16.8481 195.432 16.9974 195.827 17.2961C196.232 17.5841 196.541 18.0001 196.755 18.5441C196.979 19.0881 197.091 19.7547 197.091 20.5441C197.091 21.3334 196.979 22.0054 196.755 22.5601C196.541 23.1147 196.232 23.5414 195.827 23.8401C195.432 24.1281 194.963 24.2721 194.419 24.2721ZM194.419 23.3601C194.899 23.3601 195.277 23.1254 195.555 22.6561C195.843 22.1867 195.987 21.4827 195.987 20.5441C195.987 19.6054 195.843 18.9067 195.555 18.4481C195.277 17.9894 194.899 17.7601 194.419 17.7601C193.96 17.7601 193.587 17.9894 193.299 18.4481C193.011 18.9067 192.867 19.6054 192.867 20.5441C192.867 21.4827 193.011 22.1867 193.299 22.6561C193.587 23.1254 193.96 23.3601 194.419 23.3601ZM186.579 24.2721L193.075 12.0801H194.051L187.555 24.2721H186.579Z" fill="black"/>
<path d="M177.323 24.4155C176.467 24.4155 175.737 24.1825 175.135 23.7166C174.533 23.2469 174.073 22.567 173.755 21.6768C173.436 20.7829 173.277 19.7034 173.277 18.4382C173.277 17.1806 173.436 16.1068 173.755 15.2166C174.076 14.3227 174.539 13.6409 175.141 13.1712C175.747 12.6977 176.474 12.4609 177.323 12.4609C178.171 12.4609 178.897 12.6977 179.499 13.1712C180.105 13.6409 180.567 14.3227 180.885 15.2166C181.207 16.1068 181.368 17.1806 181.368 18.4382C181.368 19.7034 181.209 20.7829 180.891 21.6768C180.573 22.567 180.112 23.2469 179.51 23.7166C178.908 24.1825 178.179 24.4155 177.323 24.4155ZM177.323 23.1655C178.171 23.1655 178.83 22.7564 179.3 21.9382C179.77 21.12 180.005 19.9534 180.005 18.4382C180.005 17.4306 179.897 16.5727 179.681 15.8643C179.469 15.156 179.162 14.6162 178.76 14.245C178.362 13.8738 177.883 13.6882 177.323 13.6882C176.482 13.6882 175.825 14.103 175.351 14.9325C174.878 15.7583 174.641 16.9268 174.641 18.4382C174.641 19.4458 174.747 20.3018 174.959 21.0064C175.171 21.7109 175.476 22.2469 175.874 22.6143C176.275 22.9818 176.758 23.1655 177.323 23.1655Z" fill="black"/>
<path d="M167.323 24.4155C166.467 24.4155 165.737 24.1825 165.135 23.7166C164.533 23.2469 164.073 22.567 163.754 21.6768C163.436 20.7829 163.277 19.7034 163.277 18.4382C163.277 17.1806 163.436 16.1068 163.754 15.2166C164.076 14.3227 164.539 13.6409 165.141 13.1712C165.747 12.6977 166.474 12.4609 167.323 12.4609C168.171 12.4609 168.897 12.6977 169.499 13.1712C170.105 13.6409 170.567 14.3227 170.885 15.2166C171.207 16.1068 171.368 17.1806 171.368 18.4382C171.368 19.7034 171.209 20.7829 170.891 21.6768C170.573 22.567 170.112 23.2469 169.51 23.7166C168.908 24.1825 168.179 24.4155 167.323 24.4155ZM167.323 23.1655C168.171 23.1655 168.83 22.7564 169.3 21.9382C169.77 21.12 170.004 19.9534 170.004 18.4382C170.004 17.4306 169.897 16.5727 169.681 15.8643C169.469 15.156 169.162 14.6162 168.76 14.245C168.362 13.8738 167.883 13.6882 167.323 13.6882C166.482 13.6882 165.825 14.103 165.351 14.9325C164.878 15.7583 164.641 16.9268 164.641 18.4382C164.641 19.4458 164.747 20.3018 164.959 21.0064C165.171 21.7109 165.476 22.2469 165.874 22.6143C166.275 22.9818 166.758 23.1655 167.323 23.1655Z" fill="black"/>
<path d="M160.181 12.6191V24.2555H158.772V14.0964H158.703L155.862 15.9828V14.551L158.772 12.6191H160.181Z" fill="black"/>
<path d="M150.021 13.6C150.021 13.984 150.021 14.4 150.021 14.848C150.021 15.296 150.021 15.7333 150.021 16.16C150.021 16.576 150.021 16.9546 150.021 17.296C150.021 17.7973 150.032 18.3093 150.053 18.832C150.074 19.344 150.096 19.8453 150.117 20.336C150.149 20.8266 150.176 21.2853 150.197 21.712C150.218 22.128 150.229 22.496 150.229 22.816C150.229 23.4666 150.005 23.9733 149.557 24.336C149.109 24.6986 148.458 24.88 147.605 24.88C147.018 24.88 146.49 24.7946 146.021 24.624C145.562 24.464 145.194 24.2186 144.917 23.888C144.65 23.5573 144.517 23.1413 144.517 22.64C144.517 22.256 144.624 21.8986 144.837 21.568C145.061 21.2373 145.397 20.9706 145.845 20.768C146.293 20.5546 146.869 20.448 147.573 20.448C148.288 20.448 148.944 20.5226 149.541 20.672C150.149 20.8213 150.698 21.024 151.189 21.28C151.68 21.5253 152.122 21.792 152.517 22.08C152.912 22.368 153.258 22.6453 153.557 22.912L152.885 24.032C152.373 23.5093 151.824 23.0506 151.237 22.656C150.661 22.2613 150.058 21.9573 149.429 21.744C148.81 21.52 148.181 21.408 147.541 21.408C146.976 21.408 146.517 21.52 146.165 21.744C145.824 21.9573 145.653 22.2346 145.653 22.576C145.653 22.9706 145.818 23.2693 146.149 23.472C146.49 23.6746 146.938 23.776 147.493 23.776C147.909 23.776 148.229 23.712 148.453 23.584C148.677 23.4453 148.832 23.264 148.917 23.04C149.013 22.816 149.061 22.5653 149.061 22.288C149.061 22.0533 149.05 21.744 149.029 21.36C149.008 20.976 148.981 20.5546 148.949 20.096C148.928 19.6373 148.906 19.1733 148.885 18.704C148.874 18.224 148.869 17.776 148.869 17.36C148.869 16.976 148.869 16.5493 148.869 16.08C148.869 15.6 148.869 15.1413 148.869 14.704C148.869 14.256 148.869 13.888 148.869 13.6H150.021ZM144.997 16.72C145.968 16.7946 146.922 16.832 147.861 16.832C148.81 16.8213 149.722 16.784 150.597 16.72C151.472 16.656 152.272 16.5813 152.997 16.496V17.664C152.325 17.7386 151.546 17.8026 150.661 17.856C149.776 17.9093 148.848 17.9413 147.877 17.952C146.917 17.9626 145.962 17.9466 145.013 17.904L144.997 16.72ZM145.253 13.024C146.117 13.088 146.954 13.12 147.765 13.12C148.576 13.1093 149.349 13.0826 150.085 13.04C150.821 12.9866 151.488 12.9173 152.085 12.832V13.968C151.488 14.0213 150.821 14.0693 150.085 14.112C149.36 14.1546 148.586 14.1813 147.765 14.192C146.954 14.192 146.117 14.176 145.253 14.144V13.024ZM142.501 12.352C142.469 12.4373 142.432 12.5493 142.389 12.688C142.357 12.816 142.325 12.9493 142.293 13.088C142.261 13.216 142.234 13.328 142.213 13.424C142.16 13.7226 142.096 14.0746 142.021 14.48C141.946 14.8853 141.877 15.3226 141.813 15.792C141.749 16.2613 141.69 16.736 141.637 17.216C141.584 17.6853 141.536 18.144 141.493 18.592C141.461 19.04 141.445 19.44 141.445 19.792C141.445 20.176 141.456 20.5493 141.477 20.912C141.509 21.2746 141.552 21.6533 141.605 22.048C141.69 21.8026 141.786 21.536 141.893 21.248C142 20.96 142.106 20.6773 142.213 20.4C142.33 20.1226 142.432 19.8773 142.517 19.664L143.173 20.192C143.045 20.5546 142.901 20.96 142.741 21.408C142.592 21.856 142.453 22.288 142.325 22.704C142.197 23.12 142.101 23.4613 142.037 23.728C142.016 23.8346 141.994 23.9573 141.973 24.096C141.962 24.224 141.957 24.3413 141.957 24.448C141.968 24.5226 141.973 24.608 141.973 24.704C141.984 24.8106 141.994 24.912 142.005 25.008L140.869 25.088C140.709 24.512 140.565 23.7973 140.437 22.944C140.32 22.08 140.261 21.104 140.261 20.016C140.261 19.4293 140.288 18.816 140.341 18.176C140.405 17.536 140.474 16.912 140.549 16.304C140.634 15.696 140.714 15.136 140.789 14.624C140.874 14.112 140.938 13.6906 140.981 13.36C141.013 13.1786 141.04 12.9866 141.061 12.784C141.082 12.5813 141.093 12.3946 141.093 12.224L142.501 12.352ZM151.989 11.68C152.096 11.872 152.208 12.1066 152.325 12.384C152.442 12.6506 152.554 12.9173 152.661 13.184C152.778 13.4506 152.874 13.6906 152.949 13.904L152.133 14.192C152.058 13.9573 151.968 13.7066 151.861 13.44C151.765 13.1626 151.658 12.8906 151.541 12.624C151.434 12.3573 151.328 12.1226 151.221 11.92L151.989 11.68ZM153.605 11.168C153.712 11.3706 153.824 11.6053 153.941 11.872C154.058 12.1386 154.17 12.4053 154.277 12.672C154.394 12.9386 154.49 13.184 154.565 13.408L153.765 13.68C153.637 13.328 153.488 12.944 153.317 12.528C153.157 12.1013 152.992 11.7386 152.821 11.44L153.605 11.168Z" fill="black"/>
<path d="M134.469 13.376C134.469 13.76 134.469 14.176 134.469 14.624C134.469 15.0613 134.469 15.4933 134.469 15.92C134.469 16.3467 134.469 16.7253 134.469 17.056C134.469 17.5573 134.48 18.0693 134.501 18.592C134.522 19.104 134.544 19.6053 134.565 20.096C134.597 20.5867 134.624 21.0453 134.645 21.472C134.666 21.8987 134.677 22.272 134.677 22.592C134.677 23.2427 134.453 23.7493 134.005 24.112C133.568 24.464 132.917 24.64 132.053 24.64C131.477 24.64 130.954 24.5547 130.485 24.384C130.016 24.224 129.648 23.9787 129.381 23.648C129.114 23.3173 128.981 22.9013 128.981 22.4C128.981 22.0267 129.088 21.6747 129.301 21.344C129.514 21.0027 129.845 20.7307 130.293 20.528C130.752 20.3147 131.333 20.208 132.037 20.208C132.752 20.208 133.408 20.288 134.005 20.448C134.602 20.5973 135.146 20.7947 135.637 21.04C136.128 21.2853 136.57 21.552 136.965 21.84C137.37 22.128 137.722 22.4053 138.021 22.672L137.333 23.792C136.832 23.2693 136.288 22.8107 135.701 22.416C135.114 22.0213 134.512 21.7173 133.893 21.504C133.274 21.28 132.645 21.168 132.005 21.168C131.44 21.168 130.981 21.28 130.629 21.504C130.288 21.7173 130.117 21.9947 130.117 22.336C130.117 22.7307 130.282 23.0293 130.613 23.232C130.944 23.4347 131.386 23.536 131.941 23.536C132.368 23.536 132.688 23.472 132.901 23.344C133.125 23.2053 133.28 23.024 133.365 22.8C133.461 22.576 133.509 22.3253 133.509 22.048C133.509 21.8133 133.498 21.5093 133.477 21.136C133.466 20.752 133.445 20.3307 133.413 19.872C133.392 19.4027 133.37 18.9333 133.349 18.464C133.328 17.984 133.317 17.536 133.317 17.12C133.317 16.736 133.317 16.3093 133.317 15.84C133.317 15.3707 133.317 14.9173 133.317 14.48C133.317 14.032 133.317 13.664 133.317 13.376H134.469ZM129.461 16.496C130.421 16.56 131.376 16.592 132.325 16.592C133.274 16.5813 134.186 16.544 135.061 16.48C135.936 16.416 136.736 16.3413 137.461 16.256V17.424C136.778 17.4987 135.994 17.5627 135.109 17.616C134.234 17.6693 133.312 17.7067 132.341 17.728C131.381 17.7387 130.421 17.7173 129.461 17.664V16.496ZM129.701 12.784C130.352 12.8373 131.013 12.8693 131.685 12.88C132.357 12.88 133.018 12.8693 133.669 12.848C134.32 12.816 134.933 12.7787 135.509 12.736C136.096 12.6827 136.624 12.624 137.093 12.56V13.68C136.645 13.7333 136.128 13.7813 135.541 13.824C134.954 13.8667 134.336 13.8987 133.685 13.92C133.034 13.9413 132.368 13.952 131.685 13.952C131.013 13.952 130.352 13.936 129.701 13.904V12.784ZM126.965 12.128C126.933 12.2133 126.896 12.32 126.853 12.448C126.821 12.576 126.789 12.7093 126.757 12.848C126.725 12.976 126.698 13.088 126.677 13.184C126.613 13.4827 126.544 13.84 126.469 14.256C126.405 14.6613 126.336 15.0987 126.261 15.568C126.197 16.0267 126.138 16.496 126.085 16.976C126.032 17.456 125.989 17.92 125.957 18.368C125.925 18.8053 125.909 19.2053 125.909 19.568C125.909 19.952 125.92 20.3253 125.941 20.688C125.973 21.0507 126.01 21.4293 126.053 21.824C126.138 21.5787 126.234 21.312 126.341 21.024C126.448 20.736 126.56 20.4533 126.677 20.176C126.794 19.8987 126.896 19.648 126.981 19.424L127.637 19.952C127.498 20.3147 127.349 20.7253 127.189 21.184C127.04 21.632 126.901 22.064 126.773 22.48C126.645 22.896 126.554 23.232 126.501 23.488C126.48 23.5947 126.458 23.7173 126.437 23.856C126.426 23.9947 126.421 24.112 126.421 24.208C126.432 24.2827 126.437 24.3733 126.437 24.48C126.448 24.5867 126.458 24.6827 126.469 24.768L125.333 24.848C125.162 24.272 125.018 23.5573 124.901 22.704C124.784 21.84 124.725 20.8693 124.725 19.792C124.725 19.1947 124.752 18.5813 124.805 17.952C124.858 17.312 124.922 16.688 124.997 16.08C125.082 15.4613 125.162 14.9013 125.237 14.4C125.322 13.888 125.392 13.4667 125.445 13.136C125.466 12.944 125.488 12.7467 125.509 12.544C125.53 12.3413 125.541 12.16 125.541 12L126.965 12.128Z" fill="black"/>
<path d="M113.973 11.68C113.92 11.8933 113.877 12.0907 113.845 12.272C113.824 12.4427 113.797 12.6187 113.765 12.8C113.722 13.0987 113.669 13.472 113.605 13.92C113.552 14.368 113.488 14.8587 113.413 15.392C113.349 15.9253 113.28 16.4747 113.205 17.04C113.141 17.6053 113.077 18.1547 113.013 18.688C112.96 19.2213 112.917 19.7067 112.885 20.144C112.853 20.5813 112.837 20.944 112.837 21.232C112.837 22.0107 113.056 22.624 113.493 23.072C113.941 23.52 114.618 23.744 115.525 23.744C116.346 23.744 117.05 23.632 117.637 23.408C118.234 23.184 118.693 22.8693 119.013 22.464C119.344 22.048 119.509 21.568 119.509 21.024C119.509 20.4907 119.365 19.9413 119.077 19.376C118.789 18.8 118.352 18.2613 117.765 17.76L119.173 17.472C119.717 18.08 120.122 18.6773 120.389 19.264C120.666 19.84 120.805 20.4747 120.805 21.168C120.805 21.9573 120.581 22.64 120.133 23.216C119.696 23.792 119.083 24.2293 118.293 24.528C117.504 24.8373 116.581 24.992 115.525 24.992C114.8 24.992 114.138 24.8747 113.541 24.64C112.954 24.416 112.485 24.0427 112.133 23.52C111.781 22.9973 111.605 22.2987 111.605 21.424C111.605 21.0827 111.626 20.6347 111.669 20.08C111.722 19.5253 111.786 18.9227 111.861 18.272C111.946 17.6107 112.032 16.9387 112.117 16.256C112.213 15.5627 112.293 14.912 112.357 14.304C112.432 13.696 112.485 13.168 112.517 12.72C112.549 12.4427 112.565 12.224 112.565 12.064C112.565 11.8933 112.554 11.7333 112.533 11.584L113.973 11.68ZM108.837 13.808C109.296 13.9467 109.797 14.064 110.341 14.16C110.885 14.256 111.434 14.3307 111.989 14.384C112.544 14.4267 113.056 14.448 113.525 14.448C114.144 14.448 114.725 14.432 115.269 14.4C115.824 14.368 116.33 14.3147 116.789 14.24L116.757 15.44C116.245 15.4827 115.738 15.52 115.237 15.552C114.736 15.5733 114.16 15.584 113.509 15.584C113.04 15.584 112.528 15.5627 111.973 15.52C111.418 15.4667 110.864 15.392 110.309 15.296C109.754 15.2 109.242 15.0933 108.773 14.976L108.837 13.808ZM108.453 17.776C108.965 17.9573 109.504 18.1013 110.069 18.208C110.645 18.304 111.21 18.3733 111.765 18.416C112.32 18.4587 112.848 18.48 113.349 18.48C113.893 18.48 114.442 18.4693 114.997 18.448C115.562 18.416 116.122 18.3573 116.677 18.272L116.645 19.488C116.122 19.552 115.605 19.5947 115.093 19.616C114.581 19.6373 114.053 19.648 113.509 19.648C112.645 19.648 111.754 19.5947 110.837 19.488C109.93 19.3813 109.114 19.2213 108.389 19.008L108.453 17.776Z" fill="black"/>
<path d="M92.8692 19.36H105.013V20.384H92.8692V19.36ZM91.5092 12.496H99.1892V13.536H91.5092V12.496ZM100.597 11.376H105.013V12.272H100.597V11.376ZM100.629 13.392H105.125V14.24H100.629V13.392ZM100.405 15.376H104.917V16.24H100.405V15.376ZM93.5572 21.76H104.245V22.752H93.5572V21.76ZM91.7812 24.144H106.005V25.168H91.7812V24.144ZM98.2612 19.808H99.4772V24.752H98.2612V19.808ZM94.8212 10.832H95.9572V12.944H94.8212V10.832ZM92.6932 13.072H93.8132V16.24C93.8132 16.4854 93.8505 16.656 93.9252 16.752C93.9998 16.848 94.1438 16.896 94.3572 16.896C94.4638 16.896 94.6398 16.896 94.8852 16.896C95.1412 16.896 95.4185 16.896 95.7172 16.896C96.0265 16.896 96.3092 16.896 96.5652 16.896C96.8212 16.896 96.9972 16.896 97.0932 16.896C97.2745 16.896 97.4878 16.8907 97.7332 16.88C97.9785 16.8587 98.1705 16.8374 98.3092 16.816C98.3305 16.9654 98.3518 17.1414 98.3732 17.344C98.3945 17.5467 98.4158 17.712 98.4372 17.84C98.3092 17.872 98.1225 17.8987 97.8772 17.92C97.6318 17.9307 97.3812 17.936 97.1252 17.936C97.0292 17.936 96.8852 17.936 96.6932 17.936C96.5012 17.936 96.2825 17.936 96.0372 17.936C95.8025 17.936 95.5625 17.936 95.3172 17.936C95.0825 17.936 94.8798 17.936 94.7092 17.936C94.5385 17.936 94.4212 17.936 94.3572 17.936C93.9198 17.936 93.5785 17.8827 93.3332 17.776C93.0985 17.6587 92.9332 17.4774 92.8372 17.232C92.7412 16.976 92.6932 16.64 92.6932 16.224V13.072ZM104.661 11.376H105.749C105.749 11.376 105.749 11.408 105.749 11.472C105.749 11.5254 105.749 11.5947 105.749 11.68C105.749 11.7547 105.749 11.8187 105.749 11.872C105.696 13.2907 105.637 14.4267 105.573 15.28C105.52 16.1227 105.45 16.7627 105.365 17.2C105.28 17.6374 105.173 17.936 105.045 18.096C104.917 18.2454 104.778 18.352 104.629 18.416C104.48 18.48 104.298 18.528 104.085 18.56C103.904 18.5707 103.664 18.576 103.365 18.576C103.066 18.576 102.752 18.5654 102.421 18.544C102.41 18.4054 102.378 18.2454 102.325 18.064C102.272 17.8827 102.208 17.728 102.133 17.6C102.464 17.632 102.757 17.6534 103.013 17.664C103.28 17.664 103.477 17.664 103.605 17.664C103.818 17.6747 103.973 17.6107 104.069 17.472C104.165 17.3547 104.245 17.0934 104.309 16.688C104.384 16.2827 104.448 15.6694 104.501 14.848C104.554 14.0267 104.608 12.9334 104.661 11.568V11.376ZM100.229 11.376H101.317C101.296 12.528 101.216 13.584 101.077 14.544C100.949 15.504 100.709 16.352 100.357 17.088C100.005 17.824 99.4878 18.4374 98.8052 18.928C98.7305 18.8 98.6238 18.656 98.4852 18.496C98.3465 18.336 98.2132 18.2134 98.0852 18.128C98.6932 17.7014 99.1412 17.1627 99.4292 16.512C99.7278 15.8507 99.9305 15.088 100.037 14.224C100.144 13.36 100.208 12.4107 100.229 11.376Z" fill="black"/>
<path d="M75.8132 16.0952H89.9572V17.1672H75.8132V16.0952ZM87.2212 10.7832L88.2292 11.4392C87.5359 11.9299 86.7519 12.3832 85.8772 12.7992C85.0132 13.2152 84.0959 13.5939 83.1252 13.9352C82.1545 14.2765 81.1679 14.5805 80.1652 14.8472C79.1625 15.1139 78.1865 15.3485 77.2372 15.5512C77.1839 15.4552 77.1092 15.3432 77.0132 15.2152C76.9172 15.0872 76.8159 14.9645 76.7092 14.8472C76.6025 14.7192 76.5065 14.6179 76.4212 14.5432C77.4132 14.3725 78.4159 14.1645 79.4292 13.9192C80.4425 13.6739 81.4239 13.3912 82.3732 13.0712C83.3332 12.7512 84.2239 12.3992 85.0452 12.0152C85.8772 11.6312 86.6025 11.2205 87.2212 10.7832ZM82.8852 17.5672H84.0532V25.5352H82.8852V17.5672ZM78.5332 19.1352H88.0372V20.2232H79.7172V24.6072H78.5332V19.1352ZM87.5092 19.1352H88.7092V23.1992C88.7092 23.4979 88.6665 23.7325 88.5812 23.9032C88.4959 24.0739 88.3305 24.2072 88.0852 24.3032C87.8612 24.3885 87.5465 24.4365 87.1412 24.4472C86.7465 24.4685 86.2399 24.4792 85.6212 24.4792C85.5999 24.3192 85.5519 24.1432 85.4772 23.9512C85.4025 23.7592 85.3279 23.5885 85.2532 23.4392C85.7119 23.4499 86.1172 23.4552 86.4692 23.4552C86.8319 23.4552 87.0772 23.4499 87.2052 23.4392C87.3225 23.4392 87.4025 23.4232 87.4452 23.3912C87.4879 23.3485 87.5092 23.2792 87.5092 23.1832V19.1352ZM77.4452 11.8392L78.2452 11.1032C79.1092 11.3165 80.0212 11.5725 80.9812 11.8712C81.9412 12.1592 82.8959 12.4685 83.8452 12.7992C84.7945 13.1299 85.6852 13.4605 86.5172 13.7912C87.3599 14.1219 88.0905 14.4419 88.7092 14.7512L87.8132 15.6152C87.2372 15.3272 86.5385 15.0125 85.7172 14.6712C84.9065 14.3299 84.0319 13.9885 83.0932 13.6472C82.1545 13.2952 81.1945 12.9645 80.2132 12.6552C79.2425 12.3459 78.3199 12.0739 77.4452 11.8392ZM81.3972 14.1752L82.6132 14.5112C82.2185 15.5245 81.7119 16.5059 81.0932 17.4552C80.4852 18.4045 79.7759 19.2845 78.9652 20.0952C78.1545 20.8952 77.2479 21.5779 76.2452 22.1432C76.1812 22.0472 76.1012 21.9459 76.0052 21.8392C75.9092 21.7325 75.8079 21.6259 75.7012 21.5192C75.6052 21.4019 75.5199 21.3059 75.4452 21.2312C76.4052 20.7085 77.2745 20.0739 78.0532 19.3272C78.8425 18.5699 79.5199 17.7485 80.0852 16.8632C80.6505 15.9779 81.0879 15.0819 81.3972 14.1752Z" fill="black"/>
<path d="M62.4531 12.5282C62.6558 12.5389 62.8638 12.5496 63.0771 12.5602C63.3011 12.5709 63.4931 12.5762 63.6531 12.5762C63.8664 12.5762 64.1384 12.5709 64.4691 12.5602C64.8104 12.5496 65.1624 12.5336 65.5251 12.5122C65.8878 12.4909 66.2291 12.4749 66.5491 12.4642C66.8691 12.4429 67.1091 12.4269 67.2691 12.4162C67.4291 12.3949 67.5731 12.3736 67.7011 12.3522C67.8398 12.3202 67.9624 12.2829 68.0691 12.2402L68.8691 12.8962C68.7944 12.9816 68.7198 13.0669 68.6451 13.1522C68.5811 13.2376 68.5171 13.3282 68.4531 13.4242C68.2824 13.7016 68.0798 14.0962 67.8451 14.6082C67.6104 15.1096 67.3598 15.6589 67.0931 16.2562C66.8371 16.8429 66.5811 17.4082 66.3251 17.9522C66.1651 18.3149 65.9891 18.7096 65.7971 19.1362C65.6158 19.5522 65.4291 19.9789 65.2371 20.4162C65.0451 20.8429 64.8531 21.2429 64.6611 21.6162C64.4798 21.9896 64.3038 22.2989 64.1331 22.5442C63.8451 22.9496 63.5411 23.2376 63.2211 23.4082C62.9011 23.5682 62.5331 23.6482 62.1171 23.6482C61.5198 23.6482 61.0238 23.4509 60.6291 23.0562C60.2344 22.6616 60.0371 22.1282 60.0371 21.4562C60.0371 20.8589 60.1704 20.3042 60.4371 19.7922C60.7144 19.2696 61.0931 18.8162 61.5731 18.4322C62.0638 18.0482 62.6451 17.7496 63.3171 17.5362C63.9998 17.3229 64.7464 17.2162 65.5571 17.2162C66.4531 17.2162 67.3171 17.3229 68.1491 17.5362C68.9918 17.7389 69.7758 18.0056 70.5011 18.3362C71.2371 18.6562 71.9038 18.9976 72.5011 19.3602C73.1091 19.7122 73.6264 20.0429 74.0531 20.3522L73.4611 21.7282C72.9918 21.3229 72.4638 20.9229 71.8771 20.5282C71.2904 20.1229 70.6504 19.7549 69.9571 19.4242C69.2638 19.0936 68.5278 18.8269 67.7491 18.6242C66.9811 18.4216 66.1864 18.3202 65.3651 18.3202C64.4904 18.3202 63.7384 18.4696 63.1091 18.7682C62.4904 19.0562 62.0158 19.4296 61.6851 19.8882C61.3651 20.3362 61.2051 20.8056 61.2051 21.2962C61.2051 21.6482 61.3011 21.9202 61.4931 22.1122C61.6958 22.2936 61.9198 22.3842 62.1651 22.3842C62.3464 22.3842 62.5118 22.3416 62.6611 22.2562C62.8104 22.1709 62.9651 22.0269 63.1251 21.8242C63.2958 21.6002 63.4664 21.3282 63.6371 21.0082C63.8078 20.6882 63.9784 20.3416 64.1491 19.9682C64.3198 19.5949 64.4851 19.2162 64.6451 18.8322C64.8051 18.4482 64.9651 18.0909 65.1251 17.7602C65.3384 17.2909 65.5518 16.8056 65.7651 16.3042C65.9891 15.8029 66.2078 15.3176 66.4211 14.8482C66.6451 14.3789 66.8478 13.9522 67.0291 13.5682C66.8691 13.5789 66.6398 13.5896 66.3411 13.6002C66.0531 13.6109 65.7384 13.6269 65.3971 13.6482C65.0558 13.6589 64.7304 13.6749 64.4211 13.6962C64.1224 13.7069 63.8824 13.7176 63.7011 13.7282C63.5304 13.7389 63.3384 13.7549 63.1251 13.7762C62.9118 13.7869 62.7091 13.8029 62.5171 13.8242L62.4531 12.5282ZM72.4531 16.0322C72.3998 17.1629 72.2878 18.1922 72.1171 19.1202C71.9464 20.0482 71.6851 20.8856 71.3331 21.6322C70.9811 22.3789 70.5011 23.0509 69.8931 23.6482C69.2851 24.2349 68.5171 24.7576 67.5891 25.2162L66.5331 24.3362C67.4718 23.9416 68.2344 23.4722 68.8211 22.9282C69.4078 22.3736 69.8611 21.7816 70.1811 21.1522C70.5118 20.5122 70.7411 19.8669 70.8691 19.2162C71.0078 18.5656 71.1038 17.9469 71.1571 17.3602C71.1678 17.1149 71.1731 16.8642 71.1731 16.6082C71.1838 16.3522 71.1784 16.1122 71.1571 15.8882L72.4531 16.0322Z" fill="black"/>
<path d="M52.2931 11.0401H53.4771V25.5361H52.2931V11.0401ZM47.7811 14.8961H58.1331V16.0641H47.7811V14.8961ZM53.9091 15.2801C54.1437 15.9734 54.4264 16.6721 54.7571 17.3761C55.0984 18.0694 55.4717 18.7414 55.8771 19.3921C56.2931 20.0428 56.7251 20.6348 57.1731 21.1681C57.6317 21.7014 58.0904 22.1601 58.5491 22.5441C58.4637 22.6188 58.3624 22.7094 58.2451 22.8161C58.1277 22.9228 58.0157 23.0348 57.9091 23.1521C57.8024 23.2694 57.7117 23.3814 57.6371 23.4881C57.1784 23.0614 56.7197 22.5548 56.2611 21.9681C55.8131 21.3814 55.3811 20.7361 54.9651 20.0321C54.5597 19.3281 54.1811 18.5974 53.8291 17.8401C53.4877 17.0828 53.1891 16.3254 52.9331 15.5681L53.9091 15.2801ZM51.9411 15.2961L52.9811 15.6001C52.6291 16.6561 52.1971 17.6854 51.6851 18.6881C51.1837 19.6908 50.6237 20.6134 50.0051 21.4561C49.3971 22.2988 48.7624 23.0081 48.1011 23.5841C48.0371 23.4774 47.9517 23.3654 47.8451 23.2481C47.7384 23.1308 47.6264 23.0188 47.5091 22.9121C47.4024 22.7948 47.3011 22.7041 47.2051 22.6401C47.8557 22.1388 48.4797 21.4988 49.0771 20.7201C49.6744 19.9308 50.2184 19.0668 50.7091 18.1281C51.2104 17.1894 51.6211 16.2454 51.9411 15.2961ZM47.5891 10.9121L48.7731 11.2801C48.3997 12.2081 47.9571 13.1201 47.4451 14.0161C46.9331 14.9121 46.3784 15.7494 45.7811 16.5281C45.1944 17.3068 44.5811 17.9948 43.9411 18.5921C43.8984 18.4854 43.8291 18.3574 43.7331 18.2081C43.6477 18.0481 43.5571 17.8934 43.4611 17.7441C43.3651 17.5841 43.2797 17.4614 43.2051 17.3761C43.8024 16.8534 44.3731 16.2561 44.9171 15.5841C45.4611 14.9014 45.9571 14.1654 46.4051 13.3761C46.8637 12.5761 47.2584 11.7548 47.5891 10.9121ZM45.8291 15.1681L46.9971 13.9841L47.0131 14.0161V25.5041H45.8291V15.1681Z" fill="black"/>
<path d="M215.089 43.3516C215.548 43.3516 215.958 43.4636 216.321 43.6876C216.684 43.9009 216.977 44.1942 217.201 44.5676C217.425 44.9302 217.537 45.3356 217.537 45.7836C217.537 46.2316 217.425 46.6422 217.201 47.0156C216.977 47.3782 216.684 47.6716 216.321 47.8956C215.958 48.1196 215.548 48.2316 215.089 48.2316C214.641 48.2316 214.23 48.1196 213.857 47.8956C213.494 47.6716 213.201 47.3782 212.977 47.0156C212.764 46.6422 212.657 46.2316 212.657 45.7836C212.657 45.3356 212.764 44.9302 212.977 44.5676C213.201 44.1942 213.5 43.9009 213.873 43.6876C214.246 43.4636 214.652 43.3516 215.089 43.3516ZM215.089 47.4156C215.548 47.4156 215.932 47.2609 216.241 46.9516C216.561 46.6316 216.721 46.2422 216.721 45.7836C216.721 45.4956 216.646 45.2289 216.497 44.9836C216.358 44.7382 216.166 44.5409 215.921 44.3916C215.676 44.2422 215.398 44.1676 215.089 44.1676C214.801 44.1676 214.534 44.2422 214.289 44.3916C214.044 44.5409 213.846 44.7382 213.697 44.9836C213.548 45.2289 213.473 45.4956 213.473 45.7836C213.473 46.0822 213.548 46.3596 213.697 46.6156C213.846 46.8609 214.044 47.0582 214.289 47.2076C214.534 47.3462 214.801 47.4156 215.089 47.4156Z" fill="black"/>
<path d="M204.369 46.9199C204.401 46.7919 204.422 46.6532 204.433 46.5039C204.454 46.3439 204.465 46.1839 204.465 46.0239C204.465 45.9172 204.465 45.6825 204.465 45.3199C204.465 44.9572 204.465 44.5145 204.465 43.9919C204.465 43.4585 204.465 42.8825 204.465 42.2639C204.465 41.6452 204.465 41.0265 204.465 40.4079C204.465 39.7785 204.465 39.1919 204.465 38.6479C204.465 38.1039 204.465 37.6345 204.465 37.2399C204.465 36.8452 204.465 36.5785 204.465 36.4399C204.465 36.1305 204.454 35.8745 204.433 35.6719C204.412 35.4585 204.396 35.3199 204.385 35.2559H205.857C205.857 35.3199 205.846 35.4585 205.825 35.6719C205.804 35.8852 205.793 36.1412 205.793 36.4399C205.793 36.5892 205.793 36.8559 205.793 37.2399C205.793 37.6132 205.793 38.0719 205.793 38.6159C205.793 39.1492 205.793 39.7252 205.793 40.3439C205.793 40.9519 205.793 41.5545 205.793 42.1519C205.793 42.7492 205.793 43.3039 205.793 43.8159C205.793 44.3172 205.793 44.7332 205.793 45.0639C205.793 45.3945 205.793 45.5972 205.793 45.6719C206.294 45.4372 206.828 45.1279 207.393 44.7439C207.958 44.3599 208.508 43.9119 209.041 43.3999C209.585 42.8879 210.06 42.3332 210.465 41.7359L211.217 42.8239C210.758 43.4425 210.22 44.0345 209.601 44.5999C208.993 45.1652 208.358 45.6719 207.697 46.1199C207.036 46.5679 206.39 46.9465 205.761 47.2559C205.633 47.3305 205.521 47.3999 205.425 47.4639C205.34 47.5279 205.27 47.5812 205.217 47.6239L204.369 46.9199ZM197.041 46.8399C197.713 46.3599 198.284 45.7785 198.753 45.0959C199.222 44.4132 199.58 43.6825 199.825 42.9039C199.942 42.5412 200.033 42.0879 200.097 41.5439C200.161 40.9999 200.209 40.4239 200.241 39.8159C200.273 39.1972 200.289 38.5999 200.289 38.0239C200.3 37.4372 200.305 36.9199 200.305 36.4719C200.305 36.2372 200.294 36.0292 200.273 35.8479C200.252 35.6559 200.225 35.4745 200.193 35.3039H201.665C201.654 35.3679 201.644 35.4639 201.633 35.5919C201.622 35.7092 201.612 35.8425 201.601 35.9919C201.59 36.1412 201.585 36.2959 201.585 36.4559C201.585 36.9039 201.58 37.4319 201.569 38.0399C201.558 38.6372 201.532 39.2665 201.489 39.9279C201.457 40.5785 201.409 41.1972 201.345 41.7839C201.292 42.3705 201.206 42.8612 201.089 43.2559C200.854 44.1092 200.486 44.9145 199.985 45.6719C199.494 46.4292 198.913 47.0905 198.241 47.6559L197.041 46.8399Z" fill="black"/>
<path d="M181.361 41.4805C182.748 41.1072 184.038 40.6538 185.233 40.1205C186.428 39.5872 187.468 39.0432 188.353 38.4885C188.908 38.1365 189.446 37.7578 189.969 37.3525C190.502 36.9365 191.004 36.5045 191.473 36.0565C191.942 35.6085 192.358 35.1658 192.721 34.7285L193.793 35.7205C193.345 36.2005 192.86 36.6698 192.337 37.1285C191.814 37.5872 191.26 38.0298 190.673 38.4565C190.097 38.8725 189.494 39.2778 188.865 39.6725C188.278 40.0245 187.617 40.3872 186.881 40.7605C186.145 41.1338 185.361 41.4858 184.529 41.8165C183.697 42.1472 182.854 42.4512 182.001 42.7285L181.361 41.4805ZM188.097 39.1605L189.473 38.7445V46.0405C189.473 46.2432 189.473 46.4565 189.473 46.6805C189.484 46.9045 189.494 47.1125 189.505 47.3045C189.526 47.4965 189.548 47.6459 189.569 47.7525H188.001C188.012 47.6459 188.022 47.4965 188.033 47.3045C188.054 47.1125 188.07 46.9045 188.081 46.6805C188.092 46.4565 188.097 46.2432 188.097 46.0405V39.1605Z" fill="black"/>
<path d="M170.625 39.9284C171.137 40.2271 171.676 40.5578 172.241 40.9204C172.806 41.2831 173.366 41.6618 173.921 42.0564C174.486 42.4404 175.025 42.8191 175.537 43.1924C176.049 43.5658 176.502 43.9178 176.897 44.2484L175.953 45.3524C175.59 45.0218 175.153 44.6591 174.641 44.2644C174.14 43.8591 173.606 43.4538 173.041 43.0484C172.476 42.6324 171.91 42.2324 171.345 41.8484C170.78 41.4644 170.252 41.1178 169.761 40.8084L170.625 39.9284ZM177.953 37.0004C177.878 37.1178 177.809 37.2618 177.745 37.4324C177.681 37.5924 177.622 37.7364 177.569 37.8644C177.42 38.4084 177.206 38.9951 176.929 39.6244C176.652 40.2538 176.326 40.8884 175.953 41.5284C175.58 42.1578 175.153 42.7658 174.673 43.3524C173.958 44.2378 173.062 45.0911 171.985 45.9124C170.918 46.7231 169.628 47.4058 168.113 47.9604L166.961 46.9684C167.953 46.6591 168.854 46.2804 169.665 45.8324C170.486 45.3738 171.222 44.8724 171.873 44.3284C172.524 43.7844 173.089 43.2244 173.569 42.6484C173.985 42.1578 174.364 41.6191 174.705 41.0324C175.057 40.4458 175.361 39.8644 175.617 39.2884C175.873 38.7018 176.06 38.1578 176.177 37.6564H170.241L170.753 36.5204H175.841C176.054 36.5204 176.252 36.5098 176.433 36.4884C176.614 36.4564 176.769 36.4138 176.897 36.3604L177.953 37.0004ZM172.561 34.6964C172.422 34.9098 172.289 35.1338 172.161 35.3684C172.033 35.6031 171.926 35.7951 171.841 35.9444C171.521 36.5311 171.105 37.1764 170.593 37.8804C170.092 38.5738 169.5 39.2671 168.817 39.9604C168.145 40.6538 167.382 41.2991 166.529 41.8964L165.457 41.0644C166.374 40.4991 167.169 39.8751 167.841 39.1924C168.513 38.5098 169.078 37.8431 169.537 37.1924C169.996 36.5418 170.348 35.9764 170.593 35.4964C170.678 35.3578 170.774 35.1658 170.881 34.9204C170.988 34.6644 171.062 34.4351 171.105 34.2324L172.561 34.6964Z" fill="black"/>
<path d="M160.785 36.5517C160.732 36.6157 160.662 36.7224 160.577 36.8717C160.502 37.0104 160.438 37.1384 160.385 37.2557C160.182 37.7784 159.916 38.3597 159.585 38.9997C159.254 39.6291 158.886 40.2531 158.481 40.8717C158.076 41.4904 157.649 42.0504 157.201 42.5517C156.614 43.2131 155.969 43.8584 155.265 44.4877C154.561 45.1064 153.82 45.6877 153.041 46.2317C152.262 46.7651 151.452 47.2237 150.609 47.6077L149.585 46.5357C150.449 46.1944 151.276 45.7731 152.065 45.2717C152.865 44.7597 153.612 44.2051 154.305 43.6077C155.009 42.9997 155.633 42.3917 156.177 41.7837C156.54 41.3677 156.897 40.9037 157.249 40.3917C157.612 39.8691 157.932 39.3411 158.209 38.8077C158.497 38.2637 158.705 37.7731 158.833 37.3357C158.748 37.3357 158.545 37.3357 158.225 37.3357C157.905 37.3357 157.526 37.3357 157.089 37.3357C156.652 37.3357 156.193 37.3357 155.713 37.3357C155.233 37.3357 154.774 37.3357 154.337 37.3357C153.9 37.3357 153.521 37.3357 153.201 37.3357C152.892 37.3357 152.689 37.3357 152.593 37.3357C152.412 37.3357 152.204 37.3411 151.969 37.3517C151.745 37.3624 151.537 37.3731 151.345 37.3837C151.164 37.3944 151.041 37.4051 150.977 37.4157V35.9597C151.052 35.9704 151.185 35.9864 151.377 36.0077C151.58 36.0184 151.793 36.0291 152.017 36.0397C152.241 36.0504 152.433 36.0557 152.593 36.0557C152.71 36.0557 152.924 36.0557 153.233 36.0557C153.542 36.0557 153.91 36.0557 154.337 36.0557C154.774 36.0557 155.228 36.0557 155.697 36.0557C156.166 36.0557 156.614 36.0557 157.041 36.0557C157.478 36.0557 157.852 36.0557 158.161 36.0557C158.47 36.0557 158.673 36.0557 158.769 36.0557C159.036 36.0557 159.27 36.0451 159.473 36.0237C159.686 36.0024 159.852 35.9704 159.969 35.9277L160.785 36.5517ZM157.409 41.7037C157.846 42.0664 158.294 42.4664 158.753 42.9037C159.222 43.3411 159.681 43.7944 160.129 44.2637C160.577 44.7224 160.993 45.1651 161.377 45.5917C161.761 46.0077 162.092 46.3864 162.369 46.7277L161.249 47.6877C160.876 47.1757 160.428 46.6264 159.905 46.0397C159.382 45.4424 158.828 44.8504 158.241 44.2637C157.665 43.6664 157.084 43.1171 156.497 42.6157L157.409 41.7037Z" fill="black"/>
<path d="M88.045 57.3355L110.315 77.8255C111.355 78.7855 113.005 77.8255 112.695 76.4455L108.415 57.3255H341.725C357.225 57.3255 369.795 44.7555 369.795 29.2555C369.795 13.7555 357.225 1.18555 341.725 1.18555H299.035" stroke="#211816" stroke-width="2.37" stroke-linecap="round" stroke-linejoin="round"/>
<path d="M271.405 1.19727H29.2551C13.7551 1.19727 1.18506 13.7673 1.18506 29.2673C1.18506 44.7673 13.7551 57.3373 29.2551 57.3373H80.8951" stroke="#211816" stroke-width="2.37" stroke-linecap="round" stroke-linejoin="round"/>
</svg>
