<svg width="34" height="240" viewBox="0 0 34 240" fill="none" xmlns="http://www.w3.org/2000/svg">
<path d="M27.1198 8.16405C27.7245 8.09244 28.194 7.802 28.5282 7.29274C28.8624 6.78348 29.0295 6.15885 29.0295 5.41883C29.0295 4.87774 28.942 4.40429 28.7669 3.99848C28.5919 3.59664 28.3512 3.28233 28.0448 3.05555C27.7385 2.83275 27.3903 2.72135 27.0004 2.72135C26.6742 2.72135 26.3937 2.79893 26.159 2.9541C25.9282 3.11324 25.7352 3.31615 25.5801 3.56282C25.4289 3.80949 25.3036 4.0681 25.2041 4.33864C25.1086 4.60919 25.031 4.85785 24.9713 5.08463L24.6371 6.32595C24.5536 6.64423 24.4382 6.99833 24.291 7.38823C24.1438 7.78211 23.9429 8.15808 23.6883 8.51616C23.4376 8.87821 23.1153 9.1766 22.7215 9.41134C22.3276 9.64607 21.8442 9.76344 21.2713 9.76344C20.6108 9.76344 20.014 9.59037 19.4809 9.24424C18.9478 8.90208 18.5241 8.40078 18.2097 7.74033C17.8954 7.08387 17.7383 6.28616 17.7383 5.34722C17.7383 4.47193 17.8795 3.71401 18.162 3.07346C18.4445 2.43688 18.8384 1.93558 19.3436 1.56955C19.8489 1.2075 20.4358 1.0026 21.1042 0.95486V2.48264C20.6426 2.52242 20.2607 2.67759 19.9583 2.94813C19.6599 3.22265 19.4371 3.56879 19.2899 3.98654C19.1467 4.40827 19.0751 4.86183 19.0751 5.34722C19.0751 5.91217 19.1666 6.41944 19.3496 6.86902C19.5366 7.3186 19.7952 7.67469 20.1254 7.93727C20.4596 8.19986 20.8495 8.33115 21.2951 8.33115C21.701 8.33115 22.0312 8.21776 22.2858 7.99098C22.5404 7.7642 22.7473 7.46581 22.9065 7.0958C23.0656 6.72579 23.2049 6.32595 23.3242 5.89626L23.7539 4.39236C24.0284 3.4375 24.4203 2.68157 24.9296 2.12456C25.4388 1.56756 26.1052 1.28906 26.9288 1.28906C27.6131 1.28906 28.2099 1.47407 28.7192 1.84407C29.2324 2.21806 29.6303 2.71936 29.9127 3.34798C30.1992 3.98057 30.3424 4.68677 30.3424 5.46657C30.3424 6.25433 30.2012 6.95456 29.9187 7.56726C29.6402 8.17997 29.2583 8.66535 28.7729 9.02343C28.2875 9.38548 27.7365 9.57645 27.1198 9.59634V8.16405ZM26.3559 22.0319V20.5519C26.7816 20.4643 27.1556 20.3112 27.4779 20.0923C27.8001 19.8775 28.0707 19.6149 28.2895 19.3046C28.5123 18.9982 28.6794 18.6581 28.7908 18.2841C28.9022 17.9101 28.9579 17.5202 28.9579 17.1144C28.9579 16.3744 28.7709 15.704 28.3969 15.1032C28.0229 14.5064 27.4719 14.031 26.7438 13.6769C26.0157 13.3268 25.1225 13.1517 24.0642 13.1517C23.0059 13.1517 22.1127 13.3268 21.3847 13.6769C20.6566 14.031 20.1055 14.5064 19.7316 15.1032C19.3576 15.704 19.1706 16.3744 19.1706 17.1144C19.1706 17.5202 19.2263 17.9101 19.3377 18.2841C19.4491 18.6581 19.6142 18.9982 19.833 19.3046C20.0558 19.6149 20.3283 19.8775 20.6506 20.0923C20.9768 20.3112 21.3508 20.4643 21.7726 20.5519V22.0319C21.1479 21.9205 20.5889 21.7176 20.0956 21.4232C19.6022 21.1288 19.1825 20.7627 18.8364 20.3251C18.4942 19.8874 18.2336 19.3961 18.0546 18.851C17.8755 18.3099 17.786 17.7311 17.786 17.1144C17.786 16.072 18.0407 15.145 18.5499 14.3333C19.0592 13.5217 19.7833 12.8831 20.7222 12.4177C21.6612 11.9522 22.7752 11.7194 24.0642 11.7194C25.3533 11.7194 26.4673 11.9522 27.4062 12.4177C28.3452 12.8831 29.0693 13.5217 29.5785 14.3333C30.0878 15.145 30.3424 16.072 30.3424 17.1144C30.3424 17.7311 30.2529 18.3099 30.0739 18.851C29.8948 19.3961 29.6323 19.8874 29.2861 20.3251C28.944 20.7627 28.5262 21.1288 28.0329 21.4232C27.5435 21.7176 26.9845 21.9205 26.3559 22.0319ZM17.9531 24.4235H30.1753V28.5533C30.1753 29.5082 30.0122 30.2919 29.686 30.9046C29.3637 31.5173 28.9201 31.9709 28.3551 32.2653C27.7902 32.5597 27.1476 32.7069 26.4275 32.7069C25.7074 32.7069 25.0688 32.5597 24.5118 32.2653C23.9548 31.9709 23.5172 31.5193 23.1989 30.9106C22.8846 30.3019 22.7274 29.5241 22.7274 28.5772V25.2352H24.0642V28.5294C24.0642 29.1819 24.1597 29.7071 24.3507 30.1049C24.5417 30.5068 24.8122 30.7972 25.1623 30.9763C25.5164 31.1593 25.9381 31.2508 26.4275 31.2508C26.9169 31.2508 27.3446 31.1593 27.7106 30.9763C28.0766 30.7932 28.3591 30.5008 28.558 30.099C28.7609 29.6971 28.8624 29.166 28.8624 28.5056V25.9036H17.9531V24.4235ZM23.4436 30.1766L17.9531 33.1844V31.4656L23.4436 28.5056V30.1766ZM24.0642 45.4856C22.7752 45.4856 21.6612 45.2529 20.7222 44.7874C19.7833 44.3219 19.0592 43.6833 18.5499 42.8717C18.0407 42.0601 17.786 41.1331 17.786 40.0907C17.786 39.0483 18.0407 38.1213 18.5499 37.3097C19.0592 36.498 19.7833 35.8595 20.7222 35.394C21.6612 34.9285 22.7752 34.6957 24.0642 34.6957C25.3533 34.6957 26.4673 34.9285 27.4062 35.394C28.3452 35.8595 29.0693 36.498 29.5785 37.3097C30.0878 38.1213 30.3424 39.0483 30.3424 40.0907C30.3424 41.1331 30.0878 42.0601 29.5785 42.8717C29.0693 43.6833 28.3452 44.3219 27.4062 44.7874C26.4673 45.2529 25.3533 45.4856 24.0642 45.4856ZM24.0642 44.0534C25.1225 44.0534 26.0157 43.8763 26.7438 43.5222C27.4719 43.1721 28.0229 42.6967 28.3969 42.0959C28.7709 41.4991 28.9579 40.8307 28.9579 40.0907C28.9579 39.3507 28.7709 38.6803 28.3969 38.0795C28.0229 37.4827 27.4719 37.0073 26.7438 36.6532C26.0157 36.3031 25.1225 36.128 24.0642 36.128C23.0059 36.128 22.1127 36.3031 21.3847 36.6532C20.6566 37.0073 20.1055 37.4827 19.7316 38.0795C19.3576 38.6803 19.1706 39.3507 19.1706 40.0907C19.1706 40.8307 19.3576 41.4991 19.7316 42.0959C20.1055 42.6967 20.6566 43.1721 21.3847 43.5222C22.1127 43.8763 23.0059 44.0534 24.0642 44.0534ZM17.9531 47.9742H30.1753V49.4543H19.2661V55.1357H17.9531V47.9742ZM17.9531 57.4274H30.1753V58.9074H19.2661V64.5888H17.9531V57.4274ZM17.9531 75.3787L17.9531 71.607H30.1753V75.5458C30.1753 76.7314 29.9306 77.746 29.4413 78.5894C28.9559 79.4329 28.2577 80.0794 27.3466 80.529C26.4394 80.9786 25.3533 81.2034 24.0881 81.2034C22.815 81.2034 21.7189 80.9766 20.7998 80.523C19.8847 80.0695 19.1805 79.409 18.6872 78.5417C18.1978 77.6744 17.9531 76.62 17.9531 75.3787ZM19.2661 73.0871V75.2832C19.2661 76.2938 19.461 77.1313 19.8509 77.7957C20.2408 78.4601 20.7958 78.9555 21.5159 79.2817C22.2361 79.608 23.0935 79.7711 24.0881 79.7711C25.0748 79.7711 25.9242 79.61 26.6364 79.2877C27.3525 78.9654 27.9016 78.484 28.2835 77.8435C28.6694 77.2029 28.8624 76.4052 28.8624 75.4503V73.0871H19.2661ZM24.0642 93.9985C22.7752 93.9985 21.6612 93.7658 20.7222 93.3003C19.7833 92.8348 19.0592 92.1962 18.5499 91.3846C18.0407 90.5729 17.786 89.6459 17.786 88.6035C17.786 87.5612 18.0407 86.6341 18.5499 85.8225C19.0592 85.0109 19.7833 84.3723 20.7222 83.9068C21.6612 83.4413 22.7752 83.2086 24.0642 83.2086C25.3533 83.2086 26.4673 83.4413 27.4062 83.9068C28.3452 84.3723 29.0693 85.0109 29.5785 85.8225C30.0878 86.6341 30.3424 87.5612 30.3424 88.6035C30.3424 89.6459 30.0878 90.5729 29.5785 91.3846C29.0693 92.1962 28.3452 92.8348 27.4062 93.3003C26.4673 93.7658 25.3533 93.9985 24.0642 93.9985ZM24.0642 92.5662C25.1225 92.5662 26.0157 92.3892 26.7438 92.0351C27.4719 91.685 28.0229 91.2095 28.3969 90.6087C28.7709 90.012 28.9579 89.3436 28.9579 88.6035C28.9579 87.8635 28.7709 87.1931 28.3969 86.5924C28.0229 85.9956 27.4719 85.5201 26.7438 85.166C26.0157 84.8159 25.1225 84.6409 24.0642 84.6409C23.0059 84.6409 22.1127 84.8159 21.3847 85.166C20.6566 85.5201 20.1055 85.9956 19.7316 86.5924C19.3576 87.1931 19.1706 87.8635 19.1706 88.6035C19.1706 89.3436 19.3576 90.012 19.7316 90.6087C20.1055 91.2095 20.6566 91.685 21.3847 92.0351C22.1127 92.3892 23.0059 92.5662 24.0642 92.5662ZM17.9531 98.7071L30.1753 95.3651V96.869L20.2209 99.4233V99.5426L30.1753 102.145V103.816L20.2209 106.418V106.537L30.1753 109.091V110.595L17.9531 107.253V105.725L27.6927 103.028V102.932L17.9531 100.235V98.7071ZM30.1753 122.131H17.9531V120.699L27.5495 114.039V113.919H17.9531V112.439H30.1753V113.872L20.5551 120.556V120.675H30.1753V122.131Z" fill="black"/>
<path d="M4.62109 0.132812V239.764" stroke="black" stroke-width="0.787146" stroke-miterlimit="10"/>
<path d="M4.62324 153.614C7.17658 153.614 9.24647 151.544 9.24647 148.99C9.24647 146.437 7.17658 144.367 4.62324 144.367C2.06989 144.367 0 146.437 0 148.99C0 151.544 2.06989 153.614 4.62324 153.614Z" fill="black"/>
</svg>
