<svg width="288" height="289" viewBox="0 0 288 289" fill="none" xmlns="http://www.w3.org/2000/svg">
<path d="M143.789 287.054C222.328 287.054 285.996 223.149 285.996 144.318C285.996 65.4874 222.328 1.58203 143.789 1.58203C65.2496 1.58203 1.58105 65.4874 1.58105 144.318C1.58105 223.149 65.2496 287.054 143.789 287.054Z" fill="white" stroke="#C5AC7A" stroke-width="3.16236" stroke-miterlimit="10"/>
<path d="M52.4942 182.739H59.3145V184.019H52.4942V182.739ZM42.8761 178.478H50.9582V179.63H42.8761V178.478ZM42.675 185.719H51.0313V186.926H42.675V185.719ZM42.6201 182.647H51.1776V183.818H42.6201V182.647ZM55.9135 183.251H57.23V193.289H55.9135V183.251ZM46.2772 176.632H47.612V179.063H46.2772V176.632ZM46.2772 183.616H47.612V193.344H46.2772V183.616ZM51.8359 178.058L53.5181 178.57C53.5059 178.704 53.384 178.789 53.1524 178.826V184.476C53.1524 185.159 53.1159 185.89 53.0427 186.67C52.9818 187.45 52.8538 188.243 52.6587 189.047C52.4637 189.84 52.1711 190.614 51.781 191.369C51.391 192.125 50.879 192.82 50.2451 193.454C50.1841 193.356 50.0927 193.247 49.9708 193.125C49.8611 193.003 49.7392 192.881 49.6051 192.759C49.4832 192.649 49.3674 192.57 49.2577 192.521C49.8428 191.948 50.306 191.327 50.6474 190.656C51.0009 189.986 51.2569 189.297 51.4153 188.59C51.586 187.883 51.6957 187.182 51.7445 186.487C51.8054 185.78 51.8359 185.104 51.8359 184.458V178.058ZM57.9614 176.76L59.0768 177.765C58.5039 178.021 57.8517 178.265 57.1203 178.497C56.3889 178.716 55.6331 178.917 54.8529 179.1C54.085 179.271 53.3353 179.423 52.6039 179.557C52.5673 179.411 52.5063 179.234 52.421 179.027C52.3357 178.807 52.2504 178.631 52.165 178.497C52.8477 178.35 53.5486 178.186 54.2678 178.003C54.9992 177.82 55.688 177.625 56.3341 177.418C56.9801 177.198 57.5226 176.979 57.9614 176.76ZM47.4657 187.255C47.612 187.353 47.8253 187.517 48.1057 187.749C48.3983 187.968 48.7091 188.212 49.0383 188.48C49.3674 188.749 49.666 188.998 49.9342 189.23C50.2024 189.449 50.3975 189.608 50.5194 189.705L49.6965 190.729C49.5502 190.559 49.3491 190.345 49.0931 190.089C48.8371 189.833 48.5567 189.565 48.252 189.285C47.9594 188.992 47.673 188.724 47.3926 188.48C47.1244 188.224 46.905 188.029 46.7343 187.895L47.4657 187.255ZM43.9733 179.978L45.0704 179.722C45.2532 180.124 45.4178 180.569 45.5641 181.057C45.7103 181.544 45.8079 181.965 45.8566 182.318L44.6864 182.629C44.662 182.263 44.5828 181.837 44.4487 181.349C44.3146 180.849 44.1561 180.392 43.9733 179.978ZM48.6725 179.685L49.9159 179.959C49.7453 180.423 49.5685 180.892 49.3857 181.367C49.2028 181.843 49.0261 182.251 48.8554 182.593L47.74 182.318C47.8497 182.074 47.9594 181.8 48.0691 181.495C48.191 181.191 48.3068 180.88 48.4166 180.563C48.5263 180.234 48.6116 179.941 48.6725 179.685ZM46.2772 186.341L47.2646 186.725C46.9598 187.383 46.5819 188.054 46.1309 188.736C45.6799 189.407 45.1984 190.035 44.6864 190.62C44.1866 191.193 43.6929 191.668 43.2053 192.046C43.0956 191.887 42.9493 191.717 42.7664 191.534C42.5958 191.339 42.4312 191.18 42.2727 191.059C42.7725 190.742 43.2723 190.327 43.7721 189.815C44.2841 189.303 44.7595 188.742 45.1984 188.133C45.6372 187.523 45.9968 186.926 46.2772 186.341ZM66.2629 177.674C66.2142 177.979 66.1776 178.289 66.1532 178.606C66.1288 178.911 66.1105 179.216 66.0983 179.521C66.074 180.033 66.0496 180.666 66.0252 181.422C66.0008 182.178 65.9764 182.983 65.9521 183.836C65.9277 184.677 65.9094 185.518 65.8972 186.359C65.885 187.2 65.8789 187.956 65.8789 188.627C65.8789 189.297 66.0069 189.833 66.2629 190.236C66.5189 190.638 66.8724 190.924 67.3235 191.095C67.7745 191.266 68.2926 191.351 68.8777 191.351C69.7066 191.351 70.4563 191.248 71.1268 191.04C71.7972 190.821 72.3946 190.534 72.9187 190.181C73.4429 189.815 73.9061 189.407 74.3084 188.956C74.7229 188.505 75.0947 188.042 75.4238 187.566L76.4661 188.809C76.1491 189.248 75.759 189.705 75.2958 190.181C74.8448 190.644 74.3084 191.077 73.6867 191.479C73.065 191.881 72.3458 192.211 71.5291 192.467C70.7245 192.723 69.8224 192.851 68.8228 192.851C67.9573 192.851 67.1894 192.716 66.5189 192.448C65.8485 192.18 65.3243 191.747 64.9464 191.15C64.5685 190.553 64.3795 189.76 64.3795 188.773C64.3795 188.224 64.3856 187.621 64.3978 186.963C64.41 186.292 64.4283 185.603 64.4527 184.896C64.4771 184.189 64.4953 183.501 64.5075 182.83C64.5197 182.148 64.5319 181.52 64.5441 180.947C64.5563 180.374 64.5624 179.898 64.5624 179.521C64.5624 179.179 64.5502 178.85 64.5258 178.533C64.5014 178.216 64.4649 177.924 64.4161 177.656L66.2629 177.674ZM82.4088 179.155C82.3844 179.301 82.36 179.484 82.3356 179.703C82.3234 179.923 82.3051 180.142 82.2808 180.362C82.2686 180.581 82.2625 180.77 82.2625 180.929C82.2503 181.306 82.2442 181.739 82.2442 182.227C82.2564 182.702 82.2686 183.202 82.2808 183.726C82.3051 184.238 82.3417 184.75 82.3905 185.262C82.488 186.274 82.6526 187.164 82.8842 187.932C83.1158 188.688 83.3962 189.279 83.7253 189.705C84.0666 190.132 84.4506 190.345 84.8773 190.345C85.1089 190.345 85.3344 190.242 85.5538 190.035C85.7732 189.815 85.9805 189.529 86.1755 189.175C86.3827 188.809 86.5656 188.407 86.7241 187.968C86.8947 187.517 87.0349 187.066 87.1446 186.615L88.2966 187.914C87.9309 188.95 87.5591 189.773 87.1812 190.382C86.8155 190.979 86.4376 191.412 86.0475 191.68C85.6696 191.948 85.2734 192.083 84.859 192.083C84.286 192.083 83.7314 191.875 83.195 191.461C82.6586 191.034 82.1954 190.352 81.8053 189.413C81.4153 188.462 81.1349 187.2 80.9642 185.628C80.9033 185.091 80.8545 184.512 80.8179 183.891C80.7936 183.269 80.7753 182.678 80.7631 182.117C80.7631 181.556 80.7631 181.099 80.7631 180.746C80.7631 180.538 80.757 180.27 80.7448 179.941C80.7326 179.612 80.696 179.338 80.6351 179.118L82.4088 179.155ZM91.9353 179.667C92.2645 180.081 92.5753 180.569 92.8679 181.13C93.1726 181.678 93.4469 182.269 93.6907 182.903C93.9467 183.525 94.1722 184.171 94.3673 184.842C94.5745 185.512 94.7391 186.183 94.861 186.853C94.9951 187.511 95.0926 188.145 95.1535 188.755L93.6907 189.358C93.6176 188.529 93.4896 187.688 93.3067 186.835C93.1239 185.969 92.8984 185.134 92.6302 184.33C92.362 183.513 92.0511 182.745 91.6976 182.026C91.3441 181.306 90.9479 180.685 90.5091 180.161L91.9353 179.667ZM100.913 179.082C101.572 179.167 102.309 179.228 103.126 179.265C103.955 179.301 104.826 179.319 105.741 179.319C106.326 179.319 106.911 179.307 107.496 179.283C108.093 179.259 108.66 179.228 109.197 179.191C109.745 179.143 110.239 179.1 110.678 179.063V180.563C110.263 180.587 109.782 180.618 109.233 180.654C108.685 180.691 108.106 180.721 107.496 180.746C106.899 180.77 106.314 180.782 105.741 180.782C104.826 180.782 103.973 180.764 103.181 180.727C102.388 180.679 101.633 180.63 100.913 180.581V179.082ZM101.645 186.451C101.523 186.816 101.425 187.17 101.352 187.511C101.291 187.853 101.261 188.194 101.261 188.535C101.261 189.23 101.62 189.797 102.34 190.236C103.059 190.675 104.15 190.894 105.613 190.894C106.454 190.894 107.264 190.864 108.045 190.803C108.825 190.742 109.538 190.656 110.184 190.547C110.842 190.437 111.403 190.309 111.866 190.163L111.885 191.735C111.446 191.857 110.903 191.967 110.257 192.064C109.623 192.162 108.916 192.235 108.136 192.284C107.356 192.345 106.527 192.375 105.649 192.375C104.418 192.375 103.364 192.241 102.486 191.973C101.608 191.705 100.938 191.308 100.475 190.784C100.011 190.26 99.7797 189.614 99.7797 188.846C99.7797 188.371 99.8224 187.92 99.9077 187.493C99.993 187.066 100.078 186.67 100.164 186.304L101.645 186.451ZM129.786 181.002C129.578 181.136 129.359 181.264 129.127 181.386C128.896 181.508 128.646 181.636 128.378 181.77C128.073 181.94 127.695 182.135 127.244 182.355C126.793 182.574 126.312 182.818 125.8 183.086C125.288 183.354 124.776 183.635 124.264 183.927C123.752 184.22 123.27 184.512 122.819 184.805C121.966 185.354 121.295 185.933 120.808 186.542C120.332 187.152 120.095 187.804 120.095 188.499C120.095 189.254 120.454 189.858 121.173 190.309C121.905 190.748 122.99 190.967 124.428 190.967C125.099 190.967 125.793 190.943 126.513 190.894C127.232 190.833 127.921 190.754 128.579 190.656C129.249 190.559 129.816 190.455 130.279 190.345V191.973C129.828 192.058 129.292 192.131 128.67 192.192C128.061 192.265 127.403 192.32 126.696 192.357C125.988 192.406 125.257 192.43 124.501 192.43C123.636 192.43 122.843 192.357 122.124 192.211C121.405 192.076 120.777 191.863 120.241 191.571C119.717 191.278 119.308 190.894 119.016 190.419C118.723 189.931 118.577 189.346 118.577 188.663C118.577 187.993 118.717 187.377 118.997 186.816C119.278 186.243 119.68 185.701 120.204 185.189C120.728 184.677 121.35 184.183 122.069 183.708C122.533 183.391 123.026 183.086 123.55 182.794C124.087 182.489 124.611 182.196 125.123 181.916C125.635 181.636 126.11 181.38 126.549 181.148C127 180.916 127.378 180.721 127.683 180.563C127.939 180.404 128.171 180.264 128.378 180.142C128.585 180.008 128.786 179.862 128.981 179.703L129.786 181.002ZM120.533 177.692C120.814 178.472 121.112 179.234 121.429 179.978C121.759 180.721 122.088 181.416 122.417 182.062C122.758 182.708 123.069 183.281 123.349 183.781L122.088 184.531C121.783 184.031 121.46 183.44 121.119 182.757C120.777 182.074 120.436 181.349 120.095 180.581C119.753 179.813 119.418 179.051 119.089 178.295L120.533 177.692ZM141.525 179.575C142.025 179.649 142.604 179.71 143.262 179.758C143.932 179.795 144.621 179.813 145.328 179.813C146.047 179.801 146.73 179.777 147.376 179.74C148.034 179.691 148.589 179.63 149.04 179.557V181.038C148.552 181.087 147.979 181.13 147.321 181.166C146.675 181.191 145.999 181.203 145.292 181.203C144.597 181.203 143.92 181.191 143.262 181.166C142.604 181.13 142.025 181.087 141.525 181.038V179.575ZM142.238 187.018C142.153 187.347 142.086 187.645 142.037 187.914C141.988 188.182 141.964 188.444 141.964 188.7C141.964 188.907 142.006 189.114 142.092 189.321C142.189 189.517 142.348 189.693 142.567 189.852C142.799 189.998 143.116 190.12 143.518 190.217C143.92 190.303 144.432 190.345 145.054 190.345C145.883 190.345 146.663 190.309 147.394 190.236C148.126 190.15 148.857 190.028 149.589 189.87L149.625 191.406C149.052 191.528 148.382 191.625 147.614 191.699C146.858 191.759 146.005 191.79 145.054 191.79C143.518 191.79 142.39 191.546 141.671 191.059C140.964 190.571 140.611 189.901 140.611 189.047C140.611 188.742 140.635 188.419 140.684 188.078C140.745 187.725 140.824 187.328 140.921 186.89L142.238 187.018ZM138.032 178.167C138.008 178.265 137.971 178.393 137.923 178.551C137.886 178.698 137.843 178.85 137.795 179.009C137.758 179.155 137.728 179.283 137.703 179.393C137.642 179.734 137.569 180.13 137.484 180.581C137.398 181.02 137.313 181.495 137.228 182.007C137.155 182.507 137.082 183.019 137.008 183.543C136.947 184.055 136.893 184.555 136.844 185.043C136.807 185.53 136.789 185.981 136.789 186.396C136.789 186.847 136.801 187.274 136.826 187.676C136.862 188.078 136.905 188.505 136.954 188.956C137.063 188.675 137.179 188.377 137.301 188.06C137.423 187.743 137.545 187.432 137.667 187.127C137.801 186.81 137.917 186.53 138.014 186.286L138.782 186.871C138.624 187.31 138.453 187.792 138.27 188.316C138.087 188.84 137.923 189.346 137.776 189.833C137.642 190.309 137.545 190.687 137.484 190.967C137.459 191.101 137.435 191.248 137.411 191.406C137.386 191.564 137.38 191.692 137.392 191.79C137.405 191.887 137.411 191.991 137.411 192.101C137.423 192.223 137.435 192.332 137.447 192.43L136.131 192.521C135.948 191.875 135.789 191.046 135.655 190.035C135.521 189.011 135.454 187.883 135.454 186.652C135.454 185.981 135.485 185.299 135.546 184.604C135.607 183.897 135.686 183.214 135.783 182.556C135.881 181.885 135.972 181.276 136.058 180.727C136.155 180.167 136.228 179.697 136.277 179.319C136.314 179.1 136.344 178.881 136.368 178.661C136.393 178.43 136.405 178.216 136.405 178.021L138.032 178.167ZM159.572 177.546C159.511 177.79 159.463 178.015 159.426 178.222C159.402 178.417 159.371 178.619 159.335 178.826C159.286 179.167 159.225 179.594 159.152 180.106C159.091 180.618 159.018 181.178 158.932 181.788C158.859 182.397 158.78 183.025 158.695 183.671C158.621 184.317 158.548 184.945 158.475 185.555C158.414 186.164 158.365 186.719 158.329 187.219C158.292 187.718 158.274 188.133 158.274 188.462C158.274 189.352 158.524 190.053 159.024 190.565C159.536 191.077 160.31 191.333 161.346 191.333C162.285 191.333 163.089 191.205 163.76 190.949C164.442 190.693 164.966 190.333 165.332 189.87C165.71 189.395 165.899 188.846 165.899 188.224C165.899 187.615 165.734 186.987 165.405 186.341C165.076 185.683 164.576 185.067 163.906 184.494L165.515 184.165C166.137 184.86 166.6 185.543 166.905 186.213C167.222 186.871 167.38 187.597 167.38 188.389C167.38 189.291 167.124 190.071 166.612 190.729C166.112 191.388 165.411 191.887 164.509 192.229C163.607 192.582 162.553 192.759 161.346 192.759C160.517 192.759 159.761 192.625 159.079 192.357C158.408 192.101 157.872 191.674 157.47 191.077C157.067 190.48 156.866 189.681 156.866 188.681C156.866 188.291 156.89 187.779 156.939 187.146C157 186.512 157.073 185.823 157.159 185.079C157.256 184.324 157.354 183.556 157.451 182.775C157.561 181.983 157.652 181.239 157.726 180.545C157.811 179.85 157.872 179.246 157.908 178.734C157.945 178.417 157.963 178.167 157.963 177.985C157.963 177.79 157.951 177.607 157.927 177.436L159.572 177.546ZM153.703 179.978C154.227 180.136 154.8 180.27 155.422 180.38C156.043 180.49 156.671 180.575 157.305 180.636C157.939 180.685 158.524 180.709 159.06 180.709C159.767 180.709 160.432 180.691 161.053 180.654C161.687 180.618 162.266 180.557 162.791 180.471L162.754 181.843C162.169 181.892 161.59 181.934 161.017 181.971C160.444 181.995 159.786 182.007 159.042 182.007C158.506 182.007 157.921 181.983 157.287 181.934C156.653 181.873 156.019 181.788 155.385 181.678C154.751 181.569 154.166 181.447 153.63 181.313L153.703 179.978ZM153.264 184.512C153.849 184.72 154.465 184.884 155.111 185.006C155.769 185.116 156.415 185.195 157.049 185.244C157.683 185.293 158.286 185.317 158.859 185.317C159.481 185.317 160.109 185.305 160.743 185.28C161.389 185.244 162.029 185.177 162.663 185.079L162.626 186.469C162.029 186.542 161.437 186.591 160.852 186.615C160.267 186.64 159.664 186.652 159.042 186.652C158.055 186.652 157.037 186.591 155.988 186.469C154.952 186.347 154.02 186.164 153.191 185.92L153.264 184.512ZM170.726 179.447H187.073V180.709H170.726V179.447ZM172.61 185.335H177.748V186.414H172.61V185.335ZM172.61 188.261H177.748V189.34H172.61V188.261ZM180.801 182.519H182.081V190.016H180.801V182.519ZM177.236 182.355H178.571V191.808C178.571 192.15 178.522 192.418 178.424 192.613C178.339 192.808 178.168 192.96 177.912 193.07C177.656 193.18 177.321 193.247 176.907 193.271C176.504 193.295 175.992 193.308 175.371 193.308C175.334 193.137 175.267 192.93 175.17 192.686C175.084 192.454 174.993 192.253 174.895 192.083C175.359 192.095 175.779 192.101 176.157 192.101C176.535 192.113 176.785 192.113 176.907 192.101C177.041 192.101 177.126 192.076 177.163 192.028C177.211 191.979 177.236 191.9 177.236 191.79V182.355ZM184.513 181.971H185.866V191.68C185.866 192.07 185.812 192.369 185.702 192.576C185.592 192.796 185.391 192.96 185.098 193.07C184.818 193.18 184.44 193.247 183.965 193.271C183.502 193.308 182.916 193.32 182.209 193.308C182.173 193.125 182.106 192.905 182.008 192.649C181.911 192.406 181.813 192.186 181.716 191.991C182.264 192.015 182.764 192.028 183.215 192.028C183.666 192.028 183.971 192.022 184.129 192.009C184.276 192.009 184.373 191.985 184.422 191.936C184.483 191.887 184.513 191.796 184.513 191.662V181.971ZM173.56 176.997L174.84 176.54C175.194 176.918 175.541 177.351 175.883 177.838C176.224 178.326 176.486 178.747 176.669 179.1L175.316 179.612C175.17 179.259 174.926 178.838 174.584 178.35C174.255 177.851 173.914 177.4 173.56 176.997ZM182.977 176.467L184.44 176.942C184.099 177.515 183.727 178.094 183.325 178.679C182.935 179.265 182.575 179.77 182.246 180.197L181.021 179.758C181.252 179.454 181.49 179.112 181.734 178.734C181.978 178.344 182.203 177.954 182.411 177.564C182.63 177.162 182.819 176.796 182.977 176.467ZM171.878 182.355H177.675V183.525H173.177V193.289H171.878V182.355ZM189.853 179.722H203.768V181.057H191.206V193.381H189.853V179.722ZM203.256 179.722H204.627V191.552C204.627 192.003 204.566 192.351 204.444 192.595C204.322 192.838 204.097 193.021 203.768 193.143C203.439 193.253 202.987 193.32 202.415 193.344C201.842 193.369 201.135 193.381 200.293 193.381C200.281 193.247 200.245 193.094 200.184 192.924C200.135 192.765 200.08 192.595 200.019 192.412C199.958 192.241 199.891 192.089 199.818 191.955C200.257 191.979 200.677 191.991 201.08 191.991C201.494 192.003 201.848 192.003 202.14 191.991C202.445 191.991 202.658 191.991 202.78 191.991C202.975 191.991 203.103 191.961 203.164 191.9C203.225 191.827 203.256 191.711 203.256 191.552V179.722ZM196.051 176.522L197.752 176.796C197.484 177.454 197.185 178.125 196.856 178.807C196.527 179.49 196.222 180.075 195.942 180.563L194.643 180.234C194.814 179.892 194.985 179.502 195.155 179.063C195.338 178.625 195.509 178.186 195.667 177.747C195.838 177.296 195.966 176.888 196.051 176.522ZM193.601 183.488H194.863V190.857H193.601V183.488ZM194.186 183.488H200.769V189.541H194.186V188.297H199.489V184.714H194.186V183.488ZM209.601 179.393C210.881 179.539 212.1 179.624 213.258 179.649C214.428 179.673 215.482 179.643 216.421 179.557C217.165 179.484 217.902 179.374 218.634 179.228C219.377 179.07 220.078 178.887 220.736 178.679L220.937 179.996C220.34 180.167 219.67 180.325 218.926 180.471C218.195 180.618 217.463 180.727 216.732 180.801C215.805 180.886 214.727 180.929 213.495 180.929C212.276 180.916 211.009 180.849 209.692 180.727L209.601 179.393ZM209.253 183.141C210.289 183.251 211.313 183.324 212.325 183.36C213.337 183.385 214.294 183.379 215.196 183.342C216.098 183.306 216.903 183.245 217.61 183.159C218.487 183.062 219.286 182.934 220.005 182.775C220.724 182.617 221.328 182.458 221.815 182.3L222.035 183.671C221.535 183.805 220.95 183.94 220.279 184.074C219.609 184.196 218.89 184.305 218.122 184.403C217.366 184.488 216.506 184.555 215.543 184.604C214.58 184.64 213.562 184.653 212.49 184.64C211.429 184.616 210.375 184.573 209.326 184.512L209.253 183.141ZM215.507 179.155C215.434 178.875 215.348 178.6 215.251 178.332C215.165 178.052 215.08 177.784 214.995 177.528L216.549 177.326C216.61 177.838 216.707 178.375 216.842 178.935C216.976 179.484 217.122 180.026 217.28 180.563C217.439 181.087 217.591 181.562 217.738 181.989C217.908 182.465 218.109 182.97 218.341 183.507C218.573 184.043 218.829 184.573 219.109 185.098C219.389 185.622 219.688 186.122 220.005 186.597C220.102 186.731 220.206 186.865 220.316 186.999C220.438 187.121 220.56 187.249 220.681 187.383L219.932 188.499C219.59 188.401 219.188 188.322 218.725 188.261C218.262 188.188 217.786 188.127 217.299 188.078C216.811 188.017 216.354 187.962 215.927 187.914L216.055 186.798C216.543 186.847 217.049 186.902 217.573 186.963C218.097 187.024 218.506 187.072 218.798 187.109C218.286 186.317 217.835 185.5 217.445 184.659C217.067 183.818 216.744 183.025 216.476 182.282C216.33 181.867 216.195 181.483 216.074 181.13C215.964 180.764 215.86 180.417 215.763 180.087C215.677 179.758 215.592 179.447 215.507 179.155ZM211.905 187.072C211.685 187.389 211.502 187.712 211.356 188.042C211.21 188.371 211.137 188.736 211.137 189.139C211.137 189.894 211.478 190.461 212.161 190.839C212.855 191.217 213.922 191.406 215.36 191.406C216.214 191.406 216.988 191.376 217.683 191.315C218.378 191.254 219.054 191.156 219.712 191.022L219.657 192.485C219.024 192.582 218.347 192.655 217.628 192.704C216.909 192.765 216.159 192.796 215.379 192.796C214.184 192.796 213.166 192.674 212.325 192.43C211.496 192.186 210.862 191.814 210.423 191.315C209.997 190.815 209.777 190.175 209.765 189.395C209.753 188.87 209.814 188.407 209.948 188.005C210.094 187.59 210.271 187.182 210.478 186.78L211.905 187.072ZM232.951 179.575C233.451 179.649 234.03 179.71 234.688 179.758C235.358 179.795 236.047 179.813 236.754 179.813C237.473 179.801 238.156 179.777 238.802 179.74C239.46 179.691 240.015 179.63 240.466 179.557V181.038C239.978 181.087 239.406 181.13 238.747 181.166C238.101 181.191 237.425 181.203 236.718 181.203C236.023 181.203 235.346 181.191 234.688 181.166C234.03 181.13 233.451 181.087 232.951 181.038V179.575ZM233.664 187.018C233.579 187.347 233.512 187.645 233.463 187.914C233.414 188.182 233.39 188.444 233.39 188.7C233.39 188.907 233.432 189.114 233.518 189.321C233.615 189.517 233.774 189.693 233.993 189.852C234.225 189.998 234.542 190.12 234.944 190.217C235.346 190.303 235.858 190.345 236.48 190.345C237.309 190.345 238.089 190.309 238.82 190.236C239.552 190.15 240.283 190.028 241.015 189.87L241.051 191.406C240.478 191.528 239.808 191.625 239.04 191.699C238.284 191.759 237.431 191.79 236.48 191.79C234.944 191.79 233.816 191.546 233.097 191.059C232.39 190.571 232.037 189.901 232.037 189.047C232.037 188.742 232.061 188.419 232.11 188.078C232.171 187.725 232.25 187.328 232.347 186.89L233.664 187.018ZM229.458 178.167C229.434 178.265 229.397 178.393 229.349 178.551C229.312 178.698 229.269 178.85 229.221 179.009C229.184 179.155 229.154 179.283 229.129 179.393C229.068 179.734 228.995 180.13 228.91 180.581C228.824 181.02 228.739 181.495 228.654 182.007C228.581 182.507 228.508 183.019 228.434 183.543C228.373 184.055 228.319 184.555 228.27 185.043C228.233 185.53 228.215 185.981 228.215 186.396C228.215 186.847 228.227 187.274 228.252 187.676C228.288 188.078 228.331 188.505 228.38 188.956C228.489 188.675 228.605 188.377 228.727 188.06C228.849 187.743 228.971 187.432 229.093 187.127C229.227 186.81 229.343 186.53 229.44 186.286L230.208 186.871C230.05 187.31 229.879 187.792 229.696 188.316C229.513 188.84 229.349 189.346 229.202 189.833C229.068 190.309 228.971 190.687 228.91 190.967C228.885 191.101 228.861 191.248 228.837 191.406C228.812 191.564 228.806 191.692 228.818 191.79C228.831 191.887 228.837 191.991 228.837 192.101C228.849 192.223 228.861 192.332 228.873 192.43L227.557 192.521C227.374 191.875 227.215 191.046 227.081 190.035C226.947 189.011 226.88 187.883 226.88 186.652C226.88 185.981 226.911 185.299 226.972 184.604C227.033 183.897 227.112 183.214 227.209 182.556C227.307 181.885 227.398 181.276 227.484 180.727C227.581 180.167 227.654 179.697 227.703 179.319C227.74 179.1 227.77 178.881 227.794 178.661C227.819 178.43 227.831 178.216 227.831 178.021L229.458 178.167Z" fill="#030000"/>
<path d="M77.5187 206.116C77.982 206.128 78.5671 206.134 79.2741 206.134C79.9933 206.122 80.743 206.092 81.5232 206.043C82.3034 205.982 83.0165 205.915 83.6626 205.842C84.077 205.781 84.5098 205.714 84.9608 205.641C85.424 205.555 85.869 205.464 86.2956 205.366C86.7345 205.269 87.1368 205.171 87.5025 205.074C87.8682 204.976 88.1607 204.879 88.3802 204.781L89.3493 206.043C89.142 206.092 88.9531 206.14 88.7824 206.189C88.6118 206.238 88.4594 206.281 88.3253 206.317C87.9718 206.402 87.5573 206.494 87.0819 206.591C86.6187 206.689 86.125 206.786 85.6008 206.884C85.0888 206.969 84.5829 207.042 84.0831 207.103C83.4127 207.201 82.6996 207.274 81.9438 207.323C81.2002 207.372 80.4749 207.408 79.7678 207.433C79.0608 207.445 78.433 207.457 77.8844 207.469L77.5187 206.116ZM78.5427 218.568C79.5911 218.081 80.4566 217.495 81.1392 216.813C81.8341 216.13 82.3521 215.313 82.6935 214.363C83.0348 213.412 83.2054 212.309 83.2054 211.053C83.2054 211.053 83.2054 210.882 83.2054 210.541C83.2054 210.188 83.2054 209.706 83.2054 209.096C83.2054 208.475 83.2054 207.743 83.2054 206.902L84.6865 206.701C84.6865 206.994 84.6865 207.329 84.6865 207.707C84.6865 208.073 84.6865 208.457 84.6865 208.859C84.6865 209.249 84.6865 209.608 84.6865 209.938C84.6865 210.267 84.6865 210.535 84.6865 210.742C84.6865 210.937 84.6865 211.035 84.6865 211.035C84.6865 212.327 84.5281 213.497 84.2111 214.545C83.9064 215.582 83.4066 216.514 82.7117 217.343C82.0291 218.172 81.1209 218.916 79.9872 219.574L78.5427 218.568ZM76.0925 210.468C76.2997 210.48 76.5496 210.498 76.8422 210.523C77.1348 210.535 77.4212 210.541 77.7016 210.541C77.8723 210.541 78.1953 210.541 78.6707 210.541C79.1461 210.541 79.7191 210.541 80.3895 210.541C81.0722 210.541 81.7975 210.541 82.5655 210.541C83.3456 210.541 84.1197 210.541 84.8877 210.541C85.6678 210.541 86.3932 210.541 87.0636 210.541C87.7341 210.541 88.307 210.541 88.7824 210.541C89.2578 210.541 89.5748 210.541 89.7333 210.541C89.8674 210.541 90.0197 210.541 90.1904 210.541C90.3732 210.529 90.55 210.517 90.7207 210.504C90.9035 210.492 91.0559 210.48 91.1778 210.468V211.986C90.9827 211.961 90.7572 211.943 90.5012 211.931C90.2452 211.919 90.0014 211.912 89.7698 211.912C89.6114 211.912 89.2944 211.912 88.819 211.912C88.3558 211.912 87.7828 211.912 87.1002 211.912C86.4297 211.912 85.7044 211.912 84.9243 211.912C84.1563 211.912 83.3822 211.912 82.602 211.912C81.8219 211.912 81.0905 211.912 80.4078 211.912C79.7252 211.912 79.1461 211.912 78.6707 211.912C78.2075 211.912 77.8966 211.912 77.7382 211.912C77.4456 211.912 77.153 211.919 76.8605 211.931C76.5801 211.943 76.3241 211.961 76.0925 211.986V210.468ZM99.6298 207.634C99.6664 207.792 99.703 207.969 99.7396 208.164C99.7883 208.359 99.8371 208.572 99.8858 208.804C99.959 209.06 100.063 209.456 100.197 209.992C100.343 210.517 100.514 211.12 100.709 211.803C100.904 212.485 101.099 213.192 101.294 213.924C101.501 214.643 101.696 215.338 101.879 216.008C102.074 216.679 102.239 217.264 102.373 217.764C102.519 218.251 102.623 218.605 102.683 218.824C102.732 218.934 102.775 219.062 102.811 219.208C102.86 219.367 102.909 219.519 102.958 219.665C103.007 219.824 103.049 219.958 103.086 220.068L101.532 220.47C101.507 220.263 101.471 220.043 101.422 219.812C101.385 219.592 101.33 219.367 101.257 219.135C101.196 218.928 101.093 218.568 100.946 218.056C100.812 217.544 100.648 216.947 100.453 216.264C100.27 215.582 100.081 214.875 99.8858 214.143C99.6908 213.412 99.4957 212.705 99.3007 212.022C99.1179 211.339 98.9533 210.742 98.807 210.23C98.6729 209.706 98.5693 209.334 98.4962 209.115C98.4352 208.883 98.3682 208.676 98.295 208.493C98.2219 208.31 98.1426 208.152 98.0573 208.018L99.6298 207.634ZM108.407 210.139C108.224 210.529 107.974 210.968 107.657 211.455C107.352 211.943 107.011 212.437 106.633 212.936C106.267 213.436 105.896 213.912 105.518 214.363C105.152 214.801 104.817 215.173 104.512 215.478L103.214 214.838C103.604 214.509 104 214.125 104.402 213.686C104.805 213.235 105.182 212.778 105.536 212.315C105.889 211.851 106.164 211.437 106.359 211.071C106.249 211.083 105.993 211.132 105.591 211.218C105.201 211.303 104.713 211.407 104.128 211.528C103.555 211.638 102.927 211.76 102.245 211.894C101.562 212.028 100.873 212.168 100.178 212.315C99.4957 212.449 98.8497 212.577 98.2402 212.699C97.6307 212.821 97.1004 212.93 96.6494 213.028C96.2105 213.113 95.8997 213.174 95.7168 213.211L95.3511 211.821C95.6071 211.797 95.8509 211.772 96.0825 211.748C96.3263 211.711 96.5884 211.669 96.8688 211.62C96.9907 211.595 97.2406 211.547 97.6185 211.474C98.0086 211.4 98.4779 211.315 99.0264 211.218C99.5872 211.108 100.184 210.998 100.818 210.888C101.452 210.767 102.086 210.645 102.72 210.523C103.366 210.401 103.97 210.285 104.53 210.175C105.091 210.066 105.573 209.974 105.975 209.901C106.377 209.816 106.651 209.755 106.798 209.718C106.907 209.694 107.023 209.663 107.145 209.627C107.279 209.578 107.395 209.535 107.492 209.499L108.407 210.139ZM114.935 218.239C115.008 218.093 115.056 217.953 115.081 217.819C115.105 217.684 115.117 217.526 115.117 217.343C115.117 217.16 115.117 216.819 115.117 216.319C115.117 215.819 115.117 215.222 115.117 214.527C115.117 213.832 115.117 213.107 115.117 212.351C115.117 211.583 115.117 210.84 115.117 210.12C115.117 209.389 115.117 208.743 115.117 208.182C115.117 207.609 115.117 207.177 115.117 206.884C115.117 206.726 115.105 206.537 115.081 206.317C115.069 206.098 115.05 205.89 115.026 205.695C115.014 205.5 114.989 205.342 114.953 205.22H116.763C116.727 205.439 116.696 205.708 116.672 206.025C116.647 206.329 116.635 206.616 116.635 206.884C116.635 207.128 116.635 207.481 116.635 207.945C116.635 208.408 116.635 208.938 116.635 209.535C116.635 210.12 116.635 210.742 116.635 211.4C116.635 212.059 116.635 212.705 116.635 213.339C116.635 213.973 116.635 214.564 116.635 215.112C116.635 215.649 116.635 216.106 116.635 216.484C116.635 216.862 116.635 217.118 116.635 217.252C117.513 217.032 118.415 216.721 119.341 216.319C120.28 215.917 121.194 215.448 122.084 214.911C122.986 214.363 123.827 213.765 124.607 213.119C125.4 212.461 126.076 211.76 126.637 211.016L127.46 212.296C126.277 213.771 124.766 215.064 122.925 216.173C121.097 217.282 119.043 218.166 116.763 218.824C116.666 218.849 116.55 218.885 116.416 218.934C116.282 218.995 116.141 219.068 115.995 219.153L114.935 218.239ZM133.311 205.421C133.64 205.641 134.018 205.915 134.445 206.244C134.872 206.561 135.304 206.902 135.743 207.268C136.194 207.621 136.615 207.969 137.005 208.31C137.395 208.652 137.718 208.95 137.974 209.206L136.822 210.358C136.59 210.127 136.292 209.84 135.926 209.499C135.56 209.157 135.158 208.804 134.719 208.438C134.28 208.06 133.848 207.707 133.421 207.378C132.994 207.036 132.61 206.756 132.269 206.537L133.311 205.421ZM131.739 217.672C132.811 217.514 133.787 217.294 134.664 217.014C135.554 216.734 136.365 216.417 137.096 216.063C137.828 215.71 138.48 215.356 139.053 215.003C139.991 214.417 140.857 213.747 141.649 212.991C142.442 212.223 143.136 211.431 143.734 210.614C144.331 209.797 144.806 209.017 145.16 208.274L146.038 209.828C145.623 210.584 145.111 211.352 144.502 212.132C143.892 212.912 143.203 213.662 142.436 214.381C141.668 215.1 140.82 215.752 139.894 216.337C139.284 216.715 138.614 217.087 137.882 217.453C137.163 217.819 136.371 218.154 135.505 218.459C134.652 218.751 133.72 218.989 132.708 219.172L131.739 217.672ZM160.538 205.183C160.696 205.391 160.879 205.665 161.086 206.006C161.306 206.348 161.519 206.695 161.726 207.049C161.934 207.402 162.104 207.725 162.238 208.018L161.196 208.493C161.05 208.176 160.885 207.853 160.702 207.524C160.52 207.183 160.331 206.847 160.136 206.518C159.941 206.189 159.739 205.884 159.532 205.604L160.538 205.183ZM162.933 204.306C163.104 204.513 163.293 204.781 163.5 205.11C163.707 205.439 163.921 205.781 164.14 206.134C164.359 206.488 164.542 206.811 164.689 207.103L163.646 207.579C163.488 207.25 163.311 206.921 163.116 206.591C162.921 206.262 162.72 205.939 162.513 205.622C162.318 205.305 162.116 205.013 161.909 204.745L162.933 204.306ZM152.73 204.909C152.998 205.055 153.315 205.251 153.681 205.494C154.047 205.726 154.425 205.97 154.815 206.226C155.205 206.47 155.564 206.707 155.893 206.939C156.235 207.158 156.503 207.341 156.698 207.487L155.839 208.749C155.619 208.578 155.339 208.377 154.997 208.146C154.668 207.914 154.315 207.676 153.937 207.433C153.571 207.177 153.205 206.939 152.84 206.719C152.486 206.488 152.175 206.293 151.907 206.134L152.73 204.909ZM149.987 217.983C150.658 217.861 151.346 217.703 152.054 217.508C152.761 217.313 153.461 217.075 154.156 216.795C154.851 216.514 155.503 216.203 156.113 215.862C157.125 215.277 158.063 214.631 158.929 213.924C159.794 213.205 160.574 212.443 161.269 211.638C161.964 210.834 162.555 210.005 163.043 209.151L163.921 210.669C163.128 211.888 162.123 213.07 160.904 214.216C159.685 215.35 158.344 216.344 156.881 217.197C156.271 217.55 155.601 217.879 154.869 218.184C154.15 218.477 153.437 218.733 152.73 218.952C152.035 219.184 151.401 219.354 150.828 219.464L149.987 217.983ZM149.969 209.023C150.237 209.17 150.56 209.352 150.938 209.572C151.316 209.791 151.7 210.023 152.09 210.267C152.48 210.511 152.84 210.742 153.169 210.962C153.51 211.169 153.778 211.346 153.973 211.492L153.151 212.772C152.919 212.601 152.633 212.406 152.291 212.187C151.962 211.967 151.609 211.736 151.231 211.492C150.853 211.248 150.481 211.023 150.115 210.815C149.75 210.596 149.427 210.413 149.146 210.267L149.969 209.023ZM167.175 206.793C167.517 206.78 167.828 206.768 168.108 206.756C168.4 206.732 168.632 206.713 168.803 206.701C169.095 206.665 169.516 206.622 170.064 206.573C170.625 206.512 171.265 206.451 171.984 206.39C172.704 206.317 173.478 206.244 174.307 206.171C175.136 206.098 175.971 206.025 176.812 205.951C177.482 205.89 178.116 205.842 178.713 205.805C179.311 205.756 179.865 205.72 180.377 205.695C180.889 205.659 181.346 205.634 181.749 205.622V207.085C181.407 207.085 181.017 207.091 180.578 207.103C180.14 207.116 179.707 207.14 179.28 207.177C178.854 207.213 178.482 207.28 178.165 207.378C177.519 207.585 176.934 207.902 176.409 208.329C175.897 208.743 175.459 209.224 175.093 209.773C174.727 210.322 174.447 210.888 174.252 211.474C174.069 212.059 173.977 212.626 173.977 213.174C173.977 213.881 174.099 214.503 174.343 215.039C174.587 215.563 174.916 216.008 175.331 216.374C175.757 216.74 176.239 217.038 176.775 217.27C177.311 217.502 177.878 217.678 178.476 217.8C179.085 217.91 179.689 217.971 180.286 217.983L179.756 219.501C179.073 219.476 178.39 219.379 177.708 219.208C177.025 219.05 176.373 218.818 175.751 218.513C175.129 218.196 174.575 217.8 174.087 217.325C173.6 216.849 173.216 216.295 172.935 215.661C172.655 215.027 172.515 214.302 172.515 213.485C172.515 212.534 172.679 211.656 173.008 210.852C173.35 210.035 173.782 209.322 174.307 208.713C174.831 208.103 175.373 207.634 175.934 207.305C175.544 207.353 175.056 207.408 174.471 207.469C173.898 207.53 173.283 207.597 172.624 207.67C171.966 207.731 171.302 207.804 170.631 207.89C169.973 207.975 169.357 208.06 168.784 208.146C168.212 208.219 167.73 208.298 167.34 208.383L167.175 206.793ZM179.116 209.334C179.25 209.529 179.408 209.779 179.591 210.084C179.786 210.376 179.975 210.681 180.158 210.998C180.341 211.303 180.493 211.595 180.615 211.876L179.682 212.315C179.475 211.864 179.244 211.419 178.988 210.98C178.732 210.529 178.463 210.114 178.183 209.736L179.116 209.334ZM181.109 208.566C181.255 208.761 181.426 209.005 181.621 209.298C181.816 209.59 182.005 209.895 182.188 210.212C182.383 210.517 182.553 210.809 182.7 211.09L181.749 211.547C181.529 211.096 181.285 210.651 181.017 210.212C180.761 209.773 180.493 209.365 180.213 208.987L181.109 208.566ZM187.289 206.299C188.569 206.445 189.788 206.53 190.946 206.555C192.116 206.579 193.171 206.549 194.109 206.463C194.853 206.39 195.591 206.281 196.322 206.134C197.066 205.976 197.767 205.793 198.425 205.586L198.626 206.902C198.029 207.073 197.358 207.231 196.615 207.378C195.883 207.524 195.152 207.634 194.42 207.707C193.494 207.792 192.415 207.835 191.184 207.835C189.965 207.823 188.697 207.756 187.381 207.634L187.289 206.299ZM186.942 210.047C187.978 210.157 189.002 210.23 190.014 210.267C191.025 210.291 191.982 210.285 192.884 210.248C193.786 210.212 194.591 210.151 195.298 210.066C196.176 209.968 196.974 209.84 197.693 209.682C198.413 209.523 199.016 209.365 199.504 209.206L199.723 210.578C199.223 210.712 198.638 210.846 197.968 210.98C197.297 211.102 196.578 211.211 195.81 211.309C195.054 211.394 194.195 211.461 193.232 211.51C192.269 211.547 191.251 211.559 190.178 211.547C189.118 211.522 188.063 211.48 187.015 211.419L186.942 210.047ZM193.195 206.061C193.122 205.781 193.037 205.506 192.939 205.238C192.854 204.958 192.769 204.69 192.683 204.434L194.237 204.233C194.298 204.745 194.396 205.281 194.53 205.842C194.664 206.39 194.81 206.933 194.969 207.469C195.127 207.993 195.28 208.469 195.426 208.895C195.597 209.371 195.798 209.877 196.029 210.413C196.261 210.949 196.517 211.48 196.797 212.004C197.078 212.528 197.376 213.028 197.693 213.503C197.791 213.637 197.895 213.771 198.004 213.905C198.126 214.027 198.248 214.155 198.37 214.289L197.62 215.405C197.279 215.307 196.877 215.228 196.413 215.167C195.95 215.094 195.475 215.033 194.987 214.984C194.5 214.923 194.042 214.869 193.616 214.82L193.744 213.704C194.231 213.753 194.737 213.808 195.261 213.869C195.786 213.93 196.194 213.979 196.487 214.015C195.975 213.223 195.524 212.406 195.133 211.565C194.756 210.724 194.433 209.932 194.164 209.188C194.018 208.773 193.884 208.389 193.762 208.036C193.652 207.67 193.549 207.323 193.451 206.994C193.366 206.665 193.281 206.354 193.195 206.061ZM189.593 213.979C189.374 214.296 189.191 214.619 189.044 214.948C188.898 215.277 188.825 215.643 188.825 216.045C188.825 216.801 189.166 217.367 189.849 217.745C190.544 218.123 191.611 218.312 193.049 218.312C193.902 218.312 194.676 218.282 195.371 218.221C196.066 218.16 196.743 218.062 197.401 217.928L197.346 219.391C196.712 219.489 196.036 219.562 195.316 219.61C194.597 219.671 193.847 219.702 193.067 219.702C191.873 219.702 190.855 219.58 190.014 219.336C189.185 219.092 188.551 218.721 188.112 218.221C187.685 217.721 187.466 217.081 187.454 216.301C187.441 215.777 187.502 215.313 187.637 214.911C187.783 214.497 187.96 214.088 188.167 213.686L189.593 213.979ZM206.296 205.348C206.503 205.372 206.723 205.391 206.954 205.403C207.198 205.415 207.411 205.421 207.594 205.421C207.777 205.421 208.076 205.415 208.49 205.403C208.917 205.391 209.392 205.378 209.916 205.366C210.453 205.342 210.983 205.324 211.507 205.311C212.044 205.287 212.519 205.263 212.934 205.238C213.36 205.214 213.671 205.196 213.866 205.183C214.134 205.159 214.341 205.135 214.488 205.11C214.634 205.086 214.756 205.062 214.853 205.037L215.695 206.098C215.536 206.207 215.365 206.323 215.183 206.445C215.012 206.567 214.841 206.701 214.671 206.847C214.439 207.018 214.128 207.268 213.738 207.597C213.348 207.914 212.915 208.274 212.44 208.676C211.977 209.066 211.519 209.45 211.068 209.828C210.617 210.206 210.209 210.547 209.843 210.852C210.27 210.706 210.697 210.608 211.123 210.559C211.562 210.498 211.983 210.468 212.385 210.468C213.397 210.468 214.293 210.657 215.073 211.035C215.865 211.4 216.481 211.906 216.92 212.552C217.371 213.198 217.596 213.936 217.596 214.765C217.596 215.74 217.34 216.593 216.828 217.325C216.316 218.056 215.591 218.617 214.652 219.007C213.714 219.409 212.598 219.61 211.306 219.61C210.477 219.61 209.764 219.501 209.167 219.281C208.569 219.062 208.106 218.757 207.777 218.367C207.46 217.977 207.302 217.526 207.302 217.014C207.302 216.6 207.418 216.209 207.649 215.844C207.881 215.478 208.21 215.185 208.637 214.966C209.063 214.747 209.557 214.637 210.118 214.637C210.934 214.637 211.611 214.808 212.147 215.149C212.684 215.478 213.098 215.917 213.391 216.465C213.683 217.002 213.848 217.581 213.884 218.203L212.568 218.422C212.519 217.642 212.275 217.002 211.836 216.502C211.41 215.99 210.831 215.734 210.099 215.734C209.685 215.734 209.337 215.85 209.057 216.081C208.777 216.313 208.637 216.587 208.637 216.904C208.637 217.343 208.862 217.691 209.313 217.947C209.764 218.203 210.349 218.331 211.068 218.331C212.105 218.331 213.001 218.19 213.756 217.91C214.524 217.63 215.109 217.221 215.512 216.685C215.926 216.148 216.133 215.502 216.133 214.747C216.133 214.149 215.957 213.613 215.603 213.138C215.25 212.662 214.762 212.29 214.14 212.022C213.531 211.742 212.83 211.602 212.038 211.602C211.27 211.602 210.581 211.687 209.971 211.858C209.362 212.016 208.789 212.248 208.253 212.552C207.728 212.857 207.204 213.241 206.68 213.704C206.168 214.155 205.619 214.673 205.034 215.259L203.992 214.18C204.37 213.875 204.784 213.534 205.235 213.156C205.699 212.766 206.162 212.382 206.625 212.004C207.088 211.614 207.515 211.254 207.905 210.925C208.307 210.584 208.643 210.303 208.911 210.084C209.167 209.877 209.484 209.615 209.862 209.298C210.252 208.968 210.654 208.627 211.068 208.274C211.483 207.92 211.873 207.585 212.239 207.268C212.617 206.951 212.921 206.695 213.153 206.5C212.958 206.5 212.671 206.512 212.294 206.537C211.916 206.549 211.495 206.567 211.032 206.591C210.569 206.604 210.105 206.622 209.642 206.646C209.191 206.671 208.777 206.695 208.399 206.719C208.033 206.732 207.753 206.744 207.558 206.756C207.363 206.768 207.162 206.78 206.954 206.793C206.747 206.805 206.546 206.829 206.351 206.866L206.296 205.348Z" fill="#030000"/>
<path d="M147.752 84.3463C149.909 80.2606 148.397 75.2271 144.374 73.1036C140.352 70.9802 135.343 72.5709 133.186 76.6567C131.029 80.7424 132.541 85.7761 136.563 87.8995C140.586 90.023 145.595 88.4321 147.752 84.3463Z" stroke="#10357B" stroke-width="2.30852" stroke-linecap="round" stroke-linejoin="round"/>
<path d="M133.856 108.457C132.051 111.525 130.127 114.522 128.263 117.507C127.355 118.958 126.434 120.386 125.526 121.814C125.408 122.026 125.184 122.345 124.948 122.71C124.169 123.878 124.605 125.424 125.821 126.108C128.417 127.548 132.18 130.179 134.918 132.279" stroke="#10357B" stroke-width="2.30852" stroke-linecap="round" stroke-linejoin="round"/>
<path d="M122.219 97.7109C122.219 97.7109 115.989 109.333 111.269 118.147C110.951 118.725 110.715 119.338 110.55 119.976C110.019 122.123 110.609 124.4 111.859 126.229C113.511 128.589 121.759 132.553 127.293 135.692C128.567 136.423 128.815 137.993 127.765 138.984C124.626 141.922 118.137 148.541 118.137 148.541C116.803 150.405 117.145 152.871 118.986 154.216C120.508 155.302 122.361 155.03 123.765 153.98C123.824 153.933 124.543 153.202 125.605 152.116" stroke="#10357B" stroke-width="2.30852" stroke-linecap="round" stroke-linejoin="round"/>
<path d="M128.323 89.1406C128.677 89.1642 128.996 89.1758 129.291 89.223C130.341 89.3764 131.332 89.6951 132.288 90.1907L134.129 91.1821C134.943 91.6069 135.734 92.0789 136.501 92.5863" stroke="#10357B" stroke-width="2.30852" stroke-linecap="round" stroke-linejoin="round"/>
<path d="M110.716 130.77C107.66 133.814 103.188 138.132 100.356 140.976C99.5774 141.755 98.8105 142.533 98.0318 143.3C96.8755 144.468 95.7192 145.318 95.6838 147.099C95.6484 148.586 96.4271 150.014 97.7014 150.781C99.3178 151.737 101.312 151.477 102.61 150.309C102.881 150.073 114.291 138.451 117.477 135.206" stroke="#10357B" stroke-width="2.30852" stroke-linecap="round" stroke-linejoin="round"/>
<path d="M128.296 89.1289L124.072 89.7307H124.013L114.503 91.8188C113.264 92.0902 112.073 92.5506 110.975 93.1995L110.303 93.5887C110.043 93.7303 109.795 93.8838 109.548 94.049L103.105 98.4146C101.336 99.5945 100.875 101.954 102.067 103.701C102.35 104.102 102.704 104.456 103.094 104.704C104.403 105.577 106.15 105.624 107.53 104.704L113.04 100.645C114.574 99.5121 116.344 98.7568 118.22 98.4264L122.184 97.7183" stroke="#10357B" stroke-width="2.30852" stroke-linecap="round" stroke-linejoin="round"/>
<path d="M141.327 107.227C141.987 107.45 142.658 107.674 143.329 107.886" stroke="#10357B" stroke-width="2.30852" stroke-linecap="round" stroke-linejoin="round"/>
<path d="M179.006 84.3424C181.163 80.2567 179.651 75.2232 175.628 73.0997C171.606 70.9763 166.597 72.567 164.44 76.6528C162.283 80.7385 163.795 85.7722 167.817 87.8956C171.84 90.0191 176.849 88.4282 179.006 84.3424Z" stroke="#10357B" stroke-width="2.30852" stroke-linecap="round" stroke-linejoin="round"/>
<path d="M159.583 89.1289C159.925 89.1407 160.244 89.1641 160.539 89.2113C161.589 89.3647 162.592 89.6951 163.536 90.1907L165.388 91.1701C166.556 91.7837 167.677 92.4798 168.739 93.2704C169.4 93.7659 169.978 94.2613 170.073 94.509C170.568 95.9013 170.509 97.4354 170.037 98.8277C169.695 99.8188 169.247 100.774 168.786 101.718C166.096 107.181 162.757 112.361 159.512 117.505C158.604 118.945 157.695 120.373 156.787 121.812C156.657 122.013 156.445 122.343 156.209 122.709C155.442 123.877 155.867 125.411 157.094 126.095C160.055 127.735 164.586 130.98 167.335 133.163C168.197 133.847 168.975 134.661 169.2 135.735C169.554 137.458 169.058 139.227 167.937 140.572C167.654 140.915 167.382 141.21 167.182 141.422C164.35 144.372 155.336 153.764 155.076 153.964C153.66 155.015 151.82 155.298 150.286 154.2C148.433 152.855 148.103 150.389 149.436 148.525C149.436 148.525 155.914 141.906 159.052 138.956C160.114 137.965 159.855 136.396 158.592 135.676C153.058 132.526 144.799 128.573 143.159 126.201C141.897 124.372 141.307 122.095 141.849 119.948C142.003 119.322 142.239 118.709 142.557 118.131C147.289 109.305 153.507 97.695 153.507 97.695" stroke="#10357B" stroke-width="2.30852" stroke-linecap="round" stroke-linejoin="round"/>
<path d="M141.974 130.77C138.918 133.814 134.446 138.132 131.614 140.976C130.835 141.755 130.068 142.533 129.29 143.3C128.133 144.468 126.977 145.318 126.942 147.099C126.906 148.586 127.685 150.014 128.959 150.781C130.576 151.737 132.57 151.477 133.868 150.309C134.139 150.073 145.549 138.451 148.734 135.206" stroke="#10357B" stroke-width="2.30852" stroke-linecap="round" stroke-linejoin="round"/>
<path d="M159.597 89.1289L155.373 89.7307H155.314L145.804 91.8188C144.565 92.0902 143.373 92.5506 142.276 93.1995L141.604 93.5887C141.344 93.7303 141.096 93.8838 140.848 94.049L134.406 98.4146C132.636 99.5945 132.176 101.954 133.368 103.701C133.651 104.102 134.005 104.456 134.394 104.704C135.704 105.577 137.45 105.624 138.831 104.704L144.341 100.645C145.875 99.5121 147.645 98.7568 149.521 98.4264L153.485 97.7183" stroke="#10357B" stroke-width="2.30852" stroke-linecap="round" stroke-linejoin="round"/>
<path d="M173.077 100.138C173.23 100.185 173.372 100.233 173.62 100.303C173.62 100.303 173.726 100.339 173.785 100.351C174.729 100.646 175.696 101.106 176.687 100.752C177.277 100.539 177.844 100.292 178.41 100.044C179.779 99.454 181.136 98.8049 182.481 98.1559C183.436 97.6958 184.392 97.2239 185.336 96.7519C186.846 96.0676 188.557 96.4096 189.725 97.4951C190.056 97.7901 190.351 98.203 190.563 98.6396C191.448 100.575 190.61 102.816 188.652 103.678C186.74 104.48 184.829 105.283 182.917 106.073C181.891 106.498 180.876 106.923 179.849 107.336C179.425 107.513 179 107.678 178.575 107.855C177.785 108.185 177.148 108.551 176.286 108.35C175.72 108.22 175.154 108.044 174.587 107.867C173.325 107.465 172.062 107.04 170.812 106.592" stroke="#10357B" stroke-width="2.30852" stroke-linecap="round" stroke-linejoin="round"/>
</svg>
