<svg width="288" height="288" viewBox="0 0 288 288" fill="none" xmlns="http://www.w3.org/2000/svg">
<path d="M143.789 285.997C222.328 285.997 285.996 222.328 285.996 143.789C285.996 65.2504 222.328 1.58203 143.789 1.58203C65.2496 1.58203 1.58105 65.2504 1.58105 143.789C1.58105 222.328 65.2496 285.997 143.789 285.997Z" fill="white" stroke="#C5AC7A" stroke-width="3.16236" stroke-miterlimit="10"/>
<path d="M96.7142 169.727H98.2502C98.2258 170.202 98.1831 170.83 98.1222 171.61C98.0612 172.39 97.9454 173.274 97.7748 174.262C97.6163 175.237 97.3664 176.255 97.0251 177.315C96.6838 178.376 96.2266 179.424 95.6537 180.46C95.0808 181.496 94.3493 182.478 93.4595 183.404C92.5818 184.331 91.509 185.135 90.2413 185.818C90.1316 185.647 89.9731 185.464 89.7659 185.269C89.5586 185.074 89.3453 184.904 89.1259 184.757C90.3815 184.111 91.4359 183.355 92.2892 182.49C93.1425 181.624 93.8435 180.698 94.392 179.711C94.9406 178.723 95.3672 177.73 95.672 176.73C95.9767 175.718 96.2022 174.755 96.3485 173.841C96.4948 172.927 96.5862 172.116 96.6228 171.409C96.6716 170.69 96.702 170.129 96.7142 169.727ZM98.177 170.093C98.1892 170.3 98.2136 170.659 98.2502 171.171C98.299 171.671 98.3843 172.281 98.5062 173C98.6281 173.719 98.8048 174.499 99.0365 175.34C99.2681 176.181 99.5789 177.047 99.969 177.937C100.359 178.827 100.841 179.692 101.414 180.533C101.986 181.374 102.675 182.155 103.48 182.874C104.284 183.581 105.229 184.178 106.314 184.666C106.107 184.824 105.906 185.007 105.711 185.214C105.528 185.434 105.375 185.635 105.253 185.818C104.156 185.294 103.187 184.654 102.346 183.898C101.517 183.13 100.804 182.301 100.207 181.411C99.6216 180.509 99.1279 179.589 98.7256 178.65C98.3355 177.711 98.0186 176.797 97.7748 175.907C97.531 175.005 97.3481 174.17 97.2262 173.402C97.1043 172.622 97.019 171.958 96.9702 171.409C96.9215 170.848 96.891 170.446 96.8788 170.202L98.177 170.093ZM121.692 173.603C121.485 173.737 121.265 173.865 121.034 173.987C120.802 174.109 120.552 174.237 120.284 174.371C119.979 174.542 119.601 174.737 119.15 174.956C118.699 175.176 118.218 175.42 117.706 175.688C117.194 175.956 116.682 176.236 116.17 176.529C115.658 176.821 115.176 177.114 114.725 177.407C113.872 177.955 113.201 178.534 112.714 179.144C112.238 179.753 112.001 180.405 112.001 181.1C112.001 181.856 112.36 182.459 113.079 182.91C113.811 183.349 114.896 183.569 116.334 183.569C117.005 183.569 117.7 183.544 118.419 183.496C119.138 183.435 119.827 183.355 120.485 183.258C121.155 183.16 121.722 183.057 122.186 182.947V184.574C121.734 184.66 121.198 184.733 120.576 184.794C119.967 184.867 119.309 184.922 118.602 184.958C117.895 185.007 117.163 185.032 116.407 185.032C115.542 185.032 114.75 184.958 114.03 184.812C113.311 184.678 112.683 184.465 112.147 184.172C111.623 183.88 111.214 183.496 110.922 183.02C110.629 182.533 110.483 181.947 110.483 181.265C110.483 180.594 110.623 179.979 110.904 179.418C111.184 178.845 111.586 178.303 112.11 177.791C112.635 177.279 113.256 176.785 113.975 176.309C114.439 175.993 114.932 175.688 115.457 175.395C115.993 175.09 116.517 174.798 117.029 174.518C117.541 174.237 118.016 173.981 118.455 173.75C118.906 173.518 119.284 173.323 119.589 173.164C119.845 173.006 120.077 172.866 120.284 172.744C120.491 172.61 120.692 172.463 120.887 172.305L121.692 173.603ZM112.44 170.294C112.72 171.074 113.019 171.836 113.335 172.579C113.665 173.323 113.994 174.018 114.323 174.664C114.664 175.31 114.975 175.883 115.255 176.383L113.994 177.132C113.689 176.633 113.366 176.041 113.025 175.359C112.683 174.676 112.342 173.951 112.001 173.183C111.659 172.415 111.324 171.653 110.995 170.897L112.44 170.294ZM133.815 178.888H141.879V185.891H140.507V180.131H135.113V185.982H133.815V178.888ZM141.074 169.453L142.08 170.586C141.336 170.806 140.483 171.001 139.52 171.171C138.557 171.342 137.563 171.494 136.539 171.628C135.515 171.75 134.528 171.848 133.577 171.921C133.553 171.763 133.498 171.574 133.413 171.354C133.339 171.123 133.26 170.928 133.175 170.769C133.87 170.696 134.583 170.617 135.314 170.531C136.046 170.446 136.765 170.348 137.472 170.239C138.179 170.117 138.837 169.995 139.447 169.873C140.068 169.739 140.611 169.599 141.074 169.453ZM137.033 170.842H138.423V179.528H137.033V170.842ZM132.736 174.499H142.738V175.797H132.736V174.499ZM134.656 183.806H141.202V185.068H134.656V183.806ZM126.665 174.792H132.023V175.889H126.665V174.792ZM126.775 169.8H131.986V170.897H126.775V169.8ZM126.665 177.297H132.023V178.376H126.665V177.297ZM125.788 172.25H132.608V173.384H125.788V172.25ZM127.342 179.802H132.078V185.123H127.342V184.008H130.853V180.936H127.342V179.802ZM126.629 179.802H127.836V185.964H126.629V179.802ZM149.595 170.275C149.546 170.58 149.51 170.891 149.485 171.208C149.461 171.513 149.443 171.817 149.43 172.122C149.406 172.634 149.382 173.268 149.357 174.024C149.333 174.78 149.309 175.584 149.284 176.437C149.26 177.279 149.242 178.12 149.229 178.961C149.217 179.802 149.211 180.558 149.211 181.228C149.211 181.899 149.339 182.435 149.595 182.837C149.851 183.24 150.205 183.526 150.656 183.697C151.107 183.867 151.625 183.953 152.21 183.953C153.039 183.953 153.788 183.849 154.459 183.642C155.129 183.422 155.727 183.136 156.251 182.782C156.775 182.417 157.238 182.008 157.641 181.557C158.055 181.106 158.427 180.643 158.756 180.168L159.798 181.411C159.481 181.85 159.091 182.307 158.628 182.782C158.177 183.246 157.641 183.678 157.019 184.081C156.397 184.483 155.678 184.812 154.861 185.068C154.057 185.324 153.155 185.452 152.155 185.452C151.289 185.452 150.521 185.318 149.851 185.05C149.181 184.782 148.656 184.349 148.279 183.752C147.901 183.154 147.712 182.362 147.712 181.374C147.712 180.826 147.718 180.223 147.73 179.564C147.742 178.894 147.76 178.205 147.785 177.498C147.809 176.791 147.827 176.102 147.84 175.432C147.852 174.749 147.864 174.121 147.876 173.548C147.888 172.975 147.895 172.5 147.895 172.122C147.895 171.781 147.882 171.452 147.858 171.135C147.834 170.818 147.797 170.525 147.748 170.257L149.595 170.275ZM169.764 170.129C169.703 170.336 169.642 170.586 169.581 170.879C169.52 171.171 169.471 171.409 169.434 171.592C169.349 172.031 169.246 172.543 169.124 173.128C169.014 173.701 168.886 174.304 168.74 174.938C168.606 175.572 168.453 176.194 168.283 176.803C168.124 177.449 167.929 178.156 167.697 178.924C167.466 179.68 167.222 180.442 166.966 181.21C166.71 181.978 166.448 182.703 166.18 183.386C165.912 184.068 165.662 184.666 165.43 185.178L163.821 184.629C164.101 184.154 164.382 183.587 164.662 182.929C164.955 182.258 165.235 181.545 165.503 180.789C165.784 180.034 166.04 179.284 166.271 178.54C166.515 177.784 166.722 177.09 166.893 176.456C167.015 176.029 167.131 175.578 167.24 175.103C167.35 174.627 167.454 174.164 167.551 173.713C167.649 173.25 167.728 172.829 167.789 172.451C167.862 172.061 167.917 171.744 167.953 171.5C167.99 171.244 168.014 170.976 168.027 170.696C168.039 170.416 168.033 170.178 168.008 169.983L169.764 170.129ZM165.704 173.183C166.387 173.183 167.118 173.152 167.899 173.091C168.691 173.018 169.495 172.915 170.312 172.78C171.129 172.646 171.915 172.482 172.671 172.287V173.731C171.915 173.902 171.123 174.048 170.294 174.17C169.465 174.292 168.648 174.39 167.844 174.463C167.051 174.524 166.332 174.554 165.686 174.554C165.284 174.554 164.912 174.548 164.571 174.536C164.229 174.511 163.894 174.493 163.565 174.481L163.51 173.055C163.949 173.103 164.339 173.14 164.68 173.164C165.034 173.177 165.375 173.183 165.704 173.183ZM171.482 175.706C171.97 175.657 172.5 175.621 173.073 175.596C173.658 175.56 174.243 175.541 174.829 175.541C175.365 175.541 175.901 175.554 176.438 175.578C176.986 175.602 177.504 175.645 177.992 175.706L177.955 177.096C177.492 177.035 176.998 176.986 176.474 176.949C175.95 176.901 175.42 176.876 174.883 176.876C174.311 176.876 173.738 176.895 173.165 176.931C172.604 176.956 172.043 176.998 171.482 177.059V175.706ZM171.866 180.149C171.793 180.442 171.732 180.728 171.684 181.009C171.635 181.289 171.61 181.551 171.61 181.795C171.61 182.014 171.647 182.228 171.72 182.435C171.805 182.63 171.958 182.807 172.177 182.965C172.397 183.124 172.708 183.252 173.11 183.349C173.524 183.447 174.055 183.496 174.701 183.496C175.298 183.496 175.901 183.465 176.511 183.404C177.12 183.343 177.705 183.252 178.266 183.13L178.211 184.611C177.724 184.684 177.181 184.745 176.584 184.794C175.987 184.843 175.353 184.867 174.682 184.867C173.244 184.867 172.141 184.648 171.373 184.209C170.605 183.758 170.221 183.081 170.221 182.179C170.221 181.826 170.245 181.472 170.294 181.118C170.355 180.765 170.422 180.399 170.495 180.021L171.866 180.149ZM186.147 170.093C186.05 170.434 185.952 170.83 185.855 171.281C185.769 171.72 185.684 172.183 185.599 172.671C185.525 173.146 185.458 173.603 185.397 174.042C185.349 174.481 185.312 174.859 185.288 175.176C185.483 174.713 185.739 174.237 186.056 173.75C186.373 173.262 186.751 172.817 187.189 172.415C187.628 172 188.104 171.665 188.616 171.409C189.14 171.153 189.688 171.025 190.261 171.025C191.078 171.025 191.797 171.281 192.419 171.793C193.053 172.305 193.547 173.03 193.9 173.969C194.254 174.908 194.43 176.017 194.43 177.297C194.43 178.565 194.241 179.668 193.864 180.606C193.486 181.533 192.955 182.319 192.273 182.965C191.59 183.611 190.773 184.136 189.822 184.538C188.884 184.94 187.848 185.239 186.714 185.434L185.855 184.117C186.842 183.971 187.762 183.752 188.616 183.459C189.481 183.154 190.237 182.746 190.883 182.234C191.529 181.71 192.029 181.045 192.382 180.241C192.748 179.436 192.931 178.461 192.931 177.315C192.931 176.352 192.821 175.499 192.602 174.755C192.382 173.999 192.059 173.408 191.633 172.982C191.206 172.555 190.67 172.342 190.024 172.342C189.451 172.342 188.902 172.524 188.378 172.89C187.854 173.256 187.372 173.731 186.933 174.316C186.507 174.889 186.159 175.511 185.891 176.181C185.623 176.84 185.458 177.468 185.397 178.065C185.349 178.418 185.324 178.766 185.324 179.107C185.337 179.448 185.373 179.851 185.434 180.314L184.026 180.424C183.977 180.082 183.929 179.662 183.88 179.162C183.843 178.662 183.825 178.114 183.825 177.516C183.825 177.09 183.843 176.614 183.88 176.09C183.929 175.554 183.977 175.017 184.026 174.481C184.087 173.932 184.148 173.408 184.209 172.908C184.282 172.409 184.343 171.976 184.392 171.61C184.428 171.33 184.459 171.062 184.483 170.806C184.508 170.537 184.526 170.281 184.538 170.038L186.147 170.093ZM202.493 185.544C202.103 185.056 201.677 184.568 201.213 184.081C200.75 183.593 200.281 183.124 199.805 182.673C199.342 182.222 198.891 181.819 198.452 181.466L199.641 180.424C200.08 180.777 200.543 181.186 201.031 181.649C201.518 182.112 201.994 182.587 202.457 183.075C202.932 183.563 203.359 184.032 203.737 184.483L202.493 185.544Z" fill="#030000"/>
<path d="M47.8392 196.629H49.3752C49.3508 197.105 49.3081 197.732 49.2472 198.513C49.1862 199.293 49.0704 200.176 48.8998 201.164C48.7413 202.139 48.4914 203.157 48.1501 204.218C47.8088 205.278 47.3516 206.326 46.7787 207.363C46.2058 208.399 45.4743 209.38 44.5845 210.306C43.7068 211.233 42.634 212.037 41.3663 212.72C41.2566 212.549 41.0981 212.367 40.8909 212.172C40.6836 211.977 40.4703 211.806 40.2509 211.66C41.5065 211.014 42.5609 210.258 43.4142 209.392C44.2675 208.527 44.9685 207.6 45.517 206.613C46.0656 205.625 46.4922 204.632 46.797 203.632C47.1017 202.621 47.3272 201.658 47.4735 200.743C47.6198 199.829 47.7112 199.018 47.7478 198.311C47.7966 197.592 47.827 197.031 47.8392 196.629ZM49.302 196.995C49.3142 197.202 49.3386 197.562 49.3752 198.074C49.424 198.573 49.5093 199.183 49.6312 199.902C49.7531 200.621 49.9298 201.402 50.1615 202.243C50.3931 203.084 50.7039 203.949 51.094 204.839C51.4841 205.729 51.9656 206.595 52.5385 207.436C53.1115 208.277 53.8002 209.057 54.6048 209.776C55.4093 210.483 56.354 211.081 57.439 211.568C57.2317 211.727 57.0306 211.909 56.8356 212.117C56.6527 212.336 56.5003 212.537 56.3784 212.72C55.2813 212.196 54.3122 211.556 53.4711 210.8C52.6421 210.032 51.929 209.203 51.3317 208.313C50.7466 207.411 50.2529 206.491 49.8506 205.552C49.4605 204.614 49.1436 203.699 48.8998 202.81C48.656 201.907 48.4731 201.072 48.3512 200.304C48.2293 199.524 48.144 198.86 48.0952 198.311C48.0465 197.751 48.016 197.348 48.0038 197.105L49.302 196.995ZM68.2455 198.933C68.1236 199.884 67.9651 200.877 67.7701 201.914C67.5873 202.95 67.3495 203.955 67.057 204.931C66.6913 206.186 66.2829 207.235 65.8319 208.076C65.393 208.917 64.9176 209.551 64.4056 209.977C63.8936 210.404 63.3573 210.617 62.7965 210.617C62.2602 210.617 61.7421 210.422 61.2423 210.032C60.7425 209.642 60.3341 209.081 60.0172 208.35C59.7002 207.606 59.5418 206.735 59.5418 205.735C59.5418 204.736 59.7429 203.791 60.1452 202.901C60.5596 202.011 61.1265 201.225 61.8457 200.542C62.5771 199.847 63.4304 199.299 64.4056 198.897C65.3808 198.494 66.4231 198.293 67.5324 198.293C68.6051 198.293 69.5682 198.47 70.4215 198.823C71.287 199.177 72.0245 199.664 72.634 200.286C73.2435 200.896 73.7128 201.609 74.0419 202.426C74.3711 203.23 74.5356 204.096 74.5356 205.022C74.5356 206.302 74.2614 207.43 73.7128 208.405C73.1764 209.38 72.3963 210.172 71.3723 210.782C70.3605 211.391 69.1293 211.794 67.6787 211.989L66.8193 210.636C67.1118 210.599 67.3922 210.562 67.6604 210.526C67.9286 210.489 68.1724 210.447 68.3918 210.398C68.9769 210.264 69.5438 210.057 70.0923 209.776C70.6531 209.484 71.1529 209.118 71.5917 208.679C72.0306 208.228 72.378 207.698 72.634 207.088C72.9022 206.467 73.0362 205.76 73.0362 204.967C73.0362 204.224 72.9143 203.535 72.6705 202.901C72.4267 202.255 72.0671 201.688 71.5917 201.2C71.1163 200.713 70.5373 200.329 69.8546 200.048C69.172 199.768 68.3918 199.628 67.5141 199.628C66.5145 199.628 65.6064 199.811 64.7896 200.176C63.9851 200.542 63.2963 201.024 62.7234 201.621C62.1626 202.206 61.7299 202.852 61.4251 203.559C61.1204 204.254 60.968 204.937 60.968 205.607C60.968 206.375 61.0655 207.009 61.2606 207.509C61.4678 207.996 61.7116 208.356 61.992 208.588C62.2845 208.819 62.571 208.935 62.8514 208.935C63.1439 208.935 63.4426 208.795 63.7474 208.515C64.0521 208.222 64.363 207.759 64.6799 207.125C64.9968 206.479 65.3077 205.644 65.6125 204.62C65.8806 203.742 66.1062 202.81 66.289 201.822C66.484 200.835 66.6242 199.866 66.7096 198.915L68.2455 198.933ZM84.9399 205.79H93.0037V212.793H91.6323V207.033H86.2382V212.885H84.9399V205.79ZM92.1991 196.355L93.2048 197.489C92.4612 197.708 91.6079 197.903 90.6449 198.074C89.6819 198.244 88.6884 198.397 87.6644 198.531C86.6404 198.653 85.653 198.75 84.7022 198.823C84.6778 198.665 84.623 198.476 84.5376 198.257C84.4645 198.025 84.3853 197.83 84.2999 197.671C84.9948 197.598 85.7079 197.519 86.4393 197.434C87.1707 197.348 87.8899 197.251 88.597 197.141C89.304 197.019 89.9622 196.897 90.5718 196.775C91.1935 196.641 91.7359 196.501 92.1991 196.355ZM88.1581 197.745H89.5478V206.43H88.1581V197.745ZM83.8611 201.402H93.8631V202.7H83.8611V201.402ZM85.781 210.709H92.3271V211.97H85.781V210.709ZM77.7904 201.694H83.148V202.791H77.7904V201.694ZM77.9001 196.702H83.1114V197.799H77.9001V196.702ZM77.7904 204.199H83.148V205.278H77.7904V204.199ZM76.9127 199.153H83.7331V200.286H76.9127V199.153ZM78.4669 206.704H83.2028V212.025H78.4669V210.91H81.9777V207.838H78.4669V206.704ZM77.7538 206.704H78.9606V212.866H77.7538V206.704ZM102.914 196.958C102.841 197.324 102.744 197.757 102.622 198.257C102.512 198.744 102.329 199.299 102.073 199.92C101.854 200.469 101.579 201.036 101.25 201.621C100.933 202.206 100.592 202.736 100.226 203.212C100.458 203.066 100.72 202.944 101.013 202.846C101.305 202.736 101.604 202.657 101.909 202.608C102.226 202.56 102.512 202.535 102.768 202.535C103.475 202.535 104.072 202.736 104.56 203.139C105.048 203.529 105.291 204.102 105.291 204.857C105.291 205.089 105.291 205.388 105.291 205.753C105.291 206.107 105.291 206.485 105.291 206.887C105.304 207.277 105.316 207.661 105.328 208.039C105.34 208.417 105.346 208.746 105.346 209.027H103.938C103.95 208.783 103.963 208.496 103.975 208.167C103.987 207.838 103.993 207.491 103.993 207.125C104.005 206.759 104.005 206.412 103.993 206.083C103.993 205.753 103.993 205.473 103.993 205.241C103.993 204.705 103.829 204.315 103.499 204.071C103.182 203.815 102.78 203.687 102.293 203.687C101.72 203.687 101.153 203.815 100.592 204.071C100.043 204.315 99.562 204.632 99.1475 205.022C98.8793 205.278 98.6112 205.571 98.343 205.9C98.087 206.217 97.8005 206.558 97.4836 206.924L96.2402 206.009C97.1179 205.156 97.8493 204.358 98.4344 203.614C99.0195 202.87 99.4949 202.182 99.8606 201.548C100.226 200.902 100.513 200.323 100.72 199.811C100.915 199.299 101.074 198.787 101.195 198.275C101.317 197.751 101.391 197.269 101.415 196.83L102.914 196.958ZM96.6607 198.933C97.1483 198.994 97.6786 199.043 98.2515 199.079C98.8245 199.116 99.3243 199.134 99.7509 199.134C100.568 199.134 101.445 199.116 102.384 199.079C103.323 199.031 104.267 198.964 105.218 198.878C106.181 198.793 107.095 198.671 107.961 198.513L107.943 199.866C107.309 199.975 106.632 200.067 105.913 200.14C105.194 200.201 104.462 200.256 103.719 200.304C102.975 200.341 102.256 200.372 101.561 200.396C100.879 200.408 100.245 200.414 99.6595 200.414C99.4035 200.414 99.1049 200.414 98.7635 200.414C98.4344 200.402 98.087 200.39 97.7213 200.378C97.3556 200.353 97.0021 200.329 96.6607 200.304V198.933ZM110.631 203.358C110.472 203.395 110.295 203.45 110.1 203.523C109.918 203.584 109.729 203.651 109.534 203.724C109.351 203.797 109.174 203.87 109.003 203.943C108.369 204.187 107.632 204.486 106.791 204.839C105.95 205.193 105.09 205.601 104.213 206.064C103.603 206.369 103.067 206.692 102.603 207.033C102.14 207.363 101.774 207.71 101.506 208.076C101.238 208.429 101.104 208.819 101.104 209.246C101.104 209.599 101.183 209.886 101.342 210.105C101.512 210.325 101.75 210.495 102.055 210.617C102.36 210.727 102.707 210.8 103.097 210.837C103.499 210.873 103.938 210.892 104.414 210.892C105.121 210.892 105.925 210.855 106.827 210.782C107.742 210.697 108.601 210.587 109.406 210.453L109.369 211.916C108.906 211.977 108.382 212.031 107.796 212.08C107.223 212.129 106.638 212.165 106.041 212.19C105.456 212.226 104.895 212.245 104.359 212.245C103.493 212.245 102.701 212.165 101.982 212.007C101.275 211.849 100.708 211.568 100.281 211.166C99.8545 210.764 99.6412 210.191 99.6412 209.447C99.6412 208.899 99.7692 208.399 100.025 207.948C100.281 207.484 100.623 207.064 101.049 206.686C101.488 206.308 101.97 205.961 102.494 205.644C103.018 205.315 103.554 205.016 104.103 204.748C104.688 204.431 105.236 204.157 105.748 203.925C106.273 203.693 106.766 203.48 107.23 203.285C107.693 203.09 108.126 202.895 108.528 202.7C108.796 202.578 109.052 202.462 109.296 202.352C109.54 202.243 109.783 202.121 110.027 201.987L110.631 203.358ZM117.323 203.87H126.484V204.894H117.323V203.87ZM119.517 205.991H124.345V206.869H119.517V205.991ZM119.517 208.003H124.345V208.88H119.517V208.003ZM123.869 204.327H125.131V212.446H123.869V204.327ZM118.676 204.346H119.901V210.69H118.676V204.346ZM117.104 210.398C117.725 210.361 118.438 210.325 119.243 210.288C120.048 210.239 120.907 210.191 121.821 210.142C122.735 210.081 123.65 210.02 124.564 209.959V211.001C123.223 211.087 121.9 211.172 120.596 211.257C119.292 211.343 118.152 211.422 117.177 211.495L117.104 210.398ZM115.11 199.317H120.249V200.286H115.11V199.317ZM123.54 199.317H128.733V200.286H123.54V199.317ZM128.184 196.849H129.538V211.111C129.538 211.513 129.483 211.83 129.373 212.062C129.275 212.306 129.099 212.489 128.843 212.61C128.562 212.72 128.191 212.787 127.727 212.812C127.276 212.848 126.709 212.86 126.027 212.848C126.015 212.726 125.984 212.58 125.935 212.409C125.899 212.251 125.85 212.086 125.789 211.916C125.74 211.745 125.679 211.599 125.606 211.477C126.106 211.489 126.563 211.495 126.978 211.495C127.392 211.495 127.672 211.495 127.819 211.495C127.953 211.483 128.044 211.452 128.093 211.404C128.154 211.343 128.184 211.245 128.184 211.111V196.849ZM115.238 196.849H121.09V202.846H115.238V201.804H119.792V197.891H115.238V196.849ZM128.843 196.849V197.891H124.015V201.822H128.843V202.864H122.717V196.849H128.843ZM114.416 196.849H115.769V212.903H114.416V196.849ZM143.946 197.927C143.751 198.074 143.532 198.257 143.288 198.476C143.044 198.683 142.843 198.848 142.685 198.97C142.368 199.25 141.984 199.579 141.533 199.957C141.082 200.323 140.606 200.713 140.106 201.127C139.607 201.53 139.125 201.92 138.662 202.298C138.199 202.663 137.796 202.992 137.455 203.285C137.089 203.602 136.846 203.864 136.724 204.071C136.602 204.266 136.602 204.467 136.724 204.675C136.858 204.882 137.12 205.156 137.51 205.497C137.851 205.766 138.241 206.083 138.68 206.448C139.119 206.802 139.582 207.186 140.07 207.6C140.57 208.015 141.075 208.441 141.587 208.88C142.099 209.319 142.593 209.752 143.069 210.178C143.544 210.605 143.971 211.014 144.349 211.404L143.05 212.61C142.672 212.172 142.252 211.727 141.789 211.276C141.472 210.946 141.075 210.562 140.6 210.124C140.125 209.685 139.613 209.228 139.064 208.752C138.528 208.277 137.991 207.82 137.455 207.381C136.931 206.93 136.455 206.528 136.029 206.174C135.444 205.686 135.072 205.26 134.913 204.894C134.755 204.516 134.785 204.144 135.005 203.779C135.224 203.413 135.608 203.005 136.157 202.554C136.498 202.261 136.906 201.92 137.382 201.53C137.869 201.139 138.375 200.731 138.9 200.304C139.424 199.866 139.917 199.445 140.381 199.043C140.856 198.628 141.246 198.263 141.551 197.946C141.734 197.763 141.923 197.556 142.118 197.324C142.325 197.092 142.483 196.891 142.593 196.721L143.946 197.927ZM153.656 198.586C154.314 198.671 155.051 198.732 155.868 198.769C156.697 198.805 157.569 198.823 158.483 198.823C159.068 198.823 159.653 198.811 160.238 198.787C160.836 198.762 161.403 198.732 161.939 198.695C162.487 198.647 162.981 198.604 163.42 198.567V200.067C163.006 200.091 162.524 200.122 161.975 200.158C161.427 200.195 160.848 200.225 160.238 200.25C159.641 200.274 159.056 200.286 158.483 200.286C157.569 200.286 156.715 200.268 155.923 200.231C155.131 200.183 154.375 200.134 153.656 200.085V198.586ZM154.387 205.955C154.265 206.32 154.168 206.674 154.095 207.015C154.034 207.356 154.003 207.698 154.003 208.039C154.003 208.734 154.363 209.301 155.082 209.74C155.801 210.178 156.892 210.398 158.355 210.398C159.196 210.398 160.007 210.367 160.787 210.306C161.567 210.246 162.28 210.16 162.926 210.05C163.585 209.941 164.145 209.813 164.609 209.666L164.627 211.239C164.188 211.361 163.646 211.471 162.999 211.568C162.366 211.666 161.659 211.739 160.878 211.788C160.098 211.849 159.269 211.879 158.392 211.879C157.16 211.879 156.106 211.745 155.228 211.477C154.351 211.209 153.68 210.812 153.217 210.288C152.754 209.764 152.522 209.118 152.522 208.35C152.522 207.875 152.565 207.424 152.65 206.997C152.735 206.57 152.821 206.174 152.906 205.808L154.387 205.955ZM182.528 200.506C182.321 200.64 182.101 200.768 181.87 200.89C181.638 201.011 181.388 201.139 181.12 201.274C180.815 201.444 180.437 201.639 179.986 201.859C179.535 202.078 179.054 202.322 178.542 202.59C178.03 202.858 177.518 203.139 177.006 203.431C176.494 203.724 176.012 204.016 175.561 204.309C174.708 204.857 174.038 205.437 173.55 206.046C173.075 206.656 172.837 207.308 172.837 208.003C172.837 208.758 173.196 209.362 173.916 209.813C174.647 210.252 175.732 210.471 177.17 210.471C177.841 210.471 178.536 210.447 179.255 210.398C179.974 210.337 180.663 210.258 181.321 210.16C181.992 210.063 182.559 209.959 183.022 209.849V211.477C182.571 211.562 182.034 211.635 181.413 211.696C180.803 211.769 180.145 211.824 179.438 211.861C178.731 211.909 177.999 211.934 177.244 211.934C176.378 211.934 175.586 211.861 174.867 211.714C174.147 211.58 173.52 211.367 172.983 211.074C172.459 210.782 172.051 210.398 171.758 209.922C171.465 209.435 171.319 208.85 171.319 208.167C171.319 207.497 171.459 206.881 171.74 206.32C172.02 205.747 172.422 205.205 172.947 204.693C173.471 204.181 174.092 203.687 174.812 203.212C175.275 202.895 175.769 202.59 176.293 202.298C176.829 201.993 177.353 201.7 177.865 201.42C178.377 201.139 178.853 200.884 179.292 200.652C179.743 200.42 180.12 200.225 180.425 200.067C180.681 199.908 180.913 199.768 181.12 199.646C181.327 199.512 181.528 199.366 181.723 199.207L182.528 200.506ZM173.276 197.196C173.556 197.976 173.855 198.738 174.172 199.482C174.501 200.225 174.83 200.92 175.159 201.566C175.5 202.212 175.811 202.785 176.092 203.285L174.83 204.035C174.525 203.535 174.202 202.944 173.861 202.261C173.52 201.578 173.178 200.853 172.837 200.085C172.496 199.317 172.16 198.555 171.831 197.799L173.276 197.196ZM193.682 197.214C193.658 197.385 193.627 197.568 193.591 197.763C193.554 197.946 193.517 198.129 193.481 198.311C193.432 198.519 193.377 198.811 193.316 199.189C193.255 199.567 193.182 199.969 193.097 200.396C193.024 200.81 192.945 201.213 192.859 201.603C192.725 202.115 192.567 202.7 192.384 203.358C192.213 204.004 192.006 204.699 191.762 205.443C191.53 206.174 191.268 206.924 190.976 207.692C190.683 208.447 190.36 209.197 190.007 209.941C189.653 210.684 189.269 211.391 188.855 212.062L187.374 211.458C187.788 210.91 188.178 210.288 188.544 209.593C188.91 208.899 189.245 208.179 189.55 207.436C189.854 206.68 190.129 205.936 190.372 205.205C190.616 204.473 190.823 203.797 190.994 203.175C191.177 202.541 191.317 201.999 191.415 201.548C191.585 200.829 191.726 200.073 191.835 199.28C191.945 198.488 192 197.745 192 197.05L193.682 197.214ZM199.972 199.335C200.265 199.701 200.569 200.164 200.886 200.725C201.216 201.286 201.532 201.877 201.837 202.499C202.154 203.12 202.441 203.724 202.697 204.309C202.965 204.894 203.172 205.4 203.318 205.827L201.91 206.503C201.776 206.028 201.587 205.491 201.344 204.894C201.112 204.297 200.844 203.693 200.539 203.084C200.246 202.462 199.936 201.877 199.606 201.328C199.289 200.768 198.966 200.304 198.637 199.939L199.972 199.335ZM187.099 201.237C187.392 201.249 187.666 201.255 187.922 201.255C188.178 201.255 188.452 201.249 188.745 201.237C189.013 201.225 189.361 201.207 189.787 201.182C190.226 201.146 190.695 201.109 191.195 201.072C191.695 201.024 192.195 200.981 192.695 200.944C193.194 200.896 193.652 200.859 194.066 200.835C194.48 200.798 194.81 200.78 195.053 200.78C195.602 200.78 196.096 200.871 196.535 201.054C196.986 201.225 197.345 201.536 197.613 201.987C197.894 202.426 198.034 203.059 198.034 203.888C198.034 204.608 197.997 205.388 197.924 206.229C197.851 207.058 197.735 207.85 197.577 208.606C197.43 209.35 197.229 209.977 196.973 210.489C196.693 211.099 196.327 211.501 195.876 211.696C195.425 211.903 194.901 212.007 194.304 212.007C193.95 212.007 193.572 211.977 193.17 211.916C192.78 211.867 192.439 211.812 192.146 211.751L191.908 210.215C192.164 210.3 192.433 210.374 192.713 210.434C192.993 210.483 193.261 210.526 193.517 210.562C193.773 210.587 193.981 210.599 194.139 210.599C194.48 210.599 194.785 210.544 195.053 210.434C195.322 210.313 195.553 210.05 195.748 209.648C195.943 209.234 196.102 208.716 196.224 208.094C196.358 207.472 196.455 206.808 196.516 206.101C196.577 205.394 196.608 204.711 196.608 204.053C196.608 203.492 196.528 203.072 196.37 202.791C196.211 202.511 195.986 202.322 195.693 202.224C195.401 202.127 195.06 202.078 194.669 202.078C194.365 202.078 193.95 202.103 193.426 202.151C192.902 202.188 192.341 202.237 191.744 202.298C191.146 202.346 190.592 202.401 190.08 202.462C189.58 202.523 189.19 202.566 188.91 202.59C188.69 202.615 188.416 202.651 188.087 202.7C187.77 202.736 187.496 202.773 187.264 202.81L187.099 201.237ZM200.192 196.684C200.35 196.891 200.515 197.147 200.685 197.452C200.868 197.745 201.051 198.049 201.234 198.366C201.417 198.671 201.569 198.945 201.691 199.189L200.685 199.628C200.576 199.384 200.435 199.11 200.265 198.805C200.094 198.5 199.917 198.196 199.734 197.891C199.552 197.586 199.375 197.318 199.204 197.086L200.192 196.684ZM202.203 195.934C202.361 196.166 202.538 196.434 202.733 196.739C202.928 197.044 203.117 197.348 203.3 197.653C203.483 197.946 203.629 198.208 203.739 198.439L202.751 198.878C202.556 198.476 202.319 198.043 202.038 197.58C201.758 197.105 201.49 196.696 201.234 196.355L202.203 195.934ZM212.388 196.995H220.433V198.275H212.388V196.995ZM211.766 203.431H221.823V204.729H211.766V203.431ZM216.081 200.999H217.453V211.148C217.453 211.562 217.398 211.879 217.288 212.098C217.179 212.318 216.977 212.489 216.685 212.61C216.392 212.708 216.002 212.769 215.515 212.793C215.027 212.83 214.417 212.848 213.686 212.848C213.649 212.665 213.576 212.44 213.467 212.172C213.369 211.916 213.272 211.69 213.174 211.495C213.759 211.507 214.283 211.513 214.747 211.513C215.21 211.525 215.521 211.525 215.679 211.513C215.838 211.501 215.941 211.471 215.99 211.422C216.051 211.373 216.081 211.282 216.081 211.148V200.999ZM219.94 196.995H220.269L220.543 196.922L221.457 197.58C221.092 198.104 220.671 198.641 220.196 199.189C219.72 199.725 219.22 200.237 218.696 200.725C218.184 201.213 217.678 201.645 217.179 202.023C217.081 201.889 216.947 201.743 216.776 201.584C216.618 201.414 216.484 201.286 216.374 201.2C216.813 200.871 217.258 200.481 217.709 200.03C218.16 199.567 218.58 199.098 218.97 198.622C219.373 198.147 219.696 197.708 219.94 197.306V196.995ZM205.001 199.829H211.035V201.127H205.001V199.829ZM207.762 196.062L209.078 196.209C208.895 197.123 208.694 198.098 208.475 199.134C208.255 200.17 208.024 201.213 207.78 202.261C207.536 203.309 207.298 204.315 207.067 205.278C206.835 206.241 206.61 207.1 206.39 207.856L205.257 207.235C205.452 206.54 205.659 205.735 205.878 204.821C206.11 203.894 206.341 202.925 206.573 201.914C206.805 200.89 207.024 199.878 207.231 198.878C207.439 197.866 207.615 196.928 207.762 196.062ZM205.915 206.668L206.683 205.699C207.365 206.077 208.066 206.515 208.786 207.015C209.505 207.503 210.169 208.003 210.779 208.515C211.4 209.027 211.894 209.508 212.26 209.959L211.419 211.074C211.065 210.623 210.584 210.13 209.974 209.593C209.377 209.057 208.725 208.533 208.018 208.021C207.311 207.509 206.61 207.058 205.915 206.668ZM210.578 199.829H210.797L211.035 199.792L211.858 199.957C211.699 202.31 211.37 204.333 210.87 206.028C210.383 207.71 209.73 209.112 208.914 210.233C208.097 211.355 207.128 212.251 206.006 212.921C205.921 212.751 205.793 212.556 205.622 212.336C205.464 212.129 205.311 211.958 205.165 211.824C206.177 211.276 207.061 210.483 207.816 209.447C208.572 208.399 209.182 207.1 209.645 205.552C210.108 203.992 210.419 202.182 210.578 200.122V199.829ZM225.773 198.897C227.053 199.043 228.272 199.128 229.43 199.153C230.6 199.177 231.654 199.146 232.593 199.061C233.337 198.988 234.074 198.878 234.805 198.732C235.549 198.573 236.25 198.391 236.908 198.183L237.109 199.5C236.512 199.671 235.842 199.829 235.098 199.975C234.367 200.122 233.635 200.231 232.904 200.304C231.977 200.39 230.899 200.432 229.667 200.432C228.448 200.42 227.181 200.353 225.864 200.231L225.773 198.897ZM225.425 202.645C226.461 202.755 227.485 202.828 228.497 202.864C229.509 202.889 230.466 202.883 231.368 202.846C232.27 202.81 233.074 202.749 233.781 202.663C234.659 202.566 235.458 202.438 236.177 202.279C236.896 202.121 237.499 201.962 237.987 201.804L238.206 203.175C237.707 203.309 237.122 203.443 236.451 203.578C235.781 203.699 235.061 203.809 234.293 203.907C233.538 203.992 232.678 204.059 231.715 204.108C230.752 204.144 229.734 204.157 228.662 204.144C227.601 204.12 226.547 204.077 225.498 204.016L225.425 202.645ZM231.679 198.659C231.606 198.378 231.52 198.104 231.423 197.836C231.337 197.556 231.252 197.287 231.167 197.031L232.721 196.83C232.782 197.342 232.879 197.879 233.013 198.439C233.148 198.988 233.294 199.53 233.452 200.067C233.611 200.591 233.763 201.066 233.909 201.493C234.08 201.968 234.281 202.474 234.513 203.011C234.744 203.547 235 204.077 235.281 204.601C235.561 205.126 235.86 205.625 236.177 206.101C236.274 206.235 236.378 206.369 236.488 206.503C236.61 206.625 236.731 206.753 236.853 206.887L236.104 208.003C235.762 207.905 235.36 207.826 234.897 207.765C234.434 207.692 233.958 207.631 233.471 207.582C232.983 207.521 232.526 207.466 232.099 207.417L232.227 206.302C232.715 206.351 233.221 206.406 233.745 206.467C234.269 206.528 234.677 206.576 234.97 206.613C234.458 205.821 234.007 205.004 233.617 204.163C233.239 203.322 232.916 202.529 232.648 201.786C232.502 201.371 232.367 200.987 232.246 200.634C232.136 200.268 232.032 199.92 231.935 199.591C231.849 199.262 231.764 198.951 231.679 198.659ZM228.076 206.576C227.857 206.893 227.674 207.216 227.528 207.545C227.382 207.875 227.309 208.24 227.309 208.643C227.309 209.398 227.65 209.965 228.332 210.343C229.027 210.721 230.094 210.91 231.532 210.91C232.386 210.91 233.16 210.879 233.855 210.818C234.549 210.758 235.226 210.66 235.884 210.526L235.829 211.989C235.196 212.086 234.519 212.159 233.8 212.208C233.081 212.269 232.331 212.3 231.551 212.3C230.356 212.3 229.338 212.178 228.497 211.934C227.668 211.69 227.034 211.318 226.595 210.818C226.169 210.319 225.949 209.679 225.937 208.899C225.925 208.374 225.986 207.911 226.12 207.509C226.266 207.094 226.443 206.686 226.65 206.284L228.076 206.576Z" fill="#030000"/>
<path d="M105.507 143.043H116.965" stroke="#10357B" stroke-width="2.21365" stroke-linecap="round" stroke-linejoin="round"/>
<path d="M115.338 76.424C119.072 76.424 122.099 73.3971 122.099 69.6632C122.099 65.9293 119.072 62.9023 115.338 62.9023C111.604 62.9023 108.577 65.9293 108.577 69.6632C108.577 73.3971 111.604 76.424 115.338 76.424Z" stroke="#10357B" stroke-width="2.21365" stroke-linecap="round" stroke-linejoin="round"/>
<path d="M132.955 114.576C134.17 115.826 134.902 117.537 134.902 119.401V135.767C134.89 137.442 134.442 138.929 133.71 140.038C132.979 141.124 131.976 141.796 130.855 141.796C128.625 141.796 126.831 139.094 126.831 135.755V122.245C126.831 121.278 126.041 120.487 125.073 120.487H111.103C108.024 120.487 105.534 117.998 105.534 114.918V90.1873C105.534 84.9013 109.864 80.2761 115.174 80.4295C117.652 80.5003 119.882 81.5384 121.522 83.1667C123.209 84.8657 124.259 87.202 124.259 89.786V98.9185" stroke="#10357B" stroke-width="2.21365" stroke-linecap="round" stroke-linejoin="round"/>
<path d="M151.382 70.2471C151.839 66.5412 149.204 63.167 145.498 62.7106C141.793 62.2543 138.418 64.8886 137.962 68.5946C137.506 72.3005 140.14 75.6746 143.846 76.131C147.552 76.5873 150.926 73.953 151.382 70.2471Z" stroke="#10357B" stroke-width="2.21365" stroke-linecap="round" stroke-linejoin="round"/>
<path d="M130.491 99.0561V89.5936C130.491 84.3076 137.051 79.6824 145.075 79.8357C148.827 79.9065 152.19 80.9446 154.679 82.5729C157.228 84.272 158.821 86.6083 158.821 89.1923V99.2096" stroke="#10357B" stroke-width="2.21365" stroke-linecap="round" stroke-linejoin="round"/>
<path d="M136.144 99.0542V93.4844" stroke="#10357B" stroke-width="2.21365" stroke-linecap="round" stroke-linejoin="round"/>
<path d="M153.468 99.0542V93.4844" stroke="#10357B" stroke-width="2.21365" stroke-linecap="round" stroke-linejoin="round"/>
<path d="M114.151 93.6902L119.06 106.728C120.051 109.371 122.033 111.53 124.582 112.746L128.322 114.539L128.924 114.822C130.304 115.483 131.826 115.33 132.947 114.586C133.466 114.244 133.915 113.749 134.198 113.147C134.434 112.651 134.54 112.132 134.54 111.613C134.54 110.15 133.679 108.698 132.192 108.002L127.567 105.772C126.965 105.489 126.505 104.982 126.269 104.356L124.228 98.9289L121.254 91" stroke="#10357B" stroke-width="2.21365" stroke-linecap="round" stroke-linejoin="round"/>
<path d="M118.618 123.966H111.479C105.875 123.966 101.203 119.718 100.66 114.137C99.8102 105.288 98.8545 93.9375 98.8545 93.9375" stroke="#10357B" stroke-width="2.21365" stroke-linecap="round" stroke-linejoin="round"/>
<path d="M110.987 142.065V123.965" stroke="#10357B" stroke-width="2.21365" stroke-linecap="round" stroke-linejoin="round"/>
<path d="M144.663 103.777V143.068" stroke="#10357B" stroke-width="2.21365" stroke-linecap="round" stroke-linejoin="round"/>
<path d="M159.308 102.973H129.987" stroke="#10357B" stroke-width="2.21365" stroke-linecap="round" stroke-linejoin="round"/>
<path d="M176.599 75.8699C180.049 74.441 181.687 70.4862 180.258 67.0365C178.829 63.5868 174.875 61.9487 171.425 63.3776C167.975 64.8065 166.337 68.7613 167.766 72.211C169.195 75.6607 173.15 77.2989 176.599 75.8699Z" stroke="#10357B" stroke-width="2.21365" stroke-linecap="round" stroke-linejoin="round"/>
<path d="M156.426 114.529C155.211 115.78 154.479 117.491 154.479 119.355V135.72C154.491 137.395 154.94 138.882 155.671 139.991C156.403 141.077 157.406 141.749 158.527 141.749C160.757 141.749 162.55 139.047 162.55 135.708V122.198C162.55 121.231 163.341 120.44 164.308 120.44H178.278C181.358 120.44 183.847 117.951 183.847 114.871V90.1404C183.847 84.8545 179.517 80.2292 174.207 80.3826C171.73 80.4534 169.5 81.4915 167.86 83.1198C166.172 84.8188 165.122 87.1552 165.122 89.7392V98.8716" stroke="#10357B" stroke-width="2.21365" stroke-linecap="round" stroke-linejoin="round"/>
<path d="M175.204 93.6277L170.296 106.666C169.305 109.309 167.322 111.468 164.774 112.683L161.033 114.476L160.432 114.76C159.051 115.42 157.529 115.267 156.408 114.524C155.889 114.182 155.441 113.686 155.158 113.084C154.922 112.589 154.815 112.07 154.815 111.55C154.815 110.087 155.677 108.636 157.163 107.94L161.789 105.71C162.39 105.427 162.85 104.919 163.086 104.294L165.128 98.8664L168.101 90.9375" stroke="#10357B" stroke-width="2.21365" stroke-linecap="round" stroke-linejoin="round"/>
<path d="M170.741 123.903H177.88C183.484 123.903 188.157 119.656 188.699 114.075C189.549 105.226 190.505 93.875 190.505 93.875" stroke="#10357B" stroke-width="2.21365" stroke-linecap="round" stroke-linejoin="round"/>
<path d="M178.37 142.006V123.906" stroke="#10357B" stroke-width="2.21365" stroke-linecap="round" stroke-linejoin="round"/>
<path d="M183.864 142.984H172.405" stroke="#10357B" stroke-width="2.21365" stroke-linecap="round" stroke-linejoin="round"/>
</svg>
