<svg width="288" height="289" viewBox="0 0 288 289" fill="none" xmlns="http://www.w3.org/2000/svg">
<path d="M143.789 287.054C222.328 287.054 285.996 223.149 285.996 144.318C285.996 65.4874 222.328 1.58203 143.789 1.58203C65.2495 1.58203 1.58105 65.4874 1.58105 144.318C1.58105 223.149 65.2495 287.054 143.789 287.054Z" fill="white" stroke="#C5AC7A" stroke-width="3.16236" stroke-miterlimit="10"/>
<path d="M79.857 180.548H94.1377V181.553H79.857V180.548ZM80.7164 182.541H93.388V183.473H80.7164V182.541ZM78.8147 184.57H95.052V185.594H78.8147V184.57ZM82.4169 189.471V190.641H91.6326V189.471H82.4169ZM82.4169 191.519V192.707H91.6326V191.519H82.4169ZM82.4169 187.441V188.593H91.6326V187.441H82.4169ZM81.0638 186.545H93.004V193.603H81.0638V186.545ZM86.2019 179.414H87.6099V185.064H86.2019V179.414ZM88.3962 194.426L89.5481 193.731C90.2186 193.902 90.8951 194.097 91.5778 194.316C92.2604 194.536 92.9065 194.749 93.516 194.956C94.1255 195.164 94.6497 195.359 95.0885 195.541L93.516 196.236C93.1381 196.066 92.6749 195.877 92.1263 195.669C91.59 195.462 91.0049 195.249 90.371 195.029C89.7371 194.81 89.0788 194.609 88.3962 194.426ZM84.1906 193.676L85.4157 194.243C84.9281 194.511 84.3551 194.773 83.6969 195.029C83.0386 195.285 82.3681 195.523 81.6855 195.743C81.015 195.962 80.369 196.145 79.7473 196.291C79.6863 196.194 79.5949 196.078 79.473 195.944C79.3511 195.822 79.2231 195.7 79.089 195.578C78.9671 195.456 78.8574 195.352 78.7599 195.267C79.3937 195.145 80.0398 194.999 80.6981 194.828C81.3686 194.67 82.0085 194.493 82.618 194.298C83.2275 194.103 83.7517 193.896 84.1906 193.676ZM111.856 179.871L112.88 181.023C112.21 181.255 111.46 181.468 110.631 181.663C109.814 181.858 108.955 182.041 108.053 182.212C107.151 182.382 106.236 182.535 105.31 182.669C104.396 182.803 103.5 182.919 102.622 183.016C102.598 182.858 102.543 182.669 102.457 182.449C102.372 182.218 102.293 182.023 102.22 181.864C103.073 181.754 103.945 181.626 104.835 181.48C105.737 181.334 106.614 181.175 107.468 181.005C108.333 180.834 109.138 180.651 109.881 180.456C110.637 180.261 111.295 180.066 111.856 179.871ZM101.616 187.24H113.611V188.556H101.616V187.24ZM102.329 194.207H113.319V195.523H102.329V194.207ZM107.047 181.882H108.437V194.572H107.047V181.882ZM99.4587 184.278L100.812 182.925V182.943V196.236H99.4587V184.278ZM101.452 179.414L102.768 179.834C102.342 180.907 101.836 181.956 101.251 182.979C100.678 184.003 100.056 184.966 99.3856 185.869C98.7151 186.771 98.0203 187.569 97.3011 188.264C97.2523 188.154 97.1731 188.014 97.0634 187.843C96.9658 187.673 96.8622 187.502 96.7525 187.331C96.6428 187.149 96.5453 187.002 96.4599 186.893C97.1182 186.295 97.7521 185.6 98.3616 184.808C98.9833 184.003 99.5562 183.144 100.08 182.23C100.617 181.316 101.074 180.377 101.452 179.414ZM126.759 180.109L127.472 179.304C127.935 179.438 128.416 179.627 128.916 179.871C129.416 180.103 129.812 180.334 130.105 180.566L129.373 181.462C129.093 181.23 128.703 180.986 128.203 180.73C127.715 180.474 127.234 180.267 126.759 180.109ZM117.323 181.279H131.549V182.413H117.323V181.279ZM118.622 183.638H124.217V184.625H118.622V183.638ZM118.914 185.85H120.048V189.196H118.914V185.85ZM128.624 183.29L129.904 183.601C129.392 185.113 128.691 186.472 127.801 187.679C126.911 188.886 125.905 189.891 124.784 190.696C124.723 190.611 124.631 190.513 124.509 190.403C124.388 190.281 124.266 190.159 124.144 190.038C124.022 189.916 123.906 189.818 123.796 189.745C124.906 189.038 125.875 188.13 126.704 187.021C127.533 185.911 128.173 184.668 128.624 183.29ZM124.308 179.414H125.607C125.655 180.816 125.832 182.132 126.137 183.363C126.442 184.595 126.813 185.68 127.252 186.618C127.703 187.557 128.185 188.288 128.697 188.812C129.209 189.337 129.696 189.599 130.16 189.599C130.403 189.587 130.574 189.404 130.672 189.05C130.769 188.697 130.842 188.105 130.891 187.277C131.037 187.398 131.208 187.52 131.403 187.642C131.61 187.752 131.799 187.831 131.97 187.88C131.909 188.648 131.805 189.251 131.659 189.69C131.513 190.117 131.312 190.415 131.056 190.586C130.812 190.757 130.489 190.842 130.086 190.842C129.513 190.842 128.953 190.647 128.404 190.257C127.868 189.867 127.362 189.318 126.887 188.611C126.411 187.892 125.991 187.051 125.625 186.088C125.259 185.125 124.96 184.077 124.729 182.943C124.497 181.809 124.357 180.633 124.308 179.414ZM118.914 185.85H123.924V189.69H118.914V188.721H122.754V186.819H118.914V185.85ZM119.828 191.372H121.182V194.225C121.182 194.456 121.249 194.609 121.383 194.682C121.529 194.743 121.846 194.773 122.334 194.773C122.443 194.773 122.644 194.773 122.937 194.773C123.242 194.773 123.571 194.773 123.924 194.773C124.29 194.773 124.631 194.773 124.948 194.773C125.265 194.773 125.503 194.773 125.661 194.773C125.93 194.773 126.131 194.731 126.265 194.645C126.399 194.56 126.496 194.383 126.557 194.115C126.618 193.835 126.661 193.408 126.685 192.835C126.783 192.908 126.905 192.981 127.051 193.055C127.197 193.116 127.344 193.17 127.49 193.219C127.648 193.268 127.795 193.305 127.929 193.329C127.868 194.048 127.764 194.603 127.618 194.993C127.484 195.383 127.271 195.651 126.978 195.797C126.698 195.944 126.301 196.017 125.789 196.017C125.704 196.017 125.54 196.017 125.296 196.017C125.052 196.017 124.772 196.017 124.455 196.017C124.15 196.017 123.839 196.017 123.522 196.017C123.217 196.017 122.943 196.017 122.699 196.017C122.468 196.017 122.309 196.017 122.224 196.017C121.59 196.017 121.096 195.962 120.743 195.852C120.401 195.755 120.164 195.578 120.03 195.322C119.895 195.066 119.828 194.7 119.828 194.225V191.372ZM121.236 190.787L122.114 190.019C122.504 190.178 122.9 190.379 123.303 190.623C123.705 190.866 124.077 191.122 124.418 191.391C124.772 191.647 125.058 191.897 125.277 192.14L124.327 193.018C124.132 192.774 123.857 192.518 123.504 192.25C123.162 191.982 122.797 191.72 122.407 191.464C122.017 191.208 121.626 190.982 121.236 190.787ZM127.545 191.921L128.678 191.299C129.117 191.641 129.544 192.031 129.958 192.47C130.385 192.896 130.775 193.329 131.129 193.768C131.482 194.207 131.75 194.615 131.933 194.993L130.708 195.669C130.537 195.292 130.288 194.883 129.958 194.444C129.629 193.993 129.258 193.554 128.843 193.128C128.429 192.689 127.996 192.287 127.545 191.921ZM117.506 191.482L118.713 191.921C118.481 192.652 118.164 193.378 117.762 194.097C117.372 194.804 116.854 195.389 116.208 195.852L115.074 195.084C115.684 194.67 116.19 194.14 116.592 193.493C116.994 192.835 117.299 192.165 117.506 191.482ZM116.665 181.279H117.945V184.022C117.945 184.558 117.921 185.137 117.872 185.759C117.823 186.368 117.726 186.996 117.579 187.642C117.433 188.288 117.226 188.916 116.958 189.526C116.702 190.135 116.366 190.696 115.952 191.208C115.891 191.122 115.793 191.025 115.659 190.915C115.538 190.793 115.41 190.684 115.275 190.586C115.141 190.476 115.026 190.403 114.928 190.367C115.452 189.733 115.836 189.044 116.08 188.3C116.324 187.545 116.482 186.795 116.555 186.051C116.629 185.308 116.665 184.631 116.665 184.022V181.279ZM141.039 180.31C140.966 180.676 140.869 181.108 140.747 181.608C140.637 182.096 140.454 182.65 140.198 183.272C139.979 183.821 139.704 184.387 139.375 184.973C139.058 185.558 138.717 186.088 138.351 186.563C138.583 186.417 138.845 186.295 139.138 186.198C139.43 186.088 139.729 186.009 140.034 185.96C140.351 185.911 140.637 185.887 140.893 185.887C141.6 185.887 142.197 186.088 142.685 186.49C143.173 186.88 143.416 187.453 143.416 188.209C143.416 188.441 143.416 188.739 143.416 189.105C143.416 189.459 143.416 189.836 143.416 190.239C143.429 190.629 143.441 191.013 143.453 191.391C143.465 191.769 143.471 192.098 143.471 192.378H142.063C142.075 192.134 142.088 191.848 142.1 191.519C142.112 191.19 142.118 190.842 142.118 190.476C142.13 190.111 142.13 189.763 142.118 189.434C142.118 189.105 142.118 188.825 142.118 188.593C142.118 188.057 141.954 187.667 141.624 187.423C141.307 187.167 140.905 187.039 140.418 187.039C139.845 187.039 139.278 187.167 138.717 187.423C138.168 187.667 137.687 187.984 137.273 188.374C137.004 188.63 136.736 188.922 136.468 189.251C136.212 189.568 135.926 189.91 135.609 190.275L134.365 189.361C135.243 188.508 135.974 187.709 136.559 186.966C137.145 186.222 137.62 185.533 137.986 184.899C138.351 184.253 138.638 183.674 138.845 183.162C139.04 182.65 139.199 182.138 139.32 181.626C139.442 181.102 139.516 180.621 139.54 180.182L141.039 180.31ZM134.786 182.285C135.273 182.346 135.804 182.394 136.377 182.431C136.949 182.467 137.449 182.486 137.876 182.486C138.693 182.486 139.57 182.467 140.509 182.431C141.448 182.382 142.392 182.315 143.343 182.23C144.306 182.144 145.22 182.023 146.086 181.864L146.068 183.217C145.434 183.327 144.757 183.418 144.038 183.491C143.319 183.552 142.587 183.607 141.844 183.656C141.1 183.693 140.381 183.723 139.686 183.747C139.004 183.76 138.37 183.766 137.785 183.766C137.529 183.766 137.23 183.766 136.889 183.766C136.559 183.754 136.212 183.741 135.846 183.729C135.481 183.705 135.127 183.68 134.786 183.656V182.285ZM148.756 186.71C148.597 186.746 148.42 186.801 148.225 186.874C148.043 186.935 147.854 187.002 147.659 187.075C147.476 187.149 147.299 187.222 147.128 187.295C146.494 187.539 145.757 187.837 144.916 188.191C144.075 188.544 143.215 188.953 142.338 189.416C141.728 189.721 141.192 190.044 140.728 190.385C140.265 190.714 139.899 191.062 139.631 191.427C139.363 191.781 139.229 192.171 139.229 192.597C139.229 192.951 139.308 193.237 139.467 193.457C139.637 193.676 139.875 193.847 140.18 193.969C140.485 194.079 140.832 194.152 141.222 194.188C141.624 194.225 142.063 194.243 142.539 194.243C143.246 194.243 144.05 194.207 144.952 194.133C145.867 194.048 146.726 193.938 147.531 193.804L147.494 195.267C147.031 195.328 146.507 195.383 145.921 195.432C145.348 195.48 144.763 195.517 144.166 195.541C143.581 195.578 143.02 195.596 142.484 195.596C141.618 195.596 140.826 195.517 140.107 195.359C139.4 195.2 138.833 194.92 138.406 194.517C137.98 194.115 137.766 193.542 137.766 192.799C137.766 192.25 137.894 191.75 138.15 191.299C138.406 190.836 138.748 190.415 139.174 190.038C139.613 189.66 140.095 189.312 140.619 188.995C141.143 188.666 141.679 188.368 142.228 188.099C142.813 187.782 143.361 187.508 143.873 187.277C144.398 187.045 144.891 186.832 145.355 186.637C145.818 186.441 146.251 186.246 146.653 186.051C146.921 185.929 147.177 185.814 147.421 185.704C147.665 185.594 147.908 185.472 148.152 185.338L148.756 186.71ZM158.465 181.791H167.589V183.034H158.465V181.791ZM157.734 188.666H168.357V189.928H157.734V188.666ZM157.533 185.357H168.467V186.618H157.533V185.357ZM162.36 179.505H163.676V186.033H162.36V179.505ZM164.773 186.344H166.09V194.572C166.09 194.987 166.035 195.298 165.925 195.505C165.828 195.724 165.639 195.889 165.359 195.999C165.103 196.108 164.743 196.169 164.28 196.181C163.817 196.206 163.25 196.218 162.579 196.218C162.555 196.023 162.5 195.797 162.415 195.541C162.342 195.298 162.256 195.078 162.159 194.883C162.671 194.908 163.14 194.92 163.567 194.92C163.993 194.92 164.28 194.914 164.426 194.901C164.56 194.901 164.652 194.877 164.7 194.828C164.749 194.78 164.773 194.694 164.773 194.572V186.344ZM159.105 191.043L160.166 190.44C160.434 190.757 160.702 191.104 160.97 191.482C161.238 191.86 161.488 192.232 161.72 192.597C161.951 192.963 162.128 193.292 162.25 193.585L161.116 194.298C160.995 194.005 160.824 193.67 160.604 193.292C160.397 192.914 160.159 192.53 159.891 192.14C159.635 191.738 159.373 191.372 159.105 191.043ZM151.425 189.123C152.132 188.928 152.998 188.678 154.022 188.374C155.046 188.057 156.082 187.734 157.13 187.404L157.313 188.666C156.35 188.983 155.381 189.3 154.406 189.617C153.443 189.934 152.565 190.22 151.773 190.476L151.425 189.123ZM151.681 183.107H157.258V184.387H151.681V183.107ZM154.04 179.432H155.32V194.591C155.32 194.956 155.271 195.243 155.174 195.45C155.088 195.657 154.93 195.816 154.698 195.925C154.479 196.035 154.186 196.108 153.821 196.145C153.455 196.181 152.98 196.194 152.394 196.181C152.382 196.011 152.333 195.797 152.248 195.541C152.175 195.298 152.096 195.084 152.01 194.901C152.4 194.914 152.754 194.92 153.071 194.92C153.4 194.92 153.619 194.92 153.729 194.92C153.839 194.92 153.918 194.895 153.967 194.847C154.016 194.798 154.04 194.706 154.04 194.572V179.432ZM172.124 187.478C172.404 187.417 172.685 187.35 172.965 187.277C173.258 187.191 173.55 187.106 173.843 187.021C174.16 186.923 174.574 186.789 175.086 186.618C175.598 186.448 176.153 186.283 176.75 186.125C177.348 185.966 177.951 185.826 178.561 185.704C179.182 185.582 179.761 185.521 180.298 185.521C181.163 185.521 181.931 185.686 182.602 186.015C183.272 186.344 183.796 186.813 184.174 187.423C184.564 188.02 184.759 188.739 184.759 189.58C184.759 190.458 184.558 191.232 184.156 191.903C183.754 192.561 183.181 193.122 182.437 193.585C181.706 194.048 180.828 194.414 179.804 194.682C178.792 194.95 177.671 195.121 176.439 195.194L175.854 193.786C176.842 193.749 177.78 193.652 178.67 193.493C179.56 193.323 180.352 193.073 181.047 192.744C181.742 192.415 182.285 191.988 182.675 191.464C183.077 190.927 183.278 190.287 183.278 189.544C183.278 189.02 183.15 188.556 182.894 188.154C182.638 187.752 182.278 187.435 181.815 187.203C181.364 186.96 180.822 186.838 180.188 186.838C179.737 186.838 179.231 186.899 178.67 187.021C178.109 187.13 177.53 187.277 176.933 187.459C176.336 187.642 175.763 187.837 175.214 188.044C174.666 188.24 174.178 188.422 173.751 188.593C173.325 188.752 172.99 188.88 172.746 188.977L172.124 187.478ZM188.127 182.632C188.481 182.62 188.798 182.608 189.078 182.595C189.358 182.571 189.584 182.553 189.755 182.541C190.047 182.504 190.468 182.461 191.016 182.413C191.577 182.352 192.217 182.291 192.936 182.23C193.655 182.157 194.43 182.084 195.258 182.01C196.087 181.937 196.922 181.864 197.764 181.791C198.434 181.73 199.068 181.681 199.665 181.645C200.263 181.596 200.817 181.559 201.329 181.535C201.841 181.498 202.298 181.474 202.701 181.462V182.925C202.359 182.912 201.969 182.912 201.53 182.925C201.091 182.937 200.659 182.967 200.232 183.016C199.805 183.053 199.434 183.12 199.117 183.217C198.471 183.424 197.885 183.741 197.361 184.168C196.849 184.582 196.41 185.064 196.045 185.613C195.679 186.149 195.399 186.716 195.204 187.313C195.021 187.898 194.929 188.459 194.929 188.995C194.929 189.715 195.051 190.342 195.295 190.879C195.539 191.403 195.868 191.848 196.282 192.214C196.709 192.579 197.191 192.878 197.727 193.109C198.276 193.341 198.848 193.512 199.446 193.621C200.043 193.731 200.64 193.798 201.238 193.823L200.707 195.34C200.037 195.316 199.354 195.218 198.66 195.048C197.977 194.889 197.325 194.658 196.703 194.353C196.081 194.036 195.527 193.64 195.039 193.164C194.551 192.689 194.167 192.134 193.887 191.5C193.607 190.866 193.467 190.141 193.467 189.324C193.467 188.374 193.631 187.496 193.96 186.691C194.302 185.875 194.734 185.162 195.258 184.552C195.783 183.943 196.325 183.473 196.886 183.144C196.496 183.193 196.014 183.248 195.441 183.309C194.868 183.37 194.247 183.437 193.576 183.51C192.918 183.571 192.26 183.644 191.601 183.729C190.943 183.815 190.321 183.9 189.736 183.985C189.163 184.058 188.682 184.138 188.292 184.223L188.127 182.632Z" fill="#030000"/>
<path d="M76.9 206.316L78.1617 206.554C77.9301 207.554 77.6436 208.523 77.3023 209.461C76.961 210.388 76.577 211.253 76.1503 212.058C75.7237 212.85 75.2483 213.551 74.7241 214.161C74.6632 214.087 74.5656 214.002 74.4315 213.905C74.2974 213.795 74.1634 213.691 74.0293 213.594C73.8952 213.496 73.7733 213.423 73.6636 213.374C74.1755 212.814 74.6388 212.161 75.0532 211.418C75.4677 210.674 75.8273 209.87 76.1321 209.004C76.449 208.139 76.705 207.243 76.9 206.316ZM83.2084 209.388H84.525C84.525 209.388 84.5189 209.431 84.5067 209.516C84.5067 209.601 84.5067 209.705 84.5067 209.827C84.5067 209.937 84.5006 210.022 84.4884 210.083C84.3909 212.167 84.2873 213.935 84.1776 215.386C84.0678 216.824 83.952 218.007 83.8301 218.933C83.7204 219.859 83.5924 220.579 83.4461 221.091C83.2999 221.603 83.1353 221.968 82.9524 222.188C82.7574 222.444 82.5624 222.621 82.3673 222.718C82.1845 222.816 81.9529 222.883 81.6725 222.919C81.4165 222.944 81.1056 222.956 80.7399 222.956C80.3742 222.956 79.9902 222.944 79.588 222.919C79.5636 222.712 79.5209 222.48 79.46 222.224C79.399 221.968 79.3137 221.743 79.204 221.548C79.6184 221.584 79.9963 221.609 80.3377 221.621C80.679 221.633 80.935 221.639 81.1056 221.639C81.2641 221.639 81.3921 221.621 81.4896 221.584C81.5993 221.536 81.703 221.456 81.8005 221.347C81.9468 221.176 82.0869 220.847 82.221 220.359C82.3551 219.872 82.477 219.177 82.5867 218.275C82.7086 217.373 82.8184 216.221 82.9159 214.819C83.0134 213.417 83.1109 211.71 83.2084 209.699V209.388ZM76.772 209.388H83.757V210.668H76.1869L76.772 209.388ZM78.6371 209.79L79.6794 210.302C79.4234 211.375 79.0638 212.472 78.6006 213.594C78.1495 214.703 77.6193 215.733 77.0098 216.684C76.4124 217.635 75.7664 218.415 75.0715 219.024C74.9374 218.89 74.7668 218.75 74.5595 218.604C74.3645 218.445 74.1755 218.317 73.9927 218.22C74.5291 217.793 75.035 217.269 75.5104 216.647C75.9858 216.026 76.4246 215.337 76.8269 214.581C77.2292 213.813 77.5827 213.021 77.8874 212.204C78.1922 211.387 78.4421 210.583 78.6371 209.79ZM81.2336 209.882L82.349 210.394C82.1174 211.625 81.8127 212.85 81.4348 214.069C81.0691 215.276 80.6363 216.434 80.1365 217.543C79.6367 218.64 79.0638 219.64 78.4177 220.542C77.7838 221.444 77.0768 222.206 76.2966 222.828C76.1625 222.694 75.9858 222.547 75.7664 222.389C75.5469 222.23 75.3397 222.102 75.1447 222.005C75.937 221.432 76.6562 220.713 77.3023 219.847C77.9606 218.97 78.5396 217.994 79.0394 216.922C79.5514 215.849 79.9902 214.715 80.3559 213.521C80.7216 212.314 81.0142 211.101 81.2336 209.882ZM67.7757 216.464C68.3609 216.318 69.0191 216.141 69.7505 215.934C70.4941 215.727 71.2804 215.501 72.1093 215.258C72.9504 215.002 73.7794 214.746 74.5961 214.49L74.779 215.697C73.6331 216.062 72.475 216.434 71.3048 216.812C70.1345 217.178 69.0801 217.501 68.1414 217.781L67.7757 216.464ZM71.1951 206.334H72.475V223.139H71.1951V206.334ZM68.9277 207.377L70.1162 207.56C70.0309 208.376 69.9212 209.187 69.7871 209.992C69.653 210.784 69.4945 211.534 69.3117 212.241C69.141 212.935 68.9399 213.557 68.7083 214.106C68.6351 214.045 68.5315 213.978 68.3974 213.905C68.2755 213.819 68.1475 213.74 68.0134 213.667C67.8793 213.594 67.7635 213.533 67.666 213.484C67.8976 212.972 68.0927 212.387 68.2511 211.729C68.4096 211.058 68.5437 210.351 68.6534 209.608C68.7753 208.864 68.8667 208.12 68.9277 207.377ZM69.0557 210.065H74.3584V211.381H68.8363L69.0557 210.065ZM93.8139 206.316H95.2035V221.603C95.2035 222.017 95.1365 222.322 95.0024 222.517C94.8805 222.724 94.6733 222.877 94.3807 222.974C94.1003 223.072 93.7102 223.133 93.2104 223.157C92.7228 223.181 92.095 223.193 91.3271 223.193C91.2905 223.023 91.2235 222.822 91.1259 222.59C91.0284 222.371 90.9309 222.188 90.8334 222.041C91.1991 222.054 91.5526 222.06 91.8939 222.06C92.2474 222.06 92.5522 222.054 92.8082 222.041C93.0764 222.041 93.2592 222.041 93.3567 222.041C93.5274 222.029 93.6432 221.993 93.7041 221.932C93.7773 221.871 93.8139 221.761 93.8139 221.603V206.316ZM86.6461 207.779H102.518V208.913H86.6461V207.779ZM89.8825 210.961V212.259H99.2994V210.961H89.8825ZM88.566 209.992H100.689V213.228H88.566V209.992ZM88.0357 214.526H100.982V221.164H99.592V215.532H88.0357V214.526ZM86.2986 216.812H102.883V217.909H86.2986V216.812ZM87.8712 219.28H100.305V220.359H87.8712V219.28ZM112.044 209.333C112.544 209.406 113.123 209.467 113.781 209.516C114.452 209.553 115.14 209.571 115.848 209.571C116.567 209.559 117.249 209.534 117.895 209.498C118.554 209.449 119.108 209.388 119.559 209.315V210.796C119.072 210.845 118.499 210.888 117.841 210.924C117.195 210.948 116.518 210.961 115.811 210.961C115.116 210.961 114.44 210.948 113.781 210.924C113.123 210.888 112.544 210.845 112.044 210.796V209.333ZM112.757 216.775C112.672 217.104 112.605 217.403 112.556 217.671C112.507 217.94 112.483 218.202 112.483 218.458C112.483 218.665 112.526 218.872 112.611 219.079C112.709 219.274 112.867 219.451 113.086 219.61C113.318 219.756 113.635 219.878 114.037 219.975C114.44 220.061 114.952 220.103 115.573 220.103C116.402 220.103 117.182 220.067 117.914 219.994C118.645 219.908 119.377 219.786 120.108 219.628L120.145 221.164C119.572 221.286 118.901 221.383 118.133 221.456C117.377 221.517 116.524 221.548 115.573 221.548C114.037 221.548 112.91 221.304 112.19 220.816C111.483 220.329 111.13 219.658 111.13 218.805C111.13 218.5 111.154 218.177 111.203 217.836C111.264 217.482 111.343 217.086 111.441 216.647L112.757 216.775ZM108.552 207.925C108.527 208.023 108.491 208.151 108.442 208.309C108.405 208.456 108.363 208.608 108.314 208.766C108.277 208.913 108.247 209.041 108.223 209.15C108.162 209.492 108.089 209.888 108.003 210.339C107.918 210.778 107.833 211.253 107.747 211.765C107.674 212.265 107.601 212.777 107.528 213.301C107.467 213.813 107.412 214.313 107.363 214.801C107.327 215.288 107.308 215.739 107.308 216.154C107.308 216.605 107.321 217.031 107.345 217.434C107.381 217.836 107.424 218.263 107.473 218.714C107.583 218.433 107.698 218.135 107.82 217.818C107.942 217.501 108.064 217.19 108.186 216.885C108.32 216.568 108.436 216.288 108.533 216.044L109.301 216.629C109.143 217.068 108.972 217.549 108.789 218.074C108.607 218.598 108.442 219.104 108.296 219.591C108.162 220.067 108.064 220.445 108.003 220.725C107.979 220.859 107.954 221.005 107.93 221.164C107.906 221.322 107.9 221.45 107.912 221.548C107.924 221.645 107.93 221.749 107.93 221.859C107.942 221.981 107.954 222.09 107.967 222.188L106.65 222.279C106.467 221.633 106.309 220.804 106.175 219.792C106.041 218.768 105.974 217.641 105.974 216.41C105.974 215.739 106.004 215.057 106.065 214.362C106.126 213.655 106.205 212.972 106.303 212.314C106.4 211.643 106.492 211.034 106.577 210.485C106.674 209.924 106.748 209.455 106.796 209.077C106.833 208.858 106.863 208.638 106.888 208.419C106.912 208.187 106.924 207.974 106.924 207.779L108.552 207.925ZM131.335 208.84H138.101V210.174H131.335V208.84ZM122.869 207.45H131.792V208.748H122.869V207.45ZM125.008 211.18H129.744V212.423H125.008V211.18ZM125.008 214.983H129.744V216.227H125.008V214.983ZM137.68 208.84H137.936L138.174 208.785L139.051 209.022C138.759 211.46 138.265 213.575 137.57 215.367C136.876 217.147 136.01 218.659 134.974 219.902C133.95 221.133 132.78 222.127 131.463 222.883C131.353 222.712 131.213 222.511 131.043 222.279C130.872 222.06 130.713 221.883 130.567 221.749C131.774 221.127 132.865 220.237 133.84 219.079C134.815 217.921 135.632 216.513 136.29 214.855C136.961 213.198 137.424 211.296 137.68 209.15V208.84ZM132.999 210.248C133.328 212.003 133.791 213.636 134.389 215.148C134.986 216.66 135.73 217.988 136.62 219.134C137.522 220.268 138.6 221.158 139.856 221.804C139.758 221.889 139.649 221.999 139.527 222.133C139.405 222.267 139.289 222.401 139.179 222.535C139.07 222.681 138.978 222.816 138.905 222.937C137.576 222.194 136.443 221.219 135.504 220.012C134.578 218.793 133.804 217.385 133.182 215.788C132.572 214.179 132.073 212.417 131.683 210.504L132.999 210.248ZM124.277 207.944H125.594V219.811H124.277V207.944ZM129.177 207.944H130.512V223.102H129.177V207.944ZM122.485 219.427C123.095 219.341 123.789 219.25 124.57 219.152C125.35 219.043 126.179 218.927 127.056 218.805C127.946 218.671 128.836 218.537 129.726 218.403L129.799 219.664C128.544 219.872 127.288 220.079 126.032 220.286C124.789 220.481 123.692 220.646 122.741 220.78L122.485 219.427ZM146.475 207.249C146.378 207.59 146.28 207.986 146.183 208.437C146.097 208.876 146.012 209.339 145.927 209.827C145.854 210.302 145.786 210.76 145.726 211.198C145.677 211.637 145.64 212.015 145.616 212.332C145.811 211.869 146.067 211.393 146.384 210.906C146.701 210.418 147.079 209.973 147.517 209.571C147.956 209.157 148.432 208.821 148.944 208.565C149.468 208.309 150.016 208.181 150.589 208.181C151.406 208.181 152.125 208.437 152.747 208.949C153.381 209.461 153.875 210.187 154.228 211.125C154.582 212.064 154.758 213.173 154.758 214.453C154.758 215.721 154.569 216.824 154.192 217.763C153.814 218.689 153.283 219.475 152.601 220.122C151.918 220.768 151.101 221.292 150.151 221.694C149.212 222.096 148.176 222.395 147.042 222.59L146.183 221.274C147.17 221.127 148.09 220.908 148.944 220.615C149.809 220.31 150.565 219.902 151.211 219.39C151.857 218.866 152.357 218.202 152.71 217.397C153.076 216.592 153.259 215.617 153.259 214.471C153.259 213.508 153.149 212.655 152.93 211.911C152.71 211.156 152.387 210.564 151.961 210.138C151.534 209.711 150.998 209.498 150.352 209.498C149.779 209.498 149.23 209.681 148.706 210.046C148.182 210.412 147.7 210.888 147.262 211.473C146.835 212.046 146.487 212.667 146.219 213.338C145.951 213.996 145.786 214.624 145.726 215.221C145.677 215.575 145.652 215.922 145.652 216.263C145.665 216.605 145.701 217.007 145.762 217.47L144.354 217.58C144.305 217.239 144.257 216.818 144.208 216.318C144.171 215.818 144.153 215.27 144.153 214.673C144.153 214.246 144.171 213.77 144.208 213.246C144.257 212.71 144.305 212.174 144.354 211.637C144.415 211.089 144.476 210.564 144.537 210.065C144.61 209.565 144.671 209.132 144.72 208.766C144.756 208.486 144.787 208.218 144.811 207.962C144.836 207.694 144.854 207.438 144.866 207.194L146.475 207.249ZM168.18 211.966H174.104V213.228H168.18V211.966ZM168.18 216.592H174.104V217.854H168.18V216.592ZM167.467 207.34H174.836V222.133H173.464V208.602H168.783V222.133H167.467V207.34ZM165.528 221.365H176.244V222.608H165.528V221.365ZM162.127 206.316L163.352 206.792C163.133 207.23 162.889 207.694 162.621 208.181C162.353 208.669 162.091 209.138 161.835 209.589C161.579 210.028 161.329 210.418 161.085 210.76L160.134 210.339C160.366 209.985 160.604 209.577 160.847 209.114C161.091 208.638 161.329 208.157 161.561 207.669C161.792 207.17 161.981 206.718 162.127 206.316ZM164.34 208.401L165.547 208.913C165.12 209.608 164.645 210.339 164.12 211.107C163.608 211.863 163.09 212.6 162.566 213.319C162.042 214.039 161.548 214.66 161.085 215.185L160.207 214.727C160.561 214.313 160.927 213.844 161.305 213.319C161.682 212.795 162.054 212.247 162.42 211.674C162.798 211.101 163.151 210.534 163.48 209.973C163.81 209.413 164.096 208.888 164.34 208.401ZM159.257 210.174L159.933 209.26C160.274 209.541 160.622 209.851 160.975 210.193C161.329 210.534 161.652 210.875 161.945 211.217C162.237 211.546 162.463 211.844 162.621 212.113L161.89 213.173C161.719 212.881 161.487 212.558 161.195 212.204C160.914 211.851 160.604 211.497 160.262 211.144C159.921 210.79 159.586 210.467 159.257 210.174ZM163.755 212.643L164.779 212.204C165.047 212.606 165.303 213.033 165.547 213.484C165.791 213.935 166.004 214.374 166.187 214.801C166.382 215.227 166.522 215.611 166.607 215.953L165.528 216.464C165.431 216.123 165.291 215.733 165.108 215.294C164.925 214.855 164.718 214.404 164.486 213.941C164.255 213.478 164.011 213.045 163.755 212.643ZM159.22 214.49C160.037 214.465 161.018 214.435 162.164 214.398C163.31 214.35 164.486 214.295 165.693 214.234V215.367C164.535 215.441 163.401 215.508 162.292 215.569C161.183 215.629 160.195 215.684 159.33 215.733L159.22 214.49ZM164.23 217.031L165.254 216.684C165.522 217.245 165.772 217.854 166.004 218.512C166.248 219.171 166.418 219.738 166.516 220.213L165.382 220.597C165.297 220.109 165.144 219.536 164.925 218.878C164.706 218.208 164.474 217.592 164.23 217.031ZM160.226 216.775L161.396 216.976C161.274 217.842 161.103 218.695 160.884 219.536C160.665 220.365 160.409 221.072 160.116 221.657C160.031 221.597 159.921 221.536 159.787 221.475C159.665 221.414 159.531 221.353 159.385 221.292C159.251 221.219 159.129 221.164 159.019 221.127C159.336 220.566 159.586 219.902 159.769 219.134C159.964 218.354 160.116 217.568 160.226 216.775ZM162.329 215.02H163.572V223.175H162.329V215.02ZM189.08 207.523C189.043 207.669 189.007 207.834 188.97 208.017C188.933 208.187 188.897 208.358 188.86 208.529C188.836 208.699 188.805 208.84 188.769 208.949C188.598 209.717 188.391 210.51 188.147 211.326C187.916 212.143 187.654 212.954 187.361 213.758C187.068 214.563 186.751 215.313 186.41 216.007C186.081 216.702 185.734 217.306 185.368 217.818C184.905 218.451 184.435 219.024 183.96 219.536C183.497 220.036 183.021 220.426 182.534 220.707C182.046 220.987 181.522 221.127 180.961 221.127C180.51 221.127 180.09 220.999 179.699 220.743C179.309 220.487 178.999 220.115 178.767 219.628C178.535 219.14 178.419 218.543 178.419 217.836C178.419 217.068 178.56 216.3 178.84 215.532C179.133 214.764 179.529 214.057 180.029 213.411C180.541 212.765 181.114 212.228 181.747 211.802C182.649 211.18 183.558 210.741 184.472 210.485C185.386 210.229 186.307 210.101 187.233 210.101C188.428 210.101 189.488 210.351 190.415 210.851C191.353 211.351 192.085 212.052 192.609 212.954C193.145 213.844 193.413 214.886 193.413 216.081C193.413 217.287 193.139 218.342 192.591 219.244C192.054 220.134 191.292 220.853 190.305 221.402C189.33 221.938 188.19 222.297 186.886 222.48L186.026 221.182C186.989 221.097 187.836 220.914 188.568 220.634C189.311 220.353 189.933 219.987 190.433 219.536C190.933 219.085 191.311 218.561 191.567 217.964C191.835 217.367 191.969 216.72 191.969 216.026C191.969 215.124 191.768 214.325 191.365 213.63C190.963 212.923 190.39 212.369 189.647 211.966C188.915 211.564 188.062 211.363 187.087 211.363C186.197 211.363 185.35 211.509 184.545 211.802C183.753 212.082 182.997 212.484 182.278 213.009C181.766 213.374 181.321 213.825 180.943 214.362C180.565 214.898 180.266 215.459 180.047 216.044C179.84 216.617 179.736 217.178 179.736 217.726C179.736 218.336 179.858 218.817 180.102 219.171C180.358 219.512 180.693 219.683 181.107 219.683C181.4 219.683 181.699 219.597 182.003 219.427C182.308 219.244 182.607 219.006 182.899 218.714C183.192 218.421 183.472 218.098 183.74 217.744C184.021 217.379 184.271 217.013 184.49 216.647C184.795 216.172 185.094 215.623 185.386 215.002C185.679 214.38 185.953 213.716 186.209 213.009C186.477 212.289 186.709 211.57 186.904 210.851C187.111 210.12 187.276 209.425 187.398 208.766C187.434 208.584 187.458 208.358 187.471 208.09C187.495 207.822 187.507 207.584 187.507 207.377L189.08 207.523ZM181.601 208.346C181.65 208.602 181.705 208.876 181.766 209.169C181.839 209.449 181.906 209.717 181.967 209.973C182.089 210.412 182.241 210.906 182.424 211.454C182.607 212.003 182.796 212.551 182.991 213.1C183.198 213.649 183.411 214.167 183.631 214.654C183.85 215.13 184.057 215.526 184.252 215.843C184.569 216.379 184.929 216.928 185.331 217.488C185.734 218.049 186.154 218.537 186.593 218.951L185.441 219.902C185.075 219.488 184.722 219.049 184.38 218.586C184.039 218.122 183.698 217.592 183.357 216.995C183.125 216.641 182.893 216.215 182.662 215.715C182.43 215.203 182.192 214.654 181.949 214.069C181.717 213.484 181.491 212.887 181.272 212.277C181.053 211.655 180.858 211.058 180.687 210.485C180.602 210.193 180.504 209.906 180.394 209.626C180.297 209.333 180.193 209.071 180.083 208.84L181.601 208.346ZM199.484 208.2C199.691 208.224 199.911 208.242 200.142 208.254C200.386 208.267 200.599 208.273 200.782 208.273C200.965 208.273 201.264 208.267 201.678 208.254C202.105 208.242 202.58 208.23 203.105 208.218C203.641 208.193 204.171 208.175 204.695 208.163C205.232 208.139 205.707 208.114 206.122 208.09C206.548 208.065 206.859 208.047 207.054 208.035C207.322 208.011 207.53 207.986 207.676 207.962C207.822 207.937 207.944 207.913 208.042 207.889L208.883 208.949C208.724 209.059 208.554 209.175 208.371 209.297C208.2 209.419 208.029 209.553 207.859 209.699C207.627 209.87 207.316 210.12 206.926 210.449C206.536 210.766 206.103 211.125 205.628 211.527C205.165 211.918 204.708 212.302 204.256 212.679C203.805 213.057 203.397 213.399 203.031 213.703C203.458 213.557 203.885 213.46 204.311 213.411C204.75 213.35 205.171 213.319 205.573 213.319C206.585 213.319 207.481 213.508 208.261 213.886C209.053 214.252 209.669 214.758 210.108 215.404C210.559 216.05 210.784 216.788 210.784 217.616C210.784 218.592 210.528 219.445 210.016 220.176C209.504 220.908 208.779 221.469 207.84 221.859C206.902 222.261 205.786 222.462 204.494 222.462C203.665 222.462 202.952 222.352 202.355 222.133C201.758 221.913 201.294 221.609 200.965 221.219C200.648 220.829 200.49 220.378 200.49 219.866C200.49 219.451 200.606 219.061 200.837 218.695C201.069 218.33 201.398 218.037 201.825 217.818C202.251 217.598 202.745 217.488 203.306 217.488C204.122 217.488 204.799 217.659 205.335 218C205.872 218.33 206.286 218.768 206.579 219.317C206.871 219.853 207.036 220.432 207.072 221.054L205.756 221.274C205.707 220.493 205.463 219.853 205.024 219.354C204.598 218.842 204.019 218.586 203.287 218.586C202.873 218.586 202.525 218.701 202.245 218.933C201.965 219.165 201.825 219.439 201.825 219.756C201.825 220.195 202.05 220.542 202.501 220.798C202.952 221.054 203.537 221.182 204.256 221.182C205.293 221.182 206.189 221.042 206.944 220.762C207.712 220.481 208.298 220.073 208.7 219.536C209.114 219 209.321 218.354 209.321 217.598C209.321 217.001 209.145 216.464 208.791 215.989C208.438 215.514 207.95 215.142 207.328 214.874C206.719 214.593 206.018 214.453 205.226 214.453C204.458 214.453 203.769 214.538 203.159 214.709C202.55 214.868 201.977 215.099 201.441 215.404C200.916 215.709 200.392 216.093 199.868 216.556C199.356 217.007 198.807 217.525 198.222 218.11L197.18 217.031C197.558 216.727 197.972 216.385 198.424 216.007C198.887 215.617 199.35 215.233 199.813 214.855C200.276 214.465 200.703 214.106 201.093 213.777C201.495 213.435 201.831 213.155 202.099 212.935C202.355 212.728 202.672 212.466 203.05 212.149C203.44 211.82 203.842 211.479 204.256 211.125C204.671 210.772 205.061 210.436 205.427 210.12C205.805 209.803 206.109 209.547 206.341 209.352C206.146 209.352 205.859 209.364 205.482 209.388C205.104 209.4 204.683 209.419 204.22 209.443C203.757 209.455 203.293 209.473 202.83 209.498C202.379 209.522 201.965 209.547 201.587 209.571C201.221 209.583 200.941 209.595 200.746 209.608C200.551 209.62 200.35 209.632 200.142 209.644C199.935 209.656 199.734 209.681 199.539 209.717L199.484 208.2Z" fill="#030000"/>
<path d="M182.116 128.387V67.5156" stroke="#10357B" stroke-width="2.44556" stroke-linecap="round" stroke-linejoin="round"/>
<path d="M182.347 79.2098L194.761 73.3568L182.347 67.5156" stroke="#10357B" stroke-width="2.44556" stroke-linecap="round" stroke-linejoin="round"/>
<path d="M93.5615 155.563C93.5615 155.563 114.953 155.563 123.838 155.563V147.28C127.047 147.28 140.168 147.28 146.728 147.28V138.667H168.013V130.148C172.226 130.148 194.762 130.148 194.762 130.148" stroke="#10357B" stroke-width="2.44556" stroke-linecap="round" stroke-linejoin="round"/>
<path d="M142.912 83.5535C146.62 83.5535 149.625 80.5004 149.625 76.7339C149.625 72.9674 146.62 69.9141 142.912 69.9141C139.204 69.9141 136.198 72.9674 136.198 76.7339C136.198 80.5004 139.204 83.5535 142.912 83.5535Z" stroke="#10357B" stroke-width="2.44556" stroke-linecap="round" stroke-linejoin="round"/>
<path d="M137.565 124.812C136.255 129.096 133.459 131.385 129.99 134.559C128.904 135.55 127.547 136.623 126.875 137.956C126.285 139.125 126.627 140.694 127.512 141.638C128.185 142.346 129.081 142.7 129.99 142.7C130.828 142.7 131.677 142.381 132.338 141.756C134.65 139.502 137.128 137.355 139.205 134.865C140.845 132.907 143.051 128.329 143.051 128.329L143.311 127.762" stroke="#10357B" stroke-width="2.44556" stroke-linecap="round" stroke-linejoin="round"/>
<path d="M152.261 102.068L157.016 106.528C158.302 107.696 160.249 107.578 161.37 106.291C161.724 105.89 161.971 105.418 162.078 104.935C162.337 103.814 161.995 102.587 161.086 101.784L152.627 93.8438" stroke="#10357B" stroke-width="2.44556" stroke-linecap="round" stroke-linejoin="round"/>
<path d="M137.344 88.2591C137.591 88.1411 137.827 88.0349 138.063 87.9523C138.877 87.6574 139.727 87.5156 140.588 87.5156H142.287C143.361 87.5156 144.435 87.5864 145.497 87.7515C146.157 87.8577 146.771 87.9876 146.936 88.141C147.821 88.9551 148.364 90.0759 148.553 91.2676C148.682 92.1172 148.73 92.9669 148.753 93.8282C148.895 98.7956 148.458 103.786 148.081 108.742C147.974 110.123 147.856 111.503 147.75 112.884C147.679 113.757 147.562 114.618 147.491 115.491C147.444 116.069 147.231 116.907 147.691 117.367C147.904 117.58 148.199 117.709 148.47 117.827C150.027 118.512 151.561 119.231 153.083 119.987C153.898 120.388 154.452 121.19 154.547 122.099C154.747 123.904 154.889 125.556 154.959 126.405C154.959 126.405 155.738 134.44 155.738 134.783C155.738 136.222 154.818 137.567 153.355 138.027C151.573 138.582 149.685 137.591 149.119 135.809L148.612 126.606C148.576 125.957 148.199 125.367 147.621 125.072C146.771 124.635 145.544 124.057 144.942 123.762C143.255 122.948 141.497 122.216 139.81 121.379C137.521 120.234 136.081 118.276 136.093 115.668C136.14 107.515 136.211 96.778 136.211 96.778" stroke="#10357B" stroke-width="2.44556" stroke-linecap="round" stroke-linejoin="round"/>
<path d="M137.33 88.2578L134.51 90.299L134.474 90.3226L128.421 95.4432C127.631 96.1158 126.946 96.9063 126.404 97.7794L126.073 98.3103C125.944 98.5109 125.826 98.7233 125.708 98.9239L122.734 104.517C121.908 106.039 122.475 107.915 123.997 108.717C124.351 108.906 124.752 109.024 125.118 109.048C126.392 109.177 127.678 108.552 128.315 107.36L130.746 102.334C131.418 100.942 132.409 99.7145 133.637 98.7588L136.22 96.7412" stroke="#10357B" stroke-width="2.44556" stroke-linecap="round" stroke-linejoin="round"/>
</svg>
