<svg width="293" height="288" viewBox="0 0 293 288" fill="none" xmlns="http://www.w3.org/2000/svg">
<path d="M143.789 285.997C222.328 285.997 285.996 222.328 285.996 143.789C285.996 65.2504 222.328 1.58203 143.789 1.58203C65.2494 1.58203 1.58105 65.2504 1.58105 143.789C1.58105 222.328 65.2494 285.997 143.789 285.997Z" fill="white" stroke="#C5AC7A" stroke-width="3.16236" stroke-miterlimit="10"/>
<path d="M98.8545 75.5938L125.438 93.835L107.562 122.377L98.8545 116.489" stroke="#10357B" stroke-width="2.21365" stroke-linecap="round" stroke-linejoin="round"/>
<path d="M190.489 75.5938L163.894 93.835L181.769 122.377L190.489 116.489" stroke="#10357B" stroke-width="2.21365" stroke-linecap="round" stroke-linejoin="round"/>
<path d="M168.878 127.921C170.506 127.248 177.41 122.481 180.029 119.613" stroke="#10357B" stroke-width="2.21365" stroke-linecap="round" stroke-linejoin="round"/>
<path d="M109.78 118.809C110.595 120.26 113.403 124.012 115.881 126.632" stroke="#10357B" stroke-width="2.21365" stroke-linecap="round" stroke-linejoin="round"/>
<path d="M138.557 102.324C136.716 101.947 129.366 99.056 123.726 96.5664" stroke="#10357B" stroke-width="2.21365" stroke-linecap="round" stroke-linejoin="round"/>
<path d="M147.035 108.336C145.017 109.823 142.539 111.84 140.345 113.397C138.634 114.624 136.121 114.896 134.28 113.846C132.959 113.091 132.109 111.533 132.31 110.035C132.416 109.079 132.911 108.206 133.466 107.439C134.575 105.858 136.203 104.702 137.725 103.545C139.46 102.224 141.265 100.961 143.177 99.923C145.725 98.5425 148.734 98.1414 151.589 98.2358C154.669 98.342 157.642 99.4865 160.733 99.4039C162.952 99.3449 164.721 98.8259 166.491 98.0117" stroke="#10357B" stroke-width="2.21365" stroke-linecap="round" stroke-linejoin="round"/>
<path d="M150.71 122.337L163.205 133.357C164.515 134.513 166.627 134.277 167.913 132.814C169.199 131.351 169.175 129.239 167.866 128.071C167.866 128.071 157.129 117.9 150.769 111.871" stroke="#10357B" stroke-width="2.21365" stroke-linecap="round" stroke-linejoin="round"/>
<path d="M144.729 126.229L157.862 137.993C159.089 139.078 161.13 138.772 162.416 137.32C163.702 135.857 163.749 133.804 162.522 132.719L150.853 122.371" stroke="#10357B" stroke-width="2.21365" stroke-linecap="round" stroke-linejoin="round"/>
<path d="M138.46 139.799L144.183 144.85C145.422 145.947 147.487 145.64 148.785 144.165C150.083 142.69 150.131 140.601 148.892 139.504" stroke="#10357B" stroke-width="2.21365" stroke-linecap="round" stroke-linejoin="round"/>
<path d="M138.667 130.457L151.493 142.02C152.625 143.023 154.584 142.645 155.87 141.194C156.979 139.931 157.227 138.28 156.543 137.206" stroke="#10357B" stroke-width="2.21365" stroke-linecap="round" stroke-linejoin="round"/>
<path d="M128.92 126.029L128.785 125.934C127.387 124.955 125.459 125.294 124.479 126.692L121.154 131.437C120.174 132.836 120.513 134.764 121.911 135.744L122.047 135.838C123.445 136.818 125.373 136.479 126.353 135.08L129.678 130.336C130.658 128.937 130.319 127.009 128.92 126.029Z" stroke="#10357B" stroke-width="2.21365" stroke-linecap="round" stroke-linejoin="round"/>
<path d="M134.162 129.701L134.027 129.606C132.629 128.626 130.701 128.966 129.721 130.364L126.396 135.109C125.416 136.507 125.755 138.435 127.154 139.415L127.289 139.51C128.687 140.49 130.615 140.151 131.595 138.752L134.92 134.007C135.9 132.609 135.561 130.681 134.162 129.701Z" stroke="#10357B" stroke-width="2.21365" stroke-linecap="round" stroke-linejoin="round"/>
<path d="M117.263 132.555L116.921 132.319C115.835 131.552 115.563 130.03 116.331 128.944L117.109 127.835L117.841 126.797C118.608 125.711 120.13 125.439 121.216 126.206L121.558 126.442C122.644 127.209 122.915 128.732 122.148 129.817L120.638 131.965C119.871 133.051 118.348 133.322 117.263 132.555Z" stroke="#10357B" stroke-width="2.21365" stroke-linecap="round" stroke-linejoin="round"/>
<path d="M137.637 135.944L137.077 135.551C135.918 134.74 134.321 135.021 133.51 136.179L131.627 138.866C130.816 140.024 131.097 141.621 132.255 142.432L132.815 142.825C133.974 143.637 135.571 143.356 136.382 142.197L138.265 139.511C139.076 138.353 138.795 136.756 137.637 135.944Z" stroke="#10357B" stroke-width="2.21365" stroke-linecap="round" stroke-linejoin="round"/>
<path d="M144.335 78.4805V86.0327" stroke="#10357B" stroke-width="2.21365" stroke-linecap="round" stroke-linejoin="round"/>
<path d="M131.284 81.832L134.99 88.9596" stroke="#10357B" stroke-width="2.21365" stroke-linecap="round" stroke-linejoin="round"/>
<path d="M157.357 81.832L153.663 88.9596" stroke="#10357B" stroke-width="2.21365" stroke-linecap="round" stroke-linejoin="round"/>
<path d="M37.2323 176.528C37.2201 176.613 37.2019 176.735 37.1775 176.893C37.1653 177.04 37.1531 177.198 37.1409 177.369C37.1287 177.539 37.1226 177.692 37.1226 177.826C37.1226 178.143 37.1226 178.515 37.1226 178.941C37.1226 179.356 37.1226 179.764 37.1226 180.166C37.1226 180.569 37.1226 180.922 37.1226 181.227C37.1226 181.471 37.1226 181.824 37.1226 182.288C37.1226 182.751 37.1226 183.275 37.1226 183.86C37.1226 184.433 37.1226 185.03 37.1226 185.652C37.1226 186.274 37.1226 186.871 37.1226 187.444C37.1226 188.005 37.1226 188.511 37.1226 188.962C37.1226 189.4 37.1226 189.73 37.1226 189.949C37.1226 190.424 37.0007 190.784 36.7569 191.028C36.5131 191.272 36.1108 191.394 35.5501 191.394C35.2941 191.394 35.0076 191.387 34.6907 191.375C34.3859 191.363 34.0812 191.345 33.7764 191.32C33.4717 191.308 33.1974 191.29 32.9536 191.266L32.8256 189.821C33.2279 189.894 33.618 189.949 33.9959 189.986C34.3859 190.01 34.6968 190.022 34.9284 190.022C35.1844 190.022 35.3672 189.967 35.477 189.858C35.5867 189.748 35.6415 189.571 35.6415 189.327C35.6415 189.157 35.6415 188.864 35.6415 188.45C35.6415 188.035 35.6415 187.548 35.6415 186.987C35.6415 186.426 35.6415 185.841 35.6415 185.231C35.6415 184.622 35.6415 184.043 35.6415 183.494C35.6415 182.934 35.6415 182.452 35.6415 182.05C35.6415 181.648 35.6415 181.373 35.6415 181.227C35.6415 181.008 35.6415 180.691 35.6415 180.276C35.6415 179.862 35.6415 179.429 35.6415 178.978C35.6415 178.527 35.6415 178.143 35.6415 177.826C35.6415 177.631 35.6293 177.399 35.605 177.131C35.5806 176.863 35.5501 176.662 35.5135 176.528H37.2323ZM29.004 179.6C29.2722 179.636 29.5221 179.667 29.7537 179.691C29.9975 179.703 30.2657 179.709 30.5582 179.709C30.7045 179.709 31.0032 179.709 31.4542 179.709C31.9053 179.709 32.4477 179.709 33.0816 179.709C33.7277 179.709 34.4164 179.709 35.1478 179.709C35.8792 179.709 36.6106 179.709 37.3421 179.709C38.0856 179.709 38.7744 179.709 39.4083 179.709C40.0544 179.709 40.5968 179.709 41.0357 179.709C41.4867 179.709 41.7915 179.709 41.9499 179.709C42.1693 179.709 42.4131 179.703 42.6813 179.691C42.9617 179.667 43.2177 179.642 43.4493 179.618V181.136C43.2055 181.111 42.9556 181.099 42.6996 181.099C42.4436 181.087 42.1998 181.081 41.9682 181.081C41.8097 181.081 41.505 181.081 41.0539 181.081C40.6151 181.081 40.0726 181.081 39.4266 181.081C38.7927 181.081 38.11 181.081 37.3786 181.081C36.6472 181.081 35.9158 181.081 35.1844 181.081C34.453 181.081 33.7642 181.081 33.1182 181.081C32.4843 181.081 31.9418 181.081 31.4908 181.081C31.0398 181.081 30.735 181.081 30.5765 181.081C30.2962 181.081 30.028 181.087 29.772 181.099C29.516 181.111 29.26 181.129 29.004 181.154V179.6ZM33.2096 183.915C33.0146 184.305 32.7707 184.732 32.4782 185.195C32.1978 185.658 31.887 186.121 31.5456 186.585C31.2165 187.048 30.8874 187.487 30.5582 187.901C30.2413 188.303 29.9548 188.645 29.6988 188.925L28.4372 188.066C28.7419 187.785 29.0589 187.45 29.388 187.06C29.7293 186.67 30.0584 186.255 30.3754 185.817C30.6923 185.378 30.9849 184.939 31.2531 184.5C31.5213 184.061 31.7468 183.659 31.9296 183.293L33.2096 183.915ZM40.8528 183.293C41.0966 183.586 41.3587 183.939 41.6391 184.354C41.9316 184.756 42.2242 185.183 42.5168 185.634C42.8215 186.085 43.1019 186.524 43.3579 186.95C43.6139 187.377 43.8333 187.755 44.0162 188.084L42.663 188.834C42.4924 188.468 42.2791 188.066 42.0231 187.627C41.7793 187.188 41.5172 186.743 41.2368 186.292C40.9564 185.841 40.67 185.414 40.3774 185.012C40.097 184.61 39.841 184.262 39.6094 183.97L40.8528 183.293ZM59.8694 178.63C59.8085 178.704 59.7292 178.826 59.6317 178.996C59.5464 179.155 59.4732 179.301 59.4123 179.435C59.1807 180.032 58.8759 180.697 58.498 181.428C58.1201 182.147 57.6996 182.86 57.2364 183.567C56.7731 184.275 56.2855 184.914 55.7735 185.487C55.1031 186.243 54.3656 186.981 53.561 187.7C52.7565 188.407 51.9093 189.071 51.0194 189.693C50.1295 190.303 49.2031 190.827 48.24 191.266L47.0698 190.04C48.0572 189.65 49.0019 189.169 49.904 188.596C50.8182 188.011 51.6716 187.377 52.4639 186.694C53.2685 185.999 53.9816 185.305 54.6033 184.61C55.0177 184.134 55.4261 183.604 55.8284 183.019C56.2429 182.422 56.6086 181.818 56.9255 181.209C57.2546 180.587 57.4923 180.026 57.6386 179.526C57.5411 179.526 57.3095 179.526 56.9438 179.526C56.5781 179.526 56.1453 179.526 55.6455 179.526C55.1457 179.526 54.6216 179.526 54.073 179.526C53.5245 179.526 53.0003 179.526 52.5005 179.526C52.0007 179.526 51.5679 179.526 51.2022 179.526C50.8487 179.526 50.6171 179.526 50.5074 179.526C50.3002 179.526 50.0625 179.533 49.7943 179.545C49.5383 179.557 49.3006 179.569 49.0812 179.581C48.8739 179.593 48.7337 179.606 48.6606 179.618V177.954C48.7459 177.966 48.8983 177.984 49.1177 178.009C49.3493 178.021 49.5931 178.033 49.8491 178.045C50.1051 178.058 50.3245 178.064 50.5074 178.064C50.6415 178.064 50.8853 178.064 51.2388 178.064C51.5923 178.064 52.0129 178.064 52.5005 178.064C53.0003 178.064 53.5184 178.064 54.0547 178.064C54.5911 178.064 55.1031 178.064 55.5907 178.064C56.0905 178.064 56.5171 178.064 56.8706 178.064C57.2242 178.064 57.4558 178.064 57.5655 178.064C57.8702 178.064 58.1384 178.051 58.37 178.027C58.6138 178.003 58.8028 177.966 58.9369 177.917L59.8694 178.63ZM56.0112 184.518C56.511 184.933 57.023 185.39 57.5472 185.89C58.0836 186.39 58.6077 186.908 59.1197 187.444C59.6317 187.968 60.1071 188.474 60.546 188.962C60.9848 189.437 61.3627 189.87 61.6797 190.26L60.3997 191.357C59.973 190.772 59.4611 190.144 58.8637 189.474C58.2664 188.791 57.6325 188.114 56.9621 187.444C56.3038 186.761 55.6394 186.134 54.969 185.561L56.0112 184.518ZM77.4049 178.118C77.4049 178.448 77.5207 178.728 77.7524 178.96C77.984 179.191 78.2704 179.307 78.6118 179.307C78.9409 179.307 79.2213 179.191 79.4529 178.96C79.6967 178.728 79.8186 178.448 79.8186 178.118C79.8186 177.777 79.6967 177.491 79.4529 177.259C79.2213 177.015 78.9409 176.893 78.6118 176.893C78.2704 176.893 77.984 177.015 77.7524 177.259C77.5207 177.491 77.4049 177.777 77.4049 178.118ZM76.5638 178.118C76.5638 177.741 76.6552 177.393 76.8381 177.076C77.0209 176.759 77.2647 176.509 77.5695 176.327C77.8864 176.144 78.2339 176.052 78.6118 176.052C78.9897 176.052 79.331 176.144 79.6357 176.327C79.9527 176.509 80.2026 176.759 80.3854 177.076C80.5683 177.393 80.6597 177.741 80.6597 178.118C80.6597 178.484 80.5683 178.826 80.3854 179.142C80.2026 179.447 79.9527 179.691 79.6357 179.874C79.331 180.057 78.9897 180.148 78.6118 180.148C78.2339 180.148 77.8864 180.057 77.5695 179.874C77.2647 179.691 77.0209 179.447 76.8381 179.142C76.6552 178.826 76.5638 178.484 76.5638 178.118ZM68.628 177.149C68.6037 177.357 68.5793 177.594 68.5549 177.863C68.5427 178.118 68.5366 178.374 68.5366 178.63C68.5366 178.789 68.5366 179.106 68.5366 179.581C68.5366 180.045 68.5366 180.605 68.5366 181.264C68.5366 181.91 68.5366 182.598 68.5366 183.33C68.5366 184.049 68.5366 184.744 68.5366 185.414C68.5366 186.085 68.5366 186.676 68.5366 187.188C68.5366 187.688 68.5366 188.053 68.5366 188.285C68.5366 188.748 68.6341 189.071 68.8292 189.254C69.0364 189.425 69.3655 189.553 69.8166 189.638C70.1091 189.687 70.4687 189.724 70.8954 189.748C71.3342 189.772 71.7792 189.784 72.2302 189.784C72.7178 189.784 73.242 189.772 73.8027 189.748C74.3635 189.724 74.9303 189.687 75.5033 189.638C76.0884 189.589 76.637 189.528 77.1489 189.455C77.6609 189.382 78.1059 189.297 78.4838 189.199V190.863C77.9596 190.949 77.3257 191.016 76.5821 191.064C75.8507 191.125 75.0949 191.168 74.3147 191.192C73.5468 191.229 72.8275 191.247 72.1571 191.247C71.6207 191.247 71.0904 191.229 70.5663 191.192C70.0543 191.168 69.6093 191.125 69.2314 191.064C68.5244 190.943 67.982 190.705 67.6041 190.351C67.2262 189.986 67.0372 189.431 67.0372 188.687C67.0372 188.383 67.0372 187.956 67.0372 187.407C67.0372 186.859 67.0372 186.231 67.0372 185.524C67.0372 184.817 67.0372 184.098 67.0372 183.366C67.0372 182.623 67.0372 181.922 67.0372 181.264C67.0372 180.605 67.0372 180.045 67.0372 179.581C67.0372 179.106 67.0372 178.789 67.0372 178.63C67.0372 178.472 67.0311 178.307 67.0189 178.137C67.0189 177.966 67.0067 177.795 66.9824 177.625C66.9702 177.442 66.9519 177.283 66.9275 177.149H68.628ZM67.8601 182.909C68.4086 182.787 69.012 182.641 69.6703 182.47C70.3407 182.288 71.0173 182.092 71.6999 181.885C72.3948 181.678 73.0652 181.459 73.7113 181.227C74.3696 180.995 74.9608 180.764 75.485 180.532C75.7654 180.41 76.0396 180.282 76.3078 180.148C76.576 180.014 76.8381 179.868 77.0941 179.709L77.7341 181.172C77.4781 181.282 77.1916 181.404 76.8747 181.538C76.5699 181.66 76.2834 181.776 76.0153 181.885C75.4423 182.117 74.8023 182.355 74.0953 182.598C73.4005 182.842 72.6813 183.08 71.9377 183.311C71.1941 183.531 70.4687 183.738 69.7617 183.933C69.0669 184.128 68.433 184.293 67.8601 184.427V182.909ZM89.4 182.489C89.9852 182.83 90.6008 183.208 91.2468 183.622C91.8929 184.037 92.5329 184.47 93.1668 184.921C93.8129 185.359 94.4285 185.792 95.0136 186.219C95.5987 186.645 96.1168 187.048 96.5678 187.426L95.489 188.687C95.0745 188.309 94.5747 187.895 93.9896 187.444C93.4167 186.981 92.8072 186.517 92.1611 186.054C91.515 185.579 90.8689 185.122 90.2229 184.683C89.5768 184.244 88.9734 183.848 88.4126 183.494L89.4 182.489ZM97.7747 179.142C97.6893 179.277 97.6101 179.441 97.5369 179.636C97.4638 179.819 97.3968 179.984 97.3358 180.13C97.1651 180.752 96.9213 181.422 96.6044 182.141C96.2875 182.86 95.9157 183.586 95.489 184.317C95.0623 185.036 94.5747 185.731 94.0262 186.402C93.2094 187.413 92.1855 188.389 90.9543 189.327C89.7353 190.254 88.2603 191.034 86.5293 191.668L85.2127 190.534C86.3464 190.181 87.3765 189.748 88.3029 189.236C89.2416 188.712 90.0827 188.139 90.8263 187.517C91.5699 186.895 92.2159 186.255 92.7645 185.597C93.2399 185.036 93.6727 184.421 94.0628 183.75C94.465 183.08 94.8124 182.416 95.105 181.757C95.3976 181.087 95.6109 180.465 95.745 179.892H88.9612L89.5463 178.594H95.361C95.6048 178.594 95.8303 178.582 96.0376 178.557C96.2448 178.521 96.4215 178.472 96.5678 178.411L97.7747 179.142ZM91.6125 176.509C91.4541 176.753 91.3017 177.009 91.1554 177.277C91.0091 177.546 90.8872 177.765 90.7897 177.936C90.424 178.606 89.9486 179.344 89.3635 180.148C88.7905 180.941 88.114 181.733 87.3338 182.525C86.5658 183.318 85.6942 184.055 84.719 184.738L83.4939 183.787C84.5423 183.141 85.4504 182.428 86.2184 181.648C86.9864 180.867 87.6325 180.105 88.1566 179.362C88.6808 178.618 89.0831 177.972 89.3635 177.424C89.461 177.265 89.5707 177.046 89.6926 176.765C89.8145 176.473 89.8998 176.211 89.9486 175.979L91.6125 176.509ZM114.286 176.985C114.274 177.216 114.262 177.466 114.25 177.735C114.237 177.99 114.231 178.271 114.231 178.576C114.231 178.819 114.231 179.13 114.231 179.508C114.231 179.886 114.231 180.264 114.231 180.642C114.231 181.008 114.231 181.306 114.231 181.538C114.231 182.635 114.189 183.567 114.103 184.335C114.03 185.103 113.914 185.762 113.756 186.31C113.61 186.847 113.415 187.322 113.171 187.737C112.927 188.151 112.641 188.553 112.311 188.943C111.921 189.407 111.47 189.815 110.958 190.168C110.458 190.51 109.947 190.796 109.422 191.028C108.898 191.272 108.411 191.467 107.96 191.613L106.771 190.351C107.612 190.144 108.404 189.851 109.148 189.474C109.904 189.084 110.568 188.565 111.141 187.919C111.47 187.541 111.732 187.157 111.927 186.767C112.135 186.365 112.287 185.92 112.385 185.433C112.494 184.945 112.567 184.378 112.604 183.732C112.641 183.086 112.659 182.33 112.659 181.465C112.659 181.221 112.659 180.916 112.659 180.55C112.659 180.185 112.659 179.819 112.659 179.453C112.659 179.075 112.659 178.783 112.659 178.576C112.659 178.271 112.647 177.99 112.622 177.735C112.61 177.466 112.592 177.216 112.567 176.985H114.286ZM105.802 177.131C105.79 177.302 105.771 177.509 105.747 177.753C105.735 177.997 105.729 178.228 105.729 178.448C105.729 178.533 105.729 178.728 105.729 179.033C105.729 179.325 105.729 179.679 105.729 180.093C105.729 180.508 105.729 180.947 105.729 181.41C105.729 181.873 105.729 182.324 105.729 182.763C105.729 183.19 105.729 183.561 105.729 183.878C105.729 184.195 105.729 184.421 105.729 184.555C105.729 184.786 105.735 185.036 105.747 185.305C105.771 185.561 105.79 185.774 105.802 185.945H104.12C104.144 185.798 104.162 185.597 104.174 185.341C104.199 185.073 104.211 184.805 104.211 184.537C104.211 184.415 104.211 184.195 104.211 183.878C104.211 183.549 104.211 183.171 104.211 182.745C104.211 182.318 104.211 181.873 104.211 181.41C104.211 180.947 104.211 180.508 104.211 180.093C104.211 179.679 104.211 179.325 104.211 179.033C104.211 178.728 104.211 178.533 104.211 178.448C104.211 178.289 104.205 178.076 104.193 177.808C104.181 177.527 104.162 177.302 104.138 177.131H105.802ZM122.313 177.332C122.569 177.357 122.831 177.381 123.1 177.405C123.38 177.43 123.666 177.442 123.959 177.442C124.178 177.442 124.532 177.442 125.02 177.442C125.519 177.442 126.086 177.442 126.72 177.442C127.354 177.442 127.988 177.442 128.622 177.442C129.256 177.442 129.816 177.442 130.304 177.442C130.804 177.442 131.157 177.442 131.365 177.442C131.621 177.442 131.901 177.436 132.206 177.424C132.523 177.399 132.809 177.369 133.065 177.332V178.85C132.797 178.826 132.51 178.813 132.206 178.813C131.913 178.801 131.633 178.795 131.365 178.795C131.157 178.795 130.81 178.795 130.322 178.795C129.835 178.795 129.274 178.795 128.64 178.795C128.006 178.795 127.372 178.795 126.738 178.795C126.105 178.795 125.538 178.795 125.038 178.795C124.538 178.795 124.185 178.795 123.977 178.795C123.685 178.795 123.392 178.801 123.1 178.813C122.807 178.813 122.545 178.826 122.313 178.85V177.332ZM120.119 181.922C120.375 181.946 120.631 181.971 120.887 181.995C121.155 182.007 121.43 182.013 121.71 182.013C121.868 182.013 122.179 182.013 122.643 182.013C123.118 182.013 123.691 182.013 124.361 182.013C125.044 182.013 125.775 182.013 126.556 182.013C127.336 182.013 128.116 182.013 128.896 182.013C129.676 182.013 130.402 182.013 131.072 182.013C131.742 182.013 132.309 182.013 132.773 182.013C133.248 182.013 133.553 182.013 133.687 182.013C133.882 182.013 134.113 182.007 134.382 181.995C134.65 181.983 134.894 181.958 135.113 181.922V183.439C134.918 183.427 134.686 183.421 134.418 183.421C134.162 183.409 133.918 183.403 133.687 183.403C133.553 183.403 133.248 183.403 132.773 183.403C132.309 183.403 131.742 183.403 131.072 183.403C130.402 183.403 129.676 183.403 128.896 183.403C128.116 183.403 127.336 183.403 126.556 183.403C125.775 183.403 125.044 183.403 124.361 183.403C123.691 183.403 123.118 183.403 122.643 183.403C122.179 183.403 121.868 183.403 121.71 183.403C121.442 183.403 121.174 183.403 120.905 183.403C120.637 183.403 120.375 183.415 120.119 183.439V181.922ZM128.731 182.672C128.731 183.817 128.646 184.872 128.476 185.835C128.317 186.786 128.037 187.639 127.634 188.395C127.415 188.809 127.116 189.224 126.738 189.638C126.373 190.04 125.958 190.424 125.495 190.79C125.044 191.156 124.556 191.473 124.032 191.741L122.679 190.735C123.386 190.443 124.05 190.047 124.672 189.547C125.294 189.047 125.781 188.511 126.135 187.938C126.598 187.206 126.891 186.402 127.013 185.524C127.135 184.634 127.196 183.683 127.196 182.672H128.731ZM137.809 186.146C138.613 185.951 139.424 185.695 140.241 185.378C141.07 185.061 141.844 184.726 142.563 184.372C143.294 184.019 143.904 183.689 144.391 183.385C144.977 183.031 145.537 182.641 146.074 182.214C146.622 181.776 147.128 181.337 147.591 180.898C148.055 180.459 148.439 180.045 148.743 179.654L149.877 180.752C149.536 181.129 149.103 181.55 148.579 182.013C148.067 182.464 147.506 182.915 146.897 183.366C146.287 183.817 145.659 184.238 145.013 184.628C144.635 184.86 144.196 185.103 143.697 185.359C143.197 185.615 142.667 185.871 142.106 186.127C141.545 186.383 140.954 186.633 140.332 186.877C139.723 187.109 139.113 187.316 138.504 187.499L137.809 186.146ZM144.227 184.207L145.745 183.842V190.68C145.745 190.863 145.745 191.058 145.745 191.266C145.757 191.485 145.769 191.686 145.781 191.869C145.793 192.052 145.812 192.192 145.836 192.29H144.154C144.166 192.192 144.178 192.052 144.19 191.869C144.203 191.686 144.209 191.485 144.209 191.266C144.221 191.058 144.227 190.863 144.227 190.68V184.207ZM157.191 175.559H158.453V192.29H157.191V175.559ZM154.613 181.648H160.501V182.928H154.613V181.648ZM157.118 182.324L157.996 182.69C157.849 183.311 157.673 183.964 157.465 184.646C157.258 185.317 157.027 185.987 156.771 186.658C156.527 187.328 156.265 187.956 155.984 188.541C155.704 189.126 155.417 189.626 155.125 190.04C155.088 189.894 155.027 189.742 154.942 189.583C154.857 189.413 154.765 189.248 154.668 189.09C154.57 188.919 154.485 188.773 154.412 188.651C154.765 188.175 155.119 187.578 155.472 186.859C155.826 186.127 156.149 185.366 156.441 184.573C156.734 183.769 156.96 183.019 157.118 182.324ZM158.416 183.275C158.526 183.421 158.691 183.653 158.91 183.97C159.142 184.287 159.385 184.634 159.641 185.012C159.91 185.378 160.153 185.725 160.373 186.054C160.592 186.371 160.745 186.609 160.83 186.767L159.897 187.81C159.812 187.566 159.672 187.267 159.477 186.914C159.294 186.548 159.087 186.164 158.855 185.762C158.636 185.359 158.422 184.988 158.215 184.646C158.02 184.293 157.862 184.019 157.74 183.823L158.416 183.275ZM154.796 176.93L155.747 176.692C155.917 177.107 156.076 177.558 156.222 178.045C156.368 178.533 156.49 179.008 156.588 179.472C156.697 179.923 156.771 180.331 156.807 180.697L155.801 180.934C155.777 180.581 155.71 180.173 155.6 179.709C155.503 179.246 155.381 178.771 155.235 178.283C155.101 177.795 154.954 177.344 154.796 176.93ZM159.861 176.619L161.013 176.912C160.866 177.363 160.708 177.838 160.537 178.338C160.367 178.838 160.196 179.319 160.025 179.782C159.867 180.246 159.708 180.648 159.55 180.989L158.691 180.715C158.837 180.361 158.983 179.941 159.129 179.453C159.276 178.966 159.416 178.472 159.55 177.972C159.684 177.472 159.788 177.021 159.861 176.619ZM161.653 176.985H170.942V178.045H161.653V176.985ZM162.11 179.179H170.539V180.185H162.11V179.179ZM161.141 181.41H171.417V182.489H161.141V181.41ZM165.493 175.504H166.791V181.995H165.493V175.504ZM162.274 183.586H169.314V184.628H163.591V192.308H162.274V183.586ZM168.912 183.586H170.192V190.9C170.192 191.229 170.149 191.485 170.064 191.668C169.991 191.863 169.832 192.009 169.589 192.107C169.345 192.204 169.028 192.259 168.638 192.271C168.248 192.296 167.766 192.308 167.193 192.308C167.169 192.137 167.114 191.942 167.029 191.723C166.955 191.515 166.876 191.327 166.791 191.156C167.205 191.168 167.583 191.174 167.925 191.174C168.266 191.186 168.491 191.186 168.601 191.174C168.723 191.174 168.802 191.15 168.839 191.101C168.888 191.064 168.912 190.997 168.912 190.9V183.586ZM162.969 185.999H169.424V186.987H162.969V185.999ZM162.969 188.358H169.424V189.327H162.969V188.358ZM180.669 182.288H188.697V183.476H180.669V182.288ZM180.651 185.908H188.898V187.151H180.651V185.908ZM183.924 175.504H185.241V192.326H183.924V175.504ZM179.993 178.667H189.337V187.846H188.02V179.929H181.254V187.938H179.993V178.667ZM173.154 178.941H178.676V180.185H173.154V178.941ZM175.659 175.504H176.994V179.563H175.659V175.504ZM177.14 183.092C177.274 183.177 177.457 183.33 177.689 183.549C177.933 183.756 178.195 183.988 178.475 184.244C178.755 184.488 179.011 184.719 179.243 184.939C179.475 185.146 179.639 185.298 179.737 185.396L178.932 186.511C178.798 186.341 178.615 186.134 178.384 185.89C178.164 185.646 177.927 185.384 177.671 185.103C177.415 184.823 177.171 184.567 176.939 184.335C176.708 184.104 176.519 183.915 176.372 183.769L177.14 183.092ZM178.201 178.941H178.475L178.731 178.886L179.481 179.38C179.066 180.489 178.518 181.556 177.835 182.58C177.165 183.592 176.427 184.518 175.623 185.359C174.818 186.201 174.014 186.908 173.209 187.481C173.16 187.346 173.093 187.2 173.008 187.042C172.923 186.883 172.837 186.731 172.752 186.585C172.667 186.426 172.581 186.31 172.496 186.237C173.264 185.737 174.014 185.116 174.745 184.372C175.489 183.628 176.165 182.812 176.775 181.922C177.384 181.032 177.86 180.13 178.201 179.216V178.941ZM175.659 184.427L176.994 182.8V192.29H175.659V184.427ZM198.845 176.4C198.772 176.765 198.674 177.198 198.552 177.698C198.443 178.186 198.26 178.74 198.004 179.362C197.784 179.91 197.51 180.477 197.181 181.062C196.864 181.648 196.523 182.178 196.157 182.653C196.389 182.507 196.651 182.385 196.943 182.288C197.236 182.178 197.534 182.099 197.839 182.05C198.156 182.001 198.443 181.977 198.699 181.977C199.406 181.977 200.003 182.178 200.491 182.58C200.978 182.97 201.222 183.543 201.222 184.299C201.222 184.531 201.222 184.829 201.222 185.195C201.222 185.548 201.222 185.926 201.222 186.329C201.234 186.719 201.246 187.103 201.258 187.481C201.271 187.858 201.277 188.188 201.277 188.468H199.869C199.881 188.224 199.893 187.938 199.905 187.609C199.918 187.279 199.924 186.932 199.924 186.566C199.936 186.201 199.936 185.853 199.924 185.524C199.924 185.195 199.924 184.914 199.924 184.683C199.924 184.147 199.759 183.756 199.43 183.513C199.113 183.257 198.711 183.129 198.223 183.129C197.65 183.129 197.083 183.257 196.523 183.513C195.974 183.756 195.493 184.073 195.078 184.463C194.81 184.719 194.542 185.012 194.274 185.341C194.018 185.658 193.731 185.999 193.414 186.365L192.171 185.451C193.048 184.598 193.78 183.799 194.365 183.055C194.95 182.312 195.426 181.623 195.791 180.989C196.157 180.343 196.443 179.764 196.651 179.252C196.846 178.74 197.004 178.228 197.126 177.716C197.248 177.192 197.321 176.711 197.345 176.272L198.845 176.4ZM192.591 178.374C193.079 178.435 193.609 178.484 194.182 178.521C194.755 178.557 195.255 178.576 195.681 178.576C196.498 178.576 197.376 178.557 198.315 178.521C199.253 178.472 200.198 178.405 201.149 178.32C202.112 178.234 203.026 178.112 203.892 177.954L203.873 179.307C203.239 179.417 202.563 179.508 201.844 179.581C201.124 179.642 200.393 179.697 199.649 179.746C198.906 179.782 198.187 179.813 197.492 179.837C196.809 179.849 196.175 179.856 195.59 179.856C195.334 179.856 195.035 179.856 194.694 179.856C194.365 179.843 194.018 179.831 193.652 179.819C193.286 179.795 192.933 179.77 192.591 179.746V178.374ZM206.561 182.8C206.403 182.836 206.226 182.891 206.031 182.964C205.848 183.025 205.659 183.092 205.464 183.165C205.281 183.238 205.104 183.311 204.934 183.385C204.3 183.628 203.562 183.927 202.721 184.281C201.88 184.634 201.021 185.042 200.143 185.506C199.534 185.81 198.997 186.134 198.534 186.475C198.071 186.804 197.705 187.151 197.437 187.517C197.169 187.871 197.035 188.261 197.035 188.687C197.035 189.041 197.114 189.327 197.272 189.547C197.443 189.766 197.681 189.937 197.985 190.059C198.29 190.168 198.638 190.242 199.028 190.278C199.43 190.315 199.869 190.333 200.344 190.333C201.051 190.333 201.856 190.296 202.758 190.223C203.672 190.138 204.532 190.028 205.336 189.894L205.3 191.357C204.836 191.418 204.312 191.473 203.727 191.522C203.154 191.57 202.569 191.607 201.972 191.631C201.386 191.668 200.826 191.686 200.289 191.686C199.424 191.686 198.632 191.607 197.912 191.448C197.205 191.29 196.638 191.01 196.212 190.607C195.785 190.205 195.572 189.632 195.572 188.888C195.572 188.34 195.7 187.84 195.956 187.389C196.212 186.926 196.553 186.505 196.98 186.127C197.419 185.75 197.9 185.402 198.424 185.085C198.948 184.756 199.485 184.457 200.033 184.189C200.618 183.872 201.167 183.598 201.679 183.366C202.203 183.135 202.697 182.921 203.16 182.726C203.623 182.531 204.056 182.336 204.458 182.141C204.727 182.019 204.983 181.904 205.226 181.794C205.47 181.684 205.714 181.562 205.958 181.428L206.561 182.8ZM216.271 177.881H225.395V179.124H216.271V177.881ZM215.539 184.756H226.163V186.018H215.539V184.756ZM215.338 181.446H226.273V182.708H215.338V181.446ZM220.165 175.595H221.482V182.123H220.165V175.595ZM222.579 182.434H223.896V190.662C223.896 191.077 223.841 191.387 223.731 191.595C223.633 191.814 223.445 191.979 223.164 192.088C222.908 192.198 222.549 192.259 222.085 192.271C221.622 192.296 221.055 192.308 220.385 192.308C220.36 192.113 220.306 191.887 220.22 191.631C220.147 191.387 220.062 191.168 219.964 190.973C220.476 190.997 220.946 191.01 221.372 191.01C221.799 191.01 222.085 191.003 222.232 190.991C222.366 190.991 222.457 190.967 222.506 190.918C222.555 190.869 222.579 190.784 222.579 190.662V182.434ZM216.911 187.133L217.971 186.53C218.239 186.847 218.508 187.194 218.776 187.572C219.044 187.95 219.294 188.322 219.525 188.687C219.757 189.053 219.934 189.382 220.056 189.675L218.922 190.388C218.8 190.095 218.629 189.76 218.41 189.382C218.203 189.004 217.965 188.62 217.697 188.23C217.441 187.828 217.179 187.462 216.911 187.133ZM209.231 185.213C209.938 185.018 210.803 184.768 211.827 184.463C212.851 184.147 213.887 183.823 214.936 183.494L215.119 184.756C214.156 185.073 213.187 185.39 212.211 185.707C211.248 186.024 210.371 186.31 209.578 186.566L209.231 185.213ZM209.487 179.197H215.064V180.477H209.487V179.197ZM211.846 175.522H213.126V190.68C213.126 191.046 213.077 191.333 212.979 191.54C212.894 191.747 212.735 191.906 212.504 192.015C212.284 192.125 211.992 192.198 211.626 192.235C211.26 192.271 210.785 192.283 210.2 192.271C210.188 192.101 210.139 191.887 210.054 191.631C209.981 191.387 209.901 191.174 209.816 190.991C210.206 191.003 210.56 191.01 210.876 191.01C211.206 191.01 211.425 191.01 211.535 191.01C211.644 191.01 211.724 190.985 211.772 190.936C211.821 190.888 211.846 190.796 211.846 190.662V175.522ZM234.739 176.546C234.666 176.79 234.605 177.046 234.556 177.314C234.507 177.582 234.458 177.838 234.41 178.082C234.349 178.374 234.275 178.74 234.19 179.179C234.117 179.606 234.019 180.075 233.898 180.587C233.788 181.087 233.672 181.593 233.55 182.105C233.428 182.617 233.3 183.104 233.166 183.567C233.044 184.019 232.916 184.415 232.782 184.756C233.587 184.195 234.403 183.799 235.232 183.567C236.074 183.324 236.976 183.202 237.939 183.202C238.914 183.202 239.743 183.354 240.425 183.659C241.108 183.964 241.632 184.39 241.998 184.939C242.364 185.475 242.546 186.103 242.546 186.822C242.546 187.773 242.315 188.578 241.852 189.236C241.388 189.894 240.736 190.412 239.895 190.79C239.054 191.168 238.054 191.406 236.896 191.503C235.75 191.613 234.477 191.595 233.075 191.448L232.709 190.004C233.77 190.15 234.794 190.211 235.781 190.187C236.781 190.15 237.67 190.016 238.451 189.784C239.243 189.541 239.871 189.181 240.334 188.706C240.809 188.23 241.047 187.615 241.047 186.859C241.047 186.176 240.767 185.603 240.206 185.14C239.657 184.665 238.847 184.427 237.774 184.427C236.689 184.427 235.671 184.616 234.72 184.994C233.77 185.359 232.989 185.908 232.38 186.639C232.27 186.773 232.167 186.908 232.069 187.042C231.984 187.164 231.898 187.31 231.813 187.481L230.442 186.987C230.795 186.304 231.118 185.542 231.411 184.701C231.703 183.848 231.959 182.988 232.179 182.123C232.398 181.257 232.581 180.465 232.727 179.746C232.874 179.014 232.977 178.423 233.038 177.972C233.075 177.68 233.099 177.418 233.111 177.186C233.123 176.954 233.123 176.711 233.111 176.455L234.739 176.546ZM229.052 178.868C229.54 178.954 230.1 179.027 230.734 179.088C231.38 179.149 231.978 179.179 232.526 179.179C233.111 179.179 233.763 179.161 234.483 179.124C235.202 179.088 235.952 179.033 236.732 178.96C237.512 178.886 238.292 178.795 239.072 178.685C239.865 178.563 240.62 178.423 241.34 178.265L241.358 179.673C240.712 179.782 240.005 179.886 239.237 179.984C238.481 180.081 237.707 180.166 236.915 180.24C236.122 180.313 235.348 180.374 234.592 180.422C233.849 180.459 233.166 180.477 232.544 180.477C231.923 180.477 231.319 180.459 230.734 180.422C230.161 180.386 229.607 180.343 229.07 180.294L229.052 178.868ZM250.281 191.887C249.891 191.4 249.464 190.912 249.001 190.424C248.538 189.937 248.069 189.468 247.593 189.016C247.13 188.565 246.679 188.163 246.24 187.81L247.429 186.767C247.867 187.121 248.331 187.529 248.818 187.993C249.306 188.456 249.781 188.931 250.245 189.419C250.72 189.906 251.147 190.376 251.525 190.827L250.281 191.887Z" fill="#030000"/>
<path d="M69.3263 209.633H77.2255V210.876H69.3263V209.633ZM69.3263 213.235H77.2255V214.478H69.3263V213.235ZM69.3446 216.983H77.8655V218.263H69.3446V216.983ZM72.8005 206.469H74.0987V217.66H72.8005V206.469ZM74.1719 202.593L75.5981 202.959C75.4031 203.397 75.1958 203.854 74.9764 204.33C74.757 204.793 74.5376 205.244 74.3182 205.683C74.0987 206.11 73.8915 206.488 73.6965 206.817L72.5628 206.451C72.7578 206.11 72.9529 205.713 73.1479 205.262C73.3551 204.811 73.5502 204.354 73.733 203.891C73.9159 203.416 74.0622 202.983 74.1719 202.593ZM70.0029 206.067H77.5729V207.31H70.0029V219.269H68.7046V206.908L69.5274 206.067H70.0029ZM70.332 202.392L71.6851 202.776C71.3925 203.605 71.039 204.464 70.6245 205.354C70.2101 206.244 69.7469 207.097 69.2349 207.914C68.7229 208.731 68.1743 209.462 67.5892 210.108C67.5161 210.011 67.4307 209.895 67.3332 209.761C67.2357 209.627 67.1321 209.499 67.0224 209.377C66.9248 209.243 66.8273 209.139 66.7298 209.066C67.2662 208.481 67.766 207.81 68.2292 207.054C68.6924 206.299 69.1008 205.518 69.4543 204.714C69.82 203.897 70.1126 203.123 70.332 202.392ZM61.8111 207.95H67.1686V209.029H61.8111V207.95ZM61.8842 203.05H67.0955V204.147H61.8842V203.05ZM61.8111 210.382H67.1686V211.479H61.8111V210.382ZM60.9517 205.445H67.7721V206.597H60.9517V205.445ZM62.4328 212.851H67.1869V218.19H62.4328V217.056H65.9801V214.003H62.4328V212.851ZM61.7928 212.851H62.9996V219.031H61.7928V212.851ZM86.551 203.507C86.5144 203.666 86.4778 203.842 86.4412 204.037C86.4047 204.22 86.3681 204.403 86.3315 204.586C86.295 204.805 86.2401 205.104 86.167 205.482C86.106 205.86 86.039 206.262 85.9658 206.689C85.8927 207.103 85.8074 207.499 85.7098 207.877C85.5879 208.401 85.4356 208.993 85.2527 209.651C85.0699 210.297 84.8626 210.986 84.631 211.717C84.3994 212.449 84.1373 213.198 83.8447 213.966C83.5522 214.722 83.2291 215.478 82.8756 216.234C82.5221 216.977 82.1381 217.678 81.7237 218.336L80.2243 217.751C80.6509 217.19 81.041 216.563 81.3945 215.868C81.7602 215.173 82.0955 214.454 82.4002 213.71C82.705 212.954 82.9792 212.211 83.2231 211.479C83.479 210.748 83.6924 210.071 83.863 209.45C84.0337 208.828 84.1678 208.292 84.2653 207.841C84.436 207.109 84.5762 206.353 84.6859 205.573C84.7956 204.781 84.8504 204.031 84.8504 203.324L86.551 203.507ZM92.8411 205.445C93.1336 205.823 93.4384 206.293 93.7553 206.853C94.0845 207.414 94.4014 208.011 94.7062 208.645C95.0231 209.279 95.3096 209.889 95.5656 210.474C95.8216 211.059 96.0288 211.565 96.1873 211.991L94.761 212.668C94.6269 212.205 94.4441 211.674 94.2125 211.077C93.9808 210.468 93.7127 209.852 93.4079 209.23C93.1153 208.596 92.8045 208.005 92.4754 207.457C92.1584 206.896 91.8354 206.427 91.5063 206.049L92.8411 205.445ZM79.9683 207.512C80.2487 207.536 80.5168 207.548 80.7728 207.548C81.0288 207.536 81.3031 207.524 81.5957 207.512C81.876 207.499 82.2296 207.481 82.6562 207.457C83.0829 207.42 83.5461 207.384 84.0459 207.347C84.5579 207.31 85.0577 207.274 85.5453 207.237C86.0451 207.188 86.5022 207.152 86.9167 207.128C87.3433 207.091 87.6785 207.073 87.9223 207.073C88.4709 207.073 88.9646 207.158 89.4035 207.329C89.8545 207.499 90.2141 207.81 90.4823 208.261C90.7505 208.712 90.8846 209.346 90.8846 210.163C90.8846 210.882 90.848 211.662 90.7748 212.503C90.7139 213.332 90.6042 214.125 90.4457 214.88C90.2872 215.636 90.08 216.264 89.824 216.764C89.5436 217.386 89.1779 217.794 88.7269 217.989C88.2759 218.196 87.7517 218.3 87.1544 218.3C86.813 218.3 86.4412 218.269 86.039 218.208C85.6367 218.16 85.2893 218.099 84.9967 218.026L84.759 216.508C85.0272 216.581 85.2954 216.648 85.5636 216.709C85.8439 216.77 86.1121 216.813 86.3681 216.837C86.6241 216.861 86.8374 216.874 87.0081 216.874C87.3372 216.874 87.6359 216.819 87.9041 216.709C88.1844 216.587 88.4161 216.331 88.5989 215.941C88.7939 215.527 88.9524 215.008 89.0743 214.387C89.2084 213.753 89.3059 213.082 89.3669 212.375C89.44 211.668 89.4766 210.992 89.4766 210.346C89.4766 209.773 89.3974 209.352 89.2389 209.084C89.0804 208.804 88.8549 208.615 88.5623 208.517C88.2698 208.408 87.9284 208.353 87.5384 208.353C87.2214 208.353 86.8009 208.377 86.2767 208.426C85.7525 208.462 85.1918 208.511 84.5944 208.572C84.0093 208.633 83.4608 208.694 82.9488 208.755C82.4368 208.804 82.0406 208.846 81.7602 208.883C81.553 208.907 81.2848 208.944 80.9557 208.993C80.6387 209.029 80.3584 209.066 80.1146 209.102L79.9683 207.512ZM105.238 203.306C105.165 203.672 105.068 204.104 104.946 204.604C104.836 205.092 104.653 205.646 104.397 206.268C104.178 206.817 103.904 207.384 103.574 207.969C103.258 208.554 102.916 209.084 102.551 209.559C102.782 209.413 103.044 209.291 103.337 209.194C103.629 209.084 103.928 209.005 104.233 208.956C104.55 208.907 104.836 208.883 105.092 208.883C105.799 208.883 106.397 209.084 106.884 209.486C107.372 209.876 107.616 210.449 107.616 211.205C107.616 211.437 107.616 211.735 107.616 212.101C107.616 212.455 107.616 212.833 107.616 213.235C107.628 213.625 107.64 214.009 107.652 214.387C107.664 214.765 107.67 215.094 107.67 215.374H106.262C106.275 215.13 106.287 214.844 106.299 214.515C106.311 214.186 106.317 213.838 106.317 213.473C106.329 213.107 106.329 212.759 106.317 212.43C106.317 212.101 106.317 211.821 106.317 211.589C106.317 211.053 106.153 210.663 105.824 210.419C105.507 210.163 105.104 210.035 104.617 210.035C104.044 210.035 103.477 210.163 102.916 210.419C102.368 210.663 101.886 210.98 101.472 211.37C101.204 211.626 100.935 211.918 100.667 212.247C100.411 212.564 100.125 212.906 99.8077 213.271L98.5643 212.357C99.442 211.504 100.173 210.705 100.759 209.962C101.344 209.218 101.819 208.529 102.185 207.896C102.551 207.249 102.837 206.67 103.044 206.158C103.239 205.646 103.398 205.134 103.52 204.622C103.642 204.098 103.715 203.617 103.739 203.178L105.238 203.306ZM98.9849 205.281C99.4725 205.342 100.003 205.39 100.576 205.427C101.149 205.464 101.648 205.482 102.075 205.482C102.892 205.482 103.77 205.464 104.708 205.427C105.647 205.378 106.592 205.311 107.542 205.226C108.505 205.141 109.42 205.019 110.285 204.86L110.267 206.213C109.633 206.323 108.956 206.414 108.237 206.488C107.518 206.549 106.787 206.603 106.043 206.652C105.299 206.689 104.58 206.719 103.885 206.744C103.203 206.756 102.569 206.762 101.984 206.762C101.728 206.762 101.429 206.762 101.088 206.762C100.759 206.75 100.411 206.737 100.045 206.725C99.6797 206.701 99.3262 206.677 98.9849 206.652V205.281ZM112.955 209.706C112.796 209.742 112.62 209.797 112.425 209.87C112.242 209.931 112.053 209.998 111.858 210.071C111.675 210.145 111.498 210.218 111.327 210.291C110.694 210.535 109.956 210.833 109.115 211.187C108.274 211.54 107.414 211.949 106.537 212.412C105.927 212.717 105.391 213.04 104.928 213.381C104.464 213.71 104.099 214.058 103.83 214.423C103.562 214.777 103.428 215.167 103.428 215.594C103.428 215.947 103.507 216.234 103.666 216.453C103.837 216.672 104.074 216.843 104.379 216.965C104.684 217.075 105.031 217.148 105.421 217.184C105.824 217.221 106.262 217.239 106.738 217.239C107.445 217.239 108.249 217.203 109.151 217.13C110.066 217.044 110.925 216.935 111.73 216.8L111.693 218.263C111.23 218.324 110.706 218.379 110.121 218.428C109.548 218.477 108.963 218.513 108.365 218.538C107.78 218.574 107.219 218.592 106.683 218.592C105.817 218.592 105.025 218.513 104.306 218.355C103.599 218.196 103.032 217.916 102.605 217.514C102.179 217.111 101.965 216.538 101.965 215.795C101.965 215.246 102.093 214.746 102.349 214.295C102.605 213.832 102.947 213.412 103.373 213.034C103.812 212.656 104.294 212.308 104.818 211.991C105.342 211.662 105.878 211.364 106.427 211.095C107.012 210.778 107.561 210.504 108.073 210.273C108.597 210.041 109.091 209.828 109.554 209.633C110.017 209.438 110.45 209.243 110.852 209.047C111.12 208.926 111.376 208.81 111.62 208.7C111.864 208.59 112.108 208.468 112.351 208.334L112.955 209.706ZM116.246 207.658H132.337V209.066H116.246V207.658ZM125.151 208.225C125.565 209.7 126.108 211.077 126.778 212.357C127.461 213.625 128.29 214.734 129.265 215.685C130.253 216.636 131.374 217.379 132.63 217.916C132.52 218.013 132.398 218.135 132.264 218.282C132.142 218.44 132.02 218.598 131.898 218.757C131.776 218.915 131.679 219.062 131.606 219.196C130.289 218.562 129.125 217.727 128.113 216.691C127.114 215.655 126.26 214.448 125.553 213.07C124.846 211.693 124.261 210.187 123.798 208.554L125.151 208.225ZM123.542 202.428H125.023C125.023 203.221 124.999 204.104 124.95 205.08C124.913 206.043 124.822 207.048 124.676 208.097C124.529 209.133 124.286 210.181 123.944 211.242C123.615 212.29 123.152 213.308 122.555 214.295C121.969 215.271 121.22 216.179 120.305 217.02C119.391 217.861 118.27 218.586 116.941 219.196C116.831 219.013 116.673 218.812 116.466 218.592C116.271 218.385 116.082 218.208 115.899 218.062C117.191 217.501 118.276 216.831 119.153 216.051C120.043 215.271 120.769 214.417 121.329 213.491C121.89 212.564 122.323 211.607 122.628 210.62C122.932 209.633 123.146 208.651 123.268 207.676C123.39 206.689 123.463 205.75 123.487 204.86C123.524 203.97 123.542 203.16 123.542 202.428ZM140.73 204.019H149.763V205.336H140.73V204.019ZM149.196 204.019H150.586C150.586 204.019 150.586 204.068 150.586 204.165C150.586 204.263 150.586 204.373 150.586 204.494C150.586 204.616 150.586 204.714 150.586 204.787C150.525 207.128 150.464 209.108 150.403 210.73C150.342 212.339 150.269 213.655 150.183 214.679C150.098 215.703 149.995 216.49 149.873 217.038C149.763 217.587 149.617 217.977 149.434 218.208C149.239 218.489 149.025 218.684 148.794 218.794C148.574 218.915 148.312 218.995 148.008 219.031C147.703 219.068 147.313 219.086 146.837 219.086C146.374 219.086 145.899 219.068 145.411 219.031C145.399 218.824 145.356 218.586 145.283 218.318C145.21 218.05 145.106 217.818 144.972 217.623C145.521 217.672 146.014 217.702 146.453 217.715C146.892 217.715 147.215 217.715 147.422 217.715C147.593 217.715 147.733 217.696 147.843 217.66C147.953 217.611 148.056 217.52 148.154 217.386C148.3 217.215 148.422 216.861 148.52 216.325C148.629 215.789 148.721 215.021 148.794 214.021C148.879 213.009 148.952 211.717 149.013 210.145C149.086 208.56 149.147 206.634 149.196 204.366V204.019ZM133.928 208.298L141.644 206.67L141.882 207.896L134.166 209.541L133.928 208.298ZM136.14 202.922H137.494V213.674C137.494 214.003 137.53 214.216 137.603 214.314C137.676 214.399 137.835 214.442 138.079 214.442C138.127 214.442 138.225 214.442 138.371 214.442C138.518 214.442 138.676 214.442 138.847 214.442C139.029 214.442 139.2 214.442 139.359 214.442C139.517 214.442 139.633 214.442 139.706 214.442C139.865 214.442 139.98 214.375 140.053 214.24C140.139 214.094 140.2 213.832 140.236 213.454C140.273 213.076 140.297 212.534 140.309 211.827C140.468 211.949 140.663 212.065 140.895 212.174C141.138 212.284 141.352 212.363 141.535 212.412C141.486 213.265 141.407 213.936 141.297 214.423C141.199 214.899 141.029 215.24 140.785 215.447C140.553 215.642 140.23 215.74 139.816 215.74C139.743 215.74 139.615 215.74 139.432 215.74C139.249 215.74 139.048 215.74 138.828 215.74C138.621 215.74 138.426 215.74 138.243 215.74C138.06 215.74 137.938 215.74 137.878 215.74C137.414 215.74 137.055 215.679 136.799 215.557C136.555 215.435 136.384 215.228 136.287 214.935C136.189 214.631 136.14 214.204 136.14 213.655V202.922ZM143.966 204.604H145.338C145.314 205.811 145.271 206.993 145.21 208.152C145.149 209.31 145.027 210.431 144.844 211.516C144.661 212.601 144.381 213.625 144.003 214.588C143.625 215.539 143.119 216.416 142.485 217.221C141.852 218.013 141.035 218.708 140.035 219.305C139.925 219.123 139.773 218.928 139.578 218.72C139.395 218.513 139.212 218.349 139.029 218.227C139.98 217.69 140.754 217.056 141.352 216.325C141.961 215.594 142.437 214.783 142.778 213.893C143.131 213.003 143.387 212.052 143.546 211.041C143.704 210.029 143.808 208.98 143.857 207.896C143.906 206.811 143.942 205.713 143.966 204.604ZM160.021 205.427C160.521 205.5 161.1 205.561 161.758 205.61C162.428 205.646 163.117 205.665 163.824 205.665C164.543 205.653 165.226 205.628 165.872 205.592C166.53 205.543 167.085 205.482 167.536 205.409V206.89C167.049 206.939 166.476 206.981 165.817 207.018C165.171 207.042 164.495 207.054 163.788 207.054C163.093 207.054 162.416 207.042 161.758 207.018C161.1 206.981 160.521 206.939 160.021 206.89V205.427ZM160.734 212.869C160.649 213.198 160.582 213.497 160.533 213.765C160.484 214.033 160.46 214.295 160.46 214.551C160.46 214.759 160.502 214.966 160.588 215.173C160.685 215.368 160.844 215.545 161.063 215.703C161.295 215.85 161.612 215.971 162.014 216.069C162.416 216.154 162.928 216.197 163.55 216.197C164.379 216.197 165.159 216.16 165.89 216.087C166.622 216.002 167.353 215.88 168.085 215.722L168.121 217.258C167.548 217.379 166.878 217.477 166.11 217.55C165.354 217.611 164.501 217.642 163.55 217.642C162.014 217.642 160.886 217.398 160.167 216.91C159.46 216.423 159.107 215.752 159.107 214.899C159.107 214.594 159.131 214.271 159.18 213.93C159.241 213.576 159.32 213.18 159.417 212.741L160.734 212.869ZM156.528 204.019C156.504 204.117 156.467 204.245 156.419 204.403C156.382 204.549 156.339 204.702 156.291 204.86C156.254 205.006 156.224 205.134 156.199 205.244C156.138 205.585 156.065 205.982 155.98 206.433C155.895 206.872 155.809 207.347 155.724 207.859C155.651 208.359 155.578 208.871 155.504 209.395C155.444 209.907 155.389 210.407 155.34 210.894C155.303 211.382 155.285 211.833 155.285 212.247C155.285 212.698 155.297 213.125 155.322 213.527C155.358 213.93 155.401 214.356 155.45 214.807C155.559 214.527 155.675 214.228 155.797 213.911C155.919 213.594 156.041 213.284 156.163 212.979C156.297 212.662 156.413 212.381 156.51 212.138L157.278 212.723C157.12 213.162 156.949 213.643 156.766 214.167C156.583 214.692 156.419 215.197 156.272 215.685C156.138 216.16 156.041 216.538 155.98 216.819C155.955 216.953 155.931 217.099 155.907 217.258C155.882 217.416 155.876 217.544 155.888 217.642C155.901 217.739 155.907 217.843 155.907 217.952C155.919 218.074 155.931 218.184 155.943 218.282L154.627 218.373C154.444 217.727 154.285 216.898 154.151 215.886C154.017 214.862 153.95 213.735 153.95 212.503C153.95 211.833 153.981 211.15 154.042 210.455C154.103 209.748 154.182 209.066 154.279 208.408C154.377 207.737 154.468 207.128 154.554 206.579C154.651 206.018 154.724 205.549 154.773 205.171C154.81 204.952 154.84 204.732 154.864 204.513C154.889 204.281 154.901 204.068 154.901 203.873L156.528 204.019ZM171.413 205.738C171.754 205.726 172.065 205.713 172.345 205.701C172.638 205.677 172.869 205.659 173.04 205.646C173.333 205.61 173.753 205.567 174.302 205.518C174.862 205.457 175.502 205.397 176.222 205.336C176.941 205.262 177.715 205.189 178.544 205.116C179.373 205.043 180.208 204.97 181.049 204.897C181.719 204.836 182.353 204.787 182.951 204.75C183.548 204.702 184.103 204.665 184.615 204.641C185.126 204.604 185.584 204.58 185.986 204.568V206.03C185.645 206.03 185.254 206.037 184.816 206.049C184.377 206.061 183.944 206.085 183.517 206.122C183.091 206.158 182.719 206.225 182.402 206.323C181.756 206.53 181.171 206.847 180.647 207.274C180.135 207.688 179.696 208.17 179.33 208.718C178.964 209.267 178.684 209.834 178.489 210.419C178.306 211.004 178.215 211.571 178.215 212.119C178.215 212.826 178.337 213.448 178.58 213.984C178.824 214.509 179.153 214.954 179.568 215.319C179.994 215.685 180.476 215.984 181.012 216.215C181.549 216.447 182.116 216.624 182.713 216.746C183.322 216.855 183.926 216.916 184.523 216.928L183.993 218.446C183.31 218.422 182.628 218.324 181.945 218.154C181.262 217.995 180.61 217.763 179.988 217.459C179.367 217.142 178.812 216.746 178.324 216.27C177.837 215.795 177.453 215.24 177.172 214.606C176.892 213.972 176.752 213.247 176.752 212.43C176.752 211.479 176.916 210.602 177.246 209.797C177.587 208.98 178.02 208.267 178.544 207.658C179.068 207.048 179.61 206.579 180.171 206.25C179.781 206.299 179.294 206.353 178.708 206.414C178.135 206.475 177.52 206.542 176.862 206.616C176.203 206.677 175.539 206.75 174.868 206.835C174.21 206.92 173.595 207.006 173.022 207.091C172.449 207.164 171.967 207.243 171.577 207.329L171.413 205.738ZM183.353 208.28C183.487 208.475 183.645 208.724 183.828 209.029C184.023 209.322 184.212 209.627 184.395 209.943C184.578 210.248 184.73 210.541 184.852 210.821L183.92 211.26C183.712 210.809 183.481 210.364 183.225 209.925C182.969 209.474 182.701 209.06 182.42 208.682L183.353 208.28ZM185.346 207.512C185.492 207.707 185.663 207.95 185.858 208.243C186.053 208.536 186.242 208.84 186.425 209.157C186.62 209.462 186.79 209.755 186.937 210.035L185.986 210.492C185.766 210.041 185.523 209.596 185.254 209.157C184.999 208.718 184.73 208.31 184.45 207.932L185.346 207.512ZM191.526 205.244C192.806 205.39 194.025 205.476 195.183 205.5C196.354 205.525 197.408 205.494 198.347 205.409C199.09 205.336 199.828 205.226 200.559 205.08C201.303 204.921 202.004 204.738 202.662 204.531L202.863 205.848C202.266 206.018 201.595 206.177 200.852 206.323C200.12 206.469 199.389 206.579 198.658 206.652C197.731 206.737 196.652 206.78 195.421 206.78C194.202 206.768 192.934 206.701 191.618 206.579L191.526 205.244ZM191.179 208.993C192.215 209.102 193.239 209.175 194.251 209.212C195.263 209.236 196.22 209.23 197.122 209.194C198.024 209.157 198.828 209.096 199.535 209.011C200.413 208.913 201.211 208.785 201.931 208.627C202.65 208.468 203.253 208.31 203.741 208.152L203.96 209.523C203.46 209.657 202.875 209.791 202.205 209.925C201.534 210.047 200.815 210.157 200.047 210.254C199.291 210.34 198.432 210.407 197.469 210.455C196.506 210.492 195.488 210.504 194.415 210.492C193.355 210.468 192.3 210.425 191.252 210.364L191.179 208.993ZM197.432 205.006C197.359 204.726 197.274 204.452 197.176 204.184C197.091 203.903 197.006 203.635 196.92 203.379L198.475 203.178C198.536 203.69 198.633 204.226 198.767 204.787C198.901 205.336 199.048 205.878 199.206 206.414C199.365 206.939 199.517 207.414 199.663 207.841C199.834 208.316 200.035 208.822 200.267 209.358C200.498 209.895 200.754 210.425 201.035 210.949C201.315 211.473 201.614 211.973 201.931 212.449C202.028 212.583 202.132 212.717 202.241 212.851C202.363 212.973 202.485 213.101 202.607 213.235L201.857 214.35C201.516 214.253 201.114 214.173 200.651 214.112C200.187 214.039 199.712 213.978 199.224 213.93C198.737 213.869 198.28 213.814 197.853 213.765L197.981 212.65C198.469 212.698 198.974 212.753 199.499 212.814C200.023 212.875 200.431 212.924 200.724 212.961C200.212 212.168 199.761 211.351 199.371 210.51C198.993 209.669 198.67 208.877 198.402 208.133C198.255 207.719 198.121 207.335 197.999 206.981C197.89 206.616 197.786 206.268 197.688 205.939C197.603 205.61 197.518 205.299 197.432 205.006ZM193.83 212.924C193.611 213.241 193.428 213.564 193.282 213.893C193.135 214.222 193.062 214.588 193.062 214.99C193.062 215.746 193.404 216.313 194.086 216.691C194.781 217.069 195.848 217.258 197.286 217.258C198.139 217.258 198.914 217.227 199.608 217.166C200.303 217.105 200.98 217.008 201.638 216.874L201.583 218.336C200.949 218.434 200.273 218.507 199.554 218.556C198.834 218.617 198.085 218.647 197.304 218.647C196.11 218.647 195.092 218.525 194.251 218.282C193.422 218.038 192.788 217.666 192.349 217.166C191.922 216.666 191.703 216.026 191.691 215.246C191.679 214.722 191.74 214.259 191.874 213.856C192.02 213.442 192.197 213.034 192.404 212.631L193.83 212.924ZM210.533 204.293C210.74 204.318 210.96 204.336 211.191 204.348C211.435 204.36 211.649 204.366 211.831 204.366C212.014 204.366 212.313 204.36 212.727 204.348C213.154 204.336 213.63 204.324 214.154 204.312C214.69 204.287 215.22 204.269 215.744 204.257C216.281 204.232 216.756 204.208 217.171 204.184C217.597 204.159 217.908 204.141 218.103 204.129C218.371 204.104 218.579 204.08 218.725 204.056C218.871 204.031 218.993 204.007 219.091 203.982L219.932 205.043C219.773 205.153 219.603 205.269 219.42 205.39C219.249 205.512 219.078 205.646 218.908 205.793C218.676 205.963 218.365 206.213 217.975 206.542C217.585 206.859 217.152 207.219 216.677 207.621C216.214 208.011 215.757 208.395 215.306 208.773C214.855 209.151 214.446 209.492 214.081 209.797C214.507 209.651 214.934 209.553 215.361 209.505C215.799 209.444 216.22 209.413 216.622 209.413C217.634 209.413 218.53 209.602 219.31 209.98C220.102 210.346 220.718 210.852 221.157 211.498C221.608 212.144 221.833 212.881 221.833 213.71C221.833 214.685 221.577 215.539 221.065 216.27C220.554 217.002 219.828 217.562 218.89 217.952C217.951 218.355 216.836 218.556 215.543 218.556C214.714 218.556 214.001 218.446 213.404 218.227C212.807 218.007 212.343 217.702 212.014 217.312C211.697 216.922 211.539 216.471 211.539 215.959C211.539 215.545 211.655 215.155 211.886 214.789C212.118 214.423 212.447 214.131 212.874 213.911C213.3 213.692 213.794 213.582 214.355 213.582C215.172 213.582 215.848 213.753 216.384 214.094C216.921 214.423 217.335 214.862 217.628 215.411C217.92 215.947 218.085 216.526 218.122 217.148L216.805 217.367C216.756 216.587 216.512 215.947 216.074 215.447C215.647 214.935 215.068 214.679 214.337 214.679C213.922 214.679 213.575 214.795 213.294 215.027C213.014 215.258 212.874 215.533 212.874 215.85C212.874 216.288 213.099 216.636 213.55 216.892C214.001 217.148 214.586 217.276 215.306 217.276C216.342 217.276 217.238 217.136 217.994 216.855C218.762 216.575 219.347 216.167 219.749 215.63C220.163 215.094 220.371 214.448 220.371 213.692C220.371 213.095 220.194 212.558 219.84 212.083C219.487 211.607 218.999 211.236 218.378 210.967C217.768 210.687 217.067 210.547 216.275 210.547C215.507 210.547 214.818 210.632 214.209 210.803C213.599 210.961 213.026 211.193 212.49 211.498C211.966 211.802 211.441 212.186 210.917 212.65C210.405 213.101 209.857 213.619 209.272 214.204L208.229 213.125C208.607 212.82 209.022 212.479 209.473 212.101C209.936 211.711 210.399 211.327 210.862 210.949C211.326 210.559 211.752 210.199 212.142 209.87C212.545 209.529 212.88 209.249 213.148 209.029C213.404 208.822 213.721 208.56 214.099 208.243C214.489 207.914 214.891 207.572 215.306 207.219C215.72 206.865 216.11 206.53 216.476 206.213C216.854 205.896 217.159 205.64 217.39 205.445C217.195 205.445 216.909 205.457 216.531 205.482C216.153 205.494 215.732 205.512 215.269 205.537C214.806 205.549 214.343 205.567 213.879 205.592C213.428 205.616 213.014 205.64 212.636 205.665C212.27 205.677 211.99 205.689 211.795 205.701C211.6 205.713 211.399 205.726 211.191 205.738C210.984 205.75 210.783 205.774 210.588 205.811L210.533 204.293Z" fill="#030000"/>
</svg>
