<svg width="288" height="289" viewBox="0 0 288 289" fill="none" xmlns="http://www.w3.org/2000/svg">
<path d="M143.789 287.054C222.328 287.054 285.996 223.149 285.996 144.318C285.996 65.4871 222.328 1.58203 143.789 1.58203C65.2495 1.58203 1.58105 65.4871 1.58105 144.318C1.58105 223.149 65.2495 287.054 143.789 287.054Z" fill="white" stroke="#C5AC7A" stroke-width="3.16236" stroke-miterlimit="10"/>
<path d="M78.6666 185.468H88.7784V186.456H78.6666V185.468ZM77.8255 182.616H89.6378V187.023H88.2298V183.622H79.1786V187.041H77.8255V182.616ZM75.9787 171.517H91.4297V172.559H75.9787V171.517ZM77.2952 173.821H90.2046V174.845H77.2952V173.821ZM75.4119 180.495H91.9234V181.61H75.4119V180.495ZM82.9271 170.2H84.335V174.241H82.9271V170.2ZM79.4529 179.306L80.678 178.959C80.8609 179.203 81.0254 179.477 81.1717 179.782C81.3302 180.086 81.4399 180.355 81.5008 180.586L80.1843 180.989C80.1477 180.757 80.0563 180.483 79.91 180.166C79.7637 179.837 79.6114 179.55 79.4529 179.306ZM86.5293 178.886L87.9921 179.197C87.797 179.538 87.5959 179.867 87.3887 180.184C87.1814 180.489 86.9925 180.763 86.8218 181.007L85.6699 180.696C85.8162 180.44 85.9746 180.141 86.1453 179.8C86.3159 179.446 86.4439 179.142 86.5293 178.886ZM79.4529 176.71V178.173H87.9007V176.71H79.4529ZM78.1364 175.759H89.2721V179.123H78.1364V175.759ZM102.821 172.011C102.748 172.108 102.657 172.242 102.547 172.413C102.45 172.571 102.346 172.736 102.236 172.906C102.029 173.211 101.779 173.62 101.487 174.132C101.206 174.631 100.901 175.174 100.572 175.759C100.243 176.332 99.9201 176.899 99.6032 177.459C99.2984 178.02 99.0303 178.526 98.7986 178.977C99.2375 178.575 99.6885 178.288 100.152 178.118C100.627 177.935 101.084 177.843 101.523 177.843C102.133 177.843 102.632 178.032 103.023 178.41C103.425 178.788 103.638 179.337 103.663 180.056C103.675 180.422 103.681 180.812 103.681 181.226C103.693 181.629 103.699 182.025 103.699 182.415C103.699 182.793 103.711 183.134 103.736 183.439C103.772 183.902 103.931 184.237 104.211 184.444C104.491 184.639 104.827 184.737 105.217 184.737C105.717 184.737 106.168 184.603 106.57 184.335C106.984 184.054 107.344 183.689 107.649 183.238C107.966 182.787 108.228 182.299 108.435 181.775C108.642 181.251 108.807 180.751 108.929 180.275L110.135 181.263C109.819 182.238 109.428 183.104 108.965 183.859C108.502 184.603 107.941 185.188 107.283 185.615C106.637 186.041 105.869 186.255 104.979 186.255C104.333 186.255 103.815 186.133 103.425 185.889C103.047 185.657 102.773 185.365 102.602 185.011C102.443 184.658 102.352 184.298 102.328 183.932C102.316 183.579 102.303 183.195 102.291 182.78C102.291 182.366 102.291 181.958 102.291 181.555C102.291 181.153 102.279 180.787 102.255 180.458C102.23 180.056 102.102 179.745 101.871 179.526C101.651 179.294 101.334 179.178 100.92 179.178C100.432 179.178 99.9567 179.325 99.4935 179.617C99.0424 179.898 98.628 180.263 98.2501 180.714C97.8844 181.165 97.5857 181.635 97.3541 182.122C97.22 182.39 97.0676 182.713 96.897 183.091C96.7385 183.469 96.5861 183.859 96.4399 184.262C96.2936 184.664 96.1595 185.042 96.0376 185.395C95.9279 185.749 95.8425 186.041 95.7816 186.273L94.2091 185.724C94.4285 185.103 94.7149 184.396 95.0685 183.603C95.422 182.811 95.806 181.982 96.2204 181.117C96.6349 180.239 97.0616 179.373 97.5004 178.52C97.9392 177.655 98.3537 176.844 98.7438 176.088C99.1461 175.32 99.5057 174.65 99.8226 174.077C100.14 173.492 100.377 173.053 100.536 172.76C100.645 172.541 100.755 172.321 100.865 172.102C100.987 171.87 101.103 171.62 101.212 171.352L102.821 172.011ZM111.638 173.546C111.98 173.534 112.291 173.522 112.571 173.51C112.864 173.486 113.095 173.467 113.266 173.455C113.558 173.418 113.979 173.376 114.527 173.327C115.088 173.266 115.728 173.205 116.447 173.144C117.167 173.071 117.941 172.998 118.77 172.925C119.599 172.852 120.434 172.778 121.275 172.705C121.945 172.644 122.579 172.596 123.176 172.559C123.774 172.51 124.328 172.474 124.84 172.449C125.352 172.413 125.809 172.388 126.212 172.376V173.839C125.87 173.839 125.48 173.845 125.041 173.857C124.603 173.869 124.17 173.894 123.743 173.93C123.317 173.967 122.945 174.034 122.628 174.132C121.982 174.339 121.397 174.656 120.872 175.082C120.36 175.497 119.922 175.978 119.556 176.527C119.19 177.076 118.91 177.642 118.715 178.227C118.532 178.813 118.441 179.379 118.441 179.928C118.441 180.635 118.562 181.257 118.806 181.793C119.05 182.317 119.379 182.762 119.794 183.128C120.22 183.494 120.702 183.792 121.238 184.024C121.775 184.255 122.341 184.432 122.939 184.554C123.548 184.664 124.152 184.725 124.749 184.737L124.219 186.255C123.536 186.23 122.853 186.133 122.171 185.962C121.488 185.804 120.836 185.572 120.214 185.267C119.592 184.95 119.038 184.554 118.55 184.079C118.063 183.603 117.679 183.049 117.398 182.415C117.118 181.781 116.978 181.056 116.978 180.239C116.978 179.288 117.142 178.41 117.471 177.606C117.813 176.789 118.245 176.076 118.77 175.466C119.294 174.857 119.836 174.388 120.397 174.058C120.007 174.107 119.519 174.162 118.934 174.223C118.361 174.284 117.746 174.351 117.087 174.424C116.429 174.485 115.765 174.558 115.094 174.644C114.436 174.729 113.82 174.814 113.248 174.9C112.675 174.973 112.193 175.052 111.803 175.137L111.638 173.546ZM123.579 176.088C123.713 176.283 123.871 176.533 124.054 176.838C124.249 177.13 124.438 177.435 124.621 177.752C124.804 178.057 124.956 178.349 125.078 178.63L124.146 179.069C123.938 178.618 123.707 178.173 123.451 177.734C123.195 177.283 122.926 176.868 122.646 176.49L123.579 176.088ZM125.572 175.32C125.718 175.515 125.889 175.759 126.084 176.052C126.279 176.344 126.468 176.649 126.651 176.966C126.846 177.271 127.016 177.563 127.163 177.843L126.212 178.301C125.992 177.85 125.749 177.405 125.48 176.966C125.224 176.527 124.956 176.119 124.676 175.741L125.572 175.32ZM132.557 172.815C132.532 172.961 132.508 173.144 132.484 173.364C132.471 173.583 132.453 173.802 132.429 174.022C132.417 174.241 132.41 174.43 132.41 174.589C132.398 174.967 132.392 175.399 132.392 175.887C132.404 176.362 132.417 176.862 132.429 177.386C132.453 177.898 132.49 178.41 132.538 178.922C132.636 179.934 132.801 180.824 133.032 181.592C133.264 182.348 133.544 182.939 133.873 183.366C134.215 183.792 134.599 184.006 135.025 184.006C135.257 184.006 135.482 183.902 135.702 183.695C135.921 183.475 136.128 183.189 136.323 182.835C136.531 182.47 136.714 182.067 136.872 181.629C137.043 181.177 137.183 180.726 137.293 180.275L138.445 181.574C138.079 182.61 137.707 183.433 137.329 184.042C136.963 184.639 136.586 185.072 136.195 185.34C135.818 185.609 135.421 185.743 135.007 185.743C134.434 185.743 133.879 185.535 133.343 185.121C132.807 184.694 132.343 184.012 131.953 183.073C131.563 182.122 131.283 180.861 131.112 179.288C131.051 178.752 131.002 178.173 130.966 177.551C130.942 176.929 130.923 176.338 130.911 175.777C130.911 175.217 130.911 174.759 130.911 174.406C130.911 174.199 130.905 173.93 130.893 173.601C130.881 173.272 130.844 172.998 130.783 172.778L132.557 172.815ZM142.083 173.327C142.412 173.742 142.723 174.229 143.016 174.79C143.321 175.338 143.595 175.93 143.839 176.564C144.095 177.185 144.32 177.831 144.515 178.502C144.722 179.172 144.887 179.843 145.009 180.513C145.143 181.171 145.241 181.805 145.301 182.415L143.839 183.018C143.766 182.189 143.638 181.348 143.455 180.495C143.272 179.629 143.046 178.794 142.778 177.99C142.51 177.173 142.199 176.405 141.846 175.686C141.492 174.967 141.096 174.345 140.657 173.821L142.083 173.327ZM151.116 172.102C151.323 172.126 151.543 172.145 151.774 172.157C152.018 172.169 152.232 172.175 152.414 172.175C152.597 172.175 152.896 172.169 153.31 172.157C153.737 172.145 154.212 172.132 154.737 172.12C155.273 172.096 155.803 172.078 156.327 172.065C156.864 172.041 157.339 172.017 157.754 171.992C158.18 171.968 158.491 171.95 158.686 171.937C158.954 171.913 159.162 171.889 159.308 171.864C159.454 171.84 159.576 171.815 159.674 171.791L160.515 172.852C160.356 172.961 160.186 173.077 160.003 173.199C159.832 173.321 159.661 173.455 159.491 173.601C159.259 173.772 158.948 174.022 158.558 174.351C158.168 174.668 157.735 175.028 157.26 175.43C156.797 175.82 156.34 176.204 155.889 176.582C155.438 176.96 155.029 177.301 154.664 177.606C155.09 177.459 155.517 177.362 155.943 177.313C156.382 177.252 156.803 177.222 157.205 177.222C158.217 177.222 159.113 177.411 159.893 177.789C160.685 178.154 161.301 178.66 161.74 179.306C162.191 179.952 162.416 180.69 162.416 181.519C162.416 182.494 162.16 183.347 161.648 184.079C161.136 184.81 160.411 185.371 159.473 185.761C158.534 186.163 157.418 186.364 156.126 186.364C155.297 186.364 154.584 186.255 153.987 186.035C153.39 185.816 152.926 185.511 152.597 185.121C152.28 184.731 152.122 184.28 152.122 183.768C152.122 183.353 152.238 182.963 152.469 182.598C152.701 182.232 153.03 181.939 153.457 181.72C153.883 181.501 154.377 181.391 154.938 181.391C155.755 181.391 156.431 181.561 156.967 181.903C157.504 182.232 157.918 182.671 158.211 183.219C158.503 183.756 158.668 184.335 158.705 184.956L157.388 185.176C157.339 184.396 157.095 183.756 156.657 183.256C156.23 182.744 155.651 182.488 154.92 182.488C154.505 182.488 154.158 182.604 153.877 182.835C153.597 183.067 153.457 183.341 153.457 183.658C153.457 184.097 153.682 184.444 154.133 184.7C154.584 184.956 155.169 185.084 155.889 185.084C156.925 185.084 157.821 184.944 158.577 184.664C159.345 184.383 159.93 183.975 160.332 183.439C160.746 182.902 160.954 182.256 160.954 181.501C160.954 180.903 160.777 180.367 160.423 179.891C160.07 179.416 159.582 179.044 158.961 178.776C158.351 178.496 157.65 178.355 156.858 178.355C156.09 178.355 155.401 178.441 154.792 178.611C154.182 178.77 153.609 179.002 153.073 179.306C152.549 179.611 152.024 179.995 151.5 180.458C150.988 180.909 150.44 181.427 149.855 182.013L148.812 180.934C149.19 180.629 149.605 180.288 150.056 179.91C150.519 179.52 150.982 179.136 151.445 178.758C151.909 178.368 152.335 178.008 152.725 177.679C153.128 177.338 153.463 177.057 153.731 176.838C153.987 176.631 154.304 176.368 154.682 176.052C155.072 175.722 155.474 175.381 155.889 175.028C156.303 174.674 156.693 174.339 157.059 174.022C157.437 173.705 157.742 173.449 157.973 173.254C157.778 173.254 157.492 173.266 157.114 173.29C156.736 173.303 156.315 173.321 155.852 173.345C155.389 173.358 154.926 173.376 154.462 173.4C154.011 173.425 153.597 173.449 153.219 173.473C152.853 173.486 152.573 173.498 152.378 173.51C152.183 173.522 151.982 173.534 151.774 173.546C151.567 173.559 151.366 173.583 151.171 173.62L151.116 172.102ZM173.241 170.785H174.777C174.753 171.261 174.71 171.889 174.649 172.669C174.588 173.449 174.472 174.333 174.302 175.32C174.143 176.295 173.893 177.313 173.552 178.374C173.211 179.434 172.754 180.483 172.181 181.519C171.608 182.555 170.876 183.536 169.987 184.463C169.109 185.389 168.036 186.194 166.768 186.876C166.659 186.706 166.5 186.523 166.293 186.328C166.086 186.133 165.872 185.962 165.653 185.816C166.909 185.17 167.963 184.414 168.816 183.548C169.67 182.683 170.371 181.757 170.919 180.769C171.468 179.782 171.894 178.788 172.199 177.789C172.504 176.777 172.729 175.814 172.876 174.9C173.022 173.985 173.113 173.175 173.15 172.468C173.199 171.748 173.229 171.188 173.241 170.785ZM174.704 171.151C174.716 171.358 174.741 171.718 174.777 172.23C174.826 172.73 174.911 173.339 175.033 174.058C175.155 174.778 175.332 175.558 175.564 176.399C175.795 177.24 176.106 178.106 176.496 178.995C176.886 179.885 177.368 180.751 177.941 181.592C178.514 182.433 179.202 183.213 180.007 183.932C180.811 184.639 181.756 185.237 182.841 185.724C182.634 185.883 182.433 186.066 182.238 186.273C182.055 186.492 181.902 186.694 181.78 186.876C180.683 186.352 179.714 185.712 178.873 184.956C178.044 184.188 177.331 183.36 176.734 182.47C176.149 181.568 175.655 180.647 175.253 179.709C174.863 178.77 174.546 177.856 174.302 176.966C174.058 176.064 173.875 175.229 173.753 174.461C173.631 173.681 173.546 173.016 173.497 172.468C173.449 171.907 173.418 171.505 173.406 171.261L174.704 171.151ZM191.746 171.115C191.673 171.48 191.575 171.913 191.453 172.413C191.344 172.9 191.161 173.455 190.905 174.077C190.685 174.625 190.411 175.192 190.082 175.777C189.765 176.362 189.424 176.893 189.058 177.368C189.29 177.222 189.552 177.1 189.844 177.002C190.137 176.893 190.435 176.813 190.74 176.765C191.057 176.716 191.344 176.692 191.6 176.692C192.307 176.692 192.904 176.893 193.392 177.295C193.879 177.685 194.123 178.258 194.123 179.014C194.123 179.245 194.123 179.544 194.123 179.91C194.123 180.263 194.123 180.641 194.123 181.043C194.135 181.433 194.147 181.817 194.16 182.195C194.172 182.573 194.178 182.902 194.178 183.183H192.77C192.782 182.939 192.794 182.652 192.806 182.323C192.819 181.994 192.825 181.647 192.825 181.281C192.837 180.915 192.837 180.568 192.825 180.239C192.825 179.91 192.825 179.629 192.825 179.398C192.825 178.861 192.66 178.471 192.331 178.227C192.014 177.971 191.612 177.843 191.124 177.843C190.551 177.843 189.984 177.971 189.424 178.227C188.875 178.471 188.394 178.788 187.979 179.178C187.711 179.434 187.443 179.727 187.175 180.056C186.919 180.373 186.632 180.714 186.315 181.08L185.072 180.166C185.95 179.312 186.681 178.514 187.266 177.77C187.851 177.027 188.327 176.338 188.692 175.704C189.058 175.058 189.344 174.479 189.552 173.967C189.747 173.455 189.905 172.943 190.027 172.431C190.149 171.907 190.222 171.425 190.247 170.987L191.746 171.115ZM185.492 173.089C185.98 173.15 186.51 173.199 187.083 173.236C187.656 173.272 188.156 173.29 188.583 173.29C189.399 173.29 190.277 173.272 191.216 173.236C192.154 173.187 193.099 173.12 194.05 173.034C195.013 172.949 195.927 172.827 196.793 172.669L196.774 174.022C196.14 174.132 195.464 174.223 194.745 174.296C194.025 174.357 193.294 174.412 192.55 174.461C191.807 174.497 191.088 174.528 190.393 174.552C189.71 174.564 189.076 174.57 188.491 174.57C188.235 174.57 187.936 174.57 187.595 174.57C187.266 174.558 186.919 174.546 186.553 174.534C186.187 174.509 185.834 174.485 185.492 174.461V173.089ZM199.462 177.514C199.304 177.551 199.127 177.606 198.932 177.679C198.749 177.74 198.56 177.807 198.365 177.88C198.182 177.953 198.006 178.026 197.835 178.099C197.201 178.343 196.463 178.642 195.622 178.995C194.781 179.349 193.922 179.757 193.044 180.221C192.435 180.525 191.898 180.848 191.435 181.19C190.972 181.519 190.606 181.866 190.338 182.232C190.07 182.585 189.936 182.976 189.936 183.402C189.936 183.756 190.015 184.042 190.173 184.262C190.344 184.481 190.582 184.652 190.887 184.774C191.191 184.883 191.539 184.956 191.929 184.993C192.331 185.03 192.77 185.048 193.245 185.048C193.952 185.048 194.757 185.011 195.659 184.938C196.573 184.853 197.433 184.743 198.237 184.609L198.201 186.072C197.737 186.133 197.213 186.188 196.628 186.236C196.055 186.285 195.47 186.322 194.873 186.346C194.288 186.383 193.727 186.401 193.19 186.401C192.325 186.401 191.533 186.322 190.813 186.163C190.106 186.005 189.539 185.724 189.113 185.322C188.686 184.92 188.473 184.347 188.473 183.603C188.473 183.055 188.601 182.555 188.857 182.104C189.113 181.641 189.454 181.22 189.881 180.842C190.32 180.464 190.801 180.117 191.325 179.8C191.85 179.471 192.386 179.172 192.934 178.904C193.52 178.587 194.068 178.313 194.58 178.081C195.104 177.85 195.598 177.636 196.061 177.441C196.524 177.246 196.957 177.051 197.359 176.856C197.628 176.734 197.884 176.618 198.127 176.509C198.371 176.399 198.615 176.277 198.859 176.143L199.462 177.514Z" fill="#030000"/>
<path d="M79.369 202.017V203.901H88.219V202.017H79.369ZM79.369 205.071V206.973H88.219V205.071H79.369ZM79.369 198.982V200.865H88.219V198.982H79.369ZM78.0341 197.757H89.6087V208.198H78.0341V197.757ZM84.9642 207.302H86.3539V211.873C86.3539 212.129 86.4148 212.3 86.5368 212.385C86.6587 212.458 86.9146 212.495 87.3047 212.495C87.3901 212.495 87.5546 212.495 87.7984 212.495C88.0422 212.495 88.3104 212.495 88.603 212.495C88.9077 212.495 89.1881 212.495 89.4441 212.495C89.7123 212.495 89.9073 212.495 90.0292 212.495C90.2852 212.495 90.4742 212.434 90.5961 212.312C90.718 212.19 90.8033 211.946 90.8521 211.581C90.913 211.215 90.9557 210.654 90.9801 209.898C91.0776 209.971 91.1995 210.051 91.3458 210.136C91.492 210.209 91.6444 210.276 91.8029 210.337C91.9736 210.386 92.1198 210.429 92.2417 210.465C92.193 211.343 92.1015 212.026 91.9675 212.513C91.8334 213.001 91.62 213.336 91.3275 213.519C91.0471 213.702 90.6509 213.793 90.1389 213.793C90.0658 213.793 89.9256 213.793 89.7184 213.793C89.5233 213.793 89.2917 213.793 89.0235 213.793C88.7675 213.793 88.5055 213.793 88.2373 213.793C87.9813 213.793 87.7558 213.793 87.5607 213.793C87.3779 213.793 87.2499 213.793 87.1767 213.793C86.5916 213.793 86.1345 213.738 85.8053 213.629C85.4884 213.519 85.269 213.318 85.1471 213.025C85.0252 212.745 84.9642 212.361 84.9642 211.873V207.302ZM80.5758 207.704H82.0386C81.9411 208.509 81.7826 209.24 81.5632 209.898C81.3559 210.557 81.039 211.148 80.6123 211.672C80.1857 212.184 79.6128 212.629 78.8935 213.007C78.1743 213.385 77.2601 213.702 76.1508 213.958C76.1142 213.836 76.0532 213.696 75.9679 213.537C75.8826 213.391 75.785 213.245 75.6753 213.098C75.5656 212.964 75.462 212.848 75.3645 212.751C76.3763 212.544 77.1991 212.288 77.833 211.983C78.4791 211.678 78.985 211.325 79.3507 210.922C79.7286 210.508 80.0028 210.032 80.1735 209.496C80.3564 208.96 80.4904 208.362 80.5758 207.704ZM97.2884 199C97.4957 199.025 97.7151 199.043 97.9467 199.055C98.1905 199.067 98.4038 199.074 98.5867 199.074C98.7696 199.074 99.0682 199.067 99.4827 199.055C99.9093 199.043 100.385 199.031 100.909 199.019C101.445 198.994 101.976 198.976 102.5 198.964C103.036 198.939 103.512 198.915 103.926 198.891C104.353 198.866 104.663 198.848 104.859 198.836C105.127 198.811 105.334 198.787 105.48 198.763C105.627 198.738 105.748 198.714 105.846 198.69L106.687 199.75C106.529 199.86 106.358 199.976 106.175 200.097C106.004 200.219 105.834 200.353 105.663 200.5C105.431 200.67 105.121 200.92 104.731 201.249C104.34 201.566 103.908 201.926 103.432 202.328C102.969 202.718 102.512 203.102 102.061 203.48C101.61 203.858 101.201 204.199 100.836 204.504C101.262 204.358 101.689 204.26 102.116 204.212C102.555 204.151 102.975 204.12 103.377 204.12C104.389 204.12 105.285 204.309 106.065 204.687C106.858 205.053 107.473 205.559 107.912 206.205C108.363 206.851 108.589 207.588 108.589 208.417C108.589 209.392 108.333 210.246 107.821 210.977C107.309 211.709 106.583 212.269 105.645 212.659C104.706 213.062 103.591 213.263 102.299 213.263C101.47 213.263 100.757 213.153 100.159 212.934C99.5619 212.714 99.0987 212.41 98.7696 212.019C98.4526 211.629 98.2941 211.178 98.2941 210.666C98.2941 210.252 98.4099 209.862 98.6416 209.496C98.8732 209.13 99.2023 208.838 99.629 208.618C100.056 208.399 100.549 208.289 101.11 208.289C101.927 208.289 102.603 208.46 103.14 208.801C103.676 209.13 104.091 209.569 104.383 210.118C104.676 210.654 104.84 211.233 104.877 211.855L103.56 212.074C103.512 211.294 103.268 210.654 102.829 210.154C102.402 209.642 101.823 209.386 101.092 209.386C100.677 209.386 100.33 209.502 100.05 209.734C99.7691 209.965 99.629 210.24 99.629 210.557C99.629 210.995 99.8545 211.343 100.306 211.599C100.757 211.855 101.342 211.983 102.061 211.983C103.097 211.983 103.993 211.843 104.749 211.562C105.517 211.282 106.102 210.874 106.504 210.337C106.919 209.801 107.126 209.155 107.126 208.399C107.126 207.802 106.949 207.265 106.596 206.79C106.242 206.314 105.755 205.943 105.133 205.674C104.523 205.394 103.822 205.254 103.03 205.254C102.262 205.254 101.573 205.339 100.964 205.51C100.354 205.668 99.7813 205.9 99.245 206.205C98.7208 206.509 98.1966 206.893 97.6724 207.357C97.1605 207.808 96.6119 208.326 96.0268 208.911L94.9845 207.832C95.3624 207.527 95.7769 207.186 96.2279 206.808C96.6911 206.418 97.1544 206.034 97.6176 205.656C98.0808 205.266 98.5075 204.906 98.8975 204.577C99.2998 204.236 99.6351 203.956 99.9032 203.736C100.159 203.529 100.476 203.267 100.854 202.95C101.244 202.621 101.646 202.28 102.061 201.926C102.475 201.572 102.865 201.237 103.231 200.92C103.609 200.603 103.914 200.347 104.145 200.152C103.95 200.152 103.664 200.165 103.286 200.189C102.908 200.201 102.488 200.219 102.024 200.244C101.561 200.256 101.098 200.274 100.635 200.299C100.184 200.323 99.7691 200.347 99.3912 200.372C99.0255 200.384 98.7452 200.396 98.5501 200.408C98.3551 200.421 98.1539 200.433 97.9467 200.445C97.7395 200.457 97.5383 200.481 97.3433 200.518L97.2884 199ZM121.535 199.988C121.413 200.939 121.254 201.932 121.059 202.968C120.876 204.004 120.639 205.01 120.346 205.985C119.98 207.241 119.572 208.289 119.121 209.13C118.682 209.971 118.207 210.605 117.695 211.032C117.183 211.459 116.646 211.672 116.086 211.672C115.549 211.672 115.031 211.477 114.531 211.087C114.032 210.697 113.623 210.136 113.306 209.405C112.989 208.661 112.831 207.789 112.831 206.79C112.831 205.79 113.032 204.846 113.434 203.956C113.849 203.066 114.416 202.28 115.135 201.597C115.866 200.902 116.72 200.353 117.695 199.951C118.67 199.549 119.712 199.348 120.822 199.348C121.894 199.348 122.857 199.525 123.711 199.878C124.576 200.232 125.314 200.719 125.923 201.341C126.533 201.95 127.002 202.664 127.331 203.48C127.66 204.285 127.825 205.15 127.825 206.077C127.825 207.357 127.55 208.484 127.002 209.46C126.466 210.435 125.685 211.227 124.661 211.837C123.65 212.446 122.418 212.848 120.968 213.043L120.108 211.69C120.401 211.654 120.681 211.617 120.95 211.581C121.218 211.544 121.461 211.501 121.681 211.453C122.266 211.318 122.833 211.111 123.381 210.831C123.942 210.538 124.442 210.173 124.881 209.734C125.32 209.283 125.667 208.752 125.923 208.143C126.191 207.521 126.325 206.814 126.325 206.022C126.325 205.278 126.203 204.59 125.96 203.956C125.716 203.31 125.356 202.743 124.881 202.255C124.405 201.768 123.826 201.384 123.144 201.103C122.461 200.823 121.681 200.683 120.803 200.683C119.804 200.683 118.895 200.865 118.079 201.231C117.274 201.597 116.585 202.078 116.012 202.676C115.452 203.261 115.019 203.907 114.714 204.614C114.409 205.309 114.257 205.991 114.257 206.662C114.257 207.43 114.355 208.064 114.55 208.564C114.757 209.051 115.001 209.411 115.281 209.642C115.574 209.874 115.86 209.99 116.14 209.99C116.433 209.99 116.732 209.85 117.036 209.569C117.341 209.277 117.652 208.813 117.969 208.18C118.286 207.533 118.597 206.698 118.902 205.674C119.17 204.797 119.395 203.864 119.578 202.877C119.773 201.889 119.913 200.92 119.999 199.969L121.535 199.988ZM137.26 198.269C137.236 198.44 137.205 198.622 137.168 198.818C137.132 199 137.095 199.183 137.059 199.366C137.01 199.573 136.955 199.866 136.894 200.244C136.833 200.622 136.76 201.024 136.675 201.451C136.602 201.865 136.522 202.267 136.437 202.657C136.303 203.169 136.145 203.755 135.962 204.413C135.791 205.059 135.584 205.754 135.34 206.497C135.108 207.229 134.846 207.978 134.554 208.746C134.261 209.502 133.938 210.252 133.585 210.995C133.231 211.739 132.847 212.446 132.433 213.117L130.952 212.513C131.366 211.965 131.756 211.343 132.122 210.648C132.487 209.953 132.823 209.234 133.127 208.49C133.432 207.735 133.706 206.991 133.95 206.26C134.194 205.528 134.401 204.852 134.572 204.23C134.755 203.596 134.895 203.054 134.993 202.603C135.163 201.883 135.303 201.128 135.413 200.335C135.523 199.543 135.578 198.799 135.578 198.104L137.26 198.269ZM143.55 200.39C143.843 200.756 144.147 201.219 144.464 201.78C144.793 202.34 145.11 202.932 145.415 203.553C145.732 204.175 146.019 204.778 146.275 205.364C146.543 205.949 146.75 206.455 146.896 206.881L145.488 207.558C145.354 207.082 145.165 206.546 144.921 205.949C144.69 205.351 144.422 204.748 144.117 204.139C143.824 203.517 143.513 202.932 143.184 202.383C142.867 201.822 142.544 201.359 142.215 200.993L143.55 200.39ZM130.677 202.292C130.97 202.304 131.244 202.31 131.5 202.31C131.756 202.31 132.03 202.304 132.323 202.292C132.591 202.28 132.939 202.261 133.365 202.237C133.804 202.2 134.273 202.164 134.773 202.127C135.273 202.078 135.773 202.036 136.273 201.999C136.772 201.95 137.229 201.914 137.644 201.889C138.058 201.853 138.387 201.835 138.631 201.835C139.18 201.835 139.674 201.926 140.112 202.109C140.563 202.28 140.923 202.59 141.191 203.041C141.472 203.48 141.612 204.114 141.612 204.943C141.612 205.662 141.575 206.442 141.502 207.284C141.429 208.112 141.313 208.905 141.155 209.661C141.008 210.404 140.807 211.032 140.551 211.544C140.271 212.154 139.905 212.556 139.454 212.751C139.003 212.958 138.479 213.062 137.882 213.062C137.528 213.062 137.15 213.031 136.748 212.97C136.358 212.922 136.017 212.867 135.724 212.806L135.486 211.27C135.742 211.355 136.01 211.428 136.291 211.489C136.571 211.538 136.839 211.581 137.095 211.617C137.351 211.642 137.559 211.654 137.717 211.654C138.058 211.654 138.363 211.599 138.631 211.489C138.899 211.367 139.131 211.105 139.326 210.703C139.521 210.288 139.68 209.77 139.802 209.149C139.936 208.527 140.033 207.863 140.094 207.156C140.155 206.449 140.186 205.766 140.186 205.108C140.186 204.547 140.106 204.126 139.948 203.846C139.789 203.566 139.564 203.377 139.271 203.279C138.979 203.182 138.637 203.133 138.247 203.133C137.943 203.133 137.528 203.157 137.004 203.206C136.48 203.243 135.919 203.291 135.322 203.352C134.724 203.401 134.17 203.456 133.658 203.517C133.158 203.578 132.768 203.62 132.487 203.645C132.268 203.669 131.994 203.706 131.665 203.755C131.348 203.791 131.073 203.828 130.842 203.864L130.677 202.292ZM143.769 197.739C143.928 197.946 144.092 198.202 144.263 198.507C144.446 198.799 144.629 199.104 144.812 199.421C144.995 199.726 145.147 200 145.269 200.244L144.263 200.683C144.153 200.439 144.013 200.165 143.843 199.86C143.672 199.555 143.495 199.25 143.312 198.946C143.129 198.641 142.953 198.373 142.782 198.141L143.769 197.739ZM145.781 196.989C145.939 197.221 146.116 197.489 146.311 197.794C146.506 198.098 146.695 198.403 146.878 198.708C147.061 199 147.207 199.262 147.317 199.494L146.329 199.933C146.134 199.531 145.897 199.098 145.616 198.635C145.336 198.159 145.068 197.751 144.812 197.41L145.781 196.989ZM154.448 198.507H165.2V199.476H154.448V198.507ZM154.21 207.686H165.383V208.71H154.21V207.686ZM155.088 200.628H164.706V201.579H155.088V200.628ZM156.149 212.349H163.609V213.318H156.149V212.349ZM159.111 197.099H160.427V201.103H159.111V197.099ZM156.935 203.425V204.888H162.731V203.425H156.935ZM155.71 202.529H164.011V205.802H155.71V202.529ZM155.563 209.642H164.249V213.958H162.969V210.593H156.807V213.958H155.563V209.642ZM156.551 206.058L157.648 205.729C157.831 206.01 158.001 206.321 158.16 206.662C158.318 206.991 158.434 207.277 158.507 207.521L157.337 207.887C157.288 207.643 157.191 207.345 157.044 206.991C156.898 206.637 156.734 206.327 156.551 206.058ZM162 205.711L163.207 206.077C163.012 206.406 162.81 206.729 162.603 207.046C162.408 207.363 162.225 207.643 162.055 207.887L161.031 207.576C161.201 207.32 161.378 207.015 161.561 206.662C161.744 206.296 161.89 205.979 162 205.711ZM148.542 200.902H153.552V202.164H148.542V200.902ZM150.7 197.099L151.979 197.227C151.833 198.141 151.669 199.116 151.486 200.152C151.315 201.176 151.126 202.212 150.919 203.261C150.724 204.309 150.523 205.315 150.316 206.278C150.12 207.229 149.938 208.088 149.767 208.856L148.67 208.198C148.828 207.503 148.999 206.705 149.182 205.802C149.377 204.888 149.566 203.925 149.749 202.913C149.944 201.902 150.12 200.896 150.279 199.896C150.45 198.897 150.59 197.964 150.7 197.099ZM149.273 207.576L150.041 206.625C150.651 207.064 151.266 207.558 151.888 208.106C152.522 208.643 153.107 209.185 153.643 209.734C154.18 210.282 154.6 210.788 154.905 211.251L154.046 212.33C153.741 211.867 153.327 211.355 152.802 210.794C152.278 210.234 151.705 209.673 151.084 209.112C150.462 208.539 149.858 208.027 149.273 207.576ZM153.058 200.902H153.296L153.515 200.865L154.302 200.975C154.192 203.34 153.942 205.364 153.552 207.046C153.162 208.728 152.626 210.13 151.943 211.251C151.272 212.373 150.431 213.275 149.42 213.958C149.334 213.799 149.212 213.61 149.054 213.391C148.895 213.184 148.737 213.013 148.578 212.879C149.468 212.342 150.224 211.55 150.846 210.502C151.48 209.453 151.979 208.155 152.345 206.607C152.723 205.059 152.961 203.249 153.058 201.176V200.902ZM172.294 198.232C172.246 198.537 172.209 198.848 172.185 199.165C172.16 199.47 172.142 199.774 172.13 200.079C172.105 200.591 172.081 201.225 172.057 201.981C172.032 202.737 172.008 203.541 171.984 204.395C171.959 205.236 171.941 206.077 171.929 206.918C171.916 207.759 171.91 208.515 171.91 209.185C171.91 209.856 172.038 210.392 172.294 210.794C172.55 211.197 172.904 211.483 173.355 211.654C173.806 211.824 174.324 211.91 174.909 211.91C175.738 211.91 176.488 211.806 177.158 211.599C177.829 211.379 178.426 211.093 178.95 210.739C179.474 210.374 179.938 209.965 180.34 209.514C180.754 209.063 181.126 208.6 181.455 208.125L182.497 209.368C182.181 209.807 181.79 210.264 181.327 210.739C180.876 211.203 180.34 211.635 179.718 212.038C179.096 212.44 178.377 212.769 177.56 213.025C176.756 213.281 175.854 213.409 174.854 213.409C173.989 213.409 173.221 213.275 172.55 213.007C171.88 212.739 171.356 212.306 170.978 211.709C170.6 211.111 170.411 210.319 170.411 209.332C170.411 208.783 170.417 208.18 170.429 207.521C170.441 206.851 170.46 206.162 170.484 205.455C170.508 204.748 170.527 204.059 170.539 203.389C170.551 202.706 170.563 202.078 170.576 201.505C170.588 200.933 170.594 200.457 170.594 200.079C170.594 199.738 170.582 199.409 170.557 199.092C170.533 198.775 170.496 198.482 170.448 198.214L172.294 198.232ZM188.44 199.713C188.416 199.86 188.391 200.043 188.367 200.262C188.355 200.481 188.337 200.701 188.312 200.92C188.3 201.14 188.294 201.329 188.294 201.487C188.282 201.865 188.276 202.298 188.276 202.785C188.288 203.261 188.3 203.761 188.312 204.285C188.337 204.797 188.373 205.309 188.422 205.821C188.519 206.833 188.684 207.722 188.916 208.49C189.147 209.246 189.428 209.837 189.757 210.264C190.098 210.691 190.482 210.904 190.909 210.904C191.14 210.904 191.366 210.8 191.585 210.593C191.805 210.374 192.012 210.087 192.207 209.734C192.414 209.368 192.597 208.966 192.756 208.527C192.926 208.076 193.066 207.625 193.176 207.174L194.328 208.472C193.962 209.508 193.591 210.331 193.213 210.941C192.847 211.538 192.469 211.971 192.079 212.239C191.701 212.507 191.305 212.641 190.89 212.641C190.317 212.641 189.763 212.434 189.226 212.019C188.69 211.593 188.227 210.91 187.837 209.971C187.447 209.021 187.166 207.759 186.996 206.186C186.935 205.65 186.886 205.071 186.849 204.449C186.825 203.828 186.807 203.236 186.795 202.676C186.795 202.115 186.795 201.658 186.795 201.304C186.795 201.097 186.788 200.829 186.776 200.5C186.764 200.171 186.727 199.896 186.667 199.677L188.44 199.713ZM197.967 200.225C198.296 200.64 198.607 201.128 198.899 201.688C199.204 202.237 199.478 202.828 199.722 203.462C199.978 204.084 200.204 204.73 200.399 205.4C200.606 206.071 200.771 206.741 200.892 207.412C201.027 208.07 201.124 208.704 201.185 209.313L199.722 209.917C199.649 209.088 199.521 208.247 199.338 207.393C199.155 206.528 198.93 205.693 198.662 204.888C198.393 204.071 198.083 203.303 197.729 202.584C197.376 201.865 196.979 201.243 196.541 200.719L197.967 200.225Z" fill="#030000"/>
<path d="M141.938 103.757L129.927 84.7254C128.511 82.6488 126.305 81.1739 123.803 80.9143C123.615 80.8907 123.438 80.8789 123.273 80.8789H111.922C106.459 80.8789 102.022 85.3037 102.022 90.7784V112.028C102.022 114.896 104.335 117.22 107.214 117.22" stroke="#10357B" stroke-width="2.01337" stroke-linecap="round" stroke-linejoin="round"/>
<path d="M117.539 77.4223C121.775 77.4223 125.209 73.9357 125.209 69.6348C125.209 65.334 121.775 61.8477 117.539 61.8477C113.304 61.8477 109.87 65.334 109.87 69.6348C109.87 73.9357 113.304 77.4223 117.539 77.4223Z" stroke="#10357B" stroke-width="2.01337" stroke-linecap="round" stroke-linejoin="round"/>
<path d="M117.597 140.179C117.597 142.786 119.709 144.898 122.316 144.898C124.924 144.898 127.036 142.786 127.036 140.179V95.8147C127.036 95.8147 127.036 95.6967 127.036 95.4961C132.275 102.752 137.997 109.679 137.997 109.679" stroke="#10357B" stroke-width="2.01337" stroke-linecap="round" stroke-linejoin="round"/>
<path d="M117.599 117.212V140.114C117.599 142.757 115.452 144.892 112.82 144.881C110.189 144.881 108.065 142.745 108.065 140.114V95.8086" stroke="#10357B" stroke-width="2.01337" stroke-linecap="round" stroke-linejoin="round"/>
<path d="M169.45 77.4223C173.685 77.4223 177.119 73.9357 177.119 69.6348C177.119 65.334 173.685 61.8477 169.45 61.8477C165.214 61.8477 161.78 65.334 161.78 69.6348C161.78 73.9357 165.214 77.4223 169.45 77.4223Z" stroke="#10357B" stroke-width="2.01337" stroke-linecap="round" stroke-linejoin="round"/>
<path d="M169.499 117.212V140.173C169.499 142.78 171.611 144.892 174.219 144.892C176.826 144.892 178.938 142.78 178.938 140.173V95.8086" stroke="#10357B" stroke-width="2.01337" stroke-linecap="round" stroke-linejoin="round"/>
<path d="M169.491 140.11C169.491 142.753 167.344 144.889 164.713 144.877C162.082 144.877 159.958 142.741 159.958 140.11V95.899C155.734 102.035 149.858 110.742 146.613 114.99C145.551 116.371 143.652 116.96 142.094 116.182C140.124 115.191 139.534 112.748 140.714 110.99C140.714 110.99 152.808 92.3358 158.271 83.9113C159.498 82.0235 161.586 80.8907 163.828 80.8789H175.179C180.642 80.8789 185.078 85.3037 185.078 90.7784V112.028C185.078 114.896 182.765 117.22 179.886 117.22" stroke="#10357B" stroke-width="2.01337" stroke-linecap="round" stroke-linejoin="round"/>
</svg>
