<svg width="510" height="110" viewBox="0 0 510 110" fill="none" xmlns="http://www.w3.org/2000/svg">
<path d="M357.185 1.1875H38.1658C17.7454 1.1875 1.18506 18.6521 1.18506 40.1875C1.18506 61.7229 17.7454 79.1875 38.1658 79.1875H106.199" stroke="#211816" stroke-width="2.37" stroke-linecap="round" stroke-linejoin="round"/>
<path d="M142.185 79.186L171.114 107.649C172.465 108.982 174.609 107.649 174.206 105.732L168.646 79.1721H471.721C491.856 79.1721 508.185 61.711 508.185 40.1798C508.185 18.6486 491.856 1.1875 471.721 1.1875H416.266" stroke="#211816" stroke-width="2.37" stroke-linecap="round" stroke-linejoin="round"/>
<path d="M61.2661 28.1485H82.1501V29.8735H61.2661V28.1485ZM70.8341 24.4455H72.6281V36.7965C72.6281 37.3792 72.5361 37.8162 72.3521 38.1075C72.1834 38.3988 71.8844 38.6135 71.4551 38.7515C71.0257 38.8895 70.4277 38.9815 69.6611 39.0275C68.9097 39.0735 67.9821 39.0888 66.8781 39.0735C66.8474 38.9048 66.7861 38.7132 66.6941 38.4985C66.6174 38.2992 66.5254 38.0845 66.4181 37.8545C66.3261 37.6398 66.2341 37.4558 66.1421 37.3025C66.7554 37.3178 67.3381 37.3255 67.8901 37.3255C68.4574 37.3408 68.9404 37.3485 69.3391 37.3485C69.7531 37.3485 70.0444 37.3485 70.2131 37.3485C70.4584 37.3178 70.6194 37.2642 70.6961 37.1875C70.7881 37.1262 70.8341 36.9882 70.8341 36.7735V24.4455ZM63.6581 19.4545H78.6541V21.1795H63.6581V19.4545ZM78.0791 19.4545H78.5161L78.9071 19.3625L80.2181 20.3515C79.5281 21.0415 78.7231 21.7468 77.8031 22.4675C76.8984 23.1728 75.9554 23.8398 74.9741 24.4685C74.0081 25.0972 73.0804 25.6415 72.1911 26.1015C72.0991 25.9788 71.9841 25.8408 71.8461 25.6875C71.7234 25.5342 71.5854 25.3885 71.4321 25.2505C71.2941 25.0972 71.1714 24.9745 71.0641 24.8825C71.9074 24.4685 72.7737 23.9778 73.6631 23.4105C74.5524 22.8278 75.3881 22.2298 76.1701 21.6165C76.9521 20.9878 77.5884 20.4052 78.0791 19.8685V19.4545ZM87.8771 27.6195H100.504V29.0685H89.6021V39.0275H87.8771V27.6195ZM99.9061 27.6195H101.654V37.1875C101.654 37.6475 101.577 38.0002 101.424 38.2455C101.286 38.4908 101.041 38.6672 100.688 38.7745C100.32 38.8972 99.8294 38.9662 99.2161 38.9815C98.6027 39.0122 97.8361 39.0275 96.9161 39.0275C96.8701 38.8128 96.7934 38.5675 96.6861 38.2915C96.5787 38.0308 96.4637 37.8008 96.3411 37.6015C96.8011 37.6168 97.2381 37.6245 97.6521 37.6245C98.0661 37.6245 98.4341 37.6168 98.7561 37.6015C99.0781 37.6015 99.3004 37.6015 99.4231 37.6015C99.6071 37.6015 99.7297 37.5632 99.7911 37.4865C99.8677 37.4252 99.9061 37.3178 99.9061 37.1645V27.6195ZM88.8891 30.8395H100.619V32.1275H88.8891V30.8395ZM84.5881 20.1215H104.828V21.6625H84.5881V20.1215ZM90.9821 21.0415L92.8451 21.5935C92.3544 22.2988 91.8101 23.0195 91.2121 23.7555C90.6141 24.4915 90.0697 25.1202 89.5791 25.6415L88.1991 25.1125C88.5057 24.7445 88.8277 24.3228 89.1651 23.8475C89.5177 23.3722 89.8474 22.8892 90.1541 22.3985C90.4761 21.9078 90.7521 21.4555 90.9821 21.0415ZM97.3761 22.5135L98.7561 21.6165C99.4307 22.0612 100.136 22.5595 100.872 23.1115C101.623 23.6482 102.329 24.1925 102.988 24.7445C103.647 25.2965 104.184 25.7948 104.598 26.2395L103.149 27.2745C102.766 26.8145 102.252 26.3085 101.608 25.7565C100.964 25.1892 100.274 24.6218 99.5381 24.0545C98.8021 23.4872 98.0814 22.9735 97.3761 22.5135ZM85.4851 24.5835C86.5124 24.5835 87.6701 24.5758 88.9581 24.5605C90.2614 24.5298 91.6491 24.5068 93.1211 24.4915C94.5931 24.4608 96.1034 24.4302 97.6521 24.3995C99.2161 24.3688 100.765 24.3382 102.298 24.3075L102.206 25.7335C100.197 25.7948 98.1811 25.8562 96.1571 25.9175C94.1331 25.9788 92.2087 26.0325 90.3841 26.0785C88.5594 26.1245 86.9494 26.1628 85.5541 26.1935L85.4851 24.5835ZM88.8891 33.8985H100.55V35.1865H88.8891V33.8985ZM93.7651 17.8445H95.5361V20.8575H93.7651V17.8445ZM108.14 21.9155C108.585 21.9002 108.983 21.8848 109.336 21.8695C109.689 21.8388 109.972 21.8158 110.187 21.8005C110.555 21.7545 111.084 21.7008 111.774 21.6395C112.479 21.5628 113.284 21.4862 114.189 21.4095C115.094 21.3175 116.067 21.2255 117.11 21.1335C118.153 21.0415 119.203 20.9495 120.261 20.8575C121.104 20.7808 121.902 20.7195 122.653 20.6735C123.404 20.6122 124.102 20.5662 124.746 20.5355C125.39 20.4895 125.965 20.4588 126.471 20.4435V22.2835C126.042 22.2682 125.551 22.2682 124.999 22.2835C124.447 22.2988 123.903 22.3372 123.366 22.3985C122.829 22.4445 122.362 22.5288 121.963 22.6515C121.15 22.9122 120.414 23.3108 119.755 23.8475C119.111 24.3688 118.559 24.9745 118.099 25.6645C117.639 26.3392 117.286 27.0522 117.041 27.8035C116.811 28.5395 116.696 29.2448 116.696 29.9195C116.696 30.8242 116.849 31.6138 117.156 32.2885C117.463 32.9478 117.877 33.5075 118.398 33.9675C118.935 34.4275 119.54 34.8032 120.215 35.0945C120.905 35.3858 121.626 35.6005 122.377 35.7385C123.128 35.8765 123.88 35.9608 124.631 35.9915L123.964 37.9005C123.121 37.8698 122.262 37.7472 121.388 37.5325C120.529 37.3332 119.709 37.0418 118.927 36.6585C118.145 36.2598 117.447 35.7615 116.834 35.1635C116.221 34.5655 115.738 33.8678 115.385 33.0705C115.032 32.2732 114.856 31.3608 114.856 30.3335C114.856 29.1375 115.063 28.0335 115.477 27.0215C115.906 25.9942 116.451 25.0972 117.11 24.3305C117.769 23.5638 118.452 22.9735 119.157 22.5595C118.666 22.6208 118.061 22.6898 117.34 22.7665C116.619 22.8432 115.837 22.9275 114.994 23.0195C114.166 23.0962 113.338 23.1882 112.51 23.2955C111.682 23.4028 110.9 23.5102 110.164 23.6175C109.443 23.7095 108.838 23.8092 108.347 23.9165L108.14 21.9155ZM147.907 23.4565C147.646 23.6252 147.37 23.7862 147.079 23.9395C146.788 24.0928 146.473 24.2538 146.136 24.4225C145.753 24.6372 145.277 24.8825 144.71 25.1585C144.143 25.4345 143.537 25.7412 142.893 26.0785C142.249 26.4158 141.605 26.7685 140.961 27.1365C140.317 27.5045 139.711 27.8725 139.144 28.2405C138.071 28.9305 137.227 29.6588 136.614 30.4255C136.016 31.1922 135.717 32.0125 135.717 32.8865C135.717 33.8372 136.169 34.5962 137.074 35.1635C137.994 35.7155 139.359 35.9915 141.168 35.9915C142.011 35.9915 142.885 35.9608 143.79 35.8995C144.695 35.8228 145.561 35.7232 146.389 35.6005C147.232 35.4778 147.945 35.3475 148.528 35.2095V37.2565C147.961 37.3638 147.286 37.4558 146.504 37.5325C145.737 37.6245 144.909 37.6935 144.02 37.7395C143.131 37.8008 142.211 37.8315 141.26 37.8315C140.171 37.8315 139.175 37.7395 138.27 37.5555C137.365 37.3868 136.576 37.1185 135.901 36.7505C135.242 36.3825 134.728 35.8995 134.36 35.3015C133.992 34.6882 133.808 33.9522 133.808 33.0935C133.808 32.2502 133.984 31.4758 134.337 30.7705C134.69 30.0498 135.196 29.3675 135.855 28.7235C136.514 28.0795 137.296 27.4585 138.201 26.8605C138.784 26.4618 139.405 26.0785 140.064 25.7105C140.739 25.3272 141.398 24.9592 142.042 24.6065C142.686 24.2538 143.284 23.9318 143.836 23.6405C144.403 23.3492 144.879 23.1038 145.262 22.9045C145.584 22.7052 145.875 22.5288 146.136 22.3755C146.397 22.2068 146.65 22.0228 146.895 21.8235L147.907 23.4565ZM136.269 19.2935C136.622 20.2748 136.997 21.2332 137.396 22.1685C137.81 23.1038 138.224 23.9778 138.638 24.7905C139.067 25.6032 139.458 26.3238 139.811 26.9525L138.224 27.8955C137.841 27.2668 137.434 26.5232 137.005 25.6645C136.576 24.8058 136.146 23.8935 135.717 22.9275C135.288 21.9615 134.866 21.0032 134.452 20.0525L136.269 19.2935ZM166.008 18.2355H167.756V37.4405H166.008V18.2355ZM159.407 25.1585H174.38V26.8375H159.407V25.1585ZM160.005 36.4055H174.012V38.0615H160.005V36.4055ZM156.463 24.1235L158.142 22.4215L158.165 22.4675V38.9815H156.463V24.1235ZM159.039 17.9135L160.672 18.4425C160.135 19.7765 159.499 21.0875 158.763 22.3755C158.027 23.6635 157.237 24.8748 156.394 26.0095C155.551 27.1442 154.677 28.1408 153.772 28.9995C153.711 28.8615 153.611 28.6928 153.473 28.4935C153.35 28.2788 153.22 28.0642 153.082 27.8495C152.959 27.6348 152.837 27.4585 152.714 27.3205C153.557 26.5692 154.37 25.6952 155.152 24.6985C155.934 23.6865 156.655 22.6055 157.314 21.4555C157.973 20.3055 158.548 19.1248 159.039 17.9135ZM185.742 17.8675H187.49V37.0955C187.49 37.6168 187.406 38.0002 187.237 38.2455C187.084 38.5062 186.823 38.6978 186.455 38.8205C186.102 38.9432 185.612 39.0198 184.983 39.0505C184.37 39.0812 183.58 39.0965 182.614 39.0965C182.568 38.8818 182.484 38.6288 182.361 38.3375C182.238 38.0615 182.116 37.8315 181.993 37.6475C182.453 37.6628 182.898 37.6705 183.327 37.6705C183.772 37.6705 184.155 37.6628 184.477 37.6475C184.814 37.6475 185.044 37.6475 185.167 37.6475C185.382 37.6322 185.527 37.5862 185.604 37.5095C185.696 37.4328 185.742 37.2948 185.742 37.0955V17.8675ZM176.726 19.7075H196.69V21.1335H176.726V19.7075ZM180.797 23.7095V25.3425H192.642V23.7095H180.797ZM179.141 22.4905H194.39V26.5615H179.141V22.4905ZM178.474 28.1945H194.758V36.5435H193.01V29.4595H178.474V28.1945ZM176.289 31.0695H197.15V32.4495H176.289V31.0695ZM178.267 34.1745H193.907V35.5315H178.267V34.1745ZM208.765 18.9945C208.673 19.4545 208.55 19.9988 208.397 20.6275C208.259 21.2408 208.029 21.9385 207.707 22.7205C207.431 23.4105 207.086 24.1235 206.672 24.8595C206.273 25.5955 205.844 26.2625 205.384 26.8605C205.675 26.6765 206.005 26.5232 206.373 26.4005C206.741 26.2625 207.117 26.1628 207.5 26.1015C207.899 26.0402 208.259 26.0095 208.581 26.0095C209.47 26.0095 210.222 26.2625 210.835 26.7685C211.448 27.2592 211.755 27.9798 211.755 28.9305C211.755 29.2218 211.755 29.5975 211.755 30.0575C211.755 30.5022 211.755 30.9775 211.755 31.4835C211.77 31.9742 211.786 32.4572 211.801 32.9325C211.816 33.4078 211.824 33.8218 211.824 34.1745H210.053C210.068 33.8678 210.084 33.5075 210.099 33.0935C210.114 32.6795 210.122 32.2425 210.122 31.7825C210.137 31.3225 210.137 30.8855 210.122 30.4715C210.122 30.0575 210.122 29.7048 210.122 29.4135C210.122 28.7388 209.915 28.2482 209.501 27.9415C209.102 27.6195 208.596 27.4585 207.983 27.4585C207.262 27.4585 206.549 27.6195 205.844 27.9415C205.154 28.2482 204.548 28.6468 204.027 29.1375C203.69 29.4595 203.352 29.8275 203.015 30.2415C202.693 30.6402 202.333 31.0695 201.934 31.5295L200.37 30.3795C201.474 29.3062 202.394 28.3018 203.13 27.3665C203.866 26.4312 204.464 25.5648 204.924 24.7675C205.384 23.9548 205.744 23.2265 206.005 22.5825C206.25 21.9385 206.45 21.2945 206.603 20.6505C206.756 19.9912 206.848 19.3855 206.879 18.8335L208.765 18.9945ZM200.899 21.4785C201.512 21.5552 202.179 21.6165 202.9 21.6625C203.621 21.7085 204.249 21.7315 204.786 21.7315C205.813 21.7315 206.917 21.7085 208.098 21.6625C209.279 21.6012 210.467 21.5168 211.663 21.4095C212.874 21.3022 214.024 21.1488 215.113 20.9495L215.09 22.6515C214.293 22.7895 213.442 22.9045 212.537 22.9965C211.632 23.0732 210.712 23.1422 209.777 23.2035C208.842 23.2495 207.937 23.2878 207.063 23.3185C206.204 23.3338 205.407 23.3415 204.671 23.3415C204.349 23.3415 203.973 23.3415 203.544 23.3415C203.13 23.3262 202.693 23.3108 202.233 23.2955C201.773 23.2648 201.328 23.2342 200.899 23.2035V21.4785ZM218.471 27.0445C218.272 27.0905 218.049 27.1595 217.804 27.2515C217.574 27.3282 217.336 27.4125 217.091 27.5045C216.861 27.5965 216.639 27.6885 216.424 27.7805C215.627 28.0872 214.699 28.4628 213.641 28.9075C212.583 29.3522 211.502 29.8658 210.398 30.4485C209.631 30.8318 208.957 31.2382 208.374 31.6675C207.791 32.0815 207.331 32.5185 206.994 32.9785C206.657 33.4232 206.488 33.9138 206.488 34.4505C206.488 34.8952 206.588 35.2555 206.787 35.5315C207.002 35.8075 207.301 36.0222 207.684 36.1755C208.067 36.3135 208.504 36.4055 208.995 36.4515C209.501 36.4975 210.053 36.5205 210.651 36.5205C211.54 36.5205 212.552 36.4745 213.687 36.3825C214.837 36.2752 215.918 36.1372 216.93 35.9685L216.884 37.8085C216.301 37.8852 215.642 37.9542 214.906 38.0155C214.185 38.0768 213.449 38.1228 212.698 38.1535C211.962 38.1995 211.257 38.2225 210.582 38.2225C209.493 38.2225 208.497 38.1228 207.592 37.9235C206.703 37.7242 205.99 37.3715 205.453 36.8655C204.916 36.3595 204.648 35.6388 204.648 34.7035C204.648 34.0135 204.809 33.3848 205.131 32.8175C205.453 32.2348 205.882 31.7058 206.419 31.2305C206.971 30.7552 207.577 30.3182 208.236 29.9195C208.895 29.5055 209.57 29.1298 210.26 28.7925C210.996 28.3938 211.686 28.0488 212.33 27.7575C212.989 27.4662 213.61 27.1978 214.193 26.9525C214.776 26.7072 215.32 26.4618 215.826 26.2165C216.163 26.0632 216.485 25.9175 216.792 25.7795C217.099 25.6415 217.405 25.4882 217.712 25.3195L218.471 27.0445ZM227.073 17.8675L228.752 18.3505C228.338 19.2092 227.847 20.0525 227.28 20.8805C226.713 21.6932 226.107 22.4522 225.463 23.1575C224.834 23.8628 224.198 24.4838 223.554 25.0205C223.462 24.9132 223.324 24.7905 223.14 24.6525C222.971 24.4992 222.795 24.3535 222.611 24.2155C222.442 24.0775 222.289 23.9702 222.151 23.8935C223.132 23.1575 224.06 22.2605 224.934 21.2025C225.808 20.1445 226.521 19.0328 227.073 17.8675ZM226.268 20.5125H242.115V22.0765H225.693L226.268 20.5125ZM222.427 25.9405H242.966V27.5275H222.427V25.9405ZM222.772 31.4375H242.667V33.0245H222.772V31.4375ZM229.741 21.0415H231.259V32.1965H229.741V21.0415ZM225.647 21.0415H227.188V32.2655H225.647V21.0415ZM233.904 21.0415H235.399V32.2655H233.904V21.0415ZM238.113 21.0415H239.723V32.2655H238.113V21.0415ZM229.12 34.5885L230.707 34.4275C230.86 35.1022 230.991 35.8305 231.098 36.6125C231.205 37.3945 231.267 38.0538 231.282 38.5905L229.603 38.8205C229.603 38.4525 229.58 38.0232 229.534 37.5325C229.503 37.0572 229.45 36.5588 229.373 36.0375C229.312 35.5162 229.227 35.0332 229.12 34.5885ZM233.812 34.5885L235.422 34.2895C235.637 34.7342 235.844 35.2172 236.043 35.7385C236.242 36.2445 236.419 36.7352 236.572 37.2105C236.725 37.6858 236.84 38.1075 236.917 38.4755L235.215 38.8435C235.108 38.2915 234.924 37.6168 234.663 36.8195C234.402 36.0222 234.119 35.2785 233.812 34.5885ZM238.504 34.4275L240.137 33.8985C240.52 34.3432 240.911 34.8415 241.31 35.3935C241.709 35.9455 242.077 36.4898 242.414 37.0265C242.767 37.5478 243.043 38.0232 243.242 38.4525L241.54 39.0735C241.356 38.6595 241.095 38.1842 240.758 37.6475C240.436 37.1108 240.076 36.5588 239.677 35.9915C239.278 35.4242 238.887 34.9028 238.504 34.4275ZM225.095 33.9905L226.751 34.4045C226.444 35.2632 226.046 36.1142 225.555 36.9575C225.064 37.8008 224.505 38.4985 223.876 39.0505L222.266 38.3835C222.864 37.8928 223.416 37.2488 223.922 36.4515C224.428 35.6542 224.819 34.8338 225.095 33.9905ZM255.133 24.7675V27.7345H263.666V24.7675H255.133ZM255.133 20.4435V23.3645H263.666V20.4435H255.133ZM253.546 18.9255H265.322V29.2295H253.546V18.9255ZM253.27 31.9435H265.644V33.5075H253.27V31.9435ZM251.499 36.6815H266.426V38.2685H251.499V36.6815ZM245.243 19.4085H252.419V21.0415H245.243V19.4085ZM245.473 26.0785H252.074V27.6885H245.473V26.0785ZM244.99 34.8875C245.619 34.7035 246.324 34.4965 247.106 34.2665C247.903 34.0212 248.739 33.7528 249.613 33.4615C250.502 33.1548 251.392 32.8558 252.281 32.5645L252.58 34.2435C251.338 34.6575 250.088 35.0792 248.831 35.5085C247.574 35.9225 246.439 36.2982 245.427 36.6355L244.99 34.8875ZM248.095 20.0525H249.751V34.3125L248.095 34.6345V20.0525ZM258.652 19.6385H260.147V28.4935H260.285V37.3945H258.514V28.4935H258.652V19.6385ZM269.416 22.6745C269.845 22.7358 270.298 22.7818 270.773 22.8125C271.248 22.8278 271.731 22.8355 272.222 22.8355C273.065 22.8355 273.932 22.7972 274.821 22.7205C275.726 22.6438 276.638 22.5212 277.558 22.3525C278.478 22.1685 279.383 21.9308 280.272 21.6395L280.318 23.3645C279.567 23.5638 278.739 23.7478 277.834 23.9165C276.945 24.0852 276.017 24.2232 275.051 24.3305C274.1 24.4225 273.157 24.4685 272.222 24.4685C271.808 24.4685 271.363 24.4685 270.888 24.4685C270.428 24.4532 269.976 24.4302 269.531 24.3995L269.416 22.6745ZM277.558 18.9255C277.466 19.2935 277.351 19.7612 277.213 20.3285C277.075 20.8958 276.922 21.4938 276.753 22.1225C276.6 22.7358 276.431 23.3185 276.247 23.8705C275.879 24.9745 275.411 26.1398 274.844 27.3665C274.277 28.5778 273.671 29.7585 273.027 30.9085C272.383 32.0585 271.747 33.0628 271.118 33.9215L269.347 33.0015C269.853 32.4035 270.359 31.7212 270.865 30.9545C271.386 30.1878 271.869 29.3828 272.314 28.5395C272.774 27.6962 273.188 26.8682 273.556 26.0555C273.924 25.2428 274.231 24.4992 274.476 23.8245C274.721 23.0885 274.951 22.2605 275.166 21.3405C275.381 20.4052 275.503 19.5388 275.534 18.7415L277.558 18.9255ZM282.986 26.0325C282.971 26.5078 282.955 26.9372 282.94 27.3205C282.94 27.6885 282.948 28.0872 282.963 28.5165C282.978 28.8845 282.994 29.3598 283.009 29.9425C283.04 30.5098 283.07 31.1155 283.101 31.7595C283.132 32.3882 283.155 32.9938 283.17 33.5765C283.201 34.1592 283.216 34.6422 283.216 35.0255C283.216 35.6388 283.078 36.1985 282.802 36.7045C282.526 37.2105 282.089 37.6092 281.491 37.9005C280.908 38.2072 280.142 38.3605 279.191 38.3605C278.348 38.3605 277.581 38.2378 276.891 37.9925C276.201 37.7625 275.641 37.4022 275.212 36.9115C274.798 36.4208 274.591 35.7998 274.591 35.0485C274.591 34.3278 274.79 33.7145 275.189 33.2085C275.603 32.6872 276.155 32.2885 276.845 32.0125C277.55 31.7365 278.332 31.5985 279.191 31.5985C280.479 31.5985 281.66 31.7825 282.733 32.1505C283.822 32.5032 284.795 32.9555 285.654 33.5075C286.528 34.0595 287.279 34.6038 287.908 35.1405L286.919 36.7045C286.474 36.3058 285.976 35.8918 285.424 35.4625C284.887 35.0332 284.289 34.6422 283.63 34.2895C282.971 33.9215 282.265 33.6225 281.514 33.3925C280.763 33.1625 279.965 33.0475 279.122 33.0475C278.279 33.0475 277.596 33.2238 277.075 33.5765C276.554 33.9292 276.293 34.3662 276.293 34.8875C276.293 35.4242 276.515 35.8612 276.96 36.1985C277.405 36.5358 278.072 36.7045 278.961 36.7045C279.605 36.7045 280.111 36.6048 280.479 36.4055C280.847 36.1908 281.108 35.9148 281.261 35.5775C281.43 35.2248 281.514 34.8415 281.514 34.4275C281.514 33.9982 281.499 33.4385 281.468 32.7485C281.453 32.0585 281.422 31.3225 281.376 30.5405C281.345 29.7432 281.307 28.9535 281.261 28.1715C281.23 27.3742 281.207 26.6612 281.192 26.0325H282.986ZM287.586 26.6535C287.172 26.2855 286.651 25.9022 286.022 25.5035C285.393 25.1048 284.742 24.7292 284.067 24.3765C283.408 24.0085 282.825 23.7095 282.319 23.4795L283.262 22.0765C283.676 22.2605 284.136 22.4828 284.642 22.7435C285.148 23.0042 285.654 23.2802 286.16 23.5715C286.666 23.8628 287.134 24.1465 287.563 24.4225C288.008 24.6832 288.36 24.9208 288.621 25.1355L287.586 26.6535ZM306.377 20.2135C306.132 20.3975 305.856 20.6275 305.549 20.9035C305.242 21.1642 304.989 21.3712 304.79 21.5245C304.391 21.8772 303.908 22.2912 303.341 22.7665C302.774 23.2265 302.176 23.7172 301.547 24.2385C300.918 24.7445 300.313 25.2352 299.73 25.7105C299.147 26.1705 298.641 26.5845 298.212 26.9525C297.752 27.3512 297.445 27.6808 297.292 27.9415C297.139 28.1868 297.139 28.4398 297.292 28.7005C297.461 28.9612 297.79 29.3062 298.281 29.7355C298.71 30.0728 299.201 30.4715 299.753 30.9315C300.305 31.3762 300.888 31.8592 301.501 32.3805C302.13 32.9018 302.766 33.4385 303.41 33.9905C304.054 34.5425 304.675 35.0868 305.273 35.6235C305.871 36.1602 306.408 36.6738 306.883 37.1645L305.25 38.6825C304.775 38.1305 304.246 37.5708 303.663 37.0035C303.264 36.5895 302.766 36.1065 302.168 35.5545C301.57 35.0025 300.926 34.4275 300.236 33.8295C299.561 33.2315 298.887 32.6565 298.212 32.1045C297.553 31.5372 296.955 31.0312 296.418 30.5865C295.682 29.9732 295.214 29.4365 295.015 28.9765C294.816 28.5012 294.854 28.0335 295.13 27.5735C295.406 27.1135 295.889 26.5998 296.579 26.0325C297.008 25.6645 297.522 25.2352 298.12 24.7445C298.733 24.2538 299.37 23.7402 300.029 23.2035C300.688 22.6515 301.309 22.1225 301.892 21.6165C302.49 21.0952 302.981 20.6352 303.364 20.2365C303.594 20.0065 303.832 19.7458 304.077 19.4545C304.338 19.1632 304.537 18.9102 304.675 18.6955L306.377 20.2135ZM320.269 33.0015H329.101V34.5195H320.269V33.0015ZM323.673 20.0295H325.375V33.8985H323.673V20.0295ZM315.646 24.2385H332.781V25.8715H317.302V39.0735H315.646V24.2385ZM332.091 24.2385H333.793V37.0495C333.793 37.5402 333.724 37.9158 333.586 38.1765C333.463 38.4525 333.218 38.6595 332.85 38.7975C332.482 38.9202 331.984 38.9968 331.355 39.0275C330.726 39.0582 329.967 39.0658 329.078 39.0505C329.032 38.8358 328.948 38.5752 328.825 38.2685C328.718 37.9772 328.603 37.7165 328.48 37.4865C328.955 37.5018 329.4 37.5095 329.814 37.5095C330.243 37.5248 330.611 37.5248 330.918 37.5095C331.24 37.5095 331.47 37.5095 331.608 37.5095C331.807 37.5095 331.938 37.4712 331.999 37.3945C332.06 37.3332 332.091 37.2105 332.091 37.0265V24.2385ZM319.464 27.7345H320.959V36.1755H319.464V27.7345ZM328.204 27.7345H329.768V35.8765H328.204V27.7345ZM314.496 19.5005H334.897V21.1795H314.496V19.5005ZM338.163 22.3985H357.368V24.1005H338.163V22.3985ZM337.381 36.3135H358.012V38.0155H337.381V36.3135ZM346.742 17.8675H348.536V23.3415H346.742V17.8675ZM352.216 25.1585L354.194 25.5265C353.949 26.4618 353.68 27.4508 353.389 28.4935C353.098 29.5208 352.799 30.5482 352.492 31.5755C352.185 32.5875 351.871 33.5535 351.549 34.4735C351.242 35.3935 350.943 36.2215 350.652 36.9575L348.996 36.5435C349.287 35.8075 349.586 34.9718 349.893 34.0365C350.2 33.0858 350.491 32.0968 350.767 31.0695C351.058 30.0268 351.327 28.9995 351.572 27.9875C351.833 26.9755 352.047 26.0325 352.216 25.1585ZM341.245 25.7105L342.878 25.2965C343.292 26.3085 343.652 27.3818 343.959 28.5165C344.281 29.6512 344.542 30.7552 344.741 31.8285C344.956 32.9018 345.094 33.8678 345.155 34.7265L343.384 35.1635C343.353 34.3202 343.238 33.3542 343.039 32.2655C342.84 31.1768 342.587 30.0652 342.28 28.9305C341.973 27.7805 341.628 26.7072 341.245 25.7105ZM367.005 19.2705C366.944 19.6538 366.898 20.0448 366.867 20.4435C366.836 20.8268 366.813 21.2102 366.798 21.5935C366.767 22.2375 366.737 23.0348 366.706 23.9855C366.675 24.9362 366.645 25.9482 366.614 27.0215C366.583 28.0795 366.56 29.1375 366.545 30.1955C366.53 31.2535 366.522 32.2042 366.522 33.0475C366.522 33.8908 366.683 34.5655 367.005 35.0715C367.327 35.5775 367.772 35.9378 368.339 36.1525C368.906 36.3672 369.558 36.4745 370.294 36.4745C371.337 36.4745 372.28 36.3442 373.123 36.0835C373.966 35.8075 374.718 35.4472 375.377 35.0025C376.036 34.5425 376.619 34.0288 377.125 33.4615C377.646 32.8942 378.114 32.3115 378.528 31.7135L379.839 33.2775C379.44 33.8295 378.95 34.4045 378.367 35.0025C377.8 35.5852 377.125 36.1295 376.343 36.6355C375.561 37.1415 374.656 37.5555 373.629 37.8775C372.617 38.1995 371.482 38.3605 370.225 38.3605C369.136 38.3605 368.17 38.1918 367.327 37.8545C366.484 37.5172 365.824 36.9728 365.349 36.2215C364.874 35.4702 364.636 34.4735 364.636 33.2315C364.636 32.5415 364.644 31.7825 364.659 30.9545C364.674 30.1112 364.697 29.2448 364.728 28.3555C364.759 27.4662 364.782 26.5998 364.797 25.7565C364.812 24.8978 364.828 24.1082 364.843 23.3875C364.858 22.6668 364.866 22.0688 364.866 21.5935C364.866 21.1642 364.851 20.7502 364.82 20.3515C364.789 19.9528 364.743 19.5848 364.682 19.2475L367.005 19.2705ZM384.416 22.6745C384.845 22.7358 385.298 22.7818 385.773 22.8125C386.248 22.8278 386.731 22.8355 387.222 22.8355C388.065 22.8355 388.932 22.7972 389.821 22.7205C390.726 22.6438 391.638 22.5212 392.558 22.3525C393.478 22.1685 394.383 21.9308 395.272 21.6395L395.318 23.3645C394.567 23.5638 393.739 23.7478 392.834 23.9165C391.945 24.0852 391.017 24.2232 390.051 24.3305C389.1 24.4225 388.157 24.4685 387.222 24.4685C386.808 24.4685 386.363 24.4685 385.888 24.4685C385.428 24.4532 384.976 24.4302 384.531 24.3995L384.416 22.6745ZM392.558 18.9255C392.466 19.2935 392.351 19.7612 392.213 20.3285C392.075 20.8958 391.922 21.4938 391.753 22.1225C391.6 22.7358 391.431 23.3185 391.247 23.8705C390.879 24.9745 390.411 26.1398 389.844 27.3665C389.277 28.5778 388.671 29.7585 388.027 30.9085C387.383 32.0585 386.747 33.0628 386.118 33.9215L384.347 33.0015C384.853 32.4035 385.359 31.7212 385.865 30.9545C386.386 30.1878 386.869 29.3828 387.314 28.5395C387.774 27.6962 388.188 26.8682 388.556 26.0555C388.924 25.2428 389.231 24.4992 389.476 23.8245C389.721 23.0885 389.951 22.2605 390.166 21.3405C390.381 20.4052 390.503 19.5388 390.534 18.7415L392.558 18.9255ZM397.986 26.0325C397.971 26.5078 397.955 26.9372 397.94 27.3205C397.94 27.6885 397.948 28.0872 397.963 28.5165C397.978 28.8845 397.994 29.3598 398.009 29.9425C398.04 30.5098 398.07 31.1155 398.101 31.7595C398.132 32.3882 398.155 32.9938 398.17 33.5765C398.201 34.1592 398.216 34.6422 398.216 35.0255C398.216 35.6388 398.078 36.1985 397.802 36.7045C397.526 37.2105 397.089 37.6092 396.491 37.9005C395.908 38.2072 395.142 38.3605 394.191 38.3605C393.348 38.3605 392.581 38.2378 391.891 37.9925C391.201 37.7625 390.641 37.4022 390.212 36.9115C389.798 36.4208 389.591 35.7998 389.591 35.0485C389.591 34.3278 389.79 33.7145 390.189 33.2085C390.603 32.6872 391.155 32.2885 391.845 32.0125C392.55 31.7365 393.332 31.5985 394.191 31.5985C395.479 31.5985 396.66 31.7825 397.733 32.1505C398.822 32.5032 399.795 32.9555 400.654 33.5075C401.528 34.0595 402.279 34.6038 402.908 35.1405L401.919 36.7045C401.474 36.3058 400.976 35.8918 400.424 35.4625C399.887 35.0332 399.289 34.6422 398.63 34.2895C397.971 33.9215 397.265 33.6225 396.514 33.3925C395.763 33.1625 394.965 33.0475 394.122 33.0475C393.279 33.0475 392.596 33.2238 392.075 33.5765C391.554 33.9292 391.293 34.3662 391.293 34.8875C391.293 35.4242 391.515 35.8612 391.96 36.1985C392.405 36.5358 393.072 36.7045 393.961 36.7045C394.605 36.7045 395.111 36.6048 395.479 36.4055C395.847 36.1908 396.108 35.9148 396.261 35.5775C396.43 35.2248 396.514 34.8415 396.514 34.4275C396.514 33.9982 396.499 33.4385 396.468 32.7485C396.453 32.0585 396.422 31.3225 396.376 30.5405C396.345 29.7432 396.307 28.9535 396.261 28.1715C396.23 27.3742 396.207 26.6612 396.192 26.0325H397.986ZM402.586 26.6535C402.172 26.2855 401.651 25.9022 401.022 25.5035C400.393 25.1048 399.742 24.7292 399.067 24.3765C398.408 24.0085 397.825 23.7095 397.319 23.4795L398.262 22.0765C398.676 22.2605 399.136 22.4828 399.642 22.7435C400.148 23.0042 400.654 23.2802 401.16 23.5715C401.666 23.8628 402.134 24.1465 402.563 24.4225C403.008 24.6832 403.36 24.9208 403.621 25.1355L402.586 26.6535ZM414.937 19.3165C414.906 19.5312 414.868 19.7612 414.822 20.0065C414.776 20.2365 414.73 20.4665 414.684 20.6965C414.623 20.9572 414.554 21.3252 414.477 21.8005C414.4 22.2758 414.308 22.7818 414.201 23.3185C414.109 23.8398 414.009 24.3458 413.902 24.8365C413.733 25.4805 413.534 26.2165 413.304 27.0445C413.089 27.8572 412.829 28.7312 412.522 29.6665C412.231 30.5865 411.901 31.5295 411.533 32.4955C411.165 33.4462 410.759 34.3892 410.314 35.3245C409.869 36.2598 409.386 37.1492 408.865 37.9925L407.002 37.2335C407.523 36.5435 408.014 35.7615 408.474 34.8875C408.934 34.0135 409.356 33.1088 409.739 32.1735C410.122 31.2228 410.467 30.2875 410.774 29.3675C411.081 28.4475 411.341 27.5965 411.556 26.8145C411.786 26.0172 411.962 25.3348 412.085 24.7675C412.3 23.8628 412.476 22.9122 412.614 21.9155C412.752 20.9188 412.821 19.9835 412.821 19.1095L414.937 19.3165ZM422.849 21.9845C423.217 22.4445 423.6 23.0272 423.999 23.7325C424.413 24.4378 424.812 25.1815 425.195 25.9635C425.594 26.7455 425.954 27.5045 426.276 28.2405C426.613 28.9765 426.874 29.6128 427.058 30.1495L425.287 31.0005C425.118 30.4025 424.881 29.7278 424.574 28.9765C424.283 28.2252 423.945 27.4662 423.562 26.6995C423.194 25.9175 422.803 25.1815 422.389 24.4915C421.99 23.7862 421.584 23.2035 421.17 22.7435L422.849 21.9845ZM406.657 24.3765C407.025 24.3918 407.37 24.3995 407.692 24.3995C408.014 24.3995 408.359 24.3918 408.727 24.3765C409.064 24.3612 409.501 24.3382 410.038 24.3075C410.59 24.2615 411.18 24.2155 411.809 24.1695C412.438 24.1082 413.066 24.0545 413.695 24.0085C414.324 23.9472 414.899 23.9012 415.42 23.8705C415.941 23.8245 416.355 23.8015 416.662 23.8015C417.352 23.8015 417.973 23.9165 418.525 24.1465C419.092 24.3612 419.545 24.7522 419.882 25.3195C420.235 25.8715 420.411 26.6688 420.411 27.7115C420.411 28.6162 420.365 29.5975 420.273 30.6555C420.181 31.6982 420.035 32.6948 419.836 33.6455C419.652 34.5808 419.399 35.3705 419.077 36.0145C418.724 36.7812 418.264 37.2872 417.697 37.5325C417.13 37.7932 416.47 37.9235 415.719 37.9235C415.274 37.9235 414.799 37.8852 414.293 37.8085C413.802 37.7472 413.373 37.6782 413.005 37.6015L412.706 35.6695C413.028 35.7768 413.365 35.8688 413.718 35.9455C414.071 36.0068 414.408 36.0605 414.73 36.1065C415.052 36.1372 415.313 36.1525 415.512 36.1525C415.941 36.1525 416.325 36.0835 416.662 35.9455C416.999 35.7922 417.291 35.4625 417.536 34.9565C417.781 34.4352 417.981 33.7835 418.134 33.0015C418.303 32.2195 418.425 31.3838 418.502 30.4945C418.579 29.6052 418.617 28.7465 418.617 27.9185C418.617 27.2132 418.517 26.6842 418.318 26.3315C418.119 25.9788 417.835 25.7412 417.467 25.6185C417.099 25.4958 416.67 25.4345 416.179 25.4345C415.796 25.4345 415.274 25.4652 414.615 25.5265C413.956 25.5725 413.25 25.6338 412.499 25.7105C411.748 25.7718 411.05 25.8408 410.406 25.9175C409.777 25.9942 409.287 26.0478 408.934 26.0785C408.658 26.1092 408.313 26.1552 407.899 26.2165C407.5 26.2625 407.155 26.3085 406.864 26.3545L406.657 24.3765ZM423.125 18.6495C423.324 18.9102 423.531 19.2322 423.746 19.6155C423.976 19.9835 424.206 20.3668 424.436 20.7655C424.666 21.1488 424.858 21.4938 425.011 21.8005L423.746 22.3525C423.608 22.0458 423.432 21.7008 423.217 21.3175C423.002 20.9342 422.78 20.5508 422.55 20.1675C422.32 19.7842 422.098 19.4468 421.883 19.1555L423.125 18.6495ZM425.655 17.7065C425.854 17.9978 426.077 18.3352 426.322 18.7185C426.567 19.1018 426.805 19.4852 427.035 19.8685C427.265 20.2365 427.449 20.5662 427.587 20.8575L426.345 21.4095C426.1 20.9035 425.801 20.3592 425.448 19.7765C425.095 19.1785 424.758 18.6648 424.436 18.2355L425.655 17.7065ZM435.89 19.1555C436.381 19.3088 437.017 19.4775 437.799 19.6615C438.596 19.8455 439.432 20.0295 440.306 20.2135C441.195 20.3822 442.039 20.5355 442.836 20.6735C443.633 20.7962 444.285 20.8805 444.791 20.9265L444.354 22.6975C443.925 22.6362 443.396 22.5518 442.767 22.4445C442.154 22.3372 441.494 22.2145 440.789 22.0765C440.084 21.9385 439.386 21.8005 438.696 21.6625C438.006 21.5092 437.377 21.3712 436.81 21.2485C436.243 21.1105 435.783 20.9955 435.43 20.9035L435.89 19.1555ZM435.384 23.3415C435.307 23.7402 435.223 24.2308 435.131 24.8135C435.054 25.3808 434.97 25.9788 434.878 26.6075C434.786 27.2362 434.702 27.8342 434.625 28.4015C434.548 28.9688 434.479 29.4365 434.418 29.8045C435.537 28.8385 436.718 28.1332 437.96 27.6885C439.217 27.2285 440.536 26.9985 441.916 26.9985C443.097 26.9985 444.124 27.2132 444.998 27.6425C445.872 28.0565 446.554 28.6315 447.045 29.3675C447.536 30.0882 447.781 30.9008 447.781 31.8055C447.781 32.8328 447.543 33.7682 447.068 34.6115C446.608 35.4395 445.88 36.1372 444.883 36.7045C443.902 37.2718 442.644 37.6705 441.111 37.9005C439.578 38.1458 437.738 38.1765 435.591 37.9925L435.039 36.1065C437.477 36.3978 439.493 36.3902 441.088 36.0835C442.683 35.7615 443.871 35.2248 444.653 34.4735C445.45 33.7068 445.849 32.8022 445.849 31.7595C445.849 31.1462 445.673 30.6018 445.32 30.1265C444.967 29.6512 444.484 29.2832 443.871 29.0225C443.273 28.7465 442.583 28.6085 441.801 28.6085C440.298 28.6085 438.934 28.8845 437.707 29.4365C436.496 29.9732 435.484 30.7245 434.671 31.6905C434.502 31.8898 434.364 32.0892 434.257 32.2885C434.15 32.4725 434.058 32.6565 433.981 32.8405L432.279 32.4265C432.371 31.9972 432.463 31.4835 432.555 30.8855C432.647 30.2722 432.739 29.6205 432.831 28.9305C432.923 28.2252 433.007 27.5198 433.084 26.8145C433.176 26.1092 433.253 25.4345 433.314 24.7905C433.375 24.1312 433.421 23.5638 433.452 23.0885L435.384 23.3415ZM196.644 47.8455H198.139V53.5955H196.644V47.8455ZM192.941 50.1225H201.819V51.4565H192.941V50.1225ZM201.727 51.2035H207.615V52.7215H201.727V51.2035ZM193.171 61.1625H201.727V62.4965H193.171V61.1625ZM200.784 46.6495L201.727 47.8915C200.976 48.0755 200.117 48.2442 199.151 48.3975C198.185 48.5355 197.188 48.6582 196.161 48.7655C195.149 48.8575 194.175 48.9342 193.24 48.9955C193.209 48.8268 193.148 48.6275 193.056 48.3975C192.979 48.1522 192.903 47.9452 192.826 47.7765C193.731 47.6845 194.674 47.5848 195.655 47.4775C196.636 47.3548 197.572 47.2245 198.461 47.0865C199.366 46.9332 200.14 46.7875 200.784 46.6495ZM192.596 64.8195C193.378 64.7428 194.26 64.6585 195.241 64.5665C196.238 64.4745 197.288 64.3748 198.392 64.2675C199.511 64.1602 200.631 64.0528 201.75 63.9455L201.773 65.2335C200.194 65.4328 198.622 65.6245 197.058 65.8085C195.494 65.9925 194.099 66.1535 192.872 66.2915L192.596 64.8195ZM207.063 51.2035H208.558C208.558 51.2035 208.558 51.2572 208.558 51.3645C208.558 51.4718 208.558 51.5945 208.558 51.7325C208.558 51.8552 208.558 51.9548 208.558 52.0315C208.497 54.5002 208.435 56.5778 208.374 58.2645C208.328 59.9512 208.267 61.3312 208.19 62.4045C208.129 63.4625 208.044 64.2752 207.937 64.8425C207.83 65.3945 207.692 65.7932 207.523 66.0385C207.339 66.3145 207.14 66.5062 206.925 66.6135C206.726 66.7362 206.473 66.8128 206.166 66.8435C205.89 66.8742 205.545 66.8895 205.131 66.8895C204.717 66.9048 204.288 66.8972 203.843 66.8665C203.828 66.6365 203.782 66.3758 203.705 66.0845C203.644 65.7932 203.552 65.5402 203.429 65.3255C203.874 65.3562 204.28 65.3715 204.648 65.3715C205.031 65.3868 205.315 65.3945 205.499 65.3945C205.652 65.4098 205.783 65.3945 205.89 65.3485C205.997 65.3025 206.097 65.2028 206.189 65.0495C206.312 64.8655 206.419 64.5128 206.511 63.9915C206.603 63.4548 206.68 62.6728 206.741 61.6455C206.818 60.6028 206.879 59.2612 206.925 57.6205C206.971 55.9798 207.017 53.9712 207.063 51.5945V51.2035ZM194.459 56.8155V58.4945H200.393V56.8155H194.459ZM194.459 54.0785V55.7345H200.393V54.0785H194.459ZM193.24 52.9285H201.658V59.6675H193.24V52.9285ZM196.736 53.4115H198.001V59.2075H198.116V64.9115H196.621V59.2075H196.736V53.4115ZM203.452 45.9595H204.947V53.4115C204.947 54.5155 204.901 55.6732 204.809 56.8845C204.732 58.0805 204.571 59.2842 204.326 60.4955C204.081 61.6915 203.713 62.8568 203.222 63.9915C202.731 65.1262 202.08 66.1765 201.267 67.1425C201.175 67.0352 201.052 66.9278 200.899 66.8205C200.746 66.7132 200.585 66.6058 200.416 66.4985C200.263 66.3912 200.117 66.2992 199.979 66.2225C200.761 65.3025 201.382 64.3135 201.842 63.2555C202.302 62.1822 202.647 61.0858 202.877 59.9665C203.122 58.8318 203.276 57.7125 203.337 56.6085C203.414 55.4892 203.452 54.4235 203.452 53.4115V45.9595ZM191.699 46.0055L193.263 46.4195C192.864 47.7228 192.389 49.0262 191.837 50.3295C191.3 51.6175 190.71 52.8365 190.066 53.9865C189.422 55.1212 188.74 56.1332 188.019 57.0225C187.988 56.8845 187.919 56.7082 187.812 56.4935C187.72 56.2788 187.613 56.0565 187.49 55.8265C187.383 55.5965 187.275 55.4125 187.168 55.2745C187.797 54.5078 188.387 53.6262 188.939 52.6295C189.506 51.6328 190.028 50.5748 190.503 49.4555C190.978 48.3208 191.377 47.1708 191.699 46.0055ZM190.066 51.5945L191.607 50.0535L191.63 50.0765V67.0505H190.066V51.5945ZM225.877 48.2135C225.632 48.3975 225.356 48.6275 225.049 48.9035C224.742 49.1642 224.489 49.3712 224.29 49.5245C223.891 49.8772 223.408 50.2912 222.841 50.7665C222.274 51.2265 221.676 51.7172 221.047 52.2385C220.418 52.7445 219.813 53.2352 219.23 53.7105C218.647 54.1705 218.141 54.5845 217.712 54.9525C217.252 55.3512 216.945 55.6808 216.792 55.9415C216.639 56.1868 216.639 56.4398 216.792 56.7005C216.961 56.9612 217.29 57.3062 217.781 57.7355C218.21 58.0728 218.701 58.4715 219.253 58.9315C219.805 59.3762 220.388 59.8592 221.001 60.3805C221.63 60.9018 222.266 61.4385 222.91 61.9905C223.554 62.5425 224.175 63.0868 224.773 63.6235C225.371 64.1602 225.908 64.6738 226.383 65.1645L224.75 66.6825C224.275 66.1305 223.746 65.5708 223.163 65.0035C222.764 64.5895 222.266 64.1065 221.668 63.5545C221.07 63.0025 220.426 62.4275 219.736 61.8295C219.061 61.2315 218.387 60.6565 217.712 60.1045C217.053 59.5372 216.455 59.0312 215.918 58.5865C215.182 57.9732 214.714 57.4365 214.515 56.9765C214.316 56.5012 214.354 56.0335 214.63 55.5735C214.906 55.1135 215.389 54.5998 216.079 54.0325C216.508 53.6645 217.022 53.2352 217.62 52.7445C218.233 52.2538 218.87 51.7402 219.529 51.2035C220.188 50.6515 220.809 50.1225 221.392 49.6165C221.99 49.0952 222.481 48.6352 222.864 48.2365C223.094 48.0065 223.332 47.7458 223.577 47.4545C223.838 47.1632 224.037 46.9102 224.175 46.6955L225.877 48.2135ZM251.085 49.8005C251.008 49.8925 250.909 50.0458 250.786 50.2605C250.679 50.4598 250.587 50.6438 250.51 50.8125C250.219 51.5638 249.835 52.3995 249.36 53.3195C248.885 54.2242 248.356 55.1212 247.773 56.0105C247.19 56.8998 246.577 57.7048 245.933 58.4255C245.09 59.3762 244.162 60.3038 243.15 61.2085C242.138 62.0978 241.072 62.9335 239.953 63.7155C238.834 64.4822 237.668 65.1415 236.457 65.6935L234.985 64.1525C236.227 63.6618 237.415 63.0562 238.55 62.3355C239.7 61.5995 240.773 60.8022 241.77 59.9435C242.782 59.0695 243.679 58.1955 244.461 57.3215C244.982 56.7235 245.496 56.0565 246.002 55.3205C246.523 54.5692 246.983 53.8102 247.382 53.0435C247.796 52.2615 248.095 51.5562 248.279 50.9275C248.156 50.9275 247.865 50.9275 247.405 50.9275C246.945 50.9275 246.401 50.9275 245.772 50.9275C245.143 50.9275 244.484 50.9275 243.794 50.9275C243.104 50.9275 242.445 50.9275 241.816 50.9275C241.187 50.9275 240.643 50.9275 240.183 50.9275C239.738 50.9275 239.447 50.9275 239.309 50.9275C239.048 50.9275 238.749 50.9352 238.412 50.9505C238.09 50.9658 237.791 50.9812 237.515 50.9965C237.254 51.0118 237.078 51.0272 236.986 51.0425V48.9495C237.093 48.9648 237.285 48.9878 237.561 49.0185C237.852 49.0338 238.159 49.0492 238.481 49.0645C238.803 49.0798 239.079 49.0875 239.309 49.0875C239.478 49.0875 239.784 49.0875 240.229 49.0875C240.674 49.0875 241.203 49.0875 241.816 49.0875C242.445 49.0875 243.096 49.0875 243.771 49.0875C244.446 49.0875 245.09 49.0875 245.703 49.0875C246.332 49.0875 246.868 49.0875 247.313 49.0875C247.758 49.0875 248.049 49.0875 248.187 49.0875C248.57 49.0875 248.908 49.0722 249.199 49.0415C249.506 49.0108 249.743 48.9648 249.912 48.9035L251.085 49.8005ZM246.232 57.2065C246.861 57.7278 247.505 58.3028 248.164 58.9315C248.839 59.5602 249.498 60.2118 250.142 60.8865C250.786 61.5458 251.384 62.1822 251.936 62.7955C252.488 63.3935 252.963 63.9378 253.362 64.4285L251.752 65.8085C251.215 65.0725 250.571 64.2828 249.82 63.4395C249.069 62.5808 248.271 61.7298 247.428 60.8865C246.6 60.0278 245.764 59.2382 244.921 58.5175L246.232 57.2065ZM265.23 54.6535C265.966 55.0828 266.74 55.5582 267.553 56.0795C268.366 56.6008 269.171 57.1452 269.968 57.7125C270.781 58.2645 271.555 58.8088 272.291 59.3455C273.027 59.8822 273.679 60.3882 274.246 60.8635L272.889 62.4505C272.368 61.9752 271.739 61.4538 271.003 60.8865C270.282 60.3038 269.516 59.7212 268.703 59.1385C267.89 58.5405 267.078 57.9655 266.265 57.4135C265.452 56.8615 264.693 56.3632 263.988 55.9185L265.23 54.6535ZM275.764 50.4445C275.657 50.6132 275.557 50.8202 275.465 51.0655C275.373 51.2955 275.289 51.5025 275.212 51.6865C274.997 52.4685 274.691 53.3118 274.292 54.2165C273.893 55.1212 273.426 56.0335 272.889 56.9535C272.352 57.8582 271.739 58.7322 271.049 59.5755C270.022 60.8482 268.734 62.0748 267.185 63.2555C265.652 64.4208 263.796 65.4022 261.619 66.1995L259.963 64.7735C261.389 64.3288 262.685 63.7845 263.85 63.1405C265.031 62.4812 266.089 61.7605 267.024 60.9785C267.959 60.1965 268.772 59.3915 269.462 58.5635C270.06 57.8582 270.604 57.0838 271.095 56.2405C271.601 55.3972 272.038 54.5615 272.406 53.7335C272.774 52.8902 273.042 52.1082 273.211 51.3875H264.678L265.414 49.7545H272.728C273.035 49.7545 273.318 49.7392 273.579 49.7085C273.84 49.6625 274.062 49.6012 274.246 49.5245L275.764 50.4445ZM268.013 47.1325C267.814 47.4392 267.622 47.7612 267.438 48.0985C267.254 48.4358 267.101 48.7118 266.978 48.9265C266.518 49.7698 265.92 50.6975 265.184 51.7095C264.463 52.7062 263.612 53.7028 262.631 54.6995C261.665 55.6962 260.569 56.6238 259.342 57.4825L257.801 56.2865C259.12 55.4738 260.262 54.5768 261.228 53.5955C262.194 52.6142 263.007 51.6558 263.666 50.7205C264.325 49.7852 264.831 48.9725 265.184 48.2825C265.307 48.0832 265.445 47.8072 265.598 47.4545C265.751 47.0865 265.859 46.7568 265.92 46.4655L268.013 47.1325ZM280.663 56.8845C282.656 56.3478 284.512 55.6962 286.229 54.9295C287.946 54.1628 289.441 53.3808 290.714 52.5835C291.511 52.0775 292.286 51.5332 293.037 50.9505C293.804 50.3525 294.524 49.7315 295.199 49.0875C295.874 48.4435 296.472 47.8072 296.993 47.1785L298.534 48.6045C297.89 49.2945 297.192 49.9692 296.441 50.6285C295.69 51.2878 294.892 51.9242 294.049 52.5375C293.221 53.1355 292.355 53.7182 291.45 54.2855C290.607 54.7915 289.656 55.3128 288.598 55.8495C287.54 56.3862 286.413 56.8922 285.217 57.3675C284.021 57.8428 282.81 58.2798 281.583 58.6785L280.663 56.8845ZM290.346 53.5495L292.324 52.9515V63.4395C292.324 63.7308 292.324 64.0375 292.324 64.3595C292.339 64.6815 292.355 64.9805 292.37 65.2565C292.401 65.5325 292.431 65.7472 292.462 65.9005H290.208C290.223 65.7472 290.239 65.5325 290.254 65.2565C290.285 64.9805 290.308 64.6815 290.323 64.3595C290.338 64.0375 290.346 63.7308 290.346 63.4395V53.5495ZM313.737 64.7045C313.783 64.5205 313.814 64.3212 313.829 64.1065C313.86 63.8765 313.875 63.6465 313.875 63.4165C313.875 63.2632 313.875 62.9258 313.875 62.4045C313.875 61.8832 313.875 61.2468 313.875 60.4955C313.875 59.7288 313.875 58.9008 313.875 58.0115C313.875 57.1222 313.875 56.2328 313.875 55.3435C313.875 54.4388 313.875 53.5955 313.875 52.8135C313.875 52.0315 313.875 51.3568 313.875 50.7895C313.875 50.2222 313.875 49.8388 313.875 49.6395C313.875 49.1948 313.86 48.8268 313.829 48.5355C313.798 48.2288 313.775 48.0295 313.76 47.9375H315.876C315.876 48.0295 315.861 48.2288 315.83 48.5355C315.799 48.8422 315.784 49.2102 315.784 49.6395C315.784 49.8542 315.784 50.2375 315.784 50.7895C315.784 51.3262 315.784 51.9855 315.784 52.7675C315.784 53.5342 315.784 54.3622 315.784 55.2515C315.784 56.1255 315.784 56.9918 315.784 57.8505C315.784 58.7092 315.784 59.5065 315.784 60.2425C315.784 60.9632 315.784 61.5612 315.784 62.0365C315.784 62.5118 315.784 62.8032 315.784 62.9105C316.505 62.5732 317.271 62.1285 318.084 61.5765C318.897 61.0245 319.686 60.3805 320.453 59.6445C321.235 58.9085 321.917 58.1112 322.5 57.2525L323.581 58.8165C322.922 59.7058 322.147 60.5568 321.258 61.3695C320.384 62.1822 319.472 62.9105 318.521 63.5545C317.57 64.1985 316.643 64.7428 315.738 65.1875C315.554 65.2948 315.393 65.3945 315.255 65.4865C315.132 65.5785 315.033 65.6552 314.956 65.7165L313.737 64.7045ZM303.203 64.5895C304.169 63.8995 304.989 63.0638 305.664 62.0825C306.339 61.1012 306.852 60.0508 307.205 58.9315C307.374 58.4102 307.504 57.7585 307.596 56.9765C307.688 56.1945 307.757 55.3665 307.803 54.4925C307.849 53.6032 307.872 52.7445 307.872 51.9165C307.887 51.0732 307.895 50.3295 307.895 49.6855C307.895 49.3482 307.88 49.0492 307.849 48.7885C307.818 48.5125 307.78 48.2518 307.734 48.0065H309.85C309.835 48.0985 309.819 48.2365 309.804 48.4205C309.789 48.5892 309.773 48.7808 309.758 48.9955C309.743 49.2102 309.735 49.4325 309.735 49.6625C309.735 50.3065 309.727 51.0655 309.712 51.9395C309.697 52.7982 309.658 53.7028 309.597 54.6535C309.551 55.5888 309.482 56.4782 309.39 57.3215C309.313 58.1648 309.191 58.8702 309.022 59.4375C308.685 60.6642 308.156 61.8218 307.435 62.9105C306.73 63.9992 305.894 64.9498 304.928 65.7625L303.203 64.5895Z" fill="black"/>
</svg>
