<svg width="120" height="18" viewBox="0 0 120 18" fill="none" xmlns="http://www.w3.org/2000/svg">
<g clip-path="url(#clip0_1_6227)">
<path d="M15.72 16.8398H14.95L14.44 8.75977C14.24 5.85977 14.05 2.98977 14.07 1.33977H14C13.39 3.06977 12.73 4.91977 11.72 7.46977L8.01 16.8898H7.51L4.02 7.70977C3.01 5.00977 2.3 3.11977 1.8 1.33977H1.73C1.69 3.24977 1.55 6.14977 1.34 8.99977L0.79 16.8398H0L1.21 0.259766H2.02L5.89 10.4298C6.68 12.5798 7.27 14.1598 7.78 15.6998H7.82C8.26 14.2298 8.85 12.7998 9.73 10.5198L13.72 0.259766H14.6L15.72 16.8398Z" fill="#143154"/>
<path d="M35.2514 16.8398H34.4814L32.2414 10.7998H25.4314L23.2314 16.8398H22.4414L28.5914 0.259766H29.1614L35.2414 16.8398H35.2514ZM32.0014 10.1398L29.8014 4.22977C29.3814 3.06977 29.1214 2.24977 28.8814 1.30977H28.8414C28.5114 2.44977 28.2914 3.12977 27.9214 4.18977L25.6814 10.1398H32.0014Z" fill="#143154"/>
<path d="M49.0983 1.42953C48.6783 1.09953 47.7183 0.639531 46.3283 0.639531C43.4983 0.639531 42.5083 2.50953 42.5083 3.88953C42.5083 5.81953 43.5183 6.84953 45.9783 7.83953C48.6783 8.93953 50.1483 10.1195 50.1483 12.6295C50.1483 15.1395 48.4183 17.0895 45.0983 17.0895C43.7383 17.0895 42.1583 16.6495 41.2383 15.9695L41.6283 15.3595C42.5983 16.0195 43.7983 16.4595 45.1383 16.4595C47.7683 16.4595 49.3283 14.8395 49.3283 12.7295C49.3283 10.7495 48.3883 9.58953 45.9483 8.64953C43.2683 7.70953 41.7083 6.33953 41.7083 4.09953C41.7083 1.70953 43.6583 0.0195312 46.3183 0.0195312C47.8283 0.0195312 48.9783 0.459531 49.4783 0.829531L49.0783 1.43953L49.0983 1.42953Z" fill="#143154"/>
<path d="M64.6083 1.42953C64.1883 1.09953 63.2283 0.639531 61.8383 0.639531C59.0083 0.639531 58.0183 2.50953 58.0183 3.88953C58.0183 5.81953 59.0283 6.84953 61.4883 7.83953C64.1883 8.93953 65.6583 10.1195 65.6583 12.6295C65.6583 15.1395 63.9183 17.0895 60.6083 17.0895C59.2483 17.0895 57.6683 16.6495 56.7383 15.9695L57.1383 15.3595C58.1083 16.0195 59.3083 16.4595 60.6483 16.4595C63.2783 16.4595 64.8383 14.8395 64.8383 12.7295C64.8383 10.7495 63.8983 9.58953 61.4583 8.64953C58.7783 7.70953 57.2183 6.33953 57.2183 4.09953C57.2183 1.70953 59.1683 0.0195312 61.8283 0.0195312C63.3483 0.0195312 64.4883 0.459531 64.9883 0.829531L64.5983 1.43953L64.6083 1.42953Z" fill="#143154"/>
<path d="M84.7905 16.8398H84.0205L81.7805 10.7998H74.9705L72.7705 16.8398H71.9805L78.1405 0.259766H78.7105L84.7905 16.8398ZM81.5405 10.1398L79.3405 4.22977C78.9205 3.06977 78.6605 2.24977 78.4205 1.30977H78.3805C78.0505 2.44977 77.8305 3.12977 77.4605 4.18977L75.2205 10.1398H81.5405Z" fill="#143154"/>
<path d="M103.409 16.1198C102.619 16.4498 100.969 17.0198 98.6892 17.0198C93.5692 17.0198 90.6992 13.5698 90.6992 8.58984C90.6992 4.08984 93.4892 0.0898438 99.2192 0.0898438C100.929 0.0898438 102.339 0.529844 102.949 0.809844L102.639 1.41984C101.759 1.01984 100.729 0.699844 99.1692 0.699844C94.3792 0.699844 91.5092 3.96984 91.5092 8.57984C91.5092 12.6898 93.9492 16.3698 98.8892 16.3698C100.779 16.3698 101.899 16.0598 102.599 15.6898V9.49984H98.5792V8.81984H103.409V16.1098V16.1198Z" fill="#143154"/>
<path d="M119.58 16.8398H111.32V0.259766H119.18V0.939766H112.09V7.74977H118.79V8.42977H112.09V16.1598H119.58V16.8398Z" fill="#143154"/>
</g>
<defs>
<clipPath id="clip0_1_6227">
<rect width="119.58" height="17.08" fill="white"/>
</clipPath>
</defs>
</svg>
