<svg width="179" height="38" viewBox="0 0 179 38" fill="none" xmlns="http://www.w3.org/2000/svg">
<path d="M13.5484 36.3083C13.0553 35.4006 12.7976 34.336 12.8312 33.2154L12.495 28.9122H11.3295C9.37965 29.4613 7.53062 30.2569 5.86088 31.3552C4.19115 32.487 2.51021 33.5068 0.862883 34.4929L0.437045 33.8317C2.35332 31.6129 4.48251 29.607 6.73497 27.7467C9.02105 25.8865 11.0942 23.7797 13.0105 21.4488L12.7752 19.1179H12.2597C10.3098 19.992 8.25903 20.5747 6.02898 20.8997C5.19971 20.2497 4.80749 19.3308 4.95317 18.199L5.21092 17.5378C6.65653 17.1008 7.97887 16.4396 9.13311 15.6103C10.2874 14.7363 11.4752 13.9294 12.6631 13.1338L12.9993 9.67102L12.7303 8.79693L12.8536 8.18058C10.6235 8.79693 8.58401 9.57016 6.63412 10.3658C4.68422 11.2063 2.75674 11.9347 0.773233 12.5846L0.0672377 12.0692L0 11.408C2.18522 10.7132 4.33683 9.95117 6.39878 9.1107C8.49436 8.27023 10.6908 7.62027 13.0441 7.1384L12.6407 0H13.5148L14.3889 3.49636L14.1984 6.66773C15.9353 5.86088 17.8068 5.56952 19.9023 5.79364L20.1041 6.30913L21.4376 5.79364L24.0263 6.48843L24.2728 7.10478L23.2082 8.44953C21.5833 8.99864 20.0929 9.72705 18.7257 10.6011C17.3585 11.4752 15.9129 12.3157 14.4225 13.0777L14.0975 14.9043L14.3664 15.7448L14.2544 16.3948C15.3862 16.0362 16.2939 15.6664 17.0447 15.1957L17.8628 13.1898L18.6921 13.0441L19.1291 14.0639L18.4567 15.7L14.5794 17.7059L14.5233 18.8714L15.319 19.8575C14.4225 21.7514 14.1311 23.903 14.4897 26.346C17.1008 26.2003 19.6334 26.3796 21.9755 26.8614C24.3624 27.3769 26.4804 28.5424 28.3967 30.4362L28.5984 30.9517C28.2174 31.4672 27.6571 31.6801 26.839 31.5345L23.5332 30.9181L23.4771 30.4026C24.5305 30.4026 25.3038 30.1449 25.8417 29.6742C24.5417 28.7665 23.0625 28.139 21.5048 27.8924C19.9136 27.6011 18.2438 27.3769 16.5517 27.2425L14.9156 27.9372V31.1086L15.431 34.3921L14.9716 35.2662L14.5121 35.4455L13.582 36.3195L13.5484 36.3083ZM6.09621 29.7863L5.63676 30.3018H6.15225L6.09621 29.7863ZM12.2373 17.9525L12.2933 14.9604H11.7442L10.6123 15.3302L9.8167 16.137C8.56159 17.0111 7.29529 17.8852 6.04018 18.7929L5.96174 19.7791L7.34011 20.1041L8.15817 19.5886L12.2148 17.9525H12.2373ZM6.69015 29.8983C8.51677 28.9122 10.4779 28.0717 12.5174 27.3881C12.6519 26.2563 12.7191 25.1245 12.7191 24.0375L12.1924 23.8582C11.3071 24.8779 10.321 25.8641 9.22276 26.8502C8.15817 27.87 7.17202 28.8898 6.29793 29.988L6.791 29.8087L6.69015 29.9208V29.8983ZM13.8173 12.7752C15.0052 11.9795 16.2043 11.2063 17.437 10.4443C18.6697 9.71584 19.9472 8.98743 21.2247 8.32626L21.1687 7.81077H16.2827L13.6044 8.32626L13.5372 12.6631H13.8622L13.8061 12.7752H13.8173Z" fill="#231815"/>
<path d="M33.1953 19.5317C33.9685 17.8507 34.7082 16.1474 35.4029 14.4328C36.1314 12.6846 36.7141 10.9028 37.2184 9.10984H37.8683L38.3166 9.95031C37.6218 11.7321 36.927 13.4803 36.3107 15.1949C35.6495 16.9094 35.0668 18.6576 34.4504 20.4394L33.991 20.5851L33.1953 19.5317ZM51.2374 36.5764C50.453 36.4307 49.691 36.0609 49.0186 35.523L48.5031 34.0326L50.6547 35.1644L50.5202 30.6819L49.0074 30.5362L47.9876 30.8612L47.6178 31.8474C45.6119 32.9456 43.6284 34.111 41.6336 35.3101L37.9244 33.6292L37.689 33.1137L37.8347 32.7887H38.6752C39.6725 33.5956 40.8268 33.9205 42.1715 33.7749L42.956 33.2594L43.0905 32.7439L44.2111 32.2732L44.7378 32.4525C46.4075 31.2871 48.2341 30.3345 50.1952 29.5725C50.4082 27.3537 50.4194 25.0228 50.1616 22.5462C50.0944 21.885 49.8366 21.4928 49.422 21.3471C47.3376 21.9971 45.4214 22.8375 43.6732 23.8573C41.8914 24.9107 39.9639 25.6839 37.9019 26.2218L37.4649 25.2021C39.8182 24.328 42.194 23.3418 44.5473 22.1764L44.7042 21.885C45.8696 21.1902 47.1695 20.7195 48.6039 20.4954C49.4668 19.6886 50.5538 19.2179 51.8874 19.0722C54.0838 18.4223 56.3475 17.8395 58.6336 17.3913L59.3732 17.8619L59.4292 18.3774L59.037 19.5429H58.0172L57.1319 19.0274C55.0476 19.3524 53.0304 19.8679 51.0917 20.5178C51.652 21.3583 51.921 22.2324 51.9098 23.1401V26.3115L52.1899 27.2976L52.0555 27.8131L52.7615 27.9588C53.8261 27.264 55.0139 26.8606 56.3587 26.7597C57.9612 27.0847 59.4852 27.7459 60.9757 28.732C62.2084 29.7182 63.0937 30.8836 63.6988 32.1948L62.9816 33.0016L62.1299 33.1809C61.1214 32.968 60.0792 32.7103 59.0706 32.4861L58.8353 31.9706C59.9559 31.8586 60.8636 31.5 61.4687 30.9509C60.5835 29.819 59.5525 28.9786 58.3982 28.3958L55.6303 27.7459L52.4365 29.2811C52.4925 31.2086 52.6942 33.2145 53.0865 35.2205L51.977 35.736L51.2598 36.5764H51.2374ZM38.1373 13.0432L38.0925 12.5726L38.8545 12.2028L39.7062 12.3821C42.5077 10.9253 45.4102 9.68136 48.3574 8.66159C51.3495 7.67544 54.5769 7.09271 58.062 6.98065C60.18 6.65567 62.0515 7.12633 63.7548 8.43747L63.9902 8.95295L63.4523 10.0848C62.0963 10.746 60.6507 11.183 59.1042 11.3959L58.8689 10.8804C59.7766 10.1856 60.8524 9.63654 62.0403 9.16587C60.3257 8.47109 58.5775 8.11248 56.7733 7.9668L54.3079 8.43747L53.7924 8.3254C52.0555 8.84089 50.2849 9.31156 48.4695 9.7486C46.6877 10.152 45.0067 10.7684 43.4042 11.5304L43.2585 11.8554C42.1267 12.5502 40.8604 13.0208 39.4708 13.3458L38.1261 13.0208L38.1373 13.0432ZM41.5328 17.0103C42.0371 16.5732 42.8103 16.3603 43.7965 16.3603C45.2084 15.5983 46.7101 14.9371 48.3014 14.4664C49.8927 14.0294 51.4503 13.5587 53.008 13.0769L53.5907 14.0966L53.0304 15.0828L52.5934 15.7776L50.3745 16.9094L50.1056 16.0689L50.8004 15.0828H49.9935C47.5281 15.8896 45.1412 16.7973 42.9224 17.8507H42.4069L41.5216 17.0103H41.5328ZM47.1471 7.86595C46.7213 7.64182 46.542 7.2496 46.5868 6.70049C47.0575 5.97209 47.2368 5.21006 47.0351 4.29114C46.3739 3.15931 45.8472 1.99386 45.3653 0.794786L46.1498 0.279297L47.0911 0.929261C47.8755 2.16195 48.3798 3.51791 48.5367 5.04196L47.2816 7.69785L47.1471 7.84353V7.86595Z" fill="#231815"/>
<path d="M125.076 37.1601C124.325 36.5774 123.955 35.8154 123.865 34.9413C124.246 33.3724 124.437 31.7027 124.403 29.9097L124.157 29.2485L124.202 27.9374L123.473 27.5675C121.221 28.3296 118.935 29.1364 116.682 29.9321C114.396 30.7725 112.099 31.4225 109.757 32.0052L109.196 31.8259L107.717 32.0052L106.809 31.3104L106.742 30.6605L109.611 30.5148L110.283 30.6605L116.268 28.6546L116.974 28.8339C119.36 27.9261 121.736 27.0072 124.168 26.1331L124.045 23.4773L123.316 23.1523C121.736 23.7686 120.134 24.497 118.542 25.2703C118.184 24.6203 117.713 23.9255 117.198 23.2307L116.503 22.9057L116.268 22.3902C114.912 21.2584 113.791 19.9137 112.861 18.3448C112.3 17.1009 111.942 15.8346 111.807 14.445L112.222 13.1339L113.701 12.9546L113.97 13.8287C113.6 14.445 113.455 15.2182 113.544 16.0475C114.217 17.9414 115.337 19.6559 116.951 21.18L118.352 21.6955L118.654 22.8609C119.91 21.292 121.355 20.0145 122.991 18.9947L122.33 19.3197L122.274 20.1602L122.487 20.8102L121.703 21.3257L121.613 21.8411H122.274C124.101 21.1464 125.838 20.3059 127.407 19.2861L128.135 19.6111L128.079 19.0956L127.698 18.6249L128.482 18.4456C129.76 16.294 130.869 14.0752 131.755 11.7107C129.917 11.1616 128 10.6909 126.073 10.3211L125.614 10.4668L125.087 10.3211C123.809 10.9711 122.476 11.565 121.12 12.1029L120.683 12.7977L120.044 12.9434L119.607 13.6045H118.733L118.453 12.2934L120.974 10.6125L121.467 10.7918L121.915 8.42723C121.803 7.32901 121.478 6.35407 120.952 5.40153L121.299 5.25585L121.209 4.41538C120.784 3.75421 120.627 2.99218 120.66 2.23016L120.795 1.71467L120.515 0.728516H121.534C122.039 1.34486 122.308 2.18533 122.33 3.17148C122.039 3.49647 121.972 3.89989 122.173 4.48262C122.644 4.8076 123.238 4.91966 123.877 4.77398C125.087 4.19126 126.286 3.75421 127.485 3.3844L127.631 3.0146C128.684 2.31981 129.883 1.88276 131.205 1.66984L131.418 2.33101L131.362 3.17148C129.121 4.01195 126.869 4.8076 124.56 5.46877L124.426 5.98426C123.776 5.98426 123.35 6.19718 123.182 6.63422L122.946 9.29011H123.787C125.244 8.93151 126.757 8.741 128.325 8.741C130.242 8.59532 131.9 9.14443 133.413 10.3435L133.682 11.509C133.402 13.0442 132.819 14.4226 131.956 15.6217C130.32 17.0449 129.121 18.8267 128.348 20.9446L127.855 21.1239L127.328 20.9446L126.521 21.2696L126.689 24.2953L127.362 24.441C128.65 23.8583 130.074 23.4885 131.609 23.2755L132.461 23.4212L132.954 23.2755L133.077 22.7264L133.682 22.5808C135.733 22.3678 137.795 22.5808 139.834 23.2419L140.114 24.2281C140.047 24.6651 139.733 24.8108 139.218 24.6987C137.257 24.116 135.341 23.8583 133.413 23.9367C131.284 24.4858 129.043 24.9901 126.745 25.3935L126.701 26.7047L126.409 27.0745L126.622 27.7244C126.432 29.7304 126.566 31.7699 126.958 33.8431L127.238 34.8292L126.163 35.7033L125.076 37.1265V37.1601ZM123.832 16.5742H123.361C122.162 17.0112 121.008 17.4147 119.831 17.706L119.349 16.2156C121.086 15.7785 122.902 15.3751 124.795 15.0165L125.501 15.532L125.625 16.6975L123.877 19.499L123.832 16.5854V16.5742Z" fill="#231815"/>
<path d="M155.6 34.2788C153.426 34.0659 151.465 33.0461 149.717 31.2531C148.697 29.7963 148.025 28.2274 147.745 26.5913C148.07 25.1345 147.991 23.6777 147.51 22.1872C146.669 23.6104 145.829 25.0336 145.089 26.3447L144.047 27.5102L143.251 28.3171L143.195 29.1575L142.736 29.3368L141.738 28.1378L142.332 27.1516L143.262 26.6361L144.999 23.644C147.084 21.8959 147.902 19.6322 147.409 16.9763L146.546 15.2954L146.994 14.3092L147.778 14.1635C148.462 15.1497 148.753 16.2367 148.664 17.4806L148.585 18.4667H149.101L149.213 17.7719L151.734 14.6342L152.227 14.4549L152.978 13.6592L153.27 12.9645C153.942 12.0567 154.861 11.474 155.981 11.2835C156.295 10.1181 156.553 9.01985 156.687 7.93284C156.306 5.63555 156.071 3.38309 156.015 1.04098L156.475 0.570312L157.337 0.861676L157.819 3.74169C157.584 5.71399 157.494 7.70871 157.483 9.71463C158.626 8.80693 159.803 8.14576 160.991 7.67509L161.786 6.86824L163.277 6.50964C164.521 6.50964 165.574 6.86824 166.459 7.67509L166.818 9.35603C166.414 12.124 165.843 14.7799 165.025 17.4133C164.229 20.002 163.445 22.5458 162.571 25.1009L161.988 25.7956H161.473C160.632 25.0336 160.128 24.0475 160.016 22.9156L160.778 23.9018L161.45 24.0811C162.694 21.6381 163.669 19.0943 164.465 16.5393C165.227 13.9842 165.63 11.2611 165.697 8.33626C164.868 7.75354 164.005 7.46217 163.165 7.46217C161.204 8.26902 159.388 9.35603 157.786 10.7792C157.786 12.8972 157.741 14.9704 157.674 17.0772C157.595 19.1503 157.517 21.2683 157.449 23.3751L157.853 25.5267L156.844 26.0422C156.419 25.056 156.194 23.969 156.228 22.8372C156.777 20.3942 157.102 17.8504 157.169 15.2954L156.923 14.6342L156.833 11.9783L156.161 11.799L150.838 17.4806L150.154 17.6263C149.527 18.971 149.157 20.3606 149.09 21.7838L149.695 24.4397L149.594 25.2465L149.829 25.762L149.695 26.2775C150.277 27.3757 150.647 28.4964 150.916 29.7066L151.443 29.8859L152.776 31.1971C153.976 31.8582 155.354 32.1832 156.844 32.1832L159.164 32.0375L159.691 32.1832L161.842 31.8582L162.716 32.1832L164.577 31.8582L167.12 32.1832C168.42 31.7462 169.855 31.4884 171.413 31.4212C172.97 31.354 174.349 30.9505 175.548 30.1437L176.343 27.9921C175.962 26.4232 175.368 24.9328 174.606 23.4759C173.878 22.0191 173.25 20.5287 172.757 18.9598L173.34 19.6098L173.9 19.7555C174.494 21.3243 175.267 22.7812 176.142 24.1595C177.049 25.5491 177.71 27.0395 178.103 28.6757L176.836 31.1859C174.494 32.172 171.861 32.7211 168.947 32.7884L168.42 32.6427C167.109 33.0461 165.742 33.1918 164.308 33.0461L160.531 32.8668L156.71 33.2366L155.612 34.29L155.6 34.2788Z" fill="#231815"/>
</svg>
