<svg width="126" height="18" viewBox="0 0 126 18" fill="none" xmlns="http://www.w3.org/2000/svg">
<path d="M12.23 16.22C11.37 16.66 9.75 17.08 7.71 17.08C3.91 17.08 0 14.69 0 8.62999C0 3.81999 2.96 0 8.32 0C10.43 0 11.59 0.460001 12.12 0.720001L11.81 1.36C10.95 0.920001 9.81 0.610001 8.38 0.610001C3.68 0.610001 0.799995 3.75 0.799995 8.69C0.799995 13.37 3.5 16.44 8.09 16.44C9.56 16.44 10.92 16.13 11.91 15.63L12.22 16.22H12.23Z" fill="#231815"/>
<path d="M30.9389 16.8398H30.1689L27.9289 10.7998H21.1189L18.9189 16.8398H18.1289L24.2789 0.259766H24.8489L30.9289 16.8398H30.9389ZM27.6889 10.1398L25.4889 4.22977C25.0689 3.06977 24.8089 2.24977 24.5689 1.30977H24.5289C24.1989 2.44977 23.9789 3.12977 23.6089 4.18977L21.3689 10.1398H27.6889Z" fill="#231815"/>
<path d="M53.2083 16.8398H52.4383L51.9283 8.75977C51.7283 5.85977 51.5383 2.98977 51.5583 1.33977H51.4883C50.8683 3.06977 50.2183 4.91977 49.2083 7.46977L45.4983 16.8898H44.9983L41.5083 7.70976C40.4983 5.00976 39.7983 3.11977 39.2883 1.33977H39.2183C39.1783 3.24977 39.0383 6.14977 38.8283 8.99977L38.2783 16.8398H37.4883L38.6983 0.259766H39.5083L43.3783 10.4298C44.1683 12.5798 44.7583 14.1598 45.2683 15.6998H45.3083C45.7483 14.2298 46.3383 12.7998 47.2183 10.5198L51.2183 0.26976H52.0983L53.2183 16.8498L53.2083 16.8398Z" fill="#231815"/>
<path d="M61.2305 0.460861C62.1305 0.280861 63.2505 0.130859 64.5205 0.130859C68.4705 0.130859 70.0105 2.28087 70.0105 4.70087C70.0105 8.21087 67.2605 9.79086 64.1305 9.79086C63.3405 9.79086 62.6805 9.72086 62.0005 9.57086V16.8409H61.2305V0.460861ZM62.0005 8.89087C62.6105 9.09087 63.3405 9.15086 64.1705 9.15086C67.2905 9.15086 69.2005 7.59086 69.2005 4.82086C69.2005 2.05086 67.0305 0.760864 64.4105 0.760864C63.2905 0.760864 62.4605 0.91087 61.9905 1.00087V8.88086L62.0005 8.89087Z" fill="#231815"/>
<path d="M88.9194 16.8398H88.1494L85.9094 10.7998H79.0994L76.8994 16.8398H76.1094L82.2594 0.259766H82.8294L88.9094 16.8398H88.9194ZM85.6694 10.1398L83.4694 4.22977C83.0494 3.06977 82.7894 2.24977 82.5494 1.30977H82.5094C82.1794 2.44977 81.9594 3.12977 81.5894 4.18977L79.3494 10.1398H85.6694Z" fill="#231815"/>
<path d="M107.3 16.84H106.53L99.8497 6.7C98.5997 4.77 97.4997 3.14 96.6397 1.47L96.5697 1.48999C96.6997 3.21999 96.6997 4.26 96.6997 7.92V16.83H95.9297V0.25H96.6497L103.52 10.61C104.9 12.74 105.83 14.15 106.62 15.7L106.66 15.66C106.51 13.44 106.51 11.64 106.51 9.03V0.25H107.28V16.83L107.3 16.84Z" fill="#231815"/>
<path d="M125.859 0.259766L120.189 9.65977V16.8398H119.419V9.58977L114.109 0.259766H115.079L117.959 5.37976C118.679 6.69976 119.229 7.68977 119.849 8.93977H119.919C120.469 7.79977 121.169 6.67977 121.919 5.33977L124.879 0.26976H125.869L125.859 0.259766Z" fill="#231815"/>
</svg>
