<svg width="108" height="18" viewBox="0 0 108 18" fill="none" xmlns="http://www.w3.org/2000/svg">
<path d="M11.13 16.58H10.36V8.08H0.77V16.58H0V0H0.77V7.42H10.36V0H11.13V16.58Z" fill="#143154"/>
<path d="M19.6602 0H20.4302V16.58H19.6602V0Z" fill="#143154"/>
<path d="M35.8014 1.42977C35.3814 1.09977 34.4214 0.639766 33.0314 0.639766C30.2014 0.639766 29.2114 2.50977 29.2114 3.88977C29.2114 5.81977 30.2214 6.84977 32.6814 7.83977C35.3814 8.93977 36.8514 10.1198 36.8514 12.6298C36.8514 15.1398 35.1214 17.0898 31.8014 17.0898C30.4414 17.0898 28.8614 16.6498 27.9414 15.9698L28.3314 15.3498C29.3014 16.0098 30.5014 16.4498 31.8414 16.4498C34.4714 16.4498 36.0314 14.8298 36.0314 12.7198C36.0314 10.7398 35.0914 9.57977 32.6514 8.63977C29.9714 7.69977 28.4114 6.32977 28.4114 4.08977C28.4114 1.69977 30.3714 0.00976562 33.0214 0.00976562C34.5414 0.00976562 35.6814 0.449766 36.1814 0.819766L35.7814 1.42977H35.8014Z" fill="#143154"/>
<path d="M53.9086 0.939766H48.3786V16.8398H47.6086V0.939766H42.0586V0.259766H53.9186V0.939766H53.9086Z" fill="#143154"/>
<path d="M73.3289 8.39C73.3289 14.3 69.7089 17.11 66.0389 17.11C62.0889 17.11 58.8789 13.99 58.8789 8.72C58.8789 3.19 62.1289 0 66.2089 0C70.2889 0 73.3189 3.25 73.3189 8.39H73.3289ZM59.6889 8.69C59.6889 12.23 61.9089 16.46 66.0589 16.46C70.2089 16.46 72.5189 12.68 72.5189 8.45C72.5189 4.87 70.6089 0.63 66.1989 0.63C61.7889 0.63 59.6989 4.78 59.6989 8.69H59.6889Z" fill="#143154"/>
<path d="M86.2009 8.80988C87.5609 9.22988 88.4209 10.4999 88.8109 12.3899C89.3809 15.0899 89.6909 16.1899 90.0409 16.8499H89.2309C88.9709 16.3699 88.5909 14.8699 88.1509 12.7699C87.6209 10.3299 86.5709 9.05988 84.2909 9.05988H81.4809V16.8499H80.7109V0.479883C81.7009 0.259883 83.0609 0.129883 84.0709 0.129883C86.1809 0.129883 87.4709 0.589883 88.3709 1.53988C89.0509 2.19988 89.4909 3.31988 89.4909 4.43988C89.4909 6.67988 88.1909 8.08988 86.2009 8.76988V8.80988ZM84.2009 8.40988C86.8609 8.40988 88.6809 6.86988 88.6809 4.58988C88.6809 1.64988 86.3709 0.769883 83.9609 0.769883C82.8209 0.769883 81.9009 0.949883 81.4809 1.05988V8.41988H84.2009V8.40988Z" fill="#143154"/>
<path d="M107.209 0.259766L101.539 9.65977V16.8398H100.769V9.58977L95.4688 0.259766H96.4388L99.3187 5.37977C100.039 6.69977 100.589 7.68976 101.209 8.93976H101.279C101.829 7.79977 102.529 6.67977 103.279 5.33977L106.239 0.269766H107.229L107.209 0.259766Z" fill="#143154"/>
</svg>
