<svg width="115" height="18" viewBox="0 0 115 18" fill="none" xmlns="http://www.w3.org/2000/svg">
<path d="M15.73 16.8398H14.96L14.46 8.75977C14.26 5.85977 14.07 2.98977 14.09 1.33977H14.02C13.41 3.06977 12.75 4.91977 11.74 7.46977L8.03 16.8898H7.53L4.04 7.70977C3.02 5.00977 2.31 3.11977 1.81 1.33977H1.74C1.7 3.24977 1.56 6.14977 1.34 8.99977L0.79 16.8398H0L1.22 0.259766H2.03L5.89 10.4298C6.68 12.5798 7.27 14.1598 7.78 15.6998H7.82C8.26 14.2298 8.85 12.7998 9.73 10.5198L13.73 0.259766H14.61L15.73 16.8398Z" fill="#143154"/>
<path d="M23.75 0.259766H24.52V16.8398H23.75V0.259766Z" fill="#143154"/>
<path d="M39.8913 1.42953C39.4713 1.09953 38.5113 0.639531 37.1213 0.639531C34.2913 0.639531 33.3013 2.50953 33.3013 3.88953C33.3013 5.81953 34.3112 6.84953 36.7712 7.83953C39.4712 8.93953 40.9412 10.1195 40.9412 12.6295C40.9412 15.1395 39.2113 17.0895 35.8913 17.0895C34.5313 17.0895 32.9513 16.6495 32.0312 15.9695L32.4212 15.3595C33.3912 16.0195 34.5912 16.4595 35.9312 16.4595C38.5612 16.4595 40.1213 14.8395 40.1213 12.7295C40.1213 10.7495 39.1812 9.58953 36.7412 8.64953C34.0612 7.70953 32.5013 6.33953 32.5013 4.09953C32.5013 1.70953 34.4612 0.0195312 37.1112 0.0195312C38.6312 0.0195312 39.7712 0.459531 40.2712 0.829531L39.8713 1.43953L39.8913 1.42953Z" fill="#143154"/>
<path d="M48.5703 0.259766H49.3403V16.8398H48.5703V0.259766Z" fill="#143154"/>
<path d="M64.7116 1.42953C64.2916 1.09953 63.3316 0.639531 61.9416 0.639531C59.1116 0.639531 58.1216 2.50953 58.1216 3.88953C58.1216 5.81953 59.1316 6.84953 61.5916 7.83953C64.2916 8.93953 65.7616 10.1195 65.7616 12.6295C65.7616 15.1395 64.0316 17.0895 60.7116 17.0895C59.3516 17.0895 57.7716 16.6495 56.8516 15.9695L57.2416 15.3595C58.2116 16.0195 59.4116 16.4595 60.7516 16.4595C63.3816 16.4595 64.9416 14.8395 64.9416 12.7295C64.9416 10.7495 64.0016 9.58953 61.5616 8.64953C58.8816 7.70953 57.3216 6.33953 57.3216 4.09953C57.3216 1.70953 59.2816 0.0195312 61.9316 0.0195312C63.4516 0.0195312 64.5916 0.459531 65.0916 0.829531L64.6916 1.43953L64.7116 1.42953Z" fill="#143154"/>
<path d="M73.3828 0.259766H74.1528V16.8398H73.3828V0.259766Z" fill="#143154"/>
<path d="M96.0203 8.39C96.0203 14.3 92.4003 17.11 88.7303 17.11C84.7803 17.11 81.5703 13.99 81.5703 8.72C81.5703 3.19 84.8203 0 88.9003 0C92.9803 0 96.0103 3.25 96.0103 8.39H96.0203ZM82.3903 8.7C82.3903 12.24 84.6103 16.47 88.7603 16.47C92.9103 16.47 95.2203 12.69 95.2203 8.46C95.2203 4.88 93.3103 0.64 88.9003 0.64C84.4903 0.64 82.4003 4.79 82.4003 8.7H82.3903Z" fill="#143154"/>
<path d="M114.762 16.8398H113.992L107.322 6.69977C106.072 4.76977 104.972 3.13977 104.112 1.46977L104.042 1.48977C104.172 3.21977 104.172 4.25977 104.172 7.91977V16.8298H103.402V0.259766H104.122L110.992 10.6198C112.372 12.7498 113.302 14.1598 114.092 15.7098L114.132 15.6698C113.982 13.4498 113.982 11.6498 113.982 9.03977V0.259766H114.752V16.8398H114.762Z" fill="#143154"/>
</svg>
