<svg width="545" height="164" viewBox="0 0 545 164" fill="none" xmlns="http://www.w3.org/2000/svg">
<g filter="url(#filter0_d_1_3703)">
<g style="mix-blend-mode:multiply" opacity="0.33">
<path d="M528.719 78.5698C528.719 118.21 496.219 150.35 456.129 150.35H82.4493C42.3593 150.35 9.85938 118.22 9.85938 78.5698C9.85938 38.9298 42.3593 7.87988 82.4493 7.87988H456.129C496.219 7.87988 528.719 38.9298 528.719 78.5698Z" fill="#E6E6E6"/>
</g>
<path d="M79.1304 149.87C39.7104 149.87 7.65039 118.13 7.65039 79.1904C7.65039 60.4304 15.0604 42.8003 28.5204 29.7703C41.9604 16.7603 59.9304 9.48047 79.1304 9.48047H459.46C478.66 9.48047 496.63 16.7402 510.07 29.7402C523.53 42.7702 530.94 60.3804 530.94 79.1404C530.94 118.08 498.87 149.87 459.46 149.87H79.1304Z" fill="white"/>
<path d="M79.13 148.7C39.36 148.7 7 116.64 7 77.3101C7 58.2901 14.48 40.6002 28.07 27.4502C41.71 14.2502 59.84 7 79.13 7H459.46C478.77 7 496.9 14.2101 510.52 27.3901C524.11 40.5401 531.59 58.29 531.59 77.29C531.59 116.64 499.23 148.7 459.46 148.7H79.13Z" fill="white"/>
<path d="M79.6508 147.92C40.5808 147.92 8.80078 116.46 8.80078 77.8704C8.80078 59.2804 16.1508 41.8004 29.4908 28.8904C42.8108 16.0004 60.6208 8.78027 79.6508 8.78027H458.931C477.961 8.78027 495.771 15.9704 509.091 28.8604C522.431 41.7704 529.781 59.2303 529.781 77.8203C529.781 116.41 498.001 147.92 458.931 147.92H79.6508Z" fill="url(#paint0_linear_1_3703)"/>
<path d="M459.07 139H80.0104C46.1804 139 18.6504 111.62 18.6504 78.1504C18.6504 62.0404 25.0004 47.1004 36.5204 35.9504C48.1004 24.7404 63.5404 18.6504 80.0004 18.6504H459.06C475.56 18.6504 491.01 24.6503 502.54 35.8203C514.07 46.9803 520.41 62.0905 520.41 78.2305C520.41 111.7 492.89 139 459.05 139H459.07Z" fill="url(#paint1_linear_1_3703)"/>
<path d="M80.0098 137.05C47.2498 137.05 20.5898 110.63 20.5898 78.1404C20.5898 62.6204 26.7299 48.1203 37.8699 37.3303C49.0299 26.5303 63.9899 20.5703 79.9999 20.5703H459.06C475.16 20.5703 490.13 26.4804 501.19 37.1904C512.33 47.9804 518.47 62.5405 518.47 78.2104C518.47 110.65 491.82 137.04 459.05 137.04H79.9899L80.0098 137.05Z" fill="url(#paint2_linear_1_3703)"/>
</g>
<path d="M411.711 82.2205V80.0803H438.681C436.851 78.7003 434.511 76.4603 432.891 74.2903L434.751 73.1504C437.091 76.1804 440.501 79.1804 443.571 81.1404C440.501 83.1004 437.101 86.1004 434.751 89.1304L432.891 87.9902C434.511 85.8202 436.851 83.5804 438.681 82.2004H411.711V82.2205Z" fill="#1C3454"/>
<path d="M186.122 77.6629C186.564 77.7293 187.051 77.7846 187.582 77.8288C188.135 77.8509 188.577 77.862 188.909 77.862H207.158C207.667 77.862 208.164 77.8399 208.651 77.7957C209.138 77.7514 209.58 77.7072 209.978 77.6629V80.5828C209.558 80.5385 209.093 80.5054 208.585 80.4832C208.098 80.4611 207.622 80.4501 207.158 80.4501H188.909C188.599 80.4501 188.157 80.4611 187.582 80.4832C187.029 80.5054 186.542 80.5385 186.122 80.5828V77.6629ZM196.374 97.1396V79.3219H199.195V97.1396H196.374ZM184.098 95.5138C184.584 95.5801 185.071 95.6354 185.558 95.6797C186.066 95.7018 186.553 95.7129 187.018 95.7129H208.949C209.458 95.7129 209.934 95.6907 210.376 95.6465C210.841 95.6023 211.283 95.558 211.703 95.5138V98.5332C211.261 98.4889 210.774 98.4557 210.244 98.4336C209.713 98.4115 209.281 98.4004 208.949 98.4004H187.018C186.575 98.4004 186.1 98.4115 185.591 98.4336C185.104 98.4557 184.606 98.4889 184.098 98.5332V95.5138ZM222.022 75.5394C222.62 75.9376 223.305 76.4353 224.08 77.0325C224.854 77.6076 225.639 78.227 226.435 78.8906C227.254 79.5321 228.017 80.1625 228.725 80.7818C229.433 81.4012 230.019 81.9432 230.483 82.4077L228.393 84.498C227.973 84.0777 227.431 83.5579 226.767 82.9385C226.104 82.3192 225.374 81.6777 224.577 81.0141C223.781 80.3284 222.996 79.6869 222.221 79.0897C221.447 78.4703 220.751 77.9615 220.131 77.5634L222.022 75.5394ZM219.169 97.77C221.115 97.4825 222.885 97.0843 224.478 96.5755C226.092 96.0668 227.563 95.4917 228.891 94.8502C230.218 94.2087 231.401 93.5672 232.441 92.9257C234.144 91.864 235.715 90.6474 237.152 89.2759C238.59 87.8824 239.851 86.4446 240.935 84.9625C242.019 83.4805 242.882 82.0648 243.523 80.7155L245.116 83.5358C244.364 84.9072 243.435 86.3008 242.329 87.7165C241.223 89.1322 239.973 90.4925 238.579 91.7976C237.186 93.1027 235.648 94.2861 233.967 95.3479C232.861 96.0336 231.645 96.7083 230.317 97.3719C229.012 98.0355 227.575 98.6438 226.004 99.1968C224.456 99.7276 222.763 100.159 220.927 100.491L219.169 97.77ZM258.852 96.9405C258.852 96.6308 258.852 96.0115 258.852 95.0824C258.852 94.1313 258.852 93.0142 258.852 91.7313C258.852 90.4262 258.852 89.0658 258.852 87.6501C258.852 86.2123 258.852 84.8188 258.852 83.4694C258.852 82.1201 258.852 80.9256 258.852 79.886C258.852 78.8463 258.852 78.0943 258.852 77.6298C258.852 77.1652 258.83 76.6012 258.786 75.9376C258.742 75.274 258.675 74.6878 258.587 74.179H261.838C261.794 74.6657 261.739 75.2408 261.673 75.9044C261.628 76.568 261.606 77.1431 261.606 77.6298C261.606 78.4924 261.606 79.5321 261.606 80.7487C261.606 81.9432 261.606 83.2261 261.606 84.5976C261.606 85.9469 261.606 87.2962 261.606 88.6455C261.628 89.9727 261.639 91.2225 261.639 92.3949C261.639 93.5451 261.639 94.5294 261.639 95.3479C261.639 96.1442 261.639 96.6751 261.639 96.9405C261.639 97.2944 261.639 97.7037 261.639 98.1682C261.661 98.6327 261.695 99.1083 261.739 99.5949C261.783 100.059 261.816 100.48 261.838 100.856H258.62C258.708 100.325 258.764 99.6945 258.786 98.9645C258.83 98.2345 258.852 97.5599 258.852 96.9405ZM261.042 82.8722C262.126 83.204 263.32 83.6022 264.626 84.0667C265.953 84.5091 267.302 84.9847 268.673 85.4934C270.045 86.0022 271.339 86.522 272.556 87.0529C273.794 87.5616 274.867 88.0483 275.774 88.5128L274.646 91.3331C273.695 90.8022 272.622 90.2824 271.427 89.7736C270.233 89.2428 269.005 88.7229 267.744 88.2142C266.506 87.7054 265.3 87.252 264.128 86.8538C262.978 86.4335 261.949 86.0907 261.042 85.8252V82.8722ZM306.598 74.6767C306.576 75.097 306.554 75.5505 306.532 76.0371C306.51 76.5016 306.499 77.0104 306.499 77.5634C306.499 78.0058 306.499 78.5699 306.499 79.2556C306.499 79.9413 306.499 80.627 306.499 81.3127C306.499 81.9763 306.499 82.5183 306.499 82.9385C306.499 84.9294 306.421 86.6215 306.266 88.0151C306.134 89.4087 305.924 90.6031 305.636 91.5985C305.371 92.5718 305.017 93.4345 304.574 94.1866C304.132 94.9387 303.612 95.6686 303.015 96.3765C302.307 97.217 301.489 97.958 300.559 98.5995C299.653 99.2189 298.724 99.7387 297.772 100.159C296.821 100.601 295.936 100.955 295.118 101.221L292.961 98.9313C294.488 98.5553 295.925 98.0244 297.275 97.3387C298.646 96.6308 299.852 95.6907 300.891 94.5184C301.489 93.8327 301.964 93.1359 302.318 92.428C302.694 91.6981 302.971 90.8907 303.148 90.0059C303.347 89.1211 303.479 88.0925 303.546 86.9202C303.612 85.7478 303.645 84.3764 303.645 82.8058C303.645 82.3634 303.645 81.8104 303.645 81.1468C303.645 80.4832 303.645 79.8196 303.645 79.156C303.645 78.4703 303.645 77.9394 303.645 77.5634C303.645 77.0104 303.623 76.5016 303.579 76.0371C303.557 75.5505 303.524 75.097 303.479 74.6767H306.598ZM291.203 74.9422C291.181 75.2518 291.147 75.6279 291.103 76.0703C291.081 76.5127 291.07 76.933 291.07 77.3311C291.07 77.486 291.07 77.8399 291.07 78.3929C291.07 78.9238 291.07 79.5653 291.07 80.3173C291.07 81.0694 291.07 81.8657 291.07 82.7063C291.07 83.5469 291.07 84.3653 291.07 85.1616C291.07 85.9358 291.07 86.6105 291.07 87.1856C291.07 87.7607 291.07 88.1699 291.07 88.4133C291.07 88.8335 291.081 89.287 291.103 89.7736C291.147 90.2382 291.181 90.6253 291.203 90.9349H288.15C288.194 90.6695 288.228 90.3045 288.25 89.84C288.294 89.3534 288.316 88.8667 288.316 88.3801C288.316 88.1589 288.316 87.7607 288.316 87.1856C288.316 86.5884 288.316 85.9026 288.316 85.1284C288.316 84.3542 288.316 83.5469 288.316 82.7063C288.316 81.8657 288.316 81.0694 288.316 80.3173C288.316 79.5653 288.316 78.9238 288.316 78.3929C288.316 77.8399 288.316 77.486 288.316 77.3311C288.316 77.0436 288.305 76.6565 288.283 76.1698C288.261 75.6611 288.228 75.2518 288.183 74.9422H291.203ZM317.415 85.4934C317.747 85.5155 318.156 85.5487 318.643 85.593C319.129 85.6151 319.66 85.6372 320.235 85.6593C320.832 85.6593 321.43 85.6593 322.027 85.6593C322.381 85.6593 322.923 85.6593 323.653 85.6593C324.405 85.6593 325.279 85.6593 326.274 85.6593C327.269 85.6593 328.32 85.6593 329.426 85.6593C330.554 85.6593 331.671 85.6593 332.777 85.6593C333.905 85.6593 334.967 85.6593 335.963 85.6593C336.98 85.6593 337.854 85.6593 338.584 85.6593C339.314 85.6593 339.856 85.6593 340.21 85.6593C341.05 85.6593 341.769 85.6372 342.366 85.593C342.964 85.5487 343.439 85.5155 343.793 85.4934V88.7451C343.461 88.7229 342.964 88.6898 342.3 88.6455C341.658 88.6013 340.973 88.5792 340.243 88.5792C339.889 88.5792 339.336 88.5792 338.584 88.5792C337.832 88.5792 336.958 88.5792 335.963 88.5792C334.989 88.5792 333.939 88.5792 332.81 88.5792C331.682 88.5792 330.554 88.5792 329.426 88.5792C328.32 88.5792 327.269 88.5792 326.274 88.5792C325.301 88.5792 324.438 88.5792 323.686 88.5792C322.934 88.5792 322.381 88.5792 322.027 88.5792C321.12 88.5792 320.257 88.6013 319.439 88.6455C318.62 88.6676 317.946 88.7008 317.415 88.7451V85.4934Z" fill="#1B3554"/>
<path d="M226.929 59.9707V44.458H236.291V46.1244H228.808V51.366H235.807V53.0324H228.808V58.3043H236.413V59.9707H226.929ZM251.978 44.458V59.9707H250.16L241.707 47.7908H241.556V59.9707H239.677V44.458H241.495L249.979 56.6682H250.13V44.458H251.978ZM254.889 46.1244V44.458H266.523V46.1244H261.645V59.9707H259.767V46.1244H254.889ZM269.423 59.9707V44.458H274.664C275.876 44.458 276.871 44.665 277.649 45.0791C278.426 45.4881 279.002 46.0512 279.376 46.7682C279.749 47.4853 279.936 48.3008 279.936 49.2148C279.936 50.1288 279.749 50.9393 279.376 51.6462C279.002 52.3532 278.429 52.9087 277.656 53.3127C276.884 53.7116 275.896 53.911 274.695 53.911H270.453V52.2143H274.634C275.462 52.2143 276.129 52.0931 276.634 51.8508C277.144 51.6084 277.512 51.265 277.74 50.8206C277.972 50.3712 278.088 49.8359 278.088 49.2148C278.088 48.5937 277.972 48.0508 277.74 47.5863C277.507 47.1217 277.136 46.7632 276.626 46.5107C276.116 46.2531 275.442 46.1244 274.604 46.1244H271.301V59.9707H269.423ZM276.725 53.0021L280.542 59.9707H278.361L274.604 53.0021H276.725ZM281.212 44.458H283.364L287.666 51.6993H287.848L292.15 44.458H294.301L288.696 53.5778V59.9707H286.818V53.5778L281.212 44.458Z" fill="#1B3554"/>
<defs>
<filter id="filter0_d_1_3703" x="0" y="0" width="544.59" height="163.35" filterUnits="userSpaceOnUse" color-interpolation-filters="sRGB">
<feFlood flood-opacity="0" result="BackgroundImageFix"/>
<feColorMatrix in="SourceAlpha" type="matrix" values="0 0 0 0 0 0 0 0 0 0 0 0 0 0 0 0 0 0 127 0" result="hardAlpha"/>
<feOffset dx="3" dy="3"/>
<feGaussianBlur stdDeviation="5"/>
<feColorMatrix type="matrix" values="0 0 0 0 0.129412 0 0 0 0 0.0941176 0 0 0 0 0.0823529 0 0 0 0.3 0"/>
<feBlend mode="normal" in2="BackgroundImageFix" result="effect1_dropShadow_1_3703"/>
<feBlend mode="normal" in="SourceGraphic" in2="effect1_dropShadow_1_3703" result="shape"/>
</filter>
<linearGradient id="paint0_linear_1_3703" x1="269.291" y1="6.27027" x2="269.291" y2="146.68" gradientUnits="userSpaceOnUse">
<stop stop-color="#EBEBEB"/>
<stop offset="1" stop-color="#F5F8F8"/>
</linearGradient>
<linearGradient id="paint1_linear_1_3703" x1="269.54" y1="17.7104" x2="269.54" y2="139.74" gradientUnits="userSpaceOnUse">
<stop stop-color="#B0B0B0"/>
<stop offset="0.14" stop-color="#BABABA"/>
<stop offset="0.38" stop-color="#D7D7D7"/>
<stop offset="0.61" stop-color="#F9F9F9"/>
<stop offset="1" stop-color="white"/>
</linearGradient>
<linearGradient id="paint2_linear_1_3703" x1="269.54" y1="19.6903" x2="269.54" y2="137.77" gradientUnits="userSpaceOnUse">
<stop stop-color="#F5F5F5"/>
<stop offset="0.02" stop-color="#F4F4F4"/>
<stop offset="0.62" stop-color="#DCDCDC"/>
<stop offset="1" stop-color="#D4D4D4"/>
</linearGradient>
</defs>
</svg>
