<svg width="219" height="86" viewBox="0 0 219 86" fill="none" xmlns="http://www.w3.org/2000/svg">
<g filter="url(#filter0_d_7_10686)">
<g style="mix-blend-mode:multiply" opacity="0.33">
<path d="M202.749 39.0649C202.749 56.5834 188.393 70.7804 170.676 70.7804H40.774C23.0569 70.7804 8.70117 56.5834 8.70117 39.0649C8.70117 21.5464 23.0569 7.83008 40.774 7.83008H170.676C188.393 7.83008 202.749 21.5464 202.749 39.0649Z" fill="#E8E7E6"/>
</g>
<path d="M39.3111 70.5695C21.8941 70.5695 7.72852 56.5426 7.72852 39.3342C7.72852 31.0402 10.9998 23.2569 16.9522 17.4941C22.8846 11.7513 30.8277 8.5293 39.3111 8.5293H172.144C180.628 8.5293 188.571 11.741 194.503 17.4838C200.456 23.2466 203.727 31.0202 203.727 39.3142C203.727 56.5225 189.561 70.5695 172.144 70.5695H39.3111Z" fill="white"/>
<path d="M39.3122 70.0498C21.7352 70.0498 7.43945 55.8832 7.43945 38.5048C7.43945 30.1007 10.7508 22.2869 16.7532 16.4741C22.7757 10.6413 30.7888 7.43945 39.3122 7.43945H172.146C180.679 7.43945 188.692 10.6212 194.705 16.4541C200.707 22.2669 204.018 30.1107 204.018 38.5048C204.018 55.8932 189.723 70.0596 172.146 70.0596H39.3122V70.0498Z" fill="white"/>
<path d="M39.5427 69.7104C22.2858 69.7104 8.24023 55.8137 8.24023 38.7555C8.24023 30.5415 11.4815 22.8174 17.3839 17.1146C23.2663 11.4219 31.1393 8.23047 39.5427 8.23047H171.916C180.319 8.23047 188.192 11.4121 194.075 17.1049C199.967 22.8076 203.218 30.5212 203.218 38.7452C203.218 55.8035 189.173 69.7202 171.916 69.7202H39.5427V69.7104Z" fill="url(#paint0_linear_7_10686)"/>
<path d="M171.974 65.7679H39.6909C24.7449 65.7679 12.5801 53.6719 12.5801 38.8848C12.5801 31.7713 15.3812 25.168 20.4733 20.2356C25.5853 15.2832 32.408 12.5918 39.6909 12.5918H171.974C179.267 12.5918 186.09 15.2432 191.192 20.1755C196.284 25.1079 199.085 31.7811 199.085 38.9146C199.085 53.7017 186.92 65.7679 171.974 65.7679Z" fill="url(#paint1_linear_7_10686)"/>
<path d="M39.7017 64.9082C25.2259 64.9082 13.4512 53.2325 13.4512 38.8756C13.4512 32.0123 16.1623 25.6091 21.0842 20.8468C26.0162 16.0745 32.6289 13.4434 39.7017 13.4434H171.985C179.098 13.4434 185.71 16.0545 190.602 20.7868C195.524 25.5591 198.235 31.9923 198.235 38.9156C198.235 53.2526 186.461 64.9082 171.985 64.9082H39.7017Z" fill="url(#paint2_linear_7_10686)"/>
</g>
<path d="M67.1715 32.0393C67.1517 32.1284 67.1369 32.2322 67.127 32.351C67.1171 32.4598 67.1072 32.5785 67.0973 32.7071C67.0874 32.8357 67.0775 32.9545 67.0676 33.0633C67.0577 33.2908 67.0429 33.5876 67.0231 33.9537C67.0132 34.3197 67.0033 34.7254 66.9934 35.1706C66.9835 35.6059 66.9736 36.0511 66.9637 36.5062C66.9539 36.9514 66.9489 37.3669 66.9489 37.7527C66.9489 38.1386 66.9489 38.564 66.9489 39.029C66.9588 39.4841 66.9687 39.9392 66.9786 40.3942C66.9984 40.8394 67.0083 41.255 67.0083 41.6408C67.0182 42.0168 67.0231 42.3185 67.0231 42.546C67.0231 43.0011 66.9687 43.3622 66.8599 43.6294C66.751 43.8965 66.5977 44.0845 66.3998 44.1933C66.2119 44.312 65.9843 44.3714 65.7172 44.3714C65.4303 44.3714 65.1087 44.3021 64.7526 44.1636C64.3964 44.035 64.0551 43.8569 63.7286 43.6294C63.412 43.4018 63.1499 43.1396 62.9421 42.8428C62.7343 42.546 62.6305 42.2344 62.6305 41.9079C62.6305 41.4627 62.7987 41.0274 63.135 40.602C63.4813 40.1766 63.9265 39.7809 64.4706 39.4148C65.0247 39.0488 65.6084 38.752 66.2217 38.5244C66.8945 38.2573 67.5821 38.0594 68.2845 37.9308C68.9869 37.7923 69.63 37.723 70.2137 37.723C70.9359 37.723 71.574 37.8467 72.1281 38.094C72.692 38.3414 73.1322 38.6876 73.4488 39.1328C73.7753 39.5682 73.9385 40.0826 73.9385 40.6762C73.9385 41.2698 73.8149 41.7942 73.5675 42.2492C73.3301 42.7043 72.9739 43.0852 72.4991 43.3919C72.0341 43.6986 71.4603 43.9361 70.7776 44.1042C70.4511 44.1735 70.1247 44.218 69.7982 44.2378C69.4816 44.2675 69.1947 44.2922 68.9375 44.312L68.5219 43.11C68.799 43.1199 69.0859 43.1199 69.3827 43.11C69.6894 43.1001 69.9812 43.0654 70.2582 43.0061C70.6935 42.9269 71.0992 42.7934 71.4751 42.6054C71.8609 42.4075 72.1676 42.1503 72.3952 41.8337C72.6326 41.5171 72.7513 41.1362 72.7513 40.691C72.7513 40.2656 72.6376 39.9095 72.41 39.6226C72.1825 39.3357 71.8758 39.118 71.4899 38.9696C71.1041 38.8212 70.6737 38.747 70.1989 38.747C69.5459 38.747 68.9078 38.8163 68.2845 38.9548C67.6612 39.0933 67.0281 39.2911 66.385 39.5484C65.9101 39.7264 65.4748 39.949 65.0791 40.2162C64.6833 40.4734 64.3667 40.7455 64.1293 41.0324C63.9018 41.3193 63.788 41.5913 63.788 41.8486C63.788 42.0168 63.8424 42.18 63.9512 42.3383C64.0699 42.4867 64.2134 42.6202 64.3816 42.739C64.5498 42.8577 64.7279 42.9517 64.9158 43.0209C65.1038 43.0803 65.267 43.11 65.4055 43.11C65.5737 43.11 65.7023 43.0506 65.7914 42.9319C65.8903 42.8132 65.9398 42.6301 65.9398 42.3828C65.9398 42.0959 65.9348 41.7002 65.9249 41.1956C65.9151 40.6812 65.9052 40.1271 65.8953 39.5335C65.8854 38.93 65.8804 38.3562 65.8804 37.8121C65.8804 37.3867 65.8804 36.9316 65.8804 36.4468C65.8903 35.962 65.8953 35.4921 65.8953 35.037C65.9052 34.5819 65.9101 34.1812 65.9101 33.835C65.92 33.4887 65.9249 33.2414 65.9249 33.093C65.9249 32.994 65.92 32.8803 65.9101 32.7516C65.9101 32.6131 65.9052 32.4796 65.8953 32.351C65.8854 32.2224 65.8705 32.1185 65.8507 32.0393H67.1715ZM71.7719 33.6866C72.1281 33.8745 72.5238 34.1021 72.9591 34.3692C73.3944 34.6264 73.8099 34.8886 74.2057 35.1557C74.6113 35.4228 74.9328 35.6553 75.1703 35.8532L74.5618 36.803C74.3837 36.6249 74.1562 36.4369 73.8792 36.239C73.6022 36.0313 73.3054 35.8285 72.9888 35.6306C72.6722 35.4228 72.3606 35.2299 72.0539 35.0518C71.7472 34.8639 71.4751 34.7056 71.2377 34.577L71.7719 33.6866ZM62.8679 34.7105C63.2735 34.76 63.6198 34.7946 63.9067 34.8144C64.2035 34.8243 64.4904 34.8292 64.7674 34.8292C65.1335 34.8292 65.5441 34.8095 65.9991 34.7699C66.4542 34.7303 66.9242 34.6808 67.4089 34.6215C67.8937 34.5522 68.3637 34.4731 68.8187 34.384C69.2837 34.2851 69.6993 34.1812 70.0653 34.0724L70.095 35.2299C69.7091 35.319 69.2788 35.408 68.8039 35.497C68.329 35.5762 67.8443 35.6454 67.3496 35.7048C66.8648 35.7642 66.3998 35.8136 65.9546 35.8532C65.5094 35.8928 65.1236 35.9126 64.7971 35.9126C64.3717 35.9126 64.0106 35.9076 63.7138 35.8977C63.4269 35.8878 63.1548 35.868 62.8976 35.8384L62.8679 34.7105ZM80.9727 38.6283H86.0628V42.9912H80.9727V42.0415H85.0092V39.578H80.9727V38.6283ZM80.483 38.6283H81.5218V43.8816H80.483V38.6283ZM77.7969 34.2208H81.9225V35.037H77.7969V34.2208ZM84.6382 34.2208H88.8527V35.037H84.6382V34.2208ZM88.3482 32.069H89.476V43.5848C89.476 43.9608 89.4266 44.2428 89.3276 44.4307C89.2287 44.6286 89.0556 44.777 88.8082 44.8759C88.5609 44.9749 88.2146 45.0342 87.7694 45.054C87.3341 45.0738 86.79 45.0837 86.137 45.0837C86.1271 44.9749 86.0975 44.8512 86.048 44.7127C86.0084 44.5742 85.9589 44.4357 85.8996 44.2972C85.8501 44.1587 85.7957 44.0399 85.7363 43.941C86.0727 43.9509 86.3893 43.9558 86.6861 43.9558C86.9928 43.9558 87.2599 43.9558 87.4875 43.9558C87.7249 43.9558 87.8881 43.9558 87.9772 43.9558C88.1157 43.946 88.2097 43.9163 88.2591 43.8668C88.3185 43.8074 88.3482 43.7135 88.3482 43.5848V32.069ZM77.886 32.069H82.6348V37.2927H77.886V36.4023H81.596V32.9594H77.886V32.069ZM88.9418 32.069V32.9594H85.0389V36.4171H88.9418V37.3075H83.9852V32.069H88.9418ZM77.2775 32.069H78.3757V45.0985H77.2775V32.069ZM94.0616 33.5382C94.0418 33.6569 94.022 33.8053 94.0022 33.9834C93.9923 34.1614 93.9775 34.3395 93.9577 34.5176C93.9478 34.6957 93.9429 34.849 93.9429 34.9776C93.933 35.2843 93.928 35.6356 93.928 36.0313C93.9379 36.4171 93.9478 36.8228 93.9577 37.2482C93.9775 37.6637 94.0072 38.0792 94.0467 38.4947C94.1259 39.3159 94.2595 40.0381 94.4474 40.6614C94.6354 41.2748 94.8629 41.7546 95.1301 42.1008C95.4071 42.4471 95.7187 42.6202 96.065 42.6202C96.253 42.6202 96.436 42.5362 96.6141 42.368C96.7921 42.1899 96.9603 41.9574 97.1186 41.6705C97.2868 41.3737 97.4352 41.0472 97.5638 40.691C97.7023 40.325 97.8161 39.9589 97.9051 39.5929L98.8401 40.6465C98.5433 41.4875 98.2415 42.1553 97.9348 42.6499C97.638 43.1347 97.3313 43.4859 97.0147 43.7036C96.7081 43.9212 96.3865 44.03 96.0501 44.03C95.5852 44.03 95.135 43.8619 94.6997 43.5255C94.2644 43.1792 93.8885 42.6252 93.5719 41.8634C93.2553 41.0917 93.0277 40.0678 92.8892 38.7915C92.8398 38.3562 92.8002 37.8863 92.7705 37.3817C92.7507 36.8772 92.7359 36.3973 92.726 35.9422C92.726 35.4872 92.726 35.1162 92.726 34.8292C92.726 34.6611 92.721 34.4434 92.7111 34.1763C92.7013 33.9092 92.6716 33.6866 92.6221 33.5085L94.0616 33.5382ZM101.793 33.9537C102.06 34.2901 102.313 34.6858 102.55 35.1409C102.797 35.5861 103.02 36.0659 103.218 36.5804C103.426 37.0849 103.609 37.6093 103.767 38.1534C103.935 38.6975 104.069 39.2417 104.168 39.7858C104.276 40.32 104.356 40.8345 104.405 41.3292L103.218 41.8189C103.159 41.1461 103.055 40.4635 102.906 39.771C102.758 39.0685 102.575 38.3908 102.357 37.7379C102.139 37.075 101.887 36.4518 101.6 35.868C101.313 35.2843 100.992 34.7798 100.636 34.3544L101.793 33.9537ZM109.273 36.2836H116.767V37.2778H109.273V36.2836ZM109.005 43.481H116.96V44.4752H109.005V43.481ZM108.501 39.1477H117.583V45.0985H116.455V40.1568H109.599V45.0985H108.501V39.1477ZM112.983 32.5587C112.577 33.1622 112.048 33.7855 111.395 34.4286C110.752 35.0716 110.034 35.69 109.243 36.2836C108.461 36.8772 107.645 37.4015 106.794 37.8566C106.745 37.7775 106.681 37.6835 106.601 37.5746C106.522 37.4658 106.438 37.357 106.349 37.2482C106.26 37.1393 106.176 37.0503 106.097 36.981C106.967 36.5358 107.803 36.0066 108.605 35.3932C109.416 34.7798 110.143 34.1318 110.786 33.4491C111.439 32.7665 111.959 32.1036 112.344 31.4606H113.487C113.883 32.0146 114.333 32.5538 114.838 33.0781C115.352 33.6025 115.896 34.0971 116.47 34.5621C117.054 35.0271 117.647 35.4525 118.251 35.8384C118.864 36.2143 119.463 36.5309 120.046 36.7881C119.918 36.9266 119.789 37.0849 119.661 37.263C119.532 37.4411 119.413 37.6142 119.304 37.7824C118.721 37.4658 118.132 37.1097 117.538 36.7139C116.945 36.3182 116.366 35.8928 115.802 35.4377C115.238 34.9727 114.714 34.4978 114.229 34.013C113.744 33.5184 113.329 33.0336 112.983 32.5587ZM128.268 42.828C128.901 42.739 129.5 42.5955 130.063 42.3976C130.637 42.1998 131.147 41.9376 131.592 41.6111C132.037 41.2846 132.388 40.884 132.646 40.4091C132.903 39.9342 133.026 39.3802 133.017 38.747C133.017 38.4601 132.957 38.1633 132.839 37.8566C132.73 37.5499 132.557 37.263 132.319 36.9959C132.092 36.7288 131.795 36.5161 131.429 36.3578C131.063 36.1896 130.637 36.1055 130.152 36.1055C129.203 36.1055 128.302 36.3429 127.452 36.8178C126.601 37.2828 125.814 37.8912 125.092 38.6431V37.3372C125.992 36.4864 126.893 35.8878 127.793 35.5416C128.703 35.1953 129.549 35.0222 130.331 35.0222C131.013 35.0222 131.646 35.1755 132.23 35.4822C132.824 35.779 133.303 36.2094 133.67 36.7733C134.036 37.3372 134.219 38.005 134.219 38.7767C134.219 39.5187 134.09 40.1815 133.833 40.7652C133.576 41.3391 133.205 41.8337 132.72 42.2492C132.245 42.6648 131.676 43.016 131.013 43.3029C130.36 43.5799 129.628 43.7926 128.817 43.941L128.268 42.828ZM124.929 35.6751C124.81 35.6949 124.627 35.7196 124.38 35.7493C124.142 35.779 123.865 35.8186 123.549 35.868C123.242 35.9076 122.93 35.9472 122.614 35.9868C122.297 36.0263 122 36.0709 121.723 36.1203L121.605 34.8886C121.763 34.8985 121.916 34.9034 122.065 34.9034C122.223 34.8936 122.391 34.8837 122.569 34.8738C122.777 34.8639 123.029 34.8441 123.326 34.8144C123.633 34.7748 123.949 34.7353 124.276 34.6957C124.602 34.6462 124.909 34.5968 125.196 34.5473C125.493 34.4879 125.725 34.4286 125.893 34.3692L126.339 34.8886C126.25 35.0073 126.151 35.1557 126.042 35.3338C125.933 35.502 125.824 35.6751 125.715 35.8532C125.606 36.0313 125.512 36.1896 125.433 36.3281L124.973 38.3463C124.805 38.6134 124.597 38.93 124.35 39.2961C124.103 39.6621 123.841 40.048 123.564 40.4536C123.296 40.8493 123.024 41.2451 122.747 41.6408C122.47 42.0266 122.218 42.3828 121.99 42.7093L121.248 41.6853C121.427 41.4578 121.644 41.1758 121.901 40.8394C122.159 40.5031 122.426 40.1469 122.703 39.771C122.99 39.3851 123.267 39.0042 123.534 38.6283C123.801 38.2523 124.038 37.9061 124.246 37.5895C124.464 37.2729 124.627 37.0206 124.736 36.8326L124.795 36.0758L124.929 35.6751ZM124.78 33.2117C124.78 33.0435 124.775 32.8654 124.766 32.6774C124.766 32.4895 124.751 32.3015 124.721 32.1135L126.116 32.158C126.076 32.3559 126.027 32.6676 125.968 33.093C125.918 33.5085 125.864 34.0032 125.804 34.577C125.745 35.1508 125.686 35.7543 125.626 36.3874C125.577 37.0206 125.537 37.6488 125.508 38.2721C125.478 38.8855 125.463 39.4544 125.463 39.9787C125.463 40.4239 125.463 40.8394 125.463 41.2253C125.463 41.6012 125.468 41.9772 125.478 42.3531C125.488 42.7192 125.503 43.1199 125.522 43.5552C125.532 43.6838 125.542 43.8322 125.552 44.0004C125.562 44.1686 125.577 44.3219 125.597 44.4604H124.306C124.325 44.3615 124.335 44.218 124.335 44.03C124.345 43.852 124.35 43.7036 124.35 43.5848C124.36 43.11 124.365 42.6895 124.365 42.3234C124.365 41.9574 124.365 41.5814 124.365 41.1956C124.375 40.7999 124.385 40.3299 124.395 39.7858C124.395 39.5682 124.404 39.2714 124.424 38.8954C124.444 38.5096 124.469 38.0891 124.498 37.634C124.528 37.169 124.558 36.6991 124.587 36.2242C124.617 35.7493 124.647 35.3041 124.677 34.8886C124.706 34.4632 124.731 34.1021 124.751 33.8053C124.77 33.5085 124.78 33.3106 124.78 33.2117ZM146.254 32.4548C146.244 32.534 146.234 32.6379 146.224 32.7665C146.214 32.8951 146.204 33.0287 146.195 33.1672C146.195 33.2958 146.19 33.4145 146.18 33.5233C146.18 33.83 146.175 34.1466 146.165 34.4731C146.165 34.7996 146.16 35.1162 146.15 35.4228C146.15 35.7196 146.145 35.9967 146.135 36.2539C146.125 36.6298 146.11 37.0454 146.091 37.5004C146.081 37.9456 146.061 38.3711 146.031 38.7767C146.011 39.1823 145.972 39.5137 145.913 39.771C145.843 40.0974 145.72 40.32 145.542 40.4388C145.373 40.5575 145.116 40.6168 144.77 40.6168C144.592 40.6168 144.374 40.607 144.117 40.5872C143.86 40.5575 143.612 40.5278 143.375 40.4981C143.137 40.4684 142.949 40.4388 142.811 40.4091L142.841 39.3851C143.098 39.4445 143.365 39.494 143.642 39.5335C143.929 39.5632 144.156 39.578 144.325 39.578C144.513 39.578 144.646 39.5533 144.725 39.5038C144.814 39.4544 144.869 39.3456 144.889 39.1774C144.928 38.9795 144.958 38.7223 144.978 38.4057C144.997 38.0792 145.012 37.728 145.022 37.352C145.042 36.9662 145.057 36.6002 145.067 36.2539C145.067 35.9769 145.067 35.685 145.067 35.3783C145.067 35.0617 145.067 34.7501 145.067 34.4434C145.067 34.1268 145.067 33.835 145.067 33.5678C145.067 33.459 145.062 33.3354 145.052 33.1968C145.052 33.0583 145.047 32.9248 145.037 32.7962C145.027 32.6577 145.012 32.5439 144.992 32.4548H146.254ZM140.377 32.9149C140.357 33.093 140.343 33.2809 140.333 33.4788C140.323 33.6767 140.318 33.8894 140.318 34.1169C140.318 34.4335 140.313 34.8391 140.303 35.3338C140.303 35.8186 140.298 36.338 140.288 36.892C140.288 37.4361 140.288 37.9704 140.288 38.4947C140.288 39.0191 140.288 39.489 140.288 39.9045C140.288 40.32 140.293 40.6317 140.303 40.8394C140.323 41.2352 140.348 41.5716 140.377 41.8486C140.417 42.1256 140.516 42.3482 140.674 42.5164C140.832 42.6846 141.09 42.8082 141.446 42.8874C141.802 42.9665 142.301 43.0061 142.945 43.0061C143.479 43.0061 144.023 42.9912 144.577 42.9616C145.131 42.922 145.65 42.8775 146.135 42.828C146.63 42.7686 147.035 42.7093 147.352 42.6499L147.308 43.9113C146.981 43.941 146.575 43.9756 146.091 44.0152C145.606 44.0548 145.096 44.0845 144.562 44.1042C144.028 44.1339 143.508 44.1488 143.004 44.1488C142.143 44.1488 141.461 44.0944 140.956 43.9855C140.451 43.8767 140.075 43.7036 139.828 43.4661C139.581 43.2188 139.413 42.8923 139.324 42.4867C139.244 42.0811 139.195 41.5864 139.175 41.0027C139.175 40.7949 139.17 40.5031 139.16 40.1271C139.16 39.7413 139.16 39.3109 139.16 38.836C139.16 38.3513 139.16 37.8616 139.16 37.3669C139.16 36.8722 139.16 36.4023 139.16 35.9571C139.17 35.5119 139.175 35.131 139.175 34.8144C139.175 34.4978 139.175 34.2851 139.175 34.1763C139.175 33.9487 139.165 33.741 139.146 33.553C139.136 33.3551 139.116 33.1424 139.086 32.9149H140.377ZM135.94 36.4765C136.178 36.4765 136.425 36.4666 136.682 36.4468C136.949 36.427 137.216 36.4072 137.483 36.3874C137.81 36.3578 138.275 36.3132 138.878 36.2539C139.482 36.1945 140.165 36.1302 140.926 36.061C141.698 35.9917 142.494 35.9225 143.316 35.8532C144.137 35.7741 144.933 35.7048 145.705 35.6454C146.486 35.5762 147.184 35.5267 147.797 35.497C147.985 35.4773 148.178 35.4624 148.376 35.4525C148.584 35.4426 148.777 35.4327 148.955 35.4228V36.5804C148.876 36.5705 148.767 36.5705 148.628 36.5804C148.5 36.5804 148.356 36.5804 148.198 36.5804C148.05 36.5804 147.911 36.5804 147.782 36.5804C147.387 36.5903 146.907 36.615 146.343 36.6546C145.779 36.6842 145.166 36.7288 144.503 36.7881C143.85 36.8376 143.182 36.897 142.499 36.9662C141.817 37.0256 141.159 37.0899 140.526 37.1591C139.892 37.2284 139.319 37.2927 138.804 37.352C138.3 37.4015 137.889 37.446 137.572 37.4856C137.424 37.5054 137.256 37.5301 137.068 37.5598C136.89 37.5796 136.712 37.6043 136.534 37.634C136.356 37.6538 136.202 37.6736 136.074 37.6934L135.94 36.4765Z" fill="#040000"/>
<defs>
<filter id="filter0_d_7_10686" x="-0.000546694" y="-0.000546694" width="218.898" height="85.6618" filterUnits="userSpaceOnUse" color-interpolation-filters="sRGB">
<feFlood flood-opacity="0" result="BackgroundImageFix"/>
<feColorMatrix in="SourceAlpha" type="matrix" values="0 0 0 0 0 0 0 0 0 0 0 0 0 0 0 0 0 0 127 0" result="hardAlpha"/>
<feOffset dx="3.72" dy="3.72"/>
<feGaussianBlur stdDeviation="5.58"/>
<feColorMatrix type="matrix" values="0 0 0 0 0 0 0 0 0 0 0 0 0 0 0 0 0 0 0.4 0"/>
<feBlend mode="normal" in2="BackgroundImageFix" result="effect1_dropShadow_7_10686"/>
<feBlend mode="normal" in="SourceGraphic" in2="effect1_dropShadow_7_10686" result="shape"/>
</filter>
<linearGradient id="paint0_linear_7_10686" x1="105.729" y1="7.11993" x2="105.729" y2="69.1599" gradientUnits="userSpaceOnUse">
<stop stop-color="#ECECEB"/>
<stop offset="1" stop-color="#F6F9F9"/>
</linearGradient>
<linearGradient id="paint1_linear_7_10686" x1="105.837" y1="12.1716" x2="105.837" y2="66.0881" gradientUnits="userSpaceOnUse">
<stop stop-color="#B0B0B0"/>
<stop offset="0.13" stop-color="#BABABA"/>
<stop offset="0.37" stop-color="#D6D6D7"/>
<stop offset="0.61" stop-color="#FBFBFC"/>
<stop offset="1" stop-color="white"/>
</linearGradient>
<linearGradient id="paint2_linear_7_10686" x1="105.838" y1="13.0432" x2="105.838" y2="65.2283" gradientUnits="userSpaceOnUse">
<stop stop-color="#F6F6F6"/>
<stop offset="0.04" stop-color="#F4F4F4"/>
<stop offset="0.63" stop-color="#DCDCDC"/>
<stop offset="1" stop-color="#D4D4D4"/>
</linearGradient>
</defs>
</svg>
