<svg width="220" height="86" viewBox="0 0 220 86" fill="none" xmlns="http://www.w3.org/2000/svg">
<g filter="url(#filter0_d_7_10917)">
<g style="mix-blend-mode:multiply" opacity="0.33">
<path d="M204.439 38.7755C204.439 56.1371 189.865 70.207 171.879 70.207H40.0002C22.0136 70.207 7.43945 56.1371 7.43945 38.7755C7.43945 21.4139 22.0136 7.82031 40.0002 7.82031H171.879C189.865 7.82031 204.439 21.4139 204.439 38.7755Z" fill="#E8E7E6"/>
</g>
<path d="M39.6794 70.0498C22.1024 70.0498 7.80664 55.8832 7.80664 38.5048C7.80664 30.1007 11.118 22.2869 17.1204 16.4741C23.1429 10.6413 31.156 7.43945 39.6794 7.43945H172.513C181.046 7.43945 189.059 10.6212 195.072 16.4541C201.074 22.2669 204.385 30.1107 204.385 38.5048C204.385 55.8932 190.09 70.0601 172.513 70.0601H39.6794V70.0498Z" fill="url(#paint0_linear_7_10917)"/>
<path d="M39.9099 69.7001C22.653 69.7001 8.60742 55.8035 8.60742 38.7452C8.60742 30.5313 11.8487 22.8076 17.7511 17.1049C23.6335 11.4121 31.5065 8.2207 39.9099 8.2207H172.283C180.686 8.2207 188.56 11.4024 194.442 17.0951C200.334 22.7979 203.586 30.5115 203.586 38.7355C203.586 55.7937 189.54 69.7104 172.283 69.7104H39.9099V69.7001Z" fill="url(#paint1_linear_7_10917)"/>
<path d="M172.341 65.7577H40.0581C25.1121 65.7577 12.9473 53.6617 12.9473 38.8745C12.9473 31.7611 15.7484 25.1582 20.8404 20.2259C25.9525 15.2735 32.7752 12.582 40.0581 12.582H172.341C179.634 12.582 186.457 15.2334 191.559 20.1658C196.651 25.0982 199.452 31.7714 199.452 38.9048C199.452 53.692 187.287 65.7577 172.341 65.7577Z" fill="url(#paint2_linear_7_10917)"/>
<path d="M39.69 63.6719C25.2142 63.6719 13.4395 51.9962 13.4395 37.6392C13.4395 30.7759 16.1505 24.3728 21.0725 19.6105C26.0045 14.8382 32.6171 12.207 39.69 12.207H171.973C179.086 12.207 185.699 14.8181 190.59 19.5504C195.512 24.3227 198.224 30.756 198.224 37.6793C198.224 52.0162 186.449 63.6719 171.973 63.6719H39.69Z" fill="url(#paint3_linear_7_10917)"/>
</g>
<path d="M37.3057 31.964L38.0774 32.8396C37.563 32.988 36.9842 33.1216 36.3411 33.2403C35.708 33.359 35.0352 33.4629 34.3229 33.5519C33.6106 33.641 32.8933 33.7201 32.1711 33.7894C31.4489 33.8487 30.7514 33.8982 30.0787 33.9378C30.0589 33.8091 30.0193 33.6558 29.9599 33.4777C29.9006 33.2996 29.8412 33.1512 29.7819 33.0325C30.4348 32.983 31.1125 32.9286 31.8149 32.8693C32.5174 32.8 33.2049 32.7209 33.8777 32.6318C34.5504 32.5428 35.1836 32.4439 35.7772 32.335C36.3708 32.2163 36.8803 32.0926 37.3057 31.964ZM29.9896 34.7688L30.88 34.5017C31.1372 34.937 31.3697 35.4168 31.5775 35.9412C31.7951 36.4556 31.9386 36.9008 32.0079 37.2768L31.0581 37.5884C30.9888 37.2124 30.8553 36.7574 30.6574 36.2231C30.4595 35.6889 30.2369 35.2041 29.9896 34.7688ZM32.9873 34.3236L33.9519 34.1307C34.1498 34.5759 34.3179 35.0557 34.4565 35.5702C34.595 36.0747 34.6741 36.51 34.6939 36.8761L33.6848 37.0987C33.6749 36.7425 33.6007 36.3023 33.4622 35.7779C33.3336 35.2536 33.1753 34.7688 32.9873 34.3236ZM37.4838 33.9229L38.5375 34.3384C38.3297 34.7441 38.1071 35.1744 37.8697 35.6295C37.6322 36.0747 37.3898 36.5001 37.1425 36.9058C36.9051 37.3114 36.6726 37.6725 36.445 37.9891L35.5991 37.6181C35.8168 37.3015 36.0394 36.9255 36.2669 36.4902C36.5044 36.0549 36.7319 35.6147 36.9496 35.1695C37.1672 34.7144 37.3453 34.2989 37.4838 33.9229ZM29.8264 39.0724H38.5078V40.0518H29.8264V39.0724ZM33.6106 37.4103H34.6791V45.3052H33.6106V37.4103ZM33.1654 39.6066L34.0558 39.9331C33.7491 40.5663 33.3632 41.1747 32.8983 41.7584C32.4432 42.3322 31.9435 42.8566 31.3994 43.3315C30.8553 43.7965 30.3013 44.1823 29.7373 44.489C29.678 44.3901 29.6038 44.2862 29.5147 44.1774C29.4356 44.0685 29.3465 43.9646 29.2476 43.8657C29.1586 43.7668 29.0695 43.6827 28.9805 43.6134C29.5345 43.3661 30.0787 43.0347 30.6129 42.6192C31.1471 42.1937 31.6319 41.7238 32.0672 41.2094C32.5124 40.6949 32.8785 40.1607 33.1654 39.6066ZM35.1391 39.6512C35.4062 40.1755 35.7426 40.6949 36.1482 41.2094C36.5637 41.7139 37.0139 42.174 37.4987 42.5895C37.9834 43.005 38.4682 43.3414 38.953 43.5986C38.8738 43.6678 38.7848 43.7519 38.6859 43.8509C38.5968 43.9498 38.5078 44.0537 38.4187 44.1625C38.3396 44.2614 38.2703 44.3554 38.211 44.4445C37.7163 44.1378 37.2216 43.747 36.727 43.2721C36.2323 42.7972 35.7723 42.2778 35.3469 41.7139C34.9214 41.1401 34.5653 40.5564 34.2784 39.9628L35.1391 39.6512ZM24.855 39.4434C25.4288 39.2752 26.1213 39.0674 26.9326 38.8201C27.7537 38.5629 28.5848 38.3007 29.4257 38.0336L29.5889 39.0576C28.8173 39.3148 28.0406 39.572 27.2591 39.8292C26.4775 40.0865 25.7701 40.314 25.1369 40.5119L24.855 39.4434ZM25.0627 34.7391H29.5593V35.7779H25.0627V34.7391ZM26.9177 31.7563H27.9565V44.1032C27.9565 44.4 27.917 44.6324 27.8378 44.8006C27.7686 44.9688 27.6399 45.0974 27.452 45.1865C27.2739 45.2755 27.0365 45.3349 26.7397 45.3646C26.4429 45.3942 26.057 45.4041 25.5821 45.3942C25.5722 45.2656 25.5327 45.0974 25.4634 44.8897C25.4041 44.6918 25.3397 44.5137 25.2705 44.3554C25.5871 44.3653 25.874 44.3703 26.1312 44.3703C26.3983 44.3802 26.5764 44.3802 26.6655 44.3703C26.7545 44.3703 26.8188 44.3505 26.8584 44.3109C26.8979 44.2812 26.9177 44.212 26.9177 44.1032V31.7563ZM42.1881 32.7802H51.7896V33.8487H42.1881V32.7802ZM42.1881 36.238H51.7599V37.2916H42.1881V36.238ZM42.0991 39.7847H51.7896V40.8384H42.0991V39.7847ZM41.55 32.7802H42.6481V38.1672C42.6481 38.7311 42.6234 39.3346 42.5739 39.9776C42.5245 40.6207 42.4305 41.2737 42.292 41.9365C42.1634 42.5895 41.9605 43.2177 41.6835 43.8212C41.4164 44.4247 41.0603 44.9738 40.6151 45.4684C40.5656 45.3893 40.4864 45.3002 40.3776 45.2013C40.2688 45.1123 40.16 45.0232 40.0511 44.9342C39.9423 44.8452 39.8434 44.7808 39.7543 44.7413C40.1699 44.2763 40.4963 43.7717 40.7338 43.2276C40.9712 42.6835 41.1493 42.1245 41.268 41.5507C41.3867 40.967 41.4609 40.3882 41.4906 39.8144C41.5302 39.2406 41.55 38.6915 41.55 38.1672V32.7802ZM51.3444 32.7802H52.4425V43.8806C52.4425 44.2367 52.3881 44.5088 52.2793 44.6968C52.1804 44.8847 52.0072 45.0282 51.7599 45.1271C51.5126 45.2162 51.1663 45.2706 50.7211 45.2904C50.2759 45.3101 49.7021 45.3151 48.9997 45.3052C48.97 45.1667 48.9156 44.9886 48.8364 44.771C48.7672 44.5632 48.693 44.3851 48.6138 44.2367C48.9601 44.2466 49.2915 44.2516 49.6081 44.2516C49.9346 44.2614 50.2165 44.2614 50.454 44.2516C50.6914 44.2516 50.8547 44.2516 50.9437 44.2516C51.0921 44.2417 51.196 44.212 51.2553 44.1625C51.3147 44.113 51.3444 44.0191 51.3444 43.8806V32.7802ZM46.2097 33.1809H47.3376V45.2607H46.2097V33.1809ZM56.2713 34.2791C56.4691 34.3088 56.6868 34.3335 56.9242 34.3533C57.1715 34.3632 57.3694 34.3681 57.5178 34.3681H65.6798C65.9074 34.3681 66.13 34.3582 66.3476 34.3384C66.5653 34.3186 66.7631 34.2989 66.9412 34.2791V35.585C66.7532 35.5652 66.5455 35.5504 66.3179 35.5405C66.1003 35.5306 65.8876 35.5256 65.6798 35.5256H57.5178C57.3793 35.5256 57.1814 35.5306 56.9242 35.5405C56.6769 35.5504 56.4592 35.5652 56.2713 35.585V34.2791ZM60.8568 42.9902V35.0211H62.1182V42.9902H60.8568ZM55.366 42.263C55.5837 42.2927 55.8013 42.3174 56.019 42.3372C56.2465 42.3471 56.4642 42.352 56.6719 42.352H66.4812C66.7087 42.352 66.9214 42.3421 67.1193 42.3224C67.3271 42.3026 67.5249 42.2828 67.7129 42.263V43.6134C67.515 43.5936 67.2974 43.5788 67.0599 43.5689C66.8225 43.559 66.6296 43.5541 66.4812 43.5541H56.6719C56.4741 43.5541 56.2614 43.559 56.0338 43.5689C55.8162 43.5788 55.5936 43.5936 55.366 43.6134V42.263ZM72.3281 33.3293C72.5953 33.5074 72.9019 33.73 73.2482 33.9971C73.5945 34.2543 73.9457 34.5314 74.3019 34.8282C74.6679 35.1151 75.0092 35.397 75.3258 35.674C75.6424 35.951 75.9046 36.1934 76.1123 36.4012L75.1774 37.3361C74.9894 37.1481 74.7471 36.9156 74.4503 36.6386C74.1535 36.3616 73.827 36.0747 73.4708 35.7779C73.1147 35.4712 72.7634 35.1843 72.4172 34.9172C72.0709 34.6402 71.7593 34.4126 71.4823 34.2346L72.3281 33.3293ZM71.0519 43.2721C71.9225 43.1435 72.714 42.9654 73.4263 42.7379C74.1485 42.5103 74.8064 42.2531 75.4 41.9662C75.9936 41.6793 76.5229 41.3924 76.9879 41.1055C77.7497 40.6306 78.4521 40.0865 79.0952 39.4731C79.7382 38.8498 80.3022 38.2067 80.7869 37.5439C81.2717 36.881 81.6575 36.2478 81.9445 35.6444L82.6568 36.9058C82.3204 37.5191 81.9049 38.1424 81.4102 38.7756C80.9155 39.4088 80.3566 40.0172 79.7333 40.6009C79.11 41.1846 78.4224 41.7139 77.6705 42.1888C77.1759 42.4955 76.6317 42.7972 76.0381 43.094C75.4544 43.3908 74.8114 43.6629 74.1089 43.9102C73.4164 44.1477 72.6596 44.3406 71.8384 44.489L71.0519 43.2721ZM88.8005 42.9011C88.8005 42.7626 88.8005 42.4856 88.8005 42.0701C88.8005 41.6447 88.8005 41.145 88.8005 40.5712C88.8005 39.9875 88.8005 39.3791 88.8005 38.7459C88.8005 38.1028 88.8005 37.4796 88.8005 36.8761C88.8005 36.2726 88.8005 35.7383 88.8005 35.2734C88.8005 34.8084 88.8005 34.472 88.8005 34.2642C88.8005 34.0565 88.7906 33.8042 88.7709 33.5074C88.7511 33.2106 88.7214 32.9484 88.6818 32.7209H90.1361C90.1163 32.9385 90.0916 33.1958 90.0619 33.4926C90.0421 33.7894 90.0323 34.0466 90.0323 34.2642C90.0323 34.6501 90.0323 35.1151 90.0323 35.6592C90.0323 36.1934 90.0323 36.7672 90.0323 37.3806C90.0323 37.9841 90.0323 38.5876 90.0323 39.1911C90.0421 39.7847 90.0471 40.3437 90.0471 40.868C90.0471 41.3825 90.0471 41.8227 90.0471 42.1888C90.0471 42.545 90.0471 42.7824 90.0471 42.9011C90.0471 43.0594 90.0471 43.2424 90.0471 43.4502C90.057 43.658 90.0718 43.8707 90.0916 44.0883C90.1114 44.2961 90.1262 44.484 90.1361 44.6522H88.6967C88.7362 44.4148 88.761 44.1328 88.7709 43.8064C88.7906 43.4799 88.8005 43.1781 88.8005 42.9011ZM89.78 36.609C90.2647 36.7574 90.799 36.9354 91.3827 37.1432C91.9763 37.3411 92.5798 37.5538 93.1932 37.7813C93.8066 38.0089 94.3853 38.2414 94.9295 38.4788C95.4835 38.7063 95.9633 38.924 96.3689 39.1318L95.8644 40.3932C95.439 40.1557 94.9591 39.9232 94.4249 39.6957C93.8907 39.4582 93.3416 39.2257 92.7777 38.9982C92.2236 38.7706 91.6844 38.5678 91.1601 38.3898C90.6456 38.2018 90.1856 38.0484 89.78 37.9297V36.609ZM110.155 32.9435C110.145 33.1314 110.136 33.3343 110.126 33.5519C110.116 33.7597 110.111 33.9872 110.111 34.2346C110.111 34.4324 110.111 34.6847 110.111 34.9914C110.111 35.2981 110.111 35.6048 110.111 35.9115C110.111 36.2083 110.111 36.4507 110.111 36.6386C110.111 37.529 110.076 38.2859 110.007 38.9092C109.948 39.5324 109.854 40.0667 109.725 40.5119C109.606 40.9472 109.448 41.333 109.25 41.6694C109.052 42.0058 108.82 42.3322 108.553 42.6488C108.236 43.0248 107.87 43.3562 107.454 43.6431C107.049 43.9201 106.633 44.1526 106.208 44.3406C105.782 44.5385 105.387 44.6968 105.021 44.8155L104.056 43.7915C104.739 43.6233 105.382 43.3859 105.985 43.0792C106.599 42.7626 107.138 42.3421 107.603 41.8178C107.87 41.5111 108.083 41.1995 108.241 40.8829C108.409 40.5564 108.533 40.1953 108.612 39.7996C108.701 39.4038 108.76 38.9438 108.79 38.4194C108.82 37.8951 108.835 37.2817 108.835 36.5793C108.835 36.3814 108.835 36.1341 108.835 35.8373C108.835 35.5405 108.835 35.2437 108.835 34.9469C108.835 34.6402 108.835 34.4027 108.835 34.2346C108.835 33.9872 108.825 33.7597 108.805 33.5519C108.795 33.3343 108.78 33.1314 108.76 32.9435H110.155ZM103.27 33.0622C103.26 33.2007 103.245 33.3689 103.225 33.5668C103.215 33.7646 103.21 33.9526 103.21 34.1307C103.21 34.1999 103.21 34.3582 103.21 34.6056C103.21 34.843 103.21 35.1299 103.21 35.4663C103.21 35.8026 103.21 36.1588 103.21 36.5348C103.21 36.9107 103.21 37.2768 103.21 37.6329C103.21 37.9792 103.21 38.2809 103.21 38.5382C103.21 38.7954 103.21 38.9784 103.21 39.0872C103.21 39.2752 103.215 39.478 103.225 39.6957C103.245 39.9034 103.26 40.0766 103.27 40.2151H101.904C101.924 40.0964 101.939 39.9331 101.949 39.7254C101.969 39.5077 101.978 39.29 101.978 39.0724C101.978 38.9735 101.978 38.7954 101.978 38.5382C101.978 38.271 101.978 37.9643 101.978 37.6181C101.978 37.2718 101.978 36.9107 101.978 36.5348C101.978 36.1588 101.978 35.8026 101.978 35.4663C101.978 35.1299 101.978 34.843 101.978 34.6056C101.978 34.3582 101.978 34.1999 101.978 34.1307C101.978 34.0021 101.974 33.8289 101.964 33.6113C101.954 33.3837 101.939 33.2007 101.919 33.0622H103.27ZM114.993 37.7813C115.142 37.7912 115.325 37.806 115.542 37.8258C115.76 37.8357 115.997 37.8456 116.255 37.8555C116.522 37.8555 116.789 37.8555 117.056 37.8555C117.214 37.8555 117.457 37.8555 117.783 37.8555C118.119 37.8555 118.51 37.8555 118.955 37.8555C119.401 37.8555 119.871 37.8555 120.365 37.8555C120.87 37.8555 121.369 37.8555 121.864 37.8555C122.369 37.8555 122.843 37.8555 123.289 37.8555C123.744 37.8555 124.135 37.8555 124.461 37.8555C124.788 37.8555 125.03 37.8555 125.188 37.8555C125.564 37.8555 125.886 37.8456 126.153 37.8258C126.42 37.806 126.633 37.7912 126.791 37.7813V39.2356C126.643 39.2257 126.42 39.2109 126.123 39.1911C125.836 39.1713 125.53 39.1614 125.203 39.1614C125.045 39.1614 124.797 39.1614 124.461 39.1614C124.125 39.1614 123.734 39.1614 123.289 39.1614C122.853 39.1614 122.383 39.1614 121.879 39.1614C121.374 39.1614 120.87 39.1614 120.365 39.1614C119.871 39.1614 119.401 39.1614 118.955 39.1614C118.52 39.1614 118.134 39.1614 117.798 39.1614C117.462 39.1614 117.214 39.1614 117.056 39.1614C116.65 39.1614 116.264 39.1713 115.898 39.1911C115.532 39.201 115.231 39.2158 114.993 39.2356V37.7813ZM140.213 34.3384C140.163 34.4473 140.119 34.561 140.079 34.6798C140.049 34.7985 140.02 34.932 139.99 35.0804C139.911 35.4762 139.807 35.9115 139.678 36.3864C139.55 36.8513 139.392 37.3361 139.204 37.8407C139.025 38.3353 138.813 38.8201 138.565 39.295C138.328 39.76 138.066 40.1804 137.779 40.5564C137.324 41.1302 136.819 41.6694 136.265 42.174C135.711 42.6686 135.078 43.1138 134.366 43.5096C133.653 43.9053 132.842 44.2466 131.932 44.5335L130.923 43.4205C131.892 43.1732 132.728 42.8764 133.431 42.5301C134.143 42.174 134.766 41.7683 135.301 41.3132C135.835 40.8581 136.305 40.3684 136.71 39.8441C137.067 39.3989 137.373 38.8894 137.631 38.3156C137.898 37.7417 138.115 37.1679 138.283 36.5941C138.462 36.0104 138.585 35.4811 138.654 35.0062C138.516 35.0062 138.254 35.0062 137.868 35.0062C137.482 35.0062 137.027 35.0062 136.503 35.0062C135.978 35.0062 135.429 35.0062 134.855 35.0062C134.292 35.0062 133.747 35.0062 133.223 35.0062C132.699 35.0062 132.244 35.0062 131.858 35.0062C131.472 35.0062 131.21 35.0062 131.071 35.0062C130.774 35.0062 130.502 35.0112 130.255 35.0211C130.008 35.031 129.785 35.0409 129.587 35.0508V33.7448C129.726 33.7547 129.879 33.7696 130.047 33.7894C130.215 33.8091 130.389 33.824 130.567 33.8339C130.745 33.8339 130.913 33.8339 131.071 33.8339C131.19 33.8339 131.403 33.8339 131.709 33.8339C132.016 33.8339 132.377 33.8339 132.793 33.8339C133.218 33.8339 133.668 33.8339 134.143 33.8339C134.628 33.8339 135.103 33.8339 135.568 33.8339C136.043 33.8339 136.483 33.8339 136.889 33.8339C137.304 33.8339 137.655 33.8339 137.942 33.8339C138.229 33.8339 138.422 33.8339 138.521 33.8339C138.63 33.8339 138.753 33.8339 138.892 33.8339C139.03 33.824 139.169 33.7992 139.307 33.7597L140.213 34.3384ZM151.936 35.125C151.916 35.2832 151.902 35.4514 151.892 35.6295C151.882 35.7977 151.877 35.9659 151.877 36.1341C151.887 36.3517 151.892 36.6485 151.892 37.0245C151.902 37.4004 151.912 37.8308 151.921 38.3156C151.931 38.7904 151.941 39.29 151.951 39.8144C151.961 40.3387 151.966 40.8631 151.966 41.3874C151.976 41.9019 151.986 42.3966 151.996 42.8714C152.006 43.3364 152.01 43.747 152.01 44.1032C152.02 44.4197 151.916 44.6671 151.699 44.8452C151.491 45.0331 151.224 45.1271 150.897 45.1271C150.709 45.1271 150.482 45.1222 150.215 45.1123C149.948 45.1024 149.686 45.0875 149.428 45.0678C149.171 45.0579 148.944 45.048 148.746 45.0381L148.686 43.9548C148.983 43.9943 149.305 44.029 149.651 44.0586C149.997 44.0784 150.279 44.0883 150.497 44.0883C150.635 44.0883 150.734 44.0487 150.794 43.9696C150.863 43.8904 150.897 43.7866 150.897 43.658C150.897 43.3612 150.893 43.005 150.883 42.5895C150.883 42.1641 150.878 41.709 150.868 41.2242C150.868 40.7295 150.863 40.2299 150.853 39.7254C150.843 39.2208 150.833 38.736 150.823 38.271C150.823 37.806 150.818 37.3905 150.808 37.0245C150.799 36.6485 150.789 36.3517 150.779 36.1341C150.779 35.9956 150.769 35.8373 150.749 35.6592C150.729 35.4712 150.705 35.2931 150.675 35.125H151.936ZM145.258 37.2768C145.426 37.2965 145.605 37.3114 145.793 37.3213C145.99 37.3312 146.178 37.3361 146.356 37.3361C146.445 37.3361 146.638 37.3361 146.935 37.3361C147.242 37.3361 147.613 37.3361 148.048 37.3361C148.483 37.3361 148.948 37.3361 149.443 37.3361C149.948 37.3361 150.452 37.3361 150.957 37.3361C151.461 37.3361 151.926 37.3361 152.352 37.3361C152.787 37.3361 153.153 37.3361 153.45 37.3361C153.757 37.3361 153.955 37.3361 154.044 37.3361C154.192 37.3361 154.365 37.3312 154.563 37.3213C154.771 37.3015 154.929 37.2866 155.038 37.2768V38.4491C154.909 38.4392 154.751 38.4293 154.563 38.4194C154.385 38.4095 154.222 38.4046 154.073 38.4046C153.994 38.4046 153.806 38.4046 153.509 38.4046C153.213 38.4046 152.842 38.4046 152.396 38.4046C151.961 38.4046 151.491 38.4046 150.987 38.4046C150.482 38.4046 149.972 38.4046 149.458 38.4046C148.953 38.4046 148.479 38.4046 148.033 38.4046C147.598 38.4046 147.232 38.4046 146.935 38.4046C146.638 38.4046 146.455 38.4046 146.386 38.4046C146.188 38.4046 145.995 38.4095 145.807 38.4194C145.619 38.4293 145.436 38.4442 145.258 38.464V37.2768ZM144.858 42.9456C145.451 42.6587 146.04 42.3174 146.624 41.9217C147.217 41.5259 147.771 41.1055 148.286 40.6603C148.8 40.2151 149.25 39.7699 149.636 39.3247C150.032 38.8795 150.338 38.464 150.556 38.0781H151.15L151.179 38.9834C150.982 39.3395 150.69 39.7402 150.304 40.1854C149.928 40.6207 149.488 41.0659 148.983 41.521C148.479 41.9662 147.944 42.3966 147.38 42.8121C146.816 43.2177 146.253 43.5689 145.689 43.8657L144.858 42.9456ZM158.629 37.7813C158.778 37.7912 158.961 37.806 159.178 37.8258C159.396 37.8357 159.633 37.8456 159.891 37.8555C160.158 37.8555 160.425 37.8555 160.692 37.8555C160.85 37.8555 161.093 37.8555 161.419 37.8555C161.755 37.8555 162.146 37.8555 162.591 37.8555C163.037 37.8555 163.507 37.8555 164.001 37.8555C164.506 37.8555 165.005 37.8555 165.5 37.8555C166.005 37.8555 166.479 37.8555 166.925 37.8555C167.38 37.8555 167.771 37.8555 168.097 37.8555C168.424 37.8555 168.666 37.8555 168.824 37.8555C169.2 37.8555 169.522 37.8456 169.789 37.8258C170.056 37.806 170.269 37.7912 170.427 37.7813V39.2356C170.279 39.2257 170.056 39.2109 169.759 39.1911C169.472 39.1713 169.166 39.1614 168.839 39.1614C168.681 39.1614 168.433 39.1614 168.097 39.1614C167.761 39.1614 167.37 39.1614 166.925 39.1614C166.489 39.1614 166.019 39.1614 165.515 39.1614C165.01 39.1614 164.506 39.1614 164.001 39.1614C163.507 39.1614 163.037 39.1614 162.591 39.1614C162.156 39.1614 161.77 39.1614 161.434 39.1614C161.097 39.1614 160.85 39.1614 160.692 39.1614C160.286 39.1614 159.9 39.1713 159.534 39.1911C159.168 39.201 158.867 39.2158 158.629 39.2356V37.7813ZM179.253 33.1364C179.183 33.3244 179.104 33.5222 179.015 33.73C178.936 33.9378 178.847 34.1999 178.748 34.5165C178.659 34.7638 178.545 35.1101 178.407 35.5553C178.268 36.0005 178.11 36.4952 177.932 37.0393C177.764 37.5736 177.581 38.1276 177.383 38.7014C177.195 39.2752 177.007 39.8342 176.819 40.3783C176.631 40.9224 176.458 41.4122 176.3 41.8475C176.151 42.2729 176.022 42.6142 175.914 42.8714L174.563 42.916C174.692 42.6192 174.84 42.2432 175.008 41.7881C175.177 41.333 175.36 40.8235 175.557 40.2596C175.755 39.6957 175.948 39.1219 176.136 38.5382C176.334 37.9446 176.522 37.3707 176.7 36.8167C176.878 36.2627 177.032 35.7631 177.16 35.3179C177.299 34.8727 177.408 34.5215 177.487 34.2642C177.576 33.918 177.64 33.6459 177.68 33.448C177.719 33.2403 177.749 33.0375 177.769 32.8396L179.253 33.1364ZM182.072 38.1078C182.339 38.4936 182.626 38.9487 182.933 39.4731C183.25 39.9974 183.561 40.5514 183.868 41.1352C184.184 41.709 184.471 42.258 184.729 42.7824C184.996 43.3067 185.208 43.7618 185.367 44.1477L184.12 44.7116C183.972 44.306 183.774 43.8311 183.527 43.287C183.279 42.7329 183.007 42.1641 182.71 41.5804C182.423 40.9966 182.127 40.4426 181.82 39.9183C181.513 39.3939 181.226 38.9586 180.959 38.6124L182.072 38.1078ZM173.984 42.5598C174.341 42.54 174.771 42.5103 175.276 42.4708C175.79 42.4213 176.344 42.3718 176.938 42.3224C177.531 42.263 178.135 42.1987 178.748 42.1294C179.371 42.0602 179.975 41.9959 180.559 41.9365C181.142 41.8673 181.677 41.803 182.161 41.7436C182.646 41.6743 183.047 41.6199 183.363 41.5804L183.69 42.723C183.353 42.7725 182.928 42.8269 182.414 42.8863C181.899 42.9456 181.34 43.0099 180.737 43.0792C180.143 43.1386 179.525 43.2078 178.882 43.287C178.248 43.3562 177.63 43.4255 177.027 43.4947C176.423 43.564 175.864 43.6233 175.35 43.6728C174.835 43.7223 174.405 43.7618 174.059 43.7915C173.871 43.8113 173.673 43.836 173.465 43.8657C173.257 43.8954 173.045 43.9251 172.827 43.9548L172.604 42.5746C172.832 42.5845 173.064 42.5895 173.302 42.5895C173.549 42.5796 173.777 42.5697 173.984 42.5598Z" fill="white"/>
<defs>
<filter id="filter0_d_7_10917" x="-0.000546694" y="-0.000546694" width="219.32" height="85.0876" filterUnits="userSpaceOnUse" color-interpolation-filters="sRGB">
<feFlood flood-opacity="0" result="BackgroundImageFix"/>
<feColorMatrix in="SourceAlpha" type="matrix" values="0 0 0 0 0 0 0 0 0 0 0 0 0 0 0 0 0 0 127 0" result="hardAlpha"/>
<feOffset dx="3.72" dy="3.72"/>
<feGaussianBlur stdDeviation="5.58"/>
<feColorMatrix type="matrix" values="0 0 0 0 0 0 0 0 0 0 0 0 0 0 0 0 0 0 0.4 0"/>
<feBlend mode="normal" in2="BackgroundImageFix" result="effect1_dropShadow_7_10917"/>
<feBlend mode="normal" in="SourceGraphic" in2="effect1_dropShadow_7_10917" result="shape"/>
</filter>
<linearGradient id="paint0_linear_7_10917" x1="7.80664" y1="38.7347" x2="204.385" y2="38.7347" gradientUnits="userSpaceOnUse">
<stop stop-color="#103455"/>
<stop offset="0.37" stop-color="#103357"/>
<stop offset="0.6" stop-color="#123360"/>
<stop offset="0.79" stop-color="#16336E"/>
<stop offset="0.96" stop-color="#1C3382"/>
<stop offset="1" stop-color="#1E3389"/>
</linearGradient>
<linearGradient id="paint1_linear_7_10917" x1="106.096" y1="7.11017" x2="106.096" y2="69.1501" gradientUnits="userSpaceOnUse">
<stop stop-color="#103455"/>
<stop offset="0.91" stop-color="#0B2A43"/>
</linearGradient>
<linearGradient id="paint2_linear_7_10917" x1="11.5167" y1="39.1648" x2="200.602" y2="39.1648" gradientUnits="userSpaceOnUse">
<stop stop-color="#103455"/>
<stop offset="0.33" stop-color="#172B58"/>
<stop offset="0.39" stop-color="#1A2959"/>
<stop offset="0.43" stop-color="#182855"/>
<stop offset="0.79" stop-color="#082637"/>
<stop offset="1" stop-color="#02262C"/>
</linearGradient>
<linearGradient id="paint3_linear_7_10917" x1="105.826" y1="11.8068" x2="105.826" y2="63.992" gradientUnits="userSpaceOnUse">
<stop stop-color="#103455"/>
<stop offset="1" stop-color="#081D2F"/>
</linearGradient>
</defs>
</svg>
