<svg width="219" height="86" viewBox="0 0 219 86" fill="none" xmlns="http://www.w3.org/2000/svg">
<g filter="url(#filter0_d_7_10455)">
<g style="mix-blend-mode:multiply" opacity="0.33">
<path d="M202.749 39.0654C202.749 56.5839 188.393 70.7804 170.676 70.7804H40.774C23.0569 70.7804 8.70117 56.5839 8.70117 39.0654C8.70117 21.5469 23.0569 7.83008 40.774 7.83008H170.676C188.393 7.83008 202.749 21.5469 202.749 39.0654Z" fill="#E8E7E6"/>
</g>
<path d="M39.3111 70.5691C21.8941 70.5691 7.72852 56.5426 7.72852 39.3342C7.72852 31.0402 10.9998 23.2564 16.9522 17.4936C22.8846 11.7508 30.8277 8.5293 39.3111 8.5293H172.144C180.628 8.5293 188.571 11.7406 194.503 17.4833C200.456 23.2461 203.727 31.0202 203.727 39.3142C203.727 56.5225 189.561 70.5691 172.144 70.5691H39.3111Z" fill="white"/>
<path d="M39.3122 70.0498C21.7352 70.0498 7.43945 55.8832 7.43945 38.5048C7.43945 30.1007 10.7508 22.2869 16.7532 16.4741C22.7757 10.6413 30.7888 7.43945 39.3122 7.43945H172.146C180.679 7.43945 188.692 10.6212 194.705 16.4541C200.707 22.2669 204.018 30.1107 204.018 38.5048C204.018 55.8932 189.723 70.0601 172.146 70.0601H39.3122V70.0498Z" fill="white"/>
<path d="M39.5427 69.7104C22.2858 69.7104 8.24023 55.8137 8.24023 38.7555C8.24023 30.5415 11.4815 22.8174 17.3839 17.1146C23.2663 11.4219 31.1393 8.23047 39.5427 8.23047H171.916C180.319 8.23047 188.192 11.4121 194.075 17.1049C199.967 22.8076 203.218 30.5212 203.218 38.7452C203.218 55.8035 189.173 69.7202 171.916 69.7202H39.5427V69.7104Z" fill="url(#paint0_linear_7_10455)"/>
<path d="M171.974 65.7679H39.6909C24.7449 65.7679 12.5801 53.6719 12.5801 38.8848C12.5801 31.7713 15.3812 25.168 20.4733 20.2356C25.5853 15.2832 32.408 12.5918 39.6909 12.5918H171.974C179.267 12.5918 186.09 15.2432 191.192 20.1755C196.284 25.1079 199.085 31.7811 199.085 38.9146C199.085 53.7017 186.92 65.7679 171.974 65.7679Z" fill="url(#paint1_linear_7_10455)"/>
<path d="M39.7017 64.9082C25.2259 64.9082 13.4512 53.2325 13.4512 38.8756C13.4512 32.0123 16.1623 25.6091 21.0842 20.8468C26.0162 16.0745 32.6289 13.4434 39.7017 13.4434H171.985C179.098 13.4434 185.71 16.055 190.602 20.7872C195.524 25.5595 198.235 31.9923 198.235 38.9156C198.235 53.2526 186.461 64.9082 171.985 64.9082H39.7017Z" fill="url(#paint2_linear_7_10455)"/>
</g>
<path d="M74.3792 44.2637V33.4709H80.8928V34.6303H75.6861V38.2771H80.5555V39.4365H75.6861V43.1043H80.9771V44.2637H74.3792ZM91.9332 36.8437H90.6263C90.549 36.4678 90.4137 36.1375 90.2205 35.8529C90.0308 35.5684 89.7989 35.3295 89.5249 35.1362C89.2543 34.9395 88.9539 34.7919 88.6237 34.6936C88.2935 34.5952 87.9492 34.546 87.5908 34.546C86.9373 34.546 86.3454 34.7111 85.8149 35.0414C85.2879 35.3716 84.868 35.8582 84.5553 36.5011C84.2462 37.1441 84.0916 37.9328 84.0916 38.8673C84.0916 39.8018 84.2462 40.5906 84.5553 41.2335C84.868 41.8764 85.2879 42.363 85.8149 42.6932C86.3454 43.0235 86.9373 43.1886 87.5908 43.1886C87.9492 43.1886 88.2935 43.1394 88.6237 43.0411C88.9539 42.9427 89.2543 42.7969 89.5249 42.6037C89.7989 42.4069 90.0308 42.1663 90.2205 41.8817C90.4137 41.5936 90.549 41.2633 90.6263 40.8909H91.9332C91.8348 41.4425 91.6556 41.9361 91.3957 42.3718C91.1357 42.8074 90.8125 43.1781 90.426 43.4837C90.0395 43.7859 89.6057 44.016 89.1243 44.1741C88.6465 44.3322 88.1354 44.4112 87.5908 44.4112C86.6703 44.4112 85.8517 44.1864 85.135 43.7367C84.4183 43.287 83.8545 42.6476 83.4434 41.8184C83.0324 40.9893 82.8268 40.0056 82.8268 38.8673C82.8268 37.729 83.0324 36.7453 83.4434 35.9162C83.8545 35.087 84.4183 34.4476 85.135 33.9979C85.8517 33.5482 86.6703 33.3234 87.5908 33.3234C88.1354 33.3234 88.6465 33.4024 89.1243 33.5605C89.6057 33.7186 90.0395 33.9505 90.426 34.2562C90.8125 34.5583 91.1357 34.9272 91.3957 35.3628C91.6556 35.795 91.8348 36.2886 91.9332 36.8437ZM103.423 37.4521C103.423 38.4414 103.359 39.317 103.23 40.0788C103.111 40.8406 102.894 41.5183 102.577 42.1119C102.26 42.7055 101.825 43.2348 101.271 43.6998C100.727 44.1548 100.03 44.5704 99.1787 44.9463L98.1844 44.0114C98.8671 43.7443 99.4607 43.4524 99.9652 43.1358C100.47 42.8192 100.89 42.4235 101.227 41.9486C101.563 41.4738 101.815 40.8802 101.983 40.1678C102.152 39.4555 102.236 38.58 102.236 37.5412V33.935C102.236 33.6382 102.226 33.381 102.206 33.1634C102.186 32.9358 102.171 32.7874 102.162 32.7182H103.497C103.487 32.7874 103.472 32.9358 103.453 33.1634C103.433 33.381 103.423 33.6382 103.423 33.935V37.4521ZM98.0806 32.8072C98.0707 32.8764 98.0558 33.01 98.036 33.2079C98.0163 33.4057 98.0064 33.6333 98.0064 33.8905V39.322C98.0064 39.5 98.0113 39.688 98.0212 39.8859C98.0311 40.0738 98.041 40.242 98.0509 40.3904C98.0608 40.5289 98.0657 40.6229 98.0657 40.6724H96.7598C96.7598 40.6229 96.7648 40.5289 96.7746 40.3904C96.7845 40.2519 96.7944 40.0887 96.8043 39.9007C96.8142 39.7028 96.8192 39.5099 96.8192 39.322V33.8905C96.8192 33.7223 96.8142 33.5442 96.8043 33.3563C96.7944 33.1584 96.7796 32.9754 96.7598 32.8072H98.0806ZM93.7324 35.6862C93.7819 35.696 93.8808 35.7109 94.0292 35.7307C94.1875 35.7406 94.3755 35.7554 94.5932 35.7752C94.8108 35.7851 95.0186 35.79 95.2164 35.79H105.055C105.382 35.79 105.664 35.7801 105.901 35.7604C106.139 35.7406 106.312 35.7257 106.421 35.7158V36.9772C106.332 36.9673 106.163 36.9574 105.916 36.9476C105.669 36.9377 105.382 36.9327 105.055 36.9327H95.2164C95.0087 36.9327 94.8009 36.9377 94.5932 36.9476C94.3854 36.9476 94.2024 36.9525 94.0441 36.9624C93.8957 36.9723 93.7918 36.9772 93.7324 36.9772V35.6862ZM108.854 38.9064C110.141 38.5602 111.338 38.1397 112.446 37.645C113.554 37.1504 114.518 36.6458 115.339 36.1314C115.854 35.8049 116.354 35.4537 116.838 35.0777C117.333 34.6919 117.798 34.2912 118.233 33.8757C118.669 33.4602 119.054 33.0496 119.391 32.644L120.385 33.564C119.97 34.0092 119.519 34.4445 119.035 34.87C118.55 35.2954 118.035 35.7059 117.491 36.1017C116.957 36.4875 116.398 36.8635 115.814 37.2295C115.27 37.556 114.657 37.8924 113.974 38.2386C113.292 38.5849 112.564 38.9114 111.793 39.2181C111.021 39.5248 110.239 39.8067 109.448 40.064L108.854 38.9064ZM115.102 36.7546L116.378 36.3688V43.1358C116.378 43.3238 116.378 43.5217 116.378 43.7294C116.388 43.9372 116.398 44.1301 116.408 44.3082C116.428 44.4863 116.448 44.6248 116.467 44.7237H115.013C115.023 44.6248 115.033 44.4863 115.043 44.3082C115.062 44.1301 115.077 43.9372 115.087 43.7294C115.097 43.5217 115.102 43.3238 115.102 43.1358V36.7546ZM127.419 42.9578C127.419 42.8192 127.419 42.5422 127.419 42.1267C127.419 41.7013 127.419 41.2017 127.419 40.6279C127.419 40.0442 127.419 39.4357 127.419 38.8026C127.419 38.1595 127.419 37.5362 127.419 36.9327C127.419 36.3292 127.419 35.795 127.419 35.33C127.419 34.865 127.419 34.5286 127.419 34.3209C127.419 34.1131 127.409 33.8608 127.39 33.564C127.37 33.2672 127.34 33.0051 127.301 32.7775H128.755C128.735 32.9952 128.71 33.2524 128.681 33.5492C128.661 33.846 128.651 34.1032 128.651 34.3209C128.651 34.7067 128.651 35.1717 128.651 35.7158C128.651 36.2501 128.651 36.8239 128.651 37.4373C128.651 38.0408 128.651 38.6443 128.651 39.2478C128.661 39.8414 128.666 40.4003 128.666 40.9247C128.666 41.4391 128.666 41.8794 128.666 42.2454C128.666 42.6016 128.666 42.839 128.666 42.9578C128.666 43.116 128.666 43.2991 128.666 43.5068C128.676 43.7146 128.691 43.9273 128.71 44.145C128.73 44.3527 128.745 44.5407 128.755 44.7089H127.315C127.355 44.4714 127.38 44.1895 127.39 43.863C127.409 43.5365 127.419 43.2348 127.419 42.9578ZM128.399 36.6656C128.883 36.814 129.418 36.9921 130.001 37.1998C130.595 37.3977 131.198 37.6104 131.812 37.838C132.425 38.0655 133.004 38.298 133.548 38.5354C134.102 38.763 134.582 38.9806 134.988 39.1884L134.483 40.4498C134.058 40.2124 133.578 39.9799 133.044 39.7523C132.509 39.5149 131.96 39.2824 131.396 39.0548C130.842 38.8273 130.303 38.6245 129.779 38.4464C129.264 38.2584 128.804 38.1051 128.399 37.9864V36.6656Z" fill="#040000"/>
<defs>
<filter id="filter0_d_7_10455" x="-0.000546694" y="-0.000546694" width="218.898" height="85.6618" filterUnits="userSpaceOnUse" color-interpolation-filters="sRGB">
<feFlood flood-opacity="0" result="BackgroundImageFix"/>
<feColorMatrix in="SourceAlpha" type="matrix" values="0 0 0 0 0 0 0 0 0 0 0 0 0 0 0 0 0 0 127 0" result="hardAlpha"/>
<feOffset dx="3.72" dy="3.72"/>
<feGaussianBlur stdDeviation="5.58"/>
<feColorMatrix type="matrix" values="0 0 0 0 0 0 0 0 0 0 0 0 0 0 0 0 0 0 0.4 0"/>
<feBlend mode="normal" in2="BackgroundImageFix" result="effect1_dropShadow_7_10455"/>
<feBlend mode="normal" in="SourceGraphic" in2="effect1_dropShadow_7_10455" result="shape"/>
</filter>
<linearGradient id="paint0_linear_7_10455" x1="105.729" y1="7.11993" x2="105.729" y2="69.1599" gradientUnits="userSpaceOnUse">
<stop stop-color="#ECECEB"/>
<stop offset="1" stop-color="#F6F9F9"/>
</linearGradient>
<linearGradient id="paint1_linear_7_10455" x1="105.837" y1="12.1716" x2="105.837" y2="66.0981" gradientUnits="userSpaceOnUse">
<stop stop-color="#B0B0B0"/>
<stop offset="0.13" stop-color="#BABABA"/>
<stop offset="0.37" stop-color="#D6D6D7"/>
<stop offset="0.61" stop-color="#FBFBFC"/>
<stop offset="1" stop-color="white"/>
</linearGradient>
<linearGradient id="paint2_linear_7_10455" x1="105.838" y1="13.0432" x2="105.838" y2="65.2283" gradientUnits="userSpaceOnUse">
<stop stop-color="#F6F6F6"/>
<stop offset="0.04" stop-color="#F4F4F4"/>
<stop offset="0.63" stop-color="#DCDCDC"/>
<stop offset="1" stop-color="#D4D4D4"/>
</linearGradient>
</defs>
</svg>
