<svg width="219" height="86" viewBox="0 0 219 86" fill="none" xmlns="http://www.w3.org/2000/svg">
<g filter="url(#filter0_d_1_3184)">
<g style="mix-blend-mode:multiply" opacity="0.33">
<path d="M202.749 39.0654C202.749 56.5839 188.393 70.7804 170.676 70.7804H40.774C23.0569 70.7804 8.70117 56.5839 8.70117 39.0654C8.70117 21.5469 23.0569 7.83008 40.774 7.83008H170.676C188.393 7.83008 202.749 21.5469 202.749 39.0654Z" fill="#E8E7E6"/>
</g>
<path d="M39.3111 70.5691C21.8941 70.5691 7.72852 56.5426 7.72852 39.3342C7.72852 31.0402 10.9998 23.2564 16.9522 17.4936C22.8846 11.7508 30.8277 8.5293 39.3111 8.5293H172.144C180.628 8.5293 188.571 11.7406 194.503 17.4833C200.456 23.2461 203.727 31.0202 203.727 39.3142C203.727 56.5225 189.561 70.5691 172.144 70.5691H39.3111Z" fill="white"/>
<path d="M39.3122 70.0498C21.7352 70.0498 7.43945 55.8832 7.43945 38.5048C7.43945 30.1007 10.7508 22.2869 16.7532 16.4741C22.7757 10.6413 30.7888 7.43945 39.3122 7.43945H172.146C180.679 7.43945 188.692 10.6212 194.705 16.4541C200.707 22.2669 204.018 30.1107 204.018 38.5048C204.018 55.8932 189.723 70.0601 172.146 70.0601H39.3122V70.0498Z" fill="white"/>
<path d="M39.5427 69.7104C22.2858 69.7104 8.24023 55.8137 8.24023 38.7555C8.24023 30.5415 11.4815 22.8174 17.3839 17.1146C23.2663 11.4219 31.1393 8.23047 39.5427 8.23047H171.916C180.319 8.23047 188.192 11.4121 194.075 17.1049C199.967 22.8076 203.218 30.5212 203.218 38.7452C203.218 55.8035 189.173 69.7202 171.916 69.7202H39.5427V69.7104Z" fill="url(#paint0_linear_1_3184)"/>
<path d="M171.974 65.7679H39.6909C24.7449 65.7679 12.5801 53.6719 12.5801 38.8848C12.5801 31.7713 15.3812 25.168 20.4733 20.2356C25.5853 15.2832 32.408 12.5918 39.6909 12.5918H171.974C179.267 12.5918 186.09 15.2432 191.192 20.1755C196.284 25.1079 199.085 31.7811 199.085 38.9146C199.085 53.7017 186.92 65.7679 171.974 65.7679Z" fill="url(#paint1_linear_1_3184)"/>
<path d="M39.7017 64.9082C25.2259 64.9082 13.4512 53.2325 13.4512 38.8756C13.4512 32.0123 16.1623 25.6091 21.0842 20.8468C26.0162 16.0745 32.6289 13.4434 39.7017 13.4434H171.985C179.098 13.4434 185.71 16.055 190.602 20.7872C195.524 25.5595 198.235 31.9923 198.235 38.9156C198.235 53.2526 186.461 64.9082 171.985 64.9082H39.7017Z" fill="url(#paint2_linear_1_3184)"/>
</g>
<defs>
<filter id="filter0_d_1_3184" x="-0.000546694" y="-0.000546694" width="218.898" height="85.6618" filterUnits="userSpaceOnUse" color-interpolation-filters="sRGB">
<feFlood flood-opacity="0" result="BackgroundImageFix"/>
<feColorMatrix in="SourceAlpha" type="matrix" values="0 0 0 0 0 0 0 0 0 0 0 0 0 0 0 0 0 0 127 0" result="hardAlpha"/>
<feOffset dx="3.72" dy="3.72"/>
<feGaussianBlur stdDeviation="5.58"/>
<feColorMatrix type="matrix" values="0 0 0 0 0 0 0 0 0 0 0 0 0 0 0 0 0 0 0.4 0"/>
<feBlend mode="normal" in2="BackgroundImageFix" result="effect1_dropShadow_1_3184"/>
<feBlend mode="normal" in="SourceGraphic" in2="effect1_dropShadow_1_3184" result="shape"/>
</filter>
<linearGradient id="paint0_linear_1_3184" x1="105.729" y1="7.11993" x2="105.729" y2="69.1599" gradientUnits="userSpaceOnUse">
<stop stop-color="#ECECEB"/>
<stop offset="1" stop-color="#F6F9F9"/>
</linearGradient>
<linearGradient id="paint1_linear_1_3184" x1="105.837" y1="12.1716" x2="105.837" y2="66.0981" gradientUnits="userSpaceOnUse">
<stop stop-color="#B0B0B0"/>
<stop offset="0.13" stop-color="#BABABA"/>
<stop offset="0.37" stop-color="#D6D6D7"/>
<stop offset="0.61" stop-color="#FBFBFC"/>
<stop offset="1" stop-color="white"/>
</linearGradient>
<linearGradient id="paint2_linear_1_3184" x1="105.838" y1="13.0432" x2="105.838" y2="65.2283" gradientUnits="userSpaceOnUse">
<stop stop-color="#F6F6F6"/>
<stop offset="0.04" stop-color="#F4F4F4"/>
<stop offset="0.63" stop-color="#DCDCDC"/>
<stop offset="1" stop-color="#D4D4D4"/>
</linearGradient>
</defs>
</svg>
