<svg width="1003" height="186" viewBox="0 0 1003 186" fill="none" xmlns="http://www.w3.org/2000/svg">
<g clip-path="url(#clip0_1_4622)">
<path d="M0.0290969 48.3181C-0.713611 33.7444 12.896 17.3339 25.512 15.8384C30.0787 6.97571 37.8972 0 45.2239 0C50.9447 0 54.297 3.97465 54.6683 11.0407C55.1701 20.6561 47.3516 35.4708 36.4619 46.0999C40.7676 46.8627 45.9465 46.5817 51.8079 45.1866L52.1792 46.7423C45.6253 48.298 39.8041 48.4887 35.0668 47.4449C27.6398 54.2901 18.9581 59.0978 10.5876 59.0978C4.5556 59.1179 0.360304 54.812 0.0290969 48.3181ZM10.5876 57.522C18.3258 57.522 26.345 53.2162 33.3104 46.9932C26.2949 44.8553 21.9691 39.7365 21.5777 32.1585C21.3368 27.3508 22.5211 22.242 24.679 17.5547C13.2272 19.6926 1.01268 34.9187 1.69517 48.2378C1.99627 53.8786 5.45889 57.522 10.5876 57.522ZM34.6855 45.7386C45.5651 35.4206 53.5041 20.6461 53.0022 11.121C52.671 4.86794 49.9812 1.59588 45.2239 1.59588C38.7804 1.59588 31.8049 7.77867 27.4591 15.7179C28.252 15.7179 29.075 15.7882 29.8478 15.9388L29.5467 17.4945C28.5832 17.3239 27.6197 17.2737 26.616 17.3138C24.3377 22.0513 22.9928 27.2404 23.2337 32.0883C23.6051 39.2145 27.7803 43.952 34.6654 45.7286L34.6855 45.7386Z" fill="#D5D7CF"/>
<path d="M48.8594 50.2446C48.8594 48.6487 50.4953 46.29 53.5766 43.3191L54.7308 44.4733C52.061 47.0528 50.5355 49.1706 50.5355 50.2446C50.5355 50.616 50.7563 50.7966 51.2782 50.7966C52.8539 50.7966 61.9672 45.0956 63.5128 43.1484L64.8075 44.1521C64.7674 44.2124 64.7172 44.2625 64.677 44.3228C62.5091 46.9625 60.7026 50.6561 60.7026 52.4327C60.7026 53.4364 61.1843 53.9382 62.1679 53.9382C66.4736 53.9382 75.5467 49.5621 82.5522 44.2525L83.6261 45.4369C76.5503 50.7866 66.9252 55.5341 62.1679 55.5341C60.2509 55.5341 59.0264 54.3297 59.0264 52.4327C59.0264 51.1881 59.6587 49.3714 60.6223 47.4744C57.26 49.813 52.864 52.3925 51.2682 52.3925C49.8731 52.3925 48.8594 51.5394 48.8594 50.2346V50.2446Z" fill="#D5D7CF"/>
<path d="M77.0508 56.0567C78.2752 53.8686 82.4505 45.3071 83.8857 40.7402L85.4815 41.222C84.9596 42.8882 84.1065 44.9859 83.1831 47.1037C85.612 44.3736 88.1713 42.6874 90.3292 42.6874C92.0756 42.6874 92.9487 43.9119 93.6112 44.8554C94.3539 45.9093 94.9661 46.7323 96.4314 46.7323C98.1176 46.7323 101.309 45.6383 103.688 44.193L104.692 45.4576C102.072 47.0535 98.4388 48.3382 96.4314 48.3382C94.0728 48.3382 93.0391 46.8528 92.2562 45.7788C91.5838 44.8554 91.1823 44.2933 90.3292 44.2933C87.5089 44.2933 82.9824 48.6193 79.7908 54.3203C79.2889 55.324 78.8674 56.1571 78.5462 56.7693L77.0608 56.0667L77.0508 56.0567Z" fill="#D5D7CF"/>
<path d="M128.859 54.4014C132.201 48.4595 133.847 44.786 133.847 43.4711C133.847 43.0997 133.757 43.0295 133.436 43.0295C130.927 43.0295 124.825 47.2852 117.026 54.5018C116.414 55.0739 115.3 54.1906 115.762 53.478C117.819 50.3966 119.475 47.3755 121.512 43.4912L122.998 44.2339C121.974 46.161 121.031 47.9075 120.087 49.5836C126.23 44.2941 130.877 41.4336 133.436 41.4336C134.701 41.4336 135.514 42.2366 135.514 43.4711C135.514 44.7057 134.53 47.2249 132.503 51.0992C137.661 46.7532 141.796 44.264 144.045 44.264C145.269 44.264 146.122 45.0971 146.122 46.2915C146.122 46.9941 145.62 48.2387 145.159 49.3729C144.697 50.5271 144.245 51.6011 144.195 52.2334C144.125 52.9059 144.526 53.2773 145.329 53.2773C147.708 53.2773 153.499 49.9349 161.498 44.1637L162.462 45.4584C154.091 51.4907 148.23 54.8731 145.329 54.8731C143.543 54.8731 142.358 53.6988 142.529 52.0929C142.619 51.2397 143.141 49.9349 143.603 48.7907C144.255 47.1948 144.456 46.6026 144.456 46.3015C144.456 45.9904 144.346 45.8699 144.045 45.8699C141.907 45.8699 136.527 49.5234 130.124 55.3951C129.492 55.9672 128.448 55.114 128.839 54.4114L128.859 54.4014Z" fill="#D5D7CF"/>
<path d="M158.741 50.5459C158.741 48.5084 159.654 46.4809 161.561 44.1222L162.856 45.1259C160.668 47.8359 160.407 49.3916 160.407 50.5459C160.407 51.4191 161.019 51.9711 161.962 51.9711C165.696 51.9711 172.992 48.6088 178.683 44.1925L179.727 45.4571C173.715 50.0942 166.107 53.567 161.962 53.567C160.085 53.567 158.73 52.3024 158.73 50.5459H158.741ZM162.625 39.0033C162.514 38.5918 162.685 38.1101 163.066 37.7989C163.14 37.7521 163.213 37.6952 163.287 37.6283C163.287 37.6283 163.307 37.6082 163.217 37.6082C163.157 37.2368 163.397 36.8253 163.759 36.6647C164.461 36.2532 165.244 36.2532 165.636 36.5744C166.137 36.8354 166.188 37.4476 165.856 38.2104C165.525 38.8929 164.572 39.6056 163.387 39.6056C162.926 39.6056 162.685 39.4048 162.625 39.0134V39.0033Z" fill="#D5D7CF"/>
<path d="M163.344 65.1207C163.344 62.0794 170.118 58.0646 179.452 53.5179C179.392 51.5908 179.121 49.764 178.84 47.9474C178.539 46.0704 178.248 44.1835 178.248 42.2865C178.248 38.1814 181.831 34.5078 185.786 34.5078C187.231 34.5078 188.325 35.4513 188.325 36.716C188.325 38.9843 185.675 41.6943 180.125 45.1972C180.235 46.0102 180.366 46.8332 180.496 47.6864C180.737 49.2823 180.998 50.9484 181.088 52.735C186.709 50.0451 193.132 47.1645 199.506 44.1935L200.399 45.4582C193.624 48.6098 186.89 51.641 181.129 54.4011C180.958 62.23 175.317 68.0615 167.82 68.0615C165.17 68.0615 163.344 66.8872 163.344 65.1106V65.1207ZM167.81 66.4757C174.123 66.4757 178.89 61.7583 179.412 55.2242C170.931 59.3494 165.01 62.8121 165.01 65.1207C165.01 65.9035 166.064 66.4757 167.81 66.4757ZM179.954 43.4006C184.431 40.4698 186.659 38.2014 186.659 36.716C186.659 36.3647 186.348 36.1037 185.786 36.1037C182.765 36.1037 179.924 39.0546 179.924 42.2865C179.924 42.6579 179.944 43.0292 179.964 43.4006H179.954Z" fill="#D5D7CF"/>
<path d="M184.16 65.1207C184.16 62.0794 190.935 58.0646 200.269 53.5179C200.209 51.5908 199.938 49.764 199.657 47.9474C199.356 46.0704 199.064 44.1835 199.064 42.2865C199.064 38.1814 202.648 34.5078 206.602 34.5078C208.047 34.5078 209.141 35.4513 209.141 36.716C209.141 38.9843 206.492 41.6943 200.941 45.1972C201.052 46.0102 201.182 46.8332 201.313 47.6864C201.554 49.2823 201.815 50.9484 201.905 52.735C207.525 50.0451 213.949 47.1645 220.322 44.1935L221.215 45.4582C214.441 48.6098 207.706 51.641 201.945 54.4011C201.774 62.23 196.134 68.0615 188.636 68.0615C185.987 68.0615 184.16 66.8872 184.16 65.1106V65.1207ZM188.636 66.4757C194.949 66.4757 199.717 61.7583 200.239 55.2242C191.758 59.3494 185.836 62.8121 185.836 65.1207C185.836 65.9035 186.89 66.4757 188.636 66.4757ZM200.771 43.4006C205.247 40.4698 207.475 38.2014 207.475 36.716C207.475 36.3647 207.164 36.1037 206.602 36.1037C203.581 36.1037 200.741 39.0546 200.741 42.2865C200.741 42.6579 200.761 43.0292 200.781 43.4006H200.771Z" fill="#D5D7CF"/>
<path d="M217.623 50.5459C217.623 48.5084 218.537 46.4809 220.444 44.1222L221.738 45.1259C219.55 47.8359 219.289 49.3916 219.289 50.5459C219.289 51.4191 219.902 51.9711 220.845 51.9711C224.579 51.9711 231.875 48.6088 237.566 44.1925L238.61 45.4571C232.598 50.0942 224.99 53.567 220.845 53.567C218.968 53.567 217.613 52.3024 217.613 50.5459H217.623ZM221.507 39.0033C221.397 38.5918 221.568 38.1101 221.949 37.7989C222.023 37.7521 222.096 37.6952 222.17 37.6283C222.17 37.6283 222.19 37.6082 222.1 37.6082C222.039 37.2368 222.28 36.8253 222.642 36.6647C223.344 36.2532 224.127 36.2532 224.518 36.5744C225.02 36.8354 225.07 37.4476 224.739 38.2104C224.408 38.8929 223.455 39.6056 222.27 39.6056C221.809 39.6056 221.568 39.4048 221.507 39.0134V39.0033Z" fill="#D5D7CF"/>
<path d="M259.295 45.2873C252.28 51.0385 243.849 53.3068 238.75 51.8916C237.947 52.1927 237.134 52.3533 236.341 52.3533C234.615 52.3533 233.391 51.2794 233.391 49.7136C233.391 48.9708 233.702 48.1177 234.244 47.2846C234.184 46.9133 234.153 46.5218 234.153 46.1103C234.153 42.6777 236.974 40.0078 240.517 40.0078C243.377 40.0078 245.214 41.5635 245.214 44.0326C245.214 46.5017 243.377 49.021 241.018 50.6771C245.625 51.0485 252.49 48.75 258.221 44.0527C258.833 43.5509 259.887 44.7955 259.295 45.2772V45.2873ZM236.331 50.7675H236.351C235.85 50.3961 235.428 49.9545 235.067 49.4526C235.047 49.543 235.047 49.6333 235.047 49.7337C235.047 50.3861 235.508 50.7775 236.331 50.7775V50.7675ZM236.04 47.6159C236.452 48.8203 237.375 49.6935 238.68 50.1954C241.199 49.021 243.548 46.301 243.548 44.0527C243.548 42.507 242.474 41.6238 240.527 41.6238C238.128 41.6238 236.221 43.2397 235.89 45.4479C236.08 45.2772 236.281 45.1166 236.502 44.946C237.706 44.0226 239.081 43.4806 240.266 43.4806C240.818 43.4806 241.4 43.591 241.841 43.8118L241.139 45.2572C240.858 45.1267 240.617 45.0765 240.266 45.0765C239.433 45.0765 238.479 45.4679 237.496 46.2107C236.944 46.6222 236.442 47.124 236.05 47.6259L236.04 47.6159Z" fill="#D5D7CF"/>
<path d="M251.066 54.2893C253.314 50.5555 254.408 48.9596 260.129 41.3917C261.052 40.1471 261.896 39.1836 262.779 39.1836C263.461 39.1836 263.963 39.6453 263.963 40.3378C263.963 41.472 262.036 43.2285 259.196 45.3664C257.49 47.6347 256.335 49.2106 255.432 50.5254C260.41 46.4203 263.02 45.1456 264.866 45.1456C266.131 45.1456 266.924 45.9285 266.924 47.173C266.924 47.8556 266.703 48.5481 266.492 49.1804C266.312 49.7726 266.121 50.3146 266.071 50.967C266.001 51.6395 266.382 52.0109 267.205 52.0109C268.69 52.0109 271.842 50.7161 276.228 48.3373C277.272 47.7853 277.974 49.2507 277.041 49.7525C272.384 52.2819 269.022 53.6168 267.205 53.6168C265.388 53.6168 264.234 52.4425 264.405 50.8365C264.495 50.0236 264.716 49.3009 264.927 48.6987C265.188 47.8857 265.258 47.5444 265.258 47.1931C265.258 46.8017 264.947 46.7615 264.626 46.7615C262.99 46.7615 259.778 48.6786 252.521 55.1324C252.02 56.0056 250.614 55.1123 251.076 54.3194L251.066 54.2893Z" fill="#D5D7CF"/>
<path d="M299.28 50.5459C299.28 48.5084 300.193 46.4809 302.1 44.1222L303.395 45.1259C301.207 47.8359 300.946 49.3916 300.946 50.5459C300.946 51.4191 301.558 51.9711 302.501 51.9711C306.235 51.9711 313.532 48.6088 319.222 44.1925L320.266 45.4571C314.254 50.0942 306.646 53.567 302.501 53.567C300.624 53.567 299.27 52.3024 299.27 50.5459H299.28ZM303.164 39.0033C303.053 38.5918 303.214 38.1101 303.605 37.7989C303.679 37.7521 303.753 37.6952 303.826 37.6283C303.826 37.6283 303.846 37.6082 303.756 37.6082C303.696 37.2368 303.937 36.8253 304.298 36.6647C305 36.2532 305.783 36.2532 306.175 36.5744C306.677 36.8354 306.727 37.4476 306.396 38.2104C306.064 38.8929 305.111 39.6056 303.927 39.6056C303.465 39.6056 303.224 39.4048 303.164 39.0134V39.0033Z" fill="#D5D7CF"/>
<path d="M303.879 65.1201C303.879 62.2094 309.479 58.5158 317.749 55.6954C318.492 55.4344 319.235 55.2136 319.958 54.9928C319.978 54.6816 319.998 54.3805 319.998 54.0694C319.998 51.9315 319.687 49.9442 319.385 47.9669C319.084 46.09 318.793 44.203 318.793 42.306C318.793 38.2009 322.376 34.5273 326.331 34.5273C327.776 34.5273 328.87 35.4708 328.87 36.7355C328.87 39.0038 326.22 41.7138 320.67 45.2167C320.781 46.0297 320.911 46.8528 321.041 47.7059C321.343 49.6932 321.674 51.8111 321.674 54.0694V54.511C326.2 53.3066 330.606 52.7144 334.109 52.875L334.039 54.4709C330.526 54.3002 326.11 54.9326 321.533 56.2173C320.62 63.1227 315.28 68.081 308.375 68.081C305.726 68.081 303.899 66.9067 303.899 65.1301L303.879 65.1201ZM308.355 66.4751C314.166 66.4751 318.673 62.4703 319.757 56.7292C319.275 56.8797 318.773 57.0403 318.291 57.211C310.995 59.6801 305.555 63.1729 305.555 65.1201C305.555 65.903 306.609 66.4751 308.355 66.4751ZM320.5 43.4C324.976 40.4692 327.204 38.2009 327.204 36.7154C327.204 36.3641 326.893 36.1032 326.331 36.1032C323.31 36.1032 320.469 39.054 320.469 42.2859C320.469 42.6573 320.489 43.0287 320.51 43.4H320.5Z" fill="#D5D7CF"/>
<path d="M357.131 50.0253C357.763 49.5837 359.509 48.3592 361.346 47.0042C362.942 45.8298 364.608 44.5752 365.712 43.6117C368.663 38.9545 371.764 34.4378 374.805 30.3628C366.856 30.7342 358.877 31.6275 353.387 33.0728C352.403 33.3338 351.942 31.7881 352.925 31.5472C358.807 30.1019 367.498 29.1684 375.999 28.797C383.256 19.292 389.99 12.5371 393.202 12.5371C394.206 12.5371 394.928 13.1895 394.928 14.1531C394.928 16.3813 390.974 21.5001 384.049 28.5963C391.084 28.5562 397.247 28.9275 400.639 29.7104C403.309 30.3227 404.313 31.6174 404.423 33.5546L402.677 33.9259C402.546 32.5107 402.004 31.6777 400.278 31.2862C396.715 30.4833 390.011 30.0818 382.513 30.132C378.147 34.4981 372.788 39.5266 366.605 45.0168C358.235 58.5166 351.219 73.1405 351.219 81.5816C351.219 82.8061 351.57 83.3682 351.902 83.7898C352.574 84.6028 351.329 85.3656 350.677 84.7935C350.496 84.6228 349.543 83.9403 349.543 81.5816C349.543 73.6323 355.575 60.3835 363.243 47.5963C362.942 47.8172 362.671 48.038 362.37 48.2487C360.473 49.6238 358.696 50.8684 358.044 51.3301L357.121 50.0353L357.131 50.0253ZM369.917 39.8377C373.721 36.385 377.154 33.133 380.145 30.1621C378.99 30.1821 377.826 30.2223 376.632 30.2725C374.424 33.2234 372.155 36.4553 369.907 39.8277L369.917 39.8377ZM377.826 28.7167C379.121 28.6565 380.426 28.6264 381.71 28.6063C388.947 21.3295 393.252 16.0802 393.252 14.3839C393.252 14.2133 393.182 14.123 392.971 14.123C390.322 14.123 384.4 20.115 377.826 28.7167Z" fill="#D5D7CF"/>
<path d="M392.209 49.3219C389.65 50.175 387.201 50.6367 385.063 50.6367H384.19C382.725 51.6806 381.019 52.3631 379.443 52.3631C377.717 52.3631 376.492 51.2891 376.492 49.7234C376.492 48.9806 376.803 48.1275 377.365 47.2743C377.295 46.9431 377.255 46.5517 377.255 46.1201C377.255 42.6874 380.075 40.0176 383.618 40.0176C386.479 40.0176 388.315 41.5733 388.315 44.0424C388.315 45.7086 387.402 47.5152 386.037 49.0007C387.743 48.8903 389.64 48.4788 391.698 47.7963C392.882 47.4048 393.233 48.9806 392.22 49.3219H392.209ZM379.433 50.7672C380.025 50.7672 380.637 50.6367 381.25 50.3958C379.965 50.1951 378.951 49.8037 378.259 49.1111C378.188 49.3319 378.148 49.5427 378.148 49.7234C378.148 50.3758 378.61 50.7672 379.433 50.7672ZM379.323 47.3747C380.045 48.3182 381.621 48.8401 383.668 48.9907C385.354 47.6357 386.639 45.7086 386.639 44.0525C386.639 42.5068 385.565 41.6235 383.618 41.6235C381.219 41.6235 379.312 43.2395 378.981 45.4476C379.172 45.277 379.373 45.1164 379.593 44.9457C380.798 44.0223 382.173 43.4803 383.357 43.4803C383.909 43.4803 384.471 43.5908 384.933 43.8116C385.636 44.1629 384.973 45.5981 384.23 45.2569C383.929 45.1264 383.708 45.0762 383.357 45.0762C382.524 45.0762 381.571 45.4677 380.587 46.2104C380.125 46.5617 379.694 46.9732 379.323 47.3847V47.3747Z" fill="#D5D7CF"/>
<path d="M409.662 64.4074C402.928 77.4957 397.267 90.7445 397.428 98.0013L395.762 98.0414C395.39 82.0625 422.047 38.4919 428.521 28.6055L429.936 29.4988C427.688 32.9314 422.971 40.4491 417.832 49.4322C422.198 44.4037 426.393 41.4328 429.725 41.4328C431.653 41.4328 432.767 42.5067 432.767 44.4037C432.767 45.3673 432.415 46.652 431.743 47.9468C436.771 47.5754 442.362 47.465 446.296 44.1929L447.32 45.4576C442.793 49.1713 436.089 49.1512 430.709 49.633C429.133 51.7508 426.694 53.5273 423.603 53.5273C421.877 53.5273 420.713 52.5839 420.713 51.1185C420.713 49.1713 423.794 48.7397 429.565 48.1274C429.675 48.1074 429.766 48.1074 429.876 48.0873C430.669 46.7925 431.1 45.4174 431.1 44.3937C431.1 43.3699 430.729 43.0186 429.725 43.0186C427.146 43.0186 419.699 46.1401 409.682 64.3974H409.662V64.4074ZM423.603 51.9415C425.59 51.9415 427.236 51.0683 428.471 49.8839C423.995 50.3657 422.379 50.6467 422.379 51.3092C422.379 51.6605 422.77 51.9415 423.603 51.9415Z" fill="#D5D7CF"/>
<path d="M440.727 56.0567C441.951 53.8686 446.126 45.3071 447.561 40.7402L449.157 41.222C448.635 42.8882 447.782 44.9859 446.859 47.1037C449.288 44.3736 451.847 42.6874 454.005 42.6874C455.751 42.6874 456.625 43.9119 457.287 44.8554C458.03 45.9093 458.642 46.7323 460.107 46.7323C461.793 46.7323 464.985 45.6383 467.364 44.193L468.367 45.4576C465.748 47.0535 462.115 48.3382 460.107 48.3382C457.749 48.3382 456.715 46.8528 455.932 45.7788C455.26 44.8554 454.858 44.2933 454.005 44.2933C451.185 44.2933 446.658 48.6193 443.467 54.3203C442.965 55.324 442.543 56.1571 442.222 56.7693L440.737 56.0667L440.727 56.0567Z" fill="#D5D7CF"/>
<path d="M489.002 45.2873C481.987 51.0385 473.556 53.3068 468.457 51.8916C467.654 52.1927 466.841 52.3533 466.048 52.3533C464.322 52.3533 463.098 51.2794 463.098 49.7136C463.098 48.9708 463.409 48.1177 463.951 47.2846C463.891 46.9133 463.86 46.5218 463.86 46.1103C463.86 42.6777 466.681 40.0078 470.224 40.0078C473.084 40.0078 474.921 41.5635 474.921 44.0326C474.921 46.5017 473.084 49.021 470.725 50.6771C475.332 51.0485 482.197 48.75 487.928 44.0527C488.54 43.5509 489.604 44.7955 489.002 45.2772V45.2873ZM466.048 50.7675H466.068C465.567 50.3961 465.145 49.9545 464.784 49.4526C464.764 49.543 464.764 49.6333 464.764 49.7337C464.764 50.3861 465.225 50.7775 466.048 50.7775V50.7675ZM465.747 47.6159C466.159 48.8203 467.082 49.6935 468.387 50.1954C470.906 49.021 473.255 46.301 473.255 44.0527C473.255 42.507 472.181 41.6238 470.234 41.6238C467.835 41.6238 465.928 43.2397 465.597 45.4479C465.787 45.2772 465.988 45.1166 466.209 44.946C467.413 44.0226 468.788 43.4806 469.973 43.4806C470.525 43.4806 471.107 43.591 471.548 43.8118L470.846 45.2572C470.565 45.1267 470.324 45.0765 469.973 45.0765C469.14 45.0765 468.186 45.4679 467.203 46.2107C466.651 46.6222 466.149 47.124 465.757 47.6259L465.747 47.6159Z" fill="#D5D7CF"/>
<path d="M483.393 55.4238C483.393 53.6974 484.688 47.0328 490.87 40.6895L492.054 41.8036C486.243 47.7756 485.059 53.7576 485.059 55.6345C485.059 56.4375 485.24 56.7687 485.731 56.7687C488.983 56.7687 496.962 47.8057 497.906 44.2024L499.502 44.644C498.478 48.5785 489.756 58.3646 485.541 58.3646C484.226 58.3646 483.383 57.3609 483.383 55.4338L483.393 55.4238Z" fill="#D5D7CF"/>
<path d="M504.44 50.5459C504.44 48.5084 505.353 46.4809 507.26 44.1222L508.555 45.1259C506.367 47.8359 506.106 49.3916 506.106 50.5459C506.106 51.4191 506.718 51.9711 507.661 51.9711C511.395 51.9711 518.692 48.6088 524.382 44.1925L525.426 45.4571C519.414 50.0942 511.807 53.567 507.661 53.567C505.785 53.567 504.43 52.3024 504.43 50.5459H504.44ZM508.324 39.0033C508.213 38.5918 508.374 38.1101 508.766 37.7989C508.839 37.7521 508.913 37.6952 508.986 37.6283C508.986 37.6283 509.006 37.6082 508.916 37.6082C508.856 37.2368 509.097 36.8253 509.458 36.6647C510.161 36.2532 510.943 36.2532 511.335 36.5744C511.837 36.8354 511.887 37.4476 511.556 38.2104C511.224 38.8929 510.271 39.6056 509.087 39.6056C508.625 39.6056 508.384 39.4048 508.324 39.0134V39.0033Z" fill="#D5D7CF"/>
<path d="M530.967 61.7975C530.967 60.2217 531.077 58.5455 531.318 56.769C531.76 53.517 532.653 50.1044 533.898 46.6115C530.294 48.3981 527.143 49.4921 524.764 49.6226C523.449 49.6929 522.426 48.8397 522.426 47.565C522.426 45.0357 525.507 42.6971 529.391 42.6971C531.007 42.6971 532.904 43.0484 534.61 44.574C534.63 44.574 534.67 44.5539 534.68 44.5339C542.88 23.667 562.763 1.45508 571.876 1.45508C574.415 1.45508 576.403 3.51266 576.403 6.19254C576.403 15.2459 552.646 36.5444 536.035 45.5275C534.53 49.442 533.476 53.3263 532.994 56.9998C532.773 58.7061 532.663 60.3421 532.663 61.8276C532.663 66.7658 533.847 70.349 536.025 71.8144C536.818 72.3564 535.895 73.6713 535.102 73.1494C532.372 71.3628 530.977 67.2877 530.977 61.8075L530.967 61.7975ZM524.654 48.0167C526.882 47.9063 529.763 46.9428 533.024 45.3669C531.649 44.4034 530.465 44.293 529.07 44.293C526.43 44.293 524.092 45.9491 524.092 47.555C524.092 47.8862 524.272 48.0368 524.644 48.0167H524.654ZM536.909 43.3194C552.987 34.1355 574.736 14.0314 574.736 6.17247C574.736 4.38588 573.492 3.03089 571.876 3.03089C563.676 3.03089 545.219 23.416 536.909 43.3094V43.3194Z" fill="#D5D7CF"/>
<path d="M549.041 53.6669C546.924 53.6669 545.699 52.6131 545.699 50.7361C545.699 46.9823 549.242 42.4355 552.665 42.4355C554.04 42.4355 554.913 43.1181 554.913 44.3827C554.913 46.6109 551.962 47.8957 548.419 47.444C547.787 48.518 547.375 49.6923 547.375 50.7261C547.375 51.6696 547.817 52.061 549.051 52.061C550.908 52.061 553.658 51.3183 557.071 49.873L557.703 51.3584C554.16 52.864 551.129 53.6569 549.051 53.6569L549.041 53.6669ZM549.503 45.9184C551.601 45.9886 553.237 45.3463 553.237 44.453C553.237 44.1418 552.936 44.0214 552.665 44.0214C551.661 44.0214 550.497 44.8043 549.513 45.9184H549.503Z" fill="#D5D7CF"/>
<path d="M579.785 53.5466C579.785 51.2682 583.438 44.6338 588.959 40.4082L589.962 41.6729C584.743 45.6776 581.461 51.6798 581.461 53.5567C581.461 53.9983 581.592 54.1489 581.943 54.1489C583.73 54.1489 588.276 50.6058 590.876 47.3036C591.046 47.0627 591.207 46.8419 591.398 46.6211L591.438 46.5609C591.588 46.3702 591.739 46.2096 591.899 46.039L593.124 47.1531C591.729 48.5984 590.675 50.9069 590.675 52.5329C590.675 53.0849 590.825 53.2556 591.197 53.2556C593.054 53.2556 597.249 49.843 597.771 45.517C596.787 44.9249 596.175 43.7706 596.807 43.2687C597.399 42.787 598.443 43.329 599.126 44.423C601.504 46.872 608.741 48.0062 614.291 44.2022L615.214 45.4669C609.754 49.2307 602.759 48.7489 599.256 46.5609C598.253 50.5857 594.318 54.8615 591.197 54.8615C589.862 54.8615 589.009 53.9481 589.009 52.5429C589.009 52.2318 589.049 51.8705 589.099 51.5392C586.741 53.6972 583.9 55.7548 581.953 55.7548C580.658 55.7548 579.795 54.8816 579.795 53.5667L579.785 53.5466Z" fill="#D5D7CF"/>
<path d="M635.908 45.2873C628.893 51.0385 620.462 53.3068 615.363 51.8916C614.56 52.1927 613.747 52.3533 612.955 52.3533C611.228 52.3533 610.004 51.2794 610.004 49.7136C610.004 48.9708 610.315 48.1177 610.857 47.2846C610.797 46.9133 610.767 46.5218 610.767 46.1103C610.767 42.6777 613.587 40.0078 617.13 40.0078C619.99 40.0078 621.827 41.5635 621.827 44.0326C621.827 46.5017 619.99 49.021 617.632 50.6771C622.238 51.0485 629.104 48.75 634.834 44.0527C635.447 43.5509 636.501 44.7955 635.908 45.2772V45.2873ZM612.955 50.7675H612.975C612.473 50.3961 612.051 49.9545 611.69 49.4526C611.67 49.543 611.67 49.6333 611.67 49.7337C611.67 50.3861 612.132 50.7775 612.955 50.7775V50.7675ZM612.654 47.6159C613.065 48.8203 613.988 49.6935 615.293 50.1954C617.812 49.021 620.161 46.301 620.161 44.0527C620.161 42.507 619.087 41.6238 617.14 41.6238C614.741 41.6238 612.834 43.2397 612.503 45.4479C612.694 45.2772 612.894 45.1166 613.115 44.946C614.32 44.0226 615.695 43.4806 616.879 43.4806C617.431 43.4806 618.013 43.591 618.455 43.8118L617.752 45.2572C617.471 45.1267 617.23 45.0765 616.879 45.0765C616.046 45.0765 615.092 45.4679 614.109 46.2107C613.557 46.6222 613.055 47.124 612.664 47.6259L612.654 47.6159Z" fill="#D5D7CF"/>
<path d="M642.273 54.4014C645.616 48.4595 647.262 44.786 647.262 43.4711C647.262 43.0997 647.171 43.0295 646.85 43.0295C644.341 43.0295 638.239 47.2852 630.44 54.5018C629.828 55.0739 628.714 54.1906 629.176 53.478C631.233 50.3966 632.889 47.3755 634.927 43.4912L636.412 44.2339C635.388 46.161 634.445 47.9075 633.501 49.5836C639.644 44.2941 644.291 41.4336 646.85 41.4336C648.115 41.4336 648.928 42.2366 648.928 43.4711C648.928 44.7057 647.944 47.2249 645.917 51.0992C651.075 46.7532 655.21 44.264 657.459 44.264C658.683 44.264 659.536 45.0971 659.536 46.2915C659.536 46.9941 659.034 48.2387 658.573 49.3729C658.111 50.5271 657.659 51.6011 657.609 52.2334C657.539 52.9059 657.94 53.2773 658.743 53.2773C661.122 53.2773 666.913 49.9349 674.912 44.1637L675.876 45.4584C667.505 51.4907 661.644 54.8731 658.743 54.8731C656.957 54.8731 655.773 53.6988 655.943 52.0929C656.033 51.2397 656.555 49.9349 657.017 48.7907C657.669 47.1948 657.87 46.6026 657.87 46.3015C657.87 45.9904 657.76 45.8699 657.459 45.8699C655.321 45.8699 649.941 49.5234 643.538 55.3951C642.906 55.9672 641.862 55.114 642.253 54.4114L642.273 54.4014Z" fill="#D5D7CF"/>
<path d="M675.053 53.6674C672.935 53.6674 671.711 52.6135 671.711 50.7366C671.711 46.9827 675.515 42.436 678.676 42.436C680.051 42.4159 680.925 43.1185 680.925 44.3831C680.925 46.6114 677.974 47.8961 674.431 47.4444C673.799 48.5184 673.387 49.6927 673.387 50.7265C673.387 51.67 673.829 52.0614 675.053 52.0614C680.011 52.0614 689.717 46.9426 693.43 44.1724L694.374 45.4571C690.59 48.2574 680.453 53.6573 675.053 53.6573V53.6674ZM675.515 45.9188C677.612 45.9891 679.248 45.3467 679.248 44.4735C679.248 44.1423 679.008 44.0318 678.676 44.0318C677.693 44.0318 676.518 44.8147 675.525 45.9288L675.515 45.9188Z" fill="#D5D7CF"/>
<path d="M686.402 54.2893C688.65 50.5555 689.744 48.9596 695.465 41.3917C696.388 40.1471 697.232 39.1836 698.115 39.1836C698.797 39.1836 699.299 39.6453 699.299 40.3378C699.299 41.472 697.372 43.2285 694.532 45.3664C692.825 47.6347 691.671 49.2106 690.768 50.5254C695.746 46.4203 698.356 45.1456 700.202 45.1456C701.467 45.1456 702.26 45.9285 702.26 47.173C702.26 47.8556 702.039 48.5481 701.828 49.1804C701.648 49.7726 701.457 50.3146 701.407 50.967C701.336 51.6395 701.718 52.0109 702.541 52.0109C704.026 52.0109 707.178 50.7161 711.564 48.3373C712.608 47.7853 713.31 49.2507 712.377 49.7525C707.72 52.2819 704.358 53.6168 702.541 53.6168C700.724 53.6168 699.57 52.4425 699.741 50.8365C699.831 50.0236 700.052 49.3009 700.263 48.6987C700.524 47.8857 700.594 47.5444 700.594 47.1931C700.594 46.8017 700.283 46.7615 699.961 46.7615C698.326 46.7615 695.114 48.6786 687.857 55.1324C687.356 56.0056 685.95 55.1123 686.412 54.3194L686.402 54.2893Z" fill="#D5D7CF"/>
<path d="M732.148 53.5466C732.148 51.2682 735.802 44.6338 741.322 40.4082L742.326 41.6729C737.107 45.6776 733.825 51.6798 733.825 53.5567C733.825 53.9983 733.955 54.1489 734.306 54.1489C736.093 54.1489 740.639 50.6058 743.239 47.3036C743.41 47.0627 743.57 46.8419 743.761 46.6211L743.801 46.5609C743.952 46.3702 744.102 46.2096 744.263 46.039L745.487 47.1531C744.092 48.5984 743.038 50.9069 743.038 52.5329C743.038 53.0849 743.189 53.2556 743.56 53.2556C745.417 53.2556 749.612 49.843 750.134 45.517C749.15 44.9249 748.538 43.7706 749.171 43.2687C749.763 42.787 750.806 43.329 751.489 44.423C753.868 46.872 761.104 48.0062 766.654 44.2022L767.578 45.4669C762.118 49.2307 755.122 48.7489 751.619 46.5609C750.616 50.5857 746.681 54.8615 743.56 54.8615C742.225 54.8615 741.372 53.9481 741.372 52.5429C741.372 52.2318 741.412 51.8705 741.462 51.5392C739.104 53.6972 736.263 55.7548 734.316 55.7548C733.022 55.7548 732.158 54.8816 732.158 53.5667L732.148 53.5466Z" fill="#D5D7CF"/>
<path d="M763.846 50.5459C763.846 48.5084 764.759 46.4809 766.666 44.1222L767.961 45.1259C765.773 47.8359 765.512 49.3916 765.512 50.5459C765.512 51.4191 766.124 51.9711 767.068 51.9711C770.801 51.9711 778.098 48.6088 783.789 44.1925L784.832 45.4571C778.821 50.0942 771.213 53.567 767.068 53.567C765.191 53.567 763.836 52.3024 763.836 50.5459H763.846ZM767.73 39.0033C767.62 38.5918 767.79 38.1101 768.172 37.7989C768.245 37.7521 768.319 37.6952 768.393 37.6283C768.393 37.6283 768.413 37.6082 768.322 37.6082C768.262 37.2368 768.503 36.8253 768.864 36.6647C769.567 36.2532 770.35 36.2532 770.741 36.5744C771.243 36.8354 771.293 37.4476 770.962 38.2104C770.631 38.8929 769.677 39.6056 768.493 39.6056C768.031 39.6056 767.79 39.4048 767.73 39.0134V39.0033Z" fill="#D5D7CF"/>
<path d="M771.562 31.5355C777.443 30.0901 786.135 29.1567 794.636 28.7853C801.893 19.2803 808.627 12.5254 811.839 12.5254C812.843 12.5254 813.565 13.1778 813.565 14.1413C813.565 16.3696 809.611 21.4884 802.685 28.5846C809.721 28.5444 815.884 28.9158 819.276 29.6987C821.946 30.3109 822.949 31.6057 823.06 33.5429L821.313 33.9142C821.183 32.499 820.641 31.6659 818.915 31.2745C815.352 30.4715 808.647 30.0701 801.15 30.1202C796.784 34.4863 791.424 39.5149 785.242 45.0051C776.871 58.5049 769.856 73.1288 769.856 81.5699C769.856 82.7944 770.207 83.3565 770.538 83.778C771.211 84.591 769.966 85.3538 769.314 84.7817C769.133 84.6111 768.18 83.9286 768.18 81.5699C768.18 72.918 775.326 57.9729 783.957 44.2022L783.827 44.0717C783.977 43.9412 784.138 43.7906 784.288 43.6602C787.239 38.9628 790.361 34.4362 793.422 30.331C785.473 30.7024 777.494 31.5957 772.004 33.041C771.02 33.302 770.558 31.7563 771.542 31.5154L771.562 31.5355ZM788.564 39.8361C792.368 36.3833 795.8 33.1313 798.791 30.1604C797.637 30.1805 796.473 30.2206 795.278 30.2708C793.07 33.2217 790.802 36.4536 788.564 39.826V39.8361ZM796.473 28.7151C797.768 28.6548 799.072 28.6247 800.357 28.6047C807.593 21.3278 811.899 16.0785 811.899 14.3822C811.899 14.2116 811.829 14.1213 811.618 14.1213C808.968 14.1213 803.047 20.1134 796.473 28.7151Z" fill="#D5D7CF"/>
<path d="M795.651 53.7189C801.402 31.8483 828.43 3.43359 846.135 3.43359C849.497 3.43359 851.464 5.09973 851.464 8.00043C851.464 16.6523 820.13 35.6624 800.368 45.5187C799.495 47.4157 798.712 49.2826 798.09 51.1595C802.726 47.2953 807.424 44.6455 809.852 44.6455C811.147 44.6455 811.99 45.3882 811.99 46.6529C811.99 49.0618 809.782 52.5145 809.722 53.6186C809.662 54.3011 810.113 54.7126 810.926 54.7126C812.321 54.7126 815.292 53.2472 819.518 50.4971C820.441 49.9049 821.244 51.3101 820.441 51.832C815.894 54.7829 812.723 56.3085 810.916 56.3085C809.11 56.3085 807.925 55.1241 808.036 53.5082C808.166 51.8721 810.304 48.6603 810.304 46.8436C810.304 46.412 810.103 46.2514 809.712 46.2514C807.594 46.2514 802.044 49.664 797.186 54.1004C796.945 55.0438 795.39 54.7528 795.641 53.729L795.651 53.7189ZM801.562 43.0998C828.049 29.7205 849.808 13.9925 849.808 8.00043C849.808 6.03318 848.604 5.02948 846.155 5.02948C832.565 5.02948 811.518 23.8488 801.572 43.0998H801.562Z" fill="#D5D7CF"/>
<path d="M852.217 61.7975C852.217 60.2217 852.327 58.5455 852.568 56.769C853.01 53.517 853.903 50.1044 855.148 46.6115C851.545 48.3981 848.393 49.4921 846.014 49.6226C844.7 49.6929 843.676 48.8397 843.676 47.565C843.676 45.0357 846.757 42.6971 850.641 42.6971C852.257 42.6971 854.154 43.0484 855.86 44.574C855.88 44.574 855.92 44.5539 855.93 44.5339C864.13 23.667 884.013 1.45508 893.126 1.45508C895.665 1.45508 897.653 3.51266 897.653 6.19254C897.653 15.2459 873.896 36.5444 857.285 45.5275C855.78 49.442 854.726 53.3263 854.244 56.9998C854.024 58.7061 853.913 60.3421 853.913 61.8276C853.913 66.7658 855.097 70.349 857.275 71.8144C858.068 72.3564 857.145 73.6713 856.352 73.1494C853.622 71.3628 852.227 67.2877 852.227 61.8075L852.217 61.7975ZM845.914 48.0167C848.142 47.9063 851.023 46.9428 854.284 45.3669C852.909 44.4034 851.725 44.293 850.33 44.293C847.69 44.293 845.352 45.9491 845.352 47.555C845.352 47.8862 845.533 48.0368 845.904 48.0167H845.914ZM858.159 43.3194C874.237 34.1355 895.986 14.0314 895.986 6.17247C895.986 4.38588 894.742 3.03089 893.126 3.03089C884.926 3.03089 866.469 23.416 858.159 43.3094V43.3194Z" fill="#D5D7CF"/>
<path d="M864.5 56.0567C865.724 53.8686 869.9 45.3071 871.335 40.7402L872.931 41.222C872.409 42.8882 871.556 44.9859 870.632 47.1037C873.061 44.3736 875.621 42.6874 877.778 42.6874C879.525 42.6874 880.398 43.9119 881.06 44.8554C881.803 45.9093 882.415 46.7323 883.881 46.7323C885.567 46.7323 888.758 45.6383 891.137 44.193L892.141 45.4576C889.521 47.0535 885.888 48.3382 883.881 48.3382C881.522 48.3382 880.488 46.8528 879.705 45.7788C879.033 44.8554 878.632 44.2933 877.778 44.2933C874.958 44.2933 870.432 48.6193 867.24 54.3203C866.738 55.324 866.317 56.1571 865.996 56.7693L864.51 56.0667L864.5 56.0567Z" fill="#D5D7CF"/>
<path d="M891.248 53.6674C889.131 53.6674 887.906 52.6135 887.906 50.7366C887.906 46.9827 891.71 42.436 894.872 42.436C896.247 42.4159 897.12 43.1185 897.12 44.3831C897.12 46.6114 894.169 47.8961 890.626 47.4444C889.994 48.5184 889.582 49.6927 889.582 50.7265C889.582 51.67 890.024 52.0614 891.248 52.0614C896.207 52.0614 905.912 46.9426 909.625 44.1724L910.569 45.4571C906.785 48.2574 896.648 53.6573 891.248 53.6573V53.6674ZM891.71 45.9188C893.808 45.9891 895.444 45.3467 895.444 44.4735C895.444 44.1423 895.203 44.0318 894.872 44.0318C893.888 44.0318 892.714 44.8147 891.72 45.9288L891.71 45.9188Z" fill="#D5D7CF"/>
<path d="M907.617 47.5951C907.617 45.0357 910.739 42.6971 914.041 42.7272C915.616 42.7472 916.56 43.0785 917.513 43.6506L916.59 44.9855C915.827 44.5238 915.235 44.3331 914.051 44.313C911.652 44.2929 909.303 45.9691 909.303 47.575C909.303 47.8862 909.474 48.0367 909.976 48.0568C912.595 48.1672 919.942 44.6944 922.06 42.4662C922.1 42.4261 922.11 42.3959 922.15 42.3558C922.24 42.2655 922.321 42.1551 922.391 42.0547L923.766 42.948C923.676 43.0985 923.545 43.2491 923.415 43.3896C920.594 46.6717 918.587 50.4255 918.607 52.3526C918.627 53.3563 919.109 53.8582 920.053 53.8582C923.636 53.8582 931.564 49.7531 938.781 44.1725L939.805 45.4372C934.034 49.8936 924.86 55.4641 920.053 55.4641C918.176 55.4641 916.951 54.2597 916.931 52.3627C916.911 50.8973 917.744 48.7393 919.139 46.4609C915.907 48.2475 911.943 49.743 909.896 49.6527C908.561 49.5925 907.627 48.7996 907.627 47.575L907.617 47.5951Z" fill="#D5D7CF"/>
<path d="M946.371 54.4014C949.713 48.4595 951.359 44.786 951.359 43.4711C951.359 43.0997 951.269 43.0295 950.948 43.0295C948.439 43.0295 942.336 47.2852 934.538 54.5018C933.926 55.0739 932.812 54.1906 933.273 53.478C935.331 50.3966 936.987 47.3755 939.024 43.4912L940.51 44.2339C939.486 46.161 938.542 47.9075 937.599 49.5836C943.741 44.2941 948.388 41.4336 950.948 41.4336C952.212 41.4336 953.025 42.2366 953.025 43.4711C953.025 44.7057 952.042 47.2249 950.014 51.0992C955.173 46.7532 959.308 44.264 961.556 44.264C962.781 44.264 963.634 45.0971 963.634 46.2915C963.634 46.9941 963.132 48.2387 962.67 49.3729C962.209 50.5271 961.757 51.6011 961.707 52.2334C961.637 52.9059 962.038 53.2773 962.841 53.2773C965.22 53.2773 971.011 49.9349 979.01 44.1637L979.974 45.4584C971.603 51.4907 965.742 54.8731 962.841 54.8731C961.055 54.8731 959.87 53.6988 960.041 52.0929C960.131 51.2397 960.653 49.9349 961.115 48.7907C961.767 47.1948 961.968 46.6026 961.968 46.3015C961.968 45.9904 961.857 45.8699 961.556 45.8699C959.419 45.8699 954.039 49.5234 947.636 55.3951C947.003 55.9672 945.96 55.114 946.351 54.4114L946.371 54.4014Z" fill="#D5D7CF"/>
<path d="M963.602 65.1201C963.602 62.2094 969.202 58.5158 977.472 55.6954C978.215 55.4344 978.958 55.2136 979.68 54.9928C979.7 54.6816 979.72 54.3805 979.72 54.0694C979.72 51.9315 979.409 49.9442 979.108 47.9669C978.807 46.09 978.516 44.203 978.516 42.306C978.516 38.2009 982.099 34.5273 986.053 34.5273C987.499 34.5273 988.593 35.4708 988.593 36.7355C988.593 39.0038 985.943 41.7138 980.393 45.2167C980.503 46.0297 980.634 46.8528 980.764 47.7059C981.065 49.6932 981.396 51.8111 981.396 54.0694V54.511C985.923 53.3066 990.329 52.7144 993.832 52.875L993.762 54.4709C990.249 54.3002 985.833 54.9326 981.256 56.2173C980.343 63.1227 975.003 68.081 968.098 68.081C965.448 68.081 963.622 66.9067 963.622 65.1301L963.602 65.1201ZM968.078 66.4751C973.889 66.4751 978.395 62.4703 979.479 56.7292C978.998 56.8797 978.496 57.0403 978.014 57.211C970.717 59.6801 965.278 63.1729 965.278 65.1201C965.278 65.903 966.331 66.4751 968.078 66.4751ZM980.212 43.4C984.688 40.4692 986.917 38.2009 986.917 36.7154C986.917 36.3641 986.605 36.1032 986.043 36.1032C983.022 36.1032 980.182 39.054 980.182 42.2859C980.182 42.6573 980.202 43.0287 980.222 43.4H980.212Z" fill="#D5D7CF"/>
<path d="M1002.56 53.497C1002.26 54.3501 1001.17 56.2973 1000.38 57.3612C999.834 58.0839 998.78 57.4516 999.393 56.6887C999.804 56.1869 1000.38 55.2936 1000.9 54.2598C1000.51 54.1695 1000.27 53.778 1000.35 53.2962C1000.44 52.5736 1000.98 52.0918 1001.66 52.0918C1002.34 52.0918 1002.75 52.5234 1002.66 53.1356C1002.64 53.246 1002.62 53.3565 1002.57 53.507L1002.56 53.497Z" fill="#D5D7CF"/>
<path d="M0.359375 133.392C1.08201 133.111 3.06925 132.349 5.18698 131.485C7.04374 130.723 9.01092 129.89 10.3056 129.217C12.4635 123.245 16.7692 115.597 22.6707 108.932C35.7384 94.1377 48.8261 85.5762 58.4411 85.5762C62.0242 85.5762 64.1218 87.3628 64.1218 90.4441C64.1218 95.1816 56.1729 102.81 41.2585 112.606C31.7538 118.839 20.3623 125.634 11.6907 130.261C10.8777 132.64 10.4461 134.677 10.4461 136.223C10.4461 137.879 10.948 138.561 11.8914 138.561C13.9188 138.561 15.7354 136.634 16.9599 134.537C16.3276 133.643 15.9964 132.529 15.9964 131.234C15.9964 129.227 17.1104 127.972 18.646 127.972C19.7802 127.972 20.2619 128.715 20.2619 129.739C20.2619 130.763 19.7601 132.489 18.8668 134.236C19.72 134.978 21.0247 135.37 22.751 135.37C28.7629 135.37 36.6216 131.064 38.3479 129.317L39.3114 130.582C37.4345 132.479 29.2146 136.966 22.751 136.966C20.8039 136.966 19.2081 136.504 18.0539 135.671C16.5283 138.07 14.2902 140.177 11.6706 140.177C9.81384 140.177 8.77004 138.752 8.77004 136.243C8.77004 134.928 9.07114 133.252 9.62315 131.365C8.48901 131.887 7.17422 132.439 5.88954 132.981C3.72163 133.854 1.69424 134.637 0.951534 134.908L0.359375 133.423V133.392ZM12.5037 128.083C20.7437 123.516 31.3624 117.173 40.3251 111.261C54.557 101.886 62.4457 94.4087 62.4457 90.4341C62.4457 88.2661 61.1109 87.1721 58.4311 87.1721C49.3881 87.1721 36.6617 95.563 23.9253 109.986C18.6561 115.958 14.7017 122.623 12.4936 128.083H12.5037ZM17.8632 132.69C18.3249 131.576 18.5858 130.552 18.5858 129.91C18.5858 129.649 18.5156 129.558 18.3449 129.558C18.084 129.558 17.6625 130.08 17.6625 131.224C17.6625 131.766 17.7327 132.248 17.8632 132.69Z" fill="#D5D7CF"/>
<path d="M38.4984 138.751C36.3807 138.751 35.1562 137.697 35.1562 135.821C35.1562 132.067 38.9601 127.52 42.1216 127.52C43.4967 127.5 44.3698 128.202 44.3698 129.467C44.3698 131.695 41.4191 132.98 37.8762 132.528C37.2439 133.602 36.8324 134.777 36.8324 135.811C36.8324 136.754 37.274 137.145 38.4984 137.145C43.4565 137.145 53.1619 132.027 56.8754 129.256L57.8189 130.541C54.0351 133.341 43.8981 138.741 38.4984 138.741V138.751ZM38.9601 131.013C41.0578 131.083 42.6937 130.441 42.6937 129.567C42.6937 129.236 42.4529 129.126 42.1216 129.126C41.1381 129.126 39.9638 129.909 38.9702 131.023L38.9601 131.013Z" fill="#D5D7CF"/>
<path d="M54.8711 132.689C54.8711 130.129 57.9925 127.791 61.2945 127.821C62.8703 127.841 63.8137 128.172 64.7672 128.744L63.8438 130.079C63.081 129.618 62.4889 129.427 61.3046 129.407C58.9058 129.387 56.5572 131.063 56.5572 132.669C56.5572 132.98 56.7279 133.13 57.2297 133.151C59.8492 133.261 67.196 129.788 69.3137 127.56C69.3539 127.52 69.3639 127.49 69.4041 127.45C69.4944 127.359 69.5747 127.249 69.645 127.148L71.02 128.042C70.9296 128.192 70.7992 128.343 70.6687 128.483C67.8484 131.765 65.8411 135.519 65.8612 137.446C65.8812 138.45 66.363 138.952 67.3064 138.952C70.8895 138.952 78.8184 134.847 86.0347 129.266L87.0584 130.531C81.2874 134.987 72.114 140.558 67.3064 140.558C65.4296 140.558 64.2051 139.353 64.1851 137.456C64.165 135.991 64.998 133.833 66.3931 131.555C63.1613 133.341 59.1969 134.837 57.1494 134.746C55.8145 134.686 54.8811 133.893 54.8811 132.669L54.8711 132.689Z" fill="#D5D7CF"/>
<path d="M82.1992 135.338C82.1992 133.742 83.8352 131.384 86.9164 128.413L88.0706 129.567C85.4009 132.147 83.8753 134.264 83.8753 135.338C83.8753 135.71 84.0961 135.89 84.618 135.89C86.1938 135.89 95.307 130.189 96.8526 128.242L98.1474 129.246C98.1072 129.306 98.057 129.356 98.0169 129.417C95.849 132.056 94.0424 135.75 94.0424 137.526C94.0424 138.53 94.5242 139.032 95.5077 139.032C99.8134 139.032 108.887 134.656 115.892 129.346L116.966 130.531C109.89 135.88 100.265 140.628 95.5077 140.628C93.5908 140.628 92.3663 139.423 92.3663 137.526C92.3663 136.282 92.9986 134.465 93.9621 132.568C90.5998 134.907 86.2038 137.486 84.608 137.486C83.2129 137.486 82.1992 136.633 82.1992 135.328V135.338Z" fill="#D5D7CF"/>
<path d="M103.707 116.629C109.588 115.184 118.28 114.25 126.781 113.879C134.037 104.374 140.772 97.6191 143.983 97.6191C144.987 97.6191 145.71 98.2715 145.71 99.2351C145.71 101.463 141.755 106.582 134.83 113.678C141.866 113.638 148.028 114.01 151.421 114.792C154.09 115.405 155.094 116.699 155.204 118.637L153.458 119.008C153.327 117.593 152.785 116.76 151.059 116.368C147.496 115.565 140.792 115.164 133.294 115.214C128.929 119.58 123.569 124.609 117.386 130.099C109.016 143.599 102 158.223 102 166.664C102 167.888 102.352 168.45 102.683 168.872C103.355 169.685 102.111 170.448 101.458 169.875C101.278 169.705 100.324 169.022 100.324 166.664C100.324 158.012 107.47 143.067 116.102 129.296L115.971 129.165C116.122 129.035 116.282 128.884 116.433 128.754C119.384 124.057 122.505 119.53 125.566 115.425C117.617 115.796 109.638 116.689 104.148 118.135C103.165 118.396 102.703 116.85 103.686 116.609L103.707 116.629ZM120.719 124.93C124.522 121.477 127.955 118.225 130.946 115.254C129.792 115.274 128.627 115.314 127.433 115.365C125.225 118.315 122.957 121.547 120.719 124.92V124.93ZM128.617 113.809C129.912 113.749 131.217 113.718 132.502 113.698C139.738 106.422 144.044 101.172 144.044 99.476C144.044 99.3054 143.973 99.215 143.763 99.215C141.113 99.215 135.191 105.207 128.617 113.809Z" fill="#D5D7CF"/>
<path d="M129.664 133.302C129.383 131.927 130.457 130.16 132.414 128.293L133.709 129.297C132.093 131.003 131.3 132.338 131.43 133.061C131.501 133.472 131.611 133.542 132.002 133.542C135.214 133.542 139.931 129.678 141.417 128.102C141.507 127.862 141.607 127.621 141.678 127.42L143.233 127.972C142.711 129.327 141.788 131.886 140.413 135.229C148.412 132.077 154.535 129.939 156.602 129.287L157.305 130.551C155.137 131.234 148.342 133.673 139.62 137.216C136.188 145.386 130.567 157.019 122.678 166.825C112.752 179.151 101.632 185.444 89.7483 185.444C83.3851 185.444 78.5977 181.77 78.5977 176.752C78.5977 168.923 89.3669 159.528 110.153 148.799C119.687 143.881 129.865 139.484 138.305 136.082C139.028 134.315 139.66 132.719 140.202 131.364C137.884 133.151 134.612 135.128 132.012 135.128C130.808 135.128 129.915 134.446 129.674 133.292L129.664 133.302ZM89.7282 183.848C101.07 183.848 111.708 177.776 121.354 165.821C128.67 156.768 133.99 146.069 137.432 138.089C129.323 141.432 119.818 145.627 110.905 150.214C90.8022 160.572 80.2437 169.726 80.2437 176.762C80.2437 180.847 84.2683 183.848 89.7282 183.848Z" fill="#D5D7CF"/>
<path d="M172.098 132.689C172.098 130.129 175.219 127.791 178.521 127.821C180.097 127.841 181.04 128.172 181.994 128.744L181.07 130.079C180.308 129.618 179.715 129.427 178.531 129.407C176.132 129.387 173.784 131.063 173.784 132.669C173.784 132.98 173.954 133.13 174.456 133.151C177.076 133.261 184.423 129.788 186.54 127.56C186.58 127.52 186.59 127.49 186.631 127.45C186.721 127.359 186.801 127.249 186.872 127.148L188.247 128.042C188.156 128.192 188.026 128.343 187.895 128.483C185.075 131.765 183.068 135.519 183.088 137.446C183.108 138.45 183.59 138.952 184.533 138.952C188.116 138.952 196.045 134.847 203.261 129.266L204.285 130.531C198.514 134.987 189.341 140.558 184.533 140.558C182.656 140.558 181.432 139.353 181.412 137.456C181.392 135.991 182.225 133.833 183.62 131.555C180.388 133.341 176.423 134.837 174.376 134.746C173.041 134.686 172.108 133.893 172.108 132.669L172.098 132.689Z" fill="#D5D7CF"/>
<path d="M196.444 139.384C196.856 138.702 197.247 138.049 197.599 137.437C199.174 134.707 200.57 132.298 204.263 127.992L205.528 129.036C202.758 132.288 201.332 134.396 199.777 136.905C204.544 133.061 207.736 131.355 209.693 131.355C210.787 131.355 211.75 132.278 211.75 133.382C211.75 134.556 210.988 135.982 210.897 137.166C210.827 137.838 211.208 138.21 212.031 138.21C215.504 138.21 225.952 131.866 229.555 129.297L230.579 130.562C226.976 133.121 215.986 139.806 212.031 139.806C210.245 139.806 209.06 138.631 209.231 137.025C209.402 135.63 210.084 134.255 210.084 133.392C210.084 133.171 209.883 132.961 209.522 132.961C207.816 132.961 203.621 135.54 197.9 140.217C197.137 140.85 195.913 140.348 196.455 139.404L196.444 139.384Z" fill="#D5D7CF"/>
<path d="M236.092 146.881C236.092 145.306 236.202 143.63 236.443 141.853C236.885 138.601 237.778 135.188 239.023 131.696C235.419 133.482 232.268 134.576 229.889 134.707C228.575 134.777 227.551 133.924 227.551 132.649C227.551 130.12 230.632 127.781 234.516 127.781C236.132 127.781 238.029 128.132 239.735 129.658C239.755 129.658 239.795 129.638 239.805 129.618C248.005 108.751 267.888 86.5391 277.001 86.5391C279.54 86.5391 281.528 88.5966 281.528 91.2765C281.528 100.33 257.771 121.628 241.16 130.612C239.655 134.526 238.601 138.41 238.119 142.084C237.899 143.79 237.788 145.426 237.788 146.912C237.788 151.85 238.972 155.433 241.15 156.898C241.953 157.44 241.02 158.755 240.227 158.233C237.497 156.447 236.102 152.372 236.102 146.892L236.092 146.881ZM229.779 133.111C232.007 133 234.888 132.037 238.149 130.461C236.774 129.497 235.59 129.387 234.195 129.387C231.555 129.387 229.217 131.043 229.217 132.649C229.217 132.98 229.398 133.131 229.769 133.111H229.779ZM242.034 128.413C258.102 119.23 279.861 99.1255 279.861 91.2665C279.861 89.4799 278.617 88.1249 277.001 88.1249C268.801 88.1249 250.344 108.51 242.034 128.403V128.413Z" fill="#D5D7CF"/>
<path d="M271.741 138.751C269.623 138.751 268.398 137.697 268.398 135.821C268.398 132.067 272.202 127.52 275.364 127.52C276.739 127.5 277.612 128.202 277.612 129.467C277.612 131.695 274.661 132.98 271.118 132.528C270.486 133.602 270.075 134.777 270.075 135.811C270.075 136.754 270.516 137.145 271.741 137.145C276.699 137.145 286.404 132.027 290.118 129.256L291.061 130.541C287.277 133.341 277.14 138.741 271.741 138.741V138.751ZM272.202 131.013C274.3 131.083 275.936 130.441 275.936 129.567C275.936 129.236 275.695 129.126 275.364 129.126C274.38 129.126 273.206 129.909 272.212 131.023L272.202 131.013Z" fill="#D5D7CF"/>
<path d="M287.309 139.885C287.309 130.38 297.295 113.528 310.453 100.72C320.178 91.2555 329.643 85.9961 337.13 85.9961C340.914 85.9961 343.423 88.0035 343.423 91.0648C343.423 96.2639 337.391 102.848 325.478 110.948C313.896 118.797 299.383 126.224 291.303 130.4C289.818 134.023 288.985 137.265 288.985 139.885C288.985 142.153 289.838 143.378 291.393 143.378C296.422 143.378 305.836 138.138 317.087 129.286L318.131 130.55C306.549 139.664 296.954 144.973 291.404 144.973C288.864 144.973 287.319 143.026 287.319 139.885H287.309ZM292.347 128.061C300.647 123.755 313.825 116.87 324.554 109.613C335.936 101.915 341.757 95.6015 341.757 91.0648C341.757 88.9269 340.031 87.592 337.13 87.592C330.135 87.592 321.072 92.6807 311.607 101.865C303.287 109.924 296.261 119.7 292.337 128.051L292.347 128.061Z" fill="#D5D7CF"/>
<path d="M317.307 138.751C315.189 138.751 313.965 137.697 313.965 135.821C313.965 132.067 317.769 127.52 320.93 127.52C322.305 127.5 323.178 128.202 323.178 129.467C323.178 131.695 320.228 132.98 316.685 132.528C316.052 133.602 315.641 134.777 315.641 135.811C315.641 136.754 316.083 137.145 317.307 137.145C322.265 137.145 331.97 132.027 335.684 129.256L336.627 130.541C332.844 133.341 322.707 138.741 317.307 138.741V138.751ZM317.769 131.013C319.866 131.083 321.502 130.441 321.502 129.567C321.502 129.236 321.261 129.126 320.93 129.126C319.947 129.126 318.772 129.909 317.779 131.023L317.769 131.013Z" fill="#D5D7CF"/>
<path d="M333.687 132.629C333.687 130.1 336.788 127.782 340.11 127.782C341.285 127.782 342.298 127.962 343.152 128.374L342.339 129.769C341.726 129.508 341.004 129.377 340.11 129.377C337.702 129.377 335.363 131.034 335.363 132.629C335.363 132.961 335.534 133.111 335.975 133.111C339.037 133.111 346.925 129.307 348.26 127.41L349.816 127.962C349.294 129.297 348.371 131.857 347.036 135.169C355.095 131.957 361.308 129.769 363.365 129.116L363.887 130.642C361.719 131.325 354.904 133.743 346.163 137.266C342.73 145.437 337.12 157.039 329.251 166.815C319.325 179.141 308.204 185.434 296.321 185.434C289.958 185.434 285.16 181.76 285.16 176.742C285.16 168.913 295.929 159.519 316.715 148.789C326.22 143.891 336.407 139.455 344.888 136.022C345.811 133.814 346.564 131.867 347.156 130.301C343.854 132.509 338.615 134.697 335.965 134.697C334.631 134.697 333.687 133.864 333.687 132.619V132.629ZM296.321 183.848C307.662 183.848 318.301 177.776 327.946 165.822C335.243 156.778 340.572 146.109 344.005 138.15C335.895 141.452 326.411 145.627 317.498 150.214C297.395 160.572 286.836 169.726 286.836 176.762C286.836 180.847 290.861 183.848 296.321 183.848Z" fill="#D5D7CF"/>
<path d="M361.098 132.689C361.098 130.129 364.219 127.791 367.521 127.821C369.097 127.841 370.04 128.172 370.994 128.744L370.07 130.079C369.308 129.618 368.715 129.427 367.531 129.407C365.132 129.387 362.784 131.063 362.784 132.669C362.784 132.98 362.954 133.13 363.456 133.151C366.076 133.261 373.423 129.788 375.54 127.56C375.58 127.52 375.591 127.49 375.631 127.45C375.721 127.359 375.801 127.249 375.872 127.148L377.247 128.042C377.156 128.192 377.026 128.343 376.895 128.483C374.075 131.765 372.068 135.519 372.088 137.446C372.108 138.45 372.59 138.952 373.533 138.952C377.116 138.952 385.045 134.847 392.261 129.266L393.285 130.531C387.514 134.987 378.341 140.558 373.533 140.558C371.656 140.558 370.432 139.353 370.412 137.456C370.392 135.991 371.225 133.833 372.62 131.555C369.388 133.341 365.423 134.837 363.376 134.746C362.041 134.686 361.108 133.893 361.108 132.669L361.098 132.689Z" fill="#D5D7CF"/>
<path d="M385.445 139.384C385.856 138.702 386.247 138.049 386.599 137.437C388.174 134.707 389.57 132.298 393.263 127.992L394.528 129.036C391.758 132.288 390.332 134.396 388.777 136.905C393.544 133.061 396.736 131.355 398.693 131.355C399.787 131.355 400.75 132.278 400.75 133.382C400.75 134.556 399.988 135.982 399.897 137.166C399.827 137.838 400.208 138.21 401.031 138.21C404.504 138.21 414.952 131.866 418.555 129.297L419.579 130.562C415.976 133.121 404.986 139.806 401.031 139.806C399.245 139.806 398.061 138.631 398.231 137.025C398.402 135.63 399.084 134.255 399.084 133.392C399.084 133.171 398.884 132.961 398.522 132.961C396.816 132.961 392.621 135.54 386.9 140.217C386.137 140.85 384.913 140.348 385.455 139.404L385.445 139.384Z" fill="#D5D7CF"/>
<path d="M415.172 135.88C415.172 131.815 419.327 127.309 423.151 127.309C425.821 127.309 426.784 129.798 425.048 131.544L423.763 130.671C424.466 129.868 424.185 128.904 423.151 128.904C420.26 128.904 416.838 132.688 416.838 135.88C416.838 137.195 417.541 137.888 418.895 137.888C422.83 137.888 430.869 134.104 437.072 129.296L438.116 130.561C431.602 135.589 423.271 139.494 418.905 139.494C416.637 139.494 415.172 138.078 415.172 135.89V135.88Z" fill="#D5D7CF"/>
<path d="M437.323 138.751C435.205 138.751 433.98 137.697 433.98 135.82C433.98 132.066 437.523 127.52 440.946 127.52C442.321 127.52 443.194 128.202 443.194 129.467C443.194 131.695 440.243 132.98 436.7 132.528C436.068 133.602 435.657 134.776 435.657 135.81C435.657 136.754 436.098 137.145 437.333 137.145C439.189 137.145 441.94 136.402 445.352 134.957L445.984 136.442C442.441 137.948 439.41 138.741 437.333 138.741L437.323 138.751ZM437.784 131.012C439.882 131.083 441.518 130.44 441.518 129.547C441.518 129.236 441.217 129.115 440.946 129.115C439.942 129.115 438.778 129.898 437.794 131.012H437.784Z" fill="#D5D7CF"/>
<path d="M455.319 138.29C455.47 137.617 456.112 137.105 456.784 137.105C457.457 137.105 457.918 137.627 457.748 138.29C457.577 138.922 456.915 139.474 456.283 139.474C455.6 139.474 455.168 138.922 455.319 138.29Z" fill="#D5D7CF"/>
</g>
<defs>
<clipPath id="clip0_1_4622">
<rect width="1002.67" height="185.444" fill="white"/>
</clipPath>
</defs>
</svg>
