<svg width="231" height="88" viewBox="0 0 231 88" fill="none" xmlns="http://www.w3.org/2000/svg">
<path d="M25.4871 41.8871L37.205 30.0634C37.205 30.0634 34.3031 29.843 31.7213 29.843C26.9481 29.843 26.7179 24.6426 16.7813 24.6426C9.5264 24.6426 5.48368 28.9812 5.48368 32.1275C5.48368 33.9712 4.86327 35.4943 8.39564 38.0895C11.908 40.6947 20.3136 44.382 20.3136 44.382C20.3136 44.382 16.4711 48.38 15.4404 49.4722C14.3997 50.5544 12.9487 51.5263 12.9487 53.8109C12.9487 57.4081 17.2016 58.5905 19.6832 58.5905C22.1649 58.5905 25.0668 57.2878 25.0668 53.2798C25.0668 49.2718 22.0648 48.9311 20.824 48.9311C19.6832 48.9311 17.7219 49.7929 17.7219 51.857C17.7219 54.7929 19.0728 55.0033 20.6238 55.0033C22.1749 55.0033 22.7853 53.9211 22.7853 53.3901C22.7853 52.859 22.4851 51.857 20.9241 51.857C19.363 51.857 18.6425 52.9492 18.6425 52.9492C18.6425 52.3981 18.8627 50.344 21.0241 50.344C23.1856 50.344 23.836 51.857 23.836 52.6285C23.836 53.4001 23.836 55.344 22.4851 56.2057C21.1442 57.0774 17.5018 57.2878 16.1609 55.885C14.82 54.4722 15.3303 52.1977 16.4711 51.1055C17.6218 50.0233 22.9054 45.374 22.9054 45.374C29.3297 48.8309 30.6706 50.6846 30.6706 53.2899C30.6706 55.8951 28.0789 60.2237 21.2443 60.2237C13.8793 60.2237 9.32627 56.1055 9.32627 53.4001C9.32627 50.6947 11.2776 48.841 11.2776 45.7949C11.2776 42.7488 8.69584 41.9973 6.83459 41.9973C4.97334 41.9973 2.6818 42.7588 2.6818 45.0434C2.6818 47.3279 5.07341 47.859 5.90397 47.859C6.73453 47.859 7.66515 47.3179 7.66515 46.3359C7.66515 45.354 6.83459 44.6025 5.80389 44.6025C4.7732 44.6025 3.94265 45.4742 3.94265 45.4742C3.94265 45.4742 4.15279 43.0794 6.64446 43.0794C8.926 43.0794 9.21619 44.4923 9.21619 45.2538C9.21619 46.0153 9.12613 47.1977 7.98536 48.9311C6.83459 50.6746 0 58.9111 0 58.9111H6.01404C7.86529 60.7448 12.7386 64.3419 21.2443 64.3419C29.75 64.3419 36.3644 60.6446 36.2544 53.3901C36.1643 46.1155 25.4871 41.8871 25.4871 41.8871ZM13.369 36.5664C11.8179 35.6947 10.8773 35.1736 10.8773 32.879C10.8773 30.5845 13.4691 28.6606 17.3016 28.6606C21.1342 28.6606 25.7073 30.9352 27.5685 32.5584C29.4298 34.1716 28.4992 35.374 28.4992 35.374L23.2156 41.2358C23.2156 41.2358 14.93 37.4382 13.369 36.5664Z" fill="#1D2088"/>
<path d="M89.1314 57.2873L74.7918 46.5659C79.7751 40.3334 83.6377 33.1991 84.7184 31.3955C86.3695 28.61 84.8385 27.2272 84.8385 27.2272C84.8385 27.2272 82.9472 25.5939 81.176 24.0709C79.4149 22.5478 78.7844 23.9506 78.7844 23.9506L77.5736 25.8444H46.6228V34.1711H70.8591C65.6456 51.2452 40.3086 64.1109 40.3086 64.1109L40.939 64.6119C56.0492 64.3714 61.5228 57.8184 66.276 54.7823L81.8065 66.2452L89.1214 57.2973L89.1314 57.2873Z" fill="#1D2088"/>
<path d="M121.061 55.2528V33.6596H134.52V25.834H97.565V33.6596H111.444V55.2528H95.4336V63.329H135.24C135.901 63.9502 136.551 64.351 136.551 63.6997V55.2528H121.071H121.061Z" fill="#1D2088"/>
<path d="M185.733 60.9355C182.091 56.5267 175.386 43.651 175.386 43.651L166.81 45.2842C167.651 47.6389 168.592 49.8634 169.582 51.9075C166.39 52.8694 160.006 54.6329 152.531 55.7151C164.519 45.8353 166.81 25.7051 166.81 25.7051H157.984C157.114 42.4586 148.748 53.691 146.527 56.3864C144.535 56.5467 142.494 56.6469 140.473 56.6469V66.4966C140.473 66.4966 166.82 59.7732 173.385 58.9716C176.147 63.5307 178.408 66.2261 178.408 66.2261L185.723 60.9255L185.733 60.9355Z" fill="#1D2088"/>
<path d="M217.307 49.3512C224.622 41.4153 230.036 33.0586 230.036 33.0586C230.036 33.0586 230.916 30.9143 229.525 29.6518C228.144 28.3893 225.483 26.5055 225.483 26.5055C225.483 26.5055 220.319 28.2891 215.976 28.7801H214.895V23.9805H204.919V28.7801H193.191V35.9744H215.866C213.915 39.8221 206.34 52.5676 188.918 59.5816C188.918 59.5816 196.373 59.9424 204.929 56.8863V67.0967H213.655V55.2229L224.122 63.6197L230.306 57.4374V56.2851C230.306 56.2851 222.651 55.3933 217.337 49.3412" fill="#1D2088"/>
<path d="M77.5213 5.09433C79.2925 5.09433 80.5233 5.78571 80.5233 6.79774C80.5233 7.19854 80.2131 7.90996 79.4426 7.90996C78.9923 7.90996 78.7822 7.69954 78.3619 7.2787C78.0317 6.96808 76.7108 5.85585 75.3398 5.39493C76.2104 5.20455 76.8208 5.08431 77.5113 5.08431M88.4587 3.95205C86.6474 8.932 83.1551 11.5573 80.1531 13.7316C80.033 13.8218 79.7028 14.1825 79.6127 14.2526C79.4726 14.413 79.3726 14.4931 79.1424 14.4931C78.8622 14.4931 76.8809 13.5512 76.8809 11.427C76.8809 11.0963 76.9209 10.9761 76.9809 10.7857C77.4312 11.5472 77.8315 11.8579 78.3419 11.8579C79.2625 11.8579 85.3466 7.94002 88.3186 3.89192L88.4587 3.94203V3.95205ZM78.7021 0.915977C80.1431 0.915977 81.8342 1.50716 81.8342 2.7296C81.8342 3.06026 81.6441 3.79173 80.7935 3.79173C80.3132 3.79173 80.083 3.55125 79.6828 3.10034C79.5727 2.9801 78.4119 1.75766 77.001 1.16648C77.4513 1.05626 77.9716 0.925995 78.7021 0.925995M88.0184 2.86988C88.0184 3.18051 87.8483 3.74163 87.2579 3.74163C86.9276 3.74163 86.8576 3.67148 86.3172 2.9801C85.4666 1.89794 84.9563 1.63742 84.456 1.39694C86.6775 1.25666 88.0184 2.1284 88.0184 2.86988ZM88.2485 0.204551C88.5987 0.294732 89.4093 0.495133 89.4093 1.38692C89.4093 1.59734 89.3793 2.15846 88.6788 2.15846C88.3286 2.15846 88.2085 1.96808 87.8582 1.54724C87.7682 1.44704 87.1978 0.785715 85.8569 0.0141719C87.1278 -0.0559683 87.9983 0.154451 88.2385 0.204551" fill="#231815"/>
<path d="M100.909 10.856C101.069 10.8359 101.739 10.6656 101.879 10.6656C102.4 10.6656 103.67 11.4872 103.67 12.1986C103.67 12.5794 103.27 12.7397 103.08 12.7397C102.89 12.7397 102.019 12.4892 101.849 12.4592C101.519 12.389 100.428 12.2287 99.0674 12.2287C96.7358 12.2287 94.7745 12.6796 93.7838 12.9702C93.5937 13.0203 92.8132 13.3409 92.6331 13.3409C92.0427 13.3409 91.082 12.1786 91.082 11.4572C91.082 11.2167 91.1721 11.0063 91.2922 10.6255C91.5524 11.0063 91.9026 11.5273 92.7732 11.5273C92.9633 11.5273 96.4056 11.1766 97.6264 11.0864C97.8566 9.90405 98.0467 8.46117 98.1668 6.78782C97.7465 6.85796 96.4256 7.15856 95.545 7.4792C95.445 7.50926 95.0047 7.68962 94.9146 7.68962C94.4643 7.68962 93.6638 6.83792 93.6638 5.99624C93.6638 5.78582 93.7138 5.57539 93.8039 5.31487C94.044 5.64553 94.3242 6.00625 95.1448 6.00625C95.3849 6.00625 97.3162 5.88602 98.0968 5.6255C98.2569 5.5754 98.8573 5.14453 98.9974 5.14453C99.3976 5.14453 100.819 6.29684 100.819 6.6776C100.819 6.89804 100.628 7.03832 100.388 7.23872C100.178 7.38902 100.108 7.45916 99.958 8.06036C99.8379 8.51126 99.3376 10.5654 99.2275 10.9862C99.4176 10.9862 100.598 10.896 100.909 10.8459" fill="#231815"/>
<path d="M115.949 5.46475C115.949 5.60503 115.709 6.19621 115.669 6.31645C115.629 6.57697 115.529 8.09 115.509 8.4908C115.469 9.06194 115.459 9.4427 115.409 10.0239C116.119 9.98379 118.921 9.7934 119.321 9.62306C119.692 9.46274 119.882 9.38258 120.102 9.38258C120.832 9.38258 122.323 10.2844 122.323 11.1962C122.323 11.6671 121.923 11.8575 121.643 11.8575C121.453 11.8575 120.602 11.6471 120.422 11.6371C118.801 11.3866 118.181 11.4066 117.68 11.4066C116.129 11.4066 113.217 11.4768 110.625 12.108C110.365 12.1782 109.074 12.6191 109.044 12.6191C108.384 12.6191 107.203 11.3665 107.203 10.1942C107.203 9.62306 107.343 9.32246 107.463 9.02186C108.024 10.084 108.214 10.4647 109.945 10.4647C110.796 10.4647 112.637 10.2744 113.557 10.1842C113.577 7.31846 113.557 5.81545 113.437 5.32447C113.367 5.03389 113.247 4.96375 113.127 4.8936C112.757 4.94371 111.966 5.03389 111.686 5.13409C111.216 5.29441 111.096 5.34451 110.936 5.34451C110.585 5.34451 109.355 4.6431 109.355 3.1401C109.355 3.06996 109.375 3.01986 109.405 2.90964C110.115 3.45072 110.495 3.50082 111.126 3.50082C112.307 3.50082 115.439 3.36054 116.81 2.9397C117.45 2.74932 117.59 2.69922 117.9 2.69922C118.461 2.69922 119.391 3.27036 119.391 3.88158C119.391 4.23228 119.061 4.57296 118.471 4.57296C117.32 4.57296 116.109 4.57297 115.028 4.67317C115.499 4.95373 115.929 5.21425 115.929 5.45473" fill="#231815"/>
<path d="M124.102 14.7025C125.262 13.6905 126.343 11.6564 126.763 10.5943C127.354 9.1514 127.754 7.00711 127.754 5.49409C127.754 4.41193 127.184 4.19148 126.293 3.92094C126.743 3.64038 127.194 3.3999 127.704 3.3999C128.555 3.3999 129.585 4.11132 129.845 4.35181C129.935 4.42195 130.086 4.58226 130.086 4.82274C130.086 4.91292 129.986 5.26363 129.825 5.55421C129.775 5.64439 129.475 7.44799 129.405 7.77865C129.075 9.39188 128.324 12.9089 124.172 14.8127L124.102 14.6925V14.7025ZM139.522 5.63437C138.491 9.44198 135.769 11.466 133.318 13.2596C133.088 13.44 132.637 13.7706 132.627 13.7807C132.507 13.8508 132.417 13.8809 132.297 13.8809C131.687 13.8809 130.816 12.3879 130.816 11.8067C130.816 11.5963 131.056 10.7446 131.096 10.5742C131.186 10.0131 131.306 6.91693 131.306 6.11533C131.306 5.78467 131.306 3.3498 130.956 2.76864C130.716 2.3478 130.116 2.18748 129.655 2.12736C129.865 1.95702 130.366 1.49609 130.926 1.49609C131.487 1.49609 133.568 2.27766 133.568 3.05922C133.568 3.1995 133.328 3.72054 133.288 3.84078C132.988 4.69248 132.867 8.17946 132.867 8.26964C132.847 8.62034 132.777 10.474 132.777 10.5843C132.777 10.7045 132.807 10.7746 132.917 10.7746C133.698 10.7746 137.611 8.03917 139.422 5.55421L139.522 5.62435V5.63437Z" fill="#231815"/>
<path d="M142.153 14.7026C147.156 12.3479 151.019 4.99318 151.019 4.59238C151.019 4.54228 150.999 4.5022 150.929 4.5022C150.909 4.5022 148.977 4.83286 148.807 4.88296C148.527 4.9531 148.477 4.9531 148.377 4.9531C148.117 4.9531 147.787 4.71262 147.606 4.5523C145.625 6.86693 144.845 7.78877 142.463 8.82084L142.393 8.68056C145.055 6.01523 146.776 2.51824 146.776 2.11744C146.776 1.57635 146.075 1.24569 145.575 1.00521C145.815 0.925051 146.216 0.764729 146.726 0.764729C147.316 0.764729 148.167 1.09539 148.847 1.58637C149.458 2.02725 149.468 2.17756 149.468 2.43808C149.468 2.60842 149.418 2.65852 149.178 2.86894C148.917 3.08938 148.567 3.46012 148.327 3.74068C149.127 3.76072 150.869 3.69058 151.539 3.17956C151.649 3.10942 152.029 2.79879 152.15 2.79879C152.29 2.79879 153.47 3.77074 153.711 3.96112C154.141 4.32184 154.201 4.36192 154.201 4.5523C154.201 4.903 153.941 5.02324 153.31 5.3038C153.1 5.404 153.05 5.47415 152.75 5.99519C151.069 8.99118 149.678 10.8349 147.426 12.398C145.675 13.6204 143.414 14.6224 142.173 14.8329L142.133 14.6926L142.153 14.7026ZM155.081 2.6986C155.081 3.16954 154.701 3.44008 154.441 3.44008C154.151 3.44008 154.021 3.26974 153.49 2.56833C152.57 1.40601 152.12 1.19559 151.679 0.985171C152.98 0.88497 155.092 1.47615 155.092 2.68858M156.873 1.90701C156.873 2.35791 156.663 2.72865 156.182 2.72865C155.942 2.72865 155.852 2.65851 155.542 2.20761C154.881 1.21563 154.641 0.834868 153.35 0.243686C155.302 0.123446 156.883 0.83487 156.883 1.91703" fill="#231815"/>
<path d="M161.108 14.7933C162.809 13.7311 164.34 12.5688 165.751 10.6149C166.441 9.64296 167.662 7.67903 167.922 6.14597C166.131 6.16601 163.069 6.85739 162.128 7.22813C161.398 7.5087 161.328 7.53876 161.178 7.53876C160.467 7.53876 159.477 6.19607 159.477 5.22413C159.477 4.80329 159.637 4.5628 159.777 4.32232C160.257 5.35439 160.837 5.52473 161.848 5.52473C162.579 5.52473 167.462 5.03375 168.312 4.65299C168.433 4.60289 168.943 4.30228 169.063 4.25218C169.173 4.2121 169.253 4.2121 169.323 4.2121C169.653 4.2121 170.434 4.96361 170.764 5.31431C171.194 5.74517 171.254 5.81531 171.254 6.04577C171.254 6.25619 171.164 6.35639 170.744 6.60689C170.344 6.83735 170.274 6.93756 169.804 7.87944C168.923 9.62292 168.082 11.2762 165.891 12.9396C164.57 13.9516 163.129 14.5227 161.178 14.9436L161.108 14.8033V14.7933ZM163.029 1.8574C164.75 1.8574 166.311 1.50669 166.701 1.40649C167.362 1.21611 167.552 1.16602 167.912 1.16602C168.643 1.16602 169.934 1.53676 169.934 2.32834C169.934 2.9596 169.183 3.02974 168.583 3.02974C167.192 3.02974 166.531 3.02974 164.67 3.29026C164.34 3.34036 162.649 3.64096 162.519 3.64096C162.088 3.64096 160.988 2.94958 160.988 1.70709C160.988 1.51671 161.028 1.37644 161.108 1.18606C161.608 1.67704 162.048 1.86742 163.039 1.86742" fill="#231815"/>
<path d="M177.268 1.30664C178.639 1.30664 180.761 1.72748 180.761 3.44091C180.761 4.21245 180.17 4.73349 179.56 4.73349C179.14 4.73349 179.049 4.62327 178.259 3.69141C177.498 2.76957 176.588 1.90784 175.457 1.5371C175.947 1.42688 176.468 1.30664 177.268 1.30664ZM188.035 2.84973C186.364 7.61926 183.693 9.72347 179.54 12.8597C179.49 12.9098 179.049 13.2906 178.949 13.4008C178.809 13.5211 178.669 13.6513 178.449 13.6513C177.558 13.6513 175.927 11.8377 175.927 10.495C175.927 10.1443 176.027 9.92387 176.147 9.64331C176.458 10.1844 177.018 10.9159 177.588 10.9159C178.249 10.9159 184.173 7.77958 187.895 2.78961L188.035 2.85974V2.84973Z" fill="#231815"/>
<path d="M83.885 86.6462L83.9751 84.5219H84.9057L85.406 86.8065L84.6255 86.7163V86.1251C85.316 86.5861 85.9164 86.8065 86.797 86.8065C88.1078 86.8065 88.8083 86.2955 88.8083 85.3837C88.8083 84.6622 88.4581 84.1813 87.1472 83.7905L86.2366 83.4799C84.8156 83.029 83.9651 82.2274 83.9651 80.8947C83.9651 79.2915 85.2159 78.1191 87.4674 78.1191C88.5181 78.1191 89.3087 78.3696 90.2293 78.8506L90.1292 80.8045H89.2986L88.6682 78.6201L89.3587 78.8406V79.3416C88.6982 78.9007 88.2379 78.7103 87.5074 78.7103C86.4167 78.7103 85.7663 79.2514 85.7663 80.0831C85.7663 80.7444 86.1465 81.2153 87.3874 81.5961L88.298 81.8867C89.9891 82.4278 90.6996 83.2694 90.6996 84.552C90.6996 86.2955 89.3187 87.4077 86.9371 87.4077C85.7362 87.4077 84.8156 87.1472 83.875 86.6462H83.885Z" fill="#231815"/>
<path d="M94.3409 83.2995V82.1071C94.3409 81.015 94.3209 80.3035 94.2909 79.522L93 79.4118V79.011L96.3923 78.1492L96.6024 78.2895L96.5424 80.8045V83.3095C96.5424 84.4418 96.5624 86.3256 96.6024 87.1472H94.2909C94.3209 86.3256 94.3409 84.4418 94.3409 83.3095V83.2995ZM93.1401 86.6462L94.8813 86.4759H95.8919L97.6531 86.6462V87.1372H93.1401V86.6462ZM94.1007 75.2234C94.1007 74.542 94.6611 74.041 95.3416 74.041C96.022 74.041 96.5924 74.552 96.5924 75.2234C96.5924 75.9348 96.032 76.4258 95.3416 76.4258C94.6511 76.4258 94.1007 75.9348 94.1007 75.2234Z" fill="#231815"/>
<path d="M101.218 83.2995V82.067C101.218 80.9849 101.198 80.3536 101.158 79.562L99.8867 79.4518V79.051L103.089 78.1492L103.299 78.2895L103.419 80.1432V83.2995C103.419 84.4318 103.439 86.3155 103.469 87.1372H101.158C101.198 86.3155 101.218 84.4318 101.218 83.2995ZM100.007 86.6462L101.728 86.4758H102.759L104.49 86.6462V87.1372H100.007V86.6462ZM106.821 83.2995V81.0951C106.821 79.7123 106.401 79.2213 105.571 79.2213C104.9 79.2213 103.889 79.7123 102.899 80.8746L102.819 80.1833H103.069C104.29 78.6302 105.34 78.1191 106.521 78.1191C108.032 78.1191 109.023 79.0811 109.023 81.2454V83.2995C109.023 84.4718 109.053 86.3155 109.083 87.1372H106.781C106.811 86.3155 106.831 84.4718 106.831 83.2995H106.821ZM105.651 86.6462L107.342 86.4758H108.362L110.124 86.6462V87.1372H105.641V86.6462H105.651Z" fill="#231815"/>
<path d="M112.473 82.8987C112.473 79.7925 114.644 78.1191 117.196 78.1191C118.877 78.1191 120.188 79.1612 120.448 80.564C120.298 81.0851 119.978 81.3255 119.487 81.3255C118.877 81.3255 118.417 80.9949 118.347 79.9929L118.056 78.4698L119.167 79.1913C118.537 78.8205 118.026 78.6702 117.456 78.6702C115.925 78.6702 114.794 80.1231 114.794 82.5981C114.794 85.073 115.985 86.3556 117.786 86.3556C118.737 86.3556 119.537 85.9247 120.148 85.1432L120.438 85.3536C119.667 86.7264 118.597 87.3877 116.856 87.3877C114.404 87.3877 112.473 85.7744 112.473 82.8787V82.8987Z" fill="#231815"/>
<path d="M122.852 82.7484C122.852 79.8025 124.933 78.1191 127.255 78.1191C129.576 78.1191 130.947 79.7123 130.947 81.7264C130.947 82.1272 130.917 82.4278 130.837 82.7183H123.812V82.1572H127.985C128.675 82.1572 128.886 81.8165 128.886 80.9147C128.886 79.4819 128.215 78.6702 127.184 78.6702C126.084 78.6702 125.183 79.8626 125.183 82.5179C125.183 85.1732 126.424 86.3656 128.115 86.3656C129.266 86.3656 130.026 85.9047 130.607 85.1332L130.897 85.3536C130.207 86.6662 128.996 87.4177 127.375 87.4177C124.733 87.4177 122.862 85.7845 122.862 82.7584L122.852 82.7484Z" fill="#231815"/>
<path d="M139.461 86.6452L142.043 86.3646H144.074L146.476 86.6452V87.1361H139.471V86.6452H139.461ZM141.913 83.3085V76.6051L139.831 76.8556V76.2844L143.964 75.3125L144.194 75.4929L144.124 78.1281V83.3185C144.124 84.571 144.144 85.8736 144.184 87.1562H141.853C141.883 85.8736 141.903 84.571 141.903 83.3185L141.913 83.3085Z" fill="#231815"/>
<path d="M150.468 86.9876C154.04 85.7451 155.581 83.6209 155.581 79.8634C155.581 76.8373 154.801 75.7752 153.65 75.7752C152.619 75.7752 151.729 76.7371 151.729 78.8013C151.729 80.7351 152.609 81.8774 153.98 81.8774C154.721 81.8774 155.291 81.5968 155.882 81.0357L156.162 81.166H156.052C155.511 81.9876 154.531 82.5788 153.13 82.5788C151.038 82.5788 149.527 81.3063 149.527 79.0718C149.527 76.7071 151.419 75.2441 153.62 75.2441C156.292 75.2441 157.803 77.0077 157.803 80.0838C157.803 83.7912 155.001 86.5267 150.548 87.4485L150.458 86.9876H150.468Z" fill="#231815"/>
<path d="M160.598 84.7331C160.598 83.3103 161.768 82.3183 163.91 81.5868V81.4566L164.15 81.7071C162.849 82.5988 162.429 83.4606 162.429 84.6229C162.429 85.9355 163.249 86.8574 164.54 86.8574C165.831 86.8574 166.572 85.9455 166.572 84.8534C166.572 83.7612 165.871 82.8293 163.68 81.8674C161.798 81.0457 160.888 79.8834 160.888 78.3904C160.888 76.4666 162.499 75.2441 164.64 75.2441C166.922 75.2441 168.063 76.3764 168.063 77.8293C168.063 78.9115 167.282 79.9035 164.991 80.7451V80.8353L164.79 80.6049C166.001 79.6029 166.372 78.8514 166.372 77.7792C166.372 76.7071 165.721 75.7952 164.58 75.7952C163.6 75.7952 162.739 76.5167 162.739 77.679C162.739 78.681 163.239 79.5728 165.381 80.5247C167.562 81.4766 168.543 82.6389 168.543 84.2321C168.543 86.176 166.962 87.4185 164.36 87.4185C161.758 87.4185 160.598 86.3363 160.598 84.7431V84.7331Z" fill="#231815"/>
<path d="M171.324 84.6925C171.484 84.2617 171.855 84.0412 172.255 84.0412C172.835 84.0412 173.175 84.3519 173.276 85.1935L173.616 86.8869L173.065 86.4561C173.576 86.7366 173.936 86.8468 174.586 86.8468C176.198 86.8468 177.218 85.7547 177.218 83.8609C177.218 81.9671 176.268 80.9751 174.747 80.9751C174.046 80.9751 173.456 81.0653 172.835 81.2957L172.385 81.0152L172.765 75.4941H179.139V77.2176H173.075L173.456 75.9851L173.115 80.945L172.495 80.7547C173.416 80.3238 174.286 80.1735 175.287 80.1735C177.909 80.1735 179.54 81.3859 179.54 83.6605C179.54 86.0653 177.658 87.408 174.947 87.408C172.835 87.408 171.504 86.3859 171.324 84.6925Z" fill="#231815"/>
</svg>
