<svg width="231" height="88" viewBox="0 0 231 88" fill="none" xmlns="http://www.w3.org/2000/svg">
<path d="M25.47 41.794L37.18 29.994C37.18 29.994 34.28 29.774 31.7 29.774C26.93 29.774 26.7 24.584 16.77 24.584C9.52 24.584 5.48 28.914 5.48 32.054C5.48 33.894 4.86 35.414 8.39 38.004C11.9 40.604 20.3 44.284 20.3 44.284C20.3 44.284 16.46 48.274 15.43 49.364C14.39 50.444 12.94 51.414 12.94 53.694C12.94 57.284 17.19 58.464 19.67 58.464C22.15 58.464 25.05 57.164 25.05 53.164C25.05 49.164 22.05 48.824 20.81 48.824C19.67 48.824 17.71 49.684 17.71 51.744C17.71 54.674 19.06 54.884 20.61 54.884C22.16 54.884 22.77 53.804 22.77 53.274C22.77 52.744 22.47 51.744 20.91 51.744C19.35 51.744 18.63 52.834 18.63 52.834C18.63 52.284 18.85 50.234 21.01 50.234C23.17 50.234 23.82 51.744 23.82 52.514C23.82 53.284 23.82 55.224 22.47 56.084C21.13 56.954 17.49 57.164 16.15 55.764C14.81 54.354 15.32 52.084 16.46 50.994C17.61 49.914 22.89 45.274 22.89 45.274C29.31 48.724 30.65 50.574 30.65 53.174C30.65 55.774 28.06 60.094 21.23 60.094C13.87 60.094 9.32 55.984 9.32 53.284C9.32 50.584 11.27 48.734 11.27 45.694C11.27 42.654 8.69 41.904 6.83 41.904C4.97 41.904 2.68 42.664 2.68 44.944C2.68 47.224 5.07 47.754 5.9 47.754C6.73 47.754 7.66 47.214 7.66 46.234C7.66 45.254 6.83 44.504 5.8 44.504C4.77 44.504 3.94 45.374 3.94 45.374C3.94 45.374 4.15 42.984 6.64 42.984C8.92 42.984 9.21 44.394 9.21 45.154C9.21 45.914 9.12 47.094 7.98 48.824C6.83 50.564 0 58.784 0 58.784H6.01C7.86 60.614 12.73 64.204 21.23 64.204C29.73 64.204 36.34 60.514 36.23 53.274C36.14 46.014 25.47 41.794 25.47 41.794ZM13.35 36.484C11.8 35.614 10.86 35.094 10.86 32.804C10.86 30.514 13.45 28.594 17.28 28.594C21.11 28.594 25.68 30.864 27.54 32.484C29.4 34.094 28.47 35.294 28.47 35.294L23.19 41.144C23.19 41.144 14.91 37.354 13.35 36.484Z" fill="#1D2A73"/>
<path d="M89.0693 57.1648L74.7393 46.4648C79.7193 40.2448 83.5793 33.1248 84.6593 31.3248C86.3093 28.5448 84.7793 27.1648 84.7793 27.1648C84.7793 27.1648 82.8893 25.5348 81.1193 24.0148C79.3593 22.4948 78.7293 23.8948 78.7293 23.8948L77.5193 25.7848H46.5893V34.0948H70.8093C65.5993 51.1348 40.2793 63.9748 40.2793 63.9748L40.9093 64.4748C56.0093 64.2348 61.4793 57.6948 66.2293 54.6648L81.7493 66.1048L89.0593 57.1748L89.0693 57.1648Z" fill="#1D2A73"/>
<path d="M120.979 55.1452V33.5952H134.429V25.7852H97.4991V33.5952H111.369V55.1452H95.3691V63.2052H135.149C135.809 63.8252 136.459 64.2252 136.459 63.5752V55.1452H120.989H120.979Z" fill="#1D2A73"/>
<path d="M185.609 60.8045C181.969 56.4045 175.269 43.5545 175.269 43.5545L166.699 45.1845C167.539 47.5345 168.479 49.7545 169.469 51.7945C166.279 52.7545 159.899 54.5145 152.429 55.5945C164.409 45.7345 166.699 25.6445 166.699 25.6445H157.879C157.009 42.3645 148.649 53.5745 146.429 56.2645C144.439 56.4245 142.399 56.5245 140.379 56.5245V66.3545C140.379 66.3545 166.709 59.6445 173.269 58.8445C176.029 63.3945 178.289 66.0845 178.289 66.0845L185.599 60.7945L185.609 60.8045Z" fill="#1D2A73"/>
<path d="M217.149 49.2438C224.459 41.3238 229.869 32.9838 229.869 32.9838C229.869 32.9838 230.749 30.8438 229.359 29.5838C227.979 28.3238 225.319 26.4438 225.319 26.4438C225.319 26.4438 220.159 28.2238 215.819 28.7138H214.739V23.9238H204.769V28.7138H193.049V35.8938H215.709C213.759 39.7338 206.189 52.4538 188.779 59.4538C188.779 59.4538 196.229 59.8138 204.779 56.7638V66.9538H213.499V55.1038L223.959 63.4838L230.139 57.3138V56.1638C230.139 56.1638 222.489 55.2738 217.179 49.2338" fill="#1D2A73"/>
<path d="M77.4691 5.08414C79.2391 5.08414 80.4691 5.77414 80.4691 6.78414C80.4691 7.18414 80.1591 7.89414 79.3891 7.89414C78.9391 7.89414 78.7291 7.68414 78.3091 7.26414C77.9791 6.95414 76.6591 5.84414 75.2891 5.38414C76.1591 5.19414 76.7691 5.07414 77.4591 5.07414M88.3891 3.93414C86.5791 8.90414 83.0891 11.5241 80.0891 13.6941C79.9691 13.7841 79.6391 14.1441 79.5491 14.2141C79.4091 14.3741 79.3091 14.4541 79.0791 14.4541C78.7991 14.4541 76.8191 13.5141 76.8191 11.3941C76.8191 11.0641 76.8591 10.9441 76.9191 10.7541C77.3691 11.5141 77.7691 11.8241 78.2791 11.8241C79.1991 11.8241 85.2791 7.91414 88.2491 3.87414L88.3891 3.92414V3.93414ZM78.6491 0.914141C80.0891 0.914141 81.7791 1.50414 81.7791 2.72414C81.7791 3.05414 81.5891 3.78414 80.7391 3.78414C80.2591 3.78414 80.0291 3.54414 79.6291 3.09414C79.5191 2.97414 78.3591 1.75414 76.9491 1.16414C77.3991 1.05414 77.9191 0.924143 78.6491 0.924143M87.9591 2.85414C87.9591 3.16414 87.7891 3.72414 87.1991 3.72414C86.8691 3.72414 86.7991 3.65414 86.2591 2.96414C85.4091 1.88414 84.8991 1.62414 84.3991 1.38414C86.6191 1.24414 87.9591 2.11414 87.9591 2.85414ZM88.1891 0.204142C88.5391 0.294142 89.3491 0.494143 89.3491 1.38414C89.3491 1.59414 89.3191 2.15414 88.6191 2.15414C88.2691 2.15414 88.1491 1.96414 87.7991 1.54414C87.7091 1.44414 87.1391 0.784144 85.7991 0.0141436C87.0691 -0.0558564 87.9391 0.154142 88.1791 0.204142" fill="#221714"/>
<path d="M100.84 10.8348C101 10.8148 101.67 10.6448 101.81 10.6448C102.33 10.6448 103.6 11.4648 103.6 12.1748C103.6 12.5548 103.2 12.7148 103.01 12.7148C102.82 12.7148 101.95 12.4648 101.78 12.4348C101.45 12.3648 100.36 12.2048 98.9995 12.2048C96.6695 12.2048 94.7095 12.6548 93.7195 12.9448C93.5295 12.9948 92.7495 13.3148 92.5695 13.3148C91.9795 13.3148 91.0195 12.1548 91.0195 11.4348C91.0195 11.1948 91.1095 10.9848 91.2295 10.6048C91.4895 10.9848 91.8395 11.5048 92.7095 11.5048C92.8995 11.5048 96.3395 11.1548 97.5595 11.0648C97.7895 9.88477 97.9795 8.44476 98.0995 6.77477C97.6795 6.84477 96.3595 7.14477 95.4795 7.46477C95.3795 7.49477 94.9395 7.67477 94.8495 7.67477C94.3995 7.67477 93.5995 6.82477 93.5995 5.98477C93.5995 5.77477 93.6495 5.56477 93.7395 5.30477C93.9795 5.63477 94.2595 5.99477 95.0795 5.99477C95.3195 5.99477 97.2495 5.87477 98.0295 5.61477C98.1895 5.56477 98.7895 5.13477 98.9295 5.13477C99.3295 5.13477 100.75 6.28476 100.75 6.66476C100.75 6.88476 100.56 7.02477 100.32 7.22477C100.11 7.37477 100.04 7.44477 99.8895 8.04477C99.7695 8.49477 99.2695 10.5448 99.1595 10.9648C99.3495 10.9648 100.53 10.8748 100.84 10.8248" fill="#221714"/>
<path d="M115.869 5.4436C115.869 5.5836 115.629 6.17359 115.589 6.29359C115.549 6.55359 115.449 8.0636 115.429 8.4636C115.389 9.0336 115.379 9.4136 115.329 9.9936C116.039 9.9536 118.839 9.76359 119.239 9.59359C119.609 9.43359 119.799 9.3536 120.019 9.3536C120.749 9.3536 122.239 10.2536 122.239 11.1636C122.239 11.6336 121.839 11.8236 121.559 11.8236C121.369 11.8236 120.519 11.6136 120.339 11.6036C118.719 11.3536 118.099 11.3736 117.599 11.3736C116.049 11.3736 113.139 11.4436 110.549 12.0736C110.289 12.1436 108.999 12.5836 108.969 12.5836C108.309 12.5836 107.129 11.3336 107.129 10.1636C107.129 9.59359 107.269 9.2936 107.389 8.9936C107.949 10.0536 108.139 10.4336 109.869 10.4336C110.719 10.4336 112.559 10.2436 113.479 10.1536C113.499 7.2936 113.479 5.7936 113.359 5.3036C113.289 5.0136 113.169 4.9436 113.049 4.8736C112.679 4.9236 111.889 5.01359 111.609 5.11359C111.139 5.27359 111.019 5.32359 110.859 5.32359C110.509 5.32359 109.279 4.6236 109.279 3.1236C109.279 3.0536 109.299 3.0036 109.329 2.8936C110.039 3.4336 110.419 3.4836 111.049 3.4836C112.229 3.4836 115.359 3.3436 116.729 2.9236C117.369 2.7336 117.509 2.68359 117.819 2.68359C118.379 2.68359 119.309 3.25359 119.309 3.86359C119.309 4.21359 118.979 4.5536 118.389 4.5536C117.239 4.5536 116.029 4.55359 114.949 4.65359C115.419 4.93359 115.849 5.19359 115.849 5.43359" fill="#221714"/>
<path d="M124.02 14.6741C125.18 13.6641 126.26 11.6341 126.68 10.5741C127.27 9.13414 127.67 6.99414 127.67 5.48414C127.67 4.40414 127.1 4.18414 126.21 3.91414C126.66 3.63414 127.11 3.39414 127.62 3.39414C128.47 3.39414 129.5 4.10414 129.76 4.34414C129.85 4.41414 130 4.57414 130 4.81414C130 4.90414 129.9 5.25414 129.74 5.54414C129.69 5.63414 129.39 7.43414 129.32 7.76414C128.99 9.37414 128.24 12.8841 124.09 14.7841L124.02 14.6641V14.6741ZM139.43 5.62414C138.4 9.42414 135.68 11.4441 133.23 13.2341C133 13.4141 132.55 13.7441 132.54 13.7541C132.42 13.8241 132.33 13.8541 132.21 13.8541C131.6 13.8541 130.73 12.3641 130.73 11.7841C130.73 11.5741 130.97 10.7241 131.01 10.5541C131.1 9.99414 131.22 6.90414 131.22 6.10414C131.22 5.77414 131.22 3.34414 130.87 2.76414C130.63 2.34414 130.03 2.18414 129.57 2.12414C129.78 1.95414 130.28 1.49414 130.84 1.49414C131.4 1.49414 133.48 2.27414 133.48 3.05414C133.48 3.19414 133.24 3.71414 133.2 3.83414C132.9 4.68414 132.78 8.16414 132.78 8.25414C132.76 8.60414 132.69 10.4541 132.69 10.5641C132.69 10.6841 132.72 10.7541 132.83 10.7541C133.61 10.7541 137.52 8.02414 139.33 5.54414L139.43 5.61414V5.62414Z" fill="#221714"/>
<path d="M142.049 14.6737C147.049 12.3237 150.909 4.98366 150.909 4.58366C150.909 4.53366 150.889 4.49366 150.819 4.49366C150.799 4.49366 148.869 4.82366 148.699 4.87366C148.419 4.94366 148.369 4.94366 148.269 4.94366C148.009 4.94366 147.679 4.70366 147.499 4.54366C145.519 6.85366 144.739 7.77366 142.359 8.80366L142.289 8.66366C144.949 6.00366 146.669 2.51366 146.669 2.11366C146.669 1.57366 145.969 1.24366 145.469 1.00366C145.709 0.923658 146.109 0.76366 146.619 0.76366C147.209 0.76366 148.059 1.09366 148.739 1.58366C149.349 2.02366 149.359 2.17366 149.359 2.43366C149.359 2.60366 149.309 2.65366 149.069 2.86366C148.809 3.08366 148.459 3.45366 148.219 3.73366C149.019 3.75366 150.759 3.68366 151.429 3.17366C151.539 3.10366 151.919 2.79366 152.039 2.79366C152.179 2.79366 153.359 3.76366 153.599 3.95366C154.029 4.31366 154.089 4.35366 154.089 4.54366C154.089 4.89366 153.829 5.01366 153.199 5.29366C152.989 5.39366 152.939 5.46366 152.639 5.98366C150.959 8.97366 149.569 10.8137 147.319 12.3737C145.569 13.5937 143.309 14.5937 142.069 14.8037L142.029 14.6637L142.049 14.6737ZM154.979 2.68366C154.979 3.15366 154.599 3.42366 154.339 3.42366C154.049 3.42366 153.919 3.25366 153.389 2.55366C152.469 1.39366 152.019 1.18366 151.579 0.97366C152.879 0.87366 154.989 1.46366 154.989 2.67366M156.769 1.90366C156.769 2.35366 156.559 2.72366 156.079 2.72366C155.839 2.72366 155.749 2.65366 155.439 2.20366C154.779 1.21366 154.539 0.83366 153.249 0.24366C155.199 0.12366 156.779 0.833658 156.779 1.91366" fill="#221714"/>
<path d="M160.989 14.7541C162.689 13.6941 164.219 12.5341 165.629 10.5841C166.319 9.61406 167.539 7.65407 167.799 6.12407C166.009 6.14407 162.949 6.83406 162.009 7.20406C161.279 7.48406 161.209 7.51406 161.059 7.51406C160.349 7.51406 159.359 6.17406 159.359 5.20406C159.359 4.78406 159.519 4.54407 159.659 4.30407C160.139 5.33407 160.719 5.50406 161.729 5.50406C162.459 5.50406 167.339 5.01406 168.189 4.63406C168.309 4.58406 168.819 4.28407 168.939 4.23407C169.049 4.19407 169.129 4.19407 169.199 4.19407C169.529 4.19407 170.309 4.94406 170.639 5.29406C171.069 5.72406 171.129 5.79406 171.129 6.02406C171.129 6.23406 171.039 6.33406 170.619 6.58406C170.219 6.81406 170.149 6.91406 169.679 7.85406C168.799 9.59406 167.959 11.2441 165.769 12.9041C164.449 13.9141 163.009 14.4841 161.059 14.9041L160.989 14.7641V14.7541ZM162.919 1.85406C164.639 1.85406 166.199 1.50406 166.589 1.40406C167.249 1.21406 167.439 1.16406 167.799 1.16406C168.529 1.16406 169.819 1.53406 169.819 2.32406C169.819 2.95406 169.069 3.02406 168.469 3.02406C167.079 3.02406 166.419 3.02407 164.559 3.28407C164.229 3.33407 162.539 3.63406 162.409 3.63406C161.979 3.63406 160.879 2.94406 160.879 1.70406C160.879 1.51406 160.919 1.37406 160.999 1.18406C161.499 1.67406 161.939 1.86406 162.929 1.86406" fill="#221714"/>
<path d="M177.15 1.29492C178.52 1.29492 180.64 1.71492 180.64 3.42492C180.64 4.19492 180.05 4.71492 179.44 4.71492C179.02 4.71492 178.93 4.60492 178.14 3.67492C177.38 2.75492 176.47 1.89492 175.34 1.52492C175.83 1.41492 176.35 1.29492 177.15 1.29492ZM187.9 2.84492C186.23 7.60492 183.56 9.70492 179.41 12.8349C179.36 12.8849 178.92 13.2649 178.82 13.3749C178.68 13.4949 178.54 13.6249 178.32 13.6249C177.43 13.6249 175.8 11.8149 175.8 10.4749C175.8 10.1249 175.9 9.90492 176.02 9.62492C176.33 10.1649 176.89 10.8949 177.46 10.8949C178.12 10.8949 184.04 7.76492 187.76 2.78492L187.9 2.85492V2.84492Z" fill="#221714"/>
<path d="M83.8303 86.4651L83.9203 84.3451H84.8503L85.3503 86.6251L84.5703 86.5351V85.9451C85.2603 86.4051 85.8603 86.6251 86.7403 86.6251C88.0503 86.6251 88.7503 86.1151 88.7503 85.2051C88.7503 84.4851 88.4003 84.0051 87.0903 83.6151L86.1803 83.3051C84.7603 82.8551 83.9103 82.0551 83.9103 80.7251C83.9103 79.1251 85.1603 77.9551 87.4103 77.9551C88.4603 77.9551 89.2503 78.2051 90.1703 78.6851L90.0703 80.6351H89.2403L88.6103 78.4551L89.3003 78.6751V79.1751C88.6403 78.7351 88.1803 78.5451 87.4503 78.5451C86.3603 78.5451 85.7103 79.0851 85.7103 79.9151C85.7103 80.5751 86.0903 81.0451 87.3303 81.4251L88.2403 81.7151C89.9303 82.2551 90.6403 83.0951 90.6403 84.3751C90.6403 86.1151 89.2603 87.2251 86.8803 87.2251C85.6803 87.2251 84.7603 86.9651 83.8203 86.4651H83.8303Z" fill="#221714"/>
<path d="M94.2794 83.1348V81.9448C94.2794 80.8548 94.2595 80.1448 94.2295 79.3648L92.9395 79.2548V78.8548L96.3295 77.9948L96.5395 78.1348L96.4795 80.6448V83.1448C96.4795 84.2748 96.4995 86.1548 96.5395 86.9748H94.2295C94.2595 86.1548 94.2794 84.2748 94.2794 83.1448V83.1348ZM93.0695 86.4748L94.8095 86.3048H95.8195L97.5795 86.4748V86.9648H93.0695V86.4748ZM94.0395 75.0748C94.0395 74.3948 94.5994 73.8848 95.2794 73.8848C95.9594 73.8848 96.5294 74.3948 96.5294 75.0748C96.5294 75.7848 95.9694 76.2748 95.2794 76.2748C94.5894 76.2748 94.0395 75.7848 94.0395 75.0748Z" fill="#221714"/>
<path d="M101.15 83.1348V81.9048C101.15 80.8248 101.13 80.1948 101.09 79.4048L99.8203 79.2948V78.8949L103.02 77.9948L103.23 78.1348L103.35 79.9848V83.1348C103.35 84.2648 103.37 86.1448 103.4 86.9648H101.09C101.13 86.1448 101.15 84.2648 101.15 83.1348ZM99.9403 86.4749L101.66 86.3048H102.69L104.42 86.4749V86.9648H99.9403V86.4749ZM106.74 83.1348V80.9348C106.74 79.5548 106.32 79.0648 105.49 79.0648C104.82 79.0648 103.81 79.5548 102.82 80.7148L102.74 80.0248H102.99C104.21 78.4748 105.26 77.9648 106.44 77.9648C107.95 77.9648 108.94 78.9248 108.94 81.0848V83.1348C108.94 84.3048 108.97 86.1448 109 86.9648H106.7C106.73 86.1448 106.75 84.3048 106.75 83.1348H106.74ZM105.57 86.4749L107.26 86.3048H108.28L110.04 86.4749V86.9648H105.56V86.4749H105.57Z" fill="#221714"/>
<path d="M112.4 82.7251C112.4 79.6251 114.57 77.9551 117.12 77.9551C118.8 77.9551 120.11 78.9951 120.37 80.3951C120.22 80.9151 119.9 81.1551 119.41 81.1551C118.8 81.1551 118.34 80.8251 118.27 79.8251L117.98 78.3051L119.09 79.0251C118.46 78.6551 117.95 78.5051 117.38 78.5051C115.85 78.5051 114.72 79.9551 114.72 82.4251C114.72 84.8951 115.91 86.1751 117.71 86.1751C118.66 86.1751 119.46 85.7451 120.07 84.9651L120.36 85.1751C119.59 86.5451 118.52 87.2051 116.78 87.2051C114.33 87.2051 112.4 85.5951 112.4 82.7051V82.7251Z" fill="#221714"/>
<path d="M122.77 82.5751C122.77 79.6351 124.85 77.9551 127.17 77.9551C129.49 77.9551 130.86 79.5451 130.86 81.5551C130.86 81.9551 130.83 82.2551 130.75 82.5451H123.73V81.9851H127.9C128.59 81.9851 128.8 81.6451 128.8 80.7451C128.8 79.3151 128.13 78.5051 127.1 78.5051C126 78.5051 125.1 79.6951 125.1 82.3451C125.1 84.9951 126.34 86.1851 128.03 86.1851C129.18 86.1851 129.94 85.7251 130.52 84.9551L130.81 85.1751C130.12 86.4851 128.91 87.2351 127.29 87.2351C124.65 87.2351 122.78 85.6051 122.78 82.5851L122.77 82.5751Z" fill="#221714"/>
<path d="M139.371 86.4743L141.941 86.1943H143.971L146.371 86.4743V86.9643H139.371V86.4743ZM141.821 83.1343V76.4443L139.741 76.6943V76.1243L143.871 75.1543L144.101 75.3343L144.041 77.9643V83.1443C144.041 84.3943 144.061 85.6943 144.101 86.9743H141.771C141.801 85.6943 141.821 84.3943 141.821 83.1443V83.1343Z" fill="#221714"/>
<path d="M150.369 86.8157C153.939 85.5757 155.479 83.4557 155.479 79.7057C155.479 76.6857 154.699 75.6257 153.549 75.6257C152.519 75.6257 151.629 76.5857 151.629 78.6457C151.629 80.5757 152.509 81.7157 153.879 81.7157C154.629 81.7157 155.189 81.4357 155.779 80.8757L156.069 81.0057H155.959C155.419 81.8257 154.439 82.4157 153.039 82.4157C150.949 82.4157 149.439 81.1457 149.439 78.9157C149.439 76.5557 151.329 75.0957 153.529 75.0957C156.199 75.0957 157.709 76.8557 157.709 79.9257C157.709 83.6257 154.909 86.3557 150.459 87.2757L150.369 86.8157Z" fill="#221714"/>
<path d="M160.59 84.805C160.76 84.375 161.12 84.155 161.52 84.155C162.1 84.155 162.44 84.465 162.54 85.305L162.88 86.995L162.33 86.565C162.84 86.845 163.2 86.955 163.85 86.955C165.46 86.955 166.48 85.865 166.48 83.975C166.48 82.085 165.53 81.095 164.01 81.095C163.31 81.095 162.72 81.185 162.1 81.415L161.65 81.135L162.03 75.625H168.4V77.345H162.34L162.72 76.115L162.38 81.065L161.76 80.875C162.68 80.445 163.55 80.295 164.55 80.295C167.17 80.295 168.8 81.505 168.8 83.775C168.8 86.175 166.92 87.515 164.21 87.515C162.1 87.515 160.77 86.495 160.59 84.805Z" fill="#221714"/>
<path d="M171.83 84.5557C171.83 83.1357 173.01 82.1457 175.14 81.4157V81.2857L175.38 81.5357C174.08 82.4257 173.66 83.2857 173.66 84.4557C173.66 85.7657 174.48 86.6857 175.77 86.6857C177.06 86.6857 177.79 85.7757 177.79 84.6857C177.79 83.5957 177.1 82.6657 174.9 81.7057C173.02 80.8857 172.11 79.7257 172.11 78.2357C172.11 76.3157 173.72 75.0957 175.86 75.0957C178.14 75.0957 179.28 76.2257 179.28 77.6757C179.28 78.7557 178.5 79.7457 176.21 80.5857V80.6757L176.01 80.4457C177.22 79.4457 177.59 78.6957 177.59 77.6257C177.59 76.5557 176.94 75.6457 175.8 75.6457C174.82 75.6457 173.96 76.3657 173.96 77.5257C173.96 78.5257 174.46 79.4157 176.6 80.3557C178.78 81.3157 179.76 82.4657 179.76 84.0557C179.76 85.9957 178.18 87.2357 175.58 87.2357C172.98 87.2357 171.82 86.1557 171.82 84.5657L171.83 84.5557Z" fill="#221714"/>
</svg>
