<svg width="92" height="362" viewBox="0 0 92 362" fill="none" xmlns="http://www.w3.org/2000/svg">
<g clip-path="url(#clip0_1_4823)" stroke="#CBAC73" stroke-width="2">
<path d="M89.9102 300.44V304.54L35.7602 340.17C25.4502 346.85 16.7702 352.71 7.86016 357.28L7.98016 357.63C17.2402 356.93 22.7502 356.93 42.3302 356.93H89.9202V361.03H1.41016V357.16L56.7402 320.47C68.1102 313.09 75.6102 308.16 83.9302 303.94L83.7001 303.71C71.8602 304.53 62.2502 304.53 48.3002 304.53H1.41016V300.43H89.9102V300.44Z" fill="#CBAC73"/>
<path d="M89.9102 210.89V254.96H1.41016V213H5.04016V250.86H41.3802V215.11H45.0102V250.86H86.2701V210.89H89.9002H89.9102Z" fill="#CBAC73"/>
<path d="M1.41016 76.6702L89.9102 103.75V107.74L37.1602 121.92C23.5602 125.67 15.2402 127.9 6.92016 129.19V129.42C15.0102 130.94 23.1002 133.29 36.8102 137.51L89.9102 153.69V157.56L1.41016 181.23V176.66L53.4502 162.83C65.0502 159.78 74.7802 157.2 83.1102 155.33V155.1C75.1402 153.46 65.1802 150.41 53.3402 146.89L1.41016 131.29V126.84L52.7502 113.13C63.5302 110.32 74.4401 107.27 83.3401 105.75V105.4C73.8502 103.29 64.8202 100.59 53.4502 97.1902L1.41016 81.4702V76.6602V76.6702Z" fill="#CBAC73"/>
<path d="M7.62 5.63C5.86 7.86 3.4 13.01 3.4 20.4C3.4 35.52 13.36 40.8 20.75 40.8C31.07 40.8 36.57 35.41 41.85 22.28C47.71 7.85 54.04 0 67.4 0C80.76 0 91.2 9.26 91.2 26.96C91.2 34.23 88.86 42.67 85.22 47.59L81.94 45.48C85.46 40.32 87.8 33.88 87.8 26.73C87.8 12.66 79.13 4.34 67.87 4.34C57.32 4.34 51.11 9.38 46.07 22.39C41.03 36.69 33.76 45.01 21.81 45.01C9.03 45.01 0 34.58 0 20.4C0 12.31 2.34 6.21 4.34 3.52L7.62 5.63Z" fill="#CBAC73"/>
</g>
<defs>
<clipPath id="clip0_1_4823">
<rect width="91.2" height="361.05" fill="white"/>
</clipPath>
</defs>
</svg>
