<svg width="92" height="920" viewBox="0 0 92 920" fill="none" xmlns="http://www.w3.org/2000/svg">
<g clip-path="url(#clip0_1_4725)" stroke="#CBAC73" stroke-width="1">
<path d="M44.78 842.49C76.31 842.49 91.32 861.83 91.32 881.41C91.32 902.51 74.67 919.62 46.54 919.62C17 919.62 0 902.27 0 880.47C0 858.67 17.35 842.49 44.78 842.49ZM46.42 915.28C65.29 915.28 87.92 903.44 87.92 881.29C87.92 859.14 67.76 846.83 45.14 846.83C26.03 846.83 3.41 857.03 3.41 880.59C3.41 904.15 25.56 915.29 46.43 915.29L46.42 915.28Z" fill="#CBAC73"/>
<path d="M54.7402 744.131C81.9302 744.131 91.3102 758.781 91.3102 774.611C91.3102 788.911 82.8702 803.091 55.9102 803.091H1.41016V798.991H54.8602C78.4202 798.991 87.9202 787.741 87.9202 774.261C87.9202 759.021 77.6002 748.241 54.8602 748.241H1.41016V744.141H54.7402V744.131Z" fill="#CBAC73"/>
<path d="M46.9992 669.34C49.2292 662.07 56.0292 657.5 66.1092 655.39C80.5292 652.34 86.3892 650.7 89.9092 648.83V653.17C87.3292 654.58 79.3592 656.57 68.1092 658.91C55.0992 661.72 48.2992 667.35 48.2992 679.54V694.54H89.9092V698.64H2.57922C1.40922 693.37 0.699219 686.1 0.699219 680.71C0.699219 669.46 3.15922 662.54 8.19922 657.74C11.7192 654.11 17.6992 651.76 23.6692 651.76C35.6292 651.76 43.1292 658.68 46.7592 669.34H46.9892H46.9992ZM44.8892 680.01C44.8892 665.83 36.6792 656.1 24.4892 656.1C8.77922 656.1 4.08922 668.41 4.08922 681.3C4.08922 687.4 5.02922 692.32 5.60922 694.55H44.8792V680.01H44.8892Z" fill="#CBAC73"/>
<path d="M89.9102 478.859V482.959L46.7702 485.659C31.3002 486.709 15.9402 487.769 7.15016 487.649V487.999C16.4102 491.279 26.2602 494.799 39.8502 500.189L90.1402 519.999V522.699L41.1402 541.339C26.7202 546.729 16.6402 550.479 7.15016 553.179V553.529C17.3502 553.759 32.8202 554.469 48.0602 555.639L89.9102 558.569V562.789L1.41016 556.339V551.999L55.6802 531.369C67.1702 527.149 75.6102 523.989 83.8102 521.289V521.059C75.9602 518.719 68.3402 515.549 56.1502 510.859L1.41016 489.529V484.839L89.9102 478.859Z" fill="#CBAC73"/>
<path d="M1.41016 436.071V431.971H89.9102V436.071H1.41016Z" fill="#CBAC73"/>
<path d="M7.62172 349.909C5.86172 352.139 3.40172 357.289 3.40172 364.679C3.40172 379.799 13.3617 385.079 20.7517 385.079C31.0717 385.079 36.5717 379.689 41.8517 366.559C47.7117 352.139 54.0417 344.289 67.4017 344.289C80.7617 344.289 91.2017 353.549 91.2017 371.249C91.2017 378.519 88.8617 386.959 85.2217 391.879L81.9417 389.769C85.4617 384.609 87.8017 378.169 87.8017 371.019C87.8017 356.949 79.1317 348.629 67.8717 348.629C57.3217 348.629 51.1117 353.669 46.0717 366.679C41.0317 380.979 33.7617 389.299 21.8117 389.299C9.03172 389.299 0.0117188 378.869 0.0117188 364.679C0.0117188 356.589 2.35172 350.499 4.35172 347.799L7.63172 349.909H7.62172Z" fill="#CBAC73"/>
<path d="M7.62172 267.149C5.86172 269.379 3.40172 274.529 3.40172 281.919C3.40172 297.039 13.3617 302.319 20.7517 302.319C31.0717 302.319 36.5717 296.929 41.8517 283.799C47.7117 269.379 54.0417 261.529 67.4017 261.529C80.7617 261.529 91.2017 270.789 91.2017 288.489C91.2017 295.759 88.8617 304.199 85.2217 309.119L81.9417 307.009C85.4617 301.849 87.8017 295.409 87.8017 288.259C87.8017 274.189 79.1317 265.869 67.8717 265.869C57.3217 265.869 51.1117 270.909 46.0717 283.919C41.0317 298.219 33.7617 306.539 21.8117 306.539C9.03172 306.539 0.0117188 296.109 0.0117188 281.919C0.0117188 273.829 2.35172 267.739 4.35172 265.039L7.63172 267.149H7.62172Z" fill="#CBAC73"/>
<path d="M1.41016 220.85V216.75H89.9102V220.85H1.41016Z" fill="#CBAC73"/>
<path d="M44.78 99.9902C76.31 99.9902 91.32 119.33 91.32 138.91C91.32 160.01 74.67 177.12 46.54 177.12C17 177.12 0 159.77 0 137.97C0 116.17 17.35 99.9902 44.78 99.9902ZM46.42 172.78C65.29 172.78 87.92 160.94 87.92 138.79C87.92 116.64 67.76 104.33 45.14 104.33C26.03 104.33 3.41 114.53 3.41 138.09C3.41 161.65 25.56 172.79 46.43 172.79L46.42 172.78Z" fill="#CBAC73"/>
<path d="M89.9102 0V4.1L35.7602 39.73C25.4502 46.41 16.7702 52.27 7.86016 56.84L7.98016 57.19C17.2402 56.49 22.7502 56.49 42.3302 56.49H89.9202V60.59H1.41016V56.72L56.7302 20.04C68.1002 12.66 75.6002 7.73 83.9202 3.51L83.6902 3.28C71.8502 4.1 62.2402 4.1 48.2902 4.1H1.41016V0H89.9102Z" fill="#CBAC73"/>
</g>
<defs>
<clipPath id="clip0_1_4725">
<rect width="91.31" height="919.62" fill="white"/>
</clipPath>
</defs>
</svg>
