<svg width="92" height="720" viewBox="0 0 92 720" fill="none" xmlns="http://www.w3.org/2000/svg">
<g clip-path="url(#clip0_1_4738)" stroke="#171C61" stroke-width="2">
<path d="M2.45922 719.4C1.51922 714.59 0.699219 708.62 0.699219 701.82C0.699219 680.72 12.1892 672.52 25.0792 672.52C43.8292 672.52 52.2692 687.17 52.2692 703.93C52.2692 708.15 51.9192 711.669 51.0992 715.299H89.8992V719.4H2.45922ZM47.4692 715.289C48.5292 712.009 48.8792 708.14 48.8792 703.69C48.8792 687.04 40.5592 676.849 25.7892 676.849C11.0192 676.849 4.09922 688.45 4.09922 702.4C4.09922 708.38 4.91922 712.829 5.38922 715.289H47.4692Z" fill="#171C61"/>
<path d="M46.9992 603.699C49.2292 596.429 56.0292 591.859 66.1092 589.749C80.5292 586.699 86.3892 585.059 89.9092 583.189V587.529C87.3292 588.939 79.3592 590.929 68.1092 593.269C55.0992 596.079 48.2992 601.709 48.2992 613.899V628.899H89.9092V632.999H2.57922C1.40922 627.729 0.699219 620.459 0.699219 615.069C0.699219 603.819 3.15922 596.899 8.19922 592.099C11.7192 588.469 17.6992 586.119 23.6692 586.119C35.6292 586.119 43.1292 593.039 46.7592 603.699H46.9892H46.9992ZM44.8892 614.359C44.8892 600.179 36.6792 590.449 24.4892 590.449C8.77922 590.449 4.08922 602.759 4.08922 615.649C4.08922 621.749 5.02922 626.669 5.60922 628.899H44.8792V614.359H44.8892Z" fill="#171C61"/>
<path d="M44.78 473.93C76.31 473.93 91.32 493.27 91.32 512.85C91.32 533.95 74.67 551.06 46.54 551.06C17 551.06 0 533.71 0 511.91C0 490.11 17.35 473.93 44.78 473.93ZM46.42 546.73C65.29 546.73 87.92 534.89 87.92 512.74C87.92 490.59 67.76 478.28 45.14 478.28C26.03 478.28 3.41 488.48 3.41 512.04C3.41 535.6 25.56 546.74 46.43 546.74L46.42 546.73Z" fill="#171C61"/>
<path d="M2.57922 434.54C1.63922 427.86 0.699219 420.71 0.699219 412.62C0.699219 384.84 14.2992 366.55 43.4792 366.55C85.9092 366.55 90.4792 400.19 90.4792 415.55C90.4792 421.76 90.4792 427.97 89.8892 434.54H2.57922ZM86.2692 430.44C86.9692 426.57 87.2092 421.65 87.2092 415.55C87.2092 385.54 69.8592 370.89 43.7192 370.89C19.3392 370.89 4.09922 384.37 4.09922 413.32C4.09922 420.59 4.91922 426.33 5.73922 430.43H86.2692V430.44Z" fill="#171C61"/>
<path d="M54.7402 268.21C81.9302 268.21 91.3102 282.86 91.3102 298.69C91.3102 312.99 82.8702 327.17 55.9102 327.17H1.41016V323.07H54.8602C78.4202 323.07 87.9202 311.82 87.9202 298.34C87.9202 283.1 77.6002 272.32 54.8602 272.32H1.41016V268.22H54.7402V268.21Z" fill="#171C61"/>
<path d="M86.6183 163.41C88.9583 167.98 91.1883 176.66 91.1883 187.56C91.1883 207.84 78.4083 228.7 46.0583 228.7C20.3883 228.7 -0.0117188 212.88 -0.0117188 184.27C-0.0117188 173.02 2.44828 166.8 3.85828 163.99L7.25828 165.63C4.91828 170.2 3.26828 176.3 3.26828 183.92C3.26828 209 20.0283 224.36 46.4083 224.36C71.3783 224.36 87.7883 209.94 87.7883 185.44C87.7883 177.59 86.1483 170.32 83.4483 165.04L86.6083 163.4L86.6183 163.41Z" fill="#171C61"/>
<path d="M5.04016 74.5498V104.09H89.9102V108.19H5.04016V137.85H1.41016V74.5498H5.04016Z" fill="#171C61"/>
<path d="M7.62 5.63C5.86 7.86 3.4 13.01 3.4 20.4C3.4 35.52 13.36 40.8 20.75 40.8C31.07 40.8 36.57 35.41 41.85 22.28C47.71 7.85 54.04 0 67.4 0C80.76 0 91.2 9.26 91.2 26.96C91.2 34.23 88.86 42.67 85.22 47.59L81.94 45.48C85.46 40.32 87.8 33.88 87.8 26.73C87.8 12.66 79.13 4.34 67.87 4.34C57.32 4.34 51.11 9.38 46.07 22.39C41.03 36.69 33.76 45.01 21.81 45.01C9.03 45.01 0 34.58 0 20.4C0 12.31 2.34 6.21 4.34 3.52L7.62 5.63Z" fill="#171C61"/>
</g>
<defs>
<clipPath id="clip0_1_4738">
<rect width="91.31" height="719.4" fill="white"/>
</clipPath>
</defs>
</svg>
