<svg width="562" height="92" viewBox="0 0 562 92" fill="none" xmlns="http://www.w3.org/2000/svg">
<path d="M29.3 47.01C36.57 49.24 41.14 56.04 43.25 66.12C46.3 80.54 47.94 86.4 49.81 89.92H45.47C44.06 87.34 42.07 79.37 39.73 68.12C36.92 55.11 31.29 48.31 19.1 48.31H4.1V89.92H0V2.58996C5.27 1.41996 12.54 0.709961 17.93 0.709961C29.18 0.709961 36.1 3.16996 40.9 8.20996C44.53 11.73 46.88 17.71 46.88 23.68C46.88 35.64 39.96 43.14 29.3 46.77V47V47.01ZM18.64 44.9C32.82 44.9 42.55 36.69 42.55 24.5C42.55 8.78996 30.24 4.09996 17.35 4.09996C11.25 4.09996 6.33 5.03996 4.1 5.61996V44.89H18.64V44.9Z" fill="#182F4F"/>
<path d="M131.992 89.9199H87.9219V1.41992H129.882V5.04992H92.0219V41.3899H127.772V45.0199H92.0219V86.2799H131.992V89.9099V89.9199Z" fill="#182F4F"/>
<path d="M230.341 86.63C225.771 88.97 217.091 91.2 206.191 91.2C185.911 91.2 165.051 78.42 165.051 46.07C165.051 20.4 180.871 0 209.481 0C220.731 0 226.951 2.46 229.761 3.87L228.121 7.27C223.551 4.93 217.451 3.28 209.831 3.28C184.751 3.28 169.391 20.04 169.391 46.42C169.391 71.39 183.811 87.8 208.311 87.8C216.161 87.8 223.431 86.16 228.711 83.46L230.351 86.62L230.341 86.63Z" fill="#182F4F"/>
<path d="M298.101 47.01C305.371 49.24 309.941 56.04 312.051 66.12C315.101 80.54 316.741 86.4 318.611 89.92H314.271C312.861 87.34 310.871 79.37 308.531 68.12C305.721 55.11 300.091 48.31 287.901 48.31H272.901V89.92H268.801V2.58996C274.071 1.41996 281.341 0.709961 286.731 0.709961C297.981 0.709961 304.901 3.16996 309.701 8.20996C313.331 11.73 315.681 17.71 315.681 23.68C315.681 35.64 308.761 43.14 298.101 46.77V47V47.01ZM287.431 44.9C301.611 44.9 311.341 36.69 311.341 24.5C311.341 8.78996 299.031 4.09996 286.141 4.09996C280.041 4.09996 275.121 5.03996 272.891 5.61996V44.89H287.431V44.9Z" fill="#182F4F"/>
<path d="M415.671 54.7499C415.671 81.9399 401.021 91.3199 385.191 91.3199C370.891 91.3199 356.711 82.8799 356.711 55.9199V1.41992H360.811V54.8699C360.811 78.4299 372.061 87.9299 385.541 87.9299C400.781 87.9299 411.561 77.6099 411.561 54.8699V1.41992H415.661V54.7499H415.671Z" fill="#182F4F"/>
<path d="M461.148 1.41992H465.248V89.9199H461.148V1.41992Z" fill="#182F4F"/>
<path d="M561.261 5.04992H531.721V89.9199H527.621V5.04992H497.961V1.41992H561.261V5.04992Z" fill="#182F4F"/>
</svg>
