<svg width="125" height="125" viewBox="0 0 125 125" fill="none" xmlns="http://www.w3.org/2000/svg">
<g style="mix-blend-mode:multiply">
<path d="M62.0402 123.931C96.1273 123.931 123.76 96.2213 123.76 62.0404C123.76 27.8595 96.1273 0.150391 62.0402 0.150391C27.9532 0.150391 0.320312 27.8595 0.320312 62.0404C0.320312 96.2213 27.9532 123.931 62.0402 123.931Z" fill="#E8E7E6"/>
</g>
<path d="M62.0399 124.08C27.8299 124.08 0 96.25 0 62.04C0 27.83 27.8299 0 62.0399 0C96.2502 0 124.08 27.83 124.08 62.04C124.08 96.25 96.2502 124.08 62.0399 124.08Z" fill="url(#paint0_linear_8_3537)"/>
<path d="M62.0417 1.5C28.6617 1.5 1.51172 28.65 1.51172 62.03C1.51172 95.41 28.6617 122.56 62.0417 122.56C95.4217 122.56 122.571 95.4 122.571 62.03C122.571 28.66 95.4217 1.5 62.0417 1.5Z" fill="url(#paint1_linear_8_3537)"/>
<path d="M62.0405 8.98047C32.7805 8.98047 8.98047 32.7805 8.98047 62.0405C8.98047 91.3005 32.7805 115.101 62.0405 115.101C91.3005 115.101 115.1 91.3005 115.1 62.0405C115.1 32.7805 91.3005 8.98047 62.0405 8.98047Z" fill="url(#paint2_linear_8_3537)"/>
<path d="M113.629 62.0392C113.629 33.5892 90.4892 10.4492 62.0392 10.4492C33.5891 10.4492 10.4492 33.5892 10.4492 62.0392C10.4492 90.4892 33.5891 113.63 62.0392 113.63C90.4892 113.63 113.629 90.4892 113.629 62.0392Z" fill="url(#paint3_linear_8_3537)"/>
<path d="M35.8489 59.751L37.3209 61.453C36.4929 61.6984 35.573 61.9207 34.561 62.12C33.549 62.304 32.4832 62.4651 31.3639 62.6031C30.2599 62.7411 29.1482 62.8637 28.0289 62.971C26.9095 63.063 25.821 63.1397 24.763 63.201C24.7323 62.9404 24.6556 62.6414 24.533 62.304C24.4256 61.9667 24.3106 61.6754 24.188 61.43C25.2153 61.3687 26.2656 61.2844 27.339 61.177C28.4276 61.0697 29.4856 60.947 30.513 60.809C31.5556 60.671 32.537 60.5177 33.457 60.349C34.377 60.165 35.1742 59.9657 35.8489 59.751ZM24.51 64.374L26.2579 63.891C26.6259 64.5657 26.9633 65.3094 27.27 66.122C27.592 66.9347 27.8065 67.6324 27.9139 68.215L26.0739 68.79C25.9819 68.2074 25.7903 67.502 25.499 66.674C25.2076 65.8307 24.878 65.064 24.51 64.374ZM29.087 63.684L30.9269 63.3391C31.2182 64.0138 31.4635 64.742 31.6629 65.524C31.8775 66.306 32.0002 66.9807 32.0309 67.548L30.0989 67.962C30.0682 67.41 29.961 66.7354 29.777 65.938C29.593 65.1254 29.363 64.374 29.087 63.684ZM35.941 62.994L37.9879 63.753C37.6659 64.397 37.3209 65.064 36.9529 65.754C36.5849 66.4287 36.2169 67.0804 35.8489 67.709C35.4809 68.3224 35.1283 68.8667 34.791 69.342L33.1119 68.629C33.4492 68.1384 33.7866 67.5634 34.124 66.904C34.4766 66.2447 34.814 65.5777 35.136 64.903C35.458 64.213 35.7263 63.5767 35.941 62.994ZM24.372 70.929H37.896V72.815H24.372V70.929ZM30.053 68.445H32.123V80.704H30.053V68.445ZM29.2939 71.987L30.9959 72.585C30.5359 73.5664 29.961 74.5017 29.271 75.391C28.581 76.2804 27.8219 77.093 26.9939 77.829C26.1659 78.5497 25.315 79.1477 24.441 79.623C24.3336 79.439 24.1956 79.2397 24.027 79.025C23.8583 78.8257 23.6819 78.6264 23.4979 78.427C23.3139 78.2277 23.1453 78.0591 22.992 77.9211C23.8353 77.5378 24.6555 77.0394 25.4529 76.426C26.2655 75.7974 27.0015 75.1074 27.6609 74.356C28.3202 73.5894 28.8645 72.7997 29.2939 71.987ZM32.859 72.079C33.2576 72.8304 33.7635 73.5817 34.3769 74.333C34.9902 75.0844 35.6572 75.7668 36.3779 76.3801C37.0985 76.9935 37.827 77.4994 38.563 77.898C38.4096 78.0207 38.2409 78.1818 38.0569 78.3811C37.8729 78.5651 37.6966 78.7567 37.528 78.956C37.3746 79.1707 37.2365 79.3624 37.1139 79.531C36.3625 79.0404 35.6189 78.4348 34.8829 77.7141C34.1469 76.9935 33.457 76.196 32.813 75.322C32.1843 74.448 31.6475 73.5664 31.2029 72.677L32.859 72.079ZM16.575 71.274C17.4796 71.0287 18.5683 70.7297 19.841 70.377C21.1136 70.009 22.4016 69.6258 23.705 69.2271L23.981 71.205C22.8003 71.5884 21.6043 71.9717 20.393 72.355C19.1816 72.723 18.0775 73.0605 17.0809 73.3671L16.575 71.274ZM16.92 64.0061H23.912V66.03H16.92V64.0061ZM19.5879 59.521H21.6119V78.4501C21.6119 78.9868 21.5505 79.4084 21.4279 79.715C21.3052 80.0217 21.083 80.267 20.761 80.451C20.4543 80.6197 20.0556 80.727 19.565 80.773C19.0896 80.8344 18.4763 80.865 17.725 80.865C17.7096 80.589 17.6406 80.2518 17.518 79.8531C17.4106 79.4698 17.288 79.1324 17.15 78.841C17.61 78.8564 18.0316 78.864 18.415 78.864C18.7983 78.864 19.059 78.8564 19.197 78.841C19.335 78.841 19.4346 78.818 19.496 78.772C19.5573 78.7107 19.5879 78.6035 19.5879 78.4501V59.521ZM43.646 61.085H58.205V63.155H43.646V61.085ZM43.646 66.4211H58.205V68.445H43.646V66.4211ZM43.554 71.872H58.2739V73.942H43.554V71.872ZM42.4039 61.085H44.566V69.388C44.566 70.2774 44.52 71.2357 44.428 72.263C44.3513 73.2904 44.2056 74.333 43.991 75.391C43.7763 76.4337 43.4543 77.438 43.025 78.404C42.611 79.3547 42.0513 80.2134 41.346 80.98C41.2386 80.8267 41.0775 80.658 40.8629 80.474C40.6635 80.29 40.449 80.1137 40.219 79.945C40.0043 79.7764 39.8126 79.646 39.644 79.554C40.288 78.8334 40.7939 78.059 41.1619 77.231C41.5299 76.3877 41.7982 75.5214 41.9669 74.632C42.1509 73.7274 42.266 72.8304 42.312 71.941C42.3733 71.0364 42.4039 70.1777 42.4039 69.365V61.085ZM57.3769 61.085H59.539V78.105C59.539 78.7337 59.4545 79.2167 59.2859 79.554C59.1172 79.9067 58.8259 80.175 58.4119 80.359C57.9979 80.5277 57.4383 80.6275 56.733 80.6581C56.0276 80.7041 55.1306 80.7194 54.042 80.704C54.0113 80.428 53.9192 80.083 53.7659 79.669C53.6279 79.255 53.4822 78.9024 53.3289 78.611C53.8195 78.6417 54.3026 78.6647 54.778 78.68C55.2533 78.68 55.6673 78.68 56.02 78.68C56.388 78.6647 56.6409 78.6571 56.7789 78.6571C57.0089 78.6571 57.1622 78.6187 57.2389 78.542C57.3309 78.45 57.3769 78.2967 57.3769 78.082V61.085ZM49.58 61.89H51.7649V80.612H49.58V61.89ZM72.1889 72.7001H80.8139V74.287H72.1889V72.7001ZM69.728 61.2001H83.436V62.787H69.728V61.2001ZM70.326 64.029H82.838V65.5471H70.326V64.029ZM69.0379 66.8811H84.126V68.4911H69.0379V66.8811ZM72.212 75.736H80.8829V77.3H72.212V75.736ZM70.6479 69.641H80.768V71.274H72.672V80.842H70.6479V69.641ZM80.354 69.641H82.424V78.611C82.424 79.1017 82.3626 79.4927 82.24 79.784C82.1173 80.0907 81.872 80.3207 81.504 80.474C81.136 80.6274 80.6759 80.7194 80.1239 80.75C79.5719 80.7807 78.8896 80.7961 78.077 80.7961C78.031 80.5201 77.9466 80.198 77.824 79.83C77.7166 79.4774 77.5939 79.1707 77.4559 78.91C77.9925 78.9407 78.4986 78.956 78.974 78.956C79.4646 78.956 79.7865 78.956 79.9399 78.956C80.2159 78.956 80.354 78.8257 80.354 78.565V69.641ZM75.432 59.498H77.571V67.387H75.432V59.498ZM65.404 59.498H67.382V80.819H65.404V59.498ZM63.518 63.983L65.1049 64.19C65.0895 64.8034 65.0359 65.4934 64.9439 66.26C64.8519 67.0114 64.737 67.7627 64.599 68.514C64.4763 69.25 64.3305 69.917 64.1619 70.515L62.529 69.9631C62.6976 69.4265 62.851 68.813 62.989 68.123C63.127 67.4177 63.242 66.7047 63.334 65.984C63.426 65.2634 63.4873 64.5964 63.518 63.983ZM67.336 63.3391L68.739 62.764C68.9843 63.2854 69.2296 63.8604 69.475 64.489C69.7356 65.1024 69.9272 65.616 70.0499 66.03L68.5779 66.743C68.4705 66.2984 68.2943 65.754 68.049 65.11C67.819 64.466 67.5813 63.8758 67.336 63.3391ZM97.8801 68.376H105.194V70.147H97.8801V68.376ZM96.7991 60.51H105.125V62.442H98.8001V80.842H96.7991V60.51ZM104.067 60.51H106.091V64.926C106.091 65.4167 106.022 65.8154 105.884 66.122C105.746 66.4134 105.477 66.6357 105.079 66.789C104.695 66.927 104.197 67.019 103.584 67.065C102.97 67.0957 102.227 67.111 101.353 67.111C101.322 66.8044 101.245 66.4747 101.123 66.122C101 65.7694 100.87 65.4627 100.732 65.202C101.161 65.2174 101.567 65.2327 101.951 65.248C102.349 65.248 102.694 65.248 102.986 65.248C103.277 65.248 103.484 65.2404 103.607 65.225C103.791 65.2097 103.913 65.1867 103.975 65.156C104.036 65.11 104.067 65.0257 104.067 64.903V60.51ZM100.433 69.618C100.831 70.9827 101.36 72.286 102.02 73.528C102.694 74.7547 103.492 75.8587 104.412 76.84C105.332 77.806 106.351 78.5651 107.471 79.1171C107.225 79.3165 106.957 79.5848 106.666 79.9221C106.39 80.2748 106.167 80.589 105.999 80.865C104.849 80.1904 103.806 79.3087 102.871 78.22C101.951 77.116 101.146 75.874 100.456 74.494C99.7662 73.0987 99.1982 71.619 98.7542 70.055L100.433 69.618ZM104.55 68.376H104.941L105.309 68.284L106.62 68.767C106.344 70.469 105.907 72.0867 105.309 73.62C104.726 75.138 103.99 76.518 103.101 77.76C102.211 79.002 101.169 80.0447 99.9732 80.888C99.8042 80.6427 99.5741 80.382 99.2831 80.106C99.0071 79.83 98.7541 79.6 98.5241 79.416C99.6281 78.6647 100.594 77.7294 101.422 76.61C102.25 75.4907 102.924 74.264 103.446 72.93C103.967 71.596 104.335 70.2314 104.55 68.836V68.376ZM86.656 61.706H95.327V63.5461H86.656V61.706ZM86.449 74.471H95.626V76.3111H86.449V74.471ZM85.851 65.5471H96.201V67.387H85.851V65.5471ZM86.242 70.423H95.9019V72.263H86.242V70.423ZM90.1059 59.544H92.1069V66.2141H90.1059V59.544ZM90.1059 71.205H92.1069V80.7961H90.1059V71.205ZM93.211 67.203L95.028 67.663C94.798 68.1997 94.5755 68.7364 94.3609 69.273C94.1615 69.7944 93.9546 70.2468 93.74 70.6301L92.1759 70.17C92.2985 69.894 92.4213 69.5798 92.544 69.2271C92.682 68.8745 92.8045 68.5217 92.9119 68.169C93.0345 67.801 93.1343 67.479 93.211 67.203ZM87.392 67.64L89.0249 67.226C89.2702 67.686 89.485 68.1997 89.669 68.767C89.853 69.319 89.9755 69.7944 90.0369 70.193L88.312 70.676C88.266 70.2774 88.1509 69.7945 87.9669 69.2271C87.7982 68.6598 87.6066 68.1307 87.392 67.64Z" fill="white"/>
<path d="M33.1162 52.0001V41.8401H36.7377C37.5248 41.8401 38.178 41.9757 38.6972 42.2469C39.2198 42.5181 39.61 42.8934 39.868 43.373C40.126 43.8492 40.255 44.3999 40.255 45.025C40.255 45.6468 40.1243 46.1941 39.8631 46.6671C39.6051 47.1367 39.2148 47.5022 38.6923 47.7634C38.173 48.0247 37.5198 48.1553 36.7327 48.1553H33.9893V46.8357H36.5938C37.0899 46.8357 37.4934 46.7646 37.8043 46.6224C38.1185 46.4802 38.3483 46.2735 38.4938 46.0023C38.6394 45.7311 38.7121 45.4053 38.7121 45.025C38.7121 44.6413 38.6377 44.309 38.4889 44.0278C38.3434 43.7467 38.1135 43.5317 37.7993 43.3829C37.4884 43.2308 37.08 43.1547 36.574 43.1547H34.6491V52.0001H33.1162ZM38.1317 47.4162L40.6419 52.0001H38.8957L36.435 47.4162H38.1317ZM42.1203 52.0001V41.8401H48.4901V43.1597H43.6532V46.2553H48.1577V47.57H43.6532V50.6805H48.5497V52.0001H42.1203ZM58.9763 45.1441H57.4285C57.369 44.8133 57.2582 44.5223 57.0961 44.2709C56.9341 44.0196 56.7356 43.8063 56.5008 43.631C56.266 43.4557 56.003 43.3234 55.712 43.2341C55.4243 43.1448 55.1183 43.1001 54.7942 43.1001C54.2088 43.1001 53.6846 43.2473 53.2216 43.5417C52.7619 43.836 52.3981 44.2676 52.1302 44.8365C51.8656 45.4053 51.7333 46.0999 51.7333 46.9201C51.7333 47.7469 51.8656 48.4447 52.1302 49.0136C52.3981 49.5824 52.7636 50.0124 53.2266 50.3034C53.6896 50.5945 54.2105 50.74 54.7893 50.74C55.1101 50.74 55.4144 50.697 55.7021 50.611C55.9931 50.5217 56.2561 50.3911 56.4909 50.2191C56.7257 50.0471 56.9241 49.8371 57.0862 49.5891C57.2516 49.3377 57.3657 49.05 57.4285 48.7258L58.9763 48.7308C58.8936 49.2302 58.7332 49.6899 58.4951 50.11C58.2603 50.5267 57.9577 50.8872 57.5872 51.1914C57.2201 51.4924 56.8001 51.7256 56.3272 51.8909C55.8542 52.0563 55.3383 52.139 54.7794 52.139C53.8996 52.139 53.1158 51.9306 52.4279 51.5139C51.74 51.0939 51.1976 50.4936 50.8007 49.7131C50.4071 48.9326 50.2103 48.0016 50.2103 46.9201C50.2103 45.8353 50.4088 44.9043 50.8056 44.1271C51.2025 43.3465 51.7449 42.7479 52.4328 42.3312C53.1207 41.9112 53.9029 41.7012 54.7794 41.7012C55.3184 41.7012 55.8211 41.7789 56.2875 41.9343C56.7571 42.0865 57.1788 42.3114 57.5525 42.609C57.9262 42.9034 58.2355 43.2639 58.4802 43.6905C58.725 44.1138 58.8903 44.5983 58.9763 45.1441ZM60.8106 52.0001V41.8401H64.4321C65.2192 41.8401 65.8724 41.9757 66.3917 42.2469C66.9142 42.5181 67.3045 42.8934 67.5624 43.373C67.8204 43.8492 67.9494 44.3999 67.9494 45.025C67.9494 45.6468 67.8188 46.1941 67.5575 46.6671C67.2995 47.1367 66.9093 47.5022 66.3867 47.7634C65.8675 48.0247 65.2143 48.1553 64.4271 48.1553H61.6837V46.8357H64.2882C64.7843 46.8357 65.1878 46.7646 65.4987 46.6224C65.8129 46.4802 66.0427 46.2735 66.1883 46.0023C66.3338 45.7311 66.4065 45.4053 66.4065 45.025C66.4065 44.6413 66.3321 44.309 66.1833 44.0278C66.0378 43.7467 65.8079 43.5317 65.4937 43.3829C65.1829 43.2308 64.7744 43.1547 64.2684 43.1547H62.3435V52.0001H60.8106ZM65.8261 47.4162L68.3364 52.0001H66.5901L64.1295 47.4162H65.8261ZM76.3483 41.8401H77.8862V48.5225C77.8862 49.2335 77.7191 49.8636 77.3851 50.4126C77.0511 50.9583 76.5814 51.3882 75.9762 51.7024C75.371 52.0133 74.6615 52.1687 73.848 52.1687C73.0377 52.1687 72.3299 52.0133 71.7247 51.7024C71.1194 51.3882 70.6498 50.9583 70.3158 50.4126C69.9817 49.8636 69.8147 49.2335 69.8147 48.5225V41.8401H71.3476V48.3984C71.3476 48.8581 71.4485 49.2666 71.6503 49.6238C71.8553 49.981 72.1447 50.2621 72.5184 50.4671C72.8921 50.6689 73.3353 50.7698 73.848 50.7698C74.3639 50.7698 74.8087 50.6689 75.1824 50.4671C75.5595 50.2621 75.8472 49.981 76.0457 49.6238C76.2474 49.2666 76.3483 48.8581 76.3483 48.3984V41.8401ZM81.6478 41.8401V52.0001H80.1149V41.8401H81.6478ZM83.3792 43.1597V41.8401H91.2422V43.1597H88.0722V52.0001H86.5442V43.1597H83.3792Z" fill="white"/>
<defs>
<linearGradient id="paint0_linear_8_3537" x1="0" y1="62.04" x2="124.08" y2="62.04" gradientUnits="userSpaceOnUse">
<stop stop-color="#103455"/>
<stop offset="0.37" stop-color="#103357"/>
<stop offset="0.6" stop-color="#123360"/>
<stop offset="0.79" stop-color="#16336E"/>
<stop offset="0.96" stop-color="#1C3382"/>
<stop offset="1" stop-color="#1E3389"/>
</linearGradient>
<linearGradient id="paint1_linear_8_3537" x1="62.0417" y1="122.57" x2="62.0417" y2="1.5" gradientUnits="userSpaceOnUse">
<stop stop-color="#103455"/>
<stop offset="0.91" stop-color="#0B2A43"/>
</linearGradient>
<linearGradient id="paint2_linear_8_3537" x1="62.0406" y1="115.091" x2="62.0406" y2="8.98047" gradientUnits="userSpaceOnUse">
<stop stop-color="#103455"/>
<stop offset="0.33" stop-color="#172B58"/>
<stop offset="0.39" stop-color="#1A2959"/>
<stop offset="0.43" stop-color="#182855"/>
<stop offset="0.79" stop-color="#082637"/>
<stop offset="1" stop-color="#02262C"/>
</linearGradient>
<linearGradient id="paint3_linear_8_3537" x1="62.0492" y1="10.4492" x2="62.0492" y2="113.63" gradientUnits="userSpaceOnUse">
<stop stop-color="#103455"/>
<stop offset="1" stop-color="#081D2F"/>
</linearGradient>
</defs>
</svg>
