<svg width="145" height="123" viewBox="0 0 145 123" fill="none" xmlns="http://www.w3.org/2000/svg">
<path d="M109.915 16.1836L94.6245 15.3736C94.2845 15.3536 93.9546 15.4436 93.6746 15.6236L66.6245 32.9537L88.7446 8.26371L99.5846 3.06352C100.385 2.66352 100.705 1.69359 100.305 0.893593C99.9946 0.283593 99.3346 -0.0762896 98.6546 0.0137104L84.3546 2.09379C84.0146 2.14379 83.7046 2.29373 83.4646 2.53373L2.96457 75.2339C-0.175429 77.4339 -0.945451 81.7638 1.25455 84.9038C3.45455 88.0438 7.78459 88.8138 10.9246 86.6138C10.9746 86.5838 11.0245 86.5437 11.0645 86.5137L97.5146 22.9937L110.255 19.3638C111.115 19.1038 111.595 18.2038 111.335 17.3438C111.145 16.7038 110.575 16.2437 109.905 16.2037L109.915 16.1836ZM61.9646 45.3736L59.4746 41.3536L62.1646 39.6338L64.2946 43.6436L61.9646 45.3736ZM56.8846 49.1436L54.4345 44.5835L56.7546 43.0938L59.3546 47.3037L56.8745 49.1436H56.8846ZM51.9846 52.794L49.1746 47.9639L51.7146 46.3335L54.2646 51.0938L51.9746 52.794H51.9846ZM46.8745 56.5835L43.8046 51.3936L46.4546 49.6939L49.3745 54.7139L46.8745 56.5738V56.5835ZM85.3346 5.20365L94.8046 2.84379L87.0546 5.48393C86.8646 5.57393 86.6946 5.70381 86.5546 5.86381L56.4546 39.4639L16.6646 66.4136L85.3446 5.20365H85.3346ZM9.14456 83.9136C7.47456 85.1236 5.14454 84.7535 3.93454 83.0835C2.72454 81.4135 3.09456 79.0836 4.76456 77.8736C4.81456 77.8436 4.85457 77.804 4.90457 77.774L41.0746 53.1436L44.2546 58.524L9.13455 83.9136H9.14456ZM96.3546 19.9537C96.1646 20.0037 95.9946 20.0939 95.8346 20.2139L66.9146 41.6939L64.8946 37.8838L94.9746 18.6138L106.625 18.1338L96.3646 19.9439L96.3546 19.9537Z" fill="#221F20"/>
<path d="M143.756 69.1836L131.136 50.2637C130.846 49.8237 130.346 49.5635 129.826 49.5635H79.3663C78.8363 49.5635 78.3463 49.8237 78.0563 50.2637L65.4362 69.1836C65.0662 69.7436 65.0862 70.4739 65.4862 71.0039L103.336 121.464C103.636 121.864 104.096 122.094 104.596 122.094C105.096 122.094 105.556 121.864 105.856 121.464L143.706 71.0039C144.106 70.4739 144.126 69.7436 143.756 69.1836ZM139.506 68.4839H121.516L116.256 52.7139H128.996L139.506 68.4839ZM87.6962 71.6338L101.926 114.324L69.9162 71.6338H87.7062H87.6962ZM91.0262 71.6338H118.186L104.606 112.374L91.0262 71.6338ZM91.0262 68.4839L96.2862 52.7139H112.936L118.196 68.4839H91.0362H91.0262ZM121.506 71.6338H139.296L107.276 114.324L121.506 71.6338ZM80.2162 52.7139H92.9562L87.6962 68.4839H69.7062L80.2162 52.7139ZM104.286 117.474L104.606 117.374L104.926 117.474L104.606 117.894L104.286 117.474Z" fill="#040000"/>
<path d="M139.506 68.4839H121.506L116.246 52.7139H128.986L139.506 68.4839Z" fill="#C5D2E0"/>
<path d="M87.6962 71.6338L101.926 114.324L69.9062 71.6338H87.6962Z" fill="#C5D2E0"/>
<path d="M91.0234 71.6338H118.183L104.603 112.384L91.0234 71.6338Z" fill="#C5D2E0"/>
<path d="M91.0234 68.4839L96.2734 52.7139H112.923L118.183 68.4839H91.0234Z" fill="#C5D2E0"/>
<path d="M121.503 71.6338H139.293L107.273 114.324L121.503 71.6338Z" fill="#C5D2E0"/>
<path d="M80.2131 52.7139H92.9531L87.6931 68.4839H69.7031L80.2131 52.7139Z" fill="#C5D2E0"/>
</svg>
