<svg width="99" height="99" viewBox="0 0 99 99" fill="none" xmlns="http://www.w3.org/2000/svg">
<path d="M93.89 98.5098H4.62006C2.07006 98.5098 0 96.4401 0 93.8901V73.29C0 72.44 0.690039 71.75 1.54004 71.75C2.39004 71.75 3.08002 72.44 3.08002 73.29V93.8901C3.08002 94.7401 3.77006 95.4302 4.62006 95.4302H93.89C94.74 95.4302 95.4301 94.7401 95.4301 93.8901V73.29C95.4301 72.44 96.12 71.75 96.97 71.75C97.82 71.75 98.51 72.44 98.51 73.29V93.8901C98.51 96.4401 96.44 98.5098 93.89 98.5098Z" fill="#040000"/>
<path d="M98.2089 71.4502L90.1089 51.0898C89.7889 50.2998 88.8989 49.91 88.1089 50.23C87.3189 50.54 86.9289 51.44 87.2489 52.23L95.299 72.4502C95.5689 73.3902 95.3889 74.3802 94.799 75.1602C94.209 75.9402 93.3189 76.3799 92.3489 76.3799H78.989C79.749 73.6799 80.1589 70.8698 80.1589 68.0098C80.1589 52.6898 68.9889 39.8702 54.1989 37.4902L67.9189 23.7598C68.0389 23.6398 68.1389 23.5199 68.2089 23.3599C68.2189 23.3299 68.229 23.3 68.239 23.27C68.239 23.25 68.2489 23.23 68.2589 23.21C68.3189 23.05 68.3489 22.8902 68.3489 22.7202C68.3489 22.6902 68.3489 22.6701 68.3489 22.6401C68.3489 22.3201 68.2489 22.0002 68.049 21.7402L62.2589 14.1602C61.9689 13.7802 61.5189 13.5498 61.0389 13.5498H37.4389C36.9589 13.5498 36.5089 13.7702 36.2189 14.1602L30.4489 21.7402C30.3889 21.8202 30.3489 21.91 30.2989 22C30.2789 22.04 30.2489 22.0801 30.2389 22.1201C30.1789 22.2701 30.1589 22.4298 30.1489 22.5898C30.1489 22.6598 30.1489 22.7198 30.1489 22.7798C30.1489 22.8898 30.1789 23.0101 30.2189 23.1201C30.2389 23.1801 30.2489 23.2398 30.2789 23.2998C30.2789 23.3198 30.2789 23.3401 30.2989 23.3501C30.3689 23.4901 30.4589 23.6102 30.5689 23.7202C30.5689 23.7202 30.5789 23.74 30.5889 23.75L44.3189 37.48C29.5189 39.86 18.3489 52.68 18.3489 68C18.3489 70.87 18.7489 73.6701 19.5189 76.3701H6.15893C5.18893 76.3701 4.28892 75.9199 3.70892 75.1499C3.11892 74.3699 2.93893 73.3798 3.15893 72.5898L11.2589 52.23C11.5689 51.44 11.1889 50.55 10.3989 50.23C9.60892 49.92 8.71892 50.2998 8.39892 51.0898L0.258908 71.6001C-0.281092 73.4801 0.0889081 75.4498 1.25891 77.0098C2.42891 78.5698 4.21894 79.46 6.16894 79.46H92.3589C94.3089 79.46 96.0989 78.5698 97.2689 77.0098C98.4489 75.4498 98.8089 73.48 98.2189 71.46L98.2089 71.4502ZM50.7889 36.54V26.6602L54.8389 24.2002H63.1089L50.7889 36.5298V36.54ZM38.2089 16.6201H60.2789L63.7189 21.1299H54.4089C54.1289 21.1299 53.8489 21.2101 53.6089 21.3501L49.2489 23.9902L44.8789 21.3501C44.6389 21.2001 44.3589 21.1299 44.0789 21.1299H34.7789L38.2089 16.6201ZM35.3889 24.21H43.6489L47.7089 26.6602V36.5298L35.3889 24.21ZM21.429 68C21.429 53.43 32.6489 41.37 47.0889 40.25L48.1689 41.3301C48.4589 41.6201 48.8489 41.7798 49.2589 41.7798C49.6689 41.7798 50.0589 41.6201 50.3489 41.3301L51.429 40.25C65.8689 41.37 77.0889 53.4202 77.0889 67.9902C77.0889 70.8702 76.6289 73.6799 75.7789 76.3599H70.9089C71.9489 73.7099 72.4789 70.9102 72.4789 67.9902C72.4789 55.1902 62.0689 44.7798 49.2689 44.7798C36.4689 44.7798 26.059 55.1902 26.059 67.9902C26.059 70.9102 26.5889 73.7199 27.6289 76.3599H22.7489C21.8889 73.6799 21.4389 70.8702 21.4389 67.9902L21.429 68ZM30.9589 76.3799C29.7389 73.7699 29.119 70.9598 29.119 68.0098C29.119 56.9098 38.1489 47.8799 49.2489 47.8799C60.3489 47.8799 69.3789 56.9098 69.3789 68.0098C69.3789 70.9598 68.7589 73.7699 67.5389 76.3799H30.9589Z" fill="#040000"/>
<path d="M85.6188 55.0601H74.7988C73.9488 55.0601 73.2587 54.37 73.2587 53.52C73.2587 52.67 73.9488 51.98 74.7988 51.98H85.6188C86.4788 51.98 87.1488 51.3002 87.1588 50.4302L87.2087 4.62012C87.2087 3.77012 86.5188 3.08008 85.6688 3.08008H12.8387C11.9887 3.08008 11.2988 3.77012 11.2988 4.62012L11.3588 50.4399C11.3588 51.2999 12.0387 51.98 12.8987 51.98H23.7087C24.5587 51.98 25.2487 52.67 25.2487 53.52C25.2487 54.37 24.5587 55.0601 23.7087 55.0601H12.8987C10.3487 55.0601 8.27875 52.9899 8.27875 50.4399L8.21875 4.62012C8.21875 2.07012 10.2887 0 12.8387 0H85.6688C88.2188 0 90.2888 2.07012 90.2888 4.62012L90.2388 50.4399C90.2188 52.9899 88.1488 55.0601 85.6188 55.0601Z" fill="#040000"/>
<path d="M34.7812 21.1299H44.0812C44.3612 21.1299 44.6412 21.2101 44.8812 21.3501L49.2512 23.9902L53.6113 21.3501C53.8513 21.2001 54.1313 21.1299 54.4113 21.1299H63.7213L60.2812 16.6201H38.2112L34.7812 21.1299Z" fill="#C5D2E0"/>
<path d="M47.7106 36.5298L35.3906 24.21H43.6606L47.7106 26.6602V36.5298Z" fill="#C5D2E0"/>
<path d="M50.7891 26.6602L54.8391 24.21H63.1091L50.7891 36.54V26.6602Z" fill="#C5D2E0"/>
<path d="M21.4297 68C21.4297 53.43 32.6497 41.37 47.0897 40.25L48.1697 41.3301C48.4597 41.6201 48.8496 41.7798 49.2596 41.7798C49.6696 41.7798 50.0597 41.6201 50.3497 41.3301L51.4297 40.25C65.8697 41.37 77.0897 53.4202 77.0897 67.9902C77.0897 70.8702 76.6297 73.6799 75.7797 76.3599H70.9097C71.9497 73.7099 72.4797 70.9102 72.4797 67.9902C72.4797 55.1902 62.0697 44.7798 49.2697 44.7798C36.4697 44.7798 26.0597 55.1902 26.0597 67.9902C26.0597 70.9102 26.5896 73.7199 27.6296 76.3599H22.7496C21.8896 73.6799 21.4396 70.8702 21.4396 67.9902L21.4297 68Z" fill="#E5DBCC"/>
</svg>
