<svg width="116" height="116" viewBox="0 0 116 116" fill="none" xmlns="http://www.w3.org/2000/svg">
<path d="M52.7176 13.7324H35.5577C33.6877 11.6424 33.0677 8.52261 34.3577 5.72261C34.9177 4.51261 35.7377 3.53247 36.7377 2.83247C39.1777 1.10247 42.6076 1.00238 45.2076 2.98238L59.1877 13.6626V13.7324H52.7176Z" fill="#EDE2D0"/>
<path d="M84.0179 5.7228C85.3079 8.5228 84.6879 11.633 82.8179 13.713L65.548 13.7228H59.188V13.653L73.188 2.9728C75.788 1.0028 79.2079 1.09289 81.6379 2.82289C82.6379 3.52289 83.4579 4.50303 84.0179 5.71303V5.7228Z" fill="#EDE2D0"/>
<path d="M86.0683 78.3921C90.2583 76.0021 94.1684 72.652 99.8784 68.752C101.608 67.572 103.498 66.332 105.618 65.062C111.878 61.312 115.148 70.4922 113.478 76.0122C110.688 85.2722 94.2183 99.5319 87.5283 104.732C84.4683 107.132 81.7583 108.822 79.1683 109.972C77.6183 110.692 76.1283 111.222 74.6583 111.592C64.5783 114.162 53.8883 113.772 43.5783 113.872C29.7383 114.002 15.9283 113.542 2.09833 112.932H1.2583V81.252H1.51831C6.77831 76.872 12.3583 72.0521 18.7183 69.6821C19.0383 69.5621 19.3583 69.4523 19.6783 69.3423C23.0783 68.2023 26.6983 67.8022 30.5883 68.5122C35.5483 69.4122 40.8683 70.7921 45.7083 72.3721C47.6883 73.0221 49.6884 73.5121 51.6884 73.9121C52.0284 73.9821 52.3683 74.0421 52.7083 74.1021C56.0283 74.6921 59.4084 75.0324 62.7484 75.1924C63.6884 75.2424 64.5983 75.1921 65.5383 75.1421C65.8883 75.1121 66.2283 75.082 66.5783 75.042C68.5883 74.842 70.5883 74.5523 72.6083 74.5923C76.0483 74.6923 78.5083 76.8021 79.4183 79.6221C79.5183 79.9221 79.5983 80.242 79.6683 80.562L80.5583 80.3623L85.7383 77.772L86.0583 78.3623L86.0683 78.3921Z" fill="white"/>
<path d="M102.817 16.1724V27.562C102.817 28.912 101.717 30.002 100.407 30.002H65.5474V13.7319H100.407C101.717 13.7319 102.817 14.8224 102.817 16.1724Z" fill="#C5D2E0"/>
<path d="M98.6995 63.8726H99.7195V68.5225L99.8696 68.7427C94.1596 72.6427 90.2496 75.9928 86.0596 78.3828L85.7396 77.7925L80.5596 80.3828L79.6696 80.5825C79.5996 80.2625 79.5196 79.9526 79.4196 79.6426C78.5096 76.8226 76.0496 74.7128 72.6096 74.6128C70.5896 74.5728 68.5895 74.8625 66.5795 75.0625V69.2026H65.5396V29.9927H99.0895V35.0425H98.6896V63.8628L98.6995 63.8726Z" fill="#C5D2E0"/>
<path d="M65.5497 69.2129H66.5897V75.0728C66.2397 75.1128 65.8997 75.1429 65.5497 75.1729C64.6097 75.2229 63.6997 75.2627 62.7597 75.2227C59.4097 75.0627 56.0397 74.7228 52.7197 74.1328C52.3797 74.0728 52.0397 74.0029 51.6997 73.9429L51.7297 73.7925V68.4028H52.7197V13.7427H65.5497V69.2227V69.2129Z" fill="#EDE2D0"/>
<path d="M52.7202 30.0024V68.3926H51.7302V73.7827L51.7001 73.9326C49.7001 73.5326 47.7002 73.0426 45.7202 72.3926C40.8802 70.8026 35.5602 69.4327 30.6002 68.5327C26.7102 67.8227 23.0802 68.2228 19.6902 69.3628C19.3702 69.4728 19.0402 69.5826 18.7302 69.7026L18.6802 69.5625V64.2026L19.7001 63.8926V30.6128L18.8201 30.0225H52.7302L52.7202 30.0024Z" fill="#C5D2E0"/>
<path d="M52.7169 13.7319V30.002H17.9769C16.6469 30.002 15.5669 28.912 15.5669 27.562V16.1724C15.5669 14.8224 16.6469 13.7319 17.9769 13.7319H52.7169Z" fill="#C5D2E0"/>
<path d="M52.7208 30.002H17.9808C16.6508 30.002 15.5708 28.912 15.5708 27.562V16.1724C15.5708 14.8224 16.6508 13.7319 17.9808 13.7319H100.411C101.721 13.7319 102.821 14.8224 102.821 16.1724V27.562C102.821 28.912 101.721 30.002 100.411 30.002H65.5508" stroke="#040000" stroke-width="3.04" stroke-linecap="round" stroke-linejoin="round"/>
<path d="M98.6997 64.0825V68.7827V30.0024" stroke="#040000" stroke-width="3.04" stroke-linecap="round" stroke-linejoin="round"/>
<path d="M19.6919 68.7832V30.5933" stroke="#040000" stroke-width="3.04" stroke-linecap="round" stroke-linejoin="round"/>
<path d="M52.7192 68.7822V73.292V30.002V13.7319V13.7222" stroke="#040000" stroke-width="3.04" stroke-linecap="round" stroke-linejoin="round"/>
<path d="M65.5513 69.8228V74.1128V30.0024V14.1128" stroke="#040000" stroke-width="3.04" stroke-linecap="round" stroke-linejoin="round"/>
<path d="M35.5616 13.7231C33.6916 11.6431 33.0716 8.53287 34.3616 5.73287C34.9216 4.52287 35.7416 3.54322 36.7416 2.84322C39.1816 1.11322 42.6115 1.01312 45.2115 2.99312L59.1916 13.6733" stroke="#040000" stroke-width="3.04" stroke-linecap="round" stroke-linejoin="round"/>
<path d="M59.1919 13.6627L73.1919 2.98256C75.7919 1.01256 79.2118 1.10266 81.6418 2.83266C82.6418 3.53266 83.4619 4.5128 84.0219 5.7228C85.3119 8.5228 84.6918 11.633 82.8218 13.713" stroke="#040000" stroke-width="3.04" stroke-linecap="round" stroke-linejoin="round"/>
<path d="M1.52002 81.2625C6.78002 76.8825 12.36 72.0626 18.72 69.6926C19.04 69.5726 19.3601 69.4623 19.6801 69.3523C23.0801 68.2123 26.7 67.8122 30.59 68.5222C35.55 69.4222 40.87 70.8026 45.71 72.3826C47.69 73.0326 49.6901 73.5226 51.6901 73.9226C52.0301 73.9926 52.37 74.0526 52.71 74.1126C56.03 74.7026 59.4101 75.0424 62.7501 75.2024C63.6901 75.2524 64.6 75.2026 65.54 75.1526C65.89 75.1226 66.23 75.0925 66.58 75.0525C68.59 74.8525 70.59 74.5623 72.61 74.6023C76.05 74.7023 78.51 76.8126 79.42 79.6326C79.52 79.9326 79.6 80.2525 79.67 80.5725C79.98 82.1525 79.8501 83.8925 79.1901 85.5925C77.7901 89.1725 74.1601 90.3325 70.6901 90.7625C59.8701 92.1425 48.8201 91.5225 37.9401 91.7825" stroke="#040000" stroke-width="3.04" stroke-linecap="round" stroke-linejoin="round"/>
<path d="M79.8481 82.6724C80.0281 82.5724 103.508 66.332 105.618 65.062C111.878 61.312 115.148 70.4922 113.478 76.0122C110.688 85.2722 94.2181 99.5319 87.5281 104.732C84.4681 107.132 81.7582 108.822 79.1682 109.972C77.6182 110.692 76.1281 111.222 74.6581 111.592C64.5781 114.162 53.8881 113.772 43.5781 113.872C29.7381 114.002 15.9281 113.542 2.09814 112.932" stroke="#040000" stroke-width="3.04" stroke-linecap="round" stroke-linejoin="round"/>
</svg>
