<svg width="131" height="102" viewBox="0 0 131 102" fill="none" xmlns="http://www.w3.org/2000/svg">
<path d="M125.24 26.8999C122.54 26.8999 120.42 28.9899 120.42 31.6499V67.1499H118.19V39.25C118.19 34.6 115.73 30.87 113.34 27.27L113.14 26.96C112.03 25.28 110.23 24.3198 108.22 24.3198H104.59C102.43 24.3198 100.56 25.39 99.48 27.27L92.61 39.1797H81.36C77.97 39.1797 75.32 41.8698 75.32 45.2998C75.32 46.3798 75.58 47.38 76.04 48.25H54.03C54.49 47.38 54.75 46.3798 54.75 45.2998C54.75 41.8698 52.1 39.1797 48.71 39.1797H37.46L30.58 27.27C29.49 25.4 27.63 24.3198 25.47 24.3198H21.84C19.83 24.3198 18.03 25.28 16.92 26.96L16.7 27.29C14.32 30.88 11.86 34.6 11.86 39.25V67.1499H9.64001V31.6499C9.64001 28.9899 7.52001 26.8999 4.82001 26.8999C2.12001 26.8999 0 28.9899 0 31.6499V67.27C0 72.52 4.27001 76.79 9.51001 76.79H16.32L11.01 96.6196C10.73 97.6796 10.8701 98.7897 11.4301 99.7397C11.9801 100.7 12.8701 101.38 13.9301 101.66C14.2901 101.75 14.64 101.8 15 101.8C16.82 101.8 18.49 100.58 18.98 98.75L24.86 76.79H26.5L32.3701 98.6597C32.8601 100.5 34.53 101.72 36.35 101.72C36.7 101.72 37.06 101.67 37.42 101.58C39.61 100.98 40.91 98.7198 40.33 96.5298L35.04 76.79H37.48L42.96 97.23C43.46 99.11 44.78 100.61 46.57 101.35C47.33 101.67 48.14 101.82 48.94 101.82C50.01 101.82 51.08 101.54 52.04 100.98C54.55 99.54 55.7301 96.72 54.9901 93.98L47.35 65.46C46.62 62.71 44.21 60.8696 41.38 60.8696H32.1V50.3198L32.95 51.0298C33.24 51.2698 33.6 51.3999 33.97 51.3999H39.78V57.3398C39.78 58.2198 40.49 58.9199 41.36 58.9199H55.96V100.11C55.96 100.99 56.67 101.69 57.54 101.69H72.51C73.39 101.69 74.09 100.98 74.09 100.11V58.9199H88.69C89.57 58.9199 90.27 58.2098 90.27 57.3398V51.3999H96.09C96.46 51.3999 96.82 51.2698 97.11 51.0298L97.96 50.3198V60.8696H88.6801C85.8401 60.8696 83.43 62.72 82.7 65.46L75.06 93.98C74.33 96.73 75.52 99.54 78.02 100.98C78.98 101.54 80.0501 101.82 81.1201 101.82C81.9201 101.82 82.72 101.66 83.48 101.35C85.27 100.61 86.58 99.11 87.09 97.23L92.58 76.7798H95.02L89.72 96.52C89.14 98.71 90.44 100.97 92.64 101.57C92.99 101.66 93.35 101.71 93.7 101.71C94.41 101.71 95.12 101.52 95.76 101.15C96.72 100.6 97.4001 99.7099 97.6801 98.6499L103.54 76.7798H105.19L111.07 98.7397C111.35 99.7997 112.03 100.69 112.99 101.24C113.63 101.61 114.34 101.8 115.05 101.8C115.41 101.8 115.76 101.75 116.11 101.66C117.17 101.38 118.06 100.69 118.61 99.7397C119.16 98.7897 119.31 97.6796 119.03 96.6196L113.71 76.79H120.53C125.78 76.79 130.04 72.52 130.04 67.27V31.6499C130.04 28.9899 127.92 26.8999 125.22 26.8999H125.24ZM9.52002 73.6196C6.02002 73.6196 3.18005 70.77 3.18005 67.27V31.6499C3.18005 30.7499 3.89002 30.0698 4.83002 30.0698C5.77002 30.0698 6.48004 30.7499 6.48004 31.6499V67.1997C6.48004 68.9197 7.88004 70.3198 9.60004 70.3198H11.8701V70.5996C11.8701 71.6996 12.16 72.7296 12.66 73.6196H9.52002ZM15.92 97.9297C15.86 98.1697 15.7 98.37 15.48 98.5C15.26 98.63 15 98.6596 14.75 98.5996C14.51 98.5396 14.3101 98.3797 14.1801 98.1597C14.0501 97.9397 14.02 97.6799 14.08 97.4399L19.61 76.79H21.58L15.92 97.9297ZM37.27 97.3398C37.41 97.8498 37.1 98.3698 36.6 98.5098C36.09 98.6398 35.57 98.3396 35.44 97.8296L29.79 76.7798H31.76L37.27 97.3398ZM34.54 48.2397L31.53 45.7197C31.06 45.3197 30.4 45.24 29.84 45.5C29.28 45.76 28.9301 46.3199 28.9301 46.9399V62.4697C28.9301 63.3497 29.64 64.0498 30.51 64.0498H41.38C42.79 64.0498 43.93 64.93 44.29 66.29L51.9301 94.8101C52.3001 96.1901 51.74 97.4997 50.46 98.2397C49.64 98.7197 48.66 98.7799 47.79 98.4199C46.92 98.0599 46.28 97.3199 46.03 96.3999L40.2401 74.7798C40.0501 74.0898 39.43 73.6099 38.71 73.6099H18.06C16.39 73.6099 15.04 72.2498 15.04 70.5898V39.2397C15.04 35.5497 17.13 32.3898 19.35 29.0298L19.57 28.6997C20.1 27.8997 20.89 27.48 21.85 27.48H25.48C26.5 27.48 27.34 27.9696 27.85 28.8496L35.19 41.5498C35.47 42.0398 36 42.3398 36.56 42.3398H48.72C50.33 42.3398 51.59 43.64 51.59 45.29C51.59 46.94 50.33 48.2397 48.72 48.2397H34.55H34.54ZM87.1201 55.77H72.52C71.64 55.77 70.94 56.4796 70.94 57.3496V98.54H59.14V57.3496C59.14 56.4696 58.43 55.77 57.56 55.77H42.96V51.4199H87.14V55.77H87.1201ZM94.63 97.8398C94.57 98.0798 94.4101 98.2899 94.1801 98.4199C93.9601 98.5499 93.7 98.58 93.47 98.52C92.96 98.38 92.65 97.8496 92.79 97.3496L98.31 76.79H100.27L94.63 97.8398ZM115.98 97.4297C116.04 97.6697 116.01 97.9196 115.88 98.1396C115.75 98.3596 115.55 98.5198 115.3 98.5898C115.06 98.6498 114.8 98.6197 114.58 98.4897C114.36 98.3597 114.2 98.1599 114.14 97.9199L108.48 76.7798H110.44L115.98 97.4297ZM115.02 70.5898C115.02 72.2598 113.67 73.6099 112 73.6099H91.36C90.64 73.6099 90.02 74.0898 89.83 74.7798L84.03 96.3999C83.78 97.3199 83.14 98.0599 82.27 98.4199C81.4 98.7799 80.43 98.7097 79.61 98.2397C78.33 97.4997 77.77 96.1901 78.13 94.8101L85.77 66.29C86.13 64.95 87.3 64.0498 88.69 64.0498H99.56C100.44 64.0498 101.14 63.3397 101.14 62.4697V46.9399C101.14 46.3199 100.78 45.76 100.23 45.5C99.68 45.24 99.01 45.3297 98.54 45.7197L95.53 48.2397H81.36C79.75 48.2397 78.4901 46.94 78.4901 45.29C78.4901 43.64 79.75 42.3398 81.36 42.3398H93.52C94.09 42.3398 94.61 42.0398 94.89 41.5498L102.22 28.8496C102.73 27.9696 103.57 27.48 104.59 27.48H108.22C109.18 27.48 109.97 27.8997 110.49 28.6997L110.69 29.0098C112.91 32.3698 115.01 35.5397 115.01 39.2397V70.5898H115.02ZM126.89 67.27C126.89 70.77 124.04 73.6196 120.55 73.6196H117.4C117.9 72.7296 118.19 71.6896 118.19 70.5996V70.3198H120.46C122.18 70.3198 123.58 68.9197 123.58 67.1997V31.6499C123.58 30.7499 124.29 30.0698 125.23 30.0698C126.17 30.0698 126.88 30.7499 126.88 31.6499V67.27H126.89ZM101.57 21.3999C107.47 21.3999 112.27 16.5997 112.27 10.6997C112.27 4.79971 107.47 0 101.57 0C95.67 0 90.86 4.79971 90.86 10.6997C90.86 16.5997 95.67 21.3999 101.57 21.3999ZM101.57 3.15967C105.72 3.15967 109.1 6.53971 109.1 10.6997C109.1 14.8597 105.72 18.23 101.57 18.23C97.42 18.23 94.03 14.8497 94.03 10.6997C94.03 6.54971 97.41 3.15967 101.57 3.15967ZM28.5 21.3999C34.4 21.3999 39.2 16.5997 39.2 10.6997C39.2 4.79971 34.4 0 28.5 0C22.6 0 17.8 4.79971 17.8 10.6997C17.8 16.5997 22.6 21.3999 28.5 21.3999ZM28.5 3.15967C32.65 3.15967 36.03 6.53971 36.03 10.6997C36.03 14.8597 32.65 18.23 28.5 18.23C24.35 18.23 20.97 14.8497 20.97 10.6997C20.97 6.54971 24.35 3.15967 28.5 3.15967Z" fill="#040000"/>
</svg>
