<svg width="92" height="539" viewBox="0 0 92 539" fill="none" xmlns="http://www.w3.org/2000/svg">
<g clip-path="url(#clip0_1_4761)">
<path d="M7.62172 496.559C5.86172 498.789 3.40172 503.939 3.40172 511.329C3.40172 526.449 13.3617 531.729 20.7517 531.729C31.0717 531.729 36.5717 526.339 41.8517 513.209C47.7117 498.789 54.0417 490.939 67.4017 490.939C80.7617 490.939 91.2017 500.199 91.2017 517.899C91.2017 525.169 88.8617 533.609 85.2217 538.529L81.9417 536.419C85.4617 531.259 87.8017 524.819 87.8017 517.669C87.8017 503.599 79.1317 495.279 67.8717 495.279C57.3217 495.279 51.1117 500.319 46.0717 513.329C41.0317 527.629 33.7617 535.949 21.8117 535.949C9.03172 535.949 0.0117188 525.519 0.0117188 511.329C0.0117188 503.239 2.35172 497.149 4.35172 494.449L7.63172 496.559H7.62172Z" fill="#AA8E67"/>
<path d="M89.9102 406.18V450.25H1.41016V408.29H5.04016V446.15H41.3802V410.4H45.0102V446.15H86.2701V406.18H89.9002H89.9102Z" fill="#AA8E67"/>
<path d="M46.9992 337.84C49.2292 330.57 56.0292 326 66.1092 323.89C80.5292 320.84 86.3892 319.2 89.9092 317.33V321.67C87.3292 323.08 79.3592 325.07 68.1092 327.41C55.0992 330.22 48.2992 335.85 48.2992 348.04V363.04H89.9092V367.14H2.57922C1.40922 361.87 0.699219 354.6 0.699219 349.21C0.699219 337.96 3.15922 331.04 8.19922 326.24C11.7192 322.61 17.6992 320.26 23.6692 320.26C35.6292 320.26 43.1292 327.18 46.7592 337.84H46.9892H46.9992ZM44.8892 348.5C44.8892 334.32 36.6792 324.59 24.4892 324.59C8.77922 324.59 4.08922 336.9 4.08922 349.79C4.08922 355.89 5.02922 360.81 5.60922 363.04H44.8792V348.5H44.8892Z" fill="#AA8E67"/>
<path d="M1.41016 224.13L89.9102 257.3V261.05L1.41016 290.59V286.02L50.5202 269.61C63.7702 265.16 74.6702 261.52 84.4002 258.94V258.71C74.5502 256.01 63.1802 251.91 50.5202 247.11L1.41016 228.7V224.13Z" fill="#AA8E67"/>
<path d="M1.41016 191.54V187.44H89.9102V191.54H1.41016Z" fill="#AA8E67"/>
<path d="M86.6183 82.5295C88.9583 87.0995 91.1883 95.7795 91.1883 106.68C91.1883 126.96 78.4083 147.82 46.0583 147.82C20.3883 147.82 -0.0117188 132 -0.0117188 103.39C-0.0117188 92.1395 2.44828 85.9195 3.85828 83.1095L7.25828 84.7495C4.91828 89.3195 3.26828 95.4195 3.26828 103.04C3.26828 128.12 20.0283 143.48 46.4083 143.48C71.3783 143.48 87.7883 129.06 87.7883 104.56C87.7883 96.7095 86.1483 89.4395 83.4483 84.1595L86.6083 82.5195L86.6183 82.5295Z" fill="#AA8E67"/>
<path d="M89.9102 0V44.07H1.41016V2.11H5.04016V39.97H41.3802V4.22H45.0102V39.97H86.2701V0H89.9002H89.9102Z" fill="#AA8E67"/>
</g>
<defs>
<clipPath id="clip0_1_4761">
<rect width="91.2" height="538.52" fill="white"/>
</clipPath>
</defs>
</svg>
