<svg width="86" height="110" viewBox="0 0 86 110" fill="none" xmlns="http://www.w3.org/2000/svg">
<path d="M18.6403 97.8394C21.8325 97.8394 24.4203 95.2518 24.4203 92.0596C24.4203 88.8674 21.8325 86.2793 18.6403 86.2793C15.4481 86.2793 12.8604 88.8674 12.8604 92.0596C12.8604 95.2518 15.4481 97.8394 18.6403 97.8394Z" fill="white"/>
<path d="M42.82 97.8394C46.0122 97.8394 48.6 95.2518 48.6 92.0596C48.6 88.8674 46.0122 86.2793 42.82 86.2793C39.6278 86.2793 37.04 88.8674 37.04 92.0596C37.04 95.2518 39.6278 97.8394 42.82 97.8394Z" fill="white"/>
<path d="M66.82 97.8394C70.0122 97.8394 72.6 95.2518 72.6 92.0596C72.6 88.8674 70.0122 86.2793 66.82 86.2793C63.6278 86.2793 61.04 88.8674 61.04 92.0596C61.04 95.2518 63.6278 97.8394 66.82 97.8394Z" fill="white"/>
<path d="M66.82 73.0098C70.0122 73.0098 72.6 70.4222 72.6 67.23C72.6 64.0378 70.0122 61.4502 66.82 61.4502C63.6278 61.4502 61.04 64.0378 61.04 67.23C61.04 70.4222 63.6278 73.0098 66.82 73.0098Z" fill="white"/>
<path d="M42.82 73.0098C46.0122 73.0098 48.6 70.4222 48.6 67.23C48.6 64.0378 46.0122 61.4502 42.82 61.4502C39.6278 61.4502 37.04 64.0378 37.04 67.23C37.04 70.4222 39.6278 73.0098 42.82 73.0098Z" fill="white"/>
<path d="M18.6403 73.0098C21.8325 73.0098 24.4203 70.4222 24.4203 67.23C24.4203 64.0378 21.8325 61.4502 18.6403 61.4502C15.4481 61.4502 12.8604 64.0378 12.8604 67.23C12.8604 70.4222 15.4481 73.0098 18.6403 73.0098Z" fill="white"/>
<path d="M18.6403 37.6201C21.8303 37.6201 24.4203 40.2099 24.4203 43.3999C24.4203 46.5899 21.8303 49.1802 18.6403 49.1802C15.4503 49.1802 12.8604 46.5899 12.8604 43.3999C12.8604 40.2099 15.4503 37.6201 18.6403 37.6201Z" fill="white"/>
<path d="M42.82 37.6201C46.01 37.6201 48.6 40.2099 48.6 43.3999C48.6 46.5899 46.01 49.1802 42.82 49.1802C39.63 49.1802 37.04 46.5899 37.04 43.3999C37.04 40.2099 39.63 37.6201 42.82 37.6201Z" fill="white"/>
<path d="M66.82 37.6201C70.01 37.6201 72.6 40.2099 72.6 43.3999C72.6 46.5899 70.01 49.1802 66.82 49.1802C63.63 49.1802 61.04 46.5899 61.04 43.3999C61.04 40.2099 63.63 37.6201 66.82 37.6201Z" fill="white"/>
<path d="M71.1884 8.7002H14.7783V24.6499H71.1884V8.7002Z" fill="white"/>
<path d="M84.42 1.29004V108.17H1.29004V1.29004H84.42ZM71.1901 24.6499V8.7002H14.78V24.6499H71.1901ZM72.6 43.3999C72.6 40.2099 70.01 37.6201 66.82 37.6201C63.63 37.6201 61.04 40.2099 61.04 43.3999C61.04 46.5899 63.63 49.1802 66.82 49.1802C70.01 49.1802 72.6 46.5899 72.6 43.3999ZM72.6 67.23C72.6 64.04 70.01 61.4502 66.82 61.4502C63.63 61.4502 61.04 64.04 61.04 67.23C61.04 70.42 63.63 73.0098 66.82 73.0098C70.01 73.0098 72.6 70.42 72.6 67.23ZM72.6 92.0601C72.6 88.8701 70.01 86.2798 66.82 86.2798C63.63 86.2798 61.04 88.8701 61.04 92.0601C61.04 95.2501 63.63 97.8398 66.82 97.8398C70.01 97.8398 72.6 95.2501 72.6 92.0601ZM48.6 43.3999C48.6 40.2099 46.01 37.6201 42.82 37.6201C39.63 37.6201 37.04 40.2099 37.04 43.3999C37.04 46.5899 39.63 49.1802 42.82 49.1802C46.01 49.1802 48.6 46.5899 48.6 43.3999ZM48.6 67.23C48.6 64.04 46.01 61.4502 42.82 61.4502C39.63 61.4502 37.04 64.04 37.04 67.23C37.04 70.42 39.63 73.0098 42.82 73.0098C46.01 73.0098 48.6 70.42 48.6 67.23ZM48.6 92.0601C48.6 88.8701 46.01 86.2798 42.82 86.2798C39.63 86.2798 37.04 88.8701 37.04 92.0601C37.04 95.2501 39.63 97.8398 42.82 97.8398C46.01 97.8398 48.6 95.2501 48.6 92.0601ZM24.42 43.3999C24.42 40.2099 21.83 37.6201 18.64 37.6201C15.45 37.6201 12.86 40.2099 12.86 43.3999C12.86 46.5899 15.45 49.1802 18.64 49.1802C21.83 49.1802 24.42 46.5899 24.42 43.3999ZM24.42 67.23C24.42 64.04 21.83 61.4502 18.64 61.4502C15.45 61.4502 12.86 64.04 12.86 67.23C12.86 70.42 15.45 73.0098 18.64 73.0098C21.83 73.0098 24.42 70.42 24.42 67.23ZM24.42 92.0601C24.42 88.8701 21.83 86.2798 18.64 86.2798C15.45 86.2798 12.86 88.8701 12.86 92.0601C12.86 95.2501 15.45 97.8398 18.64 97.8398C21.83 97.8398 24.42 95.2501 24.42 92.0601Z" fill="#C7E3DC"/>
<path d="M84.42 1.29004H1.29004V108.17H84.42V1.29004Z" stroke="#040000" stroke-width="2.58" stroke-linecap="round" stroke-linejoin="round"/>
<path d="M71.1884 8.7002H14.7783V24.6499H71.1884V8.7002Z" stroke="#040000" stroke-width="2.58" stroke-linecap="round" stroke-linejoin="round"/>
<path d="M24.4203 43.3999C24.4203 46.5899 21.8303 49.1802 18.6403 49.1802C15.4503 49.1802 12.8604 46.5899 12.8604 43.3999C12.8604 40.2099 15.4503 37.6201 18.6403 37.6201C21.8303 37.6201 24.4203 40.2099 24.4203 43.3999Z" stroke="#040000" stroke-width="2.58" stroke-linecap="round" stroke-linejoin="round"/>
<path d="M72.6 43.3999C72.6 46.5899 70.01 49.1802 66.82 49.1802C63.63 49.1802 61.04 46.5899 61.04 43.3999C61.04 40.2099 63.63 37.6201 66.82 37.6201C70.01 37.6201 72.6 40.2099 72.6 43.3999Z" stroke="#040000" stroke-width="2.58" stroke-linecap="round" stroke-linejoin="round"/>
<path d="M48.6 43.3999C48.6 46.5899 46.01 49.1802 42.82 49.1802C39.63 49.1802 37.04 46.5899 37.04 43.3999C37.04 40.2099 39.63 37.6201 42.82 37.6201C46.01 37.6201 48.6 40.2099 48.6 43.3999Z" stroke="#040000" stroke-width="2.58" stroke-linecap="round" stroke-linejoin="round"/>
<path d="M18.6403 73.0098C21.8325 73.0098 24.4203 70.4222 24.4203 67.23C24.4203 64.0378 21.8325 61.4502 18.6403 61.4502C15.4481 61.4502 12.8604 64.0378 12.8604 67.23C12.8604 70.4222 15.4481 73.0098 18.6403 73.0098Z" stroke="#040000" stroke-width="2.58" stroke-linecap="round" stroke-linejoin="round"/>
<path d="M66.82 73.0098C70.0122 73.0098 72.6 70.4222 72.6 67.23C72.6 64.0378 70.0122 61.4502 66.82 61.4502C63.6278 61.4502 61.04 64.0378 61.04 67.23C61.04 70.4222 63.6278 73.0098 66.82 73.0098Z" stroke="#040000" stroke-width="2.58" stroke-linecap="round" stroke-linejoin="round"/>
<path d="M42.82 73.0098C46.0122 73.0098 48.6 70.4222 48.6 67.23C48.6 64.0378 46.0122 61.4502 42.82 61.4502C39.6278 61.4502 37.04 64.0378 37.04 67.23C37.04 70.4222 39.6278 73.0098 42.82 73.0098Z" stroke="#040000" stroke-width="2.58" stroke-linecap="round" stroke-linejoin="round"/>
<path d="M18.6403 97.8394C21.8325 97.8394 24.4203 95.2518 24.4203 92.0596C24.4203 88.8674 21.8325 86.2793 18.6403 86.2793C15.4481 86.2793 12.8604 88.8674 12.8604 92.0596C12.8604 95.2518 15.4481 97.8394 18.6403 97.8394Z" stroke="#040000" stroke-width="2.58" stroke-linecap="round" stroke-linejoin="round"/>
<path d="M66.82 97.8394C70.0122 97.8394 72.6 95.2518 72.6 92.0596C72.6 88.8674 70.0122 86.2793 66.82 86.2793C63.6278 86.2793 61.04 88.8674 61.04 92.0596C61.04 95.2518 63.6278 97.8394 66.82 97.8394Z" stroke="#040000" stroke-width="2.58" stroke-linecap="round" stroke-linejoin="round"/>
<path d="M42.82 97.8394C46.0122 97.8394 48.6 95.2518 48.6 92.0596C48.6 88.8674 46.0122 86.2793 42.82 86.2793C39.6278 86.2793 37.04 88.8674 37.04 92.0596C37.04 95.2518 39.6278 97.8394 42.82 97.8394Z" stroke="#040000" stroke-width="2.58" stroke-linecap="round" stroke-linejoin="round"/>
</svg>
