<svg width="147" height="137" viewBox="0 0 147 137" fill="none" xmlns="http://www.w3.org/2000/svg">
<path d="M109.82 113.34C122.247 113.34 132.32 103.266 132.32 90.8398C132.32 78.4134 122.247 68.3398 109.82 68.3398C97.3939 68.3398 87.3203 78.4134 87.3203 90.8398C87.3203 103.266 97.3939 113.34 109.82 113.34Z" fill="#C7E3DC"/>
<path d="M109.821 66.4102C96.3507 66.4102 85.3906 77.3698 85.3906 90.8398C85.3906 104.31 96.3507 115.27 109.821 115.27C123.291 115.27 134.251 104.31 134.251 90.8398C134.251 77.3698 123.291 66.4102 109.821 66.4102ZM111.351 112.14V109.16C111.351 108.32 110.671 107.63 109.821 107.63C108.971 107.63 108.291 108.31 108.291 109.16V112.14C97.7206 111.39 89.2706 102.94 88.5206 92.3701H91.5007C92.3407 92.3701 93.0306 91.6898 93.0306 90.8398C93.0306 89.9898 92.3507 89.3101 91.5007 89.3101H88.5206C89.2706 78.7401 97.7206 70.29 108.291 69.54V72.52C108.291 73.36 108.971 74.0498 109.821 74.0498C110.671 74.0498 111.351 73.37 111.351 72.52V69.54C121.921 70.29 130.371 78.7401 131.121 89.3101H128.141C127.301 89.3101 126.611 89.9898 126.611 90.8398C126.611 91.6898 127.291 92.3701 128.141 92.3701H131.121C130.371 102.94 121.921 111.39 111.351 112.14Z" fill="#040000"/>
<path d="M141.891 86.2598H139.981C138.661 77.5498 133.671 70.0294 126.621 65.3594V52.6597C126.621 48.4497 123.191 45.0195 118.981 45.0195H100.661C96.4513 45.0195 93.0212 48.4497 93.0212 52.6597V65.3594C84.7512 70.8294 79.2812 80.1994 79.2812 90.8394C79.2812 101.479 84.7512 110.849 93.0212 116.319V129.02C93.0212 133.23 96.4513 136.66 100.661 136.66H118.981C123.191 136.66 126.621 133.23 126.621 129.02V116.319C133.681 111.649 138.661 104.129 139.981 95.4194H141.891C143.131 95.4194 144.281 94.9394 145.111 94.0894C145.991 93.2294 146.471 92.0794 146.471 90.8394C146.471 88.3094 144.411 86.2598 141.891 86.2598ZM96.0812 52.6597C96.0812 50.1297 98.1413 48.0796 100.661 48.0796H118.981C121.511 48.0796 123.561 50.1397 123.561 52.6597V63.5996C119.421 61.4996 114.761 60.2993 109.821 60.2993C104.881 60.2993 100.211 61.5096 96.0812 63.5996V52.6597ZM123.571 129.01C123.571 131.54 121.511 133.589 118.991 133.589H100.671C98.1413 133.589 96.0912 131.53 96.0912 129.01V118.069C100.231 120.169 104.891 121.37 109.831 121.37C114.771 121.37 119.441 120.159 123.571 118.069V129.01ZM109.821 118.319C94.6613 118.319 82.3312 105.99 82.3312 90.8296C82.3312 75.6696 94.6613 63.3394 109.821 63.3394C124.981 63.3394 137.311 75.6696 137.311 90.8296C137.311 105.99 124.981 118.319 109.821 118.319ZM142.951 91.9297C142.671 92.2097 142.301 92.3696 141.891 92.3696H140.291C140.321 91.8596 140.371 91.3594 140.371 90.8394C140.371 90.3194 140.321 89.8196 140.291 89.3096H141.891C142.731 89.3096 143.421 89.9994 143.421 90.8394C143.421 91.2494 143.261 91.6197 142.951 91.9297Z" fill="#040000"/>
<path d="M118.979 89.3096H114.119C113.649 87.9996 112.609 86.9695 111.289 86.5195C111.309 86.4295 111.339 86.3498 111.339 86.2598V77.0996C111.339 76.2596 110.659 75.5693 109.809 75.5693C108.959 75.5693 108.279 76.2496 108.279 77.0996V86.2598C108.279 86.3498 108.319 86.4395 108.329 86.5195C106.529 87.1395 105.219 88.8294 105.219 90.8394C105.219 93.3694 107.279 95.4194 109.799 95.4194C111.789 95.4194 113.469 94.1396 114.099 92.3696H118.959C119.799 92.3696 120.489 91.6894 120.489 90.8394C120.489 89.9894 119.809 89.3096 118.959 89.3096H118.979ZM109.819 92.3696C108.979 92.3696 108.289 91.6794 108.289 90.8394C108.289 89.9994 108.969 89.3096 109.819 89.3096C110.669 89.3096 111.349 89.9994 111.349 90.8394C111.349 91.6794 110.669 92.3696 109.819 92.3696Z" fill="#040000"/>
<path d="M118.978 54.1899C118.978 53.3499 118.298 52.6602 117.448 52.6602H102.178C101.338 52.6602 100.648 53.3399 100.648 54.1899C100.648 55.0399 101.328 55.7202 102.178 55.7202H117.448C118.288 55.7202 118.978 55.0399 118.978 54.1899Z" fill="#040000"/>
<path d="M100.664 127.489C100.664 128.329 101.344 129.019 102.194 129.019H117.464C118.304 129.019 118.994 128.339 118.994 127.489C118.994 126.639 118.314 125.959 117.464 125.959H102.194C101.354 125.959 100.664 126.639 100.664 127.489Z" fill="#040000"/>
<path d="M29.8384 57.0892C30.1484 56.7792 30.5984 56.5995 31.0784 56.6395C32.0284 56.7195 33.7785 56.0294 35.6285 55.0794C38.4485 53.6394 41.3084 51.6596 42.2084 50.7596C42.8184 50.1496 43.8085 50.1496 44.4185 50.7596L46.1085 52.4393L80.2684 18.2792L83.3884 11.9593C83.4884 11.7393 83.6485 11.5393 83.8585 11.3793L98.1685 0.389505C98.7785 -0.150495 99.7185 -0.130671 100.308 0.459329L104.848 5.00962C105.388 5.54962 105.468 6.42943 104.988 7.05943L93.9285 21.4496C93.7885 21.6396 93.5985 21.7893 93.3785 21.8993L87.0284 25.0394L52.8685 59.1996L54.5485 60.8895C55.1585 61.4995 55.1585 62.4895 54.5485 63.0995C53.6485 64.0095 51.6684 66.8595 50.2285 69.6795C49.2885 71.5195 48.5985 73.2593 48.6685 74.2093C48.7085 74.6593 48.5584 75.1193 48.2184 75.4593L21.5284 102.149C18.9284 104.749 15.8884 105.63 12.8384 105.22C9.90844 104.82 7.01847 103.199 4.55847 100.749C1.98847 98.1794 0.338458 95.1292 0.0484585 92.0492C-0.231542 89.1292 0.688444 86.2494 3.15844 83.7894L29.8484 57.0995L29.8384 57.0892ZM84.9785 22.6595C85.1285 22.5095 85.3085 22.3992 85.4885 22.3192L91.6584 19.2792L101.658 6.25962L99.0485 3.64927L86.0284 13.6493L82.9385 19.9095C82.8585 20.0695 82.7584 20.2094 82.6484 20.3294L48.3185 54.6595L50.6484 56.9896L84.9785 22.6595ZM17.3785 96.0995C16.7685 96.7095 15.7785 96.7095 15.1685 96.0995C14.5585 95.4895 14.5585 94.4995 15.1685 93.8895L33.3185 75.7396C33.9285 75.1296 34.9184 75.1296 35.5284 75.7396C36.1384 76.3496 36.1384 77.3396 35.5284 77.9496L17.3785 96.0995ZM11.4185 90.1395C10.8085 90.7495 9.81843 90.7495 9.20843 90.1395C8.59843 89.5295 8.59843 88.5395 9.20843 87.9295L27.3585 69.7792C27.9685 69.1692 28.9585 69.1692 29.5685 69.7792C30.1785 70.3892 30.1785 71.3796 29.5685 71.9896L11.4185 90.1395ZM5.36847 85.9896C3.61847 87.7396 2.95843 89.7394 3.14843 91.7494C3.36843 94.0694 4.68843 96.4592 6.76843 98.5292C8.75843 100.519 11.0185 101.819 13.2485 102.119C15.3485 102.409 17.4685 101.77 19.3085 99.9295L45.5485 73.6893C45.6785 72.1693 46.4485 70.2096 47.4385 68.2596C48.6185 65.9496 50.1585 63.5794 51.3085 62.0794L49.5384 60.2992L44.9985 55.7596L43.2184 53.9896C41.7184 55.1296 39.3484 56.6792 37.0384 57.8592C35.0884 58.8592 33.1185 59.6194 31.6085 59.7494L5.36847 85.9896Z" fill="#040000"/>
</svg>
