<svg width="115" height="115" viewBox="0 0 115 115" fill="none" xmlns="http://www.w3.org/2000/svg">
<path d="M84.7452 104.285H84.6952L84.6452 107.575C84.6452 109.635 83.3952 111.624 81.4252 112.274C78.1152 113.334 75.0652 110.885 75.0652 107.745V102.635C75.0652 104.715 73.8152 106.704 71.8452 107.334C69.5752 108.074 67.3952 107.135 66.2752 105.445L65.2852 105.115V102.905L64.0452 102.665C65.6552 101.385 67.4452 99.8946 69.3152 98.2446C69.8452 97.7746 70.3852 97.2744 70.9552 96.7744C73.5952 94.4044 76.3352 91.6944 78.9052 88.7944C80.2452 87.2544 81.5752 85.6544 82.7852 84.0244C82.8852 83.8944 82.9852 83.7545 83.0852 83.6245C90.0052 74.3045 93.9752 63.5948 87.7252 54.1748C78.2152 39.9548 64.6052 52.9445 59.2952 59.0645L58.5952 58.3345L59.6852 52.2046L60.6952 52.3848C60.8852 51.6148 61.0552 50.8347 61.2252 50.0747C62.4852 44.2047 63.1352 38.5845 63.2652 33.1245V1.52441H92.3352V8.45459L92.7852 38.0547C93.4852 44.3747 94.3352 46.0247 97.1152 51.8047C99.6252 57.0547 102.145 62.3044 104.655 67.5444C107.065 72.5744 109.475 77.6145 111.885 82.6445C113.355 85.5945 112.155 89.1748 109.215 90.6348C106.265 92.1048 102.685 90.9044 101.215 87.9644C101.215 87.9644 98.6452 82.8145 95.8152 77.1445C95.4252 76.3545 94.2352 76.6347 94.2352 77.5146V103.714C94.2352 106.854 91.1652 109.315 87.8652 108.245C86.1352 107.675 84.9752 106.094 84.7152 104.314L84.7452 104.285Z" fill="white"/>
<path d="M29.3168 104.285C29.0568 106.065 27.8968 107.645 26.1668 108.215C22.8768 109.285 19.7969 106.825 19.7969 103.685V77.4849C19.7969 76.6049 18.6168 76.3252 18.2168 77.1152C15.3868 82.7852 12.8168 87.9351 12.8168 87.9351C11.3468 90.8851 7.76681 92.075 4.81681 90.605C1.86681 89.135 0.676828 85.5552 2.14683 82.6152C4.55683 77.5852 6.96681 72.5451 9.37681 67.5151C11.8968 62.2651 14.4068 57.0249 16.9168 51.7749C19.6968 45.9949 20.5469 44.3449 21.2469 38.0249L21.6968 8.42529V1.49512H50.7668V33.0952C50.8968 38.5552 51.5569 44.1849 52.8069 50.0449C52.9769 50.8149 53.1468 51.585 53.3368 52.355H54.3468C54.3468 52.355 54.7668 55.8449 55.2768 57.7949L53.7168 57.895C47.8468 51.485 35.2569 40.765 26.3069 54.145C20.0569 63.565 24.0368 74.2852 30.9468 83.5952C31.0468 83.7252 31.1469 83.8651 31.2469 83.9951C32.4469 85.6351 33.7869 87.2351 35.1169 88.7651C37.6869 91.6751 40.4368 94.3751 43.0668 96.7451C43.6368 97.2451 44.1768 97.7448 44.7068 98.2148C46.3668 99.6848 47.9669 101.015 49.4369 102.195L48.8568 103.085V105.415H47.7568C46.6368 107.105 44.4569 108.055 42.1869 107.305C40.2169 106.685 38.9668 104.695 38.9668 102.605V107.715C38.9668 110.865 35.9169 113.305 32.6068 112.245C30.6369 111.595 29.3868 109.605 29.3868 107.545L29.3368 104.265H29.2868L29.3168 104.285Z" fill="white"/>
<path d="M87.7369 54.156C93.9869 63.576 90.0169 74.2957 83.0969 83.6057C82.9969 83.7357 82.8969 83.8756 82.7969 84.0056C81.5869 85.6456 80.2569 87.2456 78.9169 88.7756C76.3469 91.6856 73.5969 94.3856 70.9669 96.7556C70.3969 97.2556 69.8569 97.7558 69.3269 98.2258C67.4569 99.8758 65.6669 101.366 64.0569 102.646C59.9469 105.916 57.0269 107.846 57.0269 107.846C57.0269 107.846 53.8469 105.746 49.4569 102.206C47.9869 101.026 46.3869 99.6858 44.7269 98.2258C44.1969 97.7558 43.6569 97.2556 43.0869 96.7556C40.4469 94.3856 37.7069 91.6756 35.1369 88.7756C33.7969 87.2356 32.4669 85.6356 31.2669 84.0056C31.1669 83.8756 31.0669 83.7357 30.9669 83.6057C24.0469 74.2857 20.0769 63.576 26.3269 54.156C35.2769 40.766 47.8569 51.496 53.7369 57.906C54.6169 58.866 55.3469 59.736 55.8969 60.406C56.1969 60.706 56.3969 60.9658 56.5669 61.2058C56.8669 61.6358 57.0369 61.8357 57.0369 61.8357C57.0369 61.8357 57.2069 61.6358 57.5069 61.2058C57.6769 60.9658 57.8769 60.706 58.1769 60.406C58.4969 60.016 58.8769 59.5559 59.3169 59.0559C64.6269 52.9359 78.2369 39.9357 87.7469 54.1657L87.7369 54.156Z" fill="#EDE2D0"/>
<path d="M82.7043 70.3452C83.4943 67.4952 83.5443 64.3752 82.4643 61.6152C81.4043 58.8952 78.9143 56.1252 75.8843 55.7852" stroke="#040000" stroke-width="3.01" stroke-linecap="round" stroke-linejoin="round"/>
<path d="M63.2746 1.50488V33.105C63.1446 38.565 62.4846 44.1952 61.2346 50.0552C61.0646 50.8252 60.8946 51.5952 60.7046 52.3652" stroke="#040000" stroke-width="3.01" stroke-linecap="round" stroke-linejoin="round"/>
<path d="M66.2751 105.435C67.3951 107.125 69.5752 108.075 71.8452 107.325C73.8152 106.705 75.0651 104.715 75.0651 102.625" stroke="#040000" stroke-width="3.01" stroke-linecap="round" stroke-linejoin="round"/>
<path d="M75.064 98.625V107.745C75.064 110.895 78.114 113.335 81.424 112.275C83.394 111.625 84.644 109.635 84.644 107.575L84.694 104.295" stroke="#040000" stroke-width="3.01" stroke-linecap="round" stroke-linejoin="round"/>
<path d="M84.6851 89.375V103.525C84.6851 103.785 84.7051 104.045 84.7451 104.295C85.0051 106.075 86.165 107.655 87.895 108.225C91.185 109.295 94.265 106.835 94.265 103.695V77.4951C94.265 76.6151 95.445 76.335 95.845 77.125C98.675 82.795 101.245 87.9453 101.245 87.9453C102.715 90.8953 106.295 92.0852 109.245 90.6152C112.195 89.1452 113.385 85.565 111.915 82.625C109.505 77.595 107.095 72.5549 104.685 67.5249C102.165 62.2749 99.655 57.0352 97.145 51.7852C94.365 46.0052 93.515 44.3552 92.815 38.0352L92.3651 8.43506V1.50488" stroke="#040000" stroke-width="3.01" stroke-linecap="round" stroke-linejoin="round"/>
<path d="M50.7866 1.50488V33.105C50.9166 38.565 51.5766 44.1952 52.8266 50.0552C52.9966 50.8252 53.1666 51.5952 53.3566 52.3652" stroke="#040000" stroke-width="3.01" stroke-linecap="round" stroke-linejoin="round"/>
<path d="M38.9858 102.625C38.9858 104.705 40.2358 106.695 42.2058 107.325C44.4758 108.065 46.6558 107.125 47.7758 105.435" stroke="#040000" stroke-width="3.01" stroke-linecap="round" stroke-linejoin="round"/>
<path d="M38.9869 98.625V107.745C38.9869 110.895 35.9369 113.335 32.6269 112.275C30.6569 111.625 29.4069 109.635 29.4069 107.575L29.3569 104.295" stroke="#040000" stroke-width="3.01" stroke-linecap="round" stroke-linejoin="round"/>
<path d="M59.3069 59.0445C64.6169 52.9245 78.2269 39.9249 87.7369 54.1549C93.9869 63.5749 90.0169 74.2946 83.0969 83.6046C82.9969 83.7346 82.8969 83.8745 82.7969 84.0045C81.5869 85.6445 80.2569 87.2445 78.9169 88.7745C76.3469 91.6845 73.5969 94.3845 70.9669 96.7545C70.3969 97.2545 69.8569 97.7547 69.3269 98.2247C67.4569 99.8747 65.6669 101.365 64.0569 102.645C59.9469 105.915 57.0269 107.845 57.0269 107.845C57.0269 107.845 53.8469 105.745 49.4569 102.205C47.9869 101.025 46.3869 99.6847 44.7269 98.2247C44.1969 97.7547 43.6569 97.2545 43.0869 96.7545C40.4469 94.3845 37.7069 91.6745 35.1369 88.7745C33.7969 87.2345 32.4669 85.6345 31.2669 84.0045C31.1669 83.8745 31.0669 83.7346 30.9669 83.6046C24.0469 74.2846 20.0769 63.5749 26.3269 54.1549C35.2769 40.7649 47.8569 51.4949 53.7369 57.9049C54.6169 58.8649 55.3469 59.7349 55.8969 60.4049C56.1969 60.7049 56.3969 60.9647 56.5669 61.2047C56.8669 61.6347 57.0369 61.8346 57.0369 61.8346C57.0369 61.8346 57.2069 61.6347 57.5069 61.2047C57.6769 60.9647 57.8769 60.7049 58.1769 60.4049C58.4969 60.0149 58.8769 59.5548 59.3169 59.0548L59.3069 59.0445Z" stroke="#040000" stroke-width="3.01" stroke-linecap="round" stroke-linejoin="round"/>
<path d="M29.3651 89.375V103.525C29.3651 103.785 29.3451 104.045 29.3051 104.295C29.0451 106.075 27.8851 107.655 26.1551 108.225C22.8651 109.295 19.7851 106.835 19.7851 103.695V77.4951C19.7851 76.6151 18.6051 76.335 18.2051 77.125C15.3751 82.795 12.8051 87.9453 12.8051 87.9453C11.3351 90.8953 7.75514 92.0852 4.80514 90.6152C1.85514 89.1452 0.665097 85.565 2.1351 82.625C4.5451 77.595 6.95514 72.5549 9.36514 67.5249C11.8851 62.2749 14.3951 57.0352 16.9051 51.7852C19.6851 46.0052 20.5351 44.3552 21.2351 38.0352L21.6851 8.43506V1.50488" stroke="#040000" stroke-width="3.01" stroke-linecap="round" stroke-linejoin="round"/>
</svg>
