<svg width="137" height="85" viewBox="0 0 137 85" fill="none" xmlns="http://www.w3.org/2000/svg">
<path d="M126.599 1.1499H72.9494C71.4251 1.1499 70.1895 2.38561 70.1895 3.90991V75.2898C70.1895 76.8141 71.4251 78.0498 72.9494 78.0498H126.599C128.124 78.0498 129.359 76.8141 129.359 75.2898V3.90991C129.359 2.38561 128.124 1.1499 126.599 1.1499Z" stroke="#040000" stroke-width="2.3" stroke-linecap="round" stroke-linejoin="round"/>
<path d="M68.8501 19.46H66.3401C63.5701 19.46 61.3301 17.22 61.3301 14.45C61.3301 11.68 63.5701 9.43994 66.3401 9.43994H68.8501C71.6201 9.43994 73.8601 11.68 73.8601 14.45" stroke="#040000" stroke-width="2.3" stroke-linecap="round" stroke-linejoin="round"/>
<path d="M68.8501 36.8496H66.3401C63.5701 36.8496 61.3301 34.6096 61.3301 31.8396C61.3301 29.0696 63.5701 26.8296 66.3401 26.8296H68.8501C71.6201 26.8296 73.8601 29.0696 73.8601 31.8396" stroke="#040000" stroke-width="2.3" stroke-linecap="round" stroke-linejoin="round"/>
<path d="M68.8501 53.4502H66.3401C63.5701 53.4502 61.3301 51.2102 61.3301 48.4402C61.3301 45.6702 63.5701 43.4302 66.3401 43.4302H68.8501C71.6201 43.4302 73.8601 45.6702 73.8601 48.4402" stroke="#040000" stroke-width="2.3" stroke-linecap="round" stroke-linejoin="round"/>
<path d="M68.8501 68.7998H66.3401C63.5701 68.7998 61.3301 66.5598 61.3301 63.7898C61.3301 61.0198 63.5701 58.7798 66.3401 58.7798H68.8501C71.6201 58.7798 73.8601 61.0198 73.8601 63.7898" stroke="#040000" stroke-width="2.3" stroke-linecap="round" stroke-linejoin="round"/>
<path d="M129.359 12.1997H132.119C133.649 12.1997 134.879 13.4397 134.879 14.9597V80.8096C134.879 82.3396 133.639 83.5696 132.119 83.5696H78.4694C78.4694 80.5196 75.9995 78.0396 72.9395 78.0396" stroke="#040000" stroke-width="2.3" stroke-linecap="round" stroke-linejoin="round"/>
<path d="M9.44354 78.0601H63.0935C64.6178 78.0601 65.8535 76.8244 65.8535 75.3L65.8535 3.92017C65.8535 2.39586 64.6178 1.16016 63.0935 1.16016H9.44354C7.91924 1.16016 6.68353 2.39586 6.68353 3.92017L6.68353 75.3C6.68353 76.8244 7.91924 78.0601 9.44354 78.0601Z" stroke="#040000" stroke-width="2.3" stroke-linecap="round" stroke-linejoin="round"/>
<path d="M6.67041 12.1997H3.9104C2.3804 12.1997 1.15039 13.4397 1.15039 14.9597V80.8096C1.15039 82.3396 2.3904 83.5696 3.9104 83.5696H57.5604C57.5604 80.5196 60.0304 78.0396 63.0904 78.0396" stroke="#040000" stroke-width="2.3" stroke-linecap="round" stroke-linejoin="round"/>
<path d="M96.6079 11.3403H83.0879V24.8604H96.6079V11.3403Z" fill="#C5D2E0" stroke="#040000" stroke-width="2.3" stroke-linecap="round" stroke-linejoin="round"/>
<path d="M118.803 11.3403H105.283V24.8604H118.803V11.3403Z" fill="#C5D2E0" stroke="#040000" stroke-width="2.3" stroke-linecap="round" stroke-linejoin="round"/>
<path d="M96.6079 33.6294H83.0879V47.1494H96.6079V33.6294Z" fill="#C5D2E0" stroke="#040000" stroke-width="2.3" stroke-linecap="round" stroke-linejoin="round"/>
<path d="M118.803 33.6294H105.283V47.1494H118.803V33.6294Z" fill="#C5D2E0" stroke="#040000" stroke-width="2.3" stroke-linecap="round" stroke-linejoin="round"/>
<path d="M96.6079 55.1294H83.0879V68.6494H96.6079V55.1294Z" fill="#C5D2E0" stroke="#040000" stroke-width="2.3" stroke-linecap="round" stroke-linejoin="round"/>
<path d="M118.803 55.1294H105.283V68.6494H118.803V55.1294Z" fill="#C5D2E0" stroke="#040000" stroke-width="2.3" stroke-linecap="round" stroke-linejoin="round"/>
<path d="M30.4673 11.3403H16.9473V24.8604H30.4673V11.3403Z" fill="#C5D2E0" stroke="#040000" stroke-width="2.3" stroke-linecap="round" stroke-linejoin="round"/>
<path d="M52.6626 11.3403H39.1426V24.8604H52.6626V11.3403Z" fill="#C5D2E0" stroke="#040000" stroke-width="2.3" stroke-linecap="round" stroke-linejoin="round"/>
<path d="M30.4673 33.6294H16.9473V47.1494H30.4673V33.6294Z" fill="#C5D2E0" stroke="#040000" stroke-width="2.3" stroke-linecap="round" stroke-linejoin="round"/>
<path d="M52.6626 33.6294H39.1426V47.1494H52.6626V33.6294Z" fill="#C5D2E0" stroke="#040000" stroke-width="2.3" stroke-linecap="round" stroke-linejoin="round"/>
<path d="M30.4673 55.1294H16.9473V68.6494H30.4673V55.1294Z" fill="#C5D2E0" stroke="#040000" stroke-width="2.3" stroke-linecap="round" stroke-linejoin="round"/>
<path d="M52.6626 55.1294H39.1426V68.6494H52.6626V55.1294Z" fill="#C5D2E0" stroke="#040000" stroke-width="2.3" stroke-linecap="round" stroke-linejoin="round"/>
</svg>
