<svg width="92" height="705" viewBox="0 0 92 705" fill="none" xmlns="http://www.w3.org/2000/svg">
<g clip-path="url(#clip0_1_4814)" stroke="#103455" stroke-width="2">
<path d="M7.62172 662.55C5.86172 664.78 3.40172 669.93 3.40172 677.32C3.40172 692.44 13.3617 697.72 20.7517 697.72C31.0717 697.72 36.5717 692.33 41.8517 679.2C47.7117 664.78 54.0417 656.93 67.4017 656.93C80.7617 656.93 91.2017 666.19 91.2017 683.89C91.2017 691.16 88.8617 699.6 85.2217 704.52L81.9417 702.41C85.4617 697.25 87.8017 690.81 87.8017 683.66C87.8017 669.59 79.1317 661.27 67.8717 661.27C57.3217 661.27 51.1117 666.31 46.0717 679.32C41.0317 693.62 33.7617 701.94 21.8117 701.94C9.03172 701.94 0.0117188 691.51 0.0117188 677.32C0.0117188 669.23 2.35172 663.14 4.35172 660.44L7.63172 662.55H7.62172Z" fill="#103455"/>
<path d="M89.9102 556.81V560.91H44.5502V612.13H89.9102V616.23H1.41016V612.13H41.0302V560.91H1.41016V556.81H89.9102Z" fill="#103455"/>
<path d="M44.78 440.17C76.31 440.17 91.32 459.51 91.32 479.09C91.32 500.19 74.67 517.3 46.54 517.3C17 517.3 0 499.95 0 478.15C0 456.35 17.35 440.17 44.78 440.17ZM46.42 512.97C65.29 512.97 87.92 501.13 87.92 478.98C87.92 456.83 67.76 444.52 45.14 444.52C26.03 444.52 3.41 454.72 3.41 478.28C3.41 501.84 25.56 512.98 46.43 512.98L46.42 512.97Z" fill="#103455"/>
<path d="M2.45922 400.78C1.51922 395.97 0.699219 390 0.699219 383.2C0.699219 362.1 12.1892 353.9 25.0792 353.9C43.8292 353.9 52.2692 368.55 52.2692 385.32C52.2692 389.54 51.9192 393.06 51.0992 396.69H89.8992V400.79H2.45922V400.78ZM47.4692 396.68C48.5292 393.4 48.8792 389.53 48.8792 385.07C48.8792 368.43 40.5592 358.23 25.7892 358.23C11.0192 358.23 4.09922 369.83 4.09922 383.78C4.09922 389.76 4.91922 394.21 5.38922 396.67H47.4692V396.68Z" fill="#103455"/>
<path d="M89.9102 219.68V263.87H1.41016V259.77H86.2802V219.68H89.9102Z" fill="#103455"/>
<path d="M1.41016 182.87V178.77H89.9102V182.87H1.41016Z" fill="#103455"/>
<path d="M7.62172 96.7098C5.86172 98.9398 3.40172 104.09 3.40172 111.48C3.40172 126.6 13.3617 131.88 20.7517 131.88C31.0717 131.88 36.5717 126.49 41.8517 113.36C47.7117 98.9398 54.0417 91.0898 67.4017 91.0898C80.7617 91.0898 91.2017 100.35 91.2017 118.05C91.2017 125.32 88.8617 133.76 85.2217 138.68L81.9417 136.57C85.4617 131.41 87.8017 124.97 87.8017 117.82C87.8017 103.75 79.1317 95.4298 67.8717 95.4298C57.3217 95.4298 51.1117 100.47 46.0717 113.48C41.0317 127.78 33.7617 136.1 21.8117 136.1C9.03172 136.1 0.0117188 125.67 0.0117188 111.48C0.0117188 103.39 2.35172 97.2998 4.35172 94.5998L7.63172 96.7098H7.62172Z" fill="#103455"/>
<path d="M5.04016 0V29.54H89.9102V33.64H5.04016V63.3H1.41016V0H5.04016Z" fill="#103455"/>
</g>
<defs>
<clipPath id="clip0_1_4814">
<rect width="91.31" height="704.51" fill="white"/>
</clipPath>
</defs>
</svg>
