<svg width="349" height="105" viewBox="0 0 349 105" fill="none" xmlns="http://www.w3.org/2000/svg">
<g filter="url(#filter0_d_1_3715)">
<g style="mix-blend-mode:multiply" opacity="0.33">
<path d="M338.68 50.3577C338.68 75.7517 317.864 96.3295 292.187 96.3295H52.8371C27.1599 96.3295 6.34375 75.7452 6.34375 50.3577C6.34375 24.9638 27.1599 5.08105 52.8371 5.08105H292.187C317.864 5.08105 338.68 24.9638 338.68 50.3577Z" fill="#E6E6E6"/>
</g>
<path d="M50.705 96.0262C25.4591 96.0262 4.91992 75.6997 4.91992 50.7565C4.91992 38.742 9.66517 27.4485 18.2929 19.1041C26.9014 10.7725 38.4137 6.10449 50.7115 6.10449H294.317C306.615 6.10449 318.127 10.753 326.736 19.0846C335.357 27.429 340.109 38.7098 340.109 50.7307C340.109 75.674 319.569 96.0328 294.324 96.0328H50.7179L50.705 96.0262Z" fill="white"/>
<path d="M50.7114 95.2787C25.2338 95.2787 4.50781 74.7459 4.50781 49.5515C4.50781 37.3696 9.29817 26.0374 18.0032 17.6092C26.7404 9.15528 38.3557 4.50684 50.705 4.50684H294.311C306.679 4.50684 318.295 9.12336 327.012 17.5708C335.717 25.999 340.508 37.3631 340.508 49.5386C340.508 74.7458 319.782 95.2787 294.304 95.2787H50.6986H50.7114Z" fill="white"/>
<path d="M51.0475 94.7834C26.0269 94.7834 5.66797 74.637 5.66797 49.9126C5.66797 38.0012 10.3746 26.8108 18.9187 18.5372C27.4499 10.2829 38.8591 5.65332 51.0475 5.65332H293.983C306.172 5.65332 317.581 10.2634 326.112 18.5177C334.656 26.7913 339.363 37.9688 339.363 49.8802C339.363 74.5982 319.004 94.7768 293.983 94.7768H51.0475V94.7834Z" fill="url(#paint0_linear_1_3715)"/>
<path d="M294.082 89.0571H51.2878C29.6153 89.0571 11.9863 71.5184 11.9863 50.0842C11.9863 39.7695 16.0491 30.2017 23.4342 23.0548C30.8515 15.8757 40.7413 11.9736 51.2878 11.9736H294.082C304.654 11.9736 314.544 15.8175 321.936 22.9709C329.321 30.1178 333.384 39.795 333.384 50.1354C333.384 71.5761 315.755 89.0637 294.082 89.0637V89.0571Z" fill="url(#paint1_linear_1_3715)"/>
<path d="M51.2755 87.8151C30.292 87.8151 13.2168 70.8947 13.2168 50.085C13.2168 40.1438 17.1508 30.8592 24.2848 23.9441C31.4317 17.0226 41.0188 13.2109 51.2755 13.2109H294.07C304.385 13.2109 313.972 16.9969 321.061 23.8605C328.201 30.7691 332.129 40.0986 332.129 50.13C332.129 70.9074 315.06 87.8151 294.07 87.8151H51.2755Z" fill="url(#paint2_linear_1_3715)"/>
</g>
<path d="M278.697 46.7461C280.178 48.6594 282.339 50.5661 284.281 51.8076L284.61 52.0186L284.281 52.2285C282.339 53.4702 280.178 55.3698 278.697 57.2891L278.561 57.4668L278.369 57.3506L277.178 56.623L276.944 56.4795L277.108 56.2598C278 55.064 279.226 53.8406 280.302 52.9502H263.492V51.0859H280.302C279.226 50.1956 278 48.9722 277.108 47.7764L276.944 47.5566L277.178 47.4131L278.369 46.6865L278.561 46.5693L278.697 46.7461Z" fill="#1C3454" stroke="black" stroke-width="0.5"/>
<path d="M119.126 49.0193C119.41 49.0476 119.743 49.0759 120.125 49.1043C120.508 49.1326 120.848 49.1468 121.145 49.1468H132.707C133.033 49.1468 133.373 49.1326 133.728 49.1043C134.082 49.0759 134.408 49.0476 134.705 49.0193V51.931C134.394 51.9027 134.061 51.8814 133.706 51.8673C133.352 51.8531 133.019 51.846 132.707 51.846H121.145C120.862 51.846 120.522 51.8531 120.125 51.8673C119.728 51.8814 119.395 51.9027 119.126 51.931V49.0193ZM125.247 62.0904V50.6558H128.223V62.0904H125.247ZM117.745 60.3476C118.085 60.4043 118.439 60.4468 118.807 60.4751C119.176 60.5035 119.523 60.5176 119.849 60.5176H133.855C134.238 60.5176 134.599 60.5035 134.939 60.4751C135.279 60.4326 135.584 60.3901 135.853 60.3476V63.4294C135.541 63.3869 135.194 63.3586 134.812 63.3444C134.429 63.3302 134.11 63.3231 133.855 63.3231H119.849C119.537 63.3231 119.197 63.3302 118.829 63.3444C118.46 63.3586 118.099 63.3869 117.745 63.4294V60.3476ZM142.548 47.7015C142.916 47.9566 143.349 48.2683 143.844 48.6367C144.34 49.0051 144.851 49.4089 145.375 49.8482C145.913 50.2732 146.416 50.6912 146.884 51.1021C147.351 51.513 147.734 51.8814 148.032 52.2073L145.864 54.4177C145.594 54.1202 145.24 53.766 144.801 53.3551C144.362 52.9441 143.887 52.5191 143.377 52.0798C142.867 51.6406 142.364 51.2226 141.868 50.8258C141.372 50.4291 140.933 50.0961 140.55 49.8269L142.548 47.7015ZM139.891 61.8566C140.996 61.7008 142.038 61.4811 143.016 61.1978C143.993 60.9144 144.9 60.5885 145.736 60.2201C146.572 59.8517 147.337 59.4691 148.032 59.0724C149.236 58.3497 150.341 57.5279 151.347 56.6069C152.353 55.6859 153.232 54.7295 153.983 53.7376C154.734 52.7316 155.329 51.7539 155.768 50.8046L157.426 53.8014C156.887 54.7507 156.221 55.7001 155.428 56.6494C154.649 57.5988 153.763 58.5056 152.771 59.3699C151.779 60.2201 150.71 60.9852 149.562 61.6653C148.839 62.1046 148.06 62.5226 147.224 62.9193C146.388 63.3019 145.502 63.642 144.567 63.9395C143.646 64.2512 142.683 64.4921 141.677 64.6621L139.891 61.8566ZM165.353 61.8141C165.353 61.5449 165.353 61.1057 165.353 60.4964C165.353 59.8729 165.353 59.1574 165.353 58.3497C165.353 57.5279 165.353 56.6707 165.353 55.778C165.353 54.8853 165.353 54.0281 165.353 53.2063C165.353 52.3703 165.353 51.6335 165.353 50.9959C165.353 50.3582 165.353 49.8907 165.353 49.5931C165.353 49.2247 165.332 48.7996 165.29 48.3179C165.261 47.8361 165.212 47.411 165.141 47.0426H168.457C168.414 47.411 168.372 47.8219 168.329 48.2754C168.287 48.7146 168.265 49.1539 168.265 49.5931C168.265 49.9898 168.265 50.5283 168.265 51.2084C168.265 51.8885 168.265 52.6466 168.265 53.4826C168.265 54.3044 168.265 55.1475 168.265 56.0118C168.265 56.862 168.265 57.6838 168.265 58.4772C168.265 59.2707 168.265 59.965 168.265 60.5601C168.265 61.1411 168.265 61.5591 168.265 61.8141C168.265 62.0125 168.272 62.2959 168.287 62.6643C168.301 63.0185 168.329 63.3869 168.372 63.7695C168.414 64.152 168.442 64.4921 168.457 64.7897H165.141C165.198 64.3646 165.247 63.8687 165.29 63.3019C165.332 62.7351 165.353 62.2392 165.353 61.8141ZM167.628 52.5474C168.336 52.7316 169.13 52.9725 170.008 53.27C170.887 53.5534 171.772 53.8581 172.665 54.184C173.557 54.5098 174.393 54.8357 175.173 55.1616C175.966 55.4734 176.625 55.7638 177.149 56.033L175.938 58.9661C175.343 58.6544 174.684 58.3426 173.961 58.0309C173.239 57.705 172.502 57.3933 171.751 57.0957C171.014 56.7982 170.284 56.5219 169.562 56.2668C168.853 56.0118 168.209 55.7851 167.628 55.5867V52.5474ZM197.001 47.3614C196.986 47.659 196.965 47.9849 196.937 48.3391C196.923 48.6792 196.916 49.0618 196.916 49.4868C196.916 49.8552 196.916 50.3016 196.916 50.8258C196.916 51.3501 196.916 51.8744 196.916 52.3986C196.916 52.9087 196.916 53.3409 196.916 53.6951C196.916 54.8287 196.859 55.8205 196.746 56.6707C196.646 57.5208 196.49 58.2647 196.278 58.9023C196.065 59.5399 195.803 60.1067 195.492 60.6026C195.194 61.0844 194.847 61.5449 194.45 61.9841C193.982 62.4942 193.444 62.9547 192.835 63.3657C192.226 63.7624 191.609 64.0954 190.986 64.3646C190.376 64.648 189.81 64.8747 189.285 65.0447L187.054 62.7068C188.116 62.4659 189.073 62.1329 189.923 61.7078C190.787 61.2686 191.538 60.7089 192.176 60.0288C192.544 59.6179 192.842 59.207 193.069 58.7961C193.295 58.3851 193.465 57.9317 193.579 57.4358C193.706 56.9257 193.791 56.3519 193.834 55.7142C193.89 55.0766 193.919 54.3469 193.919 53.5251C193.919 53.1567 193.919 52.7174 193.919 52.2073C193.919 51.6972 193.919 51.1942 193.919 50.6983C193.919 50.2024 193.919 49.7986 193.919 49.4868C193.919 49.0618 193.905 48.6792 193.876 48.3391C193.862 47.9849 193.834 47.659 193.791 47.3614H197.001ZM187.139 47.5315C187.125 47.7865 187.11 48.0416 187.096 48.2966C187.082 48.5375 187.075 48.828 187.075 49.168C187.075 49.3239 187.075 49.5789 187.075 49.9332C187.075 50.2874 187.075 50.7054 187.075 51.1872C187.075 51.6547 187.075 52.1507 187.075 52.6749C187.075 53.185 187.075 53.6809 187.075 54.1627C187.075 54.6445 187.075 55.0837 187.075 55.4804C187.075 55.863 187.075 56.1535 187.075 56.3519C187.075 56.6211 187.082 56.9328 187.096 57.287C187.11 57.6413 187.125 57.9459 187.139 58.2009H184.057C184.071 58.0026 184.092 57.7192 184.121 57.3508C184.149 56.9824 184.163 56.6423 184.163 56.3306C184.163 56.1322 184.163 55.8418 184.163 55.4592C184.163 55.0766 184.163 54.6445 184.163 54.1627C184.163 53.6668 184.163 53.1638 184.163 52.6537C184.163 52.1294 184.163 51.6335 184.163 51.1659C184.163 50.6983 184.163 50.2874 184.163 49.9332C184.163 49.5789 184.163 49.3239 184.163 49.168C184.163 48.9697 184.156 48.7146 184.142 48.4029C184.128 48.077 184.107 47.7865 184.078 47.5315H187.139ZM203.143 54.0139C203.398 54.0281 203.724 54.0493 204.121 54.0777C204.517 54.0919 204.928 54.106 205.353 54.1202C205.793 54.1344 206.196 54.1414 206.565 54.1414C206.919 54.1414 207.358 54.1414 207.883 54.1414C208.407 54.1414 208.974 54.1414 209.583 54.1414C210.206 54.1414 210.844 54.1414 211.496 54.1414C212.162 54.1414 212.821 54.1414 213.472 54.1414C214.124 54.1414 214.74 54.1414 215.321 54.1414C215.902 54.1414 216.42 54.1414 216.873 54.1414C217.341 54.1414 217.709 54.1414 217.978 54.1414C218.474 54.1414 218.942 54.1273 219.381 54.0989C219.82 54.0564 220.182 54.0281 220.465 54.0139V57.3508C220.224 57.3366 219.863 57.3154 219.381 57.287C218.899 57.2587 218.432 57.2445 217.978 57.2445C217.709 57.2445 217.341 57.2445 216.873 57.2445C216.405 57.2445 215.881 57.2445 215.3 57.2445C214.719 57.2445 214.103 57.2445 213.451 57.2445C212.813 57.2445 212.162 57.2445 211.496 57.2445C210.83 57.2445 210.185 57.2445 209.562 57.2445C208.952 57.2445 208.386 57.2445 207.861 57.2445C207.351 57.2445 206.919 57.2445 206.565 57.2445C205.956 57.2445 205.332 57.2587 204.694 57.287C204.057 57.3012 203.54 57.3225 203.143 57.3508V54.0139Z" fill="#1B3554"/>
<path d="M145.271 37.9873V28.0507H151.501V29.3413H146.771V32.3689H151.176V33.6546H146.771V36.6967H151.559V37.9873H145.271ZM161.524 28.0507V37.9873H160.146L155.095 30.6998H155.003V37.9873H153.504V28.0507H154.891L159.947 35.3479H160.039V28.0507H161.524ZM163.221 29.3413V28.0507H170.911V29.3413H167.811V37.9873H166.316V29.3413H163.221ZM172.61 37.9873V28.0507H176.152C176.922 28.0507 177.561 28.1834 178.069 28.4486C178.58 28.7138 178.961 29.0809 179.214 29.55C179.466 30.0157 179.592 30.5543 179.592 31.1656C179.592 31.7737 179.464 32.309 179.209 32.7716C178.956 33.2309 178.575 33.5883 178.064 33.8438C177.556 34.0994 176.917 34.2271 176.147 34.2271H173.464V32.9365H176.011C176.497 32.9365 176.891 32.867 177.195 32.7279C177.503 32.5888 177.727 32.3867 177.87 32.1214C178.012 31.8562 178.083 31.5376 178.083 31.1656C178.083 30.7904 178.01 30.4653 177.865 30.1904C177.722 29.9155 177.498 29.7052 177.19 29.5597C176.886 29.4109 176.487 29.3365 175.992 29.3365H174.109V37.9873H172.61ZM177.515 33.5042L179.97 37.9873H178.263L175.856 33.5042H177.515ZM180.289 28.0507H181.992L184.588 32.5678H184.695L187.291 28.0507H188.994L185.389 34.0864V37.9873H183.894V34.0864L180.289 28.0507Z" fill="#1B3554"/>
<defs>
<filter id="filter0_d_1_3715" x="0.000769854" y="-0.000206709" width="348.877" height="104.7" filterUnits="userSpaceOnUse" color-interpolation-filters="sRGB">
<feFlood flood-opacity="0" result="BackgroundImageFix"/>
<feColorMatrix in="SourceAlpha" type="matrix" values="0 0 0 0 0 0 0 0 0 0 0 0 0 0 0 0 0 0 127 0" result="hardAlpha"/>
<feOffset dx="1.93159" dy="1.93159"/>
<feGaussianBlur stdDeviation="3.21932"/>
<feColorMatrix type="matrix" values="0 0 0 0 0.129412 0 0 0 0 0.0941176 0 0 0 0 0.0823529 0 0 0 0.3 0"/>
<feBlend mode="normal" in2="BackgroundImageFix" result="effect1_dropShadow_1_3715"/>
<feBlend mode="normal" in="SourceGraphic" in2="effect1_dropShadow_1_3715" result="shape"/>
</filter>
<linearGradient id="paint0_linear_1_3715" x1="172.519" y1="4.0501" x2="172.519" y2="93.985" gradientUnits="userSpaceOnUse">
<stop stop-color="#EBEBEB"/>
<stop offset="1" stop-color="#F5F8F8"/>
</linearGradient>
<linearGradient id="paint1_linear_1_3715" x1="172.682" y1="11.3748" x2="172.682" y2="89.5337" gradientUnits="userSpaceOnUse">
<stop stop-color="#B0B0B0"/>
<stop offset="0.14" stop-color="#BABABA"/>
<stop offset="0.38" stop-color="#D7D7D7"/>
<stop offset="0.61" stop-color="#F9F9F9"/>
<stop offset="1" stop-color="white"/>
</linearGradient>
<linearGradient id="paint2_linear_1_3715" x1="172.676" y1="12.6379" x2="172.676" y2="88.2787" gradientUnits="userSpaceOnUse">
<stop stop-color="#F5F5F5"/>
<stop offset="0.02" stop-color="#F4F4F4"/>
<stop offset="0.62" stop-color="#DCDCDC"/>
<stop offset="1" stop-color="#D4D4D4"/>
</linearGradient>
</defs>
</svg>
