<svg width="603" height="405" viewBox="0 0 603 405" fill="none" xmlns="http://www.w3.org/2000/svg">
<path d="M601.535 49.5352H0.535004V403.535H601.535V49.5352Z" fill="white"/>
<path d="M601.535 136.535H0.535004V277.535H601.535V136.535Z" fill="#EFEFEF"/>
<path d="M193.239 168.834H210.035V171.282H193.239V168.834ZM208.981 168.834H211.565C211.565 168.834 211.565 168.925 211.565 169.106C211.565 169.288 211.565 169.492 211.565 169.718C211.565 169.945 211.565 170.126 211.565 170.262C211.452 174.614 211.339 178.298 211.225 181.312C211.112 184.304 210.976 186.752 210.817 188.656C210.659 190.56 210.466 192.022 210.239 193.042C210.035 194.062 209.763 194.788 209.423 195.218C209.061 195.74 208.664 196.102 208.233 196.306C207.825 196.533 207.338 196.68 206.771 196.748C206.205 196.816 205.479 196.85 204.595 196.85C203.734 196.85 202.85 196.816 201.943 196.748C201.921 196.363 201.841 195.921 201.705 195.422C201.569 194.924 201.377 194.493 201.127 194.13C202.147 194.221 203.065 194.278 203.881 194.3C204.697 194.3 205.298 194.3 205.683 194.3C206.001 194.3 206.261 194.266 206.465 194.198C206.669 194.108 206.862 193.938 207.043 193.688C207.315 193.371 207.542 192.714 207.723 191.716C207.927 190.719 208.097 189.291 208.233 187.432C208.392 185.551 208.528 183.148 208.641 180.224C208.777 177.278 208.891 173.696 208.981 169.48V168.834ZM180.591 176.79L194.939 173.764L195.381 176.042L181.033 179.102L180.591 176.79ZM184.705 166.794H187.221V186.786C187.221 187.398 187.289 187.795 187.425 187.976C187.561 188.135 187.856 188.214 188.309 188.214C188.4 188.214 188.581 188.214 188.853 188.214C189.125 188.214 189.42 188.214 189.737 188.214C190.077 188.214 190.395 188.214 190.689 188.214C190.984 188.214 191.199 188.214 191.335 188.214C191.63 188.214 191.845 188.09 191.981 187.84C192.14 187.568 192.253 187.081 192.321 186.378C192.389 185.676 192.435 184.667 192.457 183.352C192.752 183.579 193.115 183.794 193.545 183.998C193.999 184.202 194.395 184.35 194.735 184.44C194.645 186.027 194.497 187.274 194.293 188.18C194.112 189.064 193.795 189.699 193.341 190.084C192.911 190.447 192.31 190.628 191.539 190.628C191.403 190.628 191.165 190.628 190.825 190.628C190.485 190.628 190.111 190.628 189.703 190.628C189.318 190.628 188.955 190.628 188.615 190.628C188.275 190.628 188.049 190.628 187.935 190.628C187.074 190.628 186.405 190.515 185.929 190.288C185.476 190.062 185.159 189.676 184.977 189.132C184.796 188.566 184.705 187.772 184.705 186.752V166.794ZM199.257 169.922H201.807C201.762 172.166 201.683 174.365 201.569 176.518C201.456 178.672 201.229 180.757 200.889 182.774C200.549 184.792 200.028 186.696 199.325 188.486C198.623 190.254 197.682 191.886 196.503 193.382C195.325 194.856 193.806 196.148 191.947 197.258C191.743 196.918 191.46 196.556 191.097 196.17C190.757 195.785 190.417 195.479 190.077 195.252C191.845 194.255 193.285 193.076 194.395 191.716C195.529 190.356 196.413 188.849 197.047 187.194C197.705 185.54 198.181 183.772 198.475 181.89C198.77 180.009 198.963 178.06 199.053 176.042C199.144 174.025 199.212 171.985 199.257 169.922ZM246.721 191.818C245.815 192.725 244.84 193.428 243.797 193.926C242.755 194.402 241.644 194.64 240.465 194.64C239.355 194.64 238.448 194.278 237.745 193.552C237.043 192.827 236.691 191.762 236.691 190.356C236.691 189.404 236.759 188.373 236.895 187.262C237.031 186.152 237.179 185.018 237.337 183.862C237.496 182.684 237.643 181.573 237.779 180.53C237.915 179.465 237.983 178.513 237.983 177.674C237.983 176.7 237.745 175.997 237.269 175.566C236.793 175.113 236.113 174.886 235.229 174.886C234.436 174.886 233.552 175.124 232.577 175.6C231.603 176.054 230.605 176.677 229.585 177.47C228.565 178.241 227.568 179.114 226.593 180.088C225.619 181.04 224.723 181.992 223.907 182.944L223.975 179.578C224.406 179.125 224.95 178.592 225.607 177.98C226.287 177.368 227.035 176.734 227.851 176.076C228.69 175.419 229.574 174.807 230.503 174.24C231.433 173.674 232.351 173.22 233.257 172.88C234.187 172.54 235.071 172.37 235.909 172.37C236.975 172.37 237.859 172.563 238.561 172.948C239.264 173.311 239.785 173.844 240.125 174.546C240.465 175.226 240.635 176.02 240.635 176.926C240.635 177.765 240.567 178.74 240.431 179.85C240.318 180.938 240.171 182.072 239.989 183.25C239.831 184.429 239.683 185.574 239.547 186.684C239.434 187.795 239.377 188.781 239.377 189.642C239.377 190.209 239.513 190.696 239.785 191.104C240.08 191.512 240.533 191.716 241.145 191.716C241.961 191.716 242.8 191.478 243.661 191.002C244.545 190.504 245.418 189.801 246.279 188.894L246.721 191.818ZM223.873 175.566C223.601 175.589 223.182 175.646 222.615 175.736C222.071 175.804 221.448 175.884 220.745 175.974C220.043 176.065 219.329 176.167 218.603 176.28C217.878 176.371 217.198 176.462 216.563 176.552L216.291 173.764C216.654 173.787 217.005 173.798 217.345 173.798C217.708 173.776 218.093 173.753 218.501 173.73C218.977 173.708 219.555 173.662 220.235 173.594C220.938 173.504 221.663 173.413 222.411 173.322C223.182 173.209 223.896 173.096 224.553 172.982C225.233 172.846 225.766 172.71 226.151 172.574L227.137 173.764C226.933 174.036 226.707 174.376 226.457 174.784C226.208 175.17 225.959 175.566 225.709 175.974C225.46 176.382 225.245 176.745 225.063 177.062L224.009 181.686C223.624 182.298 223.148 183.024 222.581 183.862C222.015 184.701 221.414 185.585 220.779 186.514C220.167 187.421 219.544 188.328 218.909 189.234C218.275 190.118 217.697 190.934 217.175 191.682L215.441 189.336C215.872 188.815 216.371 188.18 216.937 187.432C217.527 186.662 218.139 185.834 218.773 184.95C219.431 184.066 220.065 183.205 220.677 182.366C221.312 181.505 221.867 180.712 222.343 179.986C222.842 179.261 223.216 178.672 223.465 178.218L223.601 176.484L223.873 175.566ZM223.567 169.922C223.567 169.537 223.556 169.129 223.533 168.698C223.533 168.268 223.499 167.837 223.431 167.406L226.627 167.508C226.537 167.962 226.423 168.676 226.287 169.65C226.151 170.602 226.015 171.736 225.879 173.05C225.766 174.365 225.641 175.748 225.505 177.198C225.392 178.649 225.301 180.088 225.233 181.516C225.165 182.922 225.131 184.225 225.131 185.426C225.131 186.446 225.131 187.398 225.131 188.282C225.131 189.144 225.143 190.005 225.165 190.866C225.188 191.705 225.222 192.623 225.267 193.62C225.29 193.915 225.313 194.255 225.335 194.64C225.358 195.026 225.392 195.377 225.437 195.694H222.479C222.525 195.377 222.547 195.026 222.547 194.64C222.57 194.278 222.581 193.96 222.581 193.688C222.604 192.6 222.615 191.637 222.615 190.798C222.615 189.96 222.615 189.098 222.615 188.214C222.638 187.308 222.661 186.231 222.683 184.984C222.683 184.486 222.706 183.806 222.751 182.944C222.797 182.06 222.853 181.097 222.921 180.054C222.989 178.989 223.057 177.912 223.125 176.824C223.193 175.736 223.261 174.716 223.329 173.764C223.397 172.79 223.454 171.962 223.499 171.282C223.545 170.602 223.567 170.149 223.567 169.922ZM262.667 167.644C262.554 168.03 262.441 168.494 262.327 169.038C262.214 169.582 262.123 170.024 262.055 170.364C261.897 171.18 261.704 172.132 261.477 173.22C261.273 174.286 261.035 175.408 260.763 176.586C260.514 177.765 260.231 178.921 259.913 180.054C259.619 181.256 259.256 182.57 258.825 183.998C258.395 185.404 257.941 186.82 257.465 188.248C256.989 189.676 256.502 191.025 256.003 192.294C255.505 193.564 255.04 194.674 254.609 195.626L251.617 194.606C252.139 193.722 252.66 192.668 253.181 191.444C253.725 190.198 254.247 188.872 254.745 187.466C255.267 186.061 255.743 184.667 256.173 183.284C256.627 181.879 257.012 180.587 257.329 179.408C257.556 178.615 257.771 177.776 257.975 176.892C258.179 176.008 258.372 175.147 258.553 174.308C258.735 173.447 258.882 172.665 258.995 171.962C259.131 171.237 259.233 170.648 259.301 170.194C259.369 169.718 259.415 169.22 259.437 168.698C259.46 168.177 259.449 167.735 259.403 167.372L262.667 167.644ZM255.119 173.322C256.389 173.322 257.749 173.266 259.199 173.152C260.673 173.016 262.169 172.824 263.687 172.574C265.206 172.325 266.668 172.019 268.073 171.656V174.342C266.668 174.66 265.195 174.932 263.653 175.158C262.112 175.385 260.593 175.566 259.097 175.702C257.624 175.816 256.287 175.872 255.085 175.872C254.337 175.872 253.646 175.861 253.011 175.838C252.377 175.793 251.753 175.759 251.141 175.736L251.039 173.084C251.855 173.175 252.581 173.243 253.215 173.288C253.873 173.311 254.507 173.322 255.119 173.322ZM265.863 178.014C266.77 177.924 267.756 177.856 268.821 177.81C269.909 177.742 270.997 177.708 272.085 177.708C273.083 177.708 274.08 177.731 275.077 177.776C276.097 177.822 277.061 177.901 277.967 178.014L277.899 180.598C277.038 180.485 276.12 180.394 275.145 180.326C274.171 180.236 273.185 180.19 272.187 180.19C271.122 180.19 270.057 180.224 268.991 180.292C267.949 180.338 266.906 180.417 265.863 180.53V178.014ZM266.577 186.276C266.441 186.82 266.328 187.353 266.237 187.874C266.147 188.396 266.101 188.883 266.101 189.336C266.101 189.744 266.169 190.141 266.305 190.526C266.464 190.889 266.747 191.218 267.155 191.512C267.563 191.807 268.141 192.045 268.889 192.226C269.66 192.408 270.646 192.498 271.847 192.498C272.958 192.498 274.08 192.442 275.213 192.328C276.347 192.215 277.435 192.045 278.477 191.818L278.375 194.572C277.469 194.708 276.46 194.822 275.349 194.912C274.239 195.003 273.06 195.048 271.813 195.048C269.139 195.048 267.087 194.64 265.659 193.824C264.231 192.986 263.517 191.728 263.517 190.05C263.517 189.393 263.563 188.736 263.653 188.078C263.767 187.421 263.891 186.741 264.027 186.038L266.577 186.276ZM295.579 167.236C295.534 167.44 295.5 167.678 295.477 167.95C295.455 168.2 295.432 168.472 295.409 168.766C295.387 169.061 295.364 169.333 295.341 169.582C295.319 170.104 295.285 170.784 295.239 171.622C295.217 172.461 295.194 173.39 295.171 174.41C295.149 175.408 295.126 176.428 295.103 177.47C295.081 178.49 295.069 179.442 295.069 180.326C295.069 181.21 295.069 182.185 295.069 183.25C295.092 184.293 295.115 185.336 295.137 186.378C295.183 187.398 295.205 188.35 295.205 189.234C295.228 190.096 295.239 190.787 295.239 191.308C295.239 192.351 295.115 193.178 294.865 193.79C294.616 194.402 294.265 194.833 293.811 195.082C293.381 195.354 292.859 195.49 292.247 195.49C291.59 195.49 290.853 195.332 290.037 195.014C289.221 194.72 288.439 194.312 287.691 193.79C286.966 193.269 286.365 192.668 285.889 191.988C285.413 191.308 285.175 190.594 285.175 189.846C285.175 188.826 285.561 187.829 286.331 186.854C287.125 185.88 288.145 184.973 289.391 184.134C290.661 183.296 291.998 182.616 293.403 182.094C294.945 181.482 296.52 181.029 298.129 180.734C299.739 180.417 301.212 180.258 302.549 180.258C304.204 180.258 305.666 180.542 306.935 181.108C308.227 181.675 309.236 182.468 309.961 183.488C310.709 184.486 311.083 185.664 311.083 187.024C311.083 188.384 310.8 189.586 310.233 190.628C309.689 191.671 308.873 192.544 307.785 193.246C306.72 193.949 305.405 194.493 303.841 194.878C303.093 195.037 302.345 195.139 301.597 195.184C300.872 195.252 300.215 195.309 299.625 195.354L298.673 192.6C299.308 192.623 299.965 192.623 300.645 192.6C301.348 192.578 302.017 192.498 302.651 192.362C303.649 192.181 304.578 191.875 305.439 191.444C306.323 190.991 307.026 190.402 307.547 189.676C308.091 188.951 308.363 188.078 308.363 187.058C308.363 186.084 308.103 185.268 307.581 184.61C307.06 183.953 306.357 183.454 305.473 183.114C304.589 182.774 303.603 182.604 302.515 182.604C301.019 182.604 299.557 182.763 298.129 183.08C296.701 183.398 295.251 183.851 293.777 184.44C292.689 184.848 291.692 185.358 290.785 185.97C289.879 186.56 289.153 187.183 288.609 187.84C288.088 188.498 287.827 189.121 287.827 189.71C287.827 190.096 287.952 190.47 288.201 190.832C288.473 191.172 288.802 191.478 289.187 191.75C289.573 192.022 289.981 192.238 290.411 192.396C290.842 192.532 291.216 192.6 291.533 192.6C291.919 192.6 292.213 192.464 292.417 192.192C292.644 191.92 292.757 191.501 292.757 190.934C292.757 190.277 292.746 189.37 292.723 188.214C292.701 187.036 292.678 185.766 292.655 184.406C292.633 183.024 292.621 181.709 292.621 180.462C292.621 179.488 292.621 178.445 292.621 177.334C292.644 176.224 292.655 175.147 292.655 174.104C292.678 173.062 292.689 172.144 292.689 171.35C292.712 170.557 292.723 169.99 292.723 169.65C292.723 169.424 292.712 169.163 292.689 168.868C292.689 168.551 292.678 168.245 292.655 167.95C292.633 167.656 292.599 167.418 292.553 167.236H295.579ZM306.119 171.01C306.935 171.441 307.842 171.962 308.839 172.574C309.837 173.164 310.789 173.764 311.695 174.376C312.625 174.988 313.361 175.521 313.905 175.974L312.511 178.15C312.103 177.742 311.582 177.312 310.947 176.858C310.313 176.382 309.633 175.918 308.907 175.464C308.182 174.988 307.468 174.546 306.765 174.138C306.063 173.708 305.439 173.345 304.895 173.05L306.119 171.01ZM285.719 173.356C286.649 173.47 287.442 173.549 288.099 173.594C288.779 173.617 289.437 173.628 290.071 173.628C290.91 173.628 291.851 173.583 292.893 173.492C293.936 173.402 295.013 173.288 296.123 173.152C297.234 172.994 298.311 172.812 299.353 172.608C300.419 172.382 301.371 172.144 302.209 171.894L302.277 174.546C301.393 174.75 300.407 174.954 299.319 175.158C298.231 175.34 297.121 175.498 295.987 175.634C294.877 175.77 293.811 175.884 292.791 175.974C291.771 176.065 290.887 176.11 290.139 176.11C289.165 176.11 288.337 176.099 287.657 176.076C287 176.054 286.377 176.008 285.787 175.94L285.719 173.356ZM339.337 181.278L341.275 182.094C340.595 182.797 339.768 183.466 338.793 184.1C337.841 184.735 336.821 185.302 335.733 185.8C334.645 186.299 333.557 186.73 332.469 187.092C332.311 186.843 332.084 186.582 331.789 186.31C331.517 186.016 331.268 185.766 331.041 185.562C332.061 185.245 333.093 184.871 334.135 184.44C335.178 184.01 336.153 183.522 337.059 182.978C337.966 182.434 338.725 181.868 339.337 181.278ZM342.601 184.576L344.505 185.358C343.644 186.31 342.59 187.183 341.343 187.976C340.119 188.747 338.771 189.438 337.297 190.05C335.847 190.64 334.351 191.15 332.809 191.58C332.673 191.331 332.481 191.048 332.231 190.73C331.982 190.39 331.733 190.107 331.483 189.88C332.934 189.54 334.362 189.121 335.767 188.622C337.173 188.101 338.465 187.5 339.643 186.82C340.845 186.118 341.831 185.37 342.601 184.576ZM345.763 188.282L347.973 189.234C346.863 190.572 345.435 191.75 343.689 192.77C341.944 193.768 339.983 194.606 337.807 195.286C335.654 195.989 333.376 196.556 330.973 196.986C330.837 196.692 330.645 196.34 330.395 195.932C330.146 195.524 329.897 195.184 329.647 194.912C331.937 194.572 334.113 194.108 336.175 193.518C338.238 192.929 340.097 192.204 341.751 191.342C343.429 190.458 344.766 189.438 345.763 188.282ZM334.815 165.808L337.161 166.42C336.345 168.438 335.314 170.364 334.067 172.2C332.821 174.014 331.517 175.544 330.157 176.79C330.021 176.654 329.829 176.496 329.579 176.314C329.353 176.11 329.115 175.918 328.865 175.736C328.616 175.532 328.389 175.385 328.185 175.294C329.568 174.138 330.837 172.733 331.993 171.078C333.172 169.401 334.113 167.644 334.815 165.808ZM334.067 169.548H347.905V171.69H332.775L334.067 169.548ZM343.247 170.024L345.661 170.568C344.732 172.722 343.485 174.592 341.921 176.178C340.38 177.742 338.589 179.068 336.549 180.156C334.532 181.244 332.345 182.162 329.987 182.91C329.897 182.706 329.761 182.48 329.579 182.23C329.398 181.981 329.205 181.732 329.001 181.482C328.797 181.233 328.627 181.029 328.491 180.87C330.781 180.281 332.889 179.51 334.815 178.558C336.765 177.584 338.453 176.394 339.881 174.988C341.332 173.583 342.454 171.928 343.247 170.024ZM333.829 170.874C334.532 172.234 335.552 173.56 336.889 174.852C338.249 176.144 339.938 177.289 341.955 178.286C343.995 179.284 346.341 180.032 348.993 180.53C348.835 180.689 348.665 180.893 348.483 181.142C348.302 181.392 348.132 181.641 347.973 181.89C347.815 182.14 347.679 182.378 347.565 182.604C344.913 181.992 342.579 181.131 340.561 180.02C338.544 178.91 336.844 177.674 335.461 176.314C334.079 174.932 333.002 173.538 332.231 172.132L333.829 170.874ZM326.145 169.888H328.423V191.478H326.145V169.888ZM323.527 166.046L325.873 166.692C325.239 168.664 324.479 170.614 323.595 172.54C322.734 174.467 321.782 176.28 320.739 177.98C319.719 179.68 318.654 181.199 317.543 182.536C317.475 182.332 317.362 182.072 317.203 181.754C317.045 181.414 316.875 181.086 316.693 180.768C316.512 180.428 316.353 180.145 316.217 179.918C317.192 178.785 318.133 177.482 319.039 176.008C319.969 174.512 320.807 172.914 321.555 171.214C322.326 169.514 322.983 167.792 323.527 166.046ZM320.807 174.342L323.153 171.996L323.221 172.064V197.122H320.807V174.342ZM365.789 176.042V180.428H378.403V176.042H365.789ZM365.789 169.65V173.968H378.403V169.65H365.789ZM363.443 167.406H380.851V182.638H363.443V167.406ZM363.035 186.65H381.327V188.962H363.035V186.65ZM360.417 193.654H382.483V196H360.417V193.654ZM351.169 168.12H361.777V170.534H351.169V168.12ZM351.509 177.98H361.267V180.36H351.509V177.98ZM350.795 191.002C351.725 190.73 352.767 190.424 353.923 190.084C355.102 189.722 356.337 189.325 357.629 188.894C358.944 188.441 360.259 187.999 361.573 187.568L362.015 190.05C360.179 190.662 358.332 191.286 356.473 191.92C354.615 192.532 352.937 193.088 351.441 193.586L350.795 191.002ZM355.385 169.072H357.833V190.152L355.385 190.628V169.072ZM370.991 168.46H373.201V181.55H373.405V194.708H370.787V181.55H370.991V168.46Z" fill="#162C53"/>
<path d="M601.535 0.535156H0.535004V136.535H601.535V0.535156Z" fill="#162C53"/>
<path d="M281.535 403.535L281.535 277.535" stroke="#8A8A8A" stroke-width="1.07" stroke-miterlimit="10"/>
<path d="M601.816 277.535H0.816254" stroke="#8A8A8A" stroke-width="1.07" stroke-miterlimit="10"/>
<path d="M112.791 337.591H129.207V339.439H112.791V337.591ZM120.543 331.399H122.439V338.431H120.543V331.399ZM111.855 331.999H113.727V339.991C113.727 341.191 113.679 342.391 113.583 343.591C113.503 344.791 113.335 345.967 113.079 347.119C112.823 348.271 112.439 349.383 111.927 350.455C111.415 351.527 110.727 352.543 109.863 353.503C109.767 353.343 109.631 353.175 109.455 352.999C109.295 352.839 109.127 352.671 108.951 352.495C108.775 352.335 108.607 352.199 108.447 352.087C109.471 350.951 110.223 349.719 110.703 348.391C111.183 347.063 111.495 345.687 111.639 344.263C111.783 342.839 111.855 341.415 111.855 339.991V331.999ZM112.719 343.279H125.511V353.455H123.567V345.127H112.719V343.279ZM150.687 331.399L152.007 332.863C150.935 333.183 149.703 333.471 148.311 333.727C146.935 333.967 145.471 334.175 143.919 334.351C142.383 334.527 140.831 334.671 139.263 334.783C137.711 334.895 136.207 334.975 134.751 335.023C134.719 334.799 134.655 334.535 134.559 334.231C134.479 333.911 134.399 333.655 134.319 333.463C135.743 333.383 137.223 333.287 138.759 333.175C140.295 333.063 141.799 332.927 143.271 332.767C144.743 332.591 146.111 332.391 147.375 332.167C148.655 331.943 149.759 331.687 150.687 331.399ZM134.343 338.191H153.039V339.919H134.343V338.191ZM132.735 343.807H154.407V345.583H132.735V343.807ZM142.647 333.967H144.495V350.935C144.495 351.575 144.391 352.047 144.183 352.351C143.991 352.671 143.671 352.903 143.223 353.047C142.759 353.191 142.119 353.279 141.303 353.311C140.503 353.359 139.471 353.375 138.207 353.359C138.159 353.183 138.095 352.983 138.015 352.759C137.935 352.551 137.839 352.335 137.727 352.111C137.631 351.903 137.535 351.727 137.439 351.583C138.111 351.599 138.751 351.607 139.359 351.607C139.967 351.607 140.495 351.607 140.943 351.607C141.391 351.607 141.711 351.607 141.903 351.607C142.175 351.591 142.367 351.535 142.479 351.439C142.591 351.343 142.647 351.175 142.647 350.935V333.967Z" fill="#040000"/>
<path d="M405.464 332.717V354.535H402.822V335.487H402.694L397.367 339.024V336.339L402.822 332.717H405.464ZM414.242 351.552L414.072 352.703C413.951 353.512 413.767 354.379 413.518 355.302C413.276 356.225 413.024 357.096 412.762 357.912C412.499 358.729 412.282 359.379 412.112 359.862H410.194C410.286 359.407 410.407 358.807 410.556 358.061C410.705 357.316 410.855 356.481 411.004 355.558C411.16 354.642 411.288 353.704 411.387 352.745L411.515 351.552H414.242ZM423.921 332.717V354.535H421.279V335.487H421.151L415.824 339.024V336.339L421.279 332.717H423.921ZM437.312 354.833C435.707 354.833 434.34 354.397 433.211 353.523C432.082 352.642 431.219 351.368 430.622 349.699C430.025 348.022 429.727 345.998 429.727 343.626C429.727 341.268 430.025 339.255 430.622 337.586C431.226 335.909 432.092 334.631 433.221 333.75C434.358 332.863 435.721 332.419 437.312 332.419C438.903 332.419 440.263 332.863 441.393 333.75C442.529 334.631 443.395 335.909 443.992 337.586C444.596 339.255 444.898 341.268 444.898 343.626C444.898 345.998 444.599 348.022 444.003 349.699C443.406 351.368 442.543 352.642 441.414 353.523C440.285 354.397 438.917 354.833 437.312 354.833ZM437.312 352.49C438.903 352.49 440.139 351.723 441.02 350.189C441.9 348.654 442.341 346.467 442.341 343.626C442.341 341.737 442.138 340.128 441.734 338.8C441.336 337.472 440.761 336.46 440.008 335.764C439.262 335.068 438.363 334.72 437.312 334.72C435.736 334.72 434.503 335.498 433.616 337.053C432.728 338.601 432.284 340.792 432.284 343.626C432.284 345.515 432.483 347.12 432.881 348.441C433.278 349.762 433.85 350.767 434.596 351.456C435.349 352.145 436.254 352.49 437.312 352.49ZM456.062 354.833C454.457 354.833 453.09 354.397 451.961 353.523C450.832 352.642 449.969 351.368 449.372 349.699C448.775 348.022 448.477 345.998 448.477 343.626C448.477 341.268 448.775 339.255 449.372 337.586C449.976 335.909 450.842 334.631 451.971 333.75C453.108 332.863 454.471 332.419 456.062 332.419C457.653 332.419 459.013 332.863 460.143 333.75C461.279 334.631 462.145 335.909 462.742 337.586C463.346 339.255 463.648 341.268 463.648 343.626C463.648 345.998 463.349 348.022 462.753 349.699C462.156 351.368 461.293 352.642 460.164 353.523C459.035 354.397 457.667 354.833 456.062 354.833ZM456.062 352.49C457.653 352.49 458.889 351.723 459.77 350.189C460.65 348.654 461.091 346.467 461.091 343.626C461.091 341.737 460.888 340.128 460.484 338.8C460.086 337.472 459.511 336.46 458.758 335.764C458.012 335.068 457.113 334.72 456.062 334.72C454.486 334.72 453.253 335.498 452.366 337.053C451.478 338.601 451.034 340.792 451.034 343.626C451.034 345.515 451.233 347.12 451.631 348.441C452.028 349.762 452.6 350.767 453.346 351.456C454.099 352.145 455.004 352.49 456.062 352.49ZM468.137 331.375H491.657V333.595H470.417V356.965H468.137V331.375ZM490.637 331.375H492.917V353.935C492.917 354.655 492.817 355.205 492.617 355.585C492.417 355.985 492.057 356.295 491.537 356.515C491.037 356.695 490.347 356.805 489.467 356.845C488.607 356.885 487.497 356.905 486.137 356.905C486.117 356.705 486.057 356.465 485.957 356.185C485.857 355.905 485.747 355.625 485.627 355.345C485.527 355.085 485.417 354.855 485.297 354.655C485.977 354.675 486.627 354.685 487.247 354.685C487.887 354.685 488.437 354.685 488.897 354.685C489.357 354.685 489.687 354.685 489.887 354.685C490.167 354.665 490.357 354.605 490.457 354.505C490.577 354.385 490.637 354.195 490.637 353.935V331.375ZM469.397 342.445H491.717V344.665H469.397V342.445ZM479.237 332.485H481.487V343.555H479.237V332.485Z" fill="#040000"/>
<path d="M211.775 48.0139C212.095 48.4672 212.455 49.0139 212.855 49.6539C213.255 50.2939 213.642 50.9339 214.015 51.5739C214.388 52.1872 214.695 52.7606 214.935 53.2939L212.735 54.2539C212.468 53.7206 212.148 53.1339 211.775 52.4939C211.428 51.8539 211.055 51.2272 210.655 50.6139C210.282 49.9739 209.922 49.4139 209.575 48.9339L211.775 48.0139ZM216.895 46.9739C217.242 47.4272 217.615 47.9739 218.015 48.6139C218.415 49.2272 218.802 49.8672 219.175 50.5339C219.575 51.1739 219.908 51.7472 220.175 52.2539L217.975 53.2139C217.522 52.3872 217.002 51.4672 216.415 50.4539C215.828 49.4406 215.255 48.5872 214.695 47.8939L216.895 46.9739ZM215.375 55.2139C215.242 55.4806 215.122 55.7872 215.015 56.1339C214.935 56.4539 214.855 56.8139 214.775 57.2139C214.562 58.2539 214.282 59.4139 213.935 60.6939C213.588 61.9739 213.162 63.2939 212.655 64.6539C212.175 65.9872 211.602 67.2806 210.935 68.5339C210.295 69.7872 209.588 70.9339 208.815 71.9739C207.588 73.5206 206.215 74.9606 204.695 76.2939C203.202 77.6272 201.495 78.8272 199.575 79.8939C197.682 80.9606 195.508 81.8806 193.055 82.6539L190.335 79.6539C192.922 79.0139 195.162 78.2139 197.055 77.2539C198.975 76.2939 200.655 75.2139 202.095 74.0139C203.535 72.7872 204.815 71.4672 205.935 70.0539C206.895 68.8272 207.722 67.4539 208.415 65.9339C209.135 64.3872 209.722 62.8406 210.175 61.2939C210.655 59.7206 210.988 58.2939 211.175 57.0139C210.775 57.0139 210.055 57.0139 209.015 57.0139C208.002 57.0139 206.788 57.0139 205.375 57.0139C203.962 57.0139 202.482 57.0139 200.935 57.0139C199.388 57.0139 197.908 57.0139 196.495 57.0139C195.108 57.0139 193.895 57.0139 192.855 57.0139C191.815 57.0139 191.095 57.0139 190.695 57.0139C189.922 57.0139 189.188 57.0272 188.495 57.0539C187.828 57.0806 187.242 57.1072 186.735 57.1339V53.5739C187.108 53.6272 187.508 53.6806 187.935 53.7339C188.388 53.7606 188.855 53.7872 189.335 53.8139C189.842 53.8406 190.308 53.8539 190.735 53.8539C191.055 53.8539 191.615 53.8539 192.415 53.8539C193.242 53.8539 194.228 53.8539 195.375 53.8539C196.522 53.8539 197.735 53.8539 199.015 53.8539C200.295 53.8539 201.575 53.8539 202.855 53.8539C204.135 53.8539 205.322 53.8539 206.415 53.8539C207.535 53.8539 208.482 53.8539 209.255 53.8539C210.028 53.8539 210.535 53.8539 210.775 53.8539C211.095 53.8539 211.442 53.8406 211.815 53.8139C212.188 53.7872 212.562 53.7339 212.935 53.6539L215.375 55.2139ZM230.415 79.9739C230.575 79.6539 230.682 79.3472 230.735 79.0539C230.788 78.7606 230.815 78.4139 230.815 78.0139C230.815 77.6139 230.815 76.8672 230.815 75.7739C230.815 74.6806 230.815 73.3739 230.815 71.8539C230.815 70.3339 230.815 68.7472 230.815 67.0939C230.815 65.4139 230.815 63.7872 230.815 62.2139C230.815 60.6139 230.815 59.2006 230.815 57.9739C230.815 56.7206 230.815 55.7739 230.815 55.1339C230.815 54.7872 230.788 54.3739 230.735 53.8939C230.708 53.4139 230.668 52.9606 230.615 52.5339C230.588 52.1072 230.535 51.7606 230.455 51.4939H234.415C234.335 51.9739 234.268 52.5606 234.215 53.2539C234.162 53.9206 234.135 54.5472 234.135 55.1339C234.135 55.6672 234.135 56.4406 234.135 57.4539C234.135 58.4672 234.135 59.6272 234.135 60.9339C234.135 62.2139 234.135 63.5739 234.135 65.0139C234.135 66.4539 234.135 67.8672 234.135 69.2539C234.135 70.6406 234.135 71.9339 234.135 73.1339C234.135 74.3072 234.135 75.3072 234.135 76.1339C234.135 76.9606 234.135 77.5206 234.135 77.8139C236.055 77.3339 238.028 76.6539 240.055 75.7739C242.108 74.8939 244.108 73.8672 246.055 72.6939C248.028 71.4939 249.868 70.1872 251.575 68.7739C253.308 67.3339 254.788 65.8006 256.015 64.1739L257.815 66.9739C255.228 70.2006 251.922 73.0272 247.895 75.4539C243.895 77.8806 239.402 79.8139 234.415 81.2539C234.202 81.3072 233.948 81.3872 233.655 81.4939C233.362 81.6272 233.055 81.7872 232.735 81.9739L230.415 79.9739ZM293.535 54.4939C293.402 54.6539 293.228 54.9206 293.015 55.2939C292.828 55.6406 292.668 55.9606 292.535 56.2539C292.028 57.5606 291.362 59.0139 290.535 60.6139C289.708 62.1872 288.788 63.7472 287.775 65.2939C286.762 66.8406 285.695 68.2406 284.575 69.4939C283.108 71.1472 281.495 72.7606 279.735 74.3339C277.975 75.8806 276.122 77.3339 274.175 78.6939C272.228 80.0272 270.202 81.1739 268.095 82.1339L265.535 79.4539C267.695 78.6006 269.762 77.5472 271.735 76.2939C273.735 75.0139 275.602 73.6272 277.335 72.1339C279.095 70.6139 280.655 69.0939 282.015 67.5739C282.922 66.5339 283.815 65.3739 284.695 64.0939C285.602 62.7872 286.402 61.4672 287.095 60.1339C287.815 58.7739 288.335 57.5472 288.655 56.4539C288.442 56.4539 287.935 56.4539 287.135 56.4539C286.335 56.4539 285.388 56.4539 284.295 56.4539C283.202 56.4539 282.055 56.4539 280.855 56.4539C279.655 56.4539 278.508 56.4539 277.415 56.4539C276.322 56.4539 275.375 56.4539 274.575 56.4539C273.802 56.4539 273.295 56.4539 273.055 56.4539C272.602 56.4539 272.082 56.4672 271.495 56.4939C270.935 56.5206 270.415 56.5472 269.935 56.5739C269.482 56.6006 269.175 56.6272 269.015 56.6539V53.0139C269.202 53.0406 269.535 53.0806 270.015 53.1339C270.522 53.1606 271.055 53.1872 271.615 53.2139C272.175 53.2406 272.655 53.2539 273.055 53.2539C273.348 53.2539 273.882 53.2539 274.655 53.2539C275.428 53.2539 276.348 53.2539 277.415 53.2539C278.508 53.2539 279.642 53.2539 280.815 53.2539C281.988 53.2539 283.108 53.2539 284.175 53.2539C285.268 53.2539 286.202 53.2539 286.975 53.2539C287.748 53.2539 288.255 53.2539 288.495 53.2539C289.162 53.2539 289.748 53.2272 290.255 53.1739C290.788 53.1206 291.202 53.0406 291.495 52.9339L293.535 54.4939ZM285.095 67.3739C286.188 68.2806 287.308 69.2806 288.455 70.3739C289.628 71.4672 290.775 72.6006 291.895 73.7739C293.015 74.9206 294.055 76.0272 295.015 77.0939C295.975 78.1339 296.802 79.0806 297.495 79.9339L294.695 82.3339C293.762 81.0539 292.642 79.6806 291.335 78.2139C290.028 76.7206 288.642 75.2406 287.175 73.7739C285.735 72.2806 284.282 70.9072 282.815 69.6539L285.095 67.3739ZM310.415 79.9739C310.575 79.6539 310.682 79.3472 310.735 79.0539C310.788 78.7606 310.815 78.4139 310.815 78.0139C310.815 77.6139 310.815 76.8672 310.815 75.7739C310.815 74.6806 310.815 73.3739 310.815 71.8539C310.815 70.3339 310.815 68.7472 310.815 67.0939C310.815 65.4139 310.815 63.7872 310.815 62.2139C310.815 60.6139 310.815 59.2006 310.815 57.9739C310.815 56.7206 310.815 55.7739 310.815 55.1339C310.815 54.7872 310.788 54.3739 310.735 53.8939C310.708 53.4139 310.668 52.9606 310.615 52.5339C310.588 52.1072 310.535 51.7606 310.455 51.4939H314.415C314.335 51.9739 314.268 52.5606 314.215 53.2539C314.162 53.9206 314.135 54.5472 314.135 55.1339C314.135 55.6672 314.135 56.4406 314.135 57.4539C314.135 58.4672 314.135 59.6272 314.135 60.9339C314.135 62.2139 314.135 63.5739 314.135 65.0139C314.135 66.4539 314.135 67.8672 314.135 69.2539C314.135 70.6406 314.135 71.9339 314.135 73.1339C314.135 74.3072 314.135 75.3072 314.135 76.1339C314.135 76.9606 314.135 77.5206 314.135 77.8139C316.055 77.3339 318.028 76.6539 320.055 75.7739C322.108 74.8939 324.108 73.8672 326.055 72.6939C328.028 71.4939 329.868 70.1872 331.575 68.7739C333.308 67.3339 334.788 65.8006 336.015 64.1739L337.815 66.9739C335.228 70.2006 331.922 73.0272 327.895 75.4539C323.895 77.8806 319.402 79.8139 314.415 81.2539C314.202 81.3072 313.948 81.3872 313.655 81.4939C313.362 81.6272 313.055 81.7872 312.735 81.9739L310.415 79.9739ZM360.855 58.2139C361.042 58.6139 361.282 59.2139 361.575 60.0139C361.868 60.7872 362.175 61.6139 362.495 62.4939C362.842 63.3739 363.148 64.2139 363.415 65.0139C363.682 65.7872 363.882 66.4006 364.015 66.8539L361.055 67.8939C360.948 67.4406 360.762 66.8272 360.495 66.0539C360.255 65.2806 359.975 64.4539 359.655 63.5739C359.335 62.6672 359.015 61.8272 358.695 61.0539C358.375 60.2806 358.122 59.6672 357.935 59.2139L360.855 58.2139ZM375.335 60.4539C375.202 60.8539 375.082 61.2272 374.975 61.5739C374.895 61.8939 374.815 62.1872 374.735 62.4539C374.202 64.6406 373.482 66.7872 372.575 68.8939C371.668 70.9739 370.495 72.9206 369.055 74.7339C367.215 77.0806 365.135 79.0406 362.815 80.6139C360.522 82.1872 358.255 83.4006 356.015 84.2539L353.375 81.5739C354.922 81.0939 356.482 80.4539 358.055 79.6539C359.655 78.8539 361.162 77.8939 362.575 76.7739C364.015 75.6539 365.282 74.4139 366.375 73.0539C367.335 71.8806 368.188 70.5606 368.935 69.0939C369.708 67.6272 370.348 66.0672 370.855 64.4139C371.362 62.7606 371.708 61.0806 371.895 59.3739L375.335 60.4539ZM351.575 60.2139C351.788 60.6672 352.055 61.2806 352.375 62.0539C352.695 62.8272 353.028 63.6806 353.375 64.6139C353.748 65.5206 354.095 66.4006 354.415 67.2539C354.762 68.0806 355.028 68.7472 355.215 69.2539L352.175 70.3739C352.015 69.8672 351.775 69.1872 351.455 68.3339C351.162 67.4539 350.828 66.5472 350.455 65.6139C350.082 64.6806 349.722 63.8272 349.375 63.0539C349.055 62.2806 348.802 61.7206 348.615 61.3739L351.575 60.2139ZM395.015 77.7339C395.015 77.3606 395.015 76.6139 395.015 75.4939C395.015 74.3472 395.015 73.0006 395.015 71.4539C395.015 69.8806 395.015 68.2406 395.015 66.5339C395.015 64.8006 395.015 63.1206 395.015 61.4939C395.015 59.8672 395.015 58.4272 395.015 57.1739C395.015 55.9206 395.015 55.0139 395.015 54.4539C395.015 53.8939 394.988 53.2139 394.935 52.4139C394.882 51.6139 394.802 50.9072 394.695 50.2939H398.615C398.562 50.8806 398.495 51.5739 398.415 52.3739C398.362 53.1739 398.335 53.8672 398.335 54.4539C398.335 55.4939 398.335 56.7472 398.335 58.2139C398.335 59.6539 398.335 61.2006 398.335 62.8539C398.335 64.4806 398.335 66.1072 398.335 67.7339C398.362 69.3339 398.375 70.8406 398.375 72.2539C398.375 73.6406 398.375 74.8272 398.375 75.8139C398.375 76.7739 398.375 77.4139 398.375 77.7339C398.375 78.1606 398.375 78.6539 398.375 79.2139C398.402 79.7739 398.442 80.3472 398.495 80.9339C398.548 81.4939 398.588 82.0006 398.615 82.4539H394.735C394.842 81.8139 394.908 81.0539 394.935 80.1739C394.988 79.2939 395.015 78.4806 395.015 77.7339ZM397.655 60.7739C398.962 61.1739 400.402 61.6539 401.975 62.2139C403.575 62.7472 405.202 63.3206 406.855 63.9339C408.508 64.5472 410.068 65.1739 411.535 65.8139C413.028 66.4272 414.322 67.0139 415.415 67.5739L414.055 70.9739C412.908 70.3339 411.615 69.7072 410.175 69.0939C408.735 68.4539 407.255 67.8272 405.735 67.2139C404.242 66.6006 402.788 66.0539 401.375 65.5739C399.988 65.0672 398.748 64.6539 397.655 64.3339V60.7739Z" fill="white"/>
<path d="M601.535 0.535156H0.535004V403.535H601.535V0.535156Z" stroke="#8A8A8A" stroke-width="1.07" stroke-miterlimit="10"/>
<path d="M99.7083 239.691L98.0833 238.029L107.981 227.947L109.606 229.609L99.7083 239.691ZM107.981 239.691L98.0833 229.609L99.7083 227.947L109.606 238.029L107.981 239.691ZM96.8645 233.745C96.8645 233.339 96.9846 232.998 97.2246 232.721C97.4647 232.444 97.8248 232.305 98.3049 232.305C98.8035 232.305 99.1728 232.444 99.4128 232.721C99.6591 232.998 99.7822 233.339 99.7822 233.745C99.7822 234.133 99.6591 234.459 99.4128 234.724C99.1728 234.983 98.8035 235.112 98.3049 235.112C97.8248 235.112 97.4647 234.983 97.2246 234.724C96.9846 234.459 96.8645 234.133 96.8645 233.745ZM102.294 239.322C102.294 238.934 102.414 238.605 102.654 238.334C102.894 238.057 103.254 237.919 103.734 237.919C104.214 237.919 104.58 238.057 104.833 238.334C105.085 238.605 105.211 238.934 105.211 239.322C105.211 239.71 105.085 240.042 104.833 240.319C104.58 240.59 104.214 240.725 103.734 240.725C103.254 240.725 102.894 240.59 102.654 240.319C102.414 240.042 102.294 239.71 102.294 239.322ZM102.294 228.316C102.294 227.929 102.414 227.599 102.654 227.328C102.894 227.051 103.254 226.913 103.734 226.913C104.214 226.913 104.58 227.051 104.833 227.328C105.085 227.599 105.211 227.929 105.211 228.316C105.211 228.704 105.085 229.037 104.833 229.314C104.58 229.584 104.214 229.72 103.734 229.72C103.254 229.72 102.894 229.584 102.654 229.314C102.414 229.037 102.294 228.704 102.294 228.316ZM107.686 233.745C107.686 233.339 107.812 232.998 108.064 232.721C108.316 232.444 108.683 232.305 109.163 232.305C109.643 232.305 110.009 232.444 110.262 232.721C110.514 232.998 110.64 233.339 110.64 233.745C110.64 234.133 110.514 234.459 110.262 234.724C110.009 234.983 109.643 235.112 109.163 235.112C108.683 235.112 108.316 234.983 108.064 234.724C107.812 234.459 107.686 234.133 107.686 233.745ZM122.623 221.761C122.589 221.917 122.563 222.099 122.545 222.307C122.528 222.498 122.511 222.706 122.493 222.931C122.476 223.156 122.459 223.364 122.441 223.555C122.424 223.954 122.398 224.474 122.363 225.115C122.346 225.756 122.329 226.467 122.311 227.247C122.294 228.01 122.277 228.79 122.259 229.587C122.242 230.367 122.233 231.095 122.233 231.771C122.233 232.447 122.233 233.192 122.233 234.007C122.251 234.804 122.268 235.602 122.285 236.399C122.32 237.179 122.337 237.907 122.337 238.583C122.355 239.242 122.363 239.77 122.363 240.169C122.363 240.966 122.268 241.599 122.077 242.067C121.887 242.535 121.618 242.864 121.271 243.055C120.942 243.263 120.543 243.367 120.075 243.367C119.573 243.367 119.009 243.246 118.385 243.003C117.761 242.778 117.163 242.466 116.591 242.067C116.037 241.668 115.577 241.209 115.213 240.689C114.849 240.169 114.667 239.623 114.667 239.051C114.667 238.271 114.962 237.508 115.551 236.763C116.158 236.018 116.938 235.324 117.891 234.683C118.862 234.042 119.885 233.522 120.959 233.123C122.138 232.655 123.343 232.308 124.573 232.083C125.804 231.84 126.931 231.719 127.953 231.719C129.219 231.719 130.337 231.936 131.307 232.369C132.295 232.802 133.067 233.409 133.621 234.189C134.193 234.952 134.479 235.853 134.479 236.893C134.479 237.933 134.263 238.852 133.829 239.649C133.413 240.446 132.789 241.114 131.957 241.651C131.143 242.188 130.137 242.604 128.941 242.899C128.369 243.02 127.797 243.098 127.225 243.133C126.671 243.185 126.168 243.228 125.717 243.263L124.989 241.157C125.475 241.174 125.977 241.174 126.497 241.157C127.035 241.14 127.546 241.079 128.031 240.975C128.794 240.836 129.505 240.602 130.163 240.273C130.839 239.926 131.377 239.476 131.775 238.921C132.191 238.366 132.399 237.699 132.399 236.919C132.399 236.174 132.2 235.55 131.801 235.047C131.403 234.544 130.865 234.163 130.189 233.903C129.513 233.643 128.759 233.513 127.927 233.513C126.783 233.513 125.665 233.634 124.573 233.877C123.481 234.12 122.372 234.466 121.245 234.917C120.413 235.229 119.651 235.619 118.957 236.087C118.264 236.538 117.709 237.014 117.293 237.517C116.895 238.02 116.695 238.496 116.695 238.947C116.695 239.242 116.791 239.528 116.981 239.805C117.189 240.065 117.441 240.299 117.735 240.507C118.03 240.715 118.342 240.88 118.671 241.001C119.001 241.105 119.287 241.157 119.529 241.157C119.824 241.157 120.049 241.053 120.205 240.845C120.379 240.637 120.465 240.316 120.465 239.883C120.465 239.38 120.457 238.687 120.439 237.803C120.422 236.902 120.405 235.931 120.387 234.891C120.37 233.834 120.361 232.828 120.361 231.875C120.361 231.13 120.361 230.332 120.361 229.483C120.379 228.634 120.387 227.81 120.387 227.013C120.405 226.216 120.413 225.514 120.413 224.907C120.431 224.3 120.439 223.867 120.439 223.607C120.439 223.434 120.431 223.234 120.413 223.009C120.413 222.766 120.405 222.532 120.387 222.307C120.37 222.082 120.344 221.9 120.309 221.761H122.623ZM130.683 224.647C131.307 224.976 132.001 225.375 132.763 225.843C133.526 226.294 134.254 226.753 134.947 227.221C135.658 227.689 136.221 228.096 136.637 228.443L135.571 230.107C135.259 229.795 134.861 229.466 134.375 229.119C133.89 228.755 133.37 228.4 132.815 228.053C132.261 227.689 131.715 227.351 131.177 227.039C130.64 226.71 130.163 226.432 129.747 226.207L130.683 224.647ZM115.083 226.441C115.794 226.528 116.401 226.588 116.903 226.623C117.423 226.64 117.926 226.649 118.411 226.649C119.053 226.649 119.772 226.614 120.569 226.545C121.367 226.476 122.19 226.389 123.039 226.285C123.889 226.164 124.712 226.025 125.509 225.869C126.324 225.696 127.052 225.514 127.693 225.323L127.745 227.351C127.069 227.507 126.315 227.663 125.483 227.819C124.651 227.958 123.802 228.079 122.935 228.183C122.086 228.287 121.271 228.374 120.491 228.443C119.711 228.512 119.035 228.547 118.463 228.547C117.718 228.547 117.085 228.538 116.565 228.521C116.063 228.504 115.586 228.469 115.135 228.417L115.083 226.441ZM139.471 221.943H147.921V223.685H139.471V221.943ZM138.925 230.211H148.857V231.979H138.925V230.211ZM143.215 231.069H145.087V242.327C145.087 242.847 145.018 243.254 144.879 243.549C144.741 243.844 144.489 244.069 144.125 244.225C143.761 244.381 143.276 244.476 142.669 244.511C142.08 244.546 141.335 244.563 140.433 244.563C140.399 244.303 140.321 243.991 140.199 243.627C140.078 243.28 139.948 242.968 139.809 242.691C140.485 242.708 141.092 242.717 141.629 242.717C142.184 242.717 142.548 242.717 142.721 242.717C142.912 242.7 143.042 242.665 143.111 242.613C143.181 242.561 143.215 242.448 143.215 242.275V231.069ZM147.323 221.943H147.739L148.129 221.839L149.351 222.697C148.953 223.356 148.485 224.032 147.947 224.725C147.41 225.418 146.855 226.077 146.283 226.701C145.711 227.308 145.148 227.845 144.593 228.313C144.472 228.122 144.29 227.923 144.047 227.715C143.822 227.49 143.623 227.299 143.449 227.143C143.935 226.727 144.42 226.242 144.905 225.687C145.391 225.132 145.85 224.56 146.283 223.971C146.717 223.382 147.063 222.836 147.323 222.333V221.943ZM148.311 230.211H148.571L148.857 230.133L150.079 230.471C149.75 231.459 149.386 232.482 148.987 233.539C148.606 234.579 148.242 235.454 147.895 236.165L146.413 235.775C146.621 235.342 146.838 234.83 147.063 234.241C147.289 233.634 147.505 233.01 147.713 232.369C147.939 231.71 148.138 231.086 148.311 230.497V230.211ZM140.225 226.493L141.265 225.219C141.993 225.583 142.739 226.008 143.501 226.493C144.281 226.978 145.009 227.481 145.685 228.001C146.361 228.504 146.907 228.972 147.323 229.405L146.205 230.861C145.807 230.41 145.269 229.925 144.593 229.405C143.935 228.868 143.224 228.348 142.461 227.845C141.699 227.325 140.953 226.874 140.225 226.493ZM149.533 221.917H162.741V223.607H149.533V221.917ZM152.367 231.563V234.111H159.985V231.563H152.367ZM152.367 235.567V238.141H159.985V235.567H152.367ZM152.367 227.611V230.107H159.985V227.611H152.367ZM150.547 226.077H161.857V239.649H150.547V226.077ZM155.123 222.723L157.333 223.009C157.125 223.754 156.909 224.508 156.683 225.271C156.458 226.034 156.241 226.692 156.033 227.247L154.291 226.909C154.395 226.51 154.499 226.068 154.603 225.583C154.725 225.08 154.829 224.578 154.915 224.075C155.002 223.572 155.071 223.122 155.123 222.723ZM153.147 240.117L154.837 241.131C154.369 241.582 153.806 242.032 153.147 242.483C152.489 242.934 151.787 243.35 151.041 243.731C150.313 244.112 149.603 244.433 148.909 244.693C148.753 244.52 148.545 244.303 148.285 244.043C148.025 243.783 147.791 243.566 147.583 243.393C148.277 243.133 148.979 242.83 149.689 242.483C150.4 242.119 151.059 241.738 151.665 241.339C152.272 240.923 152.766 240.516 153.147 240.117ZM157.177 241.261L158.633 240.247C159.171 240.542 159.725 240.888 160.297 241.287C160.887 241.686 161.441 242.084 161.961 242.483C162.499 242.882 162.941 243.246 163.287 243.575L161.727 244.693C161.415 244.364 160.999 244 160.479 243.601C159.977 243.202 159.431 242.795 158.841 242.379C158.252 241.963 157.697 241.59 157.177 241.261ZM175.325 222.255C175.273 222.48 175.221 222.732 175.169 223.009C175.117 223.269 175.065 223.529 175.013 223.789C174.961 224.101 174.883 224.526 174.779 225.063C174.693 225.6 174.597 226.172 174.493 226.779C174.389 227.368 174.268 227.932 174.129 228.469C173.956 229.214 173.739 230.055 173.479 230.991C173.219 231.91 172.925 232.889 172.595 233.929C172.266 234.969 171.893 236.035 171.477 237.127C171.061 238.202 170.602 239.276 170.099 240.351C169.597 241.408 169.051 242.405 168.461 243.341L166.329 242.509C166.936 241.712 167.491 240.819 167.993 239.831C168.513 238.843 168.99 237.82 169.423 236.763C169.857 235.688 170.247 234.631 170.593 233.591C170.957 232.551 171.261 231.589 171.503 230.705C171.746 229.821 171.937 229.058 172.075 228.417C172.318 227.377 172.517 226.302 172.673 225.193C172.829 224.066 172.907 223 172.907 221.995L175.325 222.255ZM184.269 225.011C184.685 225.548 185.119 226.216 185.569 227.013C186.037 227.81 186.488 228.66 186.921 229.561C187.372 230.462 187.779 231.329 188.143 232.161C188.507 232.993 188.802 233.712 189.027 234.319L186.999 235.281C186.809 234.622 186.549 233.868 186.219 233.019C185.89 232.152 185.509 231.277 185.075 230.393C184.659 229.492 184.217 228.651 183.749 227.871C183.299 227.074 182.839 226.406 182.371 225.869L184.269 225.011ZM165.965 227.949C166.364 227.984 166.745 228.001 167.109 228.001C167.473 227.984 167.863 227.966 168.279 227.949C168.678 227.932 169.181 227.906 169.787 227.871C170.394 227.819 171.053 227.767 171.763 227.715C172.491 227.663 173.202 227.611 173.895 227.559C174.606 227.49 175.256 227.438 175.845 227.403C176.452 227.351 176.929 227.325 177.275 227.325C178.055 227.325 178.757 227.446 179.381 227.689C180.023 227.932 180.534 228.374 180.915 229.015C181.297 229.656 181.487 230.558 181.487 231.719C181.487 232.742 181.435 233.851 181.331 235.047C181.245 236.226 181.089 237.352 180.863 238.427C180.638 239.502 180.343 240.394 179.979 241.105C179.581 241.989 179.061 242.57 178.419 242.847C177.778 243.142 177.033 243.289 176.183 243.289C175.698 243.289 175.169 243.246 174.597 243.159C174.025 243.09 173.531 243.003 173.115 242.899L172.777 240.741C173.159 240.845 173.54 240.94 173.921 241.027C174.32 241.114 174.701 241.174 175.065 241.209C175.429 241.244 175.733 241.261 175.975 241.261C176.443 241.261 176.868 241.183 177.249 241.027C177.648 240.854 177.977 240.49 178.237 239.935C178.515 239.346 178.74 238.609 178.913 237.725C179.104 236.824 179.243 235.87 179.329 234.865C179.433 233.86 179.485 232.898 179.485 231.979C179.485 231.164 179.373 230.566 179.147 230.185C178.922 229.786 178.601 229.518 178.185 229.379C177.769 229.223 177.284 229.145 176.729 229.145C176.279 229.145 175.681 229.18 174.935 229.249C174.19 229.301 173.393 229.37 172.543 229.457C171.711 229.544 170.931 229.63 170.203 229.717C169.475 229.786 168.912 229.847 168.513 229.899C168.219 229.934 167.837 229.986 167.369 230.055C166.919 230.107 166.52 230.159 166.173 230.211L165.965 227.949ZM198.751 222.021C198.613 222.506 198.474 223.07 198.335 223.711C198.214 224.335 198.093 224.994 197.971 225.687C197.867 226.363 197.772 227.013 197.685 227.637C197.616 228.261 197.564 228.798 197.529 229.249C197.807 228.59 198.171 227.914 198.621 227.221C199.072 226.528 199.609 225.895 200.233 225.323C200.857 224.734 201.533 224.257 202.261 223.893C203.007 223.529 203.787 223.347 204.601 223.347C205.763 223.347 206.785 223.711 207.669 224.439C208.571 225.167 209.273 226.198 209.775 227.533C210.278 228.868 210.529 230.445 210.529 232.265C210.529 234.068 210.261 235.636 209.723 236.971C209.186 238.288 208.432 239.406 207.461 240.325C206.491 241.244 205.329 241.989 203.977 242.561C202.643 243.133 201.169 243.558 199.557 243.835L198.335 241.963C199.739 241.755 201.048 241.443 202.261 241.027C203.492 240.594 204.567 240.013 205.485 239.285C206.404 238.54 207.115 237.595 207.617 236.451C208.137 235.307 208.397 233.92 208.397 232.291C208.397 230.922 208.241 229.708 207.929 228.651C207.617 227.576 207.158 226.736 206.551 226.129C205.945 225.522 205.182 225.219 204.263 225.219C203.449 225.219 202.669 225.479 201.923 225.999C201.178 226.519 200.493 227.195 199.869 228.027C199.263 228.842 198.769 229.726 198.387 230.679C198.006 231.615 197.772 232.508 197.685 233.357C197.616 233.86 197.581 234.354 197.581 234.839C197.599 235.324 197.651 235.896 197.737 236.555L195.735 236.711C195.666 236.226 195.597 235.628 195.527 234.917C195.475 234.206 195.449 233.426 195.449 232.577C195.449 231.97 195.475 231.294 195.527 230.549C195.597 229.786 195.666 229.024 195.735 228.261C195.822 227.481 195.909 226.736 195.995 226.025C196.099 225.314 196.186 224.699 196.255 224.179C196.307 223.78 196.351 223.399 196.385 223.035C196.42 222.654 196.446 222.29 196.463 221.943L198.751 222.021ZM227.793 224.985C228.504 225.089 229.327 225.176 230.263 225.245C231.217 225.297 232.196 225.323 233.201 225.323C234.224 225.306 235.195 225.271 236.113 225.219C237.049 225.15 237.838 225.063 238.479 224.959V227.065C237.786 227.134 236.971 227.195 236.035 227.247C235.117 227.282 234.155 227.299 233.149 227.299C232.161 227.299 231.199 227.282 230.263 227.247C229.327 227.195 228.504 227.134 227.793 227.065V224.985ZM228.807 235.567C228.686 236.035 228.591 236.46 228.521 236.841C228.452 237.222 228.417 237.595 228.417 237.959C228.417 238.254 228.478 238.548 228.599 238.843C228.738 239.12 228.963 239.372 229.275 239.597C229.605 239.805 230.055 239.978 230.627 240.117C231.199 240.238 231.927 240.299 232.811 240.299C233.99 240.299 235.099 240.247 236.139 240.143C237.179 240.022 238.219 239.848 239.259 239.623L239.311 241.807C238.497 241.98 237.543 242.119 236.451 242.223C235.377 242.31 234.163 242.353 232.811 242.353C230.627 242.353 229.024 242.006 228.001 241.313C226.996 240.62 226.493 239.666 226.493 238.453C226.493 238.02 226.528 237.56 226.597 237.075C226.684 236.572 226.797 236.009 226.935 235.385L228.807 235.567ZM222.827 222.983C222.793 223.122 222.741 223.304 222.671 223.529C222.619 223.737 222.559 223.954 222.489 224.179C222.437 224.387 222.394 224.569 222.359 224.725C222.273 225.21 222.169 225.774 222.047 226.415C221.926 227.039 221.805 227.715 221.683 228.443C221.579 229.154 221.475 229.882 221.371 230.627C221.285 231.355 221.207 232.066 221.137 232.759C221.085 233.452 221.059 234.094 221.059 234.683C221.059 235.324 221.077 235.931 221.111 236.503C221.163 237.075 221.224 237.682 221.293 238.323C221.449 237.924 221.614 237.5 221.787 237.049C221.961 236.598 222.134 236.156 222.307 235.723C222.498 235.272 222.663 234.874 222.801 234.527L223.893 235.359C223.668 235.983 223.425 236.668 223.165 237.413C222.905 238.158 222.671 238.878 222.463 239.571C222.273 240.247 222.134 240.784 222.047 241.183C222.013 241.374 221.978 241.582 221.943 241.807C221.909 242.032 221.9 242.214 221.917 242.353C221.935 242.492 221.943 242.639 221.943 242.795C221.961 242.968 221.978 243.124 221.995 243.263L220.123 243.393C219.863 242.474 219.638 241.296 219.447 239.857C219.257 238.401 219.161 236.798 219.161 235.047C219.161 234.094 219.205 233.123 219.291 232.135C219.378 231.13 219.491 230.159 219.629 229.223C219.768 228.27 219.898 227.403 220.019 226.623C220.158 225.826 220.262 225.158 220.331 224.621C220.383 224.309 220.427 223.997 220.461 223.685C220.496 223.356 220.513 223.052 220.513 222.775L222.827 222.983ZM244.459 226.129C244.945 226.198 245.456 226.25 245.993 226.285C246.531 226.302 247.077 226.311 247.631 226.311C248.585 226.311 249.564 226.268 250.569 226.181C251.592 226.094 252.623 225.956 253.663 225.765C254.703 225.557 255.726 225.288 256.731 224.959L256.783 226.909C255.934 227.134 254.998 227.342 253.975 227.533C252.97 227.724 251.921 227.88 250.829 228.001C249.755 228.105 248.689 228.157 247.631 228.157C247.163 228.157 246.661 228.157 246.123 228.157C245.603 228.14 245.092 228.114 244.589 228.079L244.459 226.129ZM253.663 221.891C253.559 222.307 253.429 222.836 253.273 223.477C253.117 224.118 252.944 224.794 252.753 225.505C252.58 226.198 252.389 226.857 252.181 227.481C251.765 228.729 251.237 230.046 250.595 231.433C249.954 232.802 249.269 234.137 248.541 235.437C247.813 236.737 247.094 237.872 246.383 238.843L244.381 237.803C244.953 237.127 245.525 236.356 246.097 235.489C246.687 234.622 247.233 233.712 247.735 232.759C248.255 231.806 248.723 230.87 249.139 229.951C249.555 229.032 249.902 228.192 250.179 227.429C250.457 226.597 250.717 225.661 250.959 224.621C251.202 223.564 251.341 222.584 251.375 221.683L253.663 221.891ZM259.799 229.925C259.782 230.462 259.765 230.948 259.747 231.381C259.747 231.797 259.756 232.248 259.773 232.733C259.791 233.149 259.808 233.686 259.825 234.345C259.86 234.986 259.895 235.671 259.929 236.399C259.964 237.11 259.99 237.794 260.007 238.453C260.042 239.112 260.059 239.658 260.059 240.091C260.059 240.784 259.903 241.417 259.591 241.989C259.279 242.561 258.785 243.012 258.109 243.341C257.451 243.688 256.584 243.861 255.509 243.861C254.556 243.861 253.689 243.722 252.909 243.445C252.129 243.185 251.497 242.778 251.011 242.223C250.543 241.668 250.309 240.966 250.309 240.117C250.309 239.302 250.535 238.609 250.985 238.037C251.453 237.448 252.077 236.997 252.857 236.685C253.655 236.373 254.539 236.217 255.509 236.217C256.965 236.217 258.3 236.425 259.513 236.841C260.744 237.24 261.845 237.751 262.815 238.375C263.803 238.999 264.653 239.614 265.363 240.221L264.245 241.989C263.743 241.538 263.179 241.07 262.555 240.585C261.949 240.1 261.273 239.658 260.527 239.259C259.782 238.843 258.985 238.505 258.135 238.245C257.286 237.985 256.385 237.855 255.431 237.855C254.478 237.855 253.707 238.054 253.117 238.453C252.528 238.852 252.233 239.346 252.233 239.935C252.233 240.542 252.485 241.036 252.987 241.417C253.49 241.798 254.244 241.989 255.249 241.989C255.977 241.989 256.549 241.876 256.965 241.651C257.381 241.408 257.676 241.096 257.849 240.715C258.04 240.316 258.135 239.883 258.135 239.415C258.135 238.93 258.118 238.297 258.083 237.517C258.066 236.737 258.031 235.905 257.979 235.021C257.945 234.12 257.901 233.227 257.849 232.343C257.815 231.442 257.789 230.636 257.771 229.925H259.799ZM264.999 230.627C264.531 230.211 263.942 229.778 263.231 229.327C262.521 228.876 261.784 228.452 261.021 228.053C260.276 227.637 259.617 227.299 259.045 227.039L260.111 225.453C260.579 225.661 261.099 225.912 261.671 226.207C262.243 226.502 262.815 226.814 263.387 227.143C263.959 227.472 264.488 227.793 264.973 228.105C265.476 228.4 265.875 228.668 266.169 228.911L264.999 230.627ZM274.125 223.373C274.42 223.408 274.732 223.434 275.061 223.451C275.408 223.468 275.711 223.477 275.971 223.477C276.231 223.477 276.656 223.468 277.245 223.451C277.852 223.434 278.528 223.416 279.273 223.399C280.036 223.364 280.79 223.338 281.535 223.321C282.298 223.286 282.974 223.252 283.563 223.217C284.17 223.182 284.612 223.156 284.889 223.139C285.271 223.104 285.565 223.07 285.773 223.035C285.981 223 286.155 222.966 286.293 222.931L287.489 224.439C287.264 224.595 287.021 224.76 286.761 224.933C286.519 225.106 286.276 225.297 286.033 225.505C285.704 225.748 285.262 226.103 284.707 226.571C284.153 227.022 283.537 227.533 282.861 228.105C282.203 228.66 281.553 229.206 280.911 229.743C280.27 230.28 279.689 230.766 279.169 231.199C279.776 230.991 280.383 230.852 280.989 230.783C281.613 230.696 282.211 230.653 282.783 230.653C284.222 230.653 285.496 230.922 286.605 231.459C287.732 231.979 288.607 232.698 289.231 233.617C289.873 234.536 290.193 235.584 290.193 236.763C290.193 238.15 289.829 239.363 289.101 240.403C288.373 241.443 287.342 242.24 286.007 242.795C284.673 243.367 283.087 243.653 281.249 243.653C280.071 243.653 279.057 243.497 278.207 243.185C277.358 242.873 276.699 242.44 276.231 241.885C275.781 241.33 275.555 240.689 275.555 239.961C275.555 239.372 275.72 238.817 276.049 238.297C276.379 237.777 276.847 237.361 277.453 237.049C278.06 236.737 278.762 236.581 279.559 236.581C280.721 236.581 281.683 236.824 282.445 237.309C283.208 237.777 283.797 238.401 284.213 239.181C284.629 239.944 284.863 240.767 284.915 241.651L283.043 241.963C282.974 240.854 282.627 239.944 282.003 239.233C281.397 238.505 280.573 238.141 279.533 238.141C278.944 238.141 278.45 238.306 278.051 238.635C277.653 238.964 277.453 239.354 277.453 239.805C277.453 240.429 277.774 240.923 278.415 241.287C279.057 241.651 279.889 241.833 280.911 241.833C282.385 241.833 283.659 241.634 284.733 241.235C285.825 240.836 286.657 240.256 287.229 239.493C287.819 238.73 288.113 237.812 288.113 236.737C288.113 235.888 287.862 235.125 287.359 234.449C286.857 233.773 286.163 233.244 285.279 232.863C284.413 232.464 283.416 232.265 282.289 232.265C281.197 232.265 280.218 232.386 279.351 232.629C278.485 232.854 277.67 233.184 276.907 233.617C276.162 234.05 275.417 234.596 274.671 235.255C273.943 235.896 273.163 236.633 272.331 237.465L270.849 235.931C271.387 235.498 271.976 235.012 272.617 234.475C273.276 233.92 273.935 233.374 274.593 232.837C275.252 232.282 275.859 231.771 276.413 231.303C276.985 230.818 277.462 230.419 277.843 230.107C278.207 229.812 278.658 229.44 279.195 228.989C279.75 228.521 280.322 228.036 280.911 227.533C281.501 227.03 282.055 226.554 282.575 226.103C283.113 225.652 283.546 225.288 283.875 225.011C283.598 225.011 283.191 225.028 282.653 225.063C282.116 225.08 281.518 225.106 280.859 225.141C280.201 225.158 279.542 225.184 278.883 225.219C278.242 225.254 277.653 225.288 277.115 225.323C276.595 225.34 276.197 225.358 275.919 225.375C275.642 225.392 275.356 225.41 275.061 225.427C274.767 225.444 274.481 225.479 274.203 225.531L274.125 223.373ZM302.543 231.381H318.923V233.071H302.543V231.381ZM305.481 234.891H316.791V236.503H305.481V234.891ZM306.729 232.005L308.445 232.447C307.769 233.886 306.877 235.22 305.767 236.451C304.675 237.664 303.531 238.678 302.335 239.493C302.249 239.389 302.119 239.259 301.945 239.103C301.789 238.947 301.625 238.791 301.451 238.635C301.278 238.479 301.122 238.366 300.983 238.297C302.179 237.569 303.289 236.659 304.311 235.567C305.351 234.475 306.157 233.288 306.729 232.005ZM316.427 234.891H318.273C318.273 234.891 318.265 234.995 318.247 235.203C318.247 235.394 318.239 235.55 318.221 235.671C318.083 237.474 317.935 238.93 317.779 240.039C317.641 241.148 317.485 241.998 317.311 242.587C317.138 243.176 316.93 243.601 316.687 243.861C316.479 244.104 316.254 244.268 316.011 244.355C315.769 244.442 315.491 244.494 315.179 244.511C314.902 244.546 314.529 244.563 314.061 244.563C313.611 244.563 313.125 244.546 312.605 244.511C312.605 244.268 312.562 243.991 312.475 243.679C312.389 243.384 312.285 243.124 312.163 242.899C312.649 242.951 313.091 242.986 313.489 243.003C313.888 243.02 314.183 243.029 314.373 243.029C314.547 243.029 314.694 243.012 314.815 242.977C314.954 242.942 315.067 242.864 315.153 242.743C315.344 242.57 315.509 242.214 315.647 241.677C315.803 241.14 315.942 240.351 316.063 239.311C316.202 238.254 316.323 236.884 316.427 235.203V234.891ZM306.859 226.389V228.443H315.231V226.389H306.859ZM306.859 222.931V224.985H315.231V222.931H306.859ZM305.091 221.475H317.051V229.925H305.091V221.475ZM295.315 226.311H303.011V228.183H295.315V226.311ZM298.357 220.903H300.203V236.893H298.357V220.903ZM294.821 237.907C295.48 237.63 296.243 237.3 297.109 236.919C297.976 236.538 298.903 236.122 299.891 235.671C300.879 235.22 301.867 234.778 302.855 234.345L303.271 236.061C301.937 236.72 300.593 237.387 299.241 238.063C297.889 238.722 296.667 239.32 295.575 239.857L294.821 237.907ZM313.125 235.203L314.477 235.931C314.165 237.023 313.723 238.132 313.151 239.259C312.579 240.386 311.938 241.426 311.227 242.379C310.517 243.332 309.771 244.112 308.991 244.719C308.818 244.528 308.593 244.329 308.315 244.121C308.055 243.913 307.795 243.74 307.535 243.601C308.35 243.046 309.121 242.318 309.849 241.417C310.595 240.516 311.245 239.519 311.799 238.427C312.371 237.335 312.813 236.26 313.125 235.203ZM309.043 235.255L310.395 236.035C309.945 236.971 309.364 237.924 308.653 238.895C307.96 239.848 307.189 240.732 306.339 241.547C305.49 242.362 304.641 243.046 303.791 243.601C303.635 243.393 303.436 243.176 303.193 242.951C302.968 242.726 302.734 242.535 302.491 242.379C303.341 241.911 304.19 241.296 305.039 240.533C305.889 239.77 306.66 238.93 307.353 238.011C308.064 237.092 308.627 236.174 309.043 235.255ZM326.385 229.197H339.515V230.939H326.385V229.197ZM325.917 241.807H339.853V243.549H325.917V241.807ZM325.033 234.215H340.945V244.641H338.969V235.983H326.957V244.641H325.033V234.215ZM332.885 222.671C332.175 223.728 331.247 224.82 330.103 225.947C328.977 227.074 327.72 228.157 326.333 229.197C324.964 230.237 323.534 231.156 322.043 231.953C321.957 231.814 321.844 231.65 321.705 231.459C321.567 231.268 321.419 231.078 321.263 230.887C321.107 230.696 320.96 230.54 320.821 230.419C322.347 229.639 323.811 228.712 325.215 227.637C326.637 226.562 327.911 225.427 329.037 224.231C330.181 223.035 331.091 221.874 331.767 220.747H333.769C334.463 221.718 335.251 222.662 336.135 223.581C337.037 224.5 337.99 225.366 338.995 226.181C340.018 226.996 341.058 227.741 342.115 228.417C343.19 229.076 344.239 229.63 345.261 230.081C345.036 230.324 344.811 230.601 344.585 230.913C344.36 231.225 344.152 231.528 343.961 231.823C342.939 231.268 341.907 230.644 340.867 229.951C339.827 229.258 338.813 228.512 337.825 227.715C336.837 226.9 335.919 226.068 335.069 225.219C334.22 224.352 333.492 223.503 332.885 222.671ZM356.961 222.333C356.927 222.576 356.883 222.836 356.831 223.113C356.779 223.373 356.727 223.633 356.675 223.893C356.606 224.188 356.528 224.604 356.441 225.141C356.355 225.678 356.251 226.25 356.129 226.857C356.025 227.446 355.913 228.018 355.791 228.573C355.601 229.301 355.375 230.133 355.115 231.069C354.873 231.988 354.578 232.976 354.231 234.033C353.902 235.073 353.529 236.139 353.113 237.231C352.697 238.306 352.238 239.372 351.735 240.429C351.233 241.486 350.687 242.492 350.097 243.445L347.991 242.587C348.581 241.807 349.135 240.923 349.655 239.935C350.175 238.947 350.652 237.924 351.085 236.867C351.519 235.792 351.909 234.735 352.255 233.695C352.602 232.655 352.897 231.693 353.139 230.809C353.399 229.908 353.599 229.136 353.737 228.495C353.98 227.472 354.179 226.398 354.335 225.271C354.491 224.144 354.569 223.087 354.569 222.099L356.961 222.333ZM365.905 225.349C366.321 225.869 366.755 226.528 367.205 227.325C367.673 228.122 368.124 228.963 368.557 229.847C369.008 230.731 369.415 231.589 369.779 232.421C370.161 233.253 370.455 233.972 370.663 234.579L368.661 235.541C368.471 234.865 368.202 234.102 367.855 233.253C367.526 232.404 367.145 231.546 366.711 230.679C366.295 229.795 365.853 228.963 365.385 228.183C364.935 227.386 364.475 226.727 364.007 226.207L365.905 225.349ZM347.601 228.053C348.017 228.07 348.407 228.079 348.771 228.079C349.135 228.079 349.525 228.07 349.941 228.053C350.323 228.036 350.817 228.01 351.423 227.975C352.047 227.923 352.715 227.871 353.425 227.819C354.136 227.75 354.847 227.689 355.557 227.637C356.268 227.568 356.918 227.516 357.507 227.481C358.097 227.429 358.565 227.403 358.911 227.403C359.691 227.403 360.393 227.533 361.017 227.793C361.659 228.036 362.17 228.478 362.551 229.119C362.95 229.743 363.149 230.644 363.149 231.823C363.149 232.846 363.097 233.955 362.993 235.151C362.889 236.33 362.725 237.456 362.499 238.531C362.291 239.588 362.005 240.481 361.641 241.209C361.243 242.076 360.723 242.648 360.081 242.925C359.44 243.22 358.695 243.367 357.845 243.367C357.343 243.367 356.805 243.324 356.233 243.237C355.679 243.168 355.193 243.09 354.777 243.003L354.439 240.819C354.803 240.94 355.185 241.044 355.583 241.131C355.982 241.2 356.363 241.261 356.727 241.313C357.091 241.348 357.386 241.365 357.611 241.365C358.097 241.365 358.53 241.287 358.911 241.131C359.293 240.958 359.622 240.585 359.899 240.013C360.177 239.424 360.402 238.687 360.575 237.803C360.766 236.919 360.905 235.974 360.991 234.969C361.078 233.964 361.121 232.993 361.121 232.057C361.121 231.26 361.009 230.662 360.783 230.263C360.558 229.864 360.237 229.596 359.821 229.457C359.405 229.318 358.92 229.249 358.365 229.249C357.932 229.249 357.343 229.284 356.597 229.353C355.852 229.405 355.055 229.474 354.205 229.561C353.356 229.63 352.567 229.708 351.839 229.795C351.129 229.882 350.574 229.942 350.175 229.977C349.863 230.012 349.473 230.064 349.005 230.133C348.555 230.185 348.165 230.237 347.835 230.289L347.601 228.053ZM366.217 221.579C366.443 221.874 366.677 222.238 366.919 222.671C367.179 223.087 367.439 223.52 367.699 223.971C367.959 224.404 368.176 224.794 368.349 225.141L366.919 225.765C366.763 225.418 366.564 225.028 366.321 224.595C366.079 224.162 365.827 223.728 365.567 223.295C365.307 222.862 365.056 222.48 364.813 222.151L366.217 221.579ZM369.077 220.513C369.303 220.842 369.554 221.224 369.831 221.657C370.109 222.09 370.377 222.524 370.637 222.957C370.897 223.373 371.105 223.746 371.261 224.075L369.857 224.699C369.58 224.127 369.242 223.512 368.843 222.853C368.445 222.177 368.063 221.596 367.699 221.111L369.077 220.513ZM377.579 224.569C378.515 224.673 379.564 224.751 380.725 224.803C381.904 224.855 383.143 224.881 384.443 224.881C385.275 224.881 386.107 224.864 386.939 224.829C387.789 224.794 388.595 224.751 389.357 224.699C390.137 224.647 390.839 224.586 391.463 224.517V226.649C390.874 226.701 390.189 226.753 389.409 226.805C388.629 226.857 387.806 226.9 386.939 226.935C386.09 226.952 385.267 226.961 384.469 226.961C383.152 226.961 381.93 226.935 380.803 226.883C379.677 226.831 378.602 226.762 377.579 226.675V224.569ZM378.619 235.047C378.446 235.55 378.316 236.052 378.229 236.555C378.143 237.04 378.099 237.517 378.099 237.985C378.099 238.99 378.602 239.805 379.607 240.429C380.63 241.036 382.181 241.339 384.261 241.339C385.475 241.339 386.627 241.304 387.719 241.235C388.829 241.148 389.843 241.027 390.761 240.871C391.697 240.715 392.495 240.533 393.153 240.325L393.179 242.561C392.555 242.717 391.784 242.864 390.865 243.003C389.964 243.159 388.959 243.272 387.849 243.341C386.74 243.428 385.561 243.471 384.313 243.471C382.563 243.471 381.063 243.28 379.815 242.899C378.567 242.518 377.614 241.954 376.955 241.209C376.297 240.464 375.967 239.545 375.967 238.453C375.967 237.777 376.028 237.136 376.149 236.529C376.271 235.922 376.392 235.359 376.513 234.839L378.619 235.047ZM392.191 221.657C392.417 221.969 392.659 222.342 392.919 222.775C393.179 223.191 393.431 223.624 393.673 224.075C393.933 224.508 394.15 224.898 394.323 225.245L392.919 225.895C392.659 225.358 392.33 224.742 391.931 224.049C391.533 223.356 391.151 222.758 390.787 222.255L392.191 221.657ZM395.051 220.617C395.294 220.946 395.554 221.328 395.831 221.761C396.109 222.194 396.377 222.628 396.637 223.061C396.897 223.477 397.105 223.85 397.261 224.179L395.831 224.803C395.554 224.231 395.216 223.616 394.817 222.957C394.436 222.281 394.055 221.7 393.673 221.215L395.051 220.617ZM418.035 221.163C418.261 221.458 418.495 221.822 418.737 222.255C418.997 222.688 419.249 223.122 419.491 223.555C419.751 223.988 419.968 224.387 420.141 224.751L418.737 225.375C418.581 225.011 418.382 224.612 418.139 224.179C417.897 223.746 417.645 223.312 417.385 222.879C417.125 222.446 416.874 222.073 416.631 221.761L418.035 221.163ZM420.895 220.123C421.138 220.452 421.389 220.834 421.649 221.267C421.927 221.7 422.195 222.134 422.455 222.567C422.715 223 422.923 223.382 423.079 223.711L421.675 224.335C421.398 223.746 421.06 223.122 420.661 222.463C420.28 221.787 419.899 221.206 419.517 220.721L420.895 220.123ZM411.275 224.309C411.189 224.014 411.085 223.685 410.963 223.321C410.859 222.957 410.747 222.602 410.625 222.255L412.861 221.995C412.931 222.48 413.043 223.044 413.199 223.685C413.373 224.309 413.563 224.95 413.771 225.609C413.979 226.25 414.179 226.857 414.369 227.429C414.768 228.556 415.271 229.674 415.877 230.783C416.484 231.892 417.065 232.828 417.619 233.591C417.793 233.834 417.975 234.076 418.165 234.319C418.356 234.544 418.547 234.761 418.737 234.969L417.697 236.451C417.385 236.364 416.969 236.286 416.449 236.217C415.929 236.148 415.375 236.087 414.785 236.035C414.196 235.966 413.607 235.905 413.017 235.853C412.428 235.801 411.891 235.758 411.405 235.723L411.561 234.007C412.064 234.042 412.584 234.085 413.121 234.137C413.676 234.189 414.196 234.232 414.681 234.267C415.184 234.302 415.583 234.345 415.877 234.397C415.513 233.842 415.123 233.201 414.707 232.473C414.291 231.745 413.884 230.982 413.485 230.185C413.104 229.37 412.766 228.573 412.471 227.793C412.194 227.048 411.96 226.38 411.769 225.791C411.579 225.202 411.414 224.708 411.275 224.309ZM401.759 226.311C403.215 226.484 404.619 226.606 405.971 226.675C407.341 226.744 408.632 226.762 409.845 226.727C411.076 226.692 412.185 226.623 413.173 226.519C413.867 226.45 414.595 226.354 415.357 226.233C416.137 226.094 416.909 225.938 417.671 225.765C418.451 225.574 419.171 225.366 419.829 225.141L420.063 227.195C419.457 227.368 418.789 227.533 418.061 227.689C417.333 227.828 416.605 227.958 415.877 228.079C415.149 228.183 414.473 228.278 413.849 228.365C412.185 228.556 410.339 228.66 408.311 228.677C406.283 228.677 404.117 228.582 401.811 228.391L401.759 226.311ZM405.789 234.605C405.408 235.246 405.105 235.862 404.879 236.451C404.654 237.023 404.541 237.612 404.541 238.219C404.541 239.45 405.079 240.351 406.153 240.923C407.228 241.495 408.736 241.79 410.677 241.807C411.995 241.824 413.208 241.781 414.317 241.677C415.444 241.556 416.458 241.391 417.359 241.183L417.281 243.263C416.467 243.402 415.505 243.532 414.395 243.653C413.286 243.774 412.003 243.826 410.547 243.809C408.918 243.809 407.497 243.61 406.283 243.211C405.07 242.812 404.134 242.214 403.475 241.417C402.817 240.62 402.487 239.64 402.487 238.479C402.487 237.751 402.6 237.04 402.825 236.347C403.068 235.636 403.371 234.9 403.735 234.137L405.789 234.605ZM429.735 224.387C429.701 224.595 429.666 224.855 429.631 225.167C429.614 225.479 429.588 225.791 429.553 226.103C429.536 226.415 429.527 226.684 429.527 226.909C429.51 227.446 429.501 228.062 429.501 228.755C429.519 229.431 429.536 230.142 429.553 230.887C429.588 231.615 429.64 232.343 429.709 233.071C429.848 234.51 430.082 235.775 430.411 236.867C430.741 237.942 431.139 238.782 431.607 239.389C432.093 239.996 432.639 240.299 433.245 240.299C433.575 240.299 433.895 240.152 434.207 239.857C434.519 239.545 434.814 239.138 435.091 238.635C435.386 238.115 435.646 237.543 435.871 236.919C436.114 236.278 436.313 235.636 436.469 234.995L438.107 236.841C437.587 238.314 437.059 239.484 436.521 240.351C436.001 241.2 435.464 241.816 434.909 242.197C434.372 242.578 433.809 242.769 433.219 242.769C432.405 242.769 431.616 242.474 430.853 241.885C430.091 241.278 429.432 240.308 428.877 238.973C428.323 237.621 427.924 235.827 427.681 233.591C427.595 232.828 427.525 232.005 427.473 231.121C427.439 230.237 427.413 229.396 427.395 228.599C427.395 227.802 427.395 227.152 427.395 226.649C427.395 226.354 427.387 225.973 427.369 225.505C427.352 225.037 427.3 224.647 427.213 224.335L429.735 224.387ZM443.281 225.115C443.749 225.704 444.191 226.398 444.607 227.195C445.041 227.975 445.431 228.816 445.777 229.717C446.141 230.601 446.462 231.52 446.739 232.473C447.034 233.426 447.268 234.38 447.441 235.333C447.632 236.269 447.771 237.17 447.857 238.037L445.777 238.895C445.673 237.716 445.491 236.52 445.231 235.307C444.971 234.076 444.651 232.889 444.269 231.745C443.888 230.584 443.446 229.492 442.943 228.469C442.441 227.446 441.877 226.562 441.253 225.817L443.281 225.115ZM464.835 221.891C464.801 222.116 464.766 222.368 464.731 222.645C464.714 222.922 464.697 223.252 464.679 223.633C464.679 223.893 464.671 224.283 464.653 224.803C464.653 225.323 464.653 225.912 464.653 226.571C464.653 227.212 464.653 227.862 464.653 228.521C464.653 229.18 464.653 229.786 464.653 230.341C464.653 231.208 464.671 232.118 464.705 233.071C464.74 234.024 464.783 234.952 464.835 235.853C464.887 236.754 464.931 237.578 464.965 238.323C465 239.068 465.017 239.658 465.017 240.091C465.017 240.698 464.87 241.278 464.575 241.833C464.298 242.388 463.821 242.838 463.145 243.185C462.487 243.549 461.585 243.731 460.441 243.731C458.569 243.731 457.139 243.402 456.151 242.743C455.163 242.102 454.669 241.157 454.669 239.909C454.669 239.112 454.903 238.418 455.371 237.829C455.857 237.24 456.55 236.78 457.451 236.451C458.353 236.104 459.427 235.931 460.675 235.931C462.045 235.931 463.327 236.096 464.523 236.425C465.737 236.737 466.846 237.136 467.851 237.621C468.857 238.106 469.749 238.618 470.529 239.155C471.309 239.675 471.951 240.143 472.453 240.559L471.257 242.405C470.668 241.85 469.983 241.296 469.203 240.741C468.441 240.186 467.6 239.675 466.681 239.207C465.78 238.739 464.801 238.366 463.743 238.089C462.703 237.794 461.594 237.647 460.415 237.647C459.167 237.647 458.214 237.855 457.555 238.271C456.914 238.687 456.593 239.198 456.593 239.805C456.593 240.186 456.715 240.542 456.957 240.871C457.2 241.183 457.59 241.434 458.127 241.625C458.665 241.816 459.358 241.911 460.207 241.911C460.71 241.911 461.169 241.85 461.585 241.729C462.001 241.59 462.331 241.356 462.573 241.027C462.833 240.698 462.963 240.238 462.963 239.649C462.963 239.146 462.946 238.496 462.911 237.699C462.894 236.884 462.868 236.026 462.833 235.125C462.799 234.206 462.764 233.322 462.729 232.473C462.712 231.624 462.703 230.913 462.703 230.341C462.703 229.752 462.703 229.154 462.703 228.547C462.703 227.923 462.703 227.308 462.703 226.701C462.703 226.094 462.703 225.514 462.703 224.959C462.721 224.404 462.729 223.902 462.729 223.451C462.729 223.243 462.721 222.974 462.703 222.645C462.686 222.316 462.66 222.064 462.625 221.891H464.835ZM454.877 224.725C455.311 224.794 455.813 224.864 456.385 224.933C456.957 225.002 457.555 225.072 458.179 225.141C458.821 225.193 459.427 225.236 459.999 225.271C460.589 225.288 461.1 225.297 461.533 225.297C463.18 225.297 464.861 225.236 466.577 225.115C468.311 224.994 470.018 224.794 471.699 224.517L471.673 226.415C470.72 226.519 469.68 226.623 468.553 226.727C467.427 226.831 466.265 226.918 465.069 226.987C463.891 227.056 462.721 227.091 461.559 227.091C460.953 227.091 460.233 227.065 459.401 227.013C458.569 226.961 457.746 226.9 456.931 226.831C456.134 226.762 455.458 226.701 454.903 226.649L454.877 224.725ZM454.747 230.237C455.215 230.306 455.735 230.376 456.307 230.445C456.879 230.514 457.469 230.566 458.075 230.601C458.682 230.636 459.263 230.67 459.817 230.705C460.372 230.722 460.866 230.731 461.299 230.731C462.565 230.731 463.787 230.705 464.965 230.653C466.161 230.584 467.331 230.497 468.475 230.393C469.637 230.272 470.781 230.124 471.907 229.951L471.881 231.901C471.015 232.022 470.148 232.126 469.281 232.213C468.432 232.282 467.574 232.343 466.707 232.395C465.858 232.447 464.983 232.49 464.081 232.525C463.197 232.542 462.261 232.551 461.273 232.551C460.684 232.551 459.999 232.534 459.219 232.499C458.457 232.464 457.677 232.421 456.879 232.369C456.099 232.317 455.397 232.256 454.773 232.187L454.747 230.237ZM492.239 221.943C492.239 222.03 492.222 222.186 492.187 222.411C492.17 222.636 492.153 222.862 492.135 223.087C492.135 223.295 492.127 223.46 492.109 223.581C492.092 223.91 492.083 224.361 492.083 224.933C492.083 225.505 492.083 226.129 492.083 226.805C492.083 227.481 492.083 228.166 492.083 228.859C492.101 229.552 492.109 230.202 492.109 230.809C492.127 231.416 492.135 231.927 492.135 232.343L490.133 231.355C490.133 231.112 490.133 230.748 490.133 230.263C490.133 229.76 490.133 229.188 490.133 228.547C490.133 227.888 490.125 227.238 490.107 226.597C490.107 225.956 490.099 225.366 490.081 224.829C490.064 224.292 490.047 223.876 490.029 223.581C490.012 223.234 489.986 222.905 489.951 222.593C489.917 222.264 489.891 222.047 489.873 221.943H492.239ZM478.433 225.557C479.144 225.557 479.95 225.548 480.851 225.531C481.753 225.496 482.706 225.462 483.711 225.427C484.734 225.392 485.765 225.366 486.805 225.349C487.845 225.332 488.842 225.314 489.795 225.297C490.766 225.28 491.659 225.271 492.473 225.271C493.253 225.271 494.033 225.271 494.813 225.271C495.593 225.271 496.321 225.271 496.997 225.271C497.691 225.271 498.297 225.28 498.817 225.297C499.355 225.297 499.779 225.297 500.091 225.297L500.065 227.221C499.337 227.186 498.358 227.16 497.127 227.143C495.914 227.108 494.354 227.091 492.447 227.091C491.321 227.091 490.142 227.108 488.911 227.143C487.698 227.16 486.476 227.186 485.245 227.221C484.015 227.256 482.819 227.308 481.657 227.377C480.513 227.429 479.456 227.49 478.485 227.559L478.433 225.557ZM492.083 233.123C492.083 234.267 491.91 235.229 491.563 236.009C491.234 236.789 490.766 237.37 490.159 237.751C489.57 238.132 488.877 238.323 488.079 238.323C487.542 238.323 487.013 238.236 486.493 238.063C485.991 237.872 485.531 237.595 485.115 237.231C484.717 236.85 484.396 236.39 484.153 235.853C483.928 235.298 483.815 234.674 483.815 233.981C483.815 233.114 484.023 232.343 484.439 231.667C484.855 230.991 485.41 230.454 486.103 230.055C486.814 229.656 487.577 229.457 488.391 229.457C489.414 229.457 490.255 229.691 490.913 230.159C491.589 230.61 492.101 231.234 492.447 232.031C492.794 232.811 492.967 233.704 492.967 234.709C492.967 235.576 492.837 236.46 492.577 237.361C492.335 238.262 491.919 239.129 491.329 239.961C490.757 240.793 489.969 241.556 488.963 242.249C487.975 242.925 486.719 243.488 485.193 243.939L483.451 242.223C484.63 241.946 485.687 241.59 486.623 241.157C487.559 240.724 488.348 240.195 488.989 239.571C489.631 238.947 490.116 238.219 490.445 237.387C490.792 236.555 490.965 235.602 490.965 234.527C490.965 233.348 490.714 232.499 490.211 231.979C489.709 231.459 489.102 231.199 488.391 231.199C487.941 231.199 487.516 231.312 487.117 231.537C486.719 231.745 486.389 232.057 486.129 232.473C485.887 232.889 485.765 233.383 485.765 233.955C485.765 234.77 486.025 235.402 486.545 235.853C487.083 236.304 487.707 236.529 488.417 236.529C488.955 236.529 489.414 236.382 489.795 236.087C490.177 235.775 490.445 235.316 490.601 234.709C490.775 234.085 490.792 233.314 490.653 232.395L492.083 233.123Z" fill="#040000"/>
</svg>
