<svg width="46" height="47" viewBox="0 0 46 47" fill="none" xmlns="http://www.w3.org/2000/svg">
<path d="M34.6462 31.0572L44.7527 34.4984C45.1132 34.6174 45.3465 34.9637 45.3465 35.3424V39.1515C45.3465 43.0797 42.2181 46.272 38.3685 46.272C17.1799 46.272 0 28.7414 0 7.10961C0 3.18147 3.11784 0 6.96742 0H10.7109C11.0821 0 11.4215 0.248892 11.5381 0.605996L14.9105 10.9187C15.0377 11.2975 14.8999 11.7195 14.5711 11.9359L10.0428 15.02C9.70348 15.2581 9.55501 15.7017 9.70348 16.0913C13.044 24.954 20.8916 32.9618 29.5877 36.3813C29.9694 36.5328 30.4042 36.3813 30.6375 36.035L33.6599 31.4143C33.8826 31.0788 34.2856 30.9382 34.6568 31.068L34.6462 31.0572Z" fill="white"/>
</svg>
